<?xml version="1.0" standalone="no"?>
<!DOCTYPE svg PUBLIC "-//W3C//DTD SVG 1.1//EN" "http://www.w3.org/Graphics/SVG/1.1/DTD/svg11.dtd" >
<svg xmlns="http://www.w3.org/2000/svg" xmlns:xlink="http://www.w3.org/1999/xlink" version="1.1">
<metadata>
Created by FontForge 20170731 at Sat Jul 24 06:22:41 2021
 By Aleksey,,,
Copyright (c) 2021 by Fontcraft: Jutipong Poosumas. All rights reserved.
</metadata>
<defs>
<font id="FCSubject-Bold" horiz-adv-x="0" >
  <font-face 
    font-family="FC Subject Bold"
    font-weight="700"
    font-stretch="normal"
    units-per-em="1000"
    panose-1="0 0 0 0 0 0 0 0 0 0"
    ascent="800"
    descent="-200"
    x-height="517"
    cap-height="700"
    bbox="-554 -288 1067 1143"
    underline-thickness="50"
    underline-position="-175"
    unicode-range="U+000A-FB02"
  />
<missing-glyph horiz-adv-x="600" 
 />
    <glyph glyph-name="fi" unicode="fi" horiz-adv-x="627" 
d="M406 651q0 35 23 59t67 24q41 0 64 -24t23 -59q0 -34 -23 -58t-64 -24q-44 0 -67 24t-23 58zM360 586q-27 3 -46 3q-28 0 -42 -11t-14 -43v-30h85v-105h-85v-400h-160v400h-80v105h80v35q0 45 13 76.5t36.5 52t55.5 29.5t70 9q20 0 42 -2.5t45 -7.5v-111zM415 517h160
v-517h-160v517z" />
    <glyph glyph-name="fl" unicode="fl" horiz-adv-x="677" 
d="M360 586q-27 3 -46 3q-28 0 -42 -11t-14 -43v-30h85v-105h-85v-400h-160v400h-80v105h80v35q0 45 13 76.5t36.5 52t55.5 29.5t70 9q20 0 42 -2.5t45 -7.5v-111zM408 700h161v-523q0 -33 15 -47.5t54 -14.5q7 0 12.5 1t13.5 2v-111q-41 -10 -83 -10q-38 0 -70 9t-55 29.5
t-35.5 52t-12.5 76.5v536z" />
    <glyph glyph-name="ru.lakyao" unicode="&#xe24;&#xe32;" horiz-adv-x="929" 
d="M38 141q0 32 12 57t32.5 44.5t47 32.5t55.5 20l-154 25v9q0 127 70 189.5t197 62.5q60 0 108.5 -13t83.5 -37q19 12 43 21.5t49 16t49.5 9.5t43.5 3q42 0 81 -9t68.5 -29t47 -52t17.5 -77v-614h-162v564q0 38 -22.5 65t-69.5 27q-22 0 -40 -3t-38 -7q11 -22 16.5 -46.5
t5.5 -53.5v-546h-162v530q0 56 -29.5 90t-89.5 34q-52 0 -83.5 -25t-36.5 -73l114 -24v-39q-16 -7 -32.5 -18t-29 -25t-20.5 -31t-8 -37q0 -33 20.5 -52t53.5 -19h27v-111h-76q-34 0 -68 6.5t-61 22.5t-43.5 43t-16.5 69z" />
    <glyph glyph-name="lu.lakyao" unicode="&#xe26;&#xe32;" horiz-adv-x="933" 
d="M36 329q0 127 69.5 189.5t196.5 62.5q60 0 108.5 -13t83.5 -37q19 12 43 21.5t49.5 16t49.5 9.5t43 3q43 0 82 -9t68 -29t46.5 -52t17.5 -77v-614h-160v564q0 38 -23 65t-71 27q-20 0 -39 -3t-38 -7q21 -43 21 -100v-546h-162v530q0 56 -28.5 90t-90.5 34
q-52 0 -83.5 -25t-36.5 -73l119 -24v-39q-32 -13 -48 -37t-16 -64v-57q0 -69 -37 -102t-112 -33h-72v111h25q44 0 44 53v32q0 38 26.5 65t82.5 34l-158 25v9z" />
    <glyph glyph-name="Fontcraft" unicode="FontcraftLogo" horiz-adv-x="790" 
d="M396 709q69 0 129 -26t105 -71t71 -105.5t26 -129.5t-26 -129.5t-71 -105.5t-105 -71t-129 -26t-129.5 26t-106 71t-71.5 105.5t-26 129.5t26 129.5t71.5 105.5t106 71t129.5 26zM396 104q57 0 106.5 22t86 59t58 87t21.5 105q0 57 -21.5 107t-59 87t-86.5 58t-105 21
q-57 0 -106.5 -21.5t-87 -58.5t-59 -87t-21.5 -106q0 -57 21.5 -106.5t59 -86.5t87 -58.5t106.5 -21.5zM581 500q17 -27 26.5 -57.5t9.5 -65.5q0 -46 -17.5 -87t-48 -71t-70.5 -47.5t-85 -17.5q-47 0 -88 17.5t-71.5 47.5t-48 71t-17.5 87q0 47 17.5 87.5t48 70.5t71.5 47
t88 17q40 0 78 -14t67 -39l-40 -180q-7 -29 -16.5 -40.5t-29.5 -11.5q-17 0 -27 8t-7 28l16 76q1 8 -4 15.5t-20 7.5q-20 0 -25 -20l-16 -73q-3 -15 -14 -30.5t-36 -15.5q-13 0 -20.5 9.5t-2.5 34.5l13 65q3 20 -9.5 26.5t-32.5 6.5q-26 0 -34 -8t-8 -18q0 -11 5.5 -19
t15.5 -8h7l-7 -37q-4 -20 -2.5 -38t10 -32t25 -22t40.5 -8q18 0 36.5 8t29.5 31q3 -11 10 -18.5t17 -12t20.5 -6.5t19.5 -2q22 0 37.5 7.5t26 19t17 26t9.5 29.5zM200 -26l-9 -52q-3 -14 -12 -20.5t-21 -6.5t-18.5 6.5t-4.5 20.5l9 52q7 28 33 28q12 0 18.5 -7.5t4.5 -20.5z
M400 -79l1 7h20l-1 -6q-2 -14 -11 -20.5t-21 -6.5t-18.5 6.5t-4.5 20.5l9 52q7 28 33 28q11 0 17.5 -6.5t4.5 -19.5q0 -2 -2 -8l-20 -1q1 3 1 7q2 10 -4 10q-5 0 -6 -2.5t-2 -7.5l-11 -53q0 -3 1.5 -6t4.5 -3q5 0 6.5 3t2.5 6zM79 0h50l-4 -17h-29l-4 -26h24l-4 -16h-23
l-9 -45h-20zM264 0h21l-18 -104h-21l-6 67l-12 -67h-18l17 104h23l3 -53v-13h1q0 5 1 8.5t2 8.5zM305 0h55l-3 -17h-18l-14 -87h-22l16 87h-17zM504 -29v-3q-4 -16 -16 -21l3 -51h-22v47h-4l-8 -47h-20l18 104h28q12 0 18 -6t3 -23zM545 0h25l3 -104h-23l1 23h-16l-7 -23
h-20zM609 0h50l-3 -17h-30l-4 -26h24l-3 -16h-24l-9 -45h-20zM675 0h55l-3 -17h-16l-16 -87h-22l16 87h-17zM169 -79l11 53q0 10 -6 10q-7 0 -9 -10l-10 -53q0 -3 1.5 -6t4.5 -3q5 0 6.5 3t1.5 6zM472 -16l-4 -26h5q5 0 7 3.5t3 6.5l2 5q0 5 -1 8t-6 3h-6zM542 -62h9l1 30z
" />
    <glyph glyph-name=".notdef" horiz-adv-x="600" 
 />
    <glyph glyph-name=".null" 
 />
    <glyph glyph-name=".null" 
 />
    <glyph glyph-name="uni000D" unicode="&#xd;" horiz-adv-x="250" 
 />
    <glyph glyph-name="uni000A" unicode="&#xa;" horiz-adv-x="300" 
 />
    <glyph glyph-name="space" unicode=" " horiz-adv-x="300" 
 />
    <glyph glyph-name="exclam" unicode="!" horiz-adv-x="292" 
d="M65 446v254h161v-254l-9 -202h-142zM147 178q45 0 69.5 -26t24.5 -64q0 -37 -24.5 -62.5t-69.5 -25.5q-46 0 -71 25.5t-25 62.5q0 38 25 64t71 26z" />
    <glyph glyph-name="quotedbl" unicode="&#x22;" horiz-adv-x="398" 
d="M37 700h135l-11 -257h-115zM226 700h135l-9 -257h-115z" />
    <glyph glyph-name="numbersign" unicode="#" horiz-adv-x="696" 
d="M119 177h-102v96h122l30 148h-105v96h126l38 183h143l-39 -183h106l38 183h142l-38 -183h98v-96h-119l-30 -148h102v-96h-122l-36 -177h-141l36 177h-106l-36 -177h-144zM387 273l30 148h-106l-30 -148h106z" />
    <glyph glyph-name="dollar" unicode="$" horiz-adv-x="629" 
d="M184 213q6 -42 39.5 -67.5t89.5 -25.5q57 0 88.5 21t31.5 58q0 17 -6 29t-19.5 21t-36.5 16.5t-57 14.5l-69 14q-106 22 -159.5 70.5t-53.5 127.5q0 42 15 77.5t42.5 62.5t65.5 44.5t83 24.5v97h140v-97q51 -7 89 -26.5t64.5 -48t40 -64.5t14.5 -77h-158q-2 42 -33 69
t-85 27q-53 0 -82 -21t-29 -55q0 -32 26.5 -51t87.5 -30l72 -15q112 -20 165.5 -66.5t53.5 -127.5q0 -91 -60 -147.5t-166 -69.5v-102h-140v103q-98 14 -154 70t-58 144h158z" />
    <glyph glyph-name="percent" unicode="%" horiz-adv-x="755" 
d="M26 548q0 37 12.5 66.5t33.5 50.5t49.5 32t60.5 11t60 -11t49 -32t33.5 -50.5t12.5 -66.5q0 -36 -12.5 -65.5t-33.5 -50t-49 -31.5t-60 -11t-60.5 11t-49.5 31.5t-33.5 50t-12.5 65.5zM653 700l-414 -700h-136l413 700h137zM126 548q0 -32 15 -49.5t41 -17.5
q24 0 39 17.5t15 49.5t-15 49.5t-39 17.5q-26 0 -41 -17.5t-15 -49.5zM418 150q0 37 12.5 66.5t33.5 50.5t49 32t59 11q32 0 60.5 -11t49.5 -32t33.5 -50.5t12.5 -66.5q0 -36 -12.5 -65t-33.5 -49.5t-49.5 -31.5t-60.5 -11q-31 0 -59 11t-49 31.5t-33.5 49.5t-12.5 65z
M517 150q0 -30 14.5 -48.5t40.5 -18.5q25 0 40 18.5t15 48.5q0 32 -15 50t-40 18q-26 0 -40.5 -18t-14.5 -50z" />
    <glyph glyph-name="ampersand" unicode="&#x26;" horiz-adv-x="705" 
d="M268 -8q-114 0 -172.5 49.5t-58.5 138.5q0 56 27 103t84 76l2 1q2 0 4 2l23 12l6 3q-25 26 -41 48t-25 42t-12 39t-3 38q0 35 13.5 65t39 52t63 34.5t85.5 12.5t85 -13t62 -36t37.5 -54t12.5 -66q0 -53 -29.5 -98t-101.5 -84l109 -120q11 15 18.5 41t11.5 48h129
q-2 -23 -7 -49t-13 -51.5t-18.5 -48.5t-23.5 -39l136 -138h-167l-60 59q-38 -33 -94 -50t-122 -17zM234 534q0 -10 2.5 -20.5t9 -22t18 -25.5t29.5 -31q42 22 60.5 47t18.5 53q0 31 -18 49.5t-49 18.5q-33 0 -52 -18.5t-19 -50.5zM285 103q35 0 61.5 12.5t45.5 32.5
l-132 144q-5 -2 -13.5 -6t-12.5 -6q-34 -20 -42 -46t-8 -49q0 -15 6 -29.5t18.5 -26t31.5 -19t45 -7.5z" />
    <glyph glyph-name="quotesingle" unicode="'" horiz-adv-x="208" 
d="M37 700h135l-10 -257h-116z" />
    <glyph glyph-name="parenleft" unicode="(" horiz-adv-x="344" 
d="M334 740q-27 -39 -49 -87t-37 -101.5t-23.5 -110t-8.5 -112.5t8.5 -113t23.5 -110.5t37 -101.5t49 -86h-144q-61 82 -93.5 187t-32.5 224q0 118 32.5 222.5t93.5 188.5h144z" />
    <glyph glyph-name="parenright" unicode=")" horiz-adv-x="344" 
d="M154 740q60 -84 92.5 -188.5t32.5 -222.5q0 -119 -32.5 -224t-92.5 -187h-145q27 38 49 86t37.5 101.5t24 110.5t8.5 113t-8.5 112.5t-24 110t-37.5 101.5t-49 87h145z" />
    <glyph glyph-name="asterisk" unicode="*" horiz-adv-x="378" 
d="M262 512l64 -82l-79 -57l-58 86l-57 -86l-79 57l63 82l-99 28l30 93l97 -36l-3 103h97l-4 -103l97 36l31 -93z" />
    <glyph glyph-name="plus" unicode="+" horiz-adv-x="587" 
d="M222 254h-182v125h182v159h143v-159h182v-125h-182v-159h-143v159z" />
    <glyph glyph-name="comma" unicode="," horiz-adv-x="221" 
d="M-8 -123l54 237h156l-79 -237h-131z" />
    <glyph glyph-name="hyphen" unicode="-" horiz-adv-x="490" 
d="M450 254h-410v125h410v-125z" />
    <glyph glyph-name="period" unicode="." horiz-adv-x="229" 
d="M115 0q-46 0 -71 26.5t-25 61.5q0 37 25 63.5t71 26.5q45 0 70 -26.5t25 -63.5q0 -35 -25 -61.5t-70 -26.5z" />
    <glyph glyph-name="slash" unicode="/" horiz-adv-x="435" 
d="M426 700l-258 -700h-165l259 700h164z" />
    <glyph glyph-name="zero" unicode="0" horiz-adv-x="649" 
d="M325 -6q-69 0 -124.5 23.5t-95 69t-61 112t-21.5 152.5q0 87 21.5 153.5t61 111.5t95 68.5t124.5 23.5q68 0 123.5 -23.5t95 -68.5t61 -111.5t21.5 -153.5q0 -86 -21.5 -152.5t-61 -112t-95 -69t-123.5 -23.5zM325 125q60 0 95.5 53.5t35.5 172.5q0 121 -35.5 173
t-95.5 52q-61 0 -96 -52t-35 -173q0 -119 35 -172.5t96 -53.5z" />
    <glyph glyph-name="one" unicode="1" horiz-adv-x="446" 
d="M220 700h123v-700h-164v562l-167 -64v121z" />
    <glyph glyph-name="two" unicode="2" horiz-adv-x="577" 
d="M263 129v-4h281v-125h-514v92q56 55 105 103q21 20 42.5 41t41 40t35.5 34.5t26 25.5q33 33 53.5 56.5t32.5 41t16 31.5t4 28q0 42 -25 66.5t-79 24.5q-31 0 -52 -10t-33.5 -26.5t-18 -38.5t-5.5 -46h-148q0 48 13.5 92.5t44.5 78.5t80 54t119 20q66 0 114.5 -15.5
t80.5 -43t47.5 -64.5t15.5 -81q0 -34 -6 -59.5t-21.5 -51t-42 -55t-67.5 -71.5z" />
    <glyph glyph-name="three" unicode="3" horiz-adv-x="618" 
d="M455 360q59 -13 95.5 -54t36.5 -113q0 -37 -15.5 -73t-49.5 -64.5t-88 -46t-131 -17.5q-69 0 -120 20t-85 54t-51 78.5t-17 92.5h152q0 -19 8 -39.5t23.5 -37.5t38 -28.5t52.5 -11.5q55 0 87.5 23.5t32.5 74.5q0 43 -33.5 61.5t-84.5 18.5h-60v111h58q46 0 76.5 24.5
t30.5 63.5q0 45 -29 67.5t-77 22.5q-55 0 -84.5 -36t-29.5 -88h-147q0 54 17 99t50 77.5t81.5 50.5t111.5 18q67 0 117 -15t83 -40.5t49 -58t16 -68.5q0 -71 -31 -108t-83 -55v-3z" />
    <glyph glyph-name="four" unicode="4" horiz-adv-x="605" 
d="M346 128h-334v105l350 467h142v-446h90v-126h-84v-128h-164v128zM354 492l-177 -242h177v242z" />
    <glyph glyph-name="five" unicode="5" horiz-adv-x="613" 
d="M183 237q0 -19 7 -39.5t22 -37.5t38 -28.5t54 -11.5q56 0 90.5 32.5t34.5 87.5t-33 89t-86 34q-42 0 -68.5 -11.5t-47.5 -35.5h-152l39 384h461v-125h-333l-21 -168h3q29 36 70.5 51.5t98.5 15.5q49 0 90 -17t70.5 -47.5t46 -72.5t16.5 -92q0 -52 -15.5 -98t-49 -80.5
t-88 -54.5t-132.5 -20q-68 0 -118.5 20t-83.5 54t-49.5 78.5t-16.5 92.5h153z" />
    <glyph glyph-name="six" unicode="6" horiz-adv-x="631" 
d="M377 474q51 0 92.5 -17t71 -47.5t46 -72.5t16.5 -91q0 -55 -21 -102t-58.5 -80.5t-88 -52.5t-110.5 -19q-69 0 -124 24t-94 70t-59.5 114t-20.5 156q0 86 22.5 151.5t62.5 110t95 67.5t120 23q56 0 102.5 -14.5t82 -41.5t57.5 -64.5t29 -82.5h-160q-12 41 -39 59.5
t-72 18.5q-76 0 -112.5 -57t-36.5 -153h2q27 53 75 77t122 24zM321 120q26 0 49 9.5t39.5 26t26 39t9.5 47.5q0 26 -9.5 48.5t-26 39t-38.5 25.5t-48 9t-48.5 -9.5t-39.5 -25.5t-26.5 -38t-9.5 -47q0 -27 9.5 -49.5t26 -39t39 -26t47.5 -9.5z" />
    <glyph glyph-name="seven" unicode="7" horiz-adv-x="554" 
d="M540 700v-99l-243 -601h-184l245 575h-345v125h527z" />
    <glyph glyph-name="eight" unicode="8" horiz-adv-x="620" 
d="M312 -8q-77 0 -131.5 17.5t-88.5 46t-49.5 65t-15.5 74.5q0 70 36.5 112.5t94.5 57.5v2q-54 19 -80.5 60.5t-26.5 100.5q0 33 15.5 65.5t47.5 58t81.5 41t116.5 15.5t116 -15.5t81 -41t47.5 -58t15.5 -65.5q0 -58 -27 -99.5t-81 -61.5v-2q57 -15 93.5 -57.5t36.5 -112.5
q0 -38 -15 -74.5t-48.5 -65t-87.5 -46t-131 -17.5zM312 417q47 0 78 25.5t31 64.5q0 41 -31 67.5t-78 26.5q-48 0 -79 -26.5t-31 -67.5q0 -39 31.5 -64.5t78.5 -25.5zM312 110q26 0 49 8.5t39.5 23.5t26 35t9.5 42t-9.5 40.5t-26 32.5t-39.5 22t-49 8q-27 0 -50 -8
t-39.5 -22t-26 -32.5t-9.5 -40.5t9.5 -42t26 -35t39.5 -23.5t50 -8.5z" />
    <glyph glyph-name="nine" unicode="9" horiz-adv-x="629" 
d="M32 194h160q12 -40 39 -59t72 -19q77 0 113 57t36 154h-2q-26 -52 -74.5 -76.5t-120.5 -24.5q-51 0 -93 17t-72 47.5t-46.5 72.5t-16.5 91q0 55 21 101.5t58.5 80.5t88 53t110.5 19q69 0 124 -24t94 -70t59.5 -114t20.5 -157q0 -85 -22.5 -151t-62.5 -110t-95 -67
t-120 -23q-56 0 -102.5 14.5t-82 41t-57.5 64t-29 82.5zM308 336q26 0 48.5 9.5t39.5 26t26.5 38.5t9.5 46q0 27 -9.5 49.5t-26 39t-39.5 26t-49 9.5t-48.5 -9.5t-39 -26t-26 -38.5t-9.5 -48t9.5 -48.5t26 -39t39 -25.5t48.5 -9z" />
    <glyph glyph-name="colon" unicode=":" horiz-adv-x="298" 
d="M149 341q-45 0 -70.5 26t-25.5 63t25.5 63.5t70.5 26.5t70.5 -26.5t25.5 -63.5t-25.5 -63t-70.5 -26zM149 0q-45 0 -70.5 25.5t-25.5 62.5q0 38 25.5 64t70.5 26t70.5 -26t25.5 -64q0 -37 -25.5 -62.5t-70.5 -25.5z" />
    <glyph glyph-name="semicolon" unicode=";" horiz-adv-x="298" 
d="M53 430q0 37 25.5 63.5t70.5 26.5t70.5 -26.5t25.5 -63.5t-25.5 -63t-70.5 -26t-70.5 26t-25.5 63zM30 -123l54 237h156l-79 -237h-131z" />
    <glyph glyph-name="less" unicode="&#x3c;" horiz-adv-x="541" 
d="M46 274v86l450 273v-153l-284 -162v-1l284 -162v-152z" />
    <glyph glyph-name="equal" unicode="=" horiz-adv-x="522" 
d="M40 478h442v-119h-442v119zM40 273h442v-120h-442v120z" />
    <glyph glyph-name="greater" unicode="&#x3e;" horiz-adv-x="541" 
d="M496 274l-450 -271v152l282 162v1l-282 162v153l450 -273v-86z" />
    <glyph glyph-name="question" unicode="?" horiz-adv-x="560" 
d="M37 481q2 46 17 87t44.5 72t73.5 49.5t104 18.5q131 0 189.5 -50.5t58.5 -137.5q0 -36 -11.5 -62t-28 -46.5t-36.5 -37t-36.5 -33.5t-28 -37t-11.5 -46v-14h-172v19q0 34 12.5 59t31.5 45t41 36.5t41 32.5t31.5 33.5t12.5 40.5q0 33 -21.5 53.5t-69.5 20.5q-43 0 -66 -30
t-28 -73h-148zM288 0q-46 0 -71 25.5t-25 62.5q0 38 25 64t71 26q45 0 69.5 -26t24.5 -64q0 -37 -24.5 -62.5t-69.5 -25.5z" />
    <glyph glyph-name="at" unicode="@" horiz-adv-x="849" 
d="M546 -87q-29 -3 -56.5 -5t-53.5 -2q-92 0 -168 24.5t-130.5 73t-84.5 119t-30 161.5q0 87 29.5 157.5t83.5 120.5t129 77.5t166 27.5q76 0 147 -22.5t126 -67t88 -109.5t33 -151q0 -65 -13 -111t-36.5 -75t-55 -42.5t-69.5 -13.5q-36 0 -69.5 18.5t-47.5 52.5h-2
q-9 -17 -23 -29t-31 -19.5t-35.5 -11t-36.5 -3.5q-38 0 -71.5 11.5t-58 35t-39 60t-14.5 87.5q0 41 11 77.5t34 63.5t57.5 42.5t80.5 15.5q29 0 60.5 -13.5t47.5 -36.5h1v44h93v-246q0 -33 12 -43.5t23 -10.5q31 0 48 34.5t17 112.5q0 57 -19.5 102.5t-55.5 77.5t-88 49
t-117 17q-62 0 -114.5 -19t-91 -55t-60 -87.5t-21.5 -117.5q0 -133 79 -202.5t218 -69.5q24 0 50 1.5t58 6.5v-107zM419 180q37 0 59 25t22 76q0 50 -21.5 74.5t-59.5 24.5t-61.5 -27t-23.5 -76q0 -18 5 -35.5t15.5 -31t26.5 -22t38 -8.5z" />
    <glyph glyph-name="A" unicode="A" horiz-adv-x="683" 
d="M237 700h210l239 -700h-175l-45 145h-249l-45 -145h-174zM433 263l-89 293h-3l-91 -293h183z" />
    <glyph glyph-name="B" unicode="B" horiz-adv-x="650" 
d="M44 700h318q106 0 166 -44.5t60 -125.5q0 -31 -8.5 -59.5t-25 -51.5t-40.5 -38t-55 -20v-3q36 -2 65.5 -15.5t51 -36t33.5 -53t12 -66.5q0 -91 -66 -139t-179 -48h-332v700zM208 405h111q51 0 78 22t27 64q0 41 -27 63t-77 22h-112v-171zM329 125q60 0 90.5 20t30.5 66
q0 48 -31.5 68t-91.5 20h-119v-174h121z" />
    <glyph glyph-name="C" unicode="C" horiz-adv-x="699" 
d="M30 352q0 85 23.5 151t67 111.5t105.5 69.5t140 24q61 0 114 -17.5t94 -49.5t67 -77t33 -101h-165q-13 54 -50 84t-93 30q-78 0 -123 -58.5t-45 -166.5q0 -109 44 -168t124 -59q56 0 93.5 27.5t51.5 81.5h164q-7 -55 -32.5 -100t-66 -76.5t-94 -48.5t-116.5 -17
q-78 0 -140.5 24t-106 70t-66.5 113t-23 153z" />
    <glyph glyph-name="D" unicode="D" horiz-adv-x="686" 
d="M44 700h264q80 0 144.5 -22.5t109.5 -66t69.5 -108t24.5 -148.5t-24.5 -150t-69.5 -111.5t-109.5 -69.5t-144.5 -24h-264v700zM285 125q94 0 144.5 59.5t50.5 170.5q0 104 -51.5 162t-143.5 58h-77v-450h77z" />
    <glyph glyph-name="E" unicode="E" horiz-adv-x="589" 
d="M208 575v-162h288v-125h-288v-163h343v-125h-507v700h507v-125h-343z" />
    <glyph glyph-name="F" unicode="F" horiz-adv-x="582" 
d="M208 575v-162h288v-125h-288v-288h-164v700h507v-125h-343z" />
    <glyph glyph-name="G" unicode="G" horiz-adv-x="713" 
d="M384 379h297v-74q0 -29 -4.5 -63.5t-16.5 -69t-33.5 -67.5t-56 -58t-83 -40t-115.5 -15q-79 0 -142.5 24t-108 70t-68 113t-23.5 153q0 85 23.5 151t67 111.5t104.5 69.5t137 24q64 0 119.5 -17.5t97.5 -49.5t69.5 -77t34.5 -101h-165q-13 54 -53.5 84t-94.5 30
q-80 0 -126.5 -58.5t-46.5 -167.5t47 -167.5t129 -58.5q64 0 101.5 31.5t37.5 94.5v10h-128v118z" />
    <glyph glyph-name="H" unicode="H" horiz-adv-x="711" 
d="M666 700v-700h-164v288h-294v-288h-164v700h164v-287h294v287h164z" />
    <glyph glyph-name="I" unicode="I" horiz-adv-x="265" 
d="M51 700h164v-700h-164v700z" />
    <glyph glyph-name="J" unicode="J" horiz-adv-x="569" 
d="M520 700v-467q0 -118 -67.5 -179.5t-187.5 -61.5q-57 0 -104 16.5t-80.5 48t-52 76.5t-18.5 101h161q0 -49 25.5 -76t67.5 -27q44 0 68 25.5t24 77.5v466h164z" />
    <glyph glyph-name="K" unicode="K" horiz-adv-x="683" 
d="M484 315q8 -13 20.5 -33t27.5 -45t31 -52t32 -53q37 -62 79 -132h-182q-29 50 -56 96q-11 19 -23 39t-23 38.5t-20.5 34.5t-16.5 27q-16 23 -36.5 40t-50.5 23l-58 -59v-239h-164v700h164v-266l257 266h193l-299 -307q36 -6 69.5 -24.5t55.5 -53.5z" />
    <glyph glyph-name="L" unicode="L" horiz-adv-x="527" 
d="M44 700h164v-575h309v-125h-473v700z" />
    <glyph glyph-name="M" unicode="M" horiz-adv-x="864" 
d="M44 700h205l182 -454h4l179 454h207v-700h-162v460h-2l-185 -460h-79l-186 460h-4v-460h-159v700z" />
    <glyph glyph-name="N" unicode="N" horiz-adv-x="701" 
d="M44 700h145l303 -433h4v433h160v-700h-141l-307 440h-3v-440h-161v700z" />
    <glyph glyph-name="O" unicode="O" horiz-adv-x="730" 
d="M365 -8q-79 0 -142.5 24.5t-107.5 71t-68 113t-24 150.5t24 150t68 112t107.5 70.5t142.5 24.5t142 -24.5t107.5 -70.5t68 -112t23.5 -150t-23.5 -150.5t-68 -113t-107.5 -71t-142 -24.5zM365 128q80 0 125 58.5t45 164.5t-45 163t-125 57t-125 -57t-45 -163t45 -164.5
t125 -58.5z" />
    <glyph glyph-name="P" unicode="P" horiz-adv-x="602" 
d="M577 489q0 -98 -59.5 -154t-164.5 -56h-145v-279h-164v700h310q104 0 163.5 -55.5t59.5 -155.5zM320 405q50 0 77 21.5t27 62.5q0 43 -26.5 64.5t-77.5 21.5h-112v-170h112z" />
    <glyph glyph-name="Q" unicode="Q" horiz-adv-x="730" 
d="M302 -3q-65 9 -117 37t-88 73.5t-55 107t-19 136.5q0 84 24 150t68 112t107.5 70.5t142.5 24.5t142 -24.5t107.5 -70.5t68 -112t23.5 -150q0 -154 -75.5 -246.5t-209.5 -108.5q25 -60 132 -60h50v-116h-56q-43 0 -84.5 11t-75 32.5t-56.5 55t-29 78.5zM365 128
q80 0 125 58.5t45 164.5t-45 163t-125 57t-125 -57t-45 -163t45 -164.5t125 -58.5z" />
    <glyph glyph-name="R" unicode="R" horiz-adv-x="638" 
d="M437 0l-146 279h-83v-279h-164v700h317q105 0 164.5 -55.5t59.5 -155.5q0 -73 -36 -123t-107 -66l170 -300h-175zM208 405h119q51 0 77.5 21.5t26.5 62.5q0 43 -26.5 64.5t-77.5 21.5h-119v-170z" />
    <glyph glyph-name="S" unicode="S" horiz-adv-x="629" 
d="M184 213q6 -42 39.5 -67.5t89.5 -25.5q57 0 88.5 21t31.5 58q0 17 -6 29t-19.5 21t-36.5 16.5t-57 14.5l-69 14q-106 22 -159.5 70.5t-53.5 127.5q0 50 21 90t57.5 68t87 43t109.5 15q67 0 118.5 -16.5t87 -46.5t54 -71t19.5 -89h-158q-2 42 -33 69t-85 27q-53 0 -82 -21
t-29 -55q0 -32 26.5 -51t87.5 -30l72 -15q112 -20 165.5 -66.5t53.5 -127.5q0 -52 -20.5 -93.5t-58.5 -70t-92.5 -44t-122.5 -15.5q-64 0 -116 15.5t-89 44t-57.5 69.5t-21.5 92h158z" />
    <glyph glyph-name="T" unicode="T" horiz-adv-x="572" 
d="M563 575h-195v-575h-165v575h-195v125h555v-125z" />
    <glyph glyph-name="U" unicode="U" horiz-adv-x="681" 
d="M208 266q0 -67 35 -102t99 -35q63 0 97 35t34 102v434h164v-451q0 -59 -21 -106.5t-59.5 -81t-93 -51.5t-121.5 -18t-122 18t-94 51.5t-60.5 81t-21.5 106.5v451h164v-434z" />
    <glyph glyph-name="V" unicode="V" horiz-adv-x="685" 
d="M237 0l-239 700h174l170 -549h3l167 549h176l-241 -700h-210z" />
    <glyph glyph-name="W" unicode="W" horiz-adv-x="946" 
d="M5 700h171l102 -485h4l126 485h128l126 -485h5l103 485h170l-176 -700h-163l-127 468h-4l-126 -468h-162z" />
    <glyph glyph-name="X" unicode="X" horiz-adv-x="664" 
d="M221 351l-213 349h193l130 -248h4l130 248h192l-212 -349l212 -351h-192l-130 249h-4l-132 -249h-191z" />
    <glyph glyph-name="Y" unicode="Y" horiz-adv-x="646" 
d="M406 293v-293h-164v294l-243 406h191l132 -247h3l132 247h190z" />
    <glyph glyph-name="Z" unicode="Z" horiz-adv-x="614" 
d="M578 125v-125h-541v105l335 466v4h-329v125h526v-105l-327 -468v-2h336z" />
    <glyph glyph-name="bracketleft" unicode="[" horiz-adv-x="395" 
d="M238 632v-608h141v-106h-287v822h287v-108h-141z" />
    <glyph glyph-name="backslash" unicode="\" horiz-adv-x="435" 
d="M432 0h-164l-258 700h164z" />
    <glyph glyph-name="bracketright" unicode="]" horiz-adv-x="395" 
d="M17 740h287v-822h-287v106h140v608h-140v108z" />
    <glyph glyph-name="asciicircum" unicode="^" horiz-adv-x="436" 
d="M416 463h-132l-66 110h-4l-64 -110h-131l146 237h105z" />
    <glyph glyph-name="underscore" unicode="_" horiz-adv-x="588" 
d="M569 -137h-550v115h550v-115z" />
    <glyph glyph-name="grave" unicode="`" horiz-adv-x="291" 
d="M271 443h-138l-133 257h165z" />
    <glyph glyph-name="a" unicode="a" horiz-adv-x="569" 
d="M293 524q55 0 99 -13t74.5 -37t47 -57.5t16.5 -73.5v-343h-154v81h-3q-10 -21 -28.5 -38t-42 -28t-50 -17t-52.5 -6q-36 0 -68 11t-55.5 31.5t-37 49t-13.5 63.5q0 75 54 115.5t157 46.5l132 9v17q0 36 -21.5 56.5t-61.5 20.5q-35 0 -59.5 -15t-30.5 -41h-144
q9 77 72 122.5t169 45.5zM369 229l-106 -7q-39 -2 -58.5 -19t-19.5 -44q0 -29 21 -44.5t52 -15.5q22 0 42 8.5t35.5 23t24.5 33t9 38.5v27z" />
    <glyph glyph-name="b" unicode="b" horiz-adv-x="601" 
d="M361 524q48 0 88 -17.5t69 -51.5t45 -83t16 -112q0 -66 -17 -116t-46 -83.5t-68 -51t-83 -17.5q-55 0 -100.5 23.5t-68.5 60.5h-2v-76h-154v700h161v-263h1q55 87 159 87zM309 116q52 0 82 36.5t30 105.5q0 66 -30.5 104t-81.5 38t-81.5 -38t-30.5 -105q0 -68 30 -104.5
t82 -36.5z" />
    <glyph glyph-name="c" unicode="c" horiz-adv-x="560" 
d="M536 176q-10 -91 -73.5 -137.5t-169.5 -46.5q-123 0 -193 68t-70 198t70 198t192 68q103 0 168.5 -48.5t75.5 -139.5h-149q-9 34 -33.5 50.5t-57.5 16.5q-47 0 -76 -38t-29 -107t29 -107.5t76 -38.5q33 0 58 16t33 48h149z" />
    <glyph glyph-name="d" unicode="d" horiz-adv-x="601" 
d="M239 524q106 0 159 -87h2v263h160v-700h-153v76h-3q-23 -37 -68 -60.5t-99 -23.5q-45 0 -84 17.5t-68 51t-45.5 83.5t-16.5 116q0 63 16 112t44.5 83t68 51.5t87.5 17.5zM292 116q51 0 81.5 36.5t30.5 104.5q0 67 -30.5 105t-81.5 38t-81.5 -38t-30.5 -104
q0 -69 30.5 -105.5t81.5 -36.5z" />
    <glyph glyph-name="e" unicode="e" horiz-adv-x="571" 
d="M542 225h-357q3 -52 34.5 -82.5t76.5 -30.5q35 0 59.5 15.5t35.5 48.5h147q-11 -92 -74.5 -138t-170.5 -46q-124 0 -193.5 68t-69.5 198q0 63 18.5 112t53 83t82.5 52t108 19q122 -2 186 -72t64 -190v-37zM292 407q-42 0 -69.5 -26.5t-35.5 -69.5h207q-5 42 -32.5 69
t-69.5 27z" />
    <glyph glyph-name="f" unicode="f" horiz-adv-x="360" 
d="M360 586q-27 3 -46 3q-28 0 -42 -11t-14 -43v-30h85v-105h-85v-400h-160v400h-80v105h80v35q0 45 13 76.5t36.5 52t55.5 29.5t70 9q20 0 42 -2.5t45 -7.5v-111z" />
    <glyph glyph-name="g" unicode="g" horiz-adv-x="601" 
d="M562 517v-495q0 -52 -20 -90.5t-55 -64t-83.5 -38t-104.5 -12.5q-100 0 -169.5 40t-89.5 127h145q12 -30 41 -42.5t68 -12.5q49 0 78.5 23t29.5 78v74h-2q-22 -45 -61.5 -65t-89.5 -20q-49 0 -90.5 17.5t-71.5 50t-47 79t-17 104.5q0 61 17.5 108t48 79.5t71.5 49.5
t88 17q49 0 94 -20t65 -63h1v76h154zM293 143q51 0 81.5 34t30.5 94q0 59 -30.5 94.5t-81.5 35.5t-81.5 -35t-30.5 -96q0 -58 30.5 -92.5t81.5 -34.5z" />
    <glyph glyph-name="h" unicode="h" horiz-adv-x="593" 
d="M367 524q89 0 137 -49t48 -152v-323h-158v290q0 54 -23.5 82.5t-72.5 28.5q-45 0 -72 -34.5t-27 -88.5v-278h-159v700h155v-285h1q21 60 64.5 84.5t106.5 24.5z" />
    <glyph glyph-name="i" unicode="i" horiz-adv-x="267" 
d="M135 569q-43 0 -67 23.5t-24 58.5t24 59t67 24q42 0 65 -24t23 -59t-23 -58.5t-65 -23.5zM53 517h161v-517h-161v517z" />
    <glyph glyph-name="j" unicode="j" horiz-adv-x="268" 
d="M136 569q-43 0 -67 23.5t-24 58.5t24 59t67 24q42 0 65 -24t23 -59t-23 -58.5t-65 -23.5zM214 517v-533q0 -46 -13.5 -77.5t-37 -51t-55.5 -28.5t-70 -9q-40 0 -85 9v111q25 -3 46 -3q28 0 42 10.5t14 42.5v529h159z" />
    <glyph glyph-name="k" unicode="k" horiz-adv-x="584" 
d="M575 0h-177l-100 170q-10 18 -22 29t-30 14l-46 -44v-169h-160v700h160v-363l174 180h186l-227 -218q28 -4 52.5 -16t39.5 -36z" />
    <glyph glyph-name="l" unicode="l" horiz-adv-x="327" 
d="M57 700h161v-523q0 -35 16 -48t52 -13q6 0 13 0.5t15 1.5v-111q-23 -5 -44.5 -6.5t-41.5 -1.5q-37 0 -68.5 9t-54 28.5t-35.5 51t-13 76.5v536z" />
    <glyph glyph-name="m" unicode="m" horiz-adv-x="888" 
d="M676 524q87 0 130 -48.5t43 -142.5v-333h-160v298q0 48 -18.5 76t-63.5 28q-42 0 -62.5 -31.5t-20.5 -78.5v-292h-159v298q0 48 -19.5 76t-61.5 28q-43 0 -64 -32t-21 -80v-290h-159v517h154v-96h2q20 56 57 79.5t98 23.5q63 0 102 -27t56 -77h1q23 56 63 80t103 24z" />
    <glyph glyph-name="n" unicode="n" horiz-adv-x="593" 
d="M367 524q89 0 138 -49t49 -152v-323h-160v290q0 54 -23.5 82.5t-72.5 28.5q-45 0 -72 -34.5t-27 -88.5v-278h-159v517h155v-102h1q20 59 64 84t107 25z" />
    <glyph glyph-name="o" unicode="o" horiz-adv-x="578" 
d="M289 524q62 0 111.5 -17.5t84 -51t53.5 -83t19 -114.5q0 -64 -19 -114t-53.5 -83.5t-84 -51t-111.5 -17.5q-61 0 -111 17.5t-84.5 51t-53.5 83.5t-19 114q0 65 19 114.5t53.5 83t84.5 51t111 17.5zM289 112q22 0 42.5 9t36 27.5t25 46t9.5 63.5t-9.5 63.5t-25 46
t-36 27.5t-42.5 9t-42.5 -9t-36.5 -27.5t-25 -46t-9 -63.5q0 -37 9 -64.5t25 -45.5t36.5 -27t42.5 -9z" />
    <glyph glyph-name="p" unicode="p" horiz-adv-x="601" 
d="M194 517v-77h2q23 36 61 60t97 24q48 0 89 -17.5t71.5 -51.5t47.5 -84t17 -116q0 -63 -16 -112t-45.5 -82.5t-70 -51t-90.5 -17.5q-44 0 -85.5 16.5t-69.5 58.5h-2v-244h-160v694h154zM196 260q0 -69 30.5 -106.5t82.5 -37.5q51 0 81.5 37.5t30.5 104.5t-30.5 105
t-81.5 38q-52 0 -82.5 -37t-30.5 -104z" />
    <glyph glyph-name="q" unicode="q" horiz-adv-x="601" 
d="M560 -177h-160v244h-2q-28 -42 -69.5 -58.5t-85.5 -16.5q-49 0 -90 17.5t-69.5 51t-44.5 82.5t-16 112q0 66 17 116t46.5 84t70.5 51.5t89 17.5q59 0 97 -24t61 -60h2v77h154v-694zM404 260q0 67 -30.5 104t-81.5 37t-81.5 -38t-30.5 -105t30.5 -104.5t81.5 -37.5
t81.5 37.5t30.5 106.5z" />
    <glyph glyph-name="r" unicode="r" horiz-adv-x="384" 
d="M196 432q17 51 62.5 75.5t115.5 15.5v-123q-41 6 -73.5 -3.5t-55 -29t-34.5 -47t-12 -57.5v-263h-159v517h154v-85h2z" />
    <glyph glyph-name="s" unicode="s" horiz-adv-x="523" 
d="M336 304q81 -17 120.5 -50t39.5 -90q0 -78 -59.5 -125t-171.5 -47q-43 0 -83.5 9t-73 28.5t-54.5 50.5t-28 76h152q7 -26 29.5 -40.5t57.5 -14.5q33 0 52 12.5t19 34.5q0 14 -12 25.5t-55 20.5l-80 15q-75 16 -115.5 53t-40.5 95q0 42 18.5 73t49.5 51.5t72 30.5t85 10
q42 0 80.5 -9t68.5 -29t49.5 -51.5t23.5 -76.5h-146q-4 27 -24 42.5t-52 15.5q-29 0 -49.5 -12.5t-20.5 -35.5q0 -16 12.5 -27t54.5 -20z" />
    <glyph glyph-name="t" unicode="t" horiz-adv-x="375" 
d="M256 400v-223q0 -29 13 -43.5t42 -17.5q17 -1 46 2v-111q-14 -3 -28.5 -5t-28.5 -3q-44 -3 -81.5 4t-64.5 26.5t-42.5 52.5t-15.5 82v236h-78v105h84v145h154v-145h94v-105h-94z" />
    <glyph glyph-name="u" unicode="u" horiz-adv-x="593" 
d="M199 517v-292q0 -54 23.5 -82.5t71.5 -28.5q47 0 73.5 34.5t26.5 88.5v280h160v-517h-154v102h-3q-20 -60 -63.5 -85t-106.5 -25q-89 0 -138 49.5t-49 152.5v323h159z" />
    <glyph glyph-name="v" unicode="v" horiz-adv-x="549" 
d="M378 0h-206l-173 517h171l104 -390h2l104 390h170z" />
    <glyph glyph-name="w" unicode="w" horiz-adv-x="798" 
d="M670 0h-180l-90 372h-3l-90 -372h-177l-125 517h162l69 -375h3l87 375h149l89 -375h2l68 375h159z" />
    <glyph glyph-name="x" unicode="x" horiz-adv-x="549" 
d="M168 260l-154 257h174l85 -176h3l86 176h174l-156 -257l156 -260h-174l-86 178h-2l-86 -178h-174z" />
    <glyph glyph-name="y" unicode="y" horiz-adv-x="541" 
d="M542 517q-44 -128 -81 -236q-16 -46 -31.5 -92.5t-29.5 -87.5t-24.5 -72.5t-16.5 -47.5q-28 -91 -79.5 -131t-125.5 -40q-21 0 -48.5 2.5t-48.5 7.5v104q14 -2 26.5 -3.5t24.5 -1.5q32 0 49 14t25 37l10 29l-192 518h170l102 -380h3l100 380h167z" />
    <glyph glyph-name="z" unicode="z" horiz-adv-x="512" 
d="M37 84l246 311v4h-246v118h437v-97l-232 -298v-4h232v-118h-437v84z" />
    <glyph glyph-name="braceleft" unicode="{" horiz-adv-x="413" 
d="M275 458q0 -55 -23.5 -87.5t-64.5 -41.5v-2q42 -10 65 -41t23 -88v-102q1 -44 20 -58t61 -14h41v-106h-70q-98 0 -148.5 35.5t-50.5 113.5v108q0 47 -23.5 75t-74.5 32v93q51 5 74.5 32.5t23.5 75.5v108q0 78 50.5 113.5t148.5 35.5h70v-108h-41q-42 0 -61.5 -15
t-19.5 -63v-96z" />
    <glyph glyph-name="bar" unicode="|" horiz-adv-x="323" 
d="M232 798v-902h-140v902h140z" />
    <glyph glyph-name="braceright" unicode="}" horiz-adv-x="413" 
d="M139 554q0 48 -20 63t-62 15h-40v108h70q97 0 148 -35.5t51 -113.5v-108q0 -48 23 -75.5t74 -32.5v-93q-51 -4 -74 -32t-23 -75v-108q0 -78 -51 -113.5t-148 -35.5h-70v106h40q41 0 61 14t21 58v102q0 57 23 88t65 41v2q-42 9 -65 41.5t-23 87.5v96z" />
    <glyph glyph-name="asciitilde" unicode="~" horiz-adv-x="587" 
d="M207 295q-20 0 -33.5 -17.5t-14.5 -55.5h-119q0 89 34.5 141.5t111.5 52.5q31 0 55 -12t46 -26.5t43.5 -26.5t46.5 -12q21 0 36.5 18t15.5 57h118q0 -88 -37.5 -141.5t-112.5 -53.5q-30 0 -54.5 12t-46.5 26t-43.5 26t-45.5 12z" />
    <glyph glyph-name="uni00A0" unicode="&#xa0;" horiz-adv-x="300" 
 />
    <glyph glyph-name="exclamdown" unicode="&#xa1;" horiz-adv-x="292" 
d="M145 416q-46 0 -70 26t-24 62q0 38 24 63.5t70 25.5t71 -25.5t25 -63.5q0 -36 -25 -62t-71 -26zM65 147l10 203h142l9 -203v-254h-161v254z" />
    <glyph glyph-name="cent" unicode="&#xa2;" horiz-adv-x="560" 
d="M364 619v-103q73 -14 118.5 -60.5t53.5 -119.5h-149q-9 34 -33.5 50.5t-57.5 16.5q-47 0 -76 -38t-29 -107t29 -107.5t76 -38.5q33 0 58 16t33 48h149q-8 -74 -53.5 -118.5t-118.5 -58.5v-103h-140v103q-94 16 -144 81.5t-50 177.5q0 110 51 175.5t143 82.5v103h140z" />
    <glyph glyph-name="sterling" unicode="&#xa3;" horiz-adv-x="599" 
d="M461 259h-182q-7 -43 -24.5 -72.5t-37.5 -58.5v-3h351v-125h-523v96q18 19 36 35.5t32 35.5t24 41t13 51h-104v104h79q-9 17 -19.5 35.5t-19.5 38.5t-15.5 42.5t-6.5 47.5q0 36 14.5 68.5t44 57.5t75 40t108.5 15q73 0 122.5 -20t79.5 -54t43 -78.5t13 -92.5h-148
q0 24 -4.5 46t-16.5 38.5t-32 26.5t-52 10q-48 0 -70.5 -20.5t-22.5 -49.5q0 -16 6 -33.5t15 -36.5t18.5 -39t16.5 -42h187v-104z" />
    <glyph glyph-name="currency" unicode="&#xa4;" horiz-adv-x="546" 
d="M64 330q0 28 6.5 54t22.5 50l-56 54l77 76l55 -55q22 17 48.5 23.5t54.5 6.5q27 0 53 -7.5t48 -22.5l53 55l83 -75l-58 -57q15 -23 22 -49t7 -53q0 -29 -6.5 -54.5t-22.5 -48.5l56 -55l-78 -77l-56 54q-22 -16 -47.5 -21.5t-53.5 -5.5t-54.5 6t-48.5 21l-57 -55l-72 81
l53 52q-17 23 -23 48.5t-6 54.5zM171 330q0 -20 7 -38.5t20.5 -32.5t32 -22t41.5 -8q22 0 40 8t31 22t20.5 32.5t7.5 38.5t-7.5 38.5t-20.5 32.5t-31 22t-40 8q-23 0 -41.5 -8t-32 -22t-20.5 -32.5t-7 -38.5z" />
    <glyph glyph-name="yen" unicode="&#xa5;" horiz-adv-x="646" 
d="M242 119h-141v99h141v63h-141v100h101l-203 319h191l132 -247h3l132 247h190l-202 -319h99v-100h-138v-63h138v-99h-138v-119h-164v119z" />
    <glyph glyph-name="brokenbar" unicode="&#xa6;" horiz-adv-x="323" 
d="M92 798h140v-328h-140v328zM92 225h140v-329h-140v329z" />
    <glyph glyph-name="section" unicode="&#xa7;" horiz-adv-x="520" 
d="M495 335q0 -25 -7.5 -43t-19.5 -31.5t-27 -23t-31 -16.5q18 -9 34 -21.5t28 -28.5t19 -34t7 -36q0 -79 -61 -125.5t-175 -46.5q-43 0 -84 8t-74 27.5t-55 51t-28 78.5h154q6 -29 29 -42.5t58 -13.5q33 0 53.5 17.5t20.5 38.5q0 8 -2.5 14.5t-10 12.5t-20.5 11t-35 9
l-82 17q-78 16 -119.5 50t-41.5 101q0 25 7 43t19 31t27 22.5t31 16.5q-37 17 -62 50.5t-25 71.5q0 78 61 124.5t175 46.5q44 0 85 -8t74 -27.5t55 -51.5t28 -79h-155q-6 30 -29.5 43t-58.5 13q-32 0 -53 -17t-21 -38q0 -15 13 -27t56 -20l82 -16q78 -16 119.5 -50
t41.5 -102zM273 385q-51 5 -77.5 -14.5t-26.5 -49.5q0 -23 18.5 -39.5t58.5 -21.5q51 -7 78 12.5t27 48.5q0 24 -19 41t-59 23z" />
    <glyph glyph-name="dieresis" unicode="&#xa8;" horiz-adv-x="507" 
d="M51 635q0 32 24.5 56.5t59.5 24.5q17 0 31.5 -6.5t25.5 -18t17.5 -26t6.5 -30.5q0 -18 -6.5 -33.5t-17.5 -27t-25.5 -18t-31.5 -6.5t-32.5 6.5t-27 18t-18 27t-6.5 33.5zM290 635q0 32 24.5 56.5t59.5 24.5q17 0 31.5 -6.5t25.5 -18t17.5 -26t6.5 -30.5q0 -18 -6.5 -33.5
t-17.5 -27t-25.5 -18t-31.5 -6.5t-32.5 6.5t-27 18t-18 27t-6.5 33.5z" />
    <glyph glyph-name="copyright" unicode="&#xa9;" horiz-adv-x="802" 
d="M23 342q0 78 30 147t81 120.5t120 81t147 29.5t147 -29.5t120.5 -81t81 -120.5t29.5 -147t-29.5 -146.5t-81 -120t-120.5 -81t-147 -29.5t-147 29.5t-120 81t-81 120t-30 146.5zM121 342q0 -58 22 -108.5t60 -88t89 -59.5t109 -22q59 0 110 22t89 59.5t60 88t22 108.5
t-22 109t-60 89.5t-89 60.5t-110 22q-58 0 -109 -22t-89 -60.5t-60 -89.5t-22 -109zM407 215q68 0 85 64h101q-9 -69 -59 -109.5t-127 -40.5q-95 0 -149 56.5t-54 160.5q0 103 54 158t149 55q37 0 69 -10.5t56.5 -30t40.5 -47t20 -61.5h-103q-8 32 -29.5 48.5t-53.5 16.5
q-47 0 -71.5 -33t-24.5 -96q0 -65 24.5 -98t71.5 -33z" />
    <glyph glyph-name="ordfeminine" unicode="&#xaa;" horiz-adv-x="392" 
d="M205 708q69 0 110 -31.5t41 -81.5v-213h-101v51q-13 -28 -45 -42t-62 -14q-47 0 -79 26t-32 71q0 47 34 71.5t99 29.5l81 5v10q0 46 -50 46q-22 0 -36 -8t-16 -25h-95q6 48 45.5 76.5t105.5 28.5zM251 524l-64 -5q-47 -3 -47 -38q0 -17 13 -26t32 -9q26 0 46 18.5
t20 42.5v17z" />
    <glyph glyph-name="guillemotleft" unicode="&#xab;" horiz-adv-x="925" 
d="M46 274v86l450 273v-153l-284 -162v-1l284 -162v-152zM430 274v86l450 273v-153l-284 -162v-1l284 -162v-152z" />
    <glyph glyph-name="logicalnot" unicode="&#xac;" horiz-adv-x="490" 
d="M40 379h410v-235h-152v110h-258v125z" />
    <glyph glyph-name="registered" unicode="&#xae;" horiz-adv-x="802" 
d="M23 342q0 78 30 147t81 120.5t120 81t147 29.5t147 -29.5t120.5 -81t81 -120.5t29.5 -147t-29.5 -146.5t-81 -120t-120.5 -81t-147 -29.5t-147 29.5t-120 81t-81 120t-30 146.5zM121 342q0 -58 22 -108.5t60 -88t89 -59.5t109 -22q59 0 110 22t89 59.5t60 88t22 108.5
t-22 109t-60 89.5t-89 60.5t-110 22q-58 0 -109 -22t-89 -60.5t-60 -89.5t-22 -109zM469 165l-78 146h-37v-146h-104v369h193q57 0 88 -29t31 -82q0 -39 -19 -65.5t-57 -35.5l90 -157h-107zM354 378h52q54 0 54 42q0 43 -54 43h-52v-85z" />
    <glyph glyph-name="macron" unicode="&#xaf;" horiz-adv-x="588" 
d="M569 742h-550v115h550v-115z" />
    <glyph glyph-name="degree" unicode="&#xb0;" horiz-adv-x="403" 
d="M202 383q-38 0 -69.5 12t-53.5 33t-34 51t-12 66t11.5 65.5t33.5 51.5t53.5 34t70.5 12q38 0 69 -12t53.5 -34t34.5 -51.5t12 -65.5t-12 -66t-34.5 -51t-53.5 -33t-69 -12zM202 481q34 0 49.5 18t15.5 46q0 31 -16.5 49t-48.5 18q-34 0 -49 -18t-15 -49q0 -28 15 -46
t49 -18z" />
    <glyph glyph-name="plusminus" unicode="&#xb1;" horiz-adv-x="587" 
d="M222 316h-182v114h182v149h143v-149h182v-114h-182v-149h-143v149zM40 115h507v-115h-507v115z" />
    <glyph glyph-name="twosuperior" unicode="&#xb2;" horiz-adv-x="388" 
d="M186 447v-3h163v-78h-308v57l150 148q19 19 31 32.5t19 23t9.5 17.5t2.5 15q0 26 -14 39.5t-46 13.5q-37 0 -51 -21.5t-14 -49.5h-91q0 29 8 55.5t26.5 47.5t48.5 33.5t73 12.5q80 0 118.5 -34.5t38.5 -88.5q0 -19 -3 -34.5t-12 -31t-25 -33t-42 -41.5z" />
    <glyph glyph-name="threesuperior" unicode="&#xb3;" horiz-adv-x="412" 
d="M295 582q35 -9 57 -33.5t22 -66.5q0 -22 -9.5 -44t-30 -39t-53 -28t-79.5 -11q-41 0 -72 12.5t-51.5 33t-31 47.5t-10.5 56h97q0 -11 4.5 -22.5t13 -21.5t21.5 -16t31 -6q32 0 49.5 13.5t17.5 40.5q0 25 -18.5 35.5t-47.5 10.5h-36v68h35q26 0 43.5 14.5t17.5 37.5
t-16.5 36t-43.5 13q-33 0 -50 -20t-17 -49h-93q0 65 41 106t118 41q41 0 71 -9t49.5 -24t29 -35t9.5 -41q0 -43 -18.5 -65t-49.5 -33v-1z" />
    <glyph glyph-name="acute" unicode="&#xb4;" horiz-adv-x="352" 
d="M41 570l109 221h162l-133 -221h-138z" />
    <glyph glyph-name="paragraph" unicode="&#xb6;" horiz-adv-x="725" 
d="M649 0h-138v584h-88v-584h-138v285q-13 -4 -31.5 -6.5t-33.5 -2.5q-42 0 -77 11t-60 36t-39 65t-14 97q0 61 14.5 102.5t41.5 66.5t64.5 35.5t83.5 10.5h415v-700z" />
    <glyph glyph-name="periodcentered" unicode="&#xb7;" horiz-adv-x="331" 
d="M64 317q0 42 30 70.5t74 28.5q20 0 38 -7.5t31.5 -21t21.5 -31.5t8 -39t-8 -40t-21.5 -33t-31.5 -22t-38 -8q-22 0 -41 8t-33 22t-22 33t-8 40z" />
    <glyph glyph-name="cedilla" unicode="&#xb8;" horiz-adv-x="390" 
d="M59 -284l109 201h163l-133 -201h-139z" />
    <glyph glyph-name="onesuperior" unicode="&#xb9;" horiz-adv-x="280" 
d="M163 782h80v-419h-107v329l-99 -38v79z" />
    <glyph glyph-name="ordmasculine" unicode="&#xba;" horiz-adv-x="446" 
d="M37 577q0 52 13.5 91.5t38.5 66.5t59 41t75 14t74.5 -14t58.5 -41t38.5 -66.5t13.5 -91.5q0 -104 -51 -159.5t-134 -55.5q-84 0 -135 55.5t-51 159.5zM147 577q0 -69 20.5 -98.5t55.5 -29.5t55 29.5t20 98.5t-20 97.5t-55 28.5t-55.5 -29t-20.5 -97z" />
    <glyph glyph-name="guillemotright" unicode="&#xbb;" horiz-adv-x="925" 
d="M880 274l-450 -271v152l282 162v1l-282 162v153l450 -273v-86zM496 274l-450 -271v152l282 162v1l-282 162v153l450 -273v-86z" />
    <glyph glyph-name="onequarter" unicode="&#xbc;" horiz-adv-x="776" 
d="M440 700h107l-253 -700h-108zM12 652l126 48h79v-419h-106v329l-99 -38v80zM415 142l209 277h90v-267h51v-77h-48v-75h-104v75h-198v67zM617 151v137l-97 -137h97z" />
    <glyph glyph-name="onehalf" unicode="&#xbd;" horiz-adv-x="821" 
d="M138 700h79v-419h-106v329l-99 -38v80zM547 700l-253 -700h-109l254 700h108zM785 301q0 -19 -3 -34.5t-12 -31.5t-25 -33.5t-41 -41.5l-83 -79v-2h163v-79h-308v57l150 148q20 19 32 32.5t18.5 23.5t9 17.5t2.5 15.5q0 25 -14 38.5t-46 13.5q-37 0 -50.5 -21.5
t-13.5 -49.5h-92q0 29 8 56t26.5 47.5t48.5 33t73 12.5q80 0 118.5 -34.5t38.5 -88.5z" />
    <glyph glyph-name="threequarters" unicode="&#xbe;" horiz-adv-x="878" 
d="M289 500q35 -9 57 -33.5t22 -66.5q0 -22 -9.5 -44t-30 -39t-53.5 -28t-80 -11q-41 0 -72 12.5t-51.5 33t-31 47.5t-10.5 56h97q0 -11 4.5 -22.5t13 -21.5t21.5 -16t31 -6q67 0 67 54q0 26 -18 36t-48 10h-36v68h36q26 0 43 14.5t17 37.5t-16.5 36t-43.5 13
q-33 0 -49.5 -20t-16.5 -49h-94q0 65 41 106t118 41q41 0 71 -9t49.5 -24t29 -35t9.5 -41q0 -43 -18.5 -65t-48.5 -33v-1zM648 700l-252 -700h-109l254 700h107zM516 142l210 277h89v-267h52v-77h-48v-75h-103v75h-200v67zM720 151v137l-98 -137h98z" />
    <glyph glyph-name="questiondown" unicode="&#xbf;" horiz-adv-x="560" 
d="M273 593q46 0 71 -25.5t25 -63.5q0 -36 -25 -62t-71 -26q-45 0 -70 26t-25 62q0 38 25 63.5t70 25.5zM524 112q-3 -46 -18 -87t-44 -72t-72.5 -49.5t-103.5 -18.5q-66 0 -113 13t-77.5 37.5t-44.5 59.5t-14 78q0 36 11.5 62.5t28.5 46.5t36.5 36.5t36.5 33.5t28.5 36.5
t11.5 45.5v16h171v-18q0 -34 -12.5 -59t-31.5 -45.5t-41 -37t-41 -32.5t-31.5 -34t-12.5 -40q0 -34 21.5 -55t69.5 -21q43 0 66 31t27 73h149z" />
    <glyph glyph-name="Agrave" unicode="&#xc0;" horiz-adv-x="683" 
d="M326 968l109 -201h-138l-133 201h162zM237 700h210l239 -700h-175l-45 145h-249l-45 -145h-174zM433 263l-89 293h-3l-91 -293h183z" />
    <glyph glyph-name="Aacute" unicode="&#xc1;" horiz-adv-x="683" 
d="M387 767h-140l109 201h164zM237 700h210l239 -700h-175l-45 145h-249l-45 -145h-174zM433 263l-89 293h-3l-91 -293h183z" />
    <glyph glyph-name="Acircumflex" unicode="&#xc2;" horiz-adv-x="683" 
d="M539 753h-133l-66 102h-4l-64 -102h-131l146 222h105zM237 700h210l239 -700h-175l-45 145h-249l-45 -145h-174zM433 263l-89 293h-3l-91 -293h183z" />
    <glyph glyph-name="Atilde" unicode="&#xc3;" horiz-adv-x="683" 
d="M259 840q-19 0 -32 -16.5t-13 -53.5h-119q0 89 33 134.5t110 45.5q30 0 54 -11.5t45 -25.5t41.5 -25.5t44.5 -11.5q21 0 35.5 17.5t16.5 55.5h116q0 -87 -36 -134.5t-111 -47.5q-30 0 -54 11.5t-45.5 25t-42 25t-43.5 11.5zM237 700h210l239 -700h-175l-45 145h-249
l-45 -145h-174zM433 263l-89 293h-3l-91 -293h183z" />
    <glyph glyph-name="Adieresis" unicode="&#xc4;" horiz-adv-x="683" 
d="M377 863q0 17 7 31.5t18.5 25.5t27 17.5t33.5 6.5q16 0 30.5 -6.5t25.5 -17.5t17.5 -25.5t6.5 -31.5q0 -35 -24 -59.5t-56 -24.5q-18 0 -33.5 6.5t-27 18t-18.5 27t-7 32.5zM138 863q0 17 7 31.5t18.5 25.5t27 17.5t32.5 6.5q16 0 30.5 -6.5t26 -17.5t18 -25.5t6.5 -31.5
t-6.5 -32.5t-18 -27t-26 -18t-30.5 -6.5q-35 0 -60 24.5t-25 59.5zM237 700h210l239 -700h-175l-45 145h-249l-45 -145h-174zM433 263l-89 293h-3l-91 -293h183z" />
    <glyph glyph-name="Aring" unicode="&#xc5;" horiz-adv-x="685" 
d="M231 685q-21 19 -33.5 46.5t-12.5 61.5q0 33 11 61t32 48.5t50.5 32t65.5 11.5q35 0 63.5 -11.5t48.5 -32t31.5 -48.5t11.5 -61q0 -68 -47 -109l236 -684h-176l-44 145h-251l-45 -145h-174zM344 740q26 0 39 15t13 38q0 24 -13.5 39t-38.5 15q-27 0 -40.5 -15t-13.5 -39
q0 -23 13.5 -38t40.5 -15zM435 263l-91 293h-4l-90 -293h185z" />
    <glyph glyph-name="AE" unicode="&#xc6;" horiz-adv-x="1036" 
d="M656 575v-162h287v-125h-287v-163h344v-125h-509v145h-222l-87 -145h-184l430 700h572v-125h-344zM491 263v261l-156 -261h156z" />
    <glyph glyph-name="Ccedilla" unicode="&#xc7;" horiz-adv-x="699" 
d="M366 125q56 0 93.5 27.5t51.5 81.5h164q-7 -55 -32.5 -100t-66 -76.5t-94 -48.5t-116.5 -17q-78 0 -140.5 24t-106 70t-66.5 113t-23 153q0 85 23.5 151t67 111.5t105.5 69.5t140 24q61 0 114 -17.5t94 -49.5t67 -77t33 -101h-165q-13 54 -50 84t-93 30q-78 0 -123 -58.5
t-45 -166.5q0 -109 44 -168t124 -59zM349 -284h-138l108 201h163z" />
    <glyph glyph-name="Egrave" unicode="&#xc8;" horiz-adv-x="589" 
d="M301 968l109 -201h-140l-133 201h164zM208 575v-162h288v-125h-288v-163h343v-125h-507v700h507v-125h-343z" />
    <glyph glyph-name="Eacute" unicode="&#xc9;" horiz-adv-x="589" 
d="M359 767h-140l109 201h164zM208 575v-162h288v-125h-288v-163h343v-125h-507v700h507v-125h-343z" />
    <glyph glyph-name="Ecircumflex" unicode="&#xca;" horiz-adv-x="589" 
d="M502 753h-133l-66 102h-4l-65 -102h-130l145 222h106zM208 575v-162h288v-125h-288v-163h343v-125h-507v700h507v-125h-343z" />
    <glyph glyph-name="Edieresis" unicode="&#xcb;" horiz-adv-x="589" 
d="M341 863q0 17 7 31.5t18.5 25.5t27 17.5t32.5 6.5q33 0 57 -24t24 -57q0 -17 -6.5 -32.5t-17.5 -27t-25.5 -18t-31.5 -6.5q-35 0 -60 24.5t-25 59.5zM102 863q0 17 7 31.5t18.5 25.5t27 17.5t32.5 6.5q33 0 57 -24t24 -57q0 -17 -6.5 -32.5t-17.5 -27t-25.5 -18
t-31.5 -6.5q-35 0 -60 24.5t-25 59.5zM208 575v-162h288v-125h-288v-163h343v-125h-507v700h507v-125h-343z" />
    <glyph glyph-name="Igrave" unicode="&#xcc;" horiz-adv-x="265" 
d="M106 962l109 -201h-139l-134 201h164zM51 700h164v-700h-164v700z" />
    <glyph glyph-name="Iacute" unicode="&#xcd;" horiz-adv-x="265" 
d="M189 767h-138l108 201h164zM51 700h164v-700h-164v700z" />
    <glyph glyph-name="Icircumflex" unicode="&#xce;" horiz-adv-x="265" 
d="M331 753h-133l-66 102h-2l-66 -102h-130l146 222h104zM51 700h164v-700h-164v700z" />
    <glyph glyph-name="Idieresis" unicode="&#xcf;" horiz-adv-x="265" 
d="M-69 863q0 33 24 57t59 24q33 0 57.5 -24t24.5 -57q0 -17 -6.5 -32.5t-18 -27t-26 -18t-31.5 -6.5q-35 0 -59 24.5t-24 59.5zM170 863q0 33 24 57t59 24q33 0 57.5 -24t24.5 -57q0 -17 -6.5 -32.5t-18 -27t-26 -18t-31.5 -6.5q-35 0 -59 24.5t-24 59.5zM51 700h164v-700
h-164v700z" />
    <glyph glyph-name="Eth" unicode="&#xd0;" horiz-adv-x="749" 
d="M370 700q80 0 144.5 -22.5t110 -66t70 -108t24.5 -148.5t-24.5 -150t-70 -111.5t-110 -69.5t-144.5 -24h-264v303h-89v100h89v297h264zM348 125q94 0 144.5 59.5t50.5 170.5q0 104 -51.5 162t-142.5 58h-79v-172h152v-100h-152v-178h78z" />
    <glyph glyph-name="Ntilde" unicode="&#xd1;" horiz-adv-x="701" 
d="M232 770h-120q0 89 34 134.5t111 45.5q29 0 52.5 -11.5t45 -25.5t42.5 -25.5t45 -11.5q20 0 34.5 17.5t15.5 55.5h118q0 -87 -37 -134.5t-112 -47.5q-29 0 -53 11.5t-45.5 25t-42.5 25t-44 11.5q-18 0 -31 -16.5t-13 -53.5zM44 700h145l303 -433h4v433h160v-700h-141
l-307 440h-3v-440h-161v700z" />
    <glyph glyph-name="Ograve" unicode="&#xd2;" horiz-adv-x="730" 
d="M364 968l108 -201h-140l-133 201h165zM365 -8q-79 0 -142.5 24.5t-107.5 71t-68 113t-24 150.5t24 150t68 112t107.5 70.5t142.5 24.5t142 -24.5t107.5 -70.5t68 -112t23.5 -150t-23.5 -150.5t-68 -113t-107.5 -71t-142 -24.5zM365 128q80 0 125 58.5t45 164.5t-45 163
t-125 57t-125 -57t-45 -163t45 -164.5t125 -58.5z" />
    <glyph glyph-name="Oacute" unicode="&#xd3;" horiz-adv-x="730" 
d="M417 767h-139l108 201h164zM365 -8q-79 0 -142.5 24.5t-107.5 71t-68 113t-24 150.5t24 150t68 112t107.5 70.5t142.5 24.5t142 -24.5t107.5 -70.5t68 -112t23.5 -150t-23.5 -150.5t-68 -113t-107.5 -71t-142 -24.5zM365 128q80 0 125 58.5t45 164.5t-45 163t-125 57
t-125 -57t-45 -163t45 -164.5t125 -58.5z" />
    <glyph glyph-name="Ocircumflex" unicode="&#xd4;" horiz-adv-x="730" 
d="M566 753h-133l-64 102h-4l-66 -102h-130l146 222h103zM365 -8q-79 0 -142.5 24.5t-107.5 71t-68 113t-24 150.5t24 150t68 112t107.5 70.5t142.5 24.5t142 -24.5t107.5 -70.5t68 -112t23.5 -150t-23.5 -150.5t-68 -113t-107.5 -71t-142 -24.5zM365 128q80 0 125 58.5
t45 164.5t-45 163t-125 57t-125 -57t-45 -163t45 -164.5t125 -58.5z" />
    <glyph glyph-name="Otilde" unicode="&#xd5;" horiz-adv-x="730" 
d="M240 770h-118q0 89 33 134.5t110 45.5q29 0 52.5 -11.5t45 -25.5t42.5 -25.5t45 -11.5q21 0 35.5 17.5t14.5 55.5h118q0 -87 -36 -134.5t-111 -47.5q-30 0 -54 11.5t-45.5 25t-42 25t-43.5 11.5q-19 0 -32 -16.5t-14 -53.5zM365 -8q-79 0 -142.5 24.5t-107.5 71t-68 113
t-24 150.5t24 150t68 112t107.5 70.5t142.5 24.5t142 -24.5t107.5 -70.5t68 -112t23.5 -150t-23.5 -150.5t-68 -113t-107.5 -71t-142 -24.5zM365 128q80 0 125 58.5t45 164.5t-45 163t-125 57t-125 -57t-45 -163t45 -164.5t125 -58.5z" />
    <glyph glyph-name="Odieresis" unicode="&#xd6;" horiz-adv-x="730" 
d="M400 863q0 17 6.5 31.5t18 25.5t27 17.5t32.5 6.5q16 0 31 -6.5t26 -17.5t18 -25.5t7 -31.5t-7 -32.5t-18 -27t-26 -18t-31 -6.5q-35 0 -59.5 24.5t-24.5 59.5zM161 863q0 17 6.5 31.5t18 25.5t27 17.5t32.5 6.5q16 0 31 -6.5t26 -17.5t18 -25.5t7 -31.5t-7 -32.5
t-18 -27t-26 -18t-31 -6.5q-35 0 -59.5 24.5t-24.5 59.5zM365 -8q-79 0 -142.5 24.5t-107.5 71t-68 113t-24 150.5t24 150t68 112t107.5 70.5t142.5 24.5t142 -24.5t107.5 -70.5t68 -112t23.5 -150t-23.5 -150.5t-68 -113t-107.5 -71t-142 -24.5zM365 128q80 0 125 58.5
t45 164.5t-45 163t-125 57t-125 -57t-45 -163t45 -164.5t125 -58.5z" />
    <glyph glyph-name="multiply" unicode="&#xd7;" horiz-adv-x="549" 
d="M40 171l146 145l-146 146l88 89l145 -146l147 146l89 -89l-146 -146l146 -145l-90 -88l-146 144l-143 -144z" />
    <glyph glyph-name="Oslash" unicode="&#xd8;" horiz-adv-x="730" 
d="M706 351q0 -84 -23.5 -150.5t-68 -113t-107.5 -71t-142 -24.5t-142.5 24.5t-107.5 71t-68 113t-24 150.5q0 83 24 149.5t68 112.5t107.5 70.5t142.5 24.5t142 -24.5t107.5 -70.5t68 -112.5t23.5 -149.5zM195 351q0 -53 13.5 -92.5t37.5 -63.5l134 370q-9 6 -25 6
q-75 -5 -117.5 -61t-42.5 -159zM535 351q0 53 -14 93t-37 67l-136 -381q5 -2 10 -2h11q78 0 122 58.5t44 164.5z" />
    <glyph glyph-name="Ugrave" unicode="&#xd9;" horiz-adv-x="681" 
d="M457 767h-138l-133 201h163zM208 266q0 -67 35 -102t99 -35q63 0 97 35t34 102v434h164v-451q0 -59 -21 -106.5t-59.5 -81t-93 -51.5t-121.5 -18t-122 18t-94 51.5t-60.5 81t-21.5 106.5v451h164v-434z" />
    <glyph glyph-name="Uacute" unicode="&#xda;" horiz-adv-x="681" 
d="M254 767l108 201h165l-133 -201h-140zM208 266q0 -67 35 -102t99 -35q63 0 97 35t34 102v434h164v-451q0 -59 -21 -106.5t-59.5 -81t-93 -51.5t-121.5 -18t-122 18t-94 51.5t-60.5 81t-21.5 106.5v451h164v-434z" />
    <glyph glyph-name="Ucircumflex" unicode="&#xdb;" horiz-adv-x="681" 
d="M395 975l147 -222h-132l-66 102h-2l-66 -102h-130l146 222h103zM208 266q0 -67 35 -102t99 -35q63 0 97 35t34 102v434h164v-451q0 -59 -21 -106.5t-59.5 -81t-93 -51.5t-121.5 -18t-122 18t-94 51.5t-60.5 81t-21.5 106.5v451h164v-434z" />
    <glyph glyph-name="Udieresis" unicode="&#xdc;" horiz-adv-x="681" 
d="M139 863q0 33 24.5 57t59.5 24q16 0 30.5 -6.5t26 -17.5t18 -25.5t6.5 -31.5t-6.5 -32.5t-18 -27t-26 -18t-30.5 -6.5q-18 0 -33 6.5t-26.5 18t-18 27t-6.5 32.5zM378 863q0 33 24.5 57t59.5 24q16 0 30.5 -6.5t26 -17.5t18 -25.5t6.5 -31.5t-6.5 -32.5t-18 -27t-26 -18
t-30.5 -6.5q-18 0 -33 6.5t-26.5 18t-18 27t-6.5 32.5zM208 266q0 -67 35 -102t99 -35q63 0 97 35t34 102v434h164v-451q0 -59 -21 -106.5t-59.5 -81t-93 -51.5t-121.5 -18t-122 18t-94 51.5t-60.5 81t-21.5 106.5v451h164v-434z" />
    <glyph glyph-name="Yacute" unicode="&#xdd;" horiz-adv-x="646" 
d="M388 767h-138l108 201h164zM406 293v-293h-164v294l-243 406h191l132 -247h3l132 247h190z" />
    <glyph glyph-name="Thorn" unicode="&#xde;" horiz-adv-x="602" 
d="M208 560h146q104 0 163.5 -55.5t59.5 -155.5q0 -99 -59.5 -154t-164.5 -55h-145v-140h-164v700h164v-140zM208 434v-170h112q50 0 77 21.5t27 63.5t-26.5 63.5t-77.5 21.5h-112z" />
    <glyph glyph-name="germandbls" unicode="&#xdf;" horiz-adv-x="663" 
d="M44 0v470q0 115 64.5 176.5t199.5 61.5q69 0 121 -16.5t86 -44t51 -64.5t17 -78q0 -27 -7.5 -52t-21 -45.5t-33 -34t-42.5 -17.5q30 -5 57 -18t47.5 -33.5t33 -46.5t12.5 -57q0 -61 -20 -101.5t-53.5 -64.5t-76.5 -34t-89 -10q-28 0 -55.5 3t-53.5 8v110q24 -3 48 -3
q26 0 50.5 4.5t43 14.5t30 27t11.5 41q0 28 -12.5 48.5t-31.5 33.5t-42.5 19t-46.5 6h-34v105h34q41 0 68.5 22.5t27.5 60.5q0 40 -28 63.5t-88 23.5t-84.5 -31t-24.5 -94v-453h-158z" />
    <glyph glyph-name="agrave" unicode="&#xe0;" horiz-adv-x="569" 
d="M324 791l109 -201h-140l-133 201h164zM293 524q55 0 99 -13t74.5 -37t47 -57.5t16.5 -73.5v-343h-154v81h-3q-10 -21 -28.5 -38t-42 -28t-50 -17t-52.5 -6q-36 0 -68 11t-55.5 31.5t-37 49t-13.5 63.5q0 75 54 115.5t157 46.5l132 9v17q0 36 -21.5 56.5t-61.5 20.5
q-35 0 -59.5 -15t-30.5 -41h-144q9 77 72 122.5t169 45.5zM369 229l-106 -7q-39 -2 -58.5 -19t-19.5 -44q0 -29 21 -44.5t52 -15.5q22 0 42 8.5t35.5 23t24.5 33t9 38.5v27z" />
    <glyph glyph-name="aacute" unicode="&#xe1;" horiz-adv-x="569" 
d="M363 590h-139l109 201h164zM293 524q55 0 99 -13t74.5 -37t47 -57.5t16.5 -73.5v-343h-154v81h-3q-10 -21 -28.5 -38t-42 -28t-50 -17t-52.5 -6q-36 0 -68 11t-55.5 31.5t-37 49t-13.5 63.5q0 75 54 115.5t157 46.5l132 9v17q0 36 -21.5 56.5t-61.5 20.5q-35 0 -59.5 -15
t-30.5 -41h-144q9 77 72 122.5t169 45.5zM369 229l-106 -7q-39 -2 -58.5 -19t-19.5 -44q0 -29 21 -44.5t52 -15.5q22 0 42 8.5t35.5 23t24.5 33t9 38.5v27z" />
    <glyph glyph-name="acircumflex" unicode="&#xe2;" horiz-adv-x="569" 
d="M495 571h-132l-66 103h-4l-65 -103h-131l147 224h104zM293 524q55 0 99 -13t74.5 -37t47 -57.5t16.5 -73.5v-343h-154v81h-3q-10 -21 -28.5 -38t-42 -28t-50 -17t-52.5 -6q-36 0 -68 11t-55.5 31.5t-37 49t-13.5 63.5q0 75 54 115.5t157 46.5l132 9v17q0 36 -21.5 56.5
t-61.5 20.5q-35 0 -59.5 -15t-30.5 -41h-144q9 77 72 122.5t169 45.5zM369 229l-106 -7q-39 -2 -58.5 -19t-19.5 -44q0 -29 21 -44.5t52 -15.5q22 0 42 8.5t35.5 23t24.5 33t9 38.5v27z" />
    <glyph glyph-name="atilde" unicode="&#xe3;" horiz-adv-x="569" 
d="M220 663q-17 0 -26.5 -15.5t-9.5 -53.5h-118q0 89 29.5 134.5t105.5 45.5q26 0 47.5 -11t41 -24t38.5 -24t40 -11t31.5 16t11.5 54h117q0 -87 -31.5 -133.5t-106.5 -46.5q-27 0 -49 11t-42 23.5t-39 23.5t-40 11zM293 524q55 0 99 -13t74.5 -37t47 -57.5t16.5 -73.5v-343
h-154v81h-3q-10 -21 -28.5 -38t-42 -28t-50 -17t-52.5 -6q-36 0 -68 11t-55.5 31.5t-37 49t-13.5 63.5q0 75 54 115.5t157 46.5l132 9v17q0 36 -21.5 56.5t-61.5 20.5q-35 0 -59.5 -15t-30.5 -41h-144q9 77 72 122.5t169 45.5zM369 229l-106 -7q-39 -2 -58.5 -19t-19.5 -44
q0 -29 21 -44.5t52 -15.5q22 0 42 8.5t35.5 23t24.5 33t9 38.5v27z" />
    <glyph glyph-name="adieresis" unicode="&#xe4;" horiz-adv-x="569" 
d="M101 677q0 16 6.5 31t18 26t26.5 18t33 7q16 0 30.5 -7t26 -18t18 -26t6.5 -31q0 -35 -24.5 -59t-56.5 -24q-18 0 -33 6.5t-26.5 18t-18 26.5t-6.5 32zM340 677q0 16 6.5 31t18 26t26.5 18t33 7q16 0 30.5 -7t26 -18t18 -26t6.5 -31q0 -35 -24.5 -59t-56.5 -24
q-18 0 -33 6.5t-26.5 18t-18 26.5t-6.5 32zM293 524q55 0 99 -13t74.5 -37t47 -57.5t16.5 -73.5v-343h-154v81h-3q-10 -21 -28.5 -38t-42 -28t-50 -17t-52.5 -6q-36 0 -68 11t-55.5 31.5t-37 49t-13.5 63.5q0 75 54 115.5t157 46.5l132 9v17q0 36 -21.5 56.5t-61.5 20.5
q-35 0 -59.5 -15t-30.5 -41h-144q9 77 72 122.5t169 45.5zM369 229l-106 -7q-39 -2 -58.5 -19t-19.5 -44q0 -29 21 -44.5t52 -15.5q22 0 42 8.5t35.5 23t24.5 33t9 38.5v27z" />
    <glyph glyph-name="aring" unicode="&#xe5;" horiz-adv-x="569" 
d="M304 582q-62 0 -100.5 37t-38.5 96q0 58 38 95.5t101 37.5q61 0 99 -37.5t38 -95.5q0 -59 -38 -96t-99 -37zM304 667q23 0 35 13t12 35t-12 36t-35 14q-24 0 -36.5 -14t-12.5 -36t12.5 -35t36.5 -13zM293 524q55 0 99 -13t74.5 -37t47 -57.5t16.5 -73.5v-343h-154v81h-3
q-10 -21 -28.5 -38t-42 -28t-50 -17t-52.5 -6q-36 0 -68 11t-55.5 31.5t-37 49t-13.5 63.5q0 75 54 115.5t157 46.5l132 9v17q0 36 -21.5 56.5t-61.5 20.5q-35 0 -59.5 -15t-30.5 -41h-144q9 77 72 122.5t169 45.5zM369 229l-106 -7q-39 -2 -58.5 -19t-19.5 -44
q0 -29 21 -44.5t52 -15.5q22 0 42 8.5t35.5 23t24.5 33t9 38.5v27z" />
    <glyph glyph-name="ae" unicode="&#xe6;" horiz-adv-x="909" 
d="M880 225h-358q5 -54 36 -83.5t76 -29.5q35 0 60 15.5t35 48.5h148q-11 -92 -75 -138t-171 -46q-68 0 -120 23.5t-84 77.5q-20 -33 -47.5 -53t-56.5 -30.5t-57.5 -14t-51.5 -3.5q-36 0 -70 11t-60.5 31.5t-42 49t-15.5 63.5q0 75 54 115.5t157 46.5l135 9v17
q0 36 -23 56.5t-63 20.5q-35 0 -59.5 -15t-30.5 -41h-144q9 77 72 122.5t169 45.5q55 0 102 -20.5t70 -53.5q26 33 70 52.5t95 21.5q122 -2 186 -72t64 -190v-37zM630 407q-42 0 -70 -26.5t-35 -69.5h206q-5 42 -32 69t-69 27zM372 229l-109 -7q-39 -2 -58.5 -19t-19.5 -44
q0 -29 23 -44.5t53 -15.5q22 0 42 8.5t35.5 23t24.5 33t9 38.5v27z" />
    <glyph glyph-name="ccedilla" unicode="&#xe7;" horiz-adv-x="560" 
d="M536 176q-10 -91 -73.5 -137.5t-169.5 -46.5q-123 0 -193 68t-70 198t70 198t192 68q103 0 168.5 -48.5t75.5 -139.5h-149q-9 34 -33.5 50.5t-57.5 16.5q-47 0 -76 -38t-29 -107t29 -107.5t76 -38.5q33 0 58 16t33 48h149zM276 -284h-138l108 201h163z" />
    <glyph glyph-name="egrave" unicode="&#xe8;" horiz-adv-x="571" 
d="M307 791l109 -201h-139l-134 201h164zM542 225h-357q3 -54 34.5 -83.5t76.5 -29.5q35 0 59.5 15.5t35.5 48.5h147q-11 -92 -74.5 -138t-170.5 -46q-124 0 -193.5 68t-69.5 198q0 63 18.5 112t53 83t82.5 52t108 19q122 -2 186 -72t64 -190v-37zM292 407
q-42 0 -69.5 -26.5t-35.5 -69.5h207q-5 42 -32.5 69t-69.5 27z" />
    <glyph glyph-name="eacute" unicode="&#xe9;" horiz-adv-x="571" 
d="M347 590h-138l109 201h163zM542 225h-357q3 -54 34.5 -83.5t76.5 -29.5q35 0 59.5 15.5t35.5 48.5h147q-11 -92 -74.5 -138t-170.5 -46q-124 0 -193.5 68t-69.5 198q0 63 18.5 112t53 83t82.5 52t108 19q122 -2 186 -72t64 -190v-37zM292 407q-42 0 -69.5 -26.5
t-35.5 -69.5h207q-5 42 -32.5 69t-69.5 27z" />
    <glyph glyph-name="ecircumflex" unicode="&#xea;" horiz-adv-x="571" 
d="M494 571h-132l-66 103h-4l-66 -103h-130l146 224h104zM542 225h-357q3 -54 34.5 -83.5t76.5 -29.5q35 0 59.5 15.5t35.5 48.5h147q-11 -92 -74.5 -138t-170.5 -46q-124 0 -193.5 68t-69.5 198q0 63 18.5 112t53 83t82.5 52t108 19q122 -2 186 -72t64 -190v-37zM292 407
q-42 0 -69.5 -26.5t-35.5 -69.5h207q-5 42 -32.5 69t-69.5 27z" />
    <glyph glyph-name="edieresis" unicode="&#xeb;" horiz-adv-x="571" 
d="M330 677q0 16 6.5 31t18 26t27 18t32.5 7q16 0 31 -7t26 -18t18 -26t7 -31q0 -17 -7 -32t-18 -26.5t-26 -18t-31 -6.5q-35 0 -59.5 24t-24.5 59zM91 677q0 16 6.5 31t18 26t26.5 18t33 7q16 0 31 -7t26 -18t18 -26t7 -31q0 -17 -7 -32t-18 -26.5t-26 -18t-31 -6.5
q-18 0 -33 6.5t-26.5 18t-18 26.5t-6.5 32zM542 225h-357q3 -54 34.5 -83.5t76.5 -29.5q35 0 59.5 15.5t35.5 48.5h147q-11 -92 -74.5 -138t-170.5 -46q-124 0 -193.5 68t-69.5 198q0 63 18.5 112t53 83t82.5 52t108 19q122 -2 186 -72t64 -190v-37zM292 407
q-42 0 -69.5 -26.5t-35.5 -69.5h207q-5 42 -32.5 69t-69.5 27z" />
    <glyph glyph-name="igrave" unicode="&#xec;" horiz-adv-x="266" 
d="M105 791l109 -201h-140l-133 201h164zM53 517h161v-517h-161v517z" />
    <glyph glyph-name="iacute" unicode="&#xed;" horiz-adv-x="266" 
d="M193 590h-140l109 201h164zM53 517h161v-517h-161v517z" />
    <glyph glyph-name="icircumflex" unicode="&#xee;" horiz-adv-x="266" 
d="M332 571h-132l-66 103h-4l-66 -103h-129l145 224h106zM53 517h161v-517h-161v517z" />
    <glyph glyph-name="idieresis" unicode="&#xef;" horiz-adv-x="266" 
d="M-70 677q0 16 7 31t19 26t27.5 18t32.5 7q16 0 30.5 -7t26 -18t18 -26t6.5 -31q0 -17 -6.5 -32t-18 -26.5t-26 -18t-30.5 -6.5q-35 0 -60.5 24t-25.5 59zM170 677q0 16 7 31t18.5 26t27 18t32.5 7q16 0 30.5 -7t26 -18t18 -26t6.5 -31q0 -17 -6.5 -32t-18 -26.5t-26 -18
t-30.5 -6.5q-35 0 -60 24t-25 59zM53 517h161v-517h-161v517z" />
    <glyph glyph-name="eth" unicode="&#xf0;" horiz-adv-x="644" 
d="M617 660l-98 -57q43 -45 68 -107t25 -140q0 -88 -20.5 -156t-59 -114t-93.5 -70t-124 -24q-60 0 -111 17.5t-88 49t-58 77t-21 100.5q0 42 16.5 81t46 69t71 48.5t92.5 18.5q74 0 125.5 -24t80.5 -67h2q0 53 -16 98t-47 78l-114 -66l-28 51l90 51q-39 24 -91 27v107
q55 0 108.5 -16.5t98.5 -48.5l117 68zM319 110q25 0 47.5 9.5t39 26t26.5 39.5t10 49q0 25 -10 47t-27 38t-40 25t-49 9q-25 0 -47.5 -9t-38.5 -25t-25.5 -38.5t-9.5 -48.5q0 -25 9.5 -47.5t26 -39t39.5 -26t49 -9.5z" />
    <glyph glyph-name="ntilde" unicode="&#xf1;" horiz-adv-x="593" 
d="M227 663q-19 0 -28 -15.5t-10 -53.5h-117q0 89 29 134.5t105 45.5q27 0 48 -11t40.5 -24t38.5 -24t41 -11q20 0 31 16t12 54h117q0 -87 -32.5 -133.5t-107.5 -46.5q-27 0 -49 11t-41.5 23.5t-38 23.5t-38.5 11zM367 524q89 0 138 -49t49 -152v-323h-160v290
q0 54 -23.5 82.5t-72.5 28.5q-45 0 -72 -34.5t-27 -88.5v-278h-159v517h155v-102h1q20 59 64 84t107 25z" />
    <glyph glyph-name="ograve" unicode="&#xf2;" horiz-adv-x="578" 
d="M307 791l109 -201h-139l-134 201h164zM289 -8q-61 0 -111 17.5t-84.5 51t-53.5 83.5t-19 114q0 65 19 114.5t53.5 83t84.5 51t111 17.5q62 0 111.5 -17.5t84 -51t53.5 -83t19 -114.5q0 -64 -19 -114t-53.5 -83.5t-84 -51t-111.5 -17.5zM289 112q22 0 42.5 9t36 27.5
t25 46t9.5 63.5t-9.5 63.5t-25 46t-36 27.5t-42.5 9t-42.5 -9t-36.5 -27.5t-25 -46t-9 -63.5q0 -37 9 -64.5t25 -45.5t36.5 -27t42.5 -9z" />
    <glyph glyph-name="oacute" unicode="&#xf3;" horiz-adv-x="578" 
d="M353 590h-140l108 201h165zM289 -8q-61 0 -111 17.5t-84.5 51t-53.5 83.5t-19 114q0 65 19 114.5t53.5 83t84.5 51t111 17.5q62 0 111.5 -17.5t84 -51t53.5 -83t19 -114.5q0 -64 -19 -114t-53.5 -83.5t-84 -51t-111.5 -17.5zM289 112q22 0 42.5 9t36 27.5t25 46t9.5 63.5
t-9.5 63.5t-25 46t-36 27.5t-42.5 9t-42.5 -9t-36.5 -27.5t-25 -46t-9 -63.5q0 -37 9 -64.5t25 -45.5t36.5 -27t42.5 -9z" />
    <glyph glyph-name="ocircumflex" unicode="&#xf4;" horiz-adv-x="578" 
d="M486 571h-133l-64 103h-4l-66 -103h-129l145 224h103zM289 -8q-61 0 -111 17.5t-84.5 51t-53.5 83.5t-19 114q0 65 19 114.5t53.5 83t84.5 51t111 17.5q62 0 111.5 -17.5t84 -51t53.5 -83t19 -114.5q0 -64 -19 -114t-53.5 -83.5t-84 -51t-111.5 -17.5zM289 112
q22 0 42.5 9t36 27.5t25 46t9.5 63.5t-9.5 63.5t-25 46t-36 27.5t-42.5 9t-42.5 -9t-36.5 -27.5t-25 -46t-9 -63.5q0 -37 9 -64.5t25 -45.5t36.5 -27t42.5 -9z" />
    <glyph glyph-name="otilde" unicode="&#xf5;" horiz-adv-x="578" 
d="M213 663q-19 0 -28 -15.5t-10 -53.5h-118q0 89 29 134.5t105 45.5q27 0 48.5 -11t41 -24t38.5 -24t41 -11q20 0 31 16t11 54h118q0 -87 -32.5 -133.5t-107.5 -46.5q-27 0 -49 11t-41.5 23.5t-38 23.5t-38.5 11zM289 -8q-61 0 -111 17.5t-84.5 51t-53.5 83.5t-19 114
q0 65 19 114.5t53.5 83t84.5 51t111 17.5q62 0 111.5 -17.5t84 -51t53.5 -83t19 -114.5q0 -64 -19 -114t-53.5 -83.5t-84 -51t-111.5 -17.5zM289 112q22 0 42.5 9t36 27.5t25 46t9.5 63.5t-9.5 63.5t-25 46t-36 27.5t-42.5 9t-42.5 -9t-36.5 -27.5t-25 -46t-9 -63.5
q0 -37 9 -64.5t25 -45.5t36.5 -27t42.5 -9z" />
    <glyph glyph-name="odieresis" unicode="&#xf6;" horiz-adv-x="578" 
d="M87 677q0 16 7 31t18.5 26t26.5 18t32 7t31.5 -7t25.5 -18t17.5 -26t6.5 -31q0 -35 -24 -59t-57 -24q-34 0 -59 24t-25 59zM326 677q0 16 7 31t18.5 26t27 18t32.5 7q16 0 30.5 -7t25.5 -18t17.5 -26t6.5 -31q0 -17 -6.5 -32t-17.5 -26.5t-25.5 -18t-30.5 -6.5
q-35 0 -60 24t-25 59zM289 -8q-61 0 -111 17.5t-84.5 51t-53.5 83.5t-19 114q0 65 19 114.5t53.5 83t84.5 51t111 17.5q62 0 111.5 -17.5t84 -51t53.5 -83t19 -114.5q0 -64 -19 -114t-53.5 -83.5t-84 -51t-111.5 -17.5zM289 112q22 0 42.5 9t36 27.5t25 46t9.5 63.5
t-9.5 63.5t-25 46t-36 27.5t-42.5 9t-42.5 -9t-36.5 -27.5t-25 -46t-9 -63.5q0 -37 9 -64.5t25 -45.5t36.5 -27t42.5 -9z" />
    <glyph glyph-name="divide" unicode="&#xf7;" horiz-adv-x="587" 
d="M295 408q-39 0 -62.5 25t-23.5 58t23.5 57.5t62.5 24.5t61.5 -24.5t22.5 -57.5t-22.5 -58t-61.5 -25zM547 254h-507v125h507v-125zM295 57q-39 0 -62.5 24.5t-23.5 58.5q0 33 23.5 57.5t62.5 24.5t61.5 -24.5t22.5 -57.5q0 -34 -22.5 -58.5t-61.5 -24.5z" />
    <glyph glyph-name="oslash" unicode="&#xf8;" horiz-adv-x="578" 
d="M289 524q61 0 110.5 -17.5t84.5 -51.5t54 -83.5t19 -113.5t-19 -114t-53.5 -83.5t-84 -51t-111.5 -17.5q-61 0 -111 17.5t-84.5 51t-53.5 83.5t-19 114t19 113.5t53.5 83.5t84.5 51.5t111 17.5zM176 258q0 -35 9 -61.5t26 -43.5l88 249q-8 2 -15 2q-22 -1 -41.5 -11
t-34.5 -28t-23.5 -45t-8.5 -62zM402 258q0 33 -9.5 58.5t-24.5 41.5l-88 -244q3 -1 6.5 -1.5t8.5 -0.5q21 2 40.5 11.5t34 27.5t23.5 45t9 62z" />
    <glyph glyph-name="ugrave" unicode="&#xf9;" horiz-adv-x="593" 
d="M314 791l109 -201h-140l-133 201h164zM199 517v-292q0 -54 23.5 -82.5t71.5 -28.5q47 0 73.5 34.5t26.5 88.5v280h160v-517h-154v102h-3q-20 -60 -63.5 -85t-106.5 -25q-89 0 -138 49.5t-49 152.5v323h159z" />
    <glyph glyph-name="uacute" unicode="&#xfa;" horiz-adv-x="593" 
d="M359 590h-138l108 201h163zM199 517v-292q0 -54 23.5 -82.5t71.5 -28.5q47 0 73.5 34.5t26.5 88.5v280h160v-517h-154v102h-3q-20 -60 -63.5 -85t-106.5 -25q-89 0 -138 49.5t-49 152.5v323h159z" />
    <glyph glyph-name="ucircumflex" unicode="&#xfb;" horiz-adv-x="593" 
d="M496 571h-132l-66 103h-4l-64 -103h-131l146 224h105zM199 517v-292q0 -54 23.5 -82.5t71.5 -28.5q47 0 73.5 34.5t26.5 88.5v280h160v-517h-154v102h-3q-20 -60 -63.5 -85t-106.5 -25q-89 0 -138 49.5t-49 152.5v323h159z" />
    <glyph glyph-name="udieresis" unicode="&#xfc;" horiz-adv-x="593" 
d="M335 677q0 16 7 31t18.5 26t27 18t33.5 7q16 0 30.5 -7t26 -18t18.5 -26t7 -31q0 -35 -25 -59t-57 -24q-18 0 -33.5 6.5t-27 18t-18.5 26.5t-7 32zM96 677q0 16 7 31t18.5 26t27 18t33.5 7q16 0 30.5 -7t26 -18t18 -26t6.5 -31q0 -35 -24.5 -59t-56.5 -24
q-18 0 -33.5 6.5t-27 18t-18.5 26.5t-7 32zM199 517v-292q0 -54 23.5 -82.5t71.5 -28.5q47 0 73.5 34.5t26.5 88.5v280h160v-517h-154v102h-3q-20 -60 -63.5 -85t-106.5 -25q-89 0 -138 49.5t-49 152.5v323h159z" />
    <glyph glyph-name="yacute" unicode="&#xfd;" horiz-adv-x="541" 
d="M342 590h-139l108 201h165zM542 517q-44 -128 -81 -236q-16 -46 -31.5 -92.5t-29.5 -87.5t-24.5 -72.5t-16.5 -47.5q-28 -91 -79.5 -131t-125.5 -40q-21 0 -48.5 2.5t-48.5 7.5v104q14 -2 26.5 -3.5t24.5 -1.5q32 0 49 14t25 37l10 29l-192 518h170l102 -380h3l100 380
h167z" />
    <glyph glyph-name="thorn" unicode="&#xfe;" horiz-adv-x="601" 
d="M200 682v-238h2q29 41 72 60.5t100 19.5q41 0 78 -17.5t65 -51.5t45 -84t17 -116q0 -63 -16 -112t-45.5 -82.5t-70 -51t-90.5 -17.5q-44 0 -85.5 16.5t-69.5 58.5h-2v-244h-160v859h160zM196 260q0 -69 30.5 -106.5t82.5 -37.5q51 0 81.5 37.5t30.5 104.5t-30.5 105
t-81.5 38q-52 0 -82.5 -37t-30.5 -104z" />
    <glyph glyph-name="ydieresis" unicode="&#xff;" horiz-adv-x="541" 
d="M72 677q0 16 7 31t19 26t27.5 18t32.5 7q16 0 31 -7t26 -18t18 -26t7 -31q0 -17 -7 -32t-18 -26.5t-26 -18t-31 -6.5q-35 0 -60.5 24t-25.5 59zM312 677q0 16 7 31t18.5 26t27 18t32.5 7q16 0 31 -7t26 -18t18 -26t7 -31q0 -17 -7 -32t-18 -26.5t-26 -18t-31 -6.5
q-35 0 -60 24t-25 59zM542 517q-44 -128 -81 -236q-16 -46 -31.5 -92.5t-29.5 -87.5t-24.5 -72.5t-16.5 -47.5q-28 -91 -79.5 -131t-125.5 -40q-21 0 -48.5 2.5t-48.5 7.5v104q14 -2 26.5 -3.5t24.5 -1.5q32 0 49 14t25 37l10 29l-192 518h170l102 -380h3l100 380h167z" />
    <glyph glyph-name="Dcroat" unicode="&#x110;" horiz-adv-x="749" 
d="M370 700q80 0 144.5 -22.5t110 -66t70 -108t24.5 -148.5t-24.5 -150t-70 -111.5t-110 -69.5t-144.5 -24h-264v303h-89v100h89v297h264zM348 125q94 0 144.5 59.5t50.5 170.5q0 104 -51.5 162t-142.5 58h-79v-172h152v-100h-152v-178h78z" />
    <glyph glyph-name="dcroat" unicode="&#x111;" horiz-adv-x="601" 
d="M239 524q106 0 159 -87h2v134h-241v80h241v72h160v-72h65v-80h-65v-571h-153v76h-3q-23 -37 -68 -60.5t-99 -23.5q-45 0 -84 17.5t-68 51t-45.5 83.5t-16.5 116q0 63 16 112t44.5 83t68 51.5t87.5 17.5zM292 116q51 0 81.5 36.5t30.5 104.5q0 67 -30.5 105t-81.5 38
t-81.5 -38t-30.5 -104q0 -69 30.5 -105.5t81.5 -36.5z" />
    <glyph glyph-name="dotlessi" unicode="&#x131;" horiz-adv-x="266" 
d="M53 517h161v-517h-161v517z" />
    <glyph glyph-name="Lslash" unicode="&#x141;" horiz-adv-x="592" 
d="M274 700v-297h179v-100h-179v-178h309v-125h-473v303h-91v100h91v297h164z" />
    <glyph glyph-name="lslash" unicode="&#x142;" horiz-adv-x="462" 
d="M313 700v-297h131v-100h-131v-303h-164v303h-131v100h131v297h164z" />
    <glyph glyph-name="OE" unicode="&#x152;" horiz-adv-x="1036" 
d="M637 575q56 -61 64 -162h243v-125h-243q-4 -51 -20.5 -92t-43.5 -71h363v-125h-549q-21 -4 -42 -6t-44 -2q-79 0 -142.5 24.5t-107.5 71t-68 113t-24 150.5q0 83 24 149.5t68 112.5t107.5 70.5t142.5 24.5q23 0 44 -2t42 -6h549v-125h-363zM195 351q0 -106 45 -164.5
t125 -58.5t125 58.5t45 164.5t-45 163t-125 57t-125 -57t-45 -163z" />
    <glyph glyph-name="oe" unicode="&#x153;" horiz-adv-x="942" 
d="M912 225h-356v-2q4 -52 34.5 -81.5t75.5 -29.5q36 0 60.5 15.5t34.5 48.5h148q-11 -92 -74.5 -138t-170.5 -46q-31 0 -60 6t-54 17.5t-44 27.5t-30 37q-10 -21 -29.5 -37t-44.5 -27.5t-54 -17.5t-59 -6q-61 0 -111 17.5t-84.5 51t-53.5 83.5t-19 114t19 113.5t53.5 83.5
t84.5 51.5t111 17.5q60 0 111.5 -22t78.5 -70q26 48 75.5 69t107.5 23q123 -2 186.5 -72t63.5 -190v-37zM662 407q-42 0 -69.5 -26.5t-35.5 -69.5h207q-5 42 -32.5 69t-69.5 27zM289 112q22 0 42.5 9t36 27.5t25 46t9.5 63.5t-9.5 63.5t-25 46t-36 27.5t-42.5 9t-42.5 -9
t-36.5 -27.5t-25 -46t-9 -63.5q0 -37 9 -64.5t25 -45.5t36.5 -27t42.5 -9z" />
    <glyph glyph-name="Scaron" unicode="&#x160;" horiz-adv-x="629" 
d="M257 753l-146 222h130l66 -103h4l66 103h132l-147 -222h-105zM184 213q6 -42 39.5 -67.5t89.5 -25.5q57 0 88.5 21t31.5 58q0 17 -6 29t-19.5 21t-36.5 16.5t-57 14.5l-69 14q-106 22 -159.5 70.5t-53.5 127.5q0 50 21 90t57.5 68t87 43t109.5 15q67 0 118.5 -16.5
t87 -46.5t54 -71t19.5 -89h-158q-2 42 -33 69t-85 27q-53 0 -82 -21t-29 -55q0 -32 26.5 -51t87.5 -30l72 -15q112 -20 165.5 -66.5t53.5 -127.5q0 -52 -20.5 -93.5t-58.5 -70t-92.5 -44t-122.5 -15.5q-64 0 -116 15.5t-89 44t-57.5 69.5t-21.5 92h158z" />
    <glyph glyph-name="scaron" unicode="&#x161;" horiz-adv-x="523" 
d="M207 571l-145 224h129l66 -104h4l66 104h132l-148 -224h-104zM178 156q7 -26 29.5 -40.5t57.5 -14.5q33 0 52 12.5t19 34.5q0 14 -12 25.5t-55 20.5l-80 15q-75 16 -115.5 53t-40.5 95q0 42 18.5 73t49.5 51.5t72 30.5t85 10q42 0 80.5 -9t68.5 -29t49.5 -51.5
t23.5 -76.5h-146q-4 27 -24 42.5t-52 15.5q-29 0 -49.5 -12.5t-20.5 -35.5q0 -16 12.5 -27t54.5 -20l81 -15q81 -17 120.5 -50t39.5 -90q0 -78 -59.5 -125t-171.5 -47q-43 0 -83.5 9t-73 28.5t-54.5 50.5t-28 76h152z" />
    <glyph glyph-name="Ydieresis" unicode="&#x178;" horiz-adv-x="646" 
d="M124 863q0 17 7 31.5t18.5 25.5t27 17.5t33.5 6.5q16 0 30.5 -6.5t25.5 -17.5t17.5 -25.5t6.5 -31.5q0 -35 -24 -59.5t-56 -24.5q-18 0 -33.5 6.5t-27 18t-18.5 27t-7 32.5zM363 863q0 17 7 31.5t18.5 25.5t27 17.5t33.5 6.5q16 0 30.5 -6.5t26 -17.5t18 -25.5t6.5 -31.5
q0 -35 -24.5 -59.5t-56.5 -24.5q-18 0 -33.5 6.5t-27 18t-18.5 27t-7 32.5zM406 293v-293h-164v294l-243 406h191l132 -247h3l132 247h190z" />
    <glyph glyph-name="Zcaron" unicode="&#x17d;" horiz-adv-x="614" 
d="M265 753l-146 222h130l65 -103h3l66 103h132l-147 -222h-103zM578 125v-125h-541v105l335 466v4h-329v125h526v-105l-327 -468v-2h336z" />
    <glyph glyph-name="zcaron" unicode="&#x17e;" horiz-adv-x="512" 
d="M212 571l-145 224h130l65 -104h5l65 104h133l-148 -224h-105zM37 84l246 311v4h-246v118h437v-97l-232 -298v-4h232v-118h-437v84z" />
    <glyph glyph-name="florin" unicode="&#x192;" horiz-adv-x="401" 
d="M366 505v-105h-86v-241q0 -45 -13 -77t-36.5 -52t-55.5 -29t-71 -9q-20 0 -41.5 2.5t-44.5 7.5v110q27 -3 44 -3q32 0 45.5 12.5t13.5 41.5v237h-82v105h82v35q0 45 13 76.5t36.5 52t55.5 29.5t71 9q20 0 41.5 -2.5t44.5 -7.5v-111q-19 3 -36 3q-36 0 -51.5 -10
t-15.5 -44v-30h86z" />
    <glyph glyph-name="circumflex" unicode="&#x2c6;" horiz-adv-x="514" 
d="M455 571h-132l-66 103h-2l-66 -103h-130l146 224h104z" />
    <glyph glyph-name="caron" unicode="&#x2c7;" horiz-adv-x="514" 
d="M205 571l-146 224h130l66 -104h2l66 104h132l-146 -224h-104z" />
    <glyph glyph-name="breve" unicode="&#x2d8;" horiz-adv-x="433" 
d="M161 735q0 -24 14 -39.5t39 -15.5q28 0 41.5 15.5t13.5 39.5h105q0 -33 -11.5 -61t-32.5 -48.5t-50.5 -32t-65.5 -11.5q-35 0 -63.5 11.5t-49 32t-31.5 48.5t-11 61h102z" />
    <glyph glyph-name="dotaccent" unicode="&#x2d9;" horiz-adv-x="280" 
d="M59 635q0 16 6.5 30t18 25t26.5 17.5t31 6.5t30.5 -6.5t25.5 -17.5t17.5 -25t6.5 -30q0 -17 -6.5 -32.5t-17.5 -27t-25.5 -18t-30.5 -6.5t-31 6.5t-26.5 18t-18 27t-6.5 32.5z" />
    <glyph glyph-name="ring" unicode="&#x2da;" horiz-adv-x="393" 
d="M59 715q0 58 37.5 95.5t100.5 37.5q61 0 99 -37.5t38 -95.5q0 -59 -38 -96t-99 -37q-62 0 -100 37t-38 96zM147 715q0 -22 13 -35t37 -13q23 0 35 13t12 35t-12 36t-35 14q-24 0 -37 -14t-13 -36z" />
    <glyph glyph-name="ogonek" unicode="&#x2db;" horiz-adv-x="280" 
 />
    <glyph glyph-name="tilde" unicode="&#x2dc;" horiz-adv-x="579" 
d="M214 663q-18 0 -27.5 -15.5t-9.5 -53.5h-118q0 89 29.5 134.5t105.5 45.5q26 0 47.5 -11t41 -24t38.5 -24t40 -11t31 16t12 54h116q0 -87 -31.5 -133.5t-106.5 -46.5q-27 0 -49 11t-41.5 23.5t-38.5 23.5t-39 11z" />
    <glyph glyph-name="hungarumlaut" unicode="&#x2dd;" horiz-adv-x="565" 
d="M59 570l109 221h143l-134 -221h-118zM254 570l108 221h144l-134 -221h-118z" />
    <glyph glyph-name="uni03BC" unicode="&#x3bc;" horiz-adv-x="592" 
d="M199 517v-292q0 -54 23.5 -82.5t71.5 -28.5q47 0 73.5 34.5t26.5 88.5v280h160v-517h-154v91h-3q-11 -45 -44 -72t-80 -27q-9 0 -21.5 2t-24 6t-20.5 10.5t-13 15.5h-1v-203h-153v694h159z" />
    <glyph glyph-name="uni0E01" unicode="&#xe01;" horiz-adv-x="619" 
d="M31 329q0 127 70 189.5t197 62.5q137 0 209 -63t72 -172v-346h-162v330q0 56 -29.5 90t-89.5 34q-52 0 -83.5 -25t-36.5 -73l114 -24v-39q-38 -16 -54.5 -46t-16.5 -78v-169h-162v157q0 56 34 92t91 46l-153 25v9z" />
    <glyph glyph-name="uni0E02" unicode="&#xe02;" horiz-adv-x="587" 
d="M547 577v-372q0 -105 -63.5 -159t-194.5 -54q-132 0 -195 54t-63 159v25q0 46 12.5 79t31.5 56t41.5 37t42.5 20q0 23 -18.5 33t-45.5 10h-49v112h83q59 0 92 -15.5t48.5 -38t18.5 -48t3 -44.5v-23q-58 -28 -79 -70.5t-21 -105.5q0 -54 20 -82t78 -28q30 0 49 7t29.5 21
t14.5 34.5t4 47.5v345h161z" />
    <glyph glyph-name="uni0E03" unicode="&#xe03;" horiz-adv-x="629" 
d="M589 577v-372q0 -105 -63 -159t-195 -54t-195 54t-63 159v25q0 46 14 80.5t36 59t49 40.5t53 25q0 37 -17 49q-28 -53 -92 -53q-20 0 -39 5.5t-34 18.5t-24 34.5t-9 52.5v35h104v-17q0 -19 9 -29t22 -10q17 0 26.5 12t17.5 44h28q37 0 61 -12t38 -32t19.5 -46.5
t5.5 -55.5v-23q-20 -9 -39.5 -22.5t-34.5 -33t-24.5 -46.5t-9.5 -63v-11q0 -54 20 -82t78 -28q30 0 49.5 7t30 21t14.5 34.5t4 47.5v345h160z" />
    <glyph glyph-name="uni0E04" unicode="&#xe04;" horiz-adv-x="644" 
d="M31 349q0 111 75.5 171.5t213.5 60.5t211 -59t73 -168v-354h-160v330q0 57 -32 90.5t-92 33.5q-69 0 -98 -37t-29 -98q0 -45 2.5 -79.5t5.5 -69.5q9 27 22 54t31 49t40 36t49 14h33v-120h-21q-28 0 -48.5 -9.5t-36 -24.5t-27 -34t-20.5 -39v-96h-162v96q-5 30 -10 58
t-9.5 58t-7.5 63.5t-3 73.5z" />
    <glyph glyph-name="uni0E05" unicode="&#xe05;" horiz-adv-x="644" 
d="M448 582q44 0 74 -13.5t48 -38t26 -58t8 -73.5v-399h-160v394q0 26 -10 43t-35 17t-37.5 -18t-12.5 -38h-63q0 20 -11 38t-36 18q-14 0 -23 -8t-14.5 -20t-7.5 -27.5t-2 -30.5q0 -48 2.5 -98.5t7.5 -98.5q8 27 21.5 54t31 49t40 35.5t48.5 13.5h33v-120h-21
q-28 0 -48.5 -9.5t-36 -24.5t-27 -34t-20.5 -39v-96h-162v96q-10 60 -20 127.5t-10 148.5q0 45 8 83.5t26 66.5t48.5 44t75.5 16q107 0 130 -86q22 86 129 86z" />
    <glyph glyph-name="uni0E06" unicode="&#xe06;" horiz-adv-x="657" 
d="M73 0v230q0 46 14 80.5t36 59t49 40.5t53 25q0 37 -17 49q-28 -53 -92 -53q-20 0 -39 5.5t-34 18.5t-24 34.5t-9 52.5v35h104v-17q0 -19 9 -29t22 -10q17 0 26.5 12t17.5 44h28q37 0 61 -12t38 -32t19.5 -46.5t5.5 -55.5v-23q-19 -9 -38.5 -22.5t-35 -33t-25 -45.5
t-9.5 -61q0 -55 31 -89.5t85 -34.5q53 0 79.5 28.5t26.5 97.5v329h162v-374q0 -51 -15 -90.5t-41 -66t-62 -40.5t-78 -14q-78 0 -126 35t-64 93v-120h-158z" />
    <glyph glyph-name="uni0E07" unicode="&#xe07;" horiz-adv-x="600" 
d="M364 577q56 0 97 -7t68 -25t40.5 -50t13.5 -84q0 -37 -14 -84.5t-37 -101t-52.5 -111t-61.5 -114.5h-204l-212 577h161l156 -466h8q50 100 73 174t23 115q0 34 -15.5 50t-50.5 16h-59v111h66z" />
    <glyph glyph-name="uni0E08" unicode="&#xe08;" horiz-adv-x="577" 
d="M34 216v94h133q23 0 36.5 -10t21.5 -27l70 -161h10q17 30 32.5 61.5t27.5 62t19.5 58.5t7.5 52q0 54 -32 79.5t-80 25.5q-34 0 -65 -16t-42 -57h-152q6 48 28.5 85.5t58 64t81 40t96.5 13.5q71 0 121 -18.5t82 -49t47 -70.5t15 -83q0 -38 -11.5 -75.5t-32.5 -80.5
t-50.5 -92.5t-65.5 -111.5h-181l-94 201q-7 15 -25 15h-56z" />
    <glyph glyph-name="uni0E09" unicode="&#xe09;" horiz-adv-x="629" 
d="M431 0v120q-16 -58 -64.5 -93t-125.5 -35q-42 0 -78 14t-62.5 40.5t-41 66t-14.5 90.5v87h162v-42q0 -69 26.5 -97.5t78.5 -28.5q55 0 85 34.5t30 91.5v82q0 64 -31.5 92.5t-91.5 28.5q-44 0 -74.5 -18t-42.5 -55h-154q6 47 29 84.5t59 63.5t82.5 40.5t100.5 14.5
q67 0 120 -14.5t89.5 -45t56 -78t19.5 -113.5v-330h-158z" />
    <glyph glyph-name="uni0E0A" unicode="&#xe0a;" horiz-adv-x="587" 
d="M46 577h83q59 0 92 -15.5t48.5 -38t18.5 -48t3 -44.5v-23q-58 -28 -79 -70.5t-21 -105.5q0 -54 20 -82t78 -28q30 0 49 7t29.5 21t14.5 34.5t4 47.5v68q0 41 -14.5 64t-48.5 33v63q42 11 60 42t20 85h162q-2 -63 -29 -101t-75 -54q45 -13 65.5 -49t20.5 -100v-78
q0 -105 -63.5 -159t-194.5 -54q-132 0 -195 54t-63 159v25q0 46 12.5 79t31.5 56t41.5 37t42.5 20q0 23 -18.5 33t-45.5 10h-49v112z" />
    <glyph glyph-name="uni0E0B" unicode="&#xe0b;" horiz-adv-x="629" 
d="M10 577h104v-17q0 -19 5.5 -29t19.5 -10q15 0 25 12t18 44h27q37 0 61 -12t38 -32t19.5 -46.5t5.5 -55.5v-23q-20 -9 -38 -22.5t-32 -33t-22 -46.5t-8 -63v-11q0 -54 20 -82t78 -28q30 0 49.5 7t30 21t14.5 34.5t4 47.5v68q0 41 -14.5 64t-48.5 33v63q42 11 60 42t21 85
h160q-2 -63 -29 -101t-75 -54q46 -13 66 -49t20 -100v-78q0 -105 -63 -159t-195 -54t-195 54t-63 159v25q0 46 13 80.5t33.5 59t46.5 40.5t51 25q0 36 -16 49q-28 -53 -91 -53q-20 0 -38.5 5.5t-32 18.5t-21.5 34.5t-8 52.5v35z" />
    <glyph glyph-name="uni0E0C" unicode="&#xe0c;" horiz-adv-x="953" 
d="M38 141q0 32 12 57t32.5 44.5t47 32.5t55.5 20l-154 25v9q0 127 69 189.5t194 62.5q137 0 205.5 -63t68.5 -172v-87q0 -27 5.5 -51.5t17.5 -43.5t31 -30.5t45 -11.5q42 0 63 28.5t21 97.5v329h162v-374q0 -103 -46.5 -157t-134.5 -54q-69 0 -112 32t-60 89v-113h-154v330
q0 56 -25.5 90t-86.5 34q-51 0 -81 -25t-35 -73l114 -24v-39q-16 -7 -32.5 -18t-29 -25t-20.5 -31t-8 -37q0 -33 20.5 -52t53.5 -19h27v-111h-76q-34 0 -68 6.5t-61 22.5t-43.5 43t-16.5 69z" />
    <glyph glyph-name="uni0E0D" unicode="&#xe0d;" horiz-adv-x="953" 
d="M38 141q0 32 12 57t32.5 44.5t47 32.5t55.5 20l-154 25v9q0 127 69 189.5t194 62.5q137 0 205.5 -63t68.5 -172v-106q0 -34 6.5 -57t18.5 -36.5t28.5 -19t37.5 -5.5q42 0 67 25t25 93v337h162v-366q0 -102 -63.5 -160.5t-190.5 -58.5q-126 0 -189.5 58t-63.5 161v119
q0 56 -25.5 90t-86.5 34q-51 0 -81 -25t-35 -73l114 -24v-39q-16 -7 -32.5 -18t-29 -25t-20.5 -31t-8 -37q0 -33 20.5 -52t53.5 -19h27v-111h-76q-34 0 -68 6.5t-61 22.5t-43.5 43t-16.5 69zM888 -117v-93h-304q-56 0 -89 12t-50.5 32t-23 46.5t-5.5 55.5v16h137v-16
q0 -17 3.5 -27.5t12.5 -16t23.5 -7.5t35.5 -2h260z" />
    <glyph glyph-name="uni0E0E" unicode="&#xe0e;" horiz-adv-x="623" 
d="M36 329q0 127 69.5 189.5t196.5 62.5q137 0 209 -63t72 -172v-546h-125q-51 34 -90.5 49t-74.5 15q-42 0 -63.5 -18.5t-23.5 -45.5h-151q4 49 21 81.5t43 52t59 27.5t69 8q48 0 91.5 -14t82.5 -34v409q0 56 -28.5 90t-90.5 34q-52 0 -83.5 -25t-36.5 -73l119 -24v-39
q-32 -13 -48 -37t-16 -64v-57q0 -69 -37 -102t-112 -33h-72v111h25q44 0 44 53v32q0 38 26.5 65t82.5 34l-158 25v9z" />
    <glyph glyph-name="uni0E0F" unicode="&#xe0f;" horiz-adv-x="623" 
d="M173 -39q11 -62 60 -62q29 0 45 16t27 46h41l75 -66v435q0 56 -28.5 90t-90.5 34q-52 0 -83.5 -25t-36.5 -73l119 -24v-39q-32 -13 -48 -37t-16 -64v-57q0 -69 -37 -102t-112 -33h-72v111h25q44 0 44 53v32q0 38 26.5 65t82.5 34l-158 25v9q0 127 69.5 189.5t196.5 62.5
q137 0 209 -63t72 -172v-546h-166l-83 72q-16 -36 -54 -56.5t-87 -20.5q-144 0 -163 166h143z" />
    <glyph glyph-name="uni0E10" unicode="&#xe10;" horiz-adv-x="579" 
d="M614 620l-113 -136q50 -53 50 -124q0 -38 -11.5 -75.5t-32.5 -80.5t-50.5 -92.5t-65.5 -111.5h-181l-96 201q-4 15 -23 15h-57v94h134q23 0 36 -10t21 -27l71 -161h10q16 30 31.5 61.5t28 62t20 58.5t7.5 52q0 54 -32.5 79.5t-79.5 25.5q-35 0 -66 -16t-41 -57h-153
q6 48 29 85.5t58 64t81 40t97 13.5q70 0 122 -26l55 65h151zM530 -59v-160h-136l-81 73q-17 -36 -55 -56.5t-88 -20.5q-72 0 -110 40t-48 124h139q5 -29 19.5 -45.5t41.5 -16.5t43 16t27 46h41l77 -66v66h130z" />
    <glyph glyph-name="uni0E11" unicode="&#xe11;" horiz-adv-x="664" 
d="M10 577h104v-17q0 -19 9 -29t22 -10q17 0 26.5 12t17.5 44h35q44 0 69.5 -20.5t30.5 -55.5q45 39 83.5 60t81.5 21q38 0 64 -12.5t41.5 -33t22.5 -47.5t7 -56v-433h-162v387q0 30 -8 43t-31 13q-22 0 -48 -20t-55 -48q-31 -30 -52 -70t-21 -107v-198h-162v198
q0 39 11.5 72.5t31 62.5t44.5 54.5t53 48.5q0 15 -4 28t-13 20q-28 -53 -92 -53q-20 0 -39 5.5t-34 18.5t-24 34.5t-9 52.5v35z" />
    <glyph glyph-name="uni0E12" unicode="&#xe12;" horiz-adv-x="991" 
d="M391 274q0 -60 -16 -107t-44 -81t-67 -55.5t-84 -30.5h-140v399q0 40 7.5 73.5t25.5 58t47.5 38t72.5 13.5q106 0 128 -85q22 85 129 85q44 0 74 -13.5t48 -38t26 -58t8 -73.5v-140q0 -27 6 -51.5t18.5 -43.5t31.5 -30.5t45 -11.5q42 0 63 28.5t21 97.5v329h160v-374
q0 -103 -46.5 -157t-133.5 -54q-69 0 -111.5 32t-59.5 89v-113h-154v394q0 26 -10 43t-35 17q-24 0 -37 -18t-11 -38h-62q0 20 -12 38t-38 18q-25 0 -34 -17t-9 -43v-306q17 8 32.5 22t27.5 32.5t19 40t7 43.5h-44v93h151v-45z" />
    <glyph glyph-name="uni0E13" unicode="&#xe13;" horiz-adv-x="953" 
d="M913 0h-155v113q-17 -57 -59.5 -89t-111.5 -32q-88 0 -134.5 54t-46.5 157v127q0 56 -25.5 90t-86.5 34q-51 0 -81 -25t-35 -73l114 -24v-39q-16 -7 -32.5 -18t-29 -25t-20.5 -31t-8 -37q0 -33 20.5 -52t53.5 -19h27v-111h-76q-34 0 -68 6.5t-61 22.5t-43.5 43t-16.5 69
q0 32 12 57t32.5 44.5t47 32.5t55.5 20l-154 25v9q0 127 69 189.5t194 62.5q137 0 205.5 -63t68.5 -172v-98q0 -69 21 -97.5t63 -28.5q26 0 45 11.5t31 30.5t17.5 43.5t5.5 51.5v318h162v-577z" />
    <glyph glyph-name="uni0E14" unicode="&#xe14;" horiz-adv-x="639" 
d="M320 454q-60 0 -91 -36.5t-31 -93.5v-236q17 8 32 22t26.5 32.5t18.5 40t7 43.5h-42v93h150v-45q0 -60 -16 -107t-44.5 -81t-67.5 -55.5t-84 -30.5h-138v343q0 111 71 174.5t209 63.5t208.5 -63.5t70.5 -174.5v-343h-157v324q0 57 -31 93.5t-91 36.5z" />
    <glyph glyph-name="uni0E15" unicode="&#xe15;" horiz-adv-x="645" 
d="M392 274q0 -60 -16 -107t-44.5 -81t-66.5 -55.5t-83 -30.5h-142v399q0 40 8 73.5t26 58t47.5 38t72.5 13.5q107 0 129 -85q22 85 129 85q44 0 73 -13.5t47 -38t25.5 -58t7.5 -73.5v-399h-159v394q0 26 -9 43t-34 17q-26 0 -38 -18t-10 -38h-64q2 20 -10 38t-38 18
q-25 0 -34.5 -17t-9.5 -43v-306q17 8 32.5 22t27.5 32.5t19.5 40t7.5 43.5h-44v93h150v-45z" />
    <glyph glyph-name="uni0E16" unicode="&#xe16;" horiz-adv-x="619" 
d="M38 141q0 32 12 57t32.5 44.5t47 32.5t55.5 20l-154 25v9q0 127 70 189.5t197 62.5q137 0 209 -63t72 -172v-346h-162v330q0 56 -29.5 90t-89.5 34q-52 0 -83.5 -25t-36.5 -73l114 -24v-39q-16 -7 -32.5 -18t-29 -25t-20.5 -31t-8 -37q0 -33 20.5 -52t53.5 -19h27v-111
h-76q-34 0 -68 6.5t-61 22.5t-43.5 43t-16.5 69z" />
    <glyph glyph-name="uni0E17" unicode="&#xe17;" horiz-adv-x="623" 
d="M40 577h157v-124q16 58 65 93t127 35q42 0 77.5 -14t61.5 -40.5t40.5 -66t14.5 -90.5v-370h-160v325q0 69 -26.5 97.5t-80.5 28.5q-55 0 -85 -34.5t-30 -91.5v-325h-161v577z" />
    <glyph glyph-name="uni0E18" unicode="&#xe18;" horiz-adv-x="584" 
d="M187 395q99 -21 168 -39t113 -39.5t64 -49.5t20 -69v-21q0 -48 -19.5 -82.5t-54.5 -56.5t-83.5 -32.5t-105.5 -10.5q-54 0 -100 11t-80 34t-53.5 58.5t-20.5 84.5v68h162v-63q0 -19 8 -32.5t21.5 -22t30.5 -12t34 -3.5q19 0 36.5 3t31 10t22 19.5t8.5 31.5v17
q0 23 -18.5 39.5t-60.5 30.5t-109.5 29.5t-165.5 36.5v18q0 61 23 104.5t59.5 71t83 40t94.5 12.5t92.5 -13.5t79 -38.5t57.5 -59.5t28 -76.5h-151q-9 29 -37.5 47.5t-69.5 18.5q-38 0 -67.5 -14.5t-39.5 -49.5z" />
    <glyph glyph-name="uni0E19" unicode="&#xe19;" horiz-adv-x="623" 
d="M583 0h-156v120q-17 -58 -65.5 -93t-126.5 -35q-42 0 -77.5 14t-61.5 40.5t-41 66t-15 90.5v374h161v-329q0 -69 26.5 -97.5t80.5 -28.5q55 0 85 34.5t30 91.5v329h160v-577z" />
    <glyph glyph-name="uni0E1A" unicode="&#xe1a;" horiz-adv-x="631" 
d="M591 577v-341q0 -55 -17 -100t-51.5 -77t-86 -49.5t-120.5 -17.5t-120.5 17.5t-86 49.5t-52 77t-17.5 100v341h161v-316q0 -70 27 -104.5t88 -34.5q60 0 86.5 34.5t26.5 104.5v316h162z" />
    <glyph glyph-name="uni0E1B" unicode="&#xe1b;" horiz-adv-x="631" 
d="M591 750v-514q0 -55 -17 -100t-51.5 -77t-86 -49.5t-120.5 -17.5t-120.5 17.5t-86 49.5t-52 77t-17.5 100v341h161v-316q0 -70 27 -104.5t88 -34.5q60 0 86.5 34.5t26.5 104.5v489h162z" />
    <glyph glyph-name="uni0E1C" unicode="&#xe1c;" horiz-adv-x="651" 
d="M40 408q0 88 44.5 130t127.5 42h70v-112h-33q-48 0 -48 -55v-230l103 159h42l103 -159v394h162v-577h-143l-142 219l-144 -219h-142v408z" />
    <glyph glyph-name="uni0E1D" unicode="&#xe1d;" horiz-adv-x="651" 
d="M40 408q0 88 44.5 130t127.5 42h70v-112h-33q-48 0 -48 -55v-230l103 159h42l103 -159v567h162v-750h-143l-142 219l-144 -219h-142v408z" />
    <glyph glyph-name="uni0E1E" unicode="&#xe1e;" horiz-adv-x="779" 
d="M771 577l-124 -577h-142l-116 399l-116 -399h-142l-124 577h163l59 -355l104 342h114l102 -342l59 355h163z" />
    <glyph glyph-name="uni0E1F" unicode="&#xe1f;" horiz-adv-x="777" 
d="M803 751l-156 -751h-142l-116 399l-116 -399h-142l-124 577h163l59 -355l104 342h114l102 -342l92 529h162z" />
    <glyph glyph-name="uni0E20" unicode="&#xe20;" horiz-adv-x="623" 
d="M36 329q0 127 69.5 189.5t196.5 62.5q137 0 209 -63t72 -172v-346h-162v330q0 56 -28.5 90t-90.5 34q-52 0 -83.5 -25t-36.5 -73l119 -24v-39q-32 -13 -48 -37t-16 -64v-57q0 -69 -37 -102t-112 -33h-72v111h25q44 0 44 53v32q0 38 26.5 65t82.5 34l-158 25v9z" />
    <glyph glyph-name="uni0E21" unicode="&#xe21;" horiz-adv-x="623" 
d="M40 0v577h161v-329q0 -57 30 -91.5t85 -34.5q54 0 80.5 28.5t26.5 97.5v329h160v-374q0 -51 -14.5 -90.5t-40.5 -66t-61.5 -40.5t-77.5 -14q-78 0 -127 35t-65 93v-120h-157z" />
    <glyph glyph-name="uni0E22" unicode="&#xe22;" horiz-adv-x="612" 
d="M572 577v-347q0 -114 -65.5 -176t-210.5 -62q-132 0 -196.5 47.5t-64.5 132.5q0 54 29.5 89t82.5 48q-52 12 -81.5 46.5t-29.5 82.5q0 74 50.5 106.5t134.5 32.5h81v-111h-42q-68 0 -68 -55q0 -17 10 -29t25.5 -19.5t34 -10.5t34.5 -3h31v-84h-22q-19 0 -38 -3.5
t-34 -11.5t-24 -21t-9 -33q0 -16 5 -29.5t17 -23.5t32 -15.5t49 -5.5q63 0 86 31t23 94v330h160z" />
    <glyph glyph-name="uni0E23" unicode="&#xe23;" horiz-adv-x="546" 
d="M188 404q0 -26 33.5 -38.5t90.5 -25.5q37 -8 74 -18.5t66 -29t47.5 -47t18.5 -73.5q0 -48 -22 -82t-56.5 -55.5t-78 -31.5t-87.5 -10q-45 0 -88.5 10.5t-77.5 33t-55.5 58.5t-23.5 86h140q10 -32 38.5 -48.5t66.5 -16.5q17 0 33 3t28.5 10t20.5 17.5t8 25.5q0 16 -12 26
t-34 18.5t-53 15.5t-68 17q-33 9 -62.5 21t-51.5 30t-35 43t-13 61q0 46 21 79.5t54.5 55t76.5 32t87 10.5q42 0 84.5 -10t76.5 -32.5t55.5 -58t22.5 -87.5h-142q-5 33 -32.5 49t-64.5 16q-16 0 -31.5 -3t-27.5 -10t-19.5 -17t-7.5 -24z" />
    <glyph glyph-name="uni0E24" unicode="&#xe24;" horiz-adv-x="619" 
d="M38 141q0 32 12 57t32.5 44.5t47 32.5t55.5 20l-154 25v9q0 127 70 189.5t197 62.5q137 0 209 -63t72 -172v-546h-162v530q0 56 -29.5 90t-89.5 34q-52 0 -83.5 -25t-36.5 -73l114 -24v-39q-16 -7 -32.5 -18t-29 -25t-20.5 -31t-8 -37q0 -33 20.5 -52t53.5 -19h27v-111
h-76q-34 0 -68 6.5t-61 22.5t-43.5 43t-16.5 69z" />
    <glyph glyph-name="uni0E25" unicode="&#xe25;" horiz-adv-x="608" 
d="M568 0h-160v243l-117 -9q-44 -3 -69.5 -17.5t-25.5 -49.5q0 -26 15 -41t47 -15h50v-111h-91q-40 0 -74.5 10t-59.5 29.5t-39 49t-14 68.5q0 42 17 72.5t47.5 50.5t74 30.5t96.5 14.5l144 10v13q0 54 -27 78.5t-80 24.5q-38 0 -67 -18t-40 -55h-153q6 47 28 84.5
t56.5 63.5t79.5 40.5t96 14.5q131 0 198.5 -59.5t67.5 -191.5v-330z" />
    <glyph glyph-name="uni0E26" unicode="&#xe26;" horiz-adv-x="623" 
d="M36 329q0 127 69.5 189.5t196.5 62.5q137 0 209 -63t72 -172v-546h-162v530q0 56 -28.5 90t-90.5 34q-52 0 -83.5 -25t-36.5 -73l119 -24v-39q-32 -13 -48 -37t-16 -64v-57q0 -69 -37 -102t-112 -33h-72v111h25q44 0 44 53v32q0 38 26.5 65t82.5 34l-158 25v9z" />
    <glyph glyph-name="uni0E27" unicode="&#xe27;" horiz-adv-x="579" 
d="M278 581q130 0 201 -76t71 -216t-68 -216.5t-204 -76.5q-50 0 -93.5 14.5t-77 41t-55 64t-27.5 83.5h154q11 -37 38 -55t62 -18q29 0 50 12.5t35 34t20.5 51.5t6.5 65t-6.5 64.5t-20.5 51.5t-35 34t-50 12q-35 0 -62 -18t-38 -55h-154q6 47 27.5 84.5t55 63.5t77 40.5
t93.5 14.5z" />
    <glyph glyph-name="uni0E28" unicode="&#xe28;" horiz-adv-x="644" 
d="M31 349q0 111 74.5 171.5t213.5 60.5q38 0 70 -6.5t58 -17.5l52 63h150l-103 -123q27 -26 41.5 -61t14.5 -82v-354h-161v330q0 57 -31 90.5t-91 33.5q-70 0 -98 -37t-28 -98q0 -45 2.5 -79.5t5.5 -69.5q9 27 22 54t31 49t40 36t49 14h33v-120h-21q-28 0 -48.5 -9.5
t-36 -24.5t-27 -34t-20.5 -39v-96h-162v96q-5 30 -10 58t-9.5 58t-7.5 63.5t-3 73.5z" />
    <glyph glyph-name="uni0E29" unicode="&#xe29;" horiz-adv-x="647" 
d="M591 577v-226h46v-94h-46v-21q0 -55 -17 -100t-51.5 -77t-86 -49.5t-120.5 -17.5t-120.5 17.5t-86 49.5t-52 77t-17.5 100v341h161v-316q0 -70 27 -104.5t88 -34.5q57 0 85 32t28 94v9h-25q-52 0 -82 11.5t-45 31.5t-18.5 46.5t-3.5 55.5v15h111v-15q0 -17 1.5 -27
t6 -15.5t13 -7t21.5 -1.5h21v226h162z" />
    <glyph glyph-name="uni0E2A" unicode="&#xe2a;" horiz-adv-x="610" 
d="M568 0h-160v243l-117 -9q-44 -3 -69.5 -17.5t-25.5 -49.5q0 -26 15 -41t47 -15h50v-111h-91q-40 0 -74.5 10t-59.5 29.5t-39 49t-14 68.5q0 42 17 72.5t47.5 50.5t74 30.5t96.5 14.5l144 10v13q0 54 -27 78.5t-80 24.5q-38 0 -67 -18t-40 -55h-153q6 47 28 84.5
t56.5 63.5t79.5 40.5t96 14.5q37 0 69 -7t58 -19l56 65h150l-114 -138q23 -27 35 -64t12 -88v-330z" />
    <glyph glyph-name="uni0E2B" unicode="&#xe2b;" horiz-adv-x="612" 
d="M414 187q0 26 -9 42t-24.5 24t-35.5 9.5t-42 -1.5l-102 -12v-249h-161v577h161v-221l87 10q65 9 95.5 34.5t30.5 86.5v90h162v-90q0 -71 -37.5 -109.5t-103.5 -52.5q30 -1 55.5 -9.5t44.5 -25.5t30 -45t11 -70v-175h-162v187z" />
    <glyph glyph-name="uni0E2C" unicode="&#xe2c;" horiz-adv-x="769" 
d="M807 708q-11 -64 -44.5 -113.5t-95.5 -65.5q42 -17 57.5 -53.5t2.5 -96.5l-80 -379h-141l-117 399l-117 -399h-141l-124 577h163l59 -355l104 342h114l102 -342l33 171q5 24 5.5 44t-5.5 34t-19 22t-36 9v75q62 0 92 37t37 94h151z" />
    <glyph glyph-name="uni0E2D" unicode="&#xe2d;" horiz-adv-x="603" 
d="M297 581q62 0 113.5 -19t88.5 -56t57 -91t20 -124q0 -141 -72 -220t-206 -79q-62 0 -111 15.5t-82.5 43t-51.5 65.5t-18 83q0 22 5 46t19.5 44t40 33t67.5 13h141v-94h-86q-21 0 -27.5 -16t-6.5 -29q0 -37 31 -55.5t78 -18.5q36 0 60.5 13t38.5 36t20 53.5t6 66.5
q0 43 -10.5 73.5t-28 49.5t-40.5 28t-48 9q-17 0 -34.5 -4.5t-33 -13.5t-27 -22.5t-17.5 -32.5h-152q6 48 30 85.5t60 64t81.5 40t94.5 13.5z" />
    <glyph glyph-name="uni0E2E" unicode="&#xe2e;" horiz-adv-x="605" 
d="M297 581q70 0 121 -27l56 66h150l-113 -138q30 -34 47.5 -81.5t17.5 -109.5q0 -141 -72 -220t-206 -79q-62 0 -111 15.5t-82.5 43t-51.5 65.5t-18 83q0 22 5 46t19.5 44t40 33t67.5 13h141v-94h-86q-21 0 -27.5 -16t-6.5 -29q0 -37 31 -55.5t78 -18.5q36 0 60.5 13
t38.5 36t20 53.5t6 66.5q0 43 -10.5 73.5t-28 49.5t-40.5 28t-48 9q-17 0 -34.5 -4.5t-33 -13.5t-27 -22.5t-17.5 -32.5h-152q6 48 30 85.5t60 64t81.5 40t94.5 13.5z" />
    <glyph glyph-name="uni0E2F" unicode="&#xe2f;" horiz-adv-x="607" 
d="M549 577v-577h-161v331q-12 -56 -54.5 -87.5t-111.5 -31.5q-42 0 -77.5 12t-61.5 35t-41 58.5t-15 81.5q0 50 17 84t45.5 55t66.5 30.5t79 9.5h52v-112h-37q-26 0 -42.5 -17.5t-16.5 -46.5q0 -69 78 -69q29 0 51 10t37 28t23 42.5t8 52.5v111h161z" />
    <glyph glyph-name="uni0E30" unicode="&#xe30;" horiz-adv-x="364" 
d="M338 440v-100h-148q-56 0 -89 12t-50.5 32.5t-22.5 47t-5 55.5v19h135v-11q0 -35 16.5 -45t60.5 -10h103zM338 153v-102h-148q-56 0 -89 12.5t-50.5 33t-22.5 47.5t-5 56v17h135v-9q0 -36 16.5 -46t60.5 -9h103z" />
    <glyph glyph-name="uni0E31" unicode="&#xe31;" 
d="M14 753v-94h-301q-56 0 -89 12t-50.5 32.5t-23 47t-5.5 56.5v18h136v-18q0 -35 16.5 -45t60.5 -9h256z" />
    <glyph glyph-name="uni0E32" unicode="&#xe32;" horiz-adv-x="470" 
d="M203 581q47 0 88 -12t71 -38.5t47.5 -69t17.5 -103.5v-358h-162v347q0 54 -24.5 81.5t-83.5 27.5q-28 0 -59.5 -6.5t-75.5 -22.5v111q39 21 86 32t95 11z" />
    <glyph glyph-name="uni0E33" unicode="&#xe33;" horiz-adv-x="470" 
d="M-160 876q26 0 49 -8t40 -23t27 -36.5t10 -48.5t-10 -48t-27 -35.5t-40 -22.5t-49 -8q-27 0 -50 7.5t-40 22.5t-26.5 36t-9.5 48t9.5 48.5t26.5 36.5t40 23t50 8zM-160 716q18 0 32 13t14 31q0 20 -14 32t-32 12q-19 0 -32 -12t-13 -32q0 -18 13 -31t32 -13zM203 581
q47 0 88 -12t71 -38.5t47.5 -69t17.5 -103.5v-358h-162v347q0 54 -24.5 81.5t-83.5 27.5q-28 0 -59.5 -6.5t-75.5 -22.5v111q39 21 86 32t95 11z" />
    <glyph glyph-name="uni0E34" unicode="&#xe34;" 
d="M-554 659v94h514v-94h-514z" />
    <glyph glyph-name="uni0E35" unicode="&#xe35;" 
d="M-554 753h372v83h142v-177h-514v94z" />
    <glyph glyph-name="uni0E36" unicode="&#xe36;" 
d="M-135 846q48 0 74.5 -23t26.5 -71q0 -47 -26.5 -70t-74.5 -23h-419v94h324q-4 4 -4 10q0 35 23 59t76 24zM-167 752q0 -14 8.5 -23t23.5 -9t23.5 9t8.5 23q0 32 -32 32t-32 -32z" />
    <glyph glyph-name="uni0E37" unicode="&#xe37;" 
d="M-554 753h250v78h105v-78h55v78h104v-172h-514v94z" />
    <glyph glyph-name="uni0E38" unicode="&#xe38;" 
d="M-44 -285h-143v119h-88v94h231v-213z" />
    <glyph glyph-name="uni0E39" unicode="&#xe39;" 
d="M-44 -72v-90q0 -41 -17.5 -65.5t-43.5 -38t-56.5 -18t-56.5 -4.5q-24 0 -52 4t-52.5 16t-40.5 33t-16 55v14h-66v94h184v-69q0 -26 9.5 -41t33.5 -15q23 0 33 15t10 41v69h131z" />
    <glyph glyph-name="uni0E3A" unicode="&#xe3a;" 
d="M-220 -161q0 38 25.5 63.5t63.5 25.5q37 0 62.5 -25.5t25.5 -63.5q0 -18 -7 -34t-19 -28.5t-28 -19.5t-34 -7q-19 0 -35 7t-28 19.5t-19 28.5t-7 34z" />
    <glyph glyph-name="uni0E3F" unicode="&#xe3f;" horiz-adv-x="650" 
d="M44 700h188v98h141v-98q101 -3 158 -47t57 -123q0 -31 -8.5 -59.5t-25 -51.5t-40.5 -38t-55 -20v-3q36 -2 65.5 -15.5t51 -36t33.5 -53t12 -66.5q0 -91 -66 -139t-179 -48h-3v-104h-141v104h-188v700zM319 405q51 0 78 22t27 64q0 41 -27 63t-77 22h-112v-171h111z
M329 125q60 0 90.5 20t30.5 66q0 48 -31.5 68t-91.5 20h-119v-174h121z" />
    <glyph glyph-name="uni0E40" unicode="&#xe40;" horiz-adv-x="325" 
d="M234 0q-84 0 -129.5 45.5t-45.5 143.5v388h162v-404q0 -31 16 -46.5t39 -15.5h36l-1 -111h-77z" />
    <glyph glyph-name="uni0E41" unicode="&#xe41;" horiz-adv-x="620" 
d="M234 0q-84 0 -129.5 45.5t-45.5 143.5v388h162v-404q0 -31 16 -46.5t39 -15.5h36l-1 -111h-77zM529 0q-84 0 -129.5 45.5t-45.5 143.5v388h160v-404q0 -31 16 -46.5t39 -15.5h36v-111h-76z" />
    <glyph glyph-name="uni0E42" unicode="&#xe42;" horiz-adv-x="361" 
d="M270 0q-84 0 -129.5 45.5t-45.5 143.5v323q0 33 -9.5 55.5t-24 37t-32 23t-33.5 13.5v29q0 32 11.5 58.5t32.5 45.5t51 30t66 11h208v-111h-174q-24 0 -41 -10t-17 -27q58 -20 91 -55t33 -98v-341q0 -31 16 -46.5t39 -15.5h36l-1 -111h-77z" />
    <glyph glyph-name="uni0E43" unicode="&#xe43;" horiz-adv-x="363" 
d="M272 0q-84 0 -129.5 45.5t-45.5 143.5v253q0 45 21.5 77t47 56t47 44.5t21.5 42.5q0 23 -13.5 39t-45.5 16q-28 0 -47.5 -15t-19.5 -57h-128q0 48 15 83t41.5 57.5t62.5 33.5t78 11q90 0 141 -39t51 -122q0 -43 -17 -71t-38 -52.5t-38 -49.5t-17 -62v-261q0 -31 16 -46.5
t39 -15.5h36l-1 -111h-77z" />
    <glyph glyph-name="uni0E44" unicode="&#xe44;" horiz-adv-x="363" 
d="M272 0q-84 0 -129.5 45.5t-45.5 143.5v275q0 46 11.5 81t31 60.5t44.5 42t51 25.5q0 20 -8 33t-20 18q-15 -28 -38 -44.5t-61 -16.5q-20 0 -41.5 6t-39 20t-29 36t-11.5 55v35h115v-17q0 -22 10.5 -32.5t24.5 -10.5q18 0 29 14t18 46h29q37 0 63.5 -12t43 -32t24 -46.5
t7.5 -55.5v-23q-40 -19 -66 -58t-26 -110v-305q0 -31 16 -46.5t39 -15.5h36l-1 -111h-77z" />
    <glyph glyph-name="uni0E45" unicode="&#xe45;" horiz-adv-x="470" 
d="M204 581q47 0 87.5 -12t70.5 -38.5t47 -69t17 -103.5v-558h-160v547q0 54 -25 81.5t-83 27.5q-28 0 -60 -6.5t-75 -22.5v111q80 43 181 43z" />
    <glyph glyph-name="uni0E46" unicode="&#xe46;" horiz-adv-x="610" 
d="M392 -120v453q0 24 -5.5 41.5t-29.5 17.5q-38 0 -38 -54h-58q0 54 -43 54q-20 0 -26.5 -17.5t-6.5 -41.5v-24q0 -31 16 -47t43 -16h44v-102h-47q-43 0 -82 8t-68.5 28t-46.5 53t-17 84v44q0 79 35 119t102 40q54 0 84 -22t39 -64q10 42 42 64t82 22q78 0 109.5 -40
t31.5 -119v-481h-160z" />
    <glyph glyph-name="uni0E47" unicode="&#xe47;" 
d="M-235 793q1 -26 19 -41t39 -15h70v-94h-44q-35 0 -66 15.5t-45 44.5q-13 -29 -39.5 -44.5t-61.5 -15.5q-57 0 -92 36.5t-35 99.5q0 64 39.5 101.5t120.5 37.5h249v-94h-244q-20 0 -36 -9t-16 -32t14.5 -32t26.5 -9q17 0 32 12.5t15 38.5h54z" />
    <glyph glyph-name="uni0E48" unicode="&#xe48;" 
d="M-189 880v227h140v-227h-140z" />
    <glyph glyph-name="uni0E49" unicode="&#xe49;" 
d="M13 973v-93h-217q-29 0 -47 6t-28 16t-13.5 23t-3.5 27q0 40 -35 40h-69v91h131q16 0 29 -2.5t22.5 -9.5t14.5 -20t5 -33q0 -32 12.5 -38.5t35.5 -6.5h163z" />
    <glyph glyph-name="uni0E4A" unicode="&#xe4a;" 
d="M-531 978q0 22 5.5 42.5t18 36.5t32.5 26t49 10q25 0 48 -10.5t37 -37.5q14 27 35 37.5t46 10.5q54 0 75 -31t21 -83v-48q19 0 26 10.5t7 31.5v132h98v-134q0 -48 -28 -77t-94 -29h-107v108q0 34 -28 34q-11 0 -19.5 -7t-8.5 -24h-48q0 17 -8 24t-18 7q-15 0 -22 -9.5
t-7 -26.5t9 -27.5t36 -10.5h27v-68h-57q-26 0 -48.5 6t-39.5 19.5t-27 35t-10 52.5z" />
    <glyph glyph-name="uni0E4B" unicode="&#xe4b;" 
d="M15 955h-95v-75h-120v75h-95v76h95v76h120v-76h95v-76z" />
    <glyph glyph-name="uni0E4C" unicode="&#xe4c;" 
d="M-142 887q-22 0 -37 -2t-24 -8t-12.5 -16.5t-3.5 -27.5v-18h-136v18q0 29 5.5 56t23 47t50.5 32t89 12h167v-93h-122z" />
    <glyph glyph-name="uni0E4D" unicode="&#xe4d;" 
d="M-160 876q26 0 49 -8t40 -23t27 -36.5t10 -48.5t-10 -48t-27 -35.5t-40 -22.5t-49 -8q-27 0 -50 7.5t-40 22.5t-26.5 36t-9.5 48t9.5 48.5t26.5 36.5t40 23t50 8zM-160 716q18 0 32 13t14 31q0 20 -14 32t-32 12q-19 0 -32 -12t-13 -32q0 -18 13 -31t32 -13z" />
    <glyph glyph-name="uni0E4E" unicode="&#xe4e;" 
 />
    <glyph glyph-name="uni0E4F" unicode="&#xe4f;" horiz-adv-x="528" 
d="M264 527q43 0 81 -16.5t66.5 -45t45 -67t16.5 -81.5t-16.5 -81.5t-45 -66.5t-66.5 -44.5t-81 -16.5t-81.5 16.5t-66.5 44.5t-44.5 66.5t-16.5 81.5t16.5 81.5t44.5 67t66.5 45t81.5 16.5zM264 147q35 0 65 13.5t52.5 36.5t35.5 54t13 66t-13 65t-35.5 52.5t-52.5 35.5
t-65 13t-66 -13t-54 -35.5t-36.5 -52.5t-13.5 -65t13.5 -66t36.5 -54t54 -36.5t66 -13.5zM264 442q26 0 48.5 -9.5t39 -26.5t26.5 -39.5t10 -49.5q0 -26 -10 -49t-26.5 -40t-39 -27t-48.5 -10t-49 10t-40 27t-27 40t-10 49q0 27 10 49.5t27 39.5t40 26.5t49 9.5zM264 228
q38 0 62 26t24 63q0 38 -24 62t-62 24q-37 0 -63 -24t-26 -62q0 -37 26 -63t63 -26z" />
    <glyph glyph-name="uni0E50" unicode="&#xe50;" horiz-adv-x="619" 
d="M309 524q62 0 114 -17.5t90.5 -51t60 -83t21.5 -114.5q0 -64 -21.5 -114t-60 -83.5t-90.5 -51t-114 -17.5q-61 0 -113.5 17.5t-90 51t-59 83.5t-21.5 114q0 65 21.5 114.5t59 83t90 51t113.5 17.5zM309 116q26 0 50 8.5t42 26t28.5 44.5t10.5 63t-10.5 63t-28.5 45
t-42 26.5t-50 8.5t-49.5 -8.5t-41 -26.5t-28 -45t-10.5 -63q0 -37 10.5 -63.5t28 -44t41 -26t49.5 -8.5z" />
    <glyph glyph-name="uni0E51" unicode="&#xe51;" horiz-adv-x="621" 
d="M296 90q-49 -5 -97.5 2.5t-87 31t-62.5 63t-24 99.5q0 64 21.5 109t60 73.5t90.5 42t112 13.5q62 0 114.5 -19t91 -55.5t60.5 -91t22 -126.5q0 -59 -20 -118.5t-64.5 -106.5t-116.5 -74.5t-176 -22.5v115q63 -4 105.5 13.5t68.5 48t37 69.5t11 76q0 42 -11 73.5
t-29.5 52.5t-42.5 32t-50 11t-49.5 -6t-41 -19.5t-28 -35.5t-10.5 -54q0 -21 9.5 -37.5t25.5 -27.5t37 -15.5t44 -1.5v-114z" />
    <glyph glyph-name="uni0E52" unicode="&#xe52;" horiz-adv-x="794" 
d="M750 233q0 -63 -28.5 -108.5t-77 -75t-112.5 -43.5t-134 -14t-134 14t-112.5 43.5t-77.5 75t-29 108.5v449h151v-434q0 -45 21.5 -74t52.5 -45t66 -22t62 -6q28 0 63 6t65.5 22.5t51.5 45t21 73.5v88q0 26 -6 42t-30 16q-31 0 -43 -52h-61q-7 27 -17 39.5t-27 12.5
q-23 0 -29 -16t-6 -42v-16q0 -30 19 -43.5t49 -13.5q18 0 36 3v-88q-40 -6 -76 -6t-66 8t-52 26t-34 46.5t-12 68.5v42q0 40 6.5 70t21.5 50.5t40.5 30.5t64.5 10q51 0 77 -22t36 -64q9 42 35.5 64t77.5 22q84 0 115.5 -40.5t31.5 -120.5v-130z" />
    <glyph glyph-name="uni0E53" unicode="&#xe53;" horiz-adv-x="674" 
d="M462 524q51 0 83.5 -10t51.5 -30.5t26 -50.5t7 -70v-363h-162v336q0 26 -9 42.5t-35 16.5q-36 0 -45 -53h-71q-14 53 -50 53q-19 0 -30.5 -12t-17.5 -31.5t-7.5 -45t-1.5 -52.5q0 -67 27 -103t97 -37q19 0 35 3v-115q-20 -4 -41.5 -5t-40.5 -1q-54 0 -98 13.5t-75 43
t-48 76t-17 113.5q0 61 6.5 112.5t26 89t55 59t92.5 21.5q48 0 80 -22t42 -64q9 42 40.5 64t79.5 22z" />
    <glyph glyph-name="uni0E54" unicode="&#xe54;" horiz-adv-x="648" 
d="M311 401q-22 0 -42 -9.5t-35.5 -28t-24.5 -46t-9 -63.5q0 -66 33.5 -104t99.5 -38q7 0 26.5 1.5t33.5 7.5q-8 10 -13 25t-5 38q0 37 10.5 65.5t35.5 46.5t66.5 25.5t102.5 2.5v-98q-35 5 -58.5 -10t-23.5 -47q0 -17 7 -28.5t18 -18.5t25 -10t28 -3h44v-109h-44
q-76 0 -133 34q-21 -20 -56 -30t-82 -10q-63 0 -114 17t-87 50.5t-55 83t-19 113.5q0 65 19.5 114t54.5 82.5t84.5 50.5t110.5 17h86q57 0 85.5 22t26.5 79h123q6 -55 -8.5 -97t-41.5 -69.5t-63 -41.5t-72 -14h-134z" />
    <glyph glyph-name="uni0E55" unicode="&#xe55;" horiz-adv-x="648" 
d="M630 0h-44q-76 0 -133 34q-21 -20 -56 -30t-82 -10q-63 0 -114 17t-87 50.5t-55 83t-19 113.5q0 94 41 155t110 85q-15 24 -15 57q0 53 34 84.5t97 31.5t96 -31t33 -81q0 -21 -9 -36h13q34 0 51 29t16 71h123q6 -55 -8.5 -97t-41.5 -69.5t-63 -41.5t-72 -14h-134
q-22 0 -42 -9.5t-35.5 -28t-24.5 -46t-9 -63.5q0 -66 33.5 -104t99.5 -38q7 0 26.5 1.5t33.5 7.5q-9 10 -13.5 25t-4.5 38q0 37 10.5 65.5t35.5 46.5t66.5 25.5t102.5 2.5v-98q-35 5 -58.5 -10t-23.5 -47q0 -17 7 -28.5t18 -18.5t25 -10t28 -3h44v-109zM306 517
q19 0 31 10.5t12 30.5q0 19 -12 29.5t-31 10.5t-30.5 -10.5t-11.5 -29.5q0 -20 11.5 -30.5t30.5 -10.5z" />
    <glyph glyph-name="uni0E56" unicode="&#xe56;" horiz-adv-x="684" 
d="M325 232q-47 7 -71 -4.5t-24 -46.5q0 -19 10 -32t26 -20.5t36.5 -11t41.5 -3.5q31 0 57.5 7.5t45.5 24t30 43t11 63.5q0 78 -42.5 116.5t-113.5 39.5q-26 1 -58.5 -5.5t-55.5 -20.5h-114l-126 246h144l74 -153q23 22 63.5 35.5t96.5 13.5q82 0 137.5 -19.5t89 -54.5
t48 -82.5t14.5 -103.5q0 -73 -22 -125t-62.5 -84.5t-97 -47.5t-124.5 -15q-55 0 -103 9.5t-84 32t-56.5 59.5t-20.5 92q0 44 12.5 72.5t34 45.5t51 24t63.5 7q21 0 43.5 -2.5t45.5 -5.5v-94z" />
    <glyph glyph-name="uni0E57" unicode="&#xe57;" horiz-adv-x="896" 
d="M852 175q0 -49 -18.5 -83t-47.5 -55.5t-64.5 -31t-69.5 -9.5q-33 0 -68.5 9.5t-64 31t-47 55.5t-18.5 83v161q0 26 -8 42.5t-34 16.5q-35 0 -45 -53h-61q-14 53 -49 53q-19 0 -30.5 -12t-17 -31.5t-7 -45t-1.5 -52.5q0 -66 26.5 -102.5t96.5 -37.5q8 0 18 0.5t18 2.5
v-115q-20 -4 -41.5 -5t-40.5 -1q-54 0 -98 13.5t-75 43t-48 76t-17 113.5q0 61 6.5 112.5t25.5 89t54 59t92 21.5q44 0 75.5 -22t41.5 -64q10 42 41.5 64t74.5 22q51 0 81 -10t46 -30.5t21 -50.5t5 -70v-200q0 -24 13 -37.5t35 -13.5q23 0 35.5 14t12.5 37v519h152v-507z
" />
    <glyph glyph-name="uni0E58" unicode="&#xe58;" horiz-adv-x="635" 
d="M252 118q18 0 31 16.5t16 42.5h71q11 -59 48 -59q17 0 27.5 5.5t16.5 14t8 18t2 18.5v21q0 11 -2.5 20.5t-10 16.5t-20.5 11.5t-35 5.5q-11 0 -20 -0.5t-23 -2.5v94q10 2 22.5 3t20.5 1q112 10 163 -30t51 -128v-18q0 -30 -7.5 -61t-26 -55.5t-49.5 -40t-77 -15.5
q-49 0 -81 21.5t-41 63.5q-10 -42 -41.5 -63.5t-79.5 -21.5q-53 0 -88.5 21.5t-57 57.5t-30.5 83.5t-9 98.5q0 133 70.5 199t194.5 66h103q57 0 85.5 22t26.5 79h125q6 -55 -8.5 -97t-41.5 -69.5t-63 -41.5t-72 -14h-153q-54 0 -80.5 -40t-26.5 -104q0 -24 2.5 -49t9 -45
t19 -32.5t31.5 -12.5z" />
    <glyph glyph-name="uni0E59" unicode="&#xe59;" horiz-adv-x="756" 
d="M563 352q0 17 -10 32.5t-42 15.5q-21 0 -33.5 -16.5t-7.5 -37.5l155 -346h-151l-154 342q-13 26 -24.5 42t-34.5 16q-19 0 -30.5 -12.5t-17.5 -33t-7.5 -47t-1.5 -53.5q0 -31 4.5 -55.5t16 -42.5t30.5 -28t48 -12q10 -2 23 -1.5t26 2.5v-115q-13 -2 -28 -4t-29 -2
q-56 -3 -102.5 9t-80 41t-52 77.5t-18.5 118.5q0 61 8 112.5t29 89t58 59t95 21.5q52 0 88.5 -22.5t56.5 -64.5q6 24 18 40.5t28 27t34 15t36 4.5q35 0 63 -15t42 -42l55 127h127l-110 -242h-107z" />
    <glyph glyph-name="uni0E5A" unicode="&#xe5a;" horiz-adv-x="857" 
d="M557 577v-577h-161v331q-16 -57 -59 -88t-112 -31q-42 0 -78 12t-62.5 35t-42 58.5t-15.5 81.5q0 50 17 84t45.5 55t66.5 30.5t79 9.5h52v-112h-37q-26 0 -42.5 -17.5t-16.5 -46.5q0 -35 21.5 -52t59.5 -17q29 0 52 10t39 28t24.5 42.5t8.5 52.5v111h161zM797 577v-577
h-159v577h159z" />
    <glyph glyph-name="uni0E5B" unicode="&#xe5b;" horiz-adv-x="892" 
d="M275 292q0 24 -2.5 46.5t-9.5 40.5t-20 28.5t-35 10.5q-27 0 -43.5 -12.5t-25.5 -31t-12 -41t-3 -43.5q0 -43 11.5 -73.5t31 -50t44 -28t49.5 -8.5q35 0 60.5 16t43.5 42.5t29.5 61.5t17.5 73t8.5 76.5t2.5 72.5h86l47 -214l36 176h86q0 -24 2 -45.5t9 -38t21 -26.5
t39 -10h103v-76h-103q-13 0 -28 1.5t-30.5 7.5t-29.5 18t-25 34l-38 -195h-75l-43 195q-6 -49 -21.5 -93t-41.5 -77.5t-65 -53t-92 -19.5q-47 0 -87 16t-69 46.5t-45.5 75.5t-16.5 102q0 37 7.5 73t26.5 64t51 45t81 17q46 0 75.5 -16.5t46 -44.5t22.5 -65t6 -77h-82z" />
    <glyph glyph-name="endash" unicode="&#x2013;" horiz-adv-x="490" 
d="M450 254h-410v125h410v-125z" />
    <glyph glyph-name="emdash" unicode="&#x2014;" horiz-adv-x="712" 
d="M672 254h-632v125h632v-125z" />
    <glyph glyph-name="quoteleft" unicode="&#x2018;" horiz-adv-x="297" 
d="M277 700l-110 -257h-163l135 257h138z" />
    <glyph glyph-name="quoteright" unicode="&#x2019;" horiz-adv-x="296" 
d="M19 443l110 257h164l-134 -257h-140z" />
    <glyph glyph-name="quotesinglbase" unicode="&#x201a;" horiz-adv-x="221" 
d="M-8 -123l54 237h156l-79 -237h-131z" />
    <glyph glyph-name="quotedblleft" unicode="&#x201c;" horiz-adv-x="493" 
d="M267 700l-110 -257h-153l135 257h128zM474 700l-110 -257h-152l135 257h127z" />
    <glyph glyph-name="quotedblright" unicode="&#x201d;" horiz-adv-x="493" 
d="M227 443l110 257h153l-135 -257h-128zM19 443l110 257h153l-135 -257h-128z" />
    <glyph glyph-name="quotedblbase" unicode="&#x201e;" horiz-adv-x="413" 
d="M-8 -123l54 237h144l-77 -237h-121zM195 -123l55 237h144l-78 -237h-121z" />
    <glyph glyph-name="dagger" unicode="&#x2020;" horiz-adv-x="544" 
d="M192 530v170h162v-170h142v-117h-142v-413h-162v413h-144v117h144z" />
    <glyph glyph-name="daggerdbl" unicode="&#x2021;" horiz-adv-x="544" 
d="M192 530v170h162v-170h142v-117h-142v-126h142v-117h-142v-170h-162v170h-144v117h144v126h-144v117h144z" />
    <glyph glyph-name="bullet" unicode="&#x2022;" horiz-adv-x="444" 
d="M224 159q-32 0 -61 12.5t-51 34t-35 50.5t-13 61q0 33 13 61.5t35 50t51 33.5t61 12t60 -12t49 -33.5t33.5 -50t12.5 -61.5q0 -31 -12.5 -59.5t-33.5 -50.5t-49 -35t-60 -13z" />
    <glyph glyph-name="ellipsis" unicode="&#x2026;" horiz-adv-x="709" 
d="M19 88q0 38 25 64t71 26q45 0 70 -26t25 -64q0 -37 -25 -62.5t-70 -25.5q-46 0 -71 25.5t-25 62.5zM260 88q0 38 25 64t70 26t70 -26t25 -64q0 -37 -25 -62.5t-70 -25.5t-70 25.5t-25 62.5zM499 88q0 38 25 64t71 26q45 0 69.5 -26t24.5 -64q0 -37 -24.5 -62.5
t-69.5 -25.5q-46 0 -71 25.5t-25 62.5z" />
    <glyph glyph-name="perthousand" unicode="&#x2030;" horiz-adv-x="1094" 
d="M26 548q0 37 12.5 66.5t33.5 50.5t49.5 32t60.5 11t60 -11t49 -32t33.5 -50.5t12.5 -66.5q0 -36 -12.5 -65.5t-33.5 -50t-49 -31.5t-60 -11t-60.5 11t-49.5 31.5t-33.5 50t-12.5 65.5zM653 700l-414 -700h-136l413 700h137zM126 548q0 -32 15 -49.5t41 -17.5
q24 0 39 17.5t15 49.5t-15 49.5t-39 17.5q-26 0 -41 -17.5t-15 -49.5zM418 150q0 37 12.5 66.5t33.5 50.5t49 32t59 11q32 0 60.5 -11t49.5 -32t33.5 -50.5t12.5 -66.5q0 -36 -12.5 -65t-33.5 -49.5t-49.5 -31.5t-60.5 -11q-31 0 -59 11t-49 31.5t-33.5 49.5t-12.5 65z
M757 150q0 37 12.5 66.5t33.5 50.5t49 32t59 11q32 0 60.5 -11t49.5 -32t33.5 -50.5t12.5 -66.5q0 -36 -12.5 -65t-33.5 -49.5t-49.5 -31.5t-60.5 -11q-31 0 -59 11t-49 31.5t-33.5 49.5t-12.5 65zM517 150q0 -30 14.5 -48.5t40.5 -18.5q25 0 40 18.5t15 48.5q0 32 -15 50
t-40 18q-26 0 -40.5 -18t-14.5 -50zM856 150q0 -30 14.5 -48.5t40.5 -18.5q25 0 40.5 18.5t15.5 48.5q0 32 -15.5 50t-40.5 18q-26 0 -40.5 -18t-14.5 -50z" />
    <glyph glyph-name="guilsinglleft" unicode="&#x2039;" horiz-adv-x="541" 
d="M46 274v86l450 273v-153l-284 -162v-1l284 -162v-152z" />
    <glyph glyph-name="guilsinglright" unicode="&#x203a;" horiz-adv-x="541" 
d="M496 274l-450 -271v152l283 162v1l-283 162v153l450 -273v-86z" />
    <glyph glyph-name="fraction" unicode="&#x2044;" horiz-adv-x="435" 
d="M426 700l-258 -700h-165l259 700h164z" />
    <glyph glyph-name="Euro" unicode="&#x20ac;" horiz-adv-x="760" 
d="M259 386q-3 -35 0 -70h196v-99h-167q38 -92 139 -92q57 0 94 27.5t51 81.5h164q-7 -55 -32.5 -100t-66 -76.5t-94 -48.5t-116.5 -17q-123 0 -205 58t-113 167h-85v99h69q-6 35 0 70h-69v99h85q32 108 113.5 165.5t204.5 57.5q61 0 114 -17.5t94 -49.5t67 -77t33 -101
h-165q-13 54 -50.5 84t-92.5 30q-101 0 -139 -92h167v-99h-196z" />
    <glyph glyph-name="trademark" unicode="&#x2122;" horiz-adv-x="959" 
d="M383 619h-121v-338h-104v338h-121v81h346v-81zM818 545h-3l-111 -264h-51l-112 264h-4v-264h-104v419h135l109 -277h1l110 277h135v-419h-105v264z" />
    <glyph glyph-name="minus" unicode="&#x2212;" horiz-adv-x="490" 
d="M450 254h-410v125h410v-125z" />
    <glyph glyph-name="uni25CC" unicode="&#x25cc;" horiz-adv-x="574" 
d="M255 503q2 14 13.5 23.5t26.5 7.5q14 -3 23 -15t7 -26q-3 -15 -15 -23.5t-27 -6.5t-23 14t-5 26zM384 450q2 15 13.5 24t26.5 6q15 -2 24 -14.5t6 -27.5q-2 -15 -14.5 -23t-27.5 -5q-14 3 -22 14t-6 26zM124 450q2 15 14 24t26 6q15 -2 24 -14.5t6 -27.5
q-2 -15 -14.5 -23t-26.5 -5t-22.5 14t-6.5 26zM435 321q3 14 15 23t26 7t23 -14.5t7 -26.5q-2 -15 -14.5 -23.5t-26.5 -6.5q-15 3 -23.5 15t-6.5 26zM68 321q3 14 15 23t26 7q15 -2 23.5 -14.5t5.5 -26.5q-2 -15 -14 -23.5t-26 -6.5q-14 3 -23 15t-7 26zM384 195
q2 14 13.5 23t26.5 6q15 -2 24 -14t6 -26q-2 -14 -14.5 -23t-27.5 -7q-14 3 -22 15t-6 26zM124 195q2 14 14 23t26 6q15 -2 24 -14t6 -26q-2 -14 -14.5 -23t-26.5 -7q-14 3 -22.5 15t-6.5 26zM255 137q2 14 13.5 23t26.5 7q14 -3 23 -15t7 -27q-3 -15 -15 -23t-27 -5
q-15 2 -23 13.5t-5 26.5z" />
    <glyph glyph-name="uni0E10.descless" horiz-adv-x="582" 
d="M614 620l-113 -136q50 -53 50 -124q0 -38 -11.5 -75.5t-32.5 -80.5t-50.5 -92.5t-65.5 -111.5h-181l-96 201q-4 15 -23 15h-57v94h134q23 0 36 -10t21 -27l71 -161h10q16 30 31.5 61.5t28 62t20 58.5t7.5 52q0 54 -32.5 79.5t-79.5 25.5q-35 0 -66 -16t-41 -57h-153
q6 48 29 85.5t58 64t81 40t97 13.5q70 0 122 -26l55 65h151z" />
    <glyph glyph-name="uni0E0D.descless" horiz-adv-x="953" 
d="M38 141q0 32 12 57t32.5 44.5t47 32.5t55.5 20l-154 25v9q0 127 69 189.5t194 62.5q137 0 205.5 -63t68.5 -172v-106q0 -34 6.5 -57t18.5 -36.5t28.5 -19t37.5 -5.5q42 0 67 25t25 93v337h162v-366q0 -102 -63.5 -160.5t-190.5 -58.5q-126 0 -189.5 58t-63.5 161v119
q0 56 -25.5 90t-86.5 34q-51 0 -81 -25t-35 -73l114 -24v-39q-16 -7 -32.5 -18t-29 -25t-20.5 -31t-8 -37q0 -33 20.5 -52t53.5 -19h27v-111h-76q-34 0 -68 6.5t-61 22.5t-43.5 43t-16.5 69z" />
    <glyph glyph-name="uni0E48.nikhahit" 
d="M-49 915h-137v190h137v-190zM-159 876q54 0 90 -31.5t36 -86.5q0 -53 -36 -83.5t-90 -30.5t-89.5 29.5t-35.5 84.5q0 57 35.5 87.5t89.5 30.5zM-159 717q18 0 30.5 12.5t12.5 28.5q0 20 -12.5 31t-30.5 11q-17 0 -29.5 -11t-12.5 -31q0 -16 12.5 -28.5t29.5 -12.5z" />
    <glyph glyph-name="uni0E49.nikhahit" 
d="M10 1000v-85h-192q-27 0 -44 5.5t-26 15t-12 21.5t-3 25q0 20 -7.5 28t-24.5 8h-61v83h117q28 0 46.5 -11t18.5 -49q0 -29 11.5 -35t32.5 -6h144zM-159 876q54 0 90 -31.5t36 -86.5q0 -53 -36 -83.5t-90 -30.5t-89.5 29.5t-35.5 84.5q0 57 35.5 87.5t89.5 30.5zM-159 717
q18 0 30.5 12.5t12.5 28.5q0 20 -12.5 31t-30.5 11q-17 0 -29.5 -11t-12.5 -31q0 -16 12.5 -28.5t29.5 -12.5z" />
    <glyph glyph-name="uni0E4A.nikhahit" 
d="M-385 1008q0 20 5 39t16 33.5t29 23t45 8.5q23 0 44.5 -9.5t32.5 -35.5q12 26 32.5 35.5t42.5 9.5q49 0 69 -28t20 -74v-41q30 0 30 38v116h89v-118q0 -45 -26 -71.5t-85 -26.5h-99v98q0 29 -25 29q-11 0 -18.5 -6t-7.5 -22h-43q0 16 -8 22t-17 6q-26 0 -26 -32
q0 -15 8 -24t33 -9h24v-62h-52q-47 0 -80 23t-33 78zM-159 876q54 0 90 -31.5t36 -86.5q0 -53 -36 -83.5t-90 -30.5t-89.5 29.5t-35.5 84.5q0 57 35.5 87.5t89.5 30.5zM-159 717q18 0 30.5 12.5t12.5 28.5q0 20 -12.5 31t-30.5 11q-17 0 -29.5 -11t-12.5 -31
q0 -16 12.5 -28.5t29.5 -12.5z" />
    <glyph glyph-name="uni0E4B.nikhahit" 
d="M34 984h-88v-69h-121v69h-88v76h88v69h121v-69h88v-76zM-159 876q54 0 90 -31.5t36 -86.5q0 -53 -36 -83.5t-90 -30.5t-89.5 29.5t-35.5 84.5q0 57 35.5 87.5t89.5 30.5zM-159 717q18 0 30.5 12.5t12.5 28.5q0 20 -12.5 31t-30.5 11q-17 0 -29.5 -11t-12.5 -31
q0 -16 12.5 -28.5t29.5 -12.5z" />
    <glyph glyph-name="uni0E31.upleft" 
d="M-40 753v-94h-217q-56 0 -89 12t-50.5 32.5t-23 47t-5.5 56.5v18h136v-18q0 -35 16.5 -45t60.5 -9h172z" />
    <glyph glyph-name="uni0E34.upleft" 
d="M-40 659h-409v94h409v-94z" />
    <glyph glyph-name="uni0E35.upleft" 
d="M-449 753h267v83h142v-177h-409v94z" />
    <glyph glyph-name="uni0E36.upleft" 
d="M-135 846q48 0 74.5 -23t26.5 -71q0 -47 -26.5 -70t-74.5 -23h-314v94h219q-4 4 -4 10q0 35 23 59t76 24zM-167 752q0 -14 8.5 -23t23.5 -9t23.5 9t8.5 23q0 32 -32 32t-32 -32z" />
    <glyph glyph-name="uni0E37.upleft" 
d="M-449 753h161v78h95v-78h57v78h96v-172h-409v94z" />
    <glyph glyph-name="uni0E48.upleft" 
d="M-189 880v227h140v-227h-140z" />
    <glyph glyph-name="uni0E49.upleft" 
d="M-40 973v-93h-179q-29 0 -47 6t-28 16t-13.5 23t-3.5 27q0 40 -36 40h-53v91h117q15 0 28 -2.5t22 -9.5t14.5 -20t5.5 -33q0 -32 12.5 -38.5t35.5 -6.5h125z" />
    <glyph glyph-name="uni0E4A.upleft" 
d="M-451 992q0 23 5 43.5t16.5 37t28.5 26t41 9.5q25 0 47 -11t36 -37q14 26 35 37t45 11q43 0 62 -26t19 -73v-62q33 0 33 41v133h90v-134q0 -48 -24.5 -77.5t-89.5 -29.5h-93v109q0 33 -26 33t-26 -32h-48q0 17 -8 24.5t-18 7.5q-15 0 -22 -10t-7 -27q0 -16 9 -27t36 -11
h26v-67h-42q-26 0 -48.5 7t-39.5 21t-27 35t-10 49z" />
    <glyph glyph-name="uni0E4B.upleft" 
d="M31 993h-95v-76h-121v76h-95v76h95v74h121v-74h95v-76z" />
    <glyph glyph-name="uni0E47.upleft" 
d="M-157 793q1 -26 19 -41t39 -15h53v-94h-27q-35 0 -66 15.5t-45 44.5q-13 -29 -39.5 -44.5t-61.5 -15.5q-57 0 -92 36.5t-35 99.5q0 64 39.5 101.5t120.5 37.5h231v-94h-226q-20 0 -36 -9t-16 -32t14.5 -32t26.5 -9q17 0 32 12.5t15 38.5h54z" />
    <glyph glyph-name="uni0E48.up2" 
d="M-186 880v191h137v-191h-137z" />
    <glyph glyph-name="uni0E49.up2" 
d="M-3 964v-84h-192q-27 0 -43.5 5.5t-26 14.5t-12.5 21t-3 25q0 38 -31 38h-61v83h117q29 0 47 -12t18 -49q0 -30 11 -36t33 -6h143z" />
    <glyph glyph-name="uni0E4A.up2" 
d="M-489 978q0 20 5 39t16.5 33.5t29.5 23t45 8.5q23 0 44 -9.5t34 -35.5q12 26 32 35.5t43 9.5q49 0 68.5 -28t19.5 -74v-41q17 0 23.5 9t6.5 29v116h89v-118q0 -45 -26 -71.5t-86 -26.5h-98v98q0 29 -26 29q-9 0 -16.5 -6t-7.5 -22h-45q0 16 -7.5 22t-16.5 6
q-26 0 -26 -32q0 -15 8.5 -24t32.5 -9h25v-62h-52q-48 0 -81.5 23t-33.5 78z" />
    <glyph glyph-name="uni0E4B.up2" 
d="M34 948h-88v-68h-121v68h-88v77h88v68h121v-68h88v-77z" />
    <glyph glyph-name="uni0E4C.upleft" 
d="M-40 932q-44 1 -60.5 -9.5t-16.5 -45.5v-17h-135v17q0 30 5 57t22.5 47.5t50.5 32.5t89 12h163v-94h-118z" />
    <glyph glyph-name="uni0E4C.up2" 
d="M-110 881q-41 1 -56 -8t-15 -42v-16h-124v16q0 27 5 52t21 43.5t46.5 30t81.5 11.5h150v-87h-109z" />
    </font>
</defs>
</svg>
