<?xml version="1.0" standalone="no"?>
<!DOCTYPE svg PUBLIC "-//W3C//DTD SVG 1.1//EN" "http://www.w3.org/Graphics/SVG/1.1/DTD/svg11.dtd" >
<svg xmlns="http://www.w3.org/2000/svg" xmlns:xlink="http://www.w3.org/1999/xlink" version="1.1">
<metadata>
Created by FontForge 20170731 at Sat Jul 24 06:22:43 2021
 By Aleksey,,,
Copyright (c) 2021 by Fontcraft: Jutipong Poosumas. All rights reserved.
</metadata>
<defs>
<font id="FCSubject-Black" horiz-adv-x="0" >
  <font-face 
    font-family="FC Subject Black"
    font-weight="900"
    font-stretch="normal"
    units-per-em="1000"
    panose-1="0 0 0 0 0 0 0 0 0 0"
    ascent="800"
    descent="-200"
    x-height="521"
    cap-height="700"
    bbox="-572 -293 1098 1170"
    underline-thickness="50"
    underline-position="-175"
    unicode-range="U+000A-FB02"
  />
<missing-glyph horiz-adv-x="600" 
 />
    <glyph glyph-name="fi" unicode="fi" horiz-adv-x="664" 
d="M413 654q0 42 28.5 71.5t81.5 29.5q51 0 79 -29.5t28 -71.5t-28 -71t-79 -29q-53 0 -81.5 29t-28.5 71zM379 559q-48 5 -69 -1t-21 -37v-16h79v-130h-79v-375h-200v375h-78v130h78v22q0 49 14.5 83t40.5 55.5t61.5 31t77.5 9.5q23 0 47 -2.5t49 -7.5v-137zM422 521h200
v-521h-200v521z" />
    <glyph glyph-name="fl" unicode="fl" horiz-adv-x="718" 
d="M379 559q-48 5 -69 -1t-21 -37v-16h79v-130h-79v-375h-200v375h-78v130h78v22q0 49 14.5 83t40.5 55.5t61.5 31t77.5 9.5q23 0 47 -2.5t49 -7.5v-137zM416 700h202v-506q0 -27 15.5 -39t51.5 -12q5 0 10.5 0.5t11.5 1.5v-137q-25 -5 -49 -7.5t-47 -2.5q-42 0 -77.5 9.5
t-61.5 31t-41 55.5t-15 83v523z" />
    <glyph glyph-name="ru.lakyao" unicode="&#xe24;&#xe32;" horiz-adv-x="946" 
d="M28 140q0 30 12.5 54t33.5 41.5t48.5 29t57.5 15.5l-158 25v11q0 135 73.5 200t203.5 65q65 0 116.5 -13.5t89.5 -39.5q17 13 42 23t51 16.5t50.5 10t41.5 3.5q44 0 84.5 -8.5t72 -28t50.5 -51t19 -78.5v-615h-202v547q0 13 -3 26.5t-11.5 25t-23.5 19t-38 7.5
q-14 0 -27 -0.5t-26 -1.5q13 -36 13 -82v-541h-202v519q0 45 -23.5 74.5t-73.5 29.5q-38 0 -63.5 -20t-30.5 -58l102 -22v-45q-32 -17 -52 -36.5t-20 -47.5q0 -23 14 -40t39 -17h26v-137h-88q-34 0 -69.5 6t-64 21.5t-46.5 43t-18 69.5z" />
    <glyph glyph-name="lu.lakyao" unicode="&#xe26;&#xe32;" horiz-adv-x="950" 
d="M26 316q0 135 73.5 200t203.5 65q65 0 116.5 -13.5t89.5 -39.5q17 13 42 23t51 16.5t50.5 10t41.5 3.5q44 0 84.5 -8.5t72 -28t50.5 -51t19 -78.5v-615h-202v547q0 13 -3 26.5t-11.5 25t-23.5 19t-38 7.5q-14 0 -27 -0.5t-26 -1.5q13 -36 13 -82v-541h-202v519
q0 45 -23.5 74.5t-73.5 29.5q-38 0 -63.5 -20t-30.5 -58l107 -22v-45q-29 -13 -40.5 -36.5t-11.5 -59.5v-38q0 -75 -41 -109.5t-126 -34.5h-82v138h21q38 0 38 45v6q0 38 27.5 62t87.5 29l-163 25v11z" />
    <glyph glyph-name="Fontcraft" unicode="FontcraftLogo" horiz-adv-x="790" 
d="M396 709q69 0 129 -26t105 -71t71 -105.5t26 -129.5t-26 -129.5t-71 -105.5t-105 -71t-129 -26t-129.5 26t-106 71t-71.5 105.5t-26 129.5t26 129.5t71.5 105.5t106 71t129.5 26zM396 104q57 0 106.5 22t86 59t58 87t21.5 105q0 57 -21.5 107t-59 87t-86.5 58t-105 21
q-57 0 -106.5 -21.5t-87 -58.5t-59 -87t-21.5 -106q0 -57 21.5 -106.5t59 -86.5t87 -58.5t106.5 -21.5zM581 500q17 -27 26.5 -57.5t9.5 -65.5q0 -46 -17.5 -87t-48 -71t-70.5 -47.5t-85 -17.5q-47 0 -88 17.5t-71.5 47.5t-48 71t-17.5 87q0 47 17.5 87.5t48 70.5t71.5 47
t88 17q40 0 78 -14t67 -39l-40 -180q-7 -29 -16.5 -40.5t-29.5 -11.5q-17 0 -27 8t-7 28l16 76q1 8 -4 15.5t-20 7.5q-20 0 -25 -20l-16 -73q-3 -15 -14 -30.5t-36 -15.5q-13 0 -20.5 9.5t-2.5 34.5l13 65q3 20 -9.5 26.5t-32.5 6.5q-26 0 -34 -8t-8 -18q0 -11 5.5 -19
t15.5 -8h7l-7 -37q-4 -20 -2.5 -38t10 -32t25 -22t40.5 -8q18 0 36.5 8t29.5 31q3 -11 10 -18.5t17 -12t20.5 -6.5t19.5 -2q22 0 37.5 7.5t26 19t17 26t9.5 29.5zM200 -26l-9 -52q-3 -14 -12 -20.5t-21 -6.5t-18.5 6.5t-4.5 20.5l9 52q7 28 33 28q12 0 18.5 -7.5t4.5 -20.5z
M400 -79l1 7h20l-1 -6q-2 -14 -11 -20.5t-21 -6.5t-18.5 6.5t-4.5 20.5l9 52q7 28 33 28q11 0 17.5 -6.5t4.5 -19.5q0 -2 -2 -8l-20 -1q1 3 1 7q2 10 -4 10q-5 0 -6 -2.5t-2 -7.5l-11 -53q0 -3 1.5 -6t4.5 -3q5 0 6.5 3t2.5 6zM79 0h50l-4 -17h-29l-4 -26h24l-4 -16h-23
l-9 -45h-20zM264 0h21l-18 -104h-21l-6 67l-12 -67h-18l17 104h23l3 -53v-13h1q0 5 1 8.5t2 8.5zM305 0h55l-3 -17h-18l-14 -87h-22l16 87h-17zM504 -29v-3q-4 -16 -16 -21l3 -51h-22v47h-4l-8 -47h-20l18 104h28q12 0 18 -6t3 -23zM545 0h25l3 -104h-23l1 23h-16l-7 -23
h-20zM609 0h50l-3 -17h-30l-4 -26h24l-3 -16h-24l-9 -45h-20zM675 0h55l-3 -17h-16l-16 -87h-22l16 87h-17zM169 -79l11 53q0 10 -6 10q-7 0 -9 -10l-10 -53q0 -3 1.5 -6t4.5 -3q5 0 6.5 3t1.5 6zM472 -16l-4 -26h5q5 0 7 3.5t3 6.5l2 5q0 5 -1 8t-6 3h-6zM542 -62h9l1 30z
" />
    <glyph glyph-name=".notdef" horiz-adv-x="600" 
 />
    <glyph glyph-name=".null" 
 />
    <glyph glyph-name=".null" 
 />
    <glyph glyph-name="uni000D" unicode="&#xd;" horiz-adv-x="250" 
 />
    <glyph glyph-name="uni000A" unicode="&#xa;" horiz-adv-x="300" 
 />
    <glyph glyph-name="space" unicode=" " horiz-adv-x="300" 
 />
    <glyph glyph-name="exclam" unicode="!" horiz-adv-x="316" 
d="M56 467v233h203v-233l-13 -208h-176zM158 211q55 0 84.5 -30.5t29.5 -75.5t-29.5 -75t-84.5 -30t-84.5 30t-29.5 75t29.5 75.5t84.5 30.5z" />
    <glyph glyph-name="quotedbl" unicode="&#x22;" horiz-adv-x="442" 
d="M30 700h165l-11 -270h-143zM247 700h165l-11 -270h-143z" />
    <glyph glyph-name="numbersign" unicode="#" horiz-adv-x="703" 
d="M100 166h-90v116h114l26 126h-95v116h120l36 176h177l-37 -176h82l36 176h176l-36 -176h84v-116h-109l-26 -126h90v-116h-113l-34 -166h-176l34 166h-82l-34 -166h-178zM382 282l26 126h-82l-26 -126h82z" />
    <glyph glyph-name="dollar" unicode="$" horiz-adv-x="644" 
d="M217 224q5 -33 30.5 -53t70.5 -20q94 0 94 55q0 12 -4.5 20.5t-16 14.5t-31 11t-49.5 11l-69 14q-106 20 -162.5 72t-56.5 134q0 43 14.5 79t41.5 63.5t64.5 46.5t83.5 28v98h174v-98q100 -19 152.5 -77.5t53.5 -144.5h-198q-1 32 -25.5 52t-66.5 20q-44 0 -64.5 -14.5
t-20.5 -37.5t22 -37.5t76 -23.5l70 -13q114 -20 169.5 -67.5t55.5 -132.5q0 -92 -59 -150.5t-165 -74.5v-103h-174v104q-98 17 -153 75t-55 149h198z" />
    <glyph glyph-name="percent" unicode="%" horiz-adv-x="776" 
d="M19 547q0 38 13.5 67.5t36 50.5t51.5 32t61 11t61.5 -11t52 -32t36 -50.5t13.5 -67.5q0 -37 -13.5 -66.5t-36 -50t-52 -31.5t-61.5 -11t-61 11t-51.5 31.5t-36 50t-13.5 66.5zM680 700l-414 -700h-168l414 700h168zM141 547q0 -23 10.5 -36t29.5 -13q18 0 29 13t11 36
t-11 36t-29 13q-19 0 -29.5 -13t-10.5 -36zM433 151q0 38 13 67.5t35.5 50.5t52 32t61.5 11t61.5 -11t52 -32t35.5 -50.5t13 -67.5q0 -37 -13 -66.5t-35.5 -50t-52 -31.5t-61.5 -11t-61.5 11t-52 31.5t-35.5 50t-13 66.5zM554 151q0 -23 10.5 -36t30.5 -13q17 0 28 13t11 36
t-11 36.5t-28 13.5q-20 0 -30.5 -13.5t-10.5 -36.5z" />
    <glyph glyph-name="ampersand" unicode="&#x26;" horiz-adv-x="714" 
d="M270 -8q-119 0 -179.5 49t-60.5 140q0 59 28.5 106t80.5 73l30 15q-24 24 -38.5 45.5t-23 41t-11 39t-2.5 38.5q0 37 14 68t41 53.5t67 35t92 12.5q53 0 92.5 -13.5t66 -37.5t39.5 -56t13 -69q0 -54 -27.5 -99t-93.5 -82l75 -85q7 9 12.5 30t7.5 37h161q-1 -23 -6 -49.5
t-12.5 -53t-18 -49.5t-23.5 -38l140 -143h-207l-47 46q-34 -27 -89 -40.5t-121 -13.5zM257 527q0 -19 9 -36t38 -43q30 15 42.5 35t12.5 44q0 53 -49 53q-53 0 -53 -53zM292 128q28 0 44.5 8.5t30.5 20.5l-104 112q-4 -2 -9 -3t-8 -3q-25 -16 -29 -37t-4 -38q0 -9 4.5 -19.5
t14 -19.5t24.5 -15t36 -6z" />
    <glyph glyph-name="quotesingle" unicode="'" horiz-adv-x="225" 
d="M30 700h165l-11 -270h-143z" />
    <glyph glyph-name="parenleft" unicode="(" horiz-adv-x="363" 
d="M363 740q-27 -39 -48.5 -87t-37 -101.5t-23.5 -110t-8 -112.5t8 -113t23.5 -110.5t37 -101.5t48.5 -86h-179q-60 82 -93.5 187t-33.5 224q0 118 33.5 222.5t93.5 188.5h179z" />
    <glyph glyph-name="parenright" unicode=")" horiz-adv-x="363" 
d="M179 740q60 -84 93.5 -188.5t33.5 -222.5q0 -119 -33.5 -224t-93.5 -187h-179q27 38 48.5 86t37 101.5t23.5 110.5t8 113t-8 112.5t-23.5 110t-37 101.5t-48.5 87h179z" />
    <glyph glyph-name="asterisk" unicode="*" horiz-adv-x="391" 
d="M285 497l62 -78l-97 -71l-55 83l-54 -83l-97 71l61 78l-95 26l36 113l93 -34l-3 99h119l-4 -99l93 34l37 -113z" />
    <glyph glyph-name="plus" unicode="+" horiz-adv-x="596" 
d="M209 239h-175v155h175v149h179v-149h174v-155h-174v-149h-179v149z" />
    <glyph glyph-name="comma" unicode="," horiz-adv-x="244" 
d="M-14 -123l55 246h190l-81 -246h-164z" />
    <glyph glyph-name="hyphen" unicode="-" horiz-adv-x="495" 
d="M461 239h-427v155h427v-155z" />
    <glyph glyph-name="period" unicode="." horiz-adv-x="256" 
d="M128 0q-55 0 -84.5 31t-29.5 74t29.5 74.5t84.5 31.5t84.5 -31.5t29.5 -74.5t-29.5 -74t-84.5 -31z" />
    <glyph glyph-name="slash" unicode="/" horiz-adv-x="464" 
d="M461 700l-252 -700h-206l254 700h204z" />
    <glyph glyph-name="zero" unicode="0" horiz-adv-x="664" 
d="M332 -5q-72 0 -130.5 23t-99.5 68t-63.5 112t-22.5 154t22.5 153.5t64 111.5t99.5 67.5t130 22.5t130 -22.5t99.5 -67.5t64 -111.5t22.5 -153.5t-22.5 -154t-63.5 -112t-99.5 -68t-130.5 -23zM332 158q24 0 43 9.5t31.5 32t19.5 60t7 92.5t-7 92t-19.5 59t-31.5 31t-43 9
t-43 -9t-31.5 -31t-19.5 -59t-7 -92t7 -92.5t19.5 -60t31.5 -32t43 -9.5z" />
    <glyph glyph-name="one" unicode="1" horiz-adv-x="469" 
d="M222 700h152v-700h-206v529l-163 -56v147z" />
    <glyph glyph-name="two" unicode="2" horiz-adv-x="589" 
d="M314 160v-4h247v-156h-538v113q54 51 102 98l42 40t41 39t36.5 35.5t28.5 27.5q30 30 48.5 50.5t28.5 35.5t13.5 26t3.5 21q0 32 -17.5 50.5t-62.5 18.5q-27 0 -44 -9t-26.5 -24t-12.5 -33.5t-3 -38.5h-185q0 50 13.5 96.5t45 82.5t83.5 57.5t129 21.5q71 0 122.5 -16
t84.5 -43.5t49 -66t16 -83.5q0 -36 -5.5 -61.5t-19.5 -49.5t-39.5 -51.5t-66.5 -67.5z" />
    <glyph glyph-name="three" unicode="3" horiz-adv-x="633" 
d="M493 363q51 -16 84 -55.5t33 -111.5q0 -36 -15.5 -72t-50.5 -65.5t-92.5 -48t-141.5 -18.5q-72 0 -126 21.5t-90 57t-53.5 82.5t-17.5 98h190q0 -14 6 -31.5t18.5 -32.5t31 -25.5t43.5 -10.5q41 0 67 17t26 63q0 32 -25 44t-61 12h-60v135h58q34 0 57.5 18.5t23.5 47.5
q0 38 -23 54t-61 16q-47 0 -70.5 -32t-23.5 -76h-183q0 57 17.5 104.5t52.5 81.5t86.5 53t118.5 19q74 0 127 -15.5t88 -41t51.5 -58t16.5 -66.5q0 -36 -7.5 -62t-21 -44.5t-32 -31.5t-41.5 -23v-3z" />
    <glyph glyph-name="four" unicode="4" horiz-adv-x="622" 
d="M333 121h-328v131l350 448h176v-423h86v-156h-78v-121h-206v121zM345 446l-134 -174h134v174z" />
    <glyph glyph-name="five" unicode="5" horiz-adv-x="628" 
d="M214 251q0 -14 5 -31.5t17 -32.5t30.5 -25.5t45.5 -10.5q42 0 71 25t29 71q0 45 -25.5 71t-67.5 26q-38 0 -58.5 -8t-39.5 -25h-186l39 389h485v-156h-326l-16 -124h3q29 33 67.5 46t95.5 13q49 0 89.5 -17t70 -47t45.5 -71.5t16 -91.5q0 -53 -15 -100t-50.5 -82.5
t-93 -56.5t-141.5 -21q-72 0 -125 21.5t-87.5 57t-51.5 82.5t-17 98h191z" />
    <glyph glyph-name="six" unicode="6" horiz-adv-x="644" 
d="M400 479q51 0 92.5 -17t70.5 -47.5t45 -72t16 -90.5q0 -57 -22 -104.5t-61 -82t-92.5 -54t-116.5 -19.5q-78 0 -136.5 27t-97.5 76t-58.5 117.5t-19.5 151.5q0 86 24.5 150t67 107.5t100 65t122.5 21.5q57 0 106.5 -14.5t87 -40.5t61.5 -63.5t30 -84.5h-200
q-9 28 -30.5 38t-54.5 10q-65 0 -95 -44t-30 -115h2q30 48 73.5 66.5t115.5 18.5zM327 151q21 0 39 7.5t31.5 21t21 31t7.5 36.5q0 42 -28 69.5t-68 27.5q-21 0 -39 -7.5t-31.5 -20.5t-21 -30.5t-7.5 -38.5q0 -42 28 -69t68 -27z" />
    <glyph glyph-name="seven" unicode="7" horiz-adv-x="567" 
d="M559 700v-124l-219 -576h-230l221 544h-323v156h551z" />
    <glyph glyph-name="eight" unicode="8" horiz-adv-x="631" 
d="M317 -8q-85 0 -142 18.5t-91.5 48t-49 65.5t-14.5 72q0 72 33.5 111.5t85.5 55.5v3q-51 20 -74 61.5t-23 99.5q0 32 15.5 64t48.5 58t85.5 42.5t125.5 16.5q74 0 126 -16.5t85 -42.5t48 -58t15 -64q0 -58 -23.5 -99.5t-74.5 -61.5v-3q52 -16 85 -55.5t33 -111.5
q0 -36 -14 -72t-48 -65.5t-90.5 -48t-141.5 -18.5zM317 426q36 0 61.5 21.5t25.5 53.5t-25.5 54t-61.5 22t-61 -22t-25 -54t25 -53.5t61 -21.5zM317 139q20 0 38 7t31.5 19.5t21 28.5t7.5 34q0 35 -28.5 59.5t-69.5 24.5t-69 -24.5t-28 -59.5q0 -18 7.5 -34t20.5 -28.5
t31 -19.5t38 -7z" />
    <glyph glyph-name="nine" unicode="9" horiz-adv-x="644" 
d="M25 195h200q9 -28 30.5 -38t54.5 -10q65 0 95 44.5t30 114.5h-2q-29 -48 -72.5 -66.5t-114.5 -18.5q-52 0 -93.5 17t-71 47.5t-45.5 72.5t-16 91q0 57 22 104.5t61 82t92.5 53.5t116.5 19q78 0 136.5 -27t97.5 -76t58.5 -117.5t19.5 -151.5q0 -85 -24.5 -149.5t-67 -108
t-100 -65t-122.5 -21.5q-57 0 -106.5 14.5t-87 40.5t-61.5 64t-30 84zM315 356q21 0 39 7.5t31 21t20.5 31t7.5 37.5q0 42 -27.5 69t-68.5 27q-21 0 -39 -7.5t-31.5 -20.5t-21 -30.5t-7.5 -37.5q0 -42 28 -69.5t69 -27.5z" />
    <glyph glyph-name="colon" unicode=":" horiz-adv-x="324" 
d="M162 310q-55 0 -84.5 30t-29.5 75t29.5 75.5t84.5 30.5t84.5 -30.5t29.5 -75.5t-29.5 -75t-84.5 -30zM162 0q-55 0 -84.5 30t-29.5 75t29.5 75.5t84.5 30.5t84.5 -30.5t29.5 -75.5t-29.5 -75t-84.5 -30z" />
    <glyph glyph-name="semicolon" unicode=";" horiz-adv-x="323" 
d="M48 415q0 45 29.5 75.5t84.5 30.5t84.5 -30.5t29.5 -75.5t-29.5 -75t-84.5 -30t-84.5 30t-29.5 75zM29 -123l54 246h190l-81 -246h-163z" />
    <glyph glyph-name="less" unicode="&#x3c;" horiz-adv-x="532" 
d="M41 267v100l450 273v-191l-240 -131v-1l240 -131v-190z" />
    <glyph glyph-name="equal" unicode="=" horiz-adv-x="522" 
d="M34 497h454v-149h-454v149zM34 282h454v-148h-454v148z" />
    <glyph glyph-name="greater" unicode="&#x3e;" horiz-adv-x="532" 
d="M491 267l-450 -271v190l240 131v1l-240 131v191l450 -273v-100z" />
    <glyph glyph-name="question" unicode="?" horiz-adv-x="581" 
d="M30 473q3 47 18.5 89.5t46.5 75t78.5 51.5t113.5 19q71 0 121 -13.5t82 -39t46.5 -61.5t14.5 -81q0 -36 -11 -63.5t-27.5 -48.5t-35.5 -38t-35.5 -32t-27.5 -30.5t-11 -33.5v-8h-216v13q0 28 12.5 50.5t32 41t41.5 34.5t41.5 32t32 32.5t12.5 36.5q0 24 -15 40t-52 16
q-34 0 -52.5 -24.5t-23.5 -57.5h-186zM297 0q-55 0 -84.5 30t-29.5 75t29.5 75.5t84.5 30.5t84.5 -30.5t29.5 -75.5t-29.5 -75t-84.5 -30z" />
    <glyph glyph-name="at" unicode="@" horiz-adv-x="850" 
d="M549 -90q-31 -3 -58 -5t-52 -2q-93 0 -170.5 24.5t-134 72.5t-87.5 118.5t-31 162.5q0 87 31 158t86.5 121.5t132.5 78t168 27.5q76 0 148 -23t128 -67.5t90 -110.5t34 -153q0 -66 -14.5 -112t-39 -74.5t-57.5 -41t-71 -12.5q-17 0 -34.5 4.5t-34 12.5t-30 19.5
t-22.5 26.5h-2q-9 -15 -23 -25t-31 -16t-35 -9t-35 -3q-38 0 -72 10.5t-59.5 33.5t-40.5 59.5t-15 88.5q0 43 11.5 78.5t34.5 61.5t58 40.5t83 14.5q25 0 54.5 -9.5t46.5 -28.5h2v34h111v-238q0 -24 7.5 -31.5t13.5 -7.5q23 0 36 27.5t13 96.5q0 106 -68.5 166t-189.5 60
q-57 0 -106.5 -17.5t-86 -50.5t-57 -81t-20.5 -108q0 -124 75.5 -186t204.5 -62q21 0 47 1.5t61 6.5v-131zM422 199q29 0 47 18.5t18 60.5q0 41 -17 58t-48 17t-50 -19.5t-19 -59.5q0 -29 16.5 -52t52.5 -23z" />
    <glyph glyph-name="A" unicode="A" horiz-adv-x="710" 
d="M222 700h268l227 -700h-220l-34 128h-216l-34 -128h-220zM424 274l-67 251h-3l-67 -251h137z" />
    <glyph glyph-name="B" unicode="B" horiz-adv-x="671" 
d="M37 700h352q108 0 168 -43.5t60 -125.5q0 -31 -8.5 -59.5t-24.5 -51t-39.5 -38t-54.5 -19.5v-3q36 -1 65 -15t49.5 -37t32 -53t11.5 -65q0 -46 -17.5 -81.5t-49.5 -59.5t-78 -36.5t-102 -12.5h-364v700zM243 418h87q81 0 81 61q0 67 -78 67h-90v-128zM338 156q49 0 72 14
t23 52t-23.5 52t-69.5 14h-97v-132h95z" />
    <glyph glyph-name="C" unicode="C" horiz-adv-x="712" 
d="M23 351q0 86 24.5 152.5t69.5 112t109.5 69t144.5 23.5q65 0 121.5 -18t99 -52t70 -81.5t33.5 -106.5h-207q-11 47 -40.5 71.5t-76.5 24.5q-63 0 -100.5 -50.5t-37.5 -144.5q0 -96 36.5 -145.5t101.5 -49.5q93 0 119 95h206q-6 -59 -32.5 -107t-69 -81.5t-99.5 -52
t-124 -18.5q-81 0 -145.5 23.5t-109.5 69.5t-69 112.5t-24 153.5z" />
    <glyph glyph-name="D" unicode="D" horiz-adv-x="697" 
d="M37 700h288q80 0 144.5 -22t110 -65.5t70 -108t24.5 -148.5t-24.5 -150.5t-70 -112t-110 -69.5t-144.5 -24h-288v700zM296 156q77 0 117 51.5t40 148.5q0 88 -41.5 138t-115.5 50h-53v-388h53z" />
    <glyph glyph-name="E" unicode="E" horiz-adv-x="602" 
d="M243 544v-116h270v-155h-270v-117h329v-156h-535v700h535v-156h-329z" />
    <glyph glyph-name="F" unicode="F" horiz-adv-x="595" 
d="M243 544v-116h270v-155h-270v-273h-206v700h535v-156h-329z" />
    <glyph glyph-name="G" unicode="G" horiz-adv-x="722" 
d="M385 390h311v-80q0 -24 -3.5 -57t-15 -68t-32.5 -70t-56.5 -62t-87.5 -44t-124 -17q-82 0 -148 23.5t-111.5 69.5t-70 112.5t-24.5 153.5q0 86 24 152.5t68.5 112t107.5 69t140 23.5q69 0 127.5 -18t103 -52t72 -81.5t33.5 -106.5h-206q-11 47 -43 71.5t-77 24.5
q-65 0 -102.5 -50.5t-37.5 -145.5t38 -144.5t107 -49.5q44 0 75.5 21t31.5 63v4h-100v146z" />
    <glyph glyph-name="H" unicode="H" horiz-adv-x="730" 
d="M693 700v-700h-206v273h-244v-273h-206v700h206v-272h244v272h206z" />
    <glyph glyph-name="I" unicode="I" horiz-adv-x="294" 
d="M44 700h206v-700h-206v700z" />
    <glyph glyph-name="J" unicode="J" horiz-adv-x="592" 
d="M551 700v-454q0 -124 -72 -189t-201 -65q-63 0 -114 17.5t-87 51t-55 81.5t-19 109h203q0 -42 17.5 -64t52.5 -22q69 0 69 82v453h206z" />
    <glyph glyph-name="K" unicode="K" horiz-adv-x="720" 
d="M535 306q9 -14 21.5 -35t27 -45t30 -50.5t30.5 -51.5q35 -59 74 -124h-227q-25 44 -48 84q-20 35 -40 69t-33 53q-16 23 -34.5 39t-46.5 24l-46 -49v-220h-206v700h206v-235l217 235h239l-295 -312q36 -8 72 -26t59 -56z" />
    <glyph glyph-name="L" unicode="L" horiz-adv-x="536" 
d="M37 700h206v-544h291v-156h-497v700z" />
    <glyph glyph-name="M" unicode="M" horiz-adv-x="899" 
d="M37 700h259l152 -389h4l151 389h259v-700h-202v407h-4l-159 -407h-94l-161 407h-5v-407h-200v700z" />
    <glyph glyph-name="N" unicode="N" horiz-adv-x="718" 
d="M37 700h179l259 -368h4v368h202v-700h-177l-261 375h-4v-375h-202v700z" />
    <glyph glyph-name="O" unicode="O" horiz-adv-x="739" 
d="M370 -8q-81 0 -146.5 24.5t-111.5 71t-71 113t-25 150.5t25 150.5t71 112t111.5 70t146.5 24.5t146.5 -24.5t111.5 -70t70.5 -112t24.5 -150.5t-24.5 -150.5t-70.5 -113t-111.5 -71t-146.5 -24.5zM370 161q65 0 101.5 49t36.5 141t-36.5 139.5t-101.5 47.5t-101.5 -47.5
t-36.5 -139.5t36.5 -141t101.5 -49z" />
    <glyph glyph-name="P" unicode="P" horiz-adv-x="622" 
d="M606 480q0 -49 -16 -89.5t-45 -69t-71 -44t-95 -15.5h-136v-262h-206v700h342q53 0 95 -15.5t71 -44.5t45 -69.5t16 -90.5zM337 418q37 0 57.5 16.5t20.5 45.5t-20.5 46.5t-57.5 17.5h-94v-126h94z" />
    <glyph glyph-name="Q" unicode="Q" horiz-adv-x="739" 
d="M293 -2q-64 11 -115.5 40t-87.5 74t-55 105.5t-19 133.5q0 84 25 150.5t71 112t111.5 70t146.5 24.5t146.5 -24.5t111.5 -70t70.5 -112t24.5 -150.5q0 -75 -19.5 -136t-56 -106t-89 -73.5t-118.5 -38.5q27 -40 120 -40h50v-144h-58q-42 0 -85 10.5t-79.5 33t-62 57.5
t-32.5 84zM370 161q65 0 101.5 49t36.5 141t-36.5 139.5t-101.5 47.5t-101.5 -47.5t-36.5 -139.5t36.5 -141t101.5 -49z" />
    <glyph glyph-name="R" unicode="R" horiz-adv-x="655" 
d="M420 0l-132 262h-45v-262h-206v700h341q53 0 95 -15.5t71.5 -44.5t45.5 -69.5t16 -90.5q0 -72 -33 -122.5t-97 -70.5l163 -287h-219zM243 418h93q37 0 57 16.5t20 45.5t-20 46.5t-57 17.5h-93v-126z" />
    <glyph glyph-name="S" unicode="S" horiz-adv-x="644" 
d="M217 224q5 -33 30.5 -53t70.5 -20q94 0 94 55q0 12 -4.5 20.5t-16 14.5t-31 11t-49.5 11l-69 14q-106 20 -162.5 72t-56.5 134q0 53 22 94.5t61 70.5t92 44.5t116 15.5q70 0 124.5 -16.5t92 -47t57 -73t19.5 -93.5h-198q-1 32 -25.5 52t-66.5 20q-44 0 -64.5 -14.5
t-20.5 -37.5t22 -37.5t76 -23.5l70 -13q114 -20 169.5 -67.5t55.5 -132.5q0 -54 -21 -97t-61 -73t-97.5 -46t-130.5 -16q-68 0 -122.5 16t-93 46t-59.5 73t-21 97h198z" />
    <glyph glyph-name="T" unicode="T" horiz-adv-x="579" 
d="M574 544h-181v-544h-207v544h-181v156h569v-156z" />
    <glyph glyph-name="U" unicode="U" horiz-adv-x="692" 
d="M243 273q0 -57 26.5 -84t77.5 -27q50 0 76 27t26 84v428h206v-451q0 -60 -22 -108t-62.5 -81t-97.5 -51t-126 -18q-70 0 -127 18t-97.5 51t-63 81t-22.5 108v451h206v-428z" />
    <glyph glyph-name="V" unicode="V" horiz-adv-x="712" 
d="M222 0l-229 700h220l142 -516h3l141 516h220l-229 -700h-268z" />
    <glyph glyph-name="W" unicode="W" horiz-adv-x="963" 
d="M0 700h213l80 -434h4l104 434h160l104 -434h5l79 434h214l-170 -700h-205l-105 415h-4l-104 -415h-206z" />
    <glyph glyph-name="X" unicode="X" horiz-adv-x="683" 
d="M202 351l-201 349h241l98 -222h4l98 222h240l-200 -349l200 -351h-240l-98 224h-4l-98 -224h-241z" />
    <glyph glyph-name="Y" unicode="Y" horiz-adv-x="667" 
d="M437 278v-278h-206v278l-238 422h240l99 -222h4l98 222h240z" />
    <glyph glyph-name="Z" unicode="Z" horiz-adv-x="615" 
d="M585 156v-156h-555v130l299 410v4h-296v156h541v-130l-289 -412v-2h300z" />
    <glyph glyph-name="bracketleft" unicode="[" horiz-adv-x="418" 
d="M267 609v-561h141v-130h-323v822h323v-131h-141z" />
    <glyph glyph-name="backslash" unicode="\" horiz-adv-x="464" 
d="M461 0h-206l-252 700h204z" />
    <glyph glyph-name="bracketright" unicode="]" horiz-adv-x="418" 
d="M10 740h323v-822h-323v130h140v561h-140v131z" />
    <glyph glyph-name="asciicircum" unicode="^" horiz-adv-x="457" 
d="M443 450h-162l-52 92h-4l-52 -92h-159l151 250h126z" />
    <glyph glyph-name="underscore" unicode="_" horiz-adv-x="591" 
d="M577 -156h-563v142h563v-142z" />
    <glyph glyph-name="grave" unicode="`" horiz-adv-x="318" 
d="M304 430h-172l-139 271h201z" />
    <glyph glyph-name="a" unicode="a" horiz-adv-x="594" 
d="M306 527q59 0 106 -13.5t80 -37.5t51 -57.5t18 -74.5v-344h-194v72h-3q-10 -20 -28 -35t-40.5 -25t-47.5 -15t-49 -5q-36 0 -69 11t-57.5 31.5t-39 50t-14.5 65.5q0 78 57 120t166 48l117 7v9q0 55 -64 55q-25 0 -43 -8t-23 -25h-181q10 79 77.5 125t180.5 46zM359 218
l-85 -5q-29 -2 -42.5 -14.5t-13.5 -32.5q0 -23 17.5 -32.5t38.5 -9.5q17 0 32 6.5t27 17t19 24.5t7 29v17z" />
    <glyph glyph-name="b" unicode="b" horiz-adv-x="618" 
d="M386 527q48 0 88 -17t69 -50.5t45 -82.5t16 -114q0 -68 -17.5 -119t-46.5 -84.5t-68 -50.5t-82 -17q-51 0 -94 19.5t-67 45.5h-2v-57h-194v700h202v-242h2q57 69 149 69zM318 145q42 0 65.5 28.5t23.5 85.5q0 56 -24.5 85t-64.5 29q-42 0 -65.5 -29t-23.5 -86t23.5 -85
t65.5 -28z" />
    <glyph glyph-name="c" unicode="c" horiz-adv-x="573" 
d="M557 187q-10 -98 -77 -146.5t-180 -48.5q-131 0 -204 67t-73 200q0 132 73.5 200t202.5 68q111 0 179.5 -49.5t78.5 -148.5h-187q-8 28 -26 38.5t-41 10.5q-33 0 -56 -30.5t-23 -88.5q0 -57 23 -87.5t56 -30.5q23 0 42 10t25 36h187z" />
    <glyph glyph-name="d" unicode="d" horiz-adv-x="618" 
d="M232 527q92 0 149 -69h2v242h202v-700h-193v57h-3q-24 -26 -67 -45.5t-94 -19.5q-43 0 -82 17t-68 50.5t-46.5 84.5t-17.5 119q0 65 16 114t45 82.5t69 50.5t88 17zM300 145q42 0 65.5 28t23.5 85t-23.5 86t-65.5 29q-40 0 -64.5 -29t-24.5 -85q0 -57 24 -85.5t65 -28.5z
" />
    <glyph glyph-name="e" unicode="e" horiz-adv-x="584" 
d="M561 218h-344q4 -35 29 -56t57 -21q23 0 43 10t28 36h185q-8 -98 -76 -146.5t-183 -48.5q-131 0 -204 68t-73 201q0 64 19.5 113t55.5 83t87 51.5t114 18.5q131 -2 196.5 -73t65.5 -193v-43zM299 382q-30 0 -50.5 -17t-28.5 -43h155q-7 26 -27 43t-49 17z" />
    <glyph glyph-name="f" unicode="f" horiz-adv-x="379" 
d="M379 559q-48 5 -69 -1t-21 -37v-16h79v-130h-79v-375h-200v375h-78v130h78v22q0 49 14.5 83t40.5 55.5t61.5 31t77.5 9.5q23 0 47 -2.5t49 -7.5v-137z" />
    <glyph glyph-name="g" unicode="g" horiz-adv-x="620" 
d="M587 521v-494q0 -53 -21.5 -92t-59 -65.5t-89 -39.5t-111.5 -13q-54 0 -100.5 11t-82.5 33t-59.5 55.5t-32.5 78.5h180q10 -19 32 -29.5t56 -10.5q43 0 64.5 19.5t21.5 62.5v59h-2q-23 -38 -59 -53.5t-80 -15.5q-50 0 -92 17t-73 49.5t-48 79t-17 104.5q0 62 18.5 108.5
t50 78t73 47.5t87.5 16q21 0 43.5 -3.5t42.5 -11t36.5 -19.5t26.5 -29h1v57h194zM302 180q41 0 64.5 25.5t23.5 72.5q0 45 -23.5 71t-64.5 26q-42 0 -65.5 -26t-23.5 -72q0 -45 24 -71t65 -26z" />
    <glyph glyph-name="h" unicode="h" horiz-adv-x="614" 
d="M396 527q91 0 138 -49.5t47 -147.5v-330h-198v287q0 40 -19 64t-57 24q-35 0 -55 -25t-20 -63v-287h-199v700h194v-272h2q21 58 63 78.5t104 20.5z" />
    <glyph glyph-name="i" unicode="i" horiz-adv-x="285" 
d="M143 554q-52 0 -80.5 29t-28.5 71t28.5 71.5t80.5 29.5t80 -29.5t28 -71.5t-28 -71t-80 -29zM42 521h201v-521h-201v521z" />
    <glyph glyph-name="j" unicode="j" horiz-adv-x="285" 
d="M143 554q-52 0 -80.5 29t-28.5 71t28.5 71.5t80.5 29.5t80 -29.5t28 -71.5t-28 -71t-80 -29zM243 521v-524q0 -49 -14.5 -83t-41 -55.5t-62 -31t-77.5 -9.5q-23 0 -47 2.5t-49 7.5v137q48 -5 69 1t21 35v520h201z" />
    <glyph glyph-name="k" unicode="k" horiz-adv-x="622" 
d="M621 0h-220l-84 151q-10 18 -20.5 28t-27.5 15l-36 -36v-158h-200v700h200v-334l138 155h232l-225 -221q28 -4 54.5 -15.5t43.5 -38.5z" />
    <glyph glyph-name="l" unicode="l" horiz-adv-x="352" 
d="M50 700h202v-506q0 -27 15.5 -39t51.5 -12q5 0 10.5 0.5t11.5 1.5v-137q-25 -5 -49 -7.5t-47 -2.5q-42 0 -77.5 9.5t-61.5 31t-41 55.5t-15 83v523z" />
    <glyph glyph-name="m" unicode="m" horiz-adv-x="923" 
d="M714 527q91 0 133.5 -49.5t42.5 -147.5v-330h-200v287q0 40 -13.5 64t-50.5 24q-35 0 -50 -25t-15 -63v-287h-199v287q0 40 -13.5 64t-51.5 24q-35 0 -50 -25t-15 -63v-287h-199v521h194v-93h2q21 57 57.5 78t98.5 21q126 0 161 -99h1q26 58 65.5 78.5t101.5 20.5z" />
    <glyph glyph-name="n" unicode="n" horiz-adv-x="616" 
d="M396 527q91 0 139 -49.5t48 -147.5v-330h-200v287q0 40 -19 64t-57 24q-35 0 -55 -25t-20 -63v-287h-199v521h194v-93h1q20 57 63 78t105 21z" />
    <glyph glyph-name="o" unicode="o" horiz-adv-x="594" 
d="M296 527q65 0 117.5 -17t89.5 -51t57 -84t20 -116t-20 -116t-57 -83.5t-89.5 -50.5t-117.5 -17t-117.5 17t-89 50.5t-56 83.5t-19.5 116t19.5 116t56 84t89 51t117.5 17zM296 141q16 0 32 7t28.5 21t20.5 36.5t8 53.5t-8 53.5t-20.5 37.5t-28.5 22t-32 7t-31.5 -7
t-28 -22t-20 -37.5t-7.5 -53.5t7.5 -53.5t20 -36.5t28 -21t31.5 -7z" />
    <glyph glyph-name="p" unicode="p" horiz-adv-x="618" 
d="M227 521v-60h2q24 27 58 46.5t90 19.5q48 0 89.5 -17t72 -50.5t48 -84.5t17.5 -119q0 -65 -16 -114.5t-45.5 -82.5t-71 -50t-91.5 -17q-35 0 -73.5 11t-69.5 43h-2v-223h-202v698h194zM229 261q0 -57 23.5 -86t65.5 -29q40 0 64.5 29t24.5 84q0 57 -23.5 86t-65.5 29
t-65.5 -28t-23.5 -85z" />
    <glyph glyph-name="q" unicode="q" horiz-adv-x="618" 
d="M585 -177h-202v223h-2q-31 -32 -69.5 -43t-73.5 -11q-50 0 -91.5 17t-71 50t-45.5 82.5t-16 114.5q0 68 17.5 119t48 84.5t72 50.5t89.5 17q56 0 90 -19.5t58 -46.5h2v60h194v-698zM389 261q0 57 -23.5 85t-65.5 28t-65.5 -29t-23.5 -86q0 -55 24.5 -84t64.5 -29
q42 0 65.5 29t23.5 86z" />
    <glyph glyph-name="r" unicode="r" horiz-adv-x="408" 
d="M229 445q17 48 60 69.5t112 13.5v-151q-40 4 -71.5 -5t-53.5 -25.5t-33 -39t-11 -45.5v-262h-199v521h194v-76h2z" />
    <glyph glyph-name="s" unicode="s" horiz-adv-x="542" 
d="M359 317q83 -16 123.5 -50t40.5 -92q0 -83 -62.5 -133t-186.5 -50q-46 0 -89 8.5t-77.5 28t-58 52t-30.5 80.5h192q14 -35 63 -35q47 0 47 27q0 3 -0.5 7t-5 7.5t-14 7t-27.5 6.5l-90 17q-75 14 -116.5 54t-41.5 100q0 47 20 80t54 54t77.5 31t89.5 10t87 -9.5t73 -30
t52.5 -53t25.5 -79.5h-182q-4 18 -18.5 28t-37.5 10q-18 0 -32 -6.5t-14 -23.5q0 -4 1 -8t5.5 -7.5t14.5 -7.5t28 -7z" />
    <glyph glyph-name="t" unicode="t" horiz-adv-x="397" 
d="M287 375v-181q0 -43 49 -49q20 -3 47 0v-137q-15 -3 -30.5 -5t-29.5 -3q-48 -4 -91.5 3t-75.5 27.5t-51 56.5t-19 90v198h-75v130h83v145h193v-145h90v-130h-90z" />
    <glyph glyph-name="u" unicode="u" horiz-adv-x="616" 
d="M232 521v-289q0 -42 19 -65.5t56 -23.5q36 0 56 25.5t20 63.5v289h200v-521h-194v93h-3q-20 -58 -62 -79.5t-104 -21.5q-91 0 -139 50.5t-48 148.5v330h199z" />
    <glyph glyph-name="v" unicode="v" horiz-adv-x="580" 
d="M419 0h-258l-168 521h214l82 -365h2l82 365h214z" />
    <glyph glyph-name="w" unicode="w" horiz-adv-x="831" 
d="M715 0h-225l-75 345h-3l-74 -345h-221l-117 521h202l49 -346h4l70 346h184l72 -346h4l48 346h198z" />
    <glyph glyph-name="x" unicode="x" horiz-adv-x="572" 
d="M153 261l-146 260h218l59 -159h3l60 159h218l-146 -260l146 -261h-218l-59 160h-3l-60 -160h-218z" />
    <glyph glyph-name="y" unicode="y" horiz-adv-x="566" 
d="M573 521l-171 -521q-28 -98 -86.5 -145.5t-136.5 -47.5q-12 0 -27 0.5t-30.5 2t-30 3.5t-26.5 4v128q15 -2 27.5 -3.5t26.5 -1.5q15 0 25.5 5t17.5 11.5t11.5 14t5.5 13.5l5 17l-191 520h214l78 -350h3l76 350h209z" />
    <glyph glyph-name="z" unicode="z" horiz-adv-x="521" 
d="M30 101l220 269v4h-220v147h461v-118l-202 -252v-4h202v-147h-461v101z" />
    <glyph glyph-name="braceleft" unicode="{" horiz-adv-x="430" 
d="M302 458q0 -55 -22.5 -87t-63.5 -41v-3q42 -10 64 -41t22 -88v-81q1 -42 19 -55t58 -13h41v-131h-80q-221 0 -221 160v86q0 48 -22.5 75.5t-73.5 32.5v114q51 5 73.5 32.5t22.5 75.5v86q0 160 221 160h80v-131h-41q-42 0 -59.5 -15t-17.5 -63v-73z" />
    <glyph glyph-name="bar" unicode="|" horiz-adv-x="344" 
d="M259 798v-902h-174v902h174z" />
    <glyph glyph-name="braceright" unicode="}" horiz-adv-x="430" 
d="M128 531q0 48 -18 63t-60 15h-40v131h80q221 0 221 -160v-86q0 -48 22 -75.5t74 -32.5v-114q-52 -5 -74 -32.5t-22 -75.5v-86q0 -160 -221 -160h-80v131h40q41 0 59 13t19 55v81q0 57 22 88t64 41v3q-41 9 -63.5 41t-22.5 87v73z" />
    <glyph glyph-name="asciitilde" unicode="~" horiz-adv-x="596" 
d="M218 274q-14 0 -25.5 -13t-11.5 -48h-147q0 48 8 87t27 66.5t49 42.5t73 15q29 0 52.5 -10t44.5 -22t41.5 -22t44.5 -10q17 0 29.5 13.5t12.5 49.5h146q0 -48 -9.5 -87t-29 -66.5t-50 -43t-72.5 -15.5q-29 0 -52.5 10t-45 21.5t-42 21.5t-43.5 10z" />
    <glyph glyph-name="uni00A0" unicode="&#xa0;" horiz-adv-x="300" 
 />
    <glyph glyph-name="exclamdown" unicode="&#xa1;" horiz-adv-x="316" 
d="M157 389q-56 0 -84.5 31t-28.5 75t28.5 74.5t84.5 30.5t85.5 -30.5t29.5 -74.5t-29.5 -75t-85.5 -31zM56 134l14 207h176l13 -207v-234h-203v234z" />
    <glyph glyph-name="cent" unicode="&#xa2;" horiz-adv-x="573" 
d="M388 622v-105q72 -17 116.5 -64t52.5 -124h-187q-8 28 -26 38.5t-41 10.5q-33 0 -56 -30.5t-23 -88.5q0 -57 23 -87.5t56 -30.5q23 0 42 10t25 36h187q-8 -77 -51.5 -123.5t-117.5 -63.5v-104h-175v104q-92 20 -141 85t-49 174t49.5 173.5t140.5 84.5v105h175z" />
    <glyph glyph-name="sterling" unicode="&#xa3;" horiz-adv-x="606" 
d="M464 246h-162q-10 -25 -23.5 -46.5t-26.5 -41.5v-2h329v-156h-543v119q18 14 34.5 27.5t31 28.5t25 32t14.5 39h-106v128h75q-9 14 -19.5 29.5t-19.5 33t-14.5 38t-5.5 45.5q0 37 15 71t46.5 60t80 41.5t116.5 15.5q80 0 132.5 -21.5t83.5 -57.5t43.5 -82.5t12.5 -96.5
h-185q0 20 -2 38.5t-10.5 33.5t-24.5 24t-44 9q-36 0 -53.5 -14.5t-17.5 -37.5q0 -27 18 -58.5t33 -70.5h167v-128z" />
    <glyph glyph-name="currency" unicode="&#xa4;" horiz-adv-x="557" 
d="M61 334q0 26 5.5 51t19.5 48l-56 54l93 93l56 -55q21 16 46.5 20.5t51.5 4.5t50.5 -5.5t46.5 -19.5l53 54l100 -89l-59 -59q14 -21 19.5 -46.5t5.5 -50.5q0 -26 -5.5 -50.5t-19.5 -47.5l56 -55l-94 -94l-56 55q-22 -16 -46.5 -19.5t-50.5 -3.5t-51.5 4.5t-46.5 18.5
l-58 -57l-88 99l53 52q-16 23 -20.5 47.5t-4.5 50.5zM192 334q0 -34 22.5 -59t62.5 -25q39 0 61 25t22 59t-22 59.5t-61 25.5q-40 0 -62.5 -25.5t-22.5 -59.5z" />
    <glyph glyph-name="yen" unicode="&#xa5;" horiz-adv-x="667" 
d="M231 100h-125v121h125v45h-125v122h77l-190 312h240l99 -222h4l98 222h240l-190 -312h77v-122h-124v-45h124v-121h-124v-100h-206v100z" />
    <glyph glyph-name="brokenbar" unicode="&#xa6;" horiz-adv-x="344" 
d="M85 798h174v-335h-174v335zM85 232h174v-336h-174v336z" />
    <glyph glyph-name="section" unicode="&#xa7;" horiz-adv-x="533" 
d="M512 336q0 -25 -6.5 -41.5t-16.5 -28t-22.5 -19.5t-25.5 -15q15 -9 28.5 -22.5t24 -29.5t17 -33.5t6.5 -34.5q0 -83 -62 -133t-186 -50q-46 0 -89 8.5t-77.5 28t-58 52t-30.5 80.5h192q12 -35 63 -35q23 0 34.5 14t11.5 27q0 3 -0.5 7t-5 7.5t-14 7t-26.5 6.5l-90 17
q-75 14 -117 49t-42 105q0 24 6.5 40.5t16.5 28t22.5 19.5t24.5 16q-30 18 -52.5 51t-22.5 69q0 83 62 133t186 50q47 0 90 -8.5t77.5 -28t58 -52.5t30.5 -81h-193q-12 36 -63 36q-23 0 -34.5 -14.5t-11.5 -26.5q0 -4 0.5 -7.5t5 -7.5t14 -7.5t26.5 -6.5l90 -16
q38 -7 67.5 -19t49.5 -30t31 -44t11 -61zM276 366q-38 4 -58 -10.5t-20 -37.5q0 -17 14 -29t43 -16q39 -5 59 9t20 36q0 18 -14.5 30.5t-43.5 17.5z" />
    <glyph glyph-name="dieresis" unicode="&#xa8;" horiz-adv-x="534" 
d="M44 632q0 19 8 36t21.5 30t31.5 21t38 8q19 0 36.5 -8t30.5 -21t21 -30t8 -36q0 -21 -8 -39t-21 -31.5t-30.5 -21.5t-36.5 -8q-20 0 -38 8t-31.5 21.5t-21.5 31.5t-8 39zM295 632q0 19 8 36t21.5 30t31.5 21t38 8q19 0 36.5 -8t30.5 -21t21 -30t8 -36q0 -21 -8 -39
t-21 -31.5t-30.5 -21.5t-36.5 -8q-20 0 -38 8t-31.5 21.5t-21.5 31.5t-8 39z" />
    <glyph glyph-name="copyright" unicode="&#xa9;" horiz-adv-x="788" 
d="M16 342q0 78 30 147t81 120.5t120 81t147 29.5t147 -29.5t120.5 -81t81 -120.5t29.5 -147t-29.5 -146.5t-81 -120t-120.5 -81t-147 -29.5t-147 29.5t-120 81t-81 120t-30 146.5zM136 342q0 -54 20 -100.5t55 -81.5t82 -55t101 -20t101.5 20t82.5 55t55.5 81.5t20.5 100.5
t-20.5 101.5t-55.5 82.5t-82.5 55.5t-101.5 20.5t-101 -20.5t-82 -55.5t-55 -82.5t-20 -101.5zM400 232q28 0 45.5 13t25.5 42h123q-8 -72 -61 -115.5t-133 -43.5q-98 0 -153.5 55.5t-55.5 160.5q0 104 55.5 159t153.5 55q39 0 73 -11.5t59.5 -32t41.5 -49.5t20 -64h-125
q-12 55 -69 55q-78 0 -78 -112q0 -58 19.5 -85t58.5 -27z" />
    <glyph glyph-name="ordfeminine" unicode="&#xaa;" horiz-adv-x="403" 
d="M210 708q75 0 119 -32.5t44 -83.5v-217h-123v47q-13 -26 -44.5 -39t-60.5 -13q-23 0 -44 7t-36.5 20t-25 31.5t-9.5 42.5q0 49 36.5 74.5t104.5 30.5l75 4v7q0 34 -41 34q-17 0 -28 -5t-13 -16h-115q6 50 48 79t113 29zM246 513l-54 -3q-36 -3 -36 -30q0 -14 11 -20
t25 -6q21 0 37.5 15t16.5 33v11z" />
    <glyph glyph-name="guillemotleft" unicode="&#xab;" horiz-adv-x="928" 
d="M41 267v100l450 273v-191l-240 -131v-1l240 -131v-190zM437 267v100l450 273v-191l-240 -131v-1l240 -131v-190z" />
    <glyph glyph-name="logicalnot" unicode="&#xac;" horiz-adv-x="495" 
d="M34 394h427v-255h-192v100h-235v155z" />
    <glyph glyph-name="registered" unicode="&#xae;" horiz-adv-x="788" 
d="M16 342q0 78 30 147t81 120.5t120 81t147 29.5t147 -29.5t120.5 -81t81 -120.5t29.5 -147t-29.5 -146.5t-81 -120t-120.5 -81t-147 -29.5t-147 29.5t-120 81t-81 120t-30 146.5zM136 342q0 -54 20 -100.5t55 -81.5t82 -55t101 -20t101.5 20t82.5 55t55.5 81.5t20.5 100.5
t-20.5 101.5t-55.5 82.5t-82.5 55.5t-101.5 20.5t-101 -20.5t-82 -55.5t-55 -82.5t-20 -101.5zM445 172l-67 132h-15v-132h-126v353h207q54 0 84.5 -30t30.5 -81q0 -36 -17 -61t-49 -36l82 -145h-130zM363 383h33q39 0 39 28q0 30 -39 30h-33v-58z" />
    <glyph glyph-name="macron" unicode="&#xaf;" horiz-adv-x="591" 
d="M577 737h-563v142h563v-142z" />
    <glyph glyph-name="degree" unicode="&#xb0;" horiz-adv-x="404" 
d="M203 368q-40 0 -72.5 12.5t-55.5 35t-36 54t-13 68.5t12.5 68.5t35.5 54t55.5 35t73.5 12.5q39 0 71.5 -12.5t55.5 -35t35.5 -54t12.5 -68.5t-12.5 -68.5t-35.5 -54t-55.5 -35t-71.5 -12.5zM203 488q26 0 37.5 14t11.5 36q0 23 -12 37t-37 14q-26 0 -38 -14t-12 -37
q0 -22 12 -36t38 -14z" />
    <glyph glyph-name="plusminus" unicode="&#xb1;" horiz-adv-x="596" 
d="M209 321h-175v142h175v135h179v-135h174v-142h-174v-135h-179v135zM34 142h528v-142h-528v142z" />
    <glyph glyph-name="twosuperior" unicode="&#xb2;" horiz-adv-x="389" 
d="M211 464v-3h145v-95h-322v68l150 146q18 18 29 29.5t17 20t8 14.5t2 12q0 21 -10.5 30.5t-37.5 9.5q-32 0 -41.5 -19.5t-9.5 -43.5h-111q0 30 8 58t26.5 50t50 35.5t77.5 13.5q86 0 126.5 -35.5t40.5 -89.5q0 -21 -3 -36t-11 -30t-23.5 -31.5t-40.5 -39.5z" />
    <glyph glyph-name="threesuperior" unicode="&#xb3;" horiz-adv-x="413" 
d="M312 583q31 -10 51 -34t20 -66q0 -21 -9.5 -43t-30.5 -40t-55.5 -29t-84.5 -11q-43 0 -75.5 13t-54.5 34.5t-32.5 49.5t-10.5 59h117q0 -9 3.5 -18.5t10.5 -18t18 -14t26 -5.5q24 0 38.5 10t14.5 34q0 19 -14 26.5t-35 7.5h-36v80h34q21 0 34 11.5t13 28.5q0 18 -12.5 28
t-35.5 10q-29 0 -42 -17t-13 -43h-113q0 68 43 111t124 43q44 0 76 -9.5t52.5 -25t30.5 -35t10 -39.5q0 -43 -17 -64t-45 -33v-1z" />
    <glyph glyph-name="acute" unicode="&#xb4;" horiz-adv-x="371" 
d="M30 567l111 229h200l-139 -229h-172z" />
    <glyph glyph-name="paragraph" unicode="&#xb6;" horiz-adv-x="766" 
d="M696 0h-172v557h-74v-557h-172v278q-13 -4 -31.5 -6.5t-33.5 -2.5q-42 0 -77 12t-60 37.5t-39 66t-14 97.5q0 61 14.5 103t41.5 67.5t64.5 36.5t83.5 11h469v-700z" />
    <glyph glyph-name="periodcentered" unicode="&#xb7;" horiz-adv-x="346" 
d="M57 317q0 23 9 44t25 36.5t37.5 24.5t46.5 9q23 0 44 -9t36.5 -24.5t24.5 -36.5t9 -44q0 -25 -9 -46.5t-24.5 -37.5t-36.5 -25t-44 -9q-25 0 -46.5 9t-37.5 25t-25 37.5t-9 46.5z" />
    <glyph glyph-name="cedilla" unicode="&#xb8;" horiz-adv-x="421" 
d="M55 -287l110 209h201l-139 -209h-172z" />
    <glyph glyph-name="onesuperior" unicode="&#xb9;" horiz-adv-x="287" 
d="M160 782h97v-419h-130v310l-97 -32v95z" />
    <glyph glyph-name="ordmasculine" unicode="&#xba;" horiz-adv-x="449" 
d="M30 577q0 52 14.5 92t40 67t61.5 40.5t78 13.5q43 0 78.5 -13.5t61.5 -40.5t40.5 -67t14.5 -92t-14 -92t-40 -67.5t-61.5 -41.5t-79.5 -14q-43 0 -79 14t-61.5 41.5t-39.5 67.5t-14 92zM164 577q0 -62 16 -85.5t44 -23.5q29 0 45 23.5t16 85.5q0 31 -4 51.5t-12 33
t-19.5 17.5t-25.5 5q-28 0 -44 -23t-16 -84z" />
    <glyph glyph-name="guillemotright" unicode="&#xbb;" horiz-adv-x="928" 
d="M887 267l-450 -271v190l240 131v1l-240 131v191l450 -273v-100zM491 267l-450 -271v190l240 131v1l-240 131v191l450 -273v-100z" />
    <glyph glyph-name="onequarter" unicode="&#xbc;" horiz-adv-x="801" 
d="M439 700h130l-252 -700h-131zM5 655l130 45h97v-419h-130v310l-97 -32v96zM430 151l209 268h109v-254h48v-93h-44v-72h-126v72h-196v79zM630 162v101l-73 -101h73z" />
    <glyph glyph-name="onehalf" unicode="&#xbd;" horiz-adv-x="836" 
d="M135 700h97v-419h-130v310l-97 -32v96zM568 700l-253 -700h-131l254 700h130zM808 299q0 -21 -3 -36t-11.5 -30t-24 -32t-40.5 -40l-69 -63v-2h145v-96h-322v68l150 146q18 18 29 29.5t17 20t8 15t2 12.5q0 20 -10.5 29.5t-37.5 9.5q-32 0 -42 -19.5t-10 -43.5h-110
q0 30 8 58.5t26.5 50t50 35t77.5 13.5q86 0 126.5 -35.5t40.5 -89.5z" />
    <glyph glyph-name="threequarters" unicode="&#xbe;" horiz-adv-x="903" 
d="M306 501q31 -10 51 -34t20 -66q0 -21 -9.5 -43t-31 -40t-56 -29t-84.5 -11q-43 0 -75.5 13t-54 34.5t-32.5 49.5t-11 59h118q0 -9 3.5 -18.5t10 -18t17.5 -14t26 -5.5q25 0 39 10t14 34q0 20 -13.5 27t-35.5 7h-36v80h35q20 0 33 11.5t13 28.5q0 18 -12.5 28t-35.5 10
q-29 0 -41.5 -17t-12.5 -43h-114q0 68 43 111t124 43q44 0 76 -9.5t52.5 -24.5t30.5 -34.5t10 -40.5q0 -43 -17 -63.5t-44 -33.5v-1zM671 700l-252 -700h-131l254 700h129zM532 151l209 268h109v-254h48v-93h-44v-72h-125v72h-197v79zM733 162v101l-74 -101h74z" />
    <glyph glyph-name="questiondown" unicode="&#xbf;" horiz-adv-x="581" 
d="M284 600q55 0 84.5 -30.5t29.5 -74.5t-29.5 -75t-84.5 -31t-84 31t-29 75t29 74.5t84 30.5zM551 127q-3 -46 -18.5 -89t-46 -75t-78 -51.5t-113.5 -19.5q-71 0 -121.5 13.5t-82.5 39t-46.5 61.5t-14.5 81q0 37 11 64t27.5 48t36 38t36 32t27.5 30.5t11 33.5v8h215v-12
q0 -28 -12.5 -50.5t-32 -41t-41.5 -35t-41.5 -32t-32 -32.5t-12.5 -37q0 -23 15 -39.5t52 -16.5q34 0 53 24.5t24 57.5h185z" />
    <glyph glyph-name="Agrave" unicode="&#xc0;" horiz-adv-x="710" 
d="M353 973l111 -209h-172l-139 209h200zM222 700h268l227 -700h-220l-34 128h-216l-34 -128h-220zM424 274l-67 251h-3l-67 -251h137z" />
    <glyph glyph-name="Aacute" unicode="&#xc1;" horiz-adv-x="710" 
d="M420 764h-172l111 209h200zM222 700h268l227 -700h-220l-34 128h-216l-34 -128h-220zM424 274l-67 251h-3l-67 -251h137z" />
    <glyph glyph-name="Acircumflex" unicode="&#xc2;" horiz-adv-x="710" 
d="M568 750h-163l-52 84h-4l-52 -84h-159l151 232h126zM222 700h268l227 -700h-220l-34 128h-216l-34 -128h-220zM424 274l-67 251h-3l-67 -251h137z" />
    <glyph glyph-name="Atilde" unicode="&#xc3;" horiz-adv-x="710" 
d="M274 827q-14 0 -25.5 -13.5t-11.5 -48.5h-147q0 98 35 148t122 50q29 0 52.5 -10t44.5 -22t41.5 -22t44.5 -10q17 0 29.5 13.5t12.5 49.5h146q0 -96 -38 -147t-123 -51q-29 0 -52.5 10t-45 21.5t-42 21.5t-43.5 10zM222 700h268l227 -700h-220l-34 128h-216l-34 -128
h-220zM424 274l-67 251h-3l-67 -251h137z" />
    <glyph glyph-name="Adieresis" unicode="&#xc4;" horiz-adv-x="710" 
d="M382 864q0 19 8 36t21.5 30t31.5 21t39 8q19 0 36 -8t30 -21t21 -30t8 -36q0 -21 -8 -39t-21 -31.5t-30 -21.5t-36 -8q-42 0 -71 29t-29 71zM131 864q0 19 8 36t21.5 30t31.5 21t39 8q19 0 36 -8t30 -21t21 -30t8 -36q0 -21 -8 -39t-21 -31.5t-30 -21.5t-36 -8
q-42 0 -71 29t-29 71zM222 700h268l227 -700h-220l-34 128h-216l-34 -128h-220zM424 274l-67 251h-3l-67 -251h137z" />
    <glyph glyph-name="Aring" unicode="&#xc5;" horiz-adv-x="712" 
d="M218 690q-18 22 -28 50t-10 62q0 38 12.5 69t35.5 54t55.5 35.5t73.5 12.5q40 0 72 -12.5t55 -35.5t35.5 -54t12.5 -69q0 -68 -39 -113l226 -689h-220l-34 128h-218l-34 -128h-220zM357 753q26 0 38 14t12 35q0 24 -12.5 38t-37.5 14q-26 0 -38 -14t-12 -38q0 -21 12 -35
t38 -14zM426 274l-69 251h-4l-66 -251h139z" />
    <glyph glyph-name="AE" unicode="&#xc6;" horiz-adv-x="1063" 
d="M704 544v-116h270v-155h-270v-117h329v-156h-535v128h-202l-71 -128h-232l420 700h620v-156h-329zM498 274v217l-121 -217h121z" />
    <glyph glyph-name="Ccedilla" unicode="&#xc7;" horiz-adv-x="712" 
d="M371 156q93 0 119 95h206q-6 -59 -32.5 -107t-69 -81.5t-99.5 -52t-124 -18.5q-81 0 -145.5 23.5t-109.5 69.5t-69 112.5t-24 153.5q0 86 24.5 152.5t69.5 112t109.5 69t144.5 23.5q65 0 121.5 -18t99 -52t70 -81.5t33.5 -106.5h-207q-11 47 -40.5 71.5t-76.5 24.5
q-63 0 -100.5 -50.5t-37.5 -144.5q0 -96 36.5 -145.5t101.5 -49.5zM366 -287h-172l110 209h201z" />
    <glyph glyph-name="Egrave" unicode="&#xc8;" horiz-adv-x="602" 
d="M326 973l111 -209h-172l-139 209h200zM243 544v-116h270v-155h-270v-117h329v-156h-535v700h535v-156h-329z" />
    <glyph glyph-name="Eacute" unicode="&#xc9;" horiz-adv-x="602" 
d="M382 764h-172l111 209h200zM243 544v-116h270v-155h-270v-117h329v-156h-535v700h535v-156h-329z" />
    <glyph glyph-name="Ecircumflex" unicode="&#xca;" horiz-adv-x="602" 
d="M527 750h-163l-52 84h-4l-51 -84h-160l151 232h126zM243 544v-116h270v-155h-270v-117h329v-156h-535v700h535v-156h-329z" />
    <glyph glyph-name="Edieresis" unicode="&#xcb;" horiz-adv-x="602" 
d="M342 864q0 19 8 36t21.5 30t32 21t38.5 8q19 0 36.5 -8t30.5 -21t21 -30t8 -36q0 -21 -8 -39t-21 -31.5t-30.5 -21.5t-36.5 -8q-20 0 -38.5 8t-32 21.5t-21.5 31.5t-8 39zM91 864q0 19 8 36t21.5 30t31.5 21t39 8q19 0 36.5 -8t30.5 -21t21 -30t8 -36q0 -21 -8 -39
t-21 -31.5t-30.5 -21.5t-36.5 -8q-42 0 -71 29t-29 71zM243 544v-116h270v-155h-270v-117h329v-156h-535v700h535v-156h-329z" />
    <glyph glyph-name="Igrave" unicode="&#xcc;" horiz-adv-x="294" 
d="M139 973l111 -209h-172l-139 209h200zM44 700h206v-700h-206v700z" />
    <glyph glyph-name="Iacute" unicode="&#xcd;" horiz-adv-x="294" 
d="M216 764h-172l110 209h201zM44 700h206v-700h-206v700z" />
    <glyph glyph-name="Icircumflex" unicode="&#xce;" horiz-adv-x="294" 
d="M362 750h-163l-52 84h-4l-52 -84h-159l151 232h126zM44 700h206v-700h-206v700z" />
    <glyph glyph-name="Idieresis" unicode="&#xcf;" horiz-adv-x="294" 
d="M-76 864q0 19 8 36t21.5 30t31.5 21t38 8q19 0 36.5 -8t30.5 -21t21 -30t8 -36q0 -21 -8 -39t-21 -31.5t-30.5 -21.5t-36.5 -8q-20 0 -38 8t-31.5 21.5t-21.5 31.5t-8 39zM175 864q0 19 8 36t21.5 30t31.5 21t38 8q19 0 36.5 -8t30.5 -21t21 -30t8 -36q0 -21 -8 -39
t-21 -31.5t-30.5 -21.5t-36.5 -8q-20 0 -38 8t-31.5 21.5t-21.5 31.5t-8 39zM44 700h206v-700h-206v700z" />
    <glyph glyph-name="Eth" unicode="&#xd0;" horiz-adv-x="752" 
d="M379 700q80 0 144.5 -22t110.5 -65.5t70.5 -108t24.5 -148.5t-24.5 -150.5t-70.5 -112t-110.5 -69.5t-144.5 -24h-288v293h-81v122h81v285h288zM351 156q77 0 117 51.5t40 148.5q0 88 -41.5 138t-115.5 50h-54v-129h125v-122h-125v-137h54z" />
    <glyph glyph-name="Ntilde" unicode="&#xd1;" horiz-adv-x="718" 
d="M257 765h-148q0 98 35 148t122 50q29 0 52.5 -10t44.5 -22t41.5 -22t44.5 -10q17 0 29.5 13.5t12.5 49.5h146q0 -96 -38 -147t-123 -51q-29 0 -52.5 10t-45 21.5t-42 21.5t-43.5 10q-14 0 -25 -13.5t-11 -48.5zM37 700h179l259 -368h4v368h202v-700h-177l-261 375h-4
v-375h-202v700z" />
    <glyph glyph-name="Ograve" unicode="&#xd2;" horiz-adv-x="739" 
d="M381 973l110 -209h-172l-139 209h201zM370 -8q-81 0 -146.5 24.5t-111.5 71t-71 113t-25 150.5t25 150.5t71 112t111.5 70t146.5 24.5t146.5 -24.5t111.5 -70t70.5 -112t24.5 -150.5t-24.5 -150.5t-70.5 -113t-111.5 -71t-146.5 -24.5zM370 161q65 0 101.5 49t36.5 141
t-36.5 139.5t-101.5 47.5t-101.5 -47.5t-36.5 -139.5t36.5 -141t101.5 -49z" />
    <glyph glyph-name="Oacute" unicode="&#xd3;" horiz-adv-x="739" 
d="M442 764h-172l111 209h200zM370 -8q-81 0 -146.5 24.5t-111.5 71t-71 113t-25 150.5t25 150.5t71 112t111.5 70t146.5 24.5t146.5 -24.5t111.5 -70t70.5 -112t24.5 -150.5t-24.5 -150.5t-70.5 -113t-111.5 -71t-146.5 -24.5zM370 161q65 0 101.5 49t36.5 141t-36.5 139.5
t-101.5 47.5t-101.5 -47.5t-36.5 -139.5t36.5 -141t101.5 -49z" />
    <glyph glyph-name="Ocircumflex" unicode="&#xd4;" horiz-adv-x="739" 
d="M588 750h-162l-52 84h-4l-52 -84h-160l152 232h125zM370 -8q-81 0 -146.5 24.5t-111.5 71t-71 113t-25 150.5t25 150.5t71 112t111.5 70t146.5 24.5t146.5 -24.5t111.5 -70t70.5 -112t24.5 -150.5t-24.5 -150.5t-70.5 -113t-111.5 -71t-146.5 -24.5zM370 161
q65 0 101.5 49t36.5 141t-36.5 139.5t-101.5 47.5t-101.5 -47.5t-36.5 -139.5t36.5 -141t101.5 -49z" />
    <glyph glyph-name="Otilde" unicode="&#xd5;" horiz-adv-x="739" 
d="M257 765h-148q0 98 35 148t122 50q29 0 52.5 -10t44.5 -22t41.5 -22t44.5 -10q17 0 29.5 13.5t12.5 49.5h146q0 -96 -38 -147t-123 -51q-29 0 -52.5 10t-45 21.5t-42 21.5t-43.5 10q-14 0 -25 -13.5t-11 -48.5zM370 -8q-81 0 -146.5 24.5t-111.5 71t-71 113t-25 150.5
t25 150.5t71 112t111.5 70t146.5 24.5t146.5 -24.5t111.5 -70t70.5 -112t24.5 -150.5t-24.5 -150.5t-70.5 -113t-111.5 -71t-146.5 -24.5zM370 161q65 0 101.5 49t36.5 141t-36.5 139.5t-101.5 47.5t-101.5 -47.5t-36.5 -139.5t36.5 -141t101.5 -49z" />
    <glyph glyph-name="Odieresis" unicode="&#xd6;" horiz-adv-x="739" 
d="M396 864q0 19 8 36t21.5 30t31.5 21t38 8q19 0 36.5 -8t30.5 -21t21 -30t8 -36q0 -21 -8 -39t-21 -31.5t-30.5 -21.5t-36.5 -8q-20 0 -38 8t-31.5 21.5t-21.5 31.5t-8 39zM145 864q0 19 8 36t21.5 30t31.5 21t38 8q19 0 36.5 -8t30.5 -21t21 -30t8 -36q0 -21 -8 -39
t-21 -31.5t-30.5 -21.5t-36.5 -8q-20 0 -38 8t-31.5 21.5t-21.5 31.5t-8 39zM370 -8q-81 0 -146.5 24.5t-111.5 71t-71 113t-25 150.5t25 150.5t71 112t111.5 70t146.5 24.5t146.5 -24.5t111.5 -70t70.5 -112t24.5 -150.5t-24.5 -150.5t-70.5 -113t-111.5 -71t-146.5 -24.5z
M370 161q65 0 101.5 49t36.5 141t-36.5 139.5t-101.5 47.5t-101.5 -47.5t-36.5 -139.5t36.5 -141t101.5 -49z" />
    <glyph glyph-name="multiply" unicode="&#xd7;" horiz-adv-x="561" 
d="M34 180l137 135l-137 138l109 109l137 -136l138 136l109 -109l-137 -138l137 -135l-111 -110l-136 136l-135 -136z" />
    <glyph glyph-name="Oslash" unicode="&#xd8;" horiz-adv-x="739" 
d="M723 351q0 -84 -24.5 -150.5t-70.5 -113t-111.5 -71t-146.5 -24.5t-146.5 24.5t-111.5 71t-71 113t-25 150.5t25 150t71 112t111.5 70.5t146.5 24.5t146.5 -24.5t111.5 -70.5t70.5 -112t24.5 -150zM232 351q0 -65 19 -109l106 294h-1q-59 -5 -91.5 -51.5t-32.5 -133.5z
M508 351q0 35 -7 64.5t-18 52.5l-110 -307h1q63 0 98.5 50t35.5 140z" />
    <glyph glyph-name="Ugrave" unicode="&#xd9;" horiz-adv-x="692" 
d="M480 764h-172l-139 209h201zM243 273q0 -57 26.5 -84t77.5 -27q50 0 76 27t26 84v428h206v-451q0 -60 -22 -108t-62.5 -81t-97.5 -51t-126 -18q-70 0 -127 18t-97.5 51t-63 81t-22.5 108v451h206v-428z" />
    <glyph glyph-name="Uacute" unicode="&#xda;" horiz-adv-x="692" 
d="M243 764l110 209h201l-139 -209h-172zM243 273q0 -57 26.5 -84t77.5 -27q50 0 76 27t26 84v428h206v-451q0 -60 -22 -108t-62.5 -81t-97.5 -51t-126 -18q-70 0 -127 18t-97.5 51t-63 81t-22.5 108v451h206v-428z" />
    <glyph glyph-name="Ucircumflex" unicode="&#xdb;" horiz-adv-x="692" 
d="M412 982l153 -232h-162l-52 84h-4l-52 -84h-160l152 232h125zM243 273q0 -57 26.5 -84t77.5 -27q50 0 76 27t26 84v428h206v-451q0 -60 -22 -108t-62.5 -81t-97.5 -51t-126 -18q-70 0 -127 18t-97.5 51t-63 81t-22.5 108v451h206v-428z" />
    <glyph glyph-name="Udieresis" unicode="&#xdc;" horiz-adv-x="692" 
d="M124 864q0 19 8 36t21.5 30t31.5 21t39 8q19 0 36 -8t30 -21t21 -30t8 -36q0 -21 -8 -39t-21 -31.5t-30 -21.5t-36 -8q-42 0 -71 29t-29 71zM375 864q0 19 8 36t21.5 30t31.5 21t39 8q19 0 36 -8t30 -21t21 -30t8 -36q0 -21 -8 -39t-21 -31.5t-30 -21.5t-36 -8
q-42 0 -71 29t-29 71zM243 273q0 -57 26.5 -84t77.5 -27q50 0 76 27t26 84v428h206v-451q0 -60 -22 -108t-62.5 -81t-97.5 -51t-126 -18q-70 0 -127 18t-97.5 51t-63 81t-22.5 108v451h206v-428z" />
    <glyph glyph-name="Yacute" unicode="&#xdd;" horiz-adv-x="667" 
d="M415 764h-172l110 209h201zM437 278v-278h-206v278l-238 422h240l99 -222h4l98 222h240z" />
    <glyph glyph-name="Thorn" unicode="&#xde;" horiz-adv-x="622" 
d="M243 569h136q53 0 95 -15.5t71 -44.5t45 -69.5t16 -90.5q0 -49 -16 -89.5t-45 -69t-71 -44t-95 -15.5h-136v-131h-206v700h206v-131zM243 413v-126h94q37 0 57.5 16.5t20.5 45.5t-20.5 46.5t-57.5 17.5h-94z" />
    <glyph glyph-name="germandbls" unicode="&#xdf;" horiz-adv-x="688" 
d="M37 0v471q0 52 17.5 95.5t53 75t88.5 49t125 17.5q75 0 130 -18.5t91 -48t54 -67t18 -76.5q0 -25 -7 -50.5t-20 -46.5t-31 -35t-39 -17q29 -4 54.5 -16t45.5 -30.5t31.5 -42.5t11.5 -52q0 -64 -20.5 -105.5t-54.5 -66.5t-78.5 -35t-93.5 -10q-28 0 -56.5 2.5t-56.5 7.5
v137q25 -2 51.5 -1t49 8t37 20.5t14.5 35.5q0 23 -10 38.5t-26 25t-35 13.5t-37 4h-30v131h30q38 0 56 20t18 45q0 32 -26 50.5t-67 18.5q-42 0 -65 -22t-23 -75v-450h-200z" />
    <glyph glyph-name="agrave" unicode="&#xe0;" horiz-adv-x="594" 
d="M353 796l111 -209h-172l-139 209h200zM306 527q59 0 106 -13.5t80 -37.5t51 -57.5t18 -74.5v-344h-194v72h-3q-10 -20 -28 -35t-40.5 -25t-47.5 -15t-49 -5q-36 0 -69 11t-57.5 31.5t-39 50t-14.5 65.5q0 78 57 120t166 48l117 7v9q0 55 -64 55q-25 0 -43 -8t-23 -25
h-181q10 79 77.5 125t180.5 46zM359 218l-85 -5q-29 -2 -42.5 -14.5t-13.5 -32.5q0 -23 17.5 -32.5t38.5 -9.5q17 0 32 6.5t27 17t19 24.5t7 29v17z" />
    <glyph glyph-name="aacute" unicode="&#xe1;" horiz-adv-x="594" 
d="M393 587h-172l111 209h200zM306 527q59 0 106 -13.5t80 -37.5t51 -57.5t18 -74.5v-344h-194v72h-3q-10 -20 -28 -35t-40.5 -25t-47.5 -15t-49 -5q-36 0 -69 11t-57.5 31.5t-39 50t-14.5 65.5q0 78 57 120t166 48l117 7v9q0 55 -64 55q-25 0 -43 -8t-23 -25h-181
q10 79 77.5 125t180.5 46zM359 218l-85 -5q-29 -2 -42.5 -14.5t-13.5 -32.5q0 -23 17.5 -32.5t38.5 -9.5q17 0 32 6.5t27 17t19 24.5t7 29v17z" />
    <glyph glyph-name="acircumflex" unicode="&#xe2;" horiz-adv-x="594" 
d="M524 568h-162l-52 83h-4l-52 -83h-160l152 232h125zM306 527q59 0 106 -13.5t80 -37.5t51 -57.5t18 -74.5v-344h-194v72h-3q-10 -20 -28 -35t-40.5 -25t-47.5 -15t-49 -5q-36 0 -69 11t-57.5 31.5t-39 50t-14.5 65.5q0 78 57 120t166 48l117 7v9q0 55 -64 55
q-25 0 -43 -8t-23 -25h-181q10 79 77.5 125t180.5 46zM359 218l-85 -5q-29 -2 -42.5 -14.5t-13.5 -32.5q0 -23 17.5 -32.5t38.5 -9.5q17 0 32 6.5t27 17t19 24.5t7 29v17z" />
    <glyph glyph-name="atilde" unicode="&#xe3;" horiz-adv-x="594" 
d="M237 652q-14 0 -22 -13t-8 -48h-147q0 48 7 85t24.5 62t46.5 38t72 13q27 0 48.5 -10t41 -22t39 -22t40.5 -10q17 0 26.5 13.5t9.5 48.5h146q0 -96 -34.5 -147t-119.5 -51q-27 0 -49 10t-42 21.5t-39 21.5t-40 10zM306 527q59 0 106 -13.5t80 -37.5t51 -57.5t18 -74.5
v-344h-194v72h-3q-10 -20 -28 -35t-40.5 -25t-47.5 -15t-49 -5q-36 0 -69 11t-57.5 31.5t-39 50t-14.5 65.5q0 78 57 120t166 48l117 7v9q0 55 -64 55q-25 0 -43 -8t-23 -25h-181q10 79 77.5 125t180.5 46zM359 218l-85 -5q-29 -2 -42.5 -14.5t-13.5 -32.5q0 -23 17.5 -32.5
t38.5 -9.5q17 0 32 6.5t27 17t19 24.5t7 29v17z" />
    <glyph glyph-name="adieresis" unicode="&#xe4;" horiz-adv-x="594" 
d="M94 682q0 19 8 36.5t21.5 30.5t31.5 21t39 8q19 0 36 -8t30 -21t21 -30.5t8 -36.5q0 -20 -8 -38t-21 -31.5t-30 -21.5t-36 -8q-21 0 -39 8t-31.5 21.5t-21.5 31.5t-8 38zM345 682q0 19 8 36.5t21.5 30.5t31.5 21t39 8q19 0 36 -8t30 -21t21 -30.5t8 -36.5q0 -20 -8 -38
t-21 -31.5t-30 -21.5t-36 -8q-21 0 -39 8t-31.5 21.5t-21.5 31.5t-8 38zM306 527q59 0 106 -13.5t80 -37.5t51 -57.5t18 -74.5v-344h-194v72h-3q-10 -20 -28 -35t-40.5 -25t-47.5 -15t-49 -5q-36 0 -69 11t-57.5 31.5t-39 50t-14.5 65.5q0 78 57 120t166 48l117 7v9
q0 55 -64 55q-25 0 -43 -8t-23 -25h-181q10 79 77.5 125t180.5 46zM359 218l-85 -5q-29 -2 -42.5 -14.5t-13.5 -32.5q0 -23 17.5 -32.5t38.5 -9.5q17 0 32 6.5t27 17t19 24.5t7 29v17z" />
    <glyph glyph-name="aring" unicode="&#xe5;" horiz-adv-x="594" 
d="M319 583q-68 0 -109.5 39.5t-41.5 103.5t41 104.5t110 40.5q67 0 108 -40.5t41 -104.5t-41 -103.5t-108 -39.5zM319 684q22 0 31.5 11.5t9.5 30.5q0 20 -10 32t-31 12q-23 0 -33 -12t-10 -32q0 -19 10 -30.5t33 -11.5zM306 527q59 0 106 -13.5t80 -37.5t51 -57.5
t18 -74.5v-344h-194v72h-3q-10 -20 -28 -35t-40.5 -25t-47.5 -15t-49 -5q-36 0 -69 11t-57.5 31.5t-39 50t-14.5 65.5q0 78 57 120t166 48l117 7v9q0 55 -64 55q-25 0 -43 -8t-23 -25h-181q10 79 77.5 125t180.5 46zM359 218l-85 -5q-29 -2 -42.5 -14.5t-13.5 -32.5
q0 -23 17.5 -32.5t38.5 -9.5q17 0 32 6.5t27 17t19 24.5t7 29v17z" />
    <glyph glyph-name="ae" unicode="&#xe6;" horiz-adv-x="914" 
d="M891 218h-344q5 -35 29.5 -56t56.5 -21q24 0 44 10t27 36h186q-8 -97 -77 -146t-183 -49q-66 0 -117.5 19.5t-86.5 68.5q-22 -33 -50.5 -50.5t-58 -26t-57 -10t-47.5 -1.5q-36 0 -71 11t-62.5 31.5t-44 50t-16.5 65.5q0 78 57 120t166 48l117 7v9q0 55 -64 55
q-25 0 -43 -8t-23 -25h-181q10 79 77.5 125t180.5 46q51 0 96.5 -16.5t69.5 -42.5q26 26 69 41.5t88 17.5q131 -2 196.5 -73t65.5 -193v-43zM629 382q-30 0 -50.5 -17t-28.5 -43h155q-7 26 -26.5 43t-49.5 17zM359 218l-85 -5q-29 -2 -42.5 -14.5t-13.5 -32.5
q0 -23 17.5 -32.5t38.5 -9.5q17 0 32 6.5t27 17t19 24.5t7 29v17z" />
    <glyph glyph-name="ccedilla" unicode="&#xe7;" horiz-adv-x="573" 
d="M557 187q-10 -98 -77 -146.5t-180 -48.5q-131 0 -204 67t-73 200q0 132 73.5 200t202.5 68q111 0 179.5 -49.5t78.5 -148.5h-187q-8 28 -26 38.5t-41 10.5q-33 0 -56 -30.5t-23 -88.5q0 -57 23 -87.5t56 -30.5q23 0 42 10t25 36h187zM291 -287h-172l110 209h201z" />
    <glyph glyph-name="egrave" unicode="&#xe8;" horiz-adv-x="584" 
d="M326 796l111 -209h-172l-139 209h200zM561 218h-344q4 -35 29 -56t57 -21q23 0 43 10t28 36h185q-8 -98 -76 -146.5t-183 -48.5q-131 0 -204 68t-73 201q0 64 19.5 113t55.5 83t87 51.5t114 18.5q131 -2 196.5 -73t65.5 -193v-43zM299 382q-30 0 -50.5 -17t-28.5 -43h155
q-7 26 -27 43t-49 17z" />
    <glyph glyph-name="eacute" unicode="&#xe9;" horiz-adv-x="584" 
d="M368 587h-172l111 209h201zM561 218h-344q4 -35 29 -56t57 -21q23 0 43 10t28 36h185q-8 -98 -76 -146.5t-183 -48.5q-131 0 -204 68t-73 201q0 64 19.5 113t55.5 83t87 51.5t114 18.5q131 -2 196.5 -73t65.5 -193v-43zM299 382q-30 0 -50.5 -17t-28.5 -43h155
q-7 26 -27 43t-49 17z" />
    <glyph glyph-name="ecircumflex" unicode="&#xea;" horiz-adv-x="584" 
d="M517 568h-162l-52 83h-4l-52 -83h-160l152 232h125zM561 218h-344q4 -35 29 -56t57 -21q23 0 43 10t28 36h185q-8 -98 -76 -146.5t-183 -48.5q-131 0 -204 68t-73 201q0 64 19.5 113t55.5 83t87 51.5t114 18.5q131 -2 196.5 -73t65.5 -193v-43zM299 382q-30 0 -50.5 -17
t-28.5 -43h155q-7 26 -27 43t-49 17z" />
    <glyph glyph-name="edieresis" unicode="&#xeb;" horiz-adv-x="584" 
d="M327 682q0 19 8 36.5t21.5 30.5t32 21t38.5 8q19 0 36.5 -8t30.5 -21t21 -30.5t8 -36.5q0 -20 -8 -38t-21 -31.5t-30.5 -21.5t-36.5 -8q-20 0 -38.5 8t-32 21.5t-21.5 31.5t-8 38zM76 682q0 19 8 36.5t21.5 30.5t31.5 21t39 8q19 0 36.5 -8t30.5 -21t21 -30.5t8 -36.5
q0 -20 -8 -38t-21 -31.5t-30.5 -21.5t-36.5 -8q-21 0 -39 8t-31.5 21.5t-21.5 31.5t-8 38zM561 218h-344q4 -35 29 -56t57 -21q23 0 43 10t28 36h185q-8 -98 -76 -146.5t-183 -48.5q-131 0 -204 68t-73 201q0 64 19.5 113t55.5 83t87 51.5t114 18.5q131 -2 196.5 -73
t65.5 -193v-43zM299 382q-30 0 -50.5 -17t-28.5 -43h155q-7 26 -27 43t-49 17z" />
    <glyph glyph-name="igrave" unicode="&#xec;" horiz-adv-x="285" 
d="M132 796l111 -209h-172l-139 209h200zM42 521h201v-521h-201v521z" />
    <glyph glyph-name="iacute" unicode="&#xed;" horiz-adv-x="285" 
d="M214 587h-172l111 209h200zM42 521h201v-521h-201v521z" />
    <glyph glyph-name="icircumflex" unicode="&#xee;" horiz-adv-x="285" 
d="M357 568h-162l-52 83h-4l-52 -83h-159l151 232h126zM42 521h201v-521h-201v521z" />
    <glyph glyph-name="idieresis" unicode="&#xef;" horiz-adv-x="285" 
d="M-81 682q0 19 8 36.5t21.5 30.5t32 21t38.5 8q19 0 36.5 -8t30.5 -21t21 -30.5t8 -36.5q0 -20 -8 -38t-21 -31.5t-30.5 -21.5t-36.5 -8q-20 0 -38.5 8t-32 21.5t-21.5 31.5t-8 38zM171 682q0 19 8 36.5t21.5 30.5t31.5 21t38 8q19 0 36.5 -8t30.5 -21t21 -30.5t8 -36.5
q0 -20 -8 -38t-21 -31.5t-30.5 -21.5t-36.5 -8q-20 0 -38 8t-31.5 21.5t-21.5 31.5t-8 38zM42 521h201v-521h-201v521z" />
    <glyph glyph-name="eth" unicode="&#xf0;" horiz-adv-x="655" 
d="M634 650l-88 -52q40 -44 63.5 -101.5t23.5 -132.5q0 -83 -19.5 -151.5t-58.5 -117.5t-97 -76t-136 -27q-63 0 -116.5 17t-92.5 49.5t-61 78t-22 102.5q0 39 15.5 77t45 68t71 49t92.5 19q72 0 120 -18.5t82 -52.5h2q0 37 -12 72.5t-37 63.5l-97 -56l-31 59l68 39
q-28 14 -71 17v132q57 0 112 -16t101 -48l111 64zM326 138q40 0 68.5 27t28.5 68q0 21 -7.5 38.5t-21 30.5t-32 20.5t-39.5 7.5q-40 0 -67.5 -27.5t-27.5 -69.5q0 -19 7.5 -36.5t21 -30.5t31.5 -20.5t38 -7.5z" />
    <glyph glyph-name="ntilde" unicode="&#xf1;" horiz-adv-x="616" 
d="M240 652q-14 0 -22 -13t-8 -48h-147q0 48 7 85t24.5 62t46.5 38t72 13q27 0 48.5 -10t41 -22t39 -22t40.5 -10q17 0 26.5 13.5t9.5 48.5h146q0 -48 -8 -84.5t-26.5 -62t-48 -38.5t-72.5 -13q-27 0 -49 10t-41.5 21.5t-38.5 21.5t-40 10zM396 527q91 0 139 -49.5
t48 -147.5v-330h-200v287q0 40 -19 64t-57 24q-35 0 -55 -25t-20 -63v-287h-199v521h194v-93h1q20 57 63 78t105 21z" />
    <glyph glyph-name="ograve" unicode="&#xf2;" horiz-adv-x="594" 
d="M326 796l111 -209h-172l-139 209h200zM296 -8q-65 0 -117.5 17t-89 50.5t-56 83.5t-19.5 116t19.5 116t56 84t89 51t117.5 17t117.5 -17t89.5 -51t57 -84t20 -116t-20 -116t-57 -83.5t-89.5 -50.5t-117.5 -17zM296 141q16 0 32 7t28.5 21t20.5 36.5t8 53.5t-8 53.5
t-20.5 37.5t-28.5 22t-32 7t-31.5 -7t-28 -22t-20 -37.5t-7.5 -53.5t7.5 -53.5t20 -36.5t28 -21t31.5 -7z" />
    <glyph glyph-name="oacute" unicode="&#xf3;" horiz-adv-x="594" 
d="M374 587h-172l110 209h201zM296 -8q-65 0 -117.5 17t-89 50.5t-56 83.5t-19.5 116t19.5 116t56 84t89 51t117.5 17t117.5 -17t89.5 -51t57 -84t20 -116t-20 -116t-57 -83.5t-89.5 -50.5t-117.5 -17zM296 141q16 0 32 7t28.5 21t20.5 36.5t8 53.5t-8 53.5t-20.5 37.5
t-28.5 22t-32 7t-31.5 -7t-28 -22t-20 -37.5t-7.5 -53.5t7.5 -53.5t20 -36.5t28 -21t31.5 -7z" />
    <glyph glyph-name="ocircumflex" unicode="&#xf4;" horiz-adv-x="594" 
d="M510 568h-162l-52 83h-4l-52 -83h-159l151 232h125zM296 -8q-65 0 -117.5 17t-89 50.5t-56 83.5t-19.5 116t19.5 116t56 84t89 51t117.5 17t117.5 -17t89.5 -51t57 -84t20 -116t-20 -116t-57 -83.5t-89.5 -50.5t-117.5 -17zM296 141q16 0 32 7t28.5 21t20.5 36.5t8 53.5
t-8 53.5t-20.5 37.5t-28.5 22t-32 7t-31.5 -7t-28 -22t-20 -37.5t-7.5 -53.5t7.5 -53.5t20 -36.5t28 -21t31.5 -7z" />
    <glyph glyph-name="otilde" unicode="&#xf5;" horiz-adv-x="594" 
d="M220 652q-14 0 -22 -13t-8 -48h-148q0 48 7 85t24.5 62t46.5 38t72 13q27 0 48.5 -10t41.5 -22t39 -22t41 -10q16 0 25.5 13.5t9.5 48.5h146q0 -96 -34.5 -147t-119.5 -51q-27 0 -49 10t-42 21.5t-39 21.5t-39 10zM296 -8q-65 0 -117.5 17t-89 50.5t-56 83.5t-19.5 116
t19.5 116t56 84t89 51t117.5 17t117.5 -17t89.5 -51t57 -84t20 -116t-20 -116t-57 -83.5t-89.5 -50.5t-117.5 -17zM296 141q16 0 32 7t28.5 21t20.5 36.5t8 53.5t-8 53.5t-20.5 37.5t-28.5 22t-32 7t-31.5 -7t-28 -22t-20 -37.5t-7.5 -53.5t7.5 -53.5t20 -36.5t28 -21
t31.5 -7z" />
    <glyph glyph-name="odieresis" unicode="&#xf6;" horiz-adv-x="594" 
d="M74 682q0 19 8 36.5t21.5 30.5t31.5 21t38 8q19 0 36.5 -8t30.5 -21t21 -30.5t8 -36.5q0 -20 -8 -38t-21 -31.5t-30.5 -21.5t-36.5 -8q-20 0 -38 8t-31.5 21.5t-21.5 31.5t-8 38zM325 682q0 19 8 36.5t21.5 30.5t31.5 21t38 8q19 0 36.5 -8t30.5 -21t21 -30.5t8 -36.5
q0 -20 -8 -38t-21 -31.5t-30.5 -21.5t-36.5 -8q-20 0 -38 8t-31.5 21.5t-21.5 31.5t-8 38zM296 -8q-65 0 -117.5 17t-89 50.5t-56 83.5t-19.5 116t19.5 116t56 84t89 51t117.5 17t117.5 -17t89.5 -51t57 -84t20 -116t-20 -116t-57 -83.5t-89.5 -50.5t-117.5 -17zM296 141
q16 0 32 7t28.5 21t20.5 36.5t8 53.5t-8 53.5t-20.5 37.5t-28.5 22t-32 7t-31.5 -7t-28 -22t-20 -37.5t-7.5 -53.5t7.5 -53.5t20 -36.5t28 -21t31.5 -7z" />
    <glyph glyph-name="divide" unicode="&#xf7;" horiz-adv-x="596" 
d="M188 513q0 42 28.5 71.5t80.5 29.5t80 -29.5t28 -71.5t-28 -71t-80 -29t-80.5 29t-28.5 71zM34 252v129h528v-129h-528zM188 119q0 42 28.5 71.5t80.5 29.5t80 -29.5t28 -71.5t-28 -71t-80 -29t-80.5 29t-28.5 71z" />
    <glyph glyph-name="oslash" unicode="&#xf8;" horiz-adv-x="594" 
d="M296 527q65 0 117.5 -17.5t89.5 -51t57 -83.5t20 -116t-20 -116t-56.5 -83.5t-89 -50.5t-118.5 -17q-65 0 -117 17t-89 50.5t-56.5 83.5t-19.5 116t20 116t56.5 83.5t89 51t116.5 17.5zM209 259q0 -44 15 -71l68 191h-1q-31 -2 -56.5 -31t-25.5 -89zM385 259q0 21 -4 38
t-10 30l-68 -186q15 2 29.5 9.5t26 22t19 36t7.5 50.5z" />
    <glyph glyph-name="ugrave" unicode="&#xf9;" horiz-adv-x="616" 
d="M340 796l110 -209h-172l-139 209h201zM232 521v-289q0 -42 19 -65.5t56 -23.5q36 0 56 25.5t20 63.5v289h200v-521h-194v93h-3q-20 -58 -62 -79.5t-104 -21.5q-91 0 -139 50.5t-48 148.5v330h199z" />
    <glyph glyph-name="uacute" unicode="&#xfa;" horiz-adv-x="616" 
d="M388 587h-172l110 209h201zM232 521v-289q0 -42 19 -65.5t56 -23.5q36 0 56 25.5t20 63.5v289h200v-521h-194v93h-3q-20 -58 -62 -79.5t-104 -21.5q-91 0 -139 50.5t-48 148.5v330h199z" />
    <glyph glyph-name="ucircumflex" unicode="&#xfb;" horiz-adv-x="616" 
d="M525 568h-162l-52 83h-4l-52 -83h-159l151 232h126zM232 521v-289q0 -42 19 -65.5t56 -23.5q36 0 56 25.5t20 63.5v289h200v-521h-194v93h-3q-20 -58 -62 -79.5t-104 -21.5q-91 0 -139 50.5t-48 148.5v330h199z" />
    <glyph glyph-name="udieresis" unicode="&#xfc;" horiz-adv-x="616" 
d="M338 682q0 19 8 36.5t21.5 30.5t31.5 21t39 8q19 0 36 -8t30.5 -21t21.5 -30.5t8 -36.5q0 -20 -8 -38t-21.5 -31.5t-30.5 -21.5t-36 -8q-21 0 -39 8t-31.5 21.5t-21.5 31.5t-8 38zM87 682q0 19 8 36.5t21.5 30.5t31.5 21t39 8q19 0 36 -8t30 -21t21 -30.5t8 -36.5
q0 -20 -8 -38t-21 -31.5t-30 -21.5t-36 -8q-21 0 -39 8t-31.5 21.5t-21.5 31.5t-8 38zM232 521v-289q0 -42 19 -65.5t56 -23.5q36 0 56 25.5t20 63.5v289h200v-521h-194v93h-3q-20 -58 -62 -79.5t-104 -21.5q-91 0 -139 50.5t-48 148.5v330h199z" />
    <glyph glyph-name="yacute" unicode="&#xfd;" horiz-adv-x="566" 
d="M374 587h-172l110 209h201zM573 521l-171 -521q-28 -98 -86.5 -145.5t-136.5 -47.5q-12 0 -27 0.5t-30.5 2t-30 3.5t-26.5 4v128q15 -2 27.5 -3.5t26.5 -1.5q15 0 25.5 5t17.5 11.5t11.5 14t5.5 13.5l5 17l-191 520h214l78 -350h3l76 350h209z" />
    <glyph glyph-name="thorn" unicode="&#xfe;" horiz-adv-x="618" 
d="M235 682v-215h2q31 32 71.5 46t94.5 14q38 0 74.5 -17t64.5 -50.5t45 -84.5t17 -119q0 -65 -16 -114.5t-45.5 -82.5t-71 -50t-91.5 -17q-35 0 -73.5 11t-69.5 43h-2v-223h-202v859h202zM229 261q0 -57 23.5 -86t65.5 -29q40 0 64.5 29t24.5 84q0 57 -23.5 86t-65.5 29
t-65.5 -28t-23.5 -85z" />
    <glyph glyph-name="ydieresis" unicode="&#xff;" horiz-adv-x="566" 
d="M65 682q0 19 8 36.5t21.5 30.5t32 21t38.5 8q19 0 36.5 -8t30.5 -21t21 -30.5t8 -36.5q0 -20 -8 -38t-21 -31.5t-30.5 -21.5t-36.5 -8q-20 0 -38.5 8t-32 21.5t-21.5 31.5t-8 38zM317 682q0 19 8 36.5t21.5 30.5t31.5 21t38 8q19 0 36.5 -8t30.5 -21t21 -30.5t8 -36.5
q0 -20 -8 -38t-21 -31.5t-30.5 -21.5t-36.5 -8q-20 0 -38 8t-31.5 21.5t-21.5 31.5t-8 38zM573 521l-171 -521q-28 -98 -86.5 -145.5t-136.5 -47.5q-12 0 -27 0.5t-30.5 2t-30 3.5t-26.5 4v128q15 -2 27.5 -3.5t26.5 -1.5q15 0 25.5 5t17.5 11.5t11.5 14t5.5 13.5l5 17
l-191 520h214l78 -350h3l76 350h209z" />
    <glyph glyph-name="Dcroat" unicode="&#x110;" horiz-adv-x="752" 
d="M379 700q80 0 144.5 -22t110.5 -65.5t70.5 -108t24.5 -148.5t-24.5 -150.5t-70.5 -112t-110.5 -69.5t-144.5 -24h-288v293h-81v122h81v285h288zM351 156q77 0 117 51.5t40 148.5q0 88 -41.5 138t-115.5 50h-54v-129h125v-122h-125v-137h54z" />
    <glyph glyph-name="dcroat" unicode="&#x111;" horiz-adv-x="618" 
d="M232 527q92 0 149 -69h2v108h-214v94h214v70h202v-70h58v-94h-58v-566h-193v57h-3q-24 -26 -67 -45.5t-94 -19.5q-43 0 -82 17t-68 50.5t-46.5 84.5t-17.5 119q0 65 16 114t45 82.5t69 50.5t88 17zM300 145q42 0 65.5 28t23.5 85t-23.5 86t-65.5 29q-40 0 -64.5 -29
t-24.5 -85q0 -57 24 -85.5t65 -28.5z" />
    <glyph glyph-name="dotlessi" unicode="&#x131;" horiz-adv-x="285" 
d="M42 521h201v-521h-201v521z" />
    <glyph glyph-name="Lslash" unicode="&#x141;" horiz-adv-x="594" 
d="M302 700v-285h162v-122h-162v-137h290v-156h-496v293h-82v122h82v285h206z" />
    <glyph glyph-name="lslash" unicode="&#x142;" horiz-adv-x="479" 
d="M342 700v-285h123v-122h-123v-293h-206v293h-122v122h122v285h206z" />
    <glyph glyph-name="OE" unicode="&#x152;" horiz-adv-x="1045" 
d="M678 544q29 -52 38 -116h241v-155h-241q-5 -33 -14.5 -62t-23.5 -55h337v-156h-557q-21 -4 -43 -6t-45 -2q-81 0 -146.5 24.5t-111.5 71t-71 113t-25 150.5t25 150t71 112t111.5 70.5t146.5 24.5q23 0 45 -2t43 -6h557v-156h-337zM232 351q0 -92 36.5 -141t101.5 -49
t101.5 49t36.5 141q0 91 -36.5 139t-101.5 48t-101.5 -48t-36.5 -139z" />
    <glyph glyph-name="oe" unicode="&#x153;" horiz-adv-x="944" 
d="M921 218h-344v-2q5 -35 29.5 -55t56.5 -20q24 0 44 10t27 36h186q-8 -97 -77 -146t-183 -49q-28 0 -56 4.5t-52.5 13.5t-43.5 22t-29 29q-10 -16 -29.5 -29t-44 -22t-53 -13.5t-56.5 -4.5q-65 0 -117 17t-89 50.5t-56.5 83.5t-19.5 116t20 116t56.5 83.5t89 51
t116.5 17.5q57 0 107 -15.5t79 -56.5q27 40 75.5 55.5t101.5 16.5q131 -2 196.5 -73t65.5 -193v-43zM659 382q-30 0 -50.5 -17t-28.5 -43h155q-7 26 -26.5 43t-49.5 17zM296 141q16 0 32 7t28.5 21.5t20.5 36.5t8 53t-8 53.5t-20.5 37.5t-28.5 22t-32 7t-31.5 -7t-28 -22
t-20 -37.5t-7.5 -53.5t7.5 -53t20 -36.5t28 -21.5t31.5 -7z" />
    <glyph glyph-name="Scaron" unicode="&#x160;" horiz-adv-x="644" 
d="M254 750l-152 232h160l52 -83h4l52 83h162l-153 -232h-125zM217 224q5 -33 30.5 -53t70.5 -20q94 0 94 55q0 12 -4.5 20.5t-16 14.5t-31 11t-49.5 11l-69 14q-106 20 -162.5 72t-56.5 134q0 53 22 94.5t61 70.5t92 44.5t116 15.5q70 0 124.5 -16.5t92 -47t57 -73
t19.5 -93.5h-198q-1 32 -25.5 52t-66.5 20q-44 0 -64.5 -14.5t-20.5 -37.5t22 -37.5t76 -23.5l70 -13q114 -20 169.5 -67.5t55.5 -132.5q0 -54 -21 -97t-61 -73t-97.5 -46t-130.5 -16q-68 0 -122.5 16t-93 46t-59.5 73t-21 97h198z" />
    <glyph glyph-name="scaron" unicode="&#x161;" horiz-adv-x="542" 
d="M206 568l-151 232h159l52 -84h4l52 84h162l-152 -232h-126zM211 161q14 -35 63 -35q47 0 47 27q0 3 -0.5 7t-5 7.5t-14 7t-27.5 6.5l-90 17q-75 14 -116.5 54t-41.5 100q0 47 20 80t54 54t77.5 31t89.5 10t87 -9.5t73 -30t52.5 -53t25.5 -79.5h-182q-4 18 -18.5 28
t-37.5 10q-18 0 -32 -6.5t-14 -23.5q0 -4 1 -8t5.5 -7.5t14.5 -7.5t28 -7l89 -16q83 -16 123.5 -50t40.5 -92q0 -83 -62.5 -133t-186.5 -50q-46 0 -89 8.5t-77.5 28t-58 52t-30.5 80.5h192z" />
    <glyph glyph-name="Ydieresis" unicode="&#x178;" horiz-adv-x="667" 
d="M113 864q0 19 8 36t21.5 30t31.5 21t39 8q19 0 36 -8t30 -21t21 -30t8 -36q0 -21 -8 -39t-21 -31.5t-30 -21.5t-36 -8q-42 0 -71 29t-29 71zM364 864q0 19 8 36t21.5 30t31.5 21t39 8q19 0 36 -8t30 -21t21 -30t8 -36q0 -21 -8 -39t-21 -31.5t-30 -21.5t-36 -8
q-42 0 -71 29t-29 71zM437 278v-278h-206v278l-238 422h240l99 -222h4l98 222h240z" />
    <glyph glyph-name="Zcaron" unicode="&#x17d;" horiz-adv-x="615" 
d="M254 750l-152 232h160l52 -83h4l52 83h162l-153 -232h-125zM585 156v-156h-555v130l299 410v4h-296v156h541v-130l-289 -412v-2h300z" />
    <glyph glyph-name="zcaron" unicode="&#x17e;" horiz-adv-x="521" 
d="M207 568l-151 232h160l51 -84h5l51 84h163l-153 -232h-126zM30 101l220 269v4h-220v147h461v-118l-202 -252v-4h202v-147h-461v101z" />
    <glyph glyph-name="florin" unicode="&#x192;" horiz-adv-x="408" 
d="M383 505v-130h-79v-203q0 -49 -14.5 -83.5t-40.5 -56t-61.5 -31t-76.5 -9.5q-44 0 -97 11v136q26 -3 43 -3q25 0 36 9t11 32v198h-78v130h78v22q0 49 14.5 83t40.5 55.5t61.5 31t77.5 9.5q23 0 47 -2.5t49 -7.5v-137q-7 2 -15.5 2.5t-16.5 0.5q-29 0 -43.5 -7t-14.5 -34
v-16h79z" />
    <glyph glyph-name="circumflex" unicode="&#x2c6;" horiz-adv-x="539" 
d="M484 568h-162l-52 83h-4l-52 -83h-159l151 232h126z" />
    <glyph glyph-name="caron" unicode="&#x2c7;" horiz-adv-x="539" 
d="M206 568l-151 232h159l52 -84h4l52 84h162l-152 -232h-126z" />
    <glyph glyph-name="breve" unicode="&#x2d8;" horiz-adv-x="462" 
d="M180 753q0 -23 12 -37.5t37 -14.5q27 0 39 14.5t12 37.5h127q0 -37 -12.5 -68.5t-35.5 -54t-56 -35t-74 -12.5q-39 0 -71.5 12.5t-55 35t-35 54t-12.5 68.5h125z" />
    <glyph glyph-name="dotaccent" unicode="&#x2d9;" horiz-adv-x="305" 
d="M55 632q0 19 8 36t21.5 30t31.5 21t38 8q19 0 36.5 -8t30.5 -21t21 -30t8 -36q0 -21 -8 -39t-21 -31.5t-30.5 -21.5t-36.5 -8q-20 0 -38 8t-31.5 21.5t-21.5 31.5t-8 39z" />
    <glyph glyph-name="ring" unicode="&#x2da;" horiz-adv-x="410" 
d="M55 726q0 64 40.5 104.5t110.5 40.5q67 0 108 -40.5t41 -104.5t-41 -103.5t-108 -39.5q-68 0 -109.5 39.5t-41.5 103.5zM162 726q0 -19 10.5 -30.5t33.5 -11.5q22 0 31.5 11.5t9.5 30.5q0 20 -10.5 32t-30.5 12q-23 0 -33.5 -12t-10.5 -32z" />
    <glyph glyph-name="ogonek" unicode="&#x2db;" horiz-adv-x="280" 
 />
    <glyph glyph-name="tilde" unicode="&#x2dc;" horiz-adv-x="610" 
d="M232 652q-14 0 -22 -13t-8 -48h-147q0 48 7 85t24.5 62t46.5 38t72 13q27 0 48.5 -10t41 -22t39 -22t40.5 -10q17 0 26 13.5t9 48.5h146q0 -96 -34.5 -147t-119.5 -51q-27 0 -49 10t-41.5 21.5t-38.5 21.5t-40 10z" />
    <glyph glyph-name="hungarumlaut" unicode="&#x2dd;" horiz-adv-x="608" 
d="M55 567l110 229h173l-139 -229h-144zM269 567l110 229h174l-140 -229h-144z" />
    <glyph glyph-name="uni03BC" unicode="&#x3bc;" horiz-adv-x="613" 
d="M232 521v-289q0 -42 19 -65.5t56 -23.5q36 0 56 25.5t20 63.5v289h200v-521h-194v79h-3q-8 -38 -36.5 -62.5t-69.5 -24.5q-4 0 -12.5 1t-17 2.5t-16 4t-9.5 5.5h-1v-182h-191v698h199z" />
    <glyph glyph-name="uni0E01" unicode="&#xe01;" horiz-adv-x="628" 
d="M22 316q0 135 73.5 200t203.5 65q72 0 127.5 -17t93.5 -48t58 -75.5t20 -99.5v-341h-202v319q0 45 -23.5 74.5t-73.5 29.5q-38 0 -63.5 -20t-30.5 -58l102 -22v-45q-34 -17 -45.5 -45t-11.5 -75v-158h-202v144q0 57 35.5 92t96.5 44l-158 25v11z" />
    <glyph glyph-name="uni0E02" unicode="&#xe02;" horiz-adv-x="604" 
d="M574 577v-369q0 -49 -15.5 -89t-49 -68t-86 -43.5t-125.5 -15.5t-125.5 15.5t-86 43.5t-49 68t-15.5 89v13q0 46 11.5 78.5t29.5 55t40 35.5t42 19q0 11 -6 17t-15 9t-19.5 3.5t-20.5 0.5h-45v138h91q67 0 103 -17.5t52.5 -42t19.5 -51.5t3 -46v-25q-37 -20 -60.5 -55
t-23.5 -95v-6q0 -47 16.5 -66.5t57.5 -19.5q42 0 58 19.5t16 66.5v338h202z" />
    <glyph glyph-name="uni0E03" unicode="&#xe03;" horiz-adv-x="656" 
d="M626 577v-369q0 -49 -15.5 -89t-49 -68t-86 -43.5t-125.5 -15.5t-125.5 15.5t-86 43.5t-49 68t-15.5 89v13q0 46 13.5 80t35.5 59t49.5 41t55.5 25q0 23 -10 38q-30 -50 -97 -50q-22 0 -44 6.5t-39 21.5t-27.5 40t-10.5 61v34h125v-12q0 -19 9.5 -30t23.5 -11
q15 0 24.5 11.5t14.5 41.5h35q42 0 68.5 -13t42 -34.5t21.5 -50t6 -59.5v-25q-37 -20 -65.5 -55.5t-28.5 -94.5v-6q0 -47 16.5 -66.5t57.5 -19.5q42 0 58 19.5t16 66.5v338h202z" />
    <glyph glyph-name="uni0E04" unicode="&#xe04;" horiz-adv-x="661" 
d="M24 352q0 49 20.5 91t59.5 72.5t96 48t130 17.5q74 0 130 -16.5t94 -46.5t57.5 -71t19.5 -90v-357h-202v325q0 45 -29 71.5t-70 26.5q-54 0 -79 -31t-25 -80v-69.5t1 -61.5q8 28 20.5 53.5t29.5 45.5t38 32t47 12h25v-148h-13q-27 0 -45.5 -5t-32 -14.5t-24 -24.5
t-20.5 -36v-96h-202v96q-10 59 -18 117.5t-8 138.5z" />
    <glyph glyph-name="uni0E05" unicode="&#xe05;" horiz-adv-x="661" 
d="M459 581q50 0 83 -15.5t52.5 -42.5t28 -63.5t8.5 -78.5v-381h-202v375q0 26 -9.5 37t-23.5 11q-15 0 -24.5 -11.5t-7.5 -28.5h-73q0 17 -8.5 28.5t-23.5 11.5t-24.5 -16t-9.5 -42v-90.5t2 -92.5q8 28 20.5 53.5t29.5 45t38.5 31.5t46.5 12h25v-148h-13q-27 0 -45.5 -5
t-32 -14.5t-24 -24.5t-20.5 -36v-96h-202v96q-10 60 -18 127t-8 148q0 42 8 80.5t27.5 67t52.5 45.5t82 17q112 0 134 -84q21 84 131 84z" />
    <glyph glyph-name="uni0E06" unicode="&#xe06;" horiz-adv-x="678" 
d="M74 0v221q0 46 13.5 80t35.5 59t49.5 41t55.5 25q0 23 -10 38q-30 -50 -97 -50q-22 0 -44 6.5t-39 21.5t-27.5 40t-10.5 61v34h125v-12q0 -19 9.5 -30t23.5 -11q15 0 24.5 11.5t14.5 41.5h35q42 0 68.5 -13t42 -34.5t21.5 -50t6 -59.5v-25q-18 -10 -35 -23.5t-30 -31
t-21 -40t-8 -51.5q0 -46 21.5 -71t61.5 -25q48 0 67.5 24t19.5 78v322h202v-379q0 -48 -14.5 -86t-40.5 -65t-61 -41t-76 -14q-74 0 -121 31.5t-63 87.5v-111h-198z" />
    <glyph glyph-name="uni0E07" unicode="&#xe07;" horiz-adv-x="623" 
d="M367 577q59 0 104 -6.5t75.5 -26t46 -54.5t15.5 -92q0 -39 -13.5 -88t-36 -102t-51 -106.5t-58.5 -101.5h-248l-206 577h199l140 -439h2q44 85 58 146t14 99q0 26 -12 41t-38 15h-61v138h70z" />
    <glyph glyph-name="uni0E08" unicode="&#xe08;" horiz-adv-x="586" 
d="M27 201v114h152q26 0 41 -11t23 -30l58 -136h2q28 53 46.5 105t18.5 90q0 26 -8 42.5t-21 26t-28 13.5t-29 4q-12 0 -25 -3t-24 -9t-19 -16t-11 -25h-191q4 50 27 90t60.5 67.5t85.5 42.5t102 15q79 0 132.5 -21t86 -54.5t46.5 -74.5t14 -82q0 -36 -10 -70.5t-30 -75
t-49 -89.5t-67 -114h-215l-88 183q-4 8 -10 13t-19 5h-51z" />
    <glyph glyph-name="uni0E09" unicode="&#xe09;" horiz-adv-x="640" 
d="M412 0v111q-16 -56 -63 -87.5t-121 -31.5q-41 0 -76 14t-61 41t-40.5 65t-14.5 86v92h202v-35q0 -54 19.5 -78t67.5 -24q42 0 62.5 26.5t20.5 75.5v63q0 31 -7.5 50.5t-21 31t-32 16t-40.5 4.5q-35 0 -58.5 -14t-32.5 -40h-192q5 48 28.5 87.5t61 68t87 44t106.5 15.5
q146 0 224.5 -63t78.5 -201v-317h-198z" />
    <glyph glyph-name="uni0E0A" unicode="&#xe0a;" horiz-adv-x="604" 
d="M39 577h91q67 0 103 -17.5t52.5 -42t19.5 -51.5t3 -46v-25q-37 -20 -60.5 -55t-23.5 -95v-6q0 -47 16.5 -66.5t57.5 -19.5q42 0 58 19.5t16 66.5v72q0 32 -8 49.5t-31 31.5v73q20 6 31 16.5t17 25.5t8 35t3 45h202q-2 -61 -22.5 -99t-71.5 -56q41 -14 57.5 -48.5
t16.5 -95.5v-80q0 -49 -15.5 -89t-49 -68t-86 -43.5t-125.5 -15.5t-125.5 15.5t-86 43.5t-49 68t-15.5 89v13q0 46 11.5 78.5t29.5 55t40 35.5t42 19q0 11 -6 17t-15 9t-19.5 3.5t-20.5 0.5h-45v138z" />
    <glyph glyph-name="uni0E0B" unicode="&#xe0b;" horiz-adv-x="656" 
d="M0 577h125v-12q0 -19 4.5 -30t18.5 -11q15 0 24.5 11.5t14.5 41.5h35q42 0 68.5 -13t42 -34.5t21.5 -50t6 -59.5v-25q-37 -20 -60.5 -55t-23.5 -95v-6q0 -47 16.5 -66.5t57.5 -19.5q42 0 58 19.5t16 66.5v72q0 32 -8 49.5t-31 31.5v73q20 6 31 16.5t17 25.5t8 35t3 45
h202q-2 -61 -22.5 -99t-71.5 -56q41 -14 57.5 -48.5t16.5 -95.5v-80q0 -49 -15.5 -89t-49 -68t-86 -43.5t-125.5 -15.5t-125.5 15.5t-86 43.5t-49 68t-15.5 89v13q0 46 12 80t32 59t46 41t54 25q0 23 -10 38q-30 -50 -97 -50q-22 0 -42.5 6.5t-35.5 21.5t-24 40t-9 61v34z
" />
    <glyph glyph-name="uni0E0C" unicode="&#xe0c;" horiz-adv-x="962" 
d="M28 140q0 30 12.5 54t33.5 41.5t48.5 29t57.5 15.5l-158 25v11q0 135 73.5 200t203.5 65q144 0 219 -64.5t75 -175.5v-72q0 -22 4 -43t12 -37.5t22 -26t33 -9.5q34 0 50 24t16 78v322h202v-379q0 -97 -46.5 -151.5t-134.5 -54.5q-63 0 -106 27.5t-60 82.5v-102h-194v319
q0 45 -21 74.5t-71 29.5q-38 0 -63.5 -20t-30.5 -58l102 -22v-45q-32 -17 -52 -36.5t-20 -47.5q0 -23 14 -40t39 -17h26v-137h-88q-34 0 -69.5 6t-64 21.5t-46.5 43t-18 69.5z" />
    <glyph glyph-name="uni0E0D" unicode="&#xe0d;" horiz-adv-x="962" 
d="M28 140q0 30 12.5 54t33.5 41.5t48.5 29t57.5 15.5l-158 25v11q0 135 73.5 200t203.5 65q144 0 219 -64.5t75 -175.5v-96q0 -53 17.5 -72.5t51.5 -19.5t51 19.5t17 72.5v332h202v-369q0 -48 -16 -87.5t-49.5 -68t-84.5 -44.5t-120 -16t-120 16t-84.5 44.5t-50 68
t-16.5 87.5v111q0 45 -21 74.5t-71 29.5q-38 0 -63.5 -20t-30.5 -58l102 -22v-45q-32 -17 -52 -36.5t-20 -47.5q0 -23 14 -40t39 -17h26v-137h-88q-34 0 -69.5 6t-64 21.5t-46.5 43t-18 69.5zM903 -106v-114h-317q-60 0 -96 12.5t-55 34.5t-24.5 50t-5.5 60v18h169v-18
q0 -16 4 -24.5t12 -13t21.5 -5t31.5 -0.5h260z" />
    <glyph glyph-name="uni0E0E" unicode="&#xe0e;" horiz-adv-x="632" 
d="M26 316q0 135 73.5 200t203.5 65q72 0 127.5 -17t93.5 -48t58 -75.5t20 -99.5v-541h-157q-47 29 -82 40t-61 11q-36 0 -53.5 -16t-19.5 -35h-187q4 51 20.5 85.5t43 55.5t60 30t72.5 9q41 0 82.5 -9t79.5 -25v373q0 45 -23.5 74.5t-73.5 29.5q-38 0 -63.5 -20t-30.5 -58
l107 -22v-45q-29 -13 -40.5 -36.5t-11.5 -59.5v-38q0 -75 -41 -109.5t-126 -34.5h-82v138h21q38 0 38 45v6q0 38 27.5 62t87.5 29l-163 25v11z" />
    <glyph glyph-name="uni0E0F" unicode="&#xe0f;" horiz-adv-x="632" 
d="M194 -30q2 -20 12.5 -34t33.5 -14q24 0 37.5 13.5t22.5 34.5h43l57 -54v403q0 45 -23.5 74.5t-73.5 29.5q-38 0 -63.5 -20t-30.5 -58l107 -22v-45q-29 -13 -40.5 -36.5t-11.5 -59.5v-38q0 -75 -41 -109.5t-126 -34.5h-82v138h21q38 0 38 45v6q0 38 27.5 62t87.5 29
l-163 25v11q0 135 73.5 200t203.5 65q72 0 127.5 -17t93.5 -48t58 -75.5t20 -99.5v-541h-202l-67 63q-17 -30 -56.5 -48.5t-90.5 -18.5q-155 0 -171 174h179z" />
    <glyph glyph-name="uni0E10" unicode="&#xe10;" horiz-adv-x="588" 
d="M636 620l-118 -147q48 -54 48 -124q0 -36 -10 -70.5t-30 -75t-49 -89.5t-67 -114h-215l-88 183q-4 8 -10 13t-19 5h-51v114h152q26 0 41 -11t23 -30l58 -136h2q28 53 46.5 105t18.5 90q0 26 -8 42.5t-21 26t-28 13.5t-29 4q-12 0 -25 -3t-24 -9t-19 -16t-11 -25h-191
q4 50 27 90t60.5 67.5t85.5 42.5t102 15q35 0 63.5 -5.5t52.5 -16.5l49 61h184zM547 -50v-170h-162l-67 63q-17 -30 -56.5 -48.5t-90.5 -18.5q-79 0 -117.5 43t-46.5 131h172q2 -20 12.5 -34t33.5 -14q24 0 37.5 13.5t22.5 34.5h43l57 -54v54h162z" />
    <glyph glyph-name="uni0E11" unicode="&#xe11;" horiz-adv-x="691" 
d="M0 577h125v-12q0 -19 9.5 -30t23.5 -11q15 0 24.5 11.5t14.5 41.5h45q46 0 74 -19t33 -52q46 40 85 57.5t82 17.5q41 0 68.5 -14t44.5 -36.5t24.5 -50.5t7.5 -56v-424h-202v366q0 21 -7 31t-24 10q-19 0 -39.5 -16t-45.5 -41q-28 -28 -39.5 -64t-11.5 -95v-191h-202v191
q0 38 11.5 71.5t30.5 62.5t44 54.5t52 47.5q0 24 -10 37q-30 -50 -97 -50q-22 0 -44 6.5t-39 21.5t-27.5 40t-10.5 61v34z" />
    <glyph glyph-name="uni0E12" unicode="&#xe12;" horiz-adv-x="1000" 
d="M407 269q0 -123 -51 -187.5t-151 -81.5h-175v381q0 42 8 78.5t27 63.5t51 42.5t81 15.5q110 0 131 -84q21 84 131 84q50 0 83 -15.5t52.5 -42.5t28 -63.5t8.5 -78.5v-112q0 -22 4 -43t12 -37.5t22 -26t33 -9.5q34 0 50 24t16 78v322h202v-379q0 -97 -46.5 -151.5
t-134.5 -54.5q-63 0 -106 27.5t-60 82.5v-102h-194v375q0 26 -9.5 37t-23.5 11q-15 0 -24.5 -11.5t-7.5 -28.5h-72q2 17 -7.5 28.5t-24.5 11.5q-14 0 -23.5 -11t-9.5 -37v-268q11 4 20 14t15.5 23.5t10.5 29t4 31.5h-28v114h158v-50z" />
    <glyph glyph-name="uni0E13" unicode="&#xe13;" horiz-adv-x="962" 
d="M932 0h-194v102q-17 -55 -60 -82.5t-106 -27.5q-88 0 -134.5 54.5t-46.5 151.5v121q0 45 -21 74.5t-71 29.5q-38 0 -63.5 -20t-30.5 -58l102 -22v-45q-32 -17 -52 -36.5t-20 -47.5q0 -23 14 -40t39 -17h26v-137h-88q-34 0 -69.5 6t-64 21.5t-46.5 43t-18 69.5
q0 30 12.5 54t33.5 41.5t48.5 29t57.5 15.5l-158 25v11q0 135 73.5 200t203.5 65q144 0 219 -64.5t75 -175.5v-86q0 -54 16 -78t50 -24q20 0 33.5 9.5t21.5 26t12 37.5t4 43v308h202v-577z" />
    <glyph glyph-name="uni0E14" unicode="&#xe14;" horiz-adv-x="652" 
d="M326 423q-41 0 -70 -26.5t-29 -71.5v-218q11 4 19.5 14t15 23.5t10 29t3.5 31.5h-28v114h158v-50q0 -123 -51 -187.5t-151 -81.5h-173v352q0 49 18.5 91t56 72.5t93 48t128.5 17.5q74 0 129 -17.5t92.5 -48t56 -72.5t18.5 -91v-352h-197v325q0 45 -29 71.5t-70 26.5z" />
    <glyph glyph-name="uni0E15" unicode="&#xe15;" horiz-adv-x="658" 
d="M409 269q0 -123 -51 -187.5t-151 -81.5h-177v381q0 42 8 78.5t27 63.5t52 42.5t82 15.5q110 0 131 -84q21 84 131 84q50 0 82 -15.5t51 -42.5t26.5 -63.5t7.5 -78.5v-381h-197v375q0 26 -9.5 37t-23.5 11q-15 0 -24.5 -11.5t-7.5 -28.5h-72q2 17 -7.5 28.5t-24.5 11.5
q-14 0 -23.5 -11t-9.5 -37v-268q11 4 20 14t15.5 23.5t10.5 29t4 31.5h-28v114h158v-50z" />
    <glyph glyph-name="uni0E16" unicode="&#xe16;" horiz-adv-x="628" 
d="M28 140q0 30 12.5 54t33.5 41.5t48.5 29t57.5 15.5l-158 25v11q0 135 73.5 200t203.5 65q72 0 127.5 -17t93.5 -48t58 -75.5t20 -99.5v-341h-202v319q0 45 -23.5 74.5t-73.5 29.5q-38 0 -63.5 -20t-30.5 -58l102 -22v-45q-32 -17 -52 -36.5t-20 -47.5q0 -23 14 -40
t39 -17h26v-137h-88q-34 0 -69.5 6t-64 21.5t-46.5 43t-18 69.5z" />
    <glyph glyph-name="uni0E17" unicode="&#xe17;" horiz-adv-x="634" 
d="M30 577h198v-115q16 56 63 87.5t121 31.5q41 0 76 -14t61 -41t40.5 -65t14.5 -86v-375h-202v318q0 54 -19.5 78t-67.5 24q-42 0 -62.5 -26.5t-20.5 -75.5v-318h-202v577z" />
    <glyph glyph-name="uni0E18" unicode="&#xe18;" horiz-adv-x="593" 
d="M214 393q93 -19 160 -35.5t110.5 -37t64 -48.5t20.5 -71v-17q0 -50 -20.5 -86t-57 -59t-88 -33.5t-113.5 -10.5q-58 0 -106.5 11.5t-84 35t-55.5 60t-20 86.5v62h202v-55q0 -26 22 -37t46 -11q12 0 25 1.5t23.5 6.5t17 13.5t6.5 22.5v12q0 21 -19.5 35.5t-60.5 26.5
t-106 25t-156 32v14q0 66 24 113t63 76t88.5 42.5t99.5 13.5q51 0 97.5 -14t83.5 -40t61 -61.5t30 -79.5h-189q-9 17 -30 30.5t-53 13.5q-30 0 -51.5 -7t-33.5 -30z" />
    <glyph glyph-name="uni0E19" unicode="&#xe19;" horiz-adv-x="634" 
d="M604 0h-198v111q-16 -56 -63 -87.5t-121 -31.5q-41 0 -76 14t-61 41t-40.5 65t-14.5 86v379h202v-322q0 -54 19.5 -78t67.5 -24q42 0 62.5 26.5t20.5 75.5v322h202v-577z" />
    <glyph glyph-name="uni0E1A" unicode="&#xe1a;" horiz-adv-x="640" 
d="M610 577v-348q0 -49 -17.5 -92t-53.5 -75.5t-90.5 -51t-127.5 -18.5t-127.5 18.5t-91 51t-54.5 75.5t-18 92v348h202v-315q0 -61 23.5 -85t65.5 -24q41 0 64 24t23 85v315h202z" />
    <glyph glyph-name="uni0E1B" unicode="&#xe1b;" horiz-adv-x="640" 
d="M610 750v-521q0 -49 -17.5 -92t-53.5 -75.5t-90.5 -51t-127.5 -18.5t-127.5 18.5t-91 51t-54.5 75.5t-18 92v348h202v-315q0 -61 23.5 -85t65.5 -24q41 0 64 24t23 85v488h202z" />
    <glyph glyph-name="uni0E1C" unicode="&#xe1c;" horiz-adv-x="666" 
d="M30 389q0 100 49.5 146t143.5 46h78v-138h-31q-38 0 -38 -45v-172l79 123h44l79 -123v351h202v-577h-177l-126 196l-126 -196h-177v389z" />
    <glyph glyph-name="uni0E1D" unicode="&#xe1d;" horiz-adv-x="666" 
d="M30 389q0 100 49.5 146t143.5 46h78v-138h-31q-38 0 -38 -45v-172l79 123h44l79 -123v524h202v-750h-177l-126 196l-126 -196h-177v389z" />
    <glyph glyph-name="uni0E1E" unicode="&#xe1e;" horiz-adv-x="788" 
d="M788 577l-120 -577h-178l-96 358l-96 -358h-178l-120 577h203l43 -304l80 291h138l78 -291l43 304h203z" />
    <glyph glyph-name="uni0E1F" unicode="&#xe1f;" horiz-adv-x="786" 
d="M818 750l-150 -750h-178l-96 358l-96 -358h-178l-120 577h203l43 -304l80 291h138l78 -291l73 477h203z" />
    <glyph glyph-name="uni0E20" unicode="&#xe20;" horiz-adv-x="632" 
d="M26 316q0 135 73.5 200t203.5 65q72 0 127.5 -17t93.5 -48t58 -75.5t20 -99.5v-341h-202v319q0 45 -23.5 74.5t-73.5 29.5q-38 0 -63.5 -20t-30.5 -58l107 -22v-45q-29 -13 -40.5 -36.5t-11.5 -59.5v-38q0 -75 -41 -109.5t-126 -34.5h-82v138h21q38 0 38 45v6
q0 38 27.5 62t87.5 29l-163 25v11z" />
    <glyph glyph-name="uni0E21" unicode="&#xe21;" horiz-adv-x="634" 
d="M30 0v577h202v-322q0 -49 20.5 -75.5t62.5 -26.5q48 0 67.5 24t19.5 78v322h202v-379q0 -48 -14.5 -86t-40.5 -65t-61 -41t-76 -14q-74 0 -121 31.5t-63 87.5v-111h-198z" />
    <glyph glyph-name="uni0E22" unicode="&#xe22;" horiz-adv-x="621" 
d="M591 577v-348q0 -53 -16.5 -96.5t-52 -75t-91.5 -48.5t-134 -17q-139 0 -205 50t-66 131q0 51 26.5 88.5t77.5 50.5q-52 12 -76.5 46t-24.5 78q0 38 14 65t39.5 44t62 24.5t81.5 7.5h87v-138h-34q-29 0 -41.5 -8.5t-12.5 -30.5q0 -12 7.5 -20t19 -12.5t25.5 -6.5t28 -2
h25v-101h-14q-36 0 -59.5 -12t-23.5 -41q0 -23 17 -37.5t56 -14.5q44 0 63.5 22t19.5 75v327h202z" />
    <glyph glyph-name="uni0E23" unicode="&#xe23;" horiz-adv-x="557" 
d="M217 397q0 -10 9 -17t24 -12.5t35 -9t42 -8.5q35 -7 72 -17t68 -28.5t50.5 -48.5t19.5 -77q0 -52 -24 -87.5t-61.5 -57.5t-84 -32t-90.5 -10q-46 0 -91.5 10.5t-82.5 33.5t-60 60.5t-23 91.5h175q11 -21 34 -32t50 -11q10 0 21.5 1.5t21.5 5.5t16.5 10t6.5 15
q0 13 -13.5 21t-35.5 14t-50 11.5t-58 12.5q-30 8 -59.5 19.5t-52.5 30t-37 45.5t-14 66q0 50 23.5 85t60.5 57t82.5 32t89.5 10q42 0 86 -9.5t81 -32t60.5 -60t23.5 -93.5h-176q-5 23 -28 32t-49 9q-9 0 -19.5 -1t-20 -4.5t-16 -9.5t-6.5 -15z" />
    <glyph glyph-name="uni0E24" unicode="&#xe24;" horiz-adv-x="628" 
d="M28 140q0 30 12.5 54t33.5 41.5t48.5 29t57.5 15.5l-158 25v11q0 135 73.5 200t203.5 65q72 0 127.5 -17t93.5 -48t58 -75.5t20 -99.5v-541h-202v519q0 45 -23.5 74.5t-73.5 29.5q-38 0 -63.5 -20t-30.5 -58l102 -22v-45q-32 -17 -52 -36.5t-20 -47.5q0 -23 14 -40
t39 -17h26v-137h-88q-34 0 -69.5 6t-64 21.5t-46.5 43t-18 69.5z" />
    <glyph glyph-name="uni0E25" unicode="&#xe25;" horiz-adv-x="619" 
d="M589 0h-202v228l-95 -8q-30 -2 -46.5 -13t-16.5 -33q0 -16 9 -26t29 -10h50v-138h-105q-40 0 -74.5 9.5t-60 30t-40.5 50.5t-15 70q0 81 60.5 121t174.5 49l131 10v2q0 23 -6.5 38t-18 24t-27 12.5t-33.5 3.5q-27 0 -48 -14t-30 -40h-192q5 48 27.5 87.5t58 68t83 44
t101.5 15.5q145 0 215.5 -62.5t70.5 -200.5v-318z" />
    <glyph glyph-name="uni0E26" unicode="&#xe26;" horiz-adv-x="632" 
d="M26 316q0 135 73.5 200t203.5 65q72 0 127.5 -17t93.5 -48t58 -75.5t20 -99.5v-541h-202v519q0 45 -23.5 74.5t-73.5 29.5q-38 0 -63.5 -20t-30.5 -58l107 -22v-45q-29 -13 -40.5 -36.5t-11.5 -59.5v-38q0 -75 -41 -109.5t-126 -34.5h-82v138h21q38 0 38 45v6
q0 38 27.5 62t87.5 29l-163 25v11z" />
    <glyph glyph-name="uni0E27" unicode="&#xe27;" horiz-adv-x="590" 
d="M284 581q138 0 212 -76t74 -216q0 -139 -70.5 -216t-215.5 -77q-54 0 -100.5 16t-82 44.5t-58 68t-27.5 86.5h193q9 -26 29 -40t46 -14q40 0 64 34.5t24 97.5t-24 97t-64 34q-26 0 -46 -14t-29 -40h-193q5 48 27.5 87.5t58 68t82 44t100.5 15.5z" />
    <glyph glyph-name="uni0E28" unicode="&#xe28;" horiz-adv-x="663" 
d="M24 352q0 49 20.5 91t59.5 72.5t96 48t130 17.5q35 0 64.5 -5.5t55.5 -13.5l46 58h184l-105 -131q27 -26 41.5 -58.5t14.5 -73.5v-357h-202v325q0 45 -29 71.5t-70 26.5q-54 0 -79 -31t-25 -80v-69.5t1 -61.5q8 28 20.5 53.5t29.5 45.5t38 32t47 12h25v-148h-13
q-27 0 -45.5 -5t-32 -14.5t-24 -24.5t-20.5 -36v-96h-202v96q-10 59 -18 117.5t-8 138.5z" />
    <glyph glyph-name="uni0E29" unicode="&#xe29;" horiz-adv-x="660" 
d="M610 577v-215h40v-114h-40v-19q0 -49 -17.5 -92t-53.5 -75.5t-90.5 -51t-127.5 -18.5t-127.5 18.5t-91 51t-54.5 75.5t-18 92v348h202v-315q0 -61 23.5 -85t65.5 -24q38 0 62.5 20.5t24.5 71.5v3h-3q-55 0 -86.5 12.5t-47 34.5t-19 50.5t-3.5 59.5v18h136v-18
q0 -31 4.5 -37t17.5 -6h1v215h202z" />
    <glyph glyph-name="uni0E2A" unicode="&#xe2a;" horiz-adv-x="621" 
d="M589 0h-202v228l-95 -8q-30 -2 -46.5 -13t-16.5 -33q0 -16 9 -26t29 -10h50v-138h-105q-40 0 -74.5 9.5t-60 30t-40.5 50.5t-15 70q0 81 60.5 121t174.5 49l131 10v2q0 23 -6.5 38t-18 24t-27 12.5t-33.5 3.5q-27 0 -48 -14t-30 -40h-192q5 48 27.5 87.5t58 68t83 44
t101.5 15.5q37 0 68 -6t57 -17l50 62h184l-120 -150q22 -28 34.5 -64.5t12.5 -87.5v-318z" />
    <glyph glyph-name="uni0E2B" unicode="&#xe2b;" horiz-adv-x="627" 
d="M397 188q0 35 -16 48t-45 13q-17 0 -38 -3l-66 -9v-237h-202v577h202v-209l65 9q27 4 46 10.5t31 19t17.5 31t5.5 46.5v93h202v-93q0 -71 -36.5 -108.5t-108.5 -51.5q32 0 58.5 -7.5t46 -25t30 -46.5t10.5 -73v-172h-202v188z" />
    <glyph glyph-name="uni0E2C" unicode="&#xe2c;" horiz-adv-x="779" 
d="M822 708q-5 -30 -15 -59.5t-26.5 -55t-40.5 -45t-56 -28.5q41 -19 56 -52.5t4 -89.5l-76 -378h-178l-96 358l-96 -358h-178l-120 577h203l43 -304l80 291h138l78 -291l21 123q8 42 -1.5 65.5t-41.5 26.5v89q27 0 47.5 10.5t34 28.5t22 41.5t11.5 50.5h187z" />
    <glyph glyph-name="uni0E2D" unicode="&#xe2d;" horiz-adv-x="606" 
d="M300 581q64 0 117 -19t91 -56t59 -91t21 -123t-18.5 -124.5t-55 -94.5t-90.5 -60t-124 -21q-62 0 -112 15t-85.5 42t-55 65t-19.5 84q0 22 5.5 47t21 46t44 35t73.5 14h149v-114h-74q-15 0 -20.5 -10.5t-5.5 -20.5q0 -25 23.5 -33.5t53.5 -8.5q56 0 76.5 37.5t20.5 101.5
q0 42 -10.5 67.5t-25.5 39t-32 17.5t-29 4q-26 0 -51 -13t-33 -41h-190q5 50 29 90t61 67.5t85 42.5t101 15z" />
    <glyph glyph-name="uni0E2E" unicode="&#xe2e;" horiz-adv-x="608" 
d="M300 581q62 0 115 -22l48 61h184l-119 -149q28 -34 44 -78t16 -101q0 -69 -18.5 -124.5t-55 -94.5t-90.5 -60t-124 -21q-62 0 -112 15t-85.5 42t-55 65t-19.5 84q0 22 5.5 47t21 46t44 35t73.5 14h149v-114h-74q-15 0 -20.5 -10.5t-5.5 -20.5q0 -25 23.5 -33.5t53.5 -8.5
q56 0 76.5 37.5t20.5 101.5q0 42 -10.5 67.5t-25.5 39t-32 17.5t-29 4q-26 0 -51 -13t-33 -41h-190q5 50 29 90t61 67.5t85 42.5t101 15z" />
    <glyph glyph-name="uni0E2F" unicode="&#xe2f;" horiz-adv-x="624" 
d="M574 577v-577h-201v312q-12 -54 -51.5 -83.5t-106.5 -29.5q-42 0 -77.5 12t-61.5 36t-41 60t-15 85q0 53 18 88.5t49 57t71.5 30.5t85.5 9h52v-138h-31q-20 0 -30 -13.5t-10 -30.5q0 -21 11.5 -34t41.5 -13q50 0 72.5 33t22.5 82v114h201z" />
    <glyph glyph-name="uni0E30" unicode="&#xe30;" horiz-adv-x="357" 
d="M343 453v-124h-152q-60 0 -96 13t-55 35t-24.5 51t-5.5 60v21h169v-11q0 -31 16 -38.5t53 -6.5h95zM343 168v-124h-152q-60 0 -96 13t-55 35t-24.5 51t-5.5 60v21h169v-11q0 -31 16 -38.5t53 -6.5h95z" />
    <glyph glyph-name="uni0E31" unicode="&#xe31;" 
d="M27 764v-114h-317q-60 0 -96 13t-55 35t-24.5 51t-5.5 60v21h169v-21q0 -31 16 -38.5t53 -6.5h260z" />
    <glyph glyph-name="uni0E32" unicode="&#xe32;" horiz-adv-x="467" 
d="M195 581q50 0 93 -12t75.5 -40t51 -74.5t18.5 -114.5v-340h-202v326q0 23 -3.5 41.5t-14 31t-29 19.5t-49.5 7q-20 0 -48.5 -4.5t-70.5 -18.5v136q36 22 83.5 32.5t95.5 10.5z" />
    <glyph glyph-name="uni0E33" unicode="&#xe33;" horiz-adv-x="467" 
d="M-156 885q59 0 97.5 -32t38.5 -92q0 -59 -38.5 -90.5t-97.5 -31.5t-97 30.5t-38 91.5t38 92.5t97 31.5zM-156 726q15 0 26 10.5t11 24.5q0 17 -11 27t-26 10t-25.5 -10t-10.5 -27q0 -14 10.5 -24.5t25.5 -10.5zM195 581q50 0 93 -12t75.5 -40t51 -74.5t18.5 -114.5v-340
h-202v326q0 23 -3.5 41.5t-14 31t-29 19.5t-49.5 7q-20 0 -48.5 -4.5t-70.5 -18.5v136q36 22 83.5 32.5t95.5 10.5z" />
    <glyph glyph-name="uni0E34" unicode="&#xe34;" 
d="M-572 650v114h542v-114h-542z" />
    <glyph glyph-name="uni0E35" unicode="&#xe35;" 
d="M-572 764h365v76h177v-190h-542v114z" />
    <glyph glyph-name="uni0E36" unicode="&#xe36;" 
d="M-136 851q53 0 82 -23.5t29 -76.5t-29 -77t-82 -24h-436v114h329v2q0 35 24 60t83 25zM-166 751q0 -14 8 -22t22 -8t22 8t8 22t-8 22t-22 8t-22 -8t-8 -22z" />
    <glyph glyph-name="uni0E37" unicode="&#xe37;" 
d="M-572 764h241v76h127v-76h47v76h127v-190h-542v114z" />
    <glyph glyph-name="uni0E38" unicode="&#xe38;" 
d="M-35 -290h-178v113h-83v114h261v-227z" />
    <glyph glyph-name="uni0E39" unicode="&#xe39;" 
d="M-35 -63v-94q0 -45 -20.5 -71.5t-50.5 -41t-64.5 -19t-62.5 -4.5q-26 0 -58 4t-59.5 16t-46 34t-18.5 58v4h-65v114h210v-67q0 -20 6 -35t31 -15q23 0 29 15t6 35v67h163z" />
    <glyph glyph-name="uni0E3A" unicode="&#xe3a;" 
d="M-235 -164q0 21 8 39.5t21.5 32t32 21.5t39.5 8t39 -8t31.5 -21.5t21.5 -32t8 -39.5q0 -20 -8 -38.5t-21.5 -32.5t-31.5 -22t-39 -8t-39.5 8t-32 22t-21.5 32.5t-8 38.5z" />
    <glyph glyph-name="uni0E3F" unicode="&#xe3f;" horiz-adv-x="671" 
d="M37 700h188v98h175v-98q103 -2 160 -45.5t57 -123.5q0 -31 -8.5 -59.5t-24.5 -51t-39.5 -38t-54.5 -19.5v-3q36 -1 65 -15t49.5 -37t32 -53t11.5 -65q0 -46 -17.5 -81.5t-49.5 -59.5t-78 -36.5t-102 -12.5h-1v-104h-175v104h-188v700zM330 418q81 0 81 61q0 67 -78 67
h-90v-128h87zM338 156q49 0 72 14t23 52t-23.5 52t-69.5 14h-97v-132h95z" />
    <glyph glyph-name="uni0E40" unicode="&#xe40;" horiz-adv-x="344" 
d="M245 0q-96 0 -144.5 49.5t-48.5 157.5v370h202v-393q0 -23 13.5 -34.5t31.5 -11.5h34l-1 -138h-87z" />
    <glyph glyph-name="uni0E41" unicode="&#xe41;" horiz-adv-x="653" 
d="M245 0q-96 0 -144.5 49.5t-48.5 157.5v370h202v-393q0 -23 13.5 -34.5t31.5 -11.5h34l-1 -138h-87zM554 0q-96 0 -144.5 49.5t-48.5 157.5v370h202v-393q0 -23 13.5 -34.5t31.5 -11.5h34l-1 -138h-87z" />
    <glyph glyph-name="uni0E42" unicode="&#xe42;" horiz-adv-x="382" 
d="M283 0q-96 0 -144.5 49.5t-48.5 157.5v294q0 30 -8.5 52t-22 37t-30 24t-32.5 14v31q0 36 13 65t36 49t54.5 31t67.5 11h218v-138h-174q-17 0 -30.5 -3.5t-13.5 -19.5q61 -20 92.5 -56.5t31.5 -96.5v-317q0 -23 13.5 -34.5t31.5 -11.5h34l-1 -138h-87z" />
    <glyph glyph-name="uni0E43" unicode="&#xe43;" horiz-adv-x="382" 
d="M283 0q-96 0 -144.5 49.5t-48.5 157.5v222q0 50 22 83.5t48.5 57.5t48.5 42t22 37q0 17 -10 29t-33 12q-9 0 -19 -2t-18 -8t-13 -18t-5 -32h-160q0 55 17.5 93t47.5 62t69.5 34.5t82.5 10.5q47 0 85.5 -9.5t65.5 -30.5t42 -53.5t15 -78.5q0 -44 -16.5 -72t-36.5 -52
t-36.5 -49.5t-16.5 -63.5v-237q0 -23 13.5 -34.5t31.5 -11.5h34l-1 -138h-87z" />
    <glyph glyph-name="uni0E44" unicode="&#xe44;" horiz-adv-x="382" 
d="M283 0q-96 0 -144.5 49.5t-48.5 157.5v242q0 46 12 81.5t32 62t46 44.5t54 27q0 14 -5 24.5t-13 16.5q-15 -26 -39 -39.5t-60 -13.5q-22 0 -46.5 6.5t-44 21.5t-32.5 40t-13 61v34h140v-12q0 -19 9.5 -30t23.5 -11q15 0 24.5 11.5t14.5 41.5h35q42 0 70 -13t45.5 -34.5
t25 -50t7.5 -59.5v-25q-37 -20 -60.5 -60t-23.5 -100v-289q0 -23 13.5 -34.5t31.5 -11.5h34l-1 -138h-87z" />
    <glyph glyph-name="uni0E45" unicode="&#xe45;" horiz-adv-x="467" 
d="M195 581q50 0 93 -12t75.5 -40t51 -74.5t18.5 -114.5v-540h-202v526q0 23 -3.5 41.5t-14 31t-29 19.5t-49.5 7q-20 0 -48.5 -4.5t-70.5 -18.5v136q36 22 83.5 32.5t95.5 10.5z" />
    <glyph glyph-name="uni0E46" unicode="&#xe46;" horiz-adv-x="633" 
d="M381 -120v434q0 26 -3.5 36.5t-17.5 10.5q-12 0 -19 -7t-7 -32h-66q0 25 -7 32t-24 7q-10 0 -15.5 -10.5t-5.5 -36.5v-14q0 -22 11.5 -33.5t31.5 -11.5h38v-124h-43q-46 0 -88.5 7.5t-75 27.5t-51.5 55t-19 91v38q0 85 37.5 127.5t107.5 42.5q59 0 90.5 -20.5t42.5 -62.5
q11 42 45.5 62.5t88.5 20.5q84 0 117.5 -42.5t33.5 -127.5v-470h-202z" />
    <glyph glyph-name="uni0E47" unicode="&#xe47;" 
d="M-226 798q1 -24 18 -39t38 -15h76v-114h-43q-37 0 -71 15.5t-49 44.5q-15 -29 -43 -44.5t-66 -15.5q-64 0 -101.5 40.5t-37.5 109.5q0 70 42.5 111.5t133.5 41.5h257v-114h-250q-6 0 -14 -1t-14.5 -4.5t-11.5 -10.5t-5 -18q0 -21 13.5 -27.5t22.5 -6.5q14 0 28 11.5
t15 35.5h62z" />
    <glyph glyph-name="uni0E48" unicode="&#xe48;" 
d="M-216 880v240h174v-240h-174z" />
    <glyph glyph-name="uni0E49" unicode="&#xe49;" 
d="M20 994v-114h-219q-31 0 -51 5.5t-31 15.5t-15.5 23t-4.5 28q0 23 -10.5 31.5t-28.5 8.5h-70v112h154q15 0 28.5 -2.5t23 -9t15.5 -19.5t6 -34q0 -17 4 -26t11 -13.5t16.5 -5t21.5 -0.5h150z" />
    <glyph glyph-name="uni0E4A" unicode="&#xe4a;" 
d="M-562 981q0 23 5.5 45t19 40t35.5 29t55 11q25 0 48.5 -9.5t40.5 -36.5q17 27 39.5 36.5t46.5 9.5q30 0 50 -9t32 -25t17.5 -38t5.5 -49v-45q16 0 21.5 10t5.5 30v136h120v-140q0 -25 -7 -46t-23.5 -36.5t-42.5 -24.5t-65 -9h-131v116q0 26 -22 26q-8 0 -14 -4t-6 -17
h-54q0 13 -5.5 17t-12.5 4q-12 0 -17.5 -8t-5.5 -22q0 -15 8.5 -23.5t35.5 -8.5h25v-80h-66q-27 0 -52 5.5t-44.5 19.5t-31 37t-11.5 59z" />
    <glyph glyph-name="uni0E4B" unicode="&#xe4b;" 
d="M38 954h-95v-74h-149v74h-95v92h95v74h149v-74h95v-92z" />
    <glyph glyph-name="uni0E4C" unicode="&#xe4c;" 
d="M-133 881q-18 0 -31.5 -1t-21.5 -5.5t-12 -13.5t-4 -25v-21h-169v21q0 32 5.5 60.5t24.5 50.5t55 35t96 13h175v-114h-118z" />
    <glyph glyph-name="uni0E4D" unicode="&#xe4d;" 
d="M-156 885q59 0 97.5 -32t38.5 -92q0 -59 -38.5 -90.5t-97.5 -31.5t-97 30.5t-38 91.5t38 92.5t97 31.5zM-156 726q15 0 26 10.5t11 24.5q0 17 -11 27t-26 10t-25.5 -10t-10.5 -27q0 -14 10.5 -24.5t25.5 -10.5z" />
    <glyph glyph-name="uni0E4E" unicode="&#xe4e;" 
 />
    <glyph glyph-name="uni0E4F" unicode="&#xe4f;" horiz-adv-x="528" 
d="M264 527q43 0 81 -16.5t66.5 -45t45 -67t16.5 -81.5t-16.5 -81.5t-45 -66.5t-66.5 -44.5t-81 -16.5t-81.5 16.5t-66.5 44.5t-44.5 66.5t-16.5 81.5t16.5 81.5t44.5 67t66.5 45t81.5 16.5zM264 147q35 0 65 13.5t52.5 36.5t35.5 54t13 66t-13 65t-35.5 52.5t-52.5 35.5
t-65 13t-66 -13t-54 -35.5t-36.5 -52.5t-13.5 -65t13.5 -66t36.5 -54t54 -36.5t66 -13.5zM264 442q26 0 48.5 -9.5t39 -26.5t26.5 -39.5t10 -49.5q0 -26 -10 -49t-26.5 -40t-39 -27t-48.5 -10t-49 10t-40 27t-27 40t-10 49q0 27 10 49.5t27 39.5t40 26.5t49 9.5zM264 228
q38 0 62 26t24 63q0 38 -24 62t-62 24q-37 0 -63 -24t-26 -62q0 -37 26 -63t63 -26z" />
    <glyph glyph-name="uni0E50" unicode="&#xe50;" horiz-adv-x="626" 
d="M312 527q65 0 120 -17t94.5 -51t61.5 -84t22 -116t-22 -116t-61.5 -83.5t-94.5 -50.5t-120 -17t-119.5 17t-93.5 50.5t-61 83.5t-22 116t22 116t61 84t93.5 51t119.5 17zM312 145q42 0 72.5 26t30.5 88t-30.5 89t-72.5 27t-71.5 -27t-29.5 -89t29.5 -88t71.5 -26z" />
    <glyph glyph-name="uni0E51" unicode="&#xe51;" horiz-adv-x="626" 
d="M297 89q-49 -5 -99.5 2t-90.5 30t-65.5 63.5t-25.5 102.5q0 65 22 111t61.5 74.5t94 41.5t118.5 13q65 0 120 -19t94.5 -56.5t61.5 -93t22 -129.5q0 -59 -20 -119t-66 -108t-122 -78t-189 -28v142q62 0 101 18.5t61.5 47t31 62t8.5 63.5q0 73 -30.5 109.5t-72.5 36.5
q-21 0 -39 -4t-32 -14t-22 -27t-8 -43q0 -27 24 -45.5t62 -12.5v-140z" />
    <glyph glyph-name="uni0E52" unicode="&#xe52;" horiz-adv-x="829" 
d="M791 236q0 -64 -31.5 -110.5t-83.5 -76t-120 -43.5t-141 -14t-141 14t-120.5 43.5t-84 76t-31.5 110.5v446h189v-427q0 -43 21.5 -68.5t51.5 -39t62 -17.5t53 -4q20 0 52 4t62 17.5t52 39t22 68.5v66q0 26 -2.5 36t-16.5 10q-8 0 -16.5 -6.5t-14.5 -31.5h-71
q-7 25 -14.5 31.5t-17.5 6.5q-13 0 -16 -10t-3 -36v-4q0 -20 16 -28.5t42 -8.5q6 0 12 0.5t12 1.5v-107q-40 -6 -78 -6t-69.5 8t-54.5 25.5t-35.5 46t-12.5 69.5v38q0 42 5.5 74t20.5 53.5t41.5 32.5t67.5 11q56 0 82.5 -21t36.5 -63q11 42 38 63t81 21q47 0 77 -11
t47 -32.5t24 -53.5t7 -74v-120z" />
    <glyph glyph-name="uni0E53" unicode="&#xe53;" horiz-adv-x="685" 
d="M469 527q57 0 92 -11t54 -32.5t25.5 -53.5t6.5 -74v-356h-202v321q0 26 -7 36.5t-19 10.5q-9 0 -17.5 -7t-13.5 -32h-85q-8 26 -17 32.5t-17 6.5q-12 0 -19 -9t-10 -24t-3.5 -35t-0.5 -43q0 -63 23 -89t77 -26q13 0 28 3v-142q-24 -4 -46.5 -5.5t-44.5 -1.5q-54 0 -98 13
t-75.5 42t-49 75.5t-17.5 113.5q0 61 5.5 113.5t25 91t56 60.5t97.5 22q51 0 83.5 -21t43.5 -63q10 42 42 63t83 21z" />
    <glyph glyph-name="uni0E54" unicode="&#xe54;" horiz-adv-x="647" 
d="M312 378q-32 0 -55.5 -31t-23.5 -92q0 -53 24 -85t83 -32q8 0 15 1q7 0 14.5 0.5t12.5 2.5q-2 5 -5 16.5t-3 32.5q0 36 9.5 64t34 46t67.5 26.5t110 5.5v-120q-20 0 -37.5 -8t-17.5 -33q0 -22 14.5 -29t34.5 -7h48v-136h-50q-74 0 -131 31q-40 -39 -140 -39
q-137 0 -210 67t-73 200t72.5 200.5t202.5 67.5h62q57 0 85.5 22t26.5 79h155q6 -63 -10.5 -110t-46.5 -78t-68 -46.5t-74 -15.5h-126z" />
    <glyph glyph-name="uni0E55" unicode="&#xe55;" horiz-adv-x="647" 
d="M637 0h-50q-74 0 -131 31q-40 -39 -140 -39q-137 0 -210 67t-73 200q0 89 33 148.5t96 89.5q-11 22 -11 53q0 56 35.5 88.5t105.5 32.5t104.5 -32t34.5 -83q0 -17 -3 -26h3q13 0 23 8.5t16 22t9 31t3 36.5h155q6 -63 -10.5 -110t-46.5 -78t-68 -46.5t-74 -15.5h-126
q-32 0 -55.5 -31t-23.5 -92q0 -53 24 -85t83 -32q8 0 15 1q7 0 14.5 0.5t12.5 2.5q-3 6 -5.5 17t-2.5 32q0 36 9.5 64t34 46t67.5 26.5t110 5.5v-120q-20 0 -37.5 -8t-17.5 -33q0 -22 14.5 -29t34.5 -7h48v-136zM291 521q16 0 25.5 8t9.5 24t-9.5 24t-25.5 8q-34 0 -34 -32
t34 -32z" />
    <glyph glyph-name="uni0E56" unicode="&#xe56;" horiz-adv-x="699" 
d="M340 221q-39 6 -56 -3.5t-17 -29.5q0 -14 7.5 -22.5t19.5 -13.5t27 -7t30 -2q55 0 87.5 24t32.5 86q0 67 -37.5 99t-94.5 33q-22 1 -51.5 -3t-50.5 -13h-140l-124 259h178l60 -144q24 20 65 31.5t95 11.5q85 0 142 -19t91 -53.5t48 -81.5t14 -104q0 -76 -22.5 -129
t-64 -86t-100.5 -47.5t-133 -14.5q-56 0 -106 9t-87.5 32t-59 61.5t-21.5 97.5q0 45 12.5 74.5t34.5 46.5t52 24t64 7q25 0 51.5 -2.5t53.5 -7.5v-113z" />
    <glyph glyph-name="uni0E57" unicode="&#xe57;" horiz-adv-x="917" 
d="M879 198q0 -56 -21 -94.5t-53.5 -62.5t-72 -35t-77.5 -11t-77.5 11t-72 35t-53.5 62.5t-21 94.5v123q0 26 -6.5 36.5t-19.5 10.5q-9 0 -17.5 -7t-13.5 -32h-71q-8 26 -17 32.5t-17 6.5q-12 0 -19 -9t-10 -24t-3.5 -35t-0.5 -43q0 -62 22.5 -88t76.5 -26q7 0 14 0.5
t15 1.5v-142q-24 -4 -46.5 -5.5t-44.5 -1.5q-54 0 -98 13t-75.5 42t-49 75.5t-17.5 113.5q0 61 5.5 113.5t25 91t56 60.5t97.5 22q45 0 77 -21t43 -63q11 42 42.5 63t76.5 21q57 0 89.5 -11t49 -32.5t20.5 -53.5t4 -74v-175q0 -16 8 -29t28 -13t27.5 13t7.5 29v501h189v-484
z" />
    <glyph glyph-name="uni0E58" unicode="&#xe58;" horiz-adv-x="634" 
d="M261 147q9 0 18.5 11t12.5 36h85q5 -27 15.5 -37t18.5 -10q23 0 31 13.5t8 30.5v7q0 5 -1 10.5t-6 10.5t-17 8.5t-33 4.5h-15t-18 -1v114l33 4q30 3 56 3q98 0 141 -41.5t43 -123.5v-6q0 -29 -7.5 -61.5t-26.5 -60t-52 -45.5t-84 -18q-52 0 -84.5 20.5t-42.5 62.5
q-11 -42 -43 -63t-83 -21q-56 0 -92.5 22.5t-58.5 59.5t-30.5 84t-8.5 96q0 132 73.5 201t202.5 69h85q57 0 85.5 22t26.5 79h155q6 -63 -10.5 -110t-46.5 -78t-68 -46.5t-74 -15.5h-149q-32 0 -55.5 -32t-23.5 -89q0 -19 1 -38.5t5.5 -35.5t12.5 -26t21 -10z" />
    <glyph glyph-name="uni0E59" unicode="&#xe59;" horiz-adv-x="777" 
d="M570 341q0 32 -38 32q-7 0 -13.5 -3t-10.5 -9t-5.5 -14t2.5 -18l143 -329h-188l-143 329q-11 25 -20.5 34.5t-24.5 9.5q-12 0 -19 -9.5t-10 -26t-3.5 -37t-0.5 -43.5q0 -56 14 -81.5t53 -30.5q19 -3 47 0v-142q-14 -2 -28.5 -4t-28.5 -3q-57 -4 -104.5 7t-82.5 39.5
t-54.5 77t-19.5 120.5q0 61 7 113.5t28.5 91t60.5 60.5t102 22q113 0 155 -84q7 25 20.5 41.5t30 26t34.5 13t35 3.5q32 0 59 -11t42 -34l39 113h157l-104 -254h-131z" />
    <glyph glyph-name="uni0E5A" unicode="&#xe5a;" horiz-adv-x="892" 
d="M584 577v-577h-201v312q-16 -55 -56 -84t-107 -29q-42 0 -78.5 12t-63.5 36t-42.5 60t-15.5 85q0 53 18 88.5t49 57t71.5 30.5t85.5 9h52v-138h-31q-20 0 -30 -13.5t-10 -30.5q0 -21 14 -34t44 -13q50 0 75 33t25 82v114h201zM842 577v-577h-201v577h201z" />
    <glyph glyph-name="uni0E5B" unicode="&#xe5b;" horiz-adv-x="895" 
d="M266 285q0 23 -2 45.5t-8 40t-17 28t-30 10.5q-25 0 -39.5 -11.5t-22.5 -28.5t-10.5 -38t-2.5 -40q0 -40 11 -68t28.5 -46t40.5 -26t47 -8q34 0 58 15.5t41.5 41.5t28 60.5t16.5 71.5t8 74.5t2 70.5h99l42 -182l32 146h99q0 -24 1.5 -45t7.5 -37.5t18.5 -26t34.5 -9.5
h112v-90h-112q-24 0 -54 5t-55 32l-34 -169h-87l-35 153q-9 -40 -26 -76t-43.5 -63.5t-64.5 -43.5t-90 -16q-48 0 -89.5 16t-72 47t-47.5 76t-17 103q0 38 8 74.5t27.5 65t53.5 46t85 17.5q48 0 78.5 -17.5t48 -47.5t23.5 -69t6 -81h-98z" />
    <glyph glyph-name="endash" unicode="&#x2013;" horiz-adv-x="495" 
d="M461 239h-427v155h427v-155z" />
    <glyph glyph-name="emdash" unicode="&#x2014;" horiz-adv-x="727" 
d="M693 239h-659v155h659v-155z" />
    <glyph glyph-name="quoteleft" unicode="&#x2018;" horiz-adv-x="332" 
d="M318 701l-124 -271h-201l153 271h172z" />
    <glyph glyph-name="quoteright" unicode="&#x2019;" horiz-adv-x="331" 
d="M14 430l124 271h200l-152 -271h-172z" />
    <glyph glyph-name="quotesinglbase" unicode="&#x201a;" horiz-adv-x="244" 
d="M-14 -123l55 246h190l-81 -246h-164z" />
    <glyph glyph-name="quotedblleft" unicode="&#x201c;" horiz-adv-x="550" 
d="M304 701l-124 -271h-187l153 271h158zM536 701l-124 -271h-187l153 271h158z" />
    <glyph glyph-name="quotedblright" unicode="&#x201d;" horiz-adv-x="550" 
d="M246 430l124 271h187l-153 -271h-158zM14 430l124 271h187l-153 -271h-158z" />
    <glyph glyph-name="quotedblbase" unicode="&#x201e;" horiz-adv-x="454" 
d="M-14 -123l55 246h176l-81 -246h-150zM210 -123l55 246h176l-81 -246h-150z" />
    <glyph glyph-name="dagger" unicode="&#x2020;" horiz-adv-x="543" 
d="M171 543v157h202v-157h129v-143h-129v-400h-202v400h-130v143h130z" />
    <glyph glyph-name="daggerdbl" unicode="&#x2021;" horiz-adv-x="543" 
d="M171 543v157h202v-157h129v-143h-129v-100h129v-143h-129v-157h-202v157h-130v143h130v100h-130v143h130z" />
    <glyph glyph-name="bullet" unicode="&#x2022;" horiz-adv-x="475" 
d="M240 136q-37 0 -70 14.5t-58 39t-40 57.5t-15 70q0 38 15 71t40 57t58 38t70 14t69.5 -14t56.5 -38t38 -57t14 -71q0 -35 -14 -67.5t-38 -58t-56.5 -40.5t-69.5 -15z" />
    <glyph glyph-name="ellipsis" unicode="&#x2026;" horiz-adv-x="782" 
d="M14 105q0 45 29.5 75.5t84.5 30.5t84.5 -30.5t29.5 -75.5t-29.5 -75t-84.5 -30t-84.5 30t-29.5 75zM277 105q0 45 29.5 75.5t85.5 30.5q54 0 83.5 -30.5t29.5 -75.5t-29.5 -75t-83.5 -30q-56 0 -85.5 30t-29.5 75zM540 105q0 45 29.5 75.5t85.5 30.5q54 0 83.5 -30.5
t29.5 -75.5t-29.5 -75t-83.5 -30q-56 0 -85.5 30t-29.5 75z" />
    <glyph glyph-name="perthousand" unicode="&#x2030;" horiz-adv-x="1117" 
d="M19 547q0 38 13.5 67.5t36 50.5t51.5 32t61 11t61.5 -11t52 -32t36 -50.5t13.5 -67.5q0 -37 -13.5 -66.5t-36 -50t-52 -31.5t-61.5 -11t-61 11t-51.5 31.5t-36 50t-13.5 66.5zM680 700l-414 -700h-168l414 700h168zM141 547q0 -23 10.5 -36t29.5 -13q18 0 29 13t11 36
t-11 36t-29 13q-19 0 -29.5 -13t-10.5 -36zM433 151q0 38 13 67.5t35.5 50.5t52 32t61.5 11t61.5 -11t52 -32t35.5 -50.5t13 -67.5q0 -37 -13 -66.5t-35.5 -50t-52 -31.5t-61.5 -11t-61.5 11t-52 31.5t-35.5 50t-13 66.5zM774 151q0 38 13 67.5t35.5 50.5t52 32t61.5 11
t61.5 -11t52 -32t35.5 -50.5t13 -67.5q0 -37 -13 -66.5t-35.5 -50t-52 -31.5t-61.5 -11t-61.5 11t-52 31.5t-35.5 50t-13 66.5zM554 151q0 -23 10.5 -36t30.5 -13q17 0 28 13t11 36t-11 36.5t-28 13.5q-20 0 -30.5 -13.5t-10.5 -36.5zM895 151q0 -23 10.5 -36t30.5 -13
q17 0 28.5 13t11.5 36t-11.5 36.5t-28.5 13.5q-20 0 -30.5 -13.5t-10.5 -36.5z" />
    <glyph glyph-name="guilsinglleft" unicode="&#x2039;" horiz-adv-x="532" 
d="M41 267v100l450 273v-191l-240 -131v-1l240 -131v-190z" />
    <glyph glyph-name="guilsinglright" unicode="&#x203a;" horiz-adv-x="532" 
d="M491 267l-450 -271v190l240 131v1l-240 131v191l450 -273v-100z" />
    <glyph glyph-name="fraction" unicode="&#x2044;" horiz-adv-x="464" 
d="M461 700l-252 -700h-206l254 700h204z" />
    <glyph glyph-name="Euro" unicode="&#x20ac;" horiz-adv-x="771" 
d="M292 373q-3 -23 0 -46h166v-121h-131q37 -50 103 -50q93 0 119 95h206q-6 -59 -33 -107t-69.5 -81.5t-99.5 -52t-123 -18.5q-125 0 -209.5 54.5t-118.5 159.5h-83v121h63q-3 23 0 46h-63v121h83q35 105 119 159.5t209 54.5q65 0 121.5 -18t99 -52t69.5 -81.5t33 -106.5
h-206q-11 47 -41 71.5t-76 24.5q-65 0 -103 -52h131v-121h-166z" />
    <glyph glyph-name="trademark" unicode="&#x2122;" horiz-adv-x="988" 
d="M388 602h-115v-322h-128v322h-115v98h358v-98zM831 514h-3l-101 -234h-58l-101 234h-4v-234h-126v420h164l95 -246h2l95 246h164v-420h-127v234z" />
    <glyph glyph-name="minus" unicode="&#x2212;" horiz-adv-x="495" 
d="M461 239h-427v155h427v-155z" />
    <glyph glyph-name="uni25CC" unicode="&#x25cc;" horiz-adv-x="589" 
d="M250 504q0 19 13 33t33 14t34 -14t14 -33q0 -20 -14 -33.5t-34 -13.5t-33 13.5t-13 33.5zM385 449q0 20 13 34t33 14t34 -14t14 -34t-14 -33t-34 -13t-33 13t-13 33zM115 449q0 20 13 34t33 14t34 -14t14 -34t-14 -33t-34 -13t-33 13t-13 33zM438 315q0 20 13 34t33 14
t34 -14t14 -34t-14 -33t-34 -13t-33 13t-13 33zM57 315q0 20 13.5 34t33.5 14t33.5 -14t13.5 -34t-13.5 -33t-33.5 -13t-33.5 13t-13.5 33zM385 186q0 19 13 33t33 14t34 -14t14 -33q0 -20 -14 -33.5t-34 -13.5t-33 13.5t-13 33.5zM115 186q0 19 13 33t33 14t34 -14t14 -33
q0 -20 -14 -33.5t-34 -13.5t-33 13.5t-13 33.5zM250 124q0 20 13 34t33 14t34 -14t14 -34t-14 -33t-34 -13t-33 13t-13 33z" />
    <glyph glyph-name="uni0E10.descless" horiz-adv-x="588" 
d="M636 620l-118 -147q48 -54 48 -124q0 -36 -10 -70.5t-30 -75t-49 -89.5t-67 -114h-215l-88 183q-4 8 -10 13t-19 5h-51v114h152q26 0 41 -11t23 -30l58 -136h2q28 53 46.5 105t18.5 90q0 26 -8 42.5t-21 26t-28 13.5t-29 4q-12 0 -25 -3t-24 -9t-19 -16t-11 -25h-191
q4 50 27 90t60.5 67.5t85.5 42.5t102 15q35 0 63.5 -5.5t52.5 -16.5l49 61h184z" />
    <glyph glyph-name="uni0E0D.descless" horiz-adv-x="962" 
d="M28 140q0 30 12.5 54t33.5 41.5t48.5 29t57.5 15.5l-158 25v11q0 135 73.5 200t203.5 65q144 0 219 -64.5t75 -175.5v-96q0 -53 17.5 -72.5t51.5 -19.5t51 19.5t17 72.5v332h202v-369q0 -48 -16 -87.5t-49.5 -68t-84.5 -44.5t-120 -16t-120 16t-84.5 44.5t-50 68
t-16.5 87.5v111q0 45 -21 74.5t-71 29.5q-38 0 -63.5 -20t-30.5 -58l102 -22v-45q-32 -17 -52 -36.5t-20 -47.5q0 -23 14 -40t39 -17h26v-137h-88q-34 0 -69.5 6t-64 21.5t-46.5 43t-18 69.5z" />
    <glyph glyph-name="uni0E48.nikhahit" 
d="M-42 920h-169v200h169v-200zM-156 885q59 0 97.5 -32t38.5 -92q0 -59 -38.5 -90.5t-97.5 -31.5t-97 30.5t-38 91.5t38 92.5t97 31.5zM-156 726q15 0 26 10.5t11 24.5q0 17 -11 26.5t-26 9.5t-25.5 -9.5t-10.5 -26.5q0 -14 10.5 -24.5t25.5 -10.5z" />
    <glyph glyph-name="uni0E49.nikhahit" 
d="M20 1023v-103h-197q-28 0 -46 5t-28 14t-14 21t-4 25q0 21 -9 28.5t-26 7.5h-63v101h139q27 0 46 -10.5t19 -48.5q0 -30 13.5 -35t34.5 -5h135zM-156 885q59 0 97.5 -32t38.5 -92q0 -59 -38.5 -90.5t-97.5 -31.5t-97 30.5t-38 91.5t38 92.5t97 31.5zM-156 726
q15 0 26 10.5t11 24.5q0 17 -11 26.5t-26 9.5t-25.5 -9.5t-10.5 -26.5q0 -14 10.5 -24.5t25.5 -10.5z" />
    <glyph glyph-name="uni0E4A.nikhahit" 
d="M-398 1019q0 20 5 40t17 36t32 26t50 10q22 0 43 -8.5t37 -32.5q15 24 35 32.5t42 8.5q53 0 74 -30.5t21 -77.5v-41q14 0 19 9.5t5 26.5v122h108v-126q0 -22 -6.5 -41t-21 -33t-38 -22t-58.5 -8h-118v104q0 24 -20 24q-8 0 -13 -4t-5 -15h-49q0 11 -5 15t-11 4
q-11 0 -15.5 -7.5t-4.5 -19.5q0 -14 7.5 -21.5t31.5 -7.5h23v-72h-60q-24 0 -46.5 5t-40 17.5t-28 33.5t-10.5 53zM-156 885q59 0 97.5 -32t38.5 -92q0 -59 -38.5 -90.5t-97.5 -31.5t-97 30.5t-38 91.5t38 92.5t97 31.5zM-156 726q15 0 26 10.5t11 24.5q0 17 -11 26.5
t-26 9.5t-25.5 -9.5t-10.5 -26.5q0 -14 10.5 -24.5t25.5 -10.5z" />
    <glyph glyph-name="uni0E4B.nikhahit" 
d="M43 989h-90v-69h-149v69h-90v92h90v69h149v-69h90v-92zM-156 885q59 0 97.5 -32t38.5 -92q0 -59 -38.5 -90.5t-97.5 -31.5t-97 30.5t-38 91.5t38 92.5t97 31.5zM-156 726q15 0 26 10.5t11 24.5q0 17 -11 26.5t-26 9.5t-25.5 -9.5t-10.5 -26.5q0 -14 10.5 -24.5
t25.5 -10.5z" />
    <glyph glyph-name="uni0E31.upleft" 
d="M-30 764v-114h-220q-60 0 -96 13t-55 35t-24.5 51t-5.5 60v21h169v-21q0 -31 16 -38.5t53 -6.5h163z" />
    <glyph glyph-name="uni0E34.upleft" 
d="M-30 650h-422v114h422v-114z" />
    <glyph glyph-name="uni0E35.upleft" 
d="M-452 764h245v76h177v-190h-422v114z" />
    <glyph glyph-name="uni0E36.upleft" 
d="M-136 851q53 0 82 -23.5t29 -76.5t-29 -77t-82 -24h-316v114h209v2q0 35 24 60t83 25zM-166 751q0 -14 8 -22t22 -8t22 8t8 22t-8 22t-22 8t-22 -8t-8 -22z" />
    <glyph glyph-name="uni0E37.upleft" 
d="M-452 764h141v76h117v-76h47v76h117v-190h-422v114z" />
    <glyph glyph-name="uni0E48.upleft" 
d="M-216 880v240h174v-240h-174z" />
    <glyph glyph-name="uni0E49.upleft" 
d="M-30 994v-114h-179q-31 0 -51 5.5t-31 15.5t-15.5 23t-4.5 28q0 23 -10.5 31.5t-28.5 8.5h-50v112h134q15 0 28.5 -2.5t23 -9t15.5 -19.5t6 -34q0 -17 4 -26t11 -13.5t16.5 -5t21.5 -0.5h110z" />
    <glyph glyph-name="uni0E4A.upleft" 
d="M-462 1001q0 23 5.5 45t16.5 40t29 29t44 11q25 0 48.5 -9.5t40.5 -36.5q17 27 39.5 36.5t46.5 9.5q45 0 65 -27.5t20 -73.5v-65q16 0 21.5 10t5.5 30v136h110v-140q0 -25 -5.5 -46t-20 -36.5t-39 -24.5t-63.5 -9h-111v116q0 26 -22 26q-8 0 -14 -4t-6 -17h-54
q0 13 -5.5 17t-12.5 4q-12 0 -17.5 -8t-5.5 -22q0 -15 8.5 -23.5t35.5 -8.5h25v-80h-46q-27 0 -52 7t-44.5 21.5t-31 37.5t-11.5 55z" />
    <glyph glyph-name="uni0E4B.upleft" 
d="M58 1004h-95v-74h-149v74h-95v92h95v74h149v-74h95v-92z" />
    <glyph glyph-name="uni0E47.upleft" 
d="M-142 798q1 -24 18 -39t38 -15h56v-114h-23q-37 0 -71 15.5t-49 44.5q-15 -29 -43 -44.5t-66 -15.5q-64 0 -101.5 40.5t-37.5 109.5q0 70 42.5 111.5t133.5 41.5h237v-114h-230q-6 0 -14 -1t-14.5 -4.5t-11.5 -10.5t-5 -18q0 -21 13.5 -27.5t22.5 -6.5q14 0 28 11.5
t15 35.5h62z" />
    <glyph glyph-name="uni0E48.up2" 
d="M-211 880v200h169v-200h-169z" />
    <glyph glyph-name="uni0E49.up2" 
d="M10 983v-103h-197q-28 0 -46 5t-28 14t-14 21t-4 25q0 21 -9 28.5t-26 7.5h-63v101h139q27 0 46 -10.5t19 -48.5q0 -30 13.5 -35t34.5 -5h135z" />
    <glyph glyph-name="uni0E4A.up2" 
d="M-508 989q0 20 5 40t17 36t32 26t50 10q22 0 43 -8.5t37 -32.5q15 24 35 32.5t42 8.5q53 0 74 -30.5t21 -77.5v-41q14 0 19 9.5t5 26.5v122h108v-126q0 -22 -6.5 -41t-21 -33t-38.5 -22t-58 -8h-118v104q0 24 -20 24q-8 0 -13 -4t-5 -15h-49q0 11 -5 15t-11 4
q-11 0 -15.5 -7.5t-4.5 -19.5q0 -14 7.5 -21.5t31.5 -7.5h23v-72h-60q-24 0 -46.5 5t-40 17.5t-28 33.5t-10.5 53z" />
    <glyph glyph-name="uni0E4B.up2" 
d="M43 949h-90v-69h-149v69h-90v92h90v69h149v-69h90v-92z" />
    <glyph glyph-name="uni0E4C.upleft" 
d="M-13 941q-18 0 -31.5 -1t-21.5 -5.5t-12 -13.5t-4 -25v-21h-169v21q0 32 5.5 60.5t24.5 50.5t55 35t96 13h175v-114h-118z" />
    <glyph glyph-name="uni0E4C.up2" 
d="M-106 874q-17 0 -28.5 -0.5t-19 -4.5t-11 -12.5t-3.5 -22.5v-19h-152v19q0 29 5 54.5t22 45.5t49 31.5t86 11.5h158v-103h-106z" />
    </font>
</defs>
</svg>
