<?xml version="1.0" standalone="no"?>
<!DOCTYPE svg PUBLIC "-//W3C//DTD SVG 1.1//EN" "http://www.w3.org/Graphics/SVG/1.1/DTD/svg11.dtd" >
<svg xmlns="http://www.w3.org/2000/svg" xmlns:xlink="http://www.w3.org/1999/xlink" version="1.1">
<metadata>
Created by FontForge 20170731 at Sat Jul 24 06:22:40 2021
 By Aleksey,,,
Copyright (c) 2021 by Fontcraft: Jutipong Poosumas. All rights reserved.
</metadata>
<defs>
<font id="FCSubject-Regular" horiz-adv-x="0" >
  <font-face 
    font-family="FC Subject Regular"
    font-weight="400"
    font-stretch="normal"
    units-per-em="1000"
    panose-1="0 0 0 0 0 0 0 0 0 0"
    ascent="800"
    descent="-200"
    x-height="511"
    cap-height="700"
    bbox="-527 -282 1021 1104"
    underline-thickness="50"
    underline-position="-175"
    unicode-range="U+000A-FB02"
  />
<missing-glyph horiz-adv-x="600" 
 />
    <glyph glyph-name="fi" unicode="fi" horiz-adv-x="573" 
d="M332 627q-14 2 -27.5 3t-24.5 1q-32 0 -50 -14.5t-18 -60.5v-51h94v-68h-94v-437h-100v437h-84v68h84v54q0 40 10.5 68t30 46t46.5 26t60 8q17 0 35 -2t38 -6v-72zM394 647q0 23 16 40t45 17q26 0 42 -17t16 -40t-16 -40t-42 -17q-29 0 -45 17t-16 40zM405 511h98v-511
h-98v511z" />
    <glyph glyph-name="fl" unicode="fl" horiz-adv-x="616" 
d="M332 627q-14 2 -27.5 3t-24.5 1q-32 0 -50 -14.5t-18 -60.5v-51h94v-68h-94v-437h-100v437h-84v68h84v54q0 40 10.5 68t30 46t46.5 26t60 8q17 0 35 -2t38 -6v-72zM396 700h100v-548q0 -43 14.5 -61t57.5 -18q8 0 15 1t17 3v-71q-17 -5 -32 -7t-32 -2q-68 0 -104 34
t-36 114v555z" />
    <glyph glyph-name="ru.lakyao" unicode="&#xe24;&#xe32;" horiz-adv-x="904" 
d="M53 143q0 34 11.5 61.5t31 49.5t44.5 37.5t53 25.5l-148 25v8q0 112 66 171.5t186 59.5q108 0 171 -46q42 23 91 34.5t94 11.5q41 0 76.5 -10.5t62 -31.5t42 -52.5t15.5 -73.5v-613h-101v588q0 29 -9.5 50t-25.5 35t-37.5 21t-44.5 7q-32 0 -59 -6t-57 -15q17 -26 26 -57
t9 -69v-554h-101v545q0 73 -37.5 114.5t-114.5 41.5q-72 0 -113 -34t-46 -96l132 -25v-30q-18 -7 -38 -20t-37.5 -32.5t-29 -44.5t-11.5 -55q0 -48 29.5 -70t74.5 -22h29v-72h-58q-34 0 -65.5 7t-56 24t-39.5 44.5t-15 67.5z" />
    <glyph glyph-name="lu.lakyao" unicode="&#xe26;&#xe32;" horiz-adv-x="908" 
d="M51 350q0 112 65 171.5t185 59.5q109 0 172 -46q42 23 91 34.5t93 11.5q41 0 77 -10.5t62.5 -31.5t41.5 -52.5t15 -73.5v-613h-99v588q0 29 -9.5 50t-26 35t-38 21t-45.5 7q-31 0 -58 -6t-56 -15q34 -53 34 -126v-554h-101v545q0 73 -37.5 114.5t-115.5 41.5
q-72 0 -113 -34t-46 -96l138 -26v-30q-38 -12 -60 -37.5t-22 -70.5v-87q0 -60 -33 -90t-92 -30h-54v72h29q54 0 54 64v69q0 39 24.5 71.5t74.5 40.5l-150 25v8z" />
    <glyph glyph-name="Fontcraft" unicode="FontcraftLogo" horiz-adv-x="790" 
d="M396 709q69 0 129 -26t105 -71t71 -105.5t26 -129.5t-26 -129.5t-71 -105.5t-105 -71t-129 -26t-129.5 26t-106 71t-71.5 105.5t-26 129.5t26 129.5t71.5 105.5t106 71t129.5 26zM396 104q57 0 106.5 22t86 59t58 87t21.5 105q0 57 -21.5 107t-59 87t-86.5 58t-105 21
q-57 0 -106.5 -21.5t-87 -58.5t-59 -87t-21.5 -106q0 -57 21.5 -106.5t59 -86.5t87 -58.5t106.5 -21.5zM581 500q17 -27 26.5 -57.5t9.5 -65.5q0 -46 -17.5 -87t-48 -71t-70.5 -47.5t-85 -17.5q-47 0 -88 17.5t-71.5 47.5t-48 71t-17.5 87q0 47 17.5 87.5t48 70.5t71.5 47
t88 17q40 0 78 -14t67 -39l-40 -180q-7 -29 -16.5 -40.5t-29.5 -11.5q-17 0 -27 8t-7 28l16 76q1 8 -4 15.5t-20 7.5q-20 0 -25 -20l-16 -73q-3 -15 -14 -30.5t-36 -15.5q-13 0 -20.5 9.5t-2.5 34.5l13 65q3 20 -9.5 26.5t-32.5 6.5q-26 0 -34 -8t-8 -18q0 -11 5.5 -19
t15.5 -8h7l-7 -37q-4 -20 -2.5 -38t10 -32t25 -22t40.5 -8q18 0 36.5 8t29.5 31q3 -11 10 -18.5t17 -12t20.5 -6.5t19.5 -2q22 0 37.5 7.5t26 19t17 26t9.5 29.5zM200 -26l-9 -52q-3 -14 -12 -20.5t-21 -6.5t-18.5 6.5t-4.5 20.5l9 52q7 28 33 28q12 0 18.5 -7.5t4.5 -20.5z
M400 -79l1 7h20l-1 -6q-2 -14 -11 -20.5t-21 -6.5t-18.5 6.5t-4.5 20.5l9 52q7 28 33 28q11 0 17.5 -6.5t4.5 -19.5q0 -2 -2 -8l-20 -1q1 3 1 7q2 10 -4 10q-5 0 -6 -2.5t-2 -7.5l-11 -53q0 -3 1.5 -6t4.5 -3q5 0 6.5 3t2.5 6zM79 0h50l-4 -17h-29l-4 -26h24l-4 -16h-23
l-9 -45h-20zM264 0h21l-18 -104h-21l-6 67l-12 -67h-18l17 104h23l3 -53v-13h1q0 5 1 8.5t2 8.5zM305 0h55l-3 -17h-18l-14 -87h-22l16 87h-17zM504 -29v-3q-4 -16 -16 -21l3 -51h-22v47h-4l-8 -47h-20l18 104h28q12 0 18 -6t3 -23zM545 0h25l3 -104h-23l1 23h-16l-7 -23
h-20zM609 0h50l-3 -17h-30l-4 -26h24l-3 -16h-24l-9 -45h-20zM675 0h55l-3 -17h-16l-16 -87h-22l16 87h-17zM169 -79l11 53q0 10 -6 10q-7 0 -9 -10l-10 -53q0 -3 1.5 -6t4.5 -3q5 0 6.5 3t1.5 6zM472 -16l-4 -26h5q5 0 7 3.5t3 6.5l2 5q0 5 -1 8t-6 3h-6zM542 -62h9l1 30z
" />
    <glyph glyph-name=".notdef" horiz-adv-x="600" 
 />
    <glyph glyph-name=".null" 
 />
    <glyph glyph-name=".null" 
 />
    <glyph glyph-name="uni000D" unicode="&#xd;" horiz-adv-x="250" 
 />
    <glyph glyph-name="uni000A" unicode="&#xa;" horiz-adv-x="300" 
 />
    <glyph glyph-name="space" unicode=" " horiz-adv-x="300" 
 />
    <glyph glyph-name="exclam" unicode="!" horiz-adv-x="256" 
d="M78 415v285h100v-285l-6 -193h-88zM129 129q30 0 48 -19.5t18 -45.5t-18 -45t-48 -19q-31 0 -49 19t-18 45t18 45.5t49 19.5z" />
    <glyph glyph-name="quotedbl" unicode="&#x22;" horiz-adv-x="332" 
d="M48 700h88l-9 -236h-73zM195 700h90l-8 -236h-73z" />
    <glyph glyph-name="numbersign" unicode="#" horiz-adv-x="684" 
d="M148 194h-120v64h134l36 182h-121v65h136l41 195h91l-41 -195h141l40 195h91l-41 -195h121v-65h-134l-37 -182h121v-64h-136l-39 -194h-90l39 194h-140l-39 -194h-93zM393 258l38 182h-142l-36 -182h140z" />
    <glyph glyph-name="dollar" unicode="$" horiz-adv-x="607" 
d="M135 198q7 -56 52.5 -90t118.5 -34t116 31t43 85q0 23 -7.5 40.5t-25 31t-45 24t-67.5 19.5l-72 15q-104 24 -153 67.5t-49 118.5q0 41 16 75.5t43.5 60t66 42t83.5 20.5v94h89v-94q52 -5 90.5 -23.5t65 -46.5t40 -63.5t15.5 -74.5h-98q-5 57 -45.5 94.5t-112.5 37.5
q-33 0 -60 -8t-47 -23t-31 -36t-11 -47q0 -45 32.5 -70.5t105.5 -40.5l73 -16q109 -22 159.5 -66.5t50.5 -119.5q0 -89 -60.5 -143.5t-166.5 -62.5v-99h-89v100q-97 11 -155.5 64.5t-62.5 137.5h98z" />
    <glyph glyph-name="percent" unicode="%" horiz-adv-x="722" 
d="M37 550q0 36 11 65.5t30.5 50t46 31.5t57.5 11t57.5 -11t46 -31.5t30.5 -50t11 -65.5t-11 -65t-30.5 -49.5t-46 -31.5t-57.5 -11t-57.5 11t-46 31.5t-30.5 49.5t-11 65zM613 700l-414 -700h-90l413 700h91zM104 550q0 -45 21 -70t57 -25q35 0 56 25t21 70t-21 69.5
t-56 24.5q-36 0 -57 -24.5t-21 -69.5zM394 149q0 36 11 65.5t30.5 50t45.5 31.5t57 11q65 0 106 -42.5t41 -115.5q0 -71 -41 -113.5t-106 -42.5q-31 0 -57 11t-45.5 31.5t-30.5 49.5t-11 64zM462 149q0 -43 20.5 -68.5t55.5 -25.5q36 0 57.5 25.5t21.5 68.5q0 45 -21.5 70.5
t-57.5 25.5q-35 0 -55.5 -25.5t-20.5 -70.5z" />
    <glyph glyph-name="ampersand" unicode="&#x26;" horiz-adv-x="693" 
d="M265 -8q-106 0 -161.5 50.5t-55.5 136.5q0 52 25.5 98.5t88.5 80.5q1 0 7.5 3.5t14 7.5t14 7.5l6.5 3.5q-28 29 -45.5 52t-27.5 43t-13.5 39t-3.5 38q0 33 12.5 61.5t36.5 49.5t57.5 33t75.5 12t74.5 -12.5t55 -33.5t34.5 -50t12 -62q0 -51 -32.5 -96t-114.5 -88
l161 -172q16 24 27 57.5t16 64.5h83q-3 -23 -8.5 -48.5t-14 -50t-19 -46.5t-23.5 -40l130 -131h-107l-80 79q-42 -42 -100 -64.5t-125 -22.5zM199 546q0 -12 3 -25t11.5 -28.5t23.5 -34t39 -42.5q62 32 88 64t26 67q0 40 -26 66t-68 26q-43 0 -70 -26.5t-27 -66.5zM275 64
q47 0 87.5 19.5t68.5 51.5l-176 191q-3 -1 -8.5 -4.5t-11.5 -6.5t-11.5 -5.5t-7.5 -3.5q-24 -13 -38.5 -28.5t-23 -31.5t-11 -32.5t-2.5 -31.5q0 -48 33 -83t101 -35z" />
    <glyph glyph-name="quotesingle" unicode="'" horiz-adv-x="184" 
d="M48 700h90l-9 -236h-75z" />
    <glyph glyph-name="parenleft" unicode="(" horiz-adv-x="316" 
d="M291 740q-27 -39 -49 -87t-38 -101.5t-24.5 -110t-8.5 -112.5t8.5 -113t24.5 -110.5t38 -101.5t49 -86h-92q-61 82 -92.5 187t-31.5 224q0 118 31.5 222.5t92.5 188.5h92z" />
    <glyph glyph-name="parenright" unicode=")" horiz-adv-x="316" 
d="M117 740q60 -84 91.5 -188.5t31.5 -222.5q0 -119 -31.5 -224t-91.5 -187h-94q27 38 49.5 86t38 101.5t24.5 110.5t9 113t-9 112.5t-24.5 110t-38 101.5t-49.5 87h94z" />
    <glyph glyph-name="asterisk" unicode="*" horiz-adv-x="360" 
d="M227 535l68 -88l-53 -38l-62 92l-61 -92l-53 38l67 88l-105 30l20 62l104 -37l-4 110h65l-4 -110l103 37l22 -62z" />
    <glyph glyph-name="plus" unicode="+" horiz-adv-x="573" 
d="M242 277h-193v80h193v174h90v-174h192v-80h-192v-174h-90v174z" />
    <glyph glyph-name="comma" unicode="," horiz-adv-x="185" 
d="M1 -123l54 224h102l-73 -224h-83z" />
    <glyph glyph-name="hyphen" unicode="-" horiz-adv-x="483" 
d="M434 277h-385v80h385v-80z" />
    <glyph glyph-name="period" unicode="." horiz-adv-x="189" 
d="M96 0q-32 0 -50.5 19t-18.5 45t18.5 45.5t50.5 19.5q29 0 47.5 -19.5t18.5 -45.5t-18.5 -45t-47.5 -19z" />
    <glyph glyph-name="slash" unicode="/" horiz-adv-x="393" 
d="M372 700l-265 -700h-104l267 700h102z" />
    <glyph glyph-name="zero" unicode="0" horiz-adv-x="627" 
d="M314 -8q-63 0 -115 24.5t-88.5 71t-56.5 113t-20 150.5q0 85 20 151.5t56.5 112t88.5 69.5t115 24t114 -24t88 -69.5t57 -112t20 -151.5q0 -84 -20 -150.5t-56.5 -113t-88 -71t-114.5 -24.5zM314 76q79 0 127 69.5t48 205.5q0 137 -48 205.5t-127 68.5
q-80 0 -127.5 -68.5t-47.5 -205.5q0 -136 47.5 -205.5t127.5 -69.5z" />
    <glyph glyph-name="one" unicode="1" horiz-adv-x="412" 
d="M217 700h80v-700h-101v612l-175 -75v80z" />
    <glyph glyph-name="two" unicode="2" horiz-adv-x="559" 
d="M186 83v-3h331v-80h-476v61q59 59 109 110q22 21 43.5 43t40.5 41l34 34l23 23q37 38 61 65.5t38 49t19.5 40t5.5 37.5q0 54 -35.5 89t-103.5 35q-37 0 -64 -11t-45 -30.5t-27 -46t-9 -56.5h-92q0 46 14.5 86.5t43.5 71t73.5 48.5t105.5 18q57 0 101 -15t74 -42t45.5 -63
t15.5 -78q0 -31 -7 -57t-24 -53t-45.5 -59.5t-71.5 -76.5z" />
    <glyph glyph-name="three" unicode="3" horiz-adv-x="595" 
d="M398 356q70 -9 112.5 -52t42.5 -115q0 -39 -15.5 -75t-47.5 -63t-81 -43t-117 -16q-63 0 -110 18.5t-78.5 49.5t-47 71.5t-15.5 84.5h95q0 -25 10.5 -50.5t30.5 -46t49 -33t66 -12.5q75 0 118 33.5t43 91.5q0 59 -46.5 87.5t-120.5 28.5h-60v73h59q31 0 58 9t46.5 25
t31 39t11.5 50q0 57 -38 88.5t-102 31.5q-33 0 -59.5 -11.5t-45.5 -31t-29 -46.5t-10 -58h-93q0 49 16.5 90t47 71t74.5 46.5t99 16.5q58 0 102.5 -14t74.5 -39t45.5 -58.5t15.5 -71.5q0 -71 -35.5 -110.5t-96.5 -55.5v-3z" />
    <glyph glyph-name="four" unicode="4" horiz-adv-x="581" 
d="M366 139h-345v67l353 494h90v-480h96v-81h-93v-139h-101v139zM369 561l-243 -344h243v344z" />
    <glyph glyph-name="five" unicode="5" horiz-adv-x="592" 
d="M136 216q0 -25 10.5 -50.5t30 -46t48.5 -33t67 -12.5t68 11.5t51 32.5t32.5 50t11.5 63q0 35 -12 64.5t-33 51t-50 33.5t-63 12q-94 0 -144 -68h-100l39 376h425v-79h-344l-27 -233h2q29 40 75 58.5t103 18.5q49 0 90.5 -17t71.5 -48t47 -73t17 -92q0 -51 -15.5 -95.5
t-48 -77t-82 -51.5t-117.5 -19q-61 0 -107.5 18.5t-78 49.5t-47 71.5t-15.5 84.5h95z" />
    <glyph glyph-name="six" unicode="6" horiz-adv-x="610" 
d="M343 467q50 0 92 -17.5t72.5 -48.5t47.5 -73t17 -91q0 -54 -19.5 -99t-54 -77.5t-81.5 -50.5t-102 -18t-105.5 19.5t-88.5 61.5t-60.5 109t-22.5 162q0 87 19 154.5t55 114t88 71t117 24.5q54 0 96.5 -15.5t74 -42.5t51.5 -64t28 -81h-100q-16 59 -51.5 91t-98.5 32
q-94 0 -140.5 -75.5t-44.5 -212.5h2q23 61 77 94t132 33zM312 74q34 0 63.5 12t51.5 34t34.5 51.5t12.5 63.5t-12.5 63t-34 50.5t-51 33.5t-63.5 12q-33 0 -62.5 -12t-51.5 -33t-35 -49t-13 -60q0 -36 12.5 -66t34.5 -52.5t51 -35t63 -12.5z" />
    <glyph glyph-name="seven" unicode="7" horiz-adv-x="533" 
d="M512 700v-61l-279 -639h-115l280 621h-377v79h491z" />
    <glyph glyph-name="eight" unicode="8" horiz-adv-x="604" 
d="M304 -8q-66 0 -116 16t-83 43.5t-50 64.5t-17 78q0 68 40.5 114t106.5 60v2q-58 17 -90 58t-32 100q0 36 16 68.5t46.5 57.5t75.5 39.5t103 14.5q57 0 101.5 -14.5t75 -39.5t46.5 -57.5t16 -68.5q0 -57 -31.5 -99t-90.5 -59v-2q65 -14 106 -60t41 -114q0 -41 -16.5 -78
t-49.5 -64.5t-82.5 -43.5t-115.5 -16zM304 404q32 0 58 8t45.5 23t30 35.5t10.5 45.5q0 53 -40 87t-104 34q-66 0 -105.5 -34t-39.5 -87q0 -25 11 -45.5t30 -35.5t46 -23t58 -8zM304 68q36 0 66.5 10.5t52 29t34 44t12.5 54.5t-12.5 53t-34 41t-52 27t-66.5 10
q-37 0 -67.5 -10t-52.5 -27t-34 -41t-12 -53t12 -54.5t34 -44t52.5 -29t67.5 -10.5z" />
    <glyph glyph-name="nine" unicode="9" horiz-adv-x="608" 
d="M43 194h100q16 -59 50.5 -91t99.5 -32q94 0 139.5 75.5t44.5 212.5h-1q-23 -60 -78 -92.5t-130 -32.5q-51 0 -93 17t-72.5 47.5t-47.5 72.5t-17 91q0 53 19.5 98t54 78t81.5 51.5t102 18.5t105 -19t88.5 -61.5t61 -109.5t22.5 -163q0 -86 -19.5 -153.5t-55.5 -114
t-88 -71t-117 -24.5q-53 0 -96 15t-74.5 42t-51.5 64t-27 81zM296 306q34 0 63.5 12.5t51.5 33.5t35 49.5t13 59.5q0 36 -12.5 66t-34.5 52.5t-51.5 35t-64.5 12.5q-34 0 -63.5 -12.5t-51 -34t-33.5 -51t-12 -63.5t12 -63.5t33.5 -51t51 -33.5t63.5 -12z" />
    <glyph glyph-name="colon" unicode=":" horiz-adv-x="259" 
d="M130 389q-31 0 -49.5 19t-18.5 45t18.5 45t49.5 19q30 0 48.5 -19t18.5 -45t-18.5 -45t-48.5 -19zM130 0q-31 0 -49.5 19t-18.5 45t18.5 45.5t49.5 19.5q30 0 48.5 -19.5t18.5 -45.5t-18.5 -45t-48.5 -19z" />
    <glyph glyph-name="semicolon" unicode=";" horiz-adv-x="259" 
d="M62 453q0 26 18.5 45t49.5 19q30 0 48.5 -19t18.5 -45t-18.5 -45t-48.5 -19q-31 0 -49.5 19t-18.5 45zM33 -123l54 224h102l-73 -224h-83z" />
    <glyph glyph-name="less" unicode="&#x3c;" horiz-adv-x="554" 
d="M52 285v65l450 273v-96l-349 -209v-1l349 -208v-95z" />
    <glyph glyph-name="equal" unicode="=" horiz-adv-x="522" 
d="M49 450h424v-76h-424v76zM49 260h424v-78h-424v78z" />
    <glyph glyph-name="greater" unicode="&#x3e;" horiz-adv-x="554" 
d="M502 285l-450 -271v95l348 208v1l-348 209v96l450 -273v-65z" />
    <glyph glyph-name="question" unicode="?" horiz-adv-x="529" 
d="M48 493q1 45 15 84t40.5 68t65 46t89.5 17q117 0 171 -47t54 -130q0 -35 -11.5 -59.5t-29.5 -44t-38 -36t-38 -36.5t-29.5 -46t-11.5 -64v-23h-105v26q0 42 12.5 71.5t30.5 52t40 39.5t40 34t30.5 35.5t12.5 44.5q0 48 -31.5 75.5t-94.5 27.5q-58 0 -87 -38.5t-34 -96.5
h-91zM273 0q-31 0 -49 19t-18 45t18 45.5t49 19.5q30 0 48 -19.5t18 -45.5t-18 -45t-48 -19z" />
    <glyph glyph-name="at" unicode="@" horiz-adv-x="847" 
d="M542 -84q-52 -6 -109 -6q-91 0 -165 25.5t-126 74t-80 119t-28 160.5q0 86 28 156t79 120t124 77t163 27q75 0 144.5 -22.5t122.5 -66t85 -108t32 -148.5q0 -126 -43.5 -186t-118.5 -60q-40 0 -70.5 22t-41.5 61h-2q-17 -39 -52 -58.5t-76 -19.5q-38 0 -70.5 13t-56 38.5
t-37 62.5t-13.5 85q0 39 11 75.5t32.5 65t55 45.5t78.5 17q36 0 69 -18t49 -50h1v60h65v-258q0 -24 5.5 -38.5t13.5 -23t18 -11.5t19 -3q42 0 65 44.5t23 136.5q0 63 -22 114t-62.5 87t-98 55.5t-128.5 19.5q-69 0 -126.5 -21t-99.5 -61t-65 -97.5t-23 -131.5
q0 -148 84 -228.5t239 -80.5q27 0 53.5 1.5t54.5 6.5v-72zM415 150q48 0 76.5 35.5t28.5 100.5q0 63 -27.5 98t-77.5 35q-48 0 -78 -37t-30 -100q0 -23 6.5 -46.5t20 -42.5t33.5 -31t48 -12z" />
    <glyph glyph-name="A" unicode="A" horiz-adv-x="643" 
d="M260 700h124l256 -700h-108l-61 172h-299l-61 -172h-107zM448 248l-124 355h-3l-126 -355h253z" />
    <glyph glyph-name="B" unicode="B" horiz-adv-x="620" 
d="M55 700h268q103 0 162.5 -45.5t59.5 -125.5q0 -31 -9 -59.5t-26 -51.5t-41.5 -39t-55.5 -21v-3q36 -3 66.5 -16.5t53 -35.5t35.5 -52t13 -67q0 -88 -65 -136t-177 -48h-284v700zM156 386h145q66 0 104.5 33.5t38.5 89.5q0 52 -38.5 82t-105.5 30h-144v-235zM314 79
q78 0 120 29.5t42 87.5q0 60 -44 90t-124 30h-152v-237h158z" />
    <glyph glyph-name="C" unicode="C" horiz-adv-x="678" 
d="M41 354q0 83 21.5 148.5t62.5 111.5t100 70t134 24q56 0 104 -16t85.5 -45.5t62 -71t32.5 -91.5h-102q-16 65 -64.5 103t-117.5 38q-101 0 -158 -71.5t-57 -199.5q0 -131 56 -204t159 -73q70 0 118.5 34.5t65.5 97.5h101q-8 -50 -32 -90t-61 -68.5t-86 -43.5t-106 -15
q-75 0 -134 25t-100 71.5t-62.5 113.5t-21.5 152z" />
    <glyph glyph-name="D" unicode="D" horiz-adv-x="670" 
d="M55 700h228q80 0 144 -23t109 -67t69 -108.5t24 -147.5q0 -84 -24.5 -150t-69.5 -111.5t-109.5 -69t-144.5 -23.5h-226v700zM269 79q118 0 185.5 71.5t67.5 201.5q0 129 -67 199t-185 70h-114v-542h113z" />
    <glyph glyph-name="E" unicode="E" horiz-adv-x="569" 
d="M156 621v-230h315v-80h-315v-232h364v-79h-465v700h465v-79h-364z" />
    <glyph glyph-name="F" unicode="F" horiz-adv-x="562" 
d="M156 621v-230h315v-80h-315v-311h-101v700h465v-79h-364z" />
    <glyph glyph-name="G" unicode="G" horiz-adv-x="700" 
d="M383 363h276v-67q0 -54 -13 -108t-46.5 -97.5t-90.5 -71t-144 -27.5q-75 0 -135 25t-102 71.5t-64.5 113.5t-22.5 152q0 83 22.5 148.5t64 111.5t101 70t132.5 24q57 0 107 -16t89.5 -45.5t66 -71t35.5 -91.5h-103q-7 32 -25 58t-43.5 44.5t-57 28.5t-65.5 10
q-51 0 -92 -18.5t-70 -53.5t-44.5 -85.5t-15.5 -114.5q0 -65 15.5 -116t45 -86.5t70.5 -54.5t92 -19q94 0 140.5 49t46.5 143v18h-170v76z" />
    <glyph glyph-name="H" unicode="H" horiz-adv-x="681" 
d="M626 700v-700h-101v311h-369v-311h-101v700h101v-309h369v309h101z" />
    <glyph glyph-name="I" unicode="I" horiz-adv-x="222" 
d="M62 700h101v-700h-101v700z" />
    <glyph glyph-name="J" unicode="J" horiz-adv-x="535" 
d="M475 700v-487q0 -108 -61.5 -164.5t-167.5 -56.5q-48 0 -89.5 15.5t-71.5 43.5t-47 68.5t-17 89.5h98q0 -30 10 -54t27.5 -40.5t40.5 -25.5t49 -9q59 0 93 33t34 102v485h102z" />
    <glyph glyph-name="K" unicode="K" horiz-adv-x="628" 
d="M408 328q7 -10 19 -30t27.5 -45t32.5 -53.5t34 -56.5q40 -66 87 -143h-114q-35 60 -67 113q-13 23 -27.5 47t-28 46t-25 41t-19.5 32q-16 23 -39 40.5t-56 22.5l-76 -74v-268h-101v700h101v-311l317 311h124l-305 -299q35 -4 66 -23t50 -50z" />
    <glyph glyph-name="L" unicode="L" horiz-adv-x="514" 
d="M55 700h101v-621h336v-79h-437v700z" />
    <glyph glyph-name="M" unicode="M" horiz-adv-x="812" 
d="M55 700h124l227 -551h3l223 551h127v-700h-100v540h-1l-222 -540h-58l-223 540h-3v-540h-97v700z" />
    <glyph glyph-name="N" unicode="N" horiz-adv-x="675" 
d="M55 700h92l371 -531h3v531h99v-700h-89l-375 538h-2v-538h-99v700z" />
    <glyph glyph-name="O" unicode="O" horiz-adv-x="717" 
d="M358 -8q-75 0 -135 24.5t-102 71t-64.5 113t-22.5 150.5q0 83 22.5 149.5t64.5 112.5t102 70.5t135 24.5q76 0 136 -24.5t102 -70.5t64 -112.5t22 -149.5q0 -84 -22 -150.5t-64 -113t-102 -71t-136 -24.5zM358 78q103 0 160.5 72.5t57.5 200.5t-57.5 199.5t-160.5 71.5
t-160.5 -71.5t-57.5 -199.5t57.5 -200.5t160.5 -72.5z" />
    <glyph glyph-name="P" unicode="P" horiz-adv-x="572" 
d="M534 504q0 -97 -58 -147.5t-162 -50.5h-158v-306h-101v700h260q103 0 161 -49.5t58 -146.5zM295 386q69 0 106 28.5t37 89.5q0 63 -36.5 90t-106.5 27h-139v-235h139z" />
    <glyph glyph-name="Q" unicode="Q" horiz-adv-x="717" 
d="M316 -5q-66 6 -118.5 33.5t-89 73t-55.5 108.5t-19 141q0 83 22.5 149.5t64.5 112.5t102 70.5t135 24.5q76 0 136 -24.5t102 -70.5t64 -112.5t22 -149.5q0 -79 -19.5 -143t-57 -109.5t-91 -72.5t-121.5 -32q11 -45 49.5 -67.5t100.5 -22.5h51v-75h-54q-92 0 -152.5 44
t-71.5 122zM358 78q103 0 160.5 72.5t57.5 200.5t-57.5 199.5t-160.5 71.5t-160.5 -71.5t-57.5 -199.5t57.5 -200.5t160.5 -72.5z" />
    <glyph glyph-name="R" unicode="R" horiz-adv-x="613" 
d="M463 0l-167 306h-140v-306h-101v700h279q104 0 162 -49.5t58 -146.5q0 -77 -41 -126t-122 -58l181 -320h-109zM156 386h158q70 0 107 28.5t37 89.5q0 63 -37 90t-107 27h-158v-235z" />
    <glyph glyph-name="S" unicode="S" horiz-adv-x="607" 
d="M135 198q7 -56 52.5 -90t118.5 -34t116 31t43 85q0 23 -7.5 40.5t-25 31t-45 24t-67.5 19.5l-72 15q-104 24 -153 67.5t-49 118.5q0 45 19.5 82.5t53 64t79.5 41t99 14.5q63 0 110.5 -16.5t79.5 -45.5t49 -67.5t19 -82.5h-98q-5 57 -45.5 94.5t-112.5 37.5q-33 0 -60 -8
t-47 -23t-31 -36t-11 -47q0 -45 32.5 -70.5t105.5 -40.5l73 -16q109 -22 159.5 -66.5t50.5 -119.5q0 -48 -19 -87t-53.5 -66t-84 -41.5t-110.5 -14.5q-59 0 -107.5 15t-83 42t-54.5 65t-22 84h98z" />
    <glyph glyph-name="T" unicode="T" horiz-adv-x="561" 
d="M547 621h-216v-621h-102v621h-216v79h534v-79z" />
    <glyph glyph-name="U" unicode="U" horiz-adv-x="665" 
d="M156 257q0 -84 46.5 -130.5t130.5 -46.5q83 0 129.5 46.5t46.5 130.5v443h101v-452q0 -58 -19.5 -105.5t-55.5 -81t-87 -51.5t-115 -18t-115.5 18t-87.5 51.5t-55.5 81t-19.5 105.5v452h101v-443z" />
    <glyph glyph-name="V" unicode="V" horiz-adv-x="645" 
d="M260 0l-256 700h107l210 -599h3l208 599h110l-258 -700h-124z" />
    <glyph glyph-name="W" unicode="W" horiz-adv-x="921" 
d="M14 700h107l136 -560h3l159 560h81l158 -560h5l137 560h106l-187 -700h-98l-160 548h-4l-158 -548h-97z" />
    <glyph glyph-name="X" unicode="X" horiz-adv-x="637" 
d="M250 351l-231 349h121l178 -287h3l179 287h120l-230 -349l230 -351h-119l-180 287h-3l-182 -287h-117z" />
    <glyph glyph-name="Y" unicode="Y" horiz-adv-x="616" 
d="M359 316v-316h-102v318l-249 382h118l181 -286h2l181 286h118z" />
    <glyph glyph-name="Z" unicode="Z" horiz-adv-x="613" 
d="M566 80v-80h-518v68l389 550v2h-379v80h503v-67l-384 -551v-2h389z" />
    <glyph glyph-name="bracketleft" unicode="[" horiz-adv-x="362" 
d="M195 668v-680h141v-70h-233v822h233v-72h-141z" />
    <glyph glyph-name="backslash" unicode="\" horiz-adv-x="393" 
d="M390 0h-102l-267 700h104z" />
    <glyph glyph-name="bracketright" unicode="]" horiz-adv-x="362" 
d="M28 740h233v-822h-233v70h140v680h-140v72z" />
    <glyph glyph-name="asciicircum" unicode="^" horiz-adv-x="405" 
d="M376 484h-87l-87 136h-3l-85 -136h-86l137 216h74z" />
    <glyph glyph-name="underscore" unicode="_" horiz-adv-x="585" 
d="M557 -109h-529v75h529v-75z" />
    <glyph glyph-name="grave" unicode="`" horiz-adv-x="251" 
d="M222 464h-89l-122 236h111z" />
    <glyph glyph-name="a" unicode="a" horiz-adv-x="533" 
d="M275 519q48 0 86.5 -13t66 -36.5t42 -56.5t14.5 -72v-341h-96v96h-1q-10 -24 -29.5 -43.5t-44 -33t-53.5 -20.5t-58 -7q-36 0 -66.5 11t-52.5 31t-34 47.5t-12 61.5q0 71 49.5 109t144.5 44l153 12v28q0 51 -29.5 80.5t-82.5 29.5q-51 0 -83.5 -24t-40.5 -66h-90
q8 74 65 118.5t152 44.5zM384 247l-137 -10q-55 -3 -83.5 -26.5t-28.5 -61.5t27 -62.5t72 -24.5q30 0 57 11.5t47.5 31t33 45t12.5 52.5v45z" />
    <glyph glyph-name="b" unicode="b" horiz-adv-x="576" 
d="M324 519q48 0 88 -18.5t68.5 -52.5t44.5 -82.5t16 -109.5q0 -62 -16.5 -111t-45 -83t-68 -52t-84.5 -18q-61 0 -110 30t-70 81h-2v-103h-94v700h99v-293h1q23 54 68 83t105 29zM296 71q67 0 106.5 49.5t39.5 134.5q0 84 -40 134.5t-106 50.5q-33 0 -60 -13.5t-46.5 -37.5
t-30 -58t-10.5 -76q0 -85 40 -134.5t107 -49.5z" />
    <glyph glyph-name="c" unicode="c" horiz-adv-x="540" 
d="M505 160q-10 -79 -69 -123.5t-153 -44.5q-112 0 -177 68.5t-65 194.5q0 62 17 111t48.5 83t76 52t99.5 18q46 0 85 -12t68 -34.5t47 -54.5t23 -71h-92q-11 43 -45 68.5t-83 25.5q-66 0 -105.5 -49t-39.5 -137q0 -87 39.5 -136.5t105.5 -49.5q48 0 83 24.5t45 66.5h92z
" />
    <glyph glyph-name="d" unicode="d" horiz-adv-x="575" 
d="M250 519q60 0 105.5 -29t68.5 -83h2v293h97v-700h-93v103h-3q-21 -51 -69 -81t-109 -30q-46 0 -85.5 18t-68 52t-44.5 83t-16 111q0 61 15.5 109.5t44 82.5t68 52.5t87.5 18.5zM280 71q66 0 106.5 50t40.5 134q0 42 -10.5 76t-30 58t-46.5 37.5t-60 13.5t-60 -13
t-46.5 -37.5t-30 -58.5t-10.5 -76q0 -85 40.5 -134.5t106.5 -49.5z" />
    <glyph glyph-name="e" unicode="e" horiz-adv-x="553" 
d="M514 236h-377q2 -78 43 -122.5t106 -44.5q52 0 84.5 23.5t46.5 67.5h91q-16 -83 -72.5 -125.5t-151.5 -42.5q-113 0 -178 68.5t-65 194.5q0 61 17 110t48.5 83t76 52.5t99.5 18.5q54 0 97 -18.5t73 -51.5t46 -80t16 -105v-28zM281 443q-61 0 -98.5 -41t-44.5 -107h283
q-1 33 -12 60t-29.5 46.5t-43.5 30.5t-55 11z" />
    <glyph glyph-name="f" unicode="f" horiz-adv-x="333" 
d="M332 627q-14 2 -27.5 3t-24.5 1q-32 0 -50 -14.5t-18 -60.5v-51h94v-68h-94v-437h-100v437h-84v68h84v54q0 40 10.5 68t30 46t46.5 26t60 8q17 0 35 -2t38 -6v-72z" />
    <glyph glyph-name="g" unicode="g" horiz-adv-x="574" 
d="M525 511v-496q0 -51 -18 -88.5t-50 -61.5t-75.5 -36t-93.5 -12q-43 0 -81 8.5t-68.5 26.5t-52 46.5t-32.5 68.5h92q8 -23 22.5 -38t32.5 -23.5t39.5 -12t44.5 -3.5q30 0 55.5 7t45 22.5t30.5 40.5t11 61v95h-2q-20 -55 -65.5 -82t-104.5 -27q-48 0 -88.5 18t-70 51
t-45.5 79.5t-16 104.5q0 60 16.5 108t46 81.5t70 51.5t87.5 18q59 0 107 -28t68 -83h1v103h94zM280 86q33 0 60 12.5t46.5 35.5t30 55t10.5 72t-10.5 73t-29.5 56.5t-46.5 36.5t-60.5 13q-66 0 -106.5 -48.5t-40.5 -131.5q0 -39 10.5 -71t30 -55t46.5 -35.5t60 -12.5z" />
    <glyph glyph-name="h" unicode="h" horiz-adv-x="560" 
d="M322 519q89 0 138 -49.5t49 -158.5v-311h-97v295q0 74 -30.5 109.5t-96.5 35.5q-31 0 -56 -13t-42.5 -36t-27 -55.5t-9.5 -70.5v-265h-99v700h96v-304h1q20 62 65 92.5t109 30.5z" />
    <glyph glyph-name="i" unicode="i" horiz-adv-x="239" 
d="M121 590q-28 0 -44.5 17t-16.5 40t16.5 40t44.5 17q27 0 43.5 -17t16.5 -40t-16.5 -40t-43.5 -17zM70 511h99v-511h-99v511z" />
    <glyph glyph-name="j" unicode="j" horiz-adv-x="243" 
d="M124 590q-28 0 -44.5 17t-16.5 40t16.5 40t44.5 17q27 0 43.5 -17t16.5 -40t-16.5 -40t-43.5 -17zM172 511v-546q0 -41 -11 -69t-31 -45.5t-47 -25t-59 -7.5q-17 0 -34.5 1.5t-35.5 5.5v72q14 -2 27 -3t24 -1q33 0 51 15t18 60v543h98z" />
    <glyph glyph-name="k" unicode="k" horiz-adv-x="527" 
d="M506 0h-111l-125 199q-11 19 -25 30t-34 14l-61 -57v-186h-99v700h99v-407l227 218h119l-229 -213q26 -4 47.5 -17t35.5 -34z" />
    <glyph glyph-name="l" unicode="l" horiz-adv-x="289" 
d="M68 700h99v-548q0 -46 16.5 -62t52.5 -16q15 0 37 3v-71q-19 -4 -36.5 -5.5t-33.5 -1.5q-31 0 -56 8t-42.5 25t-27 45t-9.5 68v555z" />
    <glyph glyph-name="m" unicode="m" horiz-adv-x="836" 
d="M619 520q80 0 124.5 -48t44.5 -134v-338h-100v315q0 59 -27 93.5t-81 34.5q-26 0 -47 -11t-35.5 -30.5t-22 -45.5t-7.5 -56v-300h-98v316q0 57 -28 92t-79 35q-53 0 -83 -42t-30 -108v-293h-99v511h94v-101h2q17 53 55 81.5t98 28.5t98.5 -30.5t55.5 -81.5h1
q18 53 59.5 82.5t104.5 29.5z" />
    <glyph glyph-name="n" unicode="n" horiz-adv-x="560" 
d="M322 519q89 0 139 -49.5t50 -158.5v-311h-99v295q0 74 -30.5 109.5t-96.5 35.5q-31 0 -56 -13t-42.5 -36t-27 -55.5t-9.5 -70.5v-265h-99v511h96v-115h1q19 62 64.5 92.5t109.5 30.5z" />
    <glyph glyph-name="o" unicode="o" horiz-adv-x="554" 
d="M277 519q56 0 101.5 -18t77.5 -51.5t49.5 -82.5t17.5 -112q0 -62 -17.5 -111t-49.5 -82.5t-77.5 -51.5t-101.5 -18t-101 18t-77 51.5t-49.5 82.5t-17.5 111q0 63 17.5 112t49.5 82.5t77 51.5t101 18zM277 69q32 0 59.5 12.5t48 36.5t32 58.5t11.5 78.5q0 45 -11.5 80
t-32 58.5t-48 36t-59.5 12.5t-59.5 -12.5t-47.5 -36t-31.5 -58.5t-11.5 -80t11.5 -79.5t31.5 -58t47.5 -36t59.5 -12.5z" />
    <glyph glyph-name="p" unicode="p" horiz-adv-x="575" 
d="M145 511v-103h2q21 51 65.5 81t107.5 30q48 0 88.5 -18t69.5 -52t45.5 -83.5t16.5 -111.5q0 -61 -16 -109.5t-44.5 -82.5t-68.5 -52t-88 -18q-57 0 -103.5 26t-69.5 80h-2v-275h-97v688h94zM148 257q0 -42 10.5 -76.5t30 -59t46.5 -37.5t60 -13t60 13t46.5 37t30 58
t10.5 76t-10.5 76.5t-30 58.5t-46.5 37.5t-60 13.5t-60 -13t-46.5 -37t-30 -58t-10.5 -76z" />
    <glyph glyph-name="q" unicode="q" horiz-adv-x="574" 
d="M523 -177h-97v275h-2q-23 -54 -69 -80t-103 -26q-48 0 -88 18t-68.5 52t-44.5 82.5t-16 109.5q0 62 16 111.5t45.5 83.5t69.5 52t88 18q63 0 107.5 -30t65.5 -81h2v103h94v-688zM427 257q0 42 -10.5 76t-30 58t-46.5 37t-60 13t-60 -13.5t-46.5 -37.5t-30 -58.5
t-10.5 -76.5t10.5 -76t30 -58t46.5 -37t60 -13t60 13t46.5 37.5t30 59t10.5 76.5z" />
    <glyph glyph-name="r" unicode="r" horiz-adv-x="348" 
d="M147 411q15 50 52 78.5t94 28.5q10 0 20 -1t21 -3v-79q-17 4 -37 4q-34 0 -61.5 -14t-47 -38t-30 -55.5t-10.5 -66.5v-265h-97v511h94v-100h2z" />
    <glyph glyph-name="s" unicode="s" horiz-adv-x="493" 
d="M301 285q80 -18 117.5 -50t37.5 -86q0 -72 -55 -114.5t-151 -42.5q-38 0 -74 9t-65.5 28t-49 49t-24.5 71h93q6 -38 39.5 -61.5t81.5 -23.5t78 20.5t30 55.5q0 26 -21.5 43t-75.5 30l-66 13q-75 17 -113.5 50.5t-38.5 88.5q0 35 16 63t44 47.5t64.5 29.5t76.5 10
q37 0 71 -9t61 -28.5t45 -49.5t21 -72h-91q-5 42 -34 66t-75 24q-21 0 -40 -6t-33 -16t-22 -24t-8 -30q0 -26 21 -43t72 -29z" />
    <glyph glyph-name="t" unicode="t" horiz-adv-x="342" 
d="M210 437v-285q0 -41 13 -59t51 -20q10 0 20 1t24 3v-71q-14 -3 -26 -5.5t-26 -3.5q-37 -1 -65.5 6.5t-48.5 25t-30.5 46t-10.5 70.5v292h-83v68h86v145h96v-145h101v-68h-101z" />
    <glyph glyph-name="u" unicode="u" horiz-adv-x="560" 
d="M150 511v-296q0 -73 29.5 -108.5t95.5 -35.5q32 0 57 13t42.5 36t27 55t9.5 70v266h100v-511h-96v115h-1q-20 -62 -65.5 -92.5t-109.5 -30.5q-89 0 -138.5 49t-49.5 159v311h99z" />
    <glyph glyph-name="v" unicode="v" horiz-adv-x="504" 
d="M316 0h-126l-182 511h105l139 -429h2l137 429h105z" />
    <glyph glyph-name="w" unicode="w" horiz-adv-x="750" 
d="M603 0h-113l-114 414h-2l-113 -414h-111l-136 511h101l99 -419h1l113 419h96l114 -419h1l97 419h100z" />
    <glyph glyph-name="x" unicode="x" horiz-adv-x="515" 
d="M191 259l-166 252h108l124 -200h1l125 200h110l-171 -252l171 -259h-110l-125 205h-1l-124 -205h-108z" />
    <glyph glyph-name="y" unicode="y" horiz-adv-x="504" 
d="M494 511q-45 -126 -85 -236q-17 -47 -34 -95t-33 -91.5t-28.5 -79t-20.5 -57.5q-26 -78 -68 -108t-108 -30q-17 0 -35.5 2.5t-36.5 7.5v67q14 -2 25 -3t22 -1q18 0 32 2t25.5 9t20.5 19t17 32l17 47l-194 515h105l138 -425h2l136 425h103z" />
    <glyph glyph-name="z" unicode="z" horiz-adv-x="498" 
d="M48 57l285 376v4h-285v74h401v-65l-277 -368v-3h277v-75h-401v57z" />
    <glyph glyph-name="braceleft" unicode="{" horiz-adv-x="388" 
d="M235 458q0 -55 -25 -87.5t-66 -41.5v-2q42 -10 66.5 -41t24.5 -88v-135q0 -46 21.5 -60.5t63.5 -14.5h41v-70h-55q-78 0 -121.5 30t-43.5 103v139q0 47 -24.5 75t-75.5 32v63q51 5 75.5 32.5t24.5 75.5v138q0 73 43.5 103.5t121.5 30.5h55v-72h-41q-42 0 -63.5 -15
t-21.5 -63v-132z" />
    <glyph glyph-name="bar" unicode="|" horiz-adv-x="292" 
d="M192 798v-902h-89v902h89z" />
    <glyph glyph-name="braceright" unicode="}" horiz-adv-x="388" 
d="M154 590q0 48 -22 63t-64 15h-40v72h55q76 0 120.5 -30.5t44.5 -103.5v-138q0 -48 24 -75.5t75 -32.5v-63q-51 -4 -75 -32t-24 -75v-139q0 -73 -44.5 -103t-120.5 -30h-55v70h40q41 0 63.5 14.5t22.5 60.5v135q0 57 25 88t67 41v2q-42 9 -67 41.5t-25 87.5v132z" />
    <glyph glyph-name="asciitilde" unicode="~" horiz-adv-x="575" 
d="M190 326q-28 0 -45.5 -23t-18.5 -67h-77q0 78 33.5 123t96.5 45q32 0 57.5 -15t49 -33t46.5 -33t50 -15q28 0 47.5 24.5t19.5 69.5h77q0 -78 -36.5 -124.5t-98.5 -46.5q-33 0 -59 15t-49 32.5t-45.5 32.5t-47.5 15z" />
    <glyph glyph-name="uni00A0" unicode="&#xa0;" horiz-adv-x="300" 
 />
    <glyph glyph-name="exclamdown" unicode="&#xa1;" horiz-adv-x="256" 
d="M127 456q-31 0 -48 18.5t-17 44.5q0 27 17 45.5t48 18.5q32 0 50 -18.5t18 -45.5q0 -26 -18 -44.5t-50 -18.5zM78 167l6 195h88l6 -195v-285h-100v285z" />
    <glyph glyph-name="cent" unicode="&#xa2;" horiz-adv-x="540" 
d="M328 615v-100q73 -10 120 -55.5t57 -112.5h-92q-11 43 -45 68.5t-83 25.5q-66 0 -105.5 -49t-39.5 -137q0 -87 39.5 -136.5t105.5 -49.5q48 0 83 24.5t45 66.5h92q-10 -69 -57 -111.5t-120 -52.5v-100h-89v100q-94 11 -146 78t-52 181q0 112 52.5 180t145.5 80v100h89z
" />
    <glyph glyph-name="sterling" unicode="&#xa3;" horiz-adv-x="589" 
d="M458 277h-213q-2 -34 -8.5 -60.5t-17 -48.5t-24.5 -42.5t-30 -42.5v-3h384v-80h-494v62q19 26 37.5 47.5t33 45.5t24.5 53t11 69h-102v70h86q-7 22 -18 44.5t-21.5 46t-17.5 48.5t-7 52q0 33 13.5 64t40.5 54.5t68 37.5t96 14q62 0 107 -18t73.5 -48.5t42.5 -71t14 -86.5
h-93q-1 30 -9 56.5t-25 46t-43 30.5t-64 11q-32 0 -55.5 -8t-39.5 -21.5t-23.5 -31t-7.5 -36.5q0 -21 7.5 -43t18 -45.5t21.5 -47.5t17 -48h218v-70z" />
    <glyph glyph-name="currency" unicode="&#xa4;" horiz-adv-x="530" 
d="M67 324q0 31 9.5 58t26.5 52l-55 54l52 52l54 -55q48 37 110 37q30 0 57.5 -10t50.5 -27l54 55l56 -52l-56 -54q35 -50 35 -110q0 -63 -35 -110l56 -55l-54 -52l-56 54q-44 -34 -108 -34q-30 0 -58.5 8.5t-51.5 25.5l-55 -54l-50 55l54 52q-19 23 -27.5 51t-8.5 59z
M140 324q0 -25 9.5 -47.5t26 -40t39 -27.5t49.5 -10q26 0 48.5 10t39.5 27.5t26.5 40t9.5 47.5q0 26 -9.5 48.5t-26.5 39.5t-39.5 27t-48.5 10q-27 0 -49.5 -10t-39 -27t-26 -39.5t-9.5 -48.5z" />
    <glyph glyph-name="yen" unicode="&#xa5;" horiz-adv-x="616" 
d="M257 148h-162v66h162v90h-162v67h136l-223 329h118l181 -286h2l181 286h118l-222 -329h134v-67h-161v-90h161v-66h-161v-148h-102v148z" />
    <glyph glyph-name="brokenbar" unicode="&#xa6;" horiz-adv-x="292" 
d="M103 798h89v-319h-89v319zM103 215h89v-319h-89v319z" />
    <glyph glyph-name="section" unicode="&#xa7;" horiz-adv-x="501" 
d="M468 334q0 -25 -8.5 -45.5t-23 -36.5t-33.5 -27.5t-40 -18.5q45 -17 76 -49t31 -74q0 -36 -16 -64.5t-45 -48.5t-69 -30.5t-88 -10.5q-39 0 -77 8t-68.5 26.5t-51 49t-24.5 75.5h96q7 -45 41 -65.5t84 -20.5q49 0 82.5 21t33.5 56q0 28 -22.5 46.5t-78.5 29.5l-70 16
q-83 18 -123.5 52t-40.5 95q0 50 31 81.5t73 45.5q-47 16 -75.5 49.5t-28.5 75.5q0 36 16 64t44.5 48t68 30.5t87.5 10.5q39 0 77.5 -8t69 -26.5t51.5 -49.5t25 -76h-98q-6 47 -41 67t-85 20q-48 0 -82 -21t-34 -56q0 -28 23 -46.5t79 -29.5l71 -14q81 -18 122 -52t41 -97z
M269 412q-35 5 -62 -0.5t-45 -17.5t-27 -29.5t-9 -38.5q0 -32 25.5 -54.5t80.5 -30.5q35 -4 62 1t45.5 17t28 29.5t9.5 37.5q0 33 -26 56t-82 30z" />
    <glyph glyph-name="dieresis" unicode="&#xa8;" horiz-adv-x="465" 
d="M62 640q0 23 17.5 41.5t43.5 18.5q24 0 41.5 -18.5t17.5 -41.5q0 -26 -17.5 -44.5t-41.5 -18.5q-26 0 -43.5 18.5t-17.5 44.5zM283 640q0 23 17.5 41.5t43.5 18.5q25 0 42 -18.5t17 -41.5q0 -26 -17 -44.5t-42 -18.5q-26 0 -43.5 18.5t-17.5 44.5z" />
    <glyph glyph-name="copyright" unicode="&#xa9;" horiz-adv-x="823" 
d="M34 342q0 78 30 147t81 120.5t120 81t147 29.5t147 -29.5t120.5 -81t81 -120.5t29.5 -147t-29.5 -146.5t-81 -120t-120.5 -81t-147 -29.5t-147 29.5t-120 81t-81 120t-30 146.5zM100 342q0 -64 24.5 -120.5t66.5 -98.5t99 -66t122 -24t122 24t99 66t66.5 98.5t24.5 120.5
q0 65 -24.5 121.5t-66.5 99.5t-99 67.5t-122 24.5t-122 -24.5t-99 -67.5t-66.5 -99.5t-24.5 -121.5zM418 190q83 0 106 77h68q-11 -63 -57 -99t-117 -36q-91 0 -142.5 57t-51.5 160q0 101 51.5 157t142.5 56q68 0 115.5 -37.5t58.5 -100.5h-70q-10 37 -37.5 58.5t-66.5 21.5
q-58 0 -90 -40.5t-32 -114.5q0 -76 32 -117.5t90 -41.5z" />
    <glyph glyph-name="ordfeminine" unicode="&#xaa;" horiz-adv-x="376" 
d="M198 708q60 0 96 -30t36 -78v-209h-67v57q-13 -30 -45.5 -45.5t-66.5 -15.5q-45 0 -74 25t-29 67q0 86 121 95l90 6v15q0 30 -16.5 47t-47.5 17q-29 0 -47.5 -13.5t-22.5 -37.5h-63q5 46 40.5 73t95.5 27zM259 540l-79 -6q-64 -5 -64 -51q0 -22 16.5 -35.5t42.5 -13.5
q17 0 32 6.5t26.5 17.5t18.5 25.5t7 30.5v26z" />
    <glyph glyph-name="guillemotleft" unicode="&#xab;" horiz-adv-x="920" 
d="M52 285v65l450 273v-96l-349 -209v-1l349 -208v-95zM418 285v65l450 273v-96l-349 -209v-1l349 -208v-95z" />
    <glyph glyph-name="logicalnot" unicode="&#xac;" horiz-adv-x="483" 
d="M49 357h385v-205h-92v125h-293v80z" />
    <glyph glyph-name="registered" unicode="&#xae;" horiz-adv-x="823" 
d="M34 342q0 78 30 147t81 120.5t120 81t147 29.5t147 -29.5t120.5 -81t81 -120.5t29.5 -147t-29.5 -146.5t-81 -120t-120.5 -81t-147 -29.5t-147 29.5t-120 81t-81 120t-30 146.5zM100 342q0 -64 24.5 -120.5t66.5 -98.5t99 -66t122 -24t122 24t99 66t66.5 98.5t24.5 120.5
q0 65 -24.5 121.5t-66.5 99.5t-99 67.5t-122 24.5t-122 -24.5t-99 -67.5t-66.5 -99.5t-24.5 -121.5zM505 153l-94 169h-71v-169h-70v394h172q60 0 92.5 -27.5t32.5 -83.5q0 -45 -22.5 -72t-68.5 -34l102 -177h-73zM340 371h81q38 0 58 15t20 48q0 34 -20 48t-58 14h-81v-125
z" />
    <glyph glyph-name="macron" unicode="&#xaf;" horiz-adv-x="585" 
d="M557 750h-529v74h529v-74z" />
    <glyph glyph-name="degree" unicode="&#xb0;" horiz-adv-x="402" 
d="M201 405q-72 0 -114.5 41.5t-42.5 109.5q0 67 41.5 109.5t115.5 42.5q36 0 65 -11t49.5 -31.5t32 -48.5t11.5 -61q0 -68 -43 -109.5t-115 -41.5zM201 470q46 0 67 24t21 62q0 42 -22 65.5t-66 23.5q-45 0 -65.5 -23.5t-20.5 -65.5q0 -38 20.5 -62t65.5 -24z" />
    <glyph glyph-name="plusminus" unicode="&#xb1;" horiz-adv-x="573" 
d="M242 309h-193v73h193v169h90v-169h192v-73h-192v-170h-90v170zM49 75h475v-75h-475v75z" />
    <glyph glyph-name="twosuperior" unicode="&#xb2;" horiz-adv-x="387" 
d="M149 422v-2h190v-54h-289v41l150 151q21 21 35.5 36.5t22.5 27.5t11.5 22.5t3.5 20.5q0 32 -20.5 51.5t-59.5 19.5q-43 0 -63 -24.5t-20 -58.5h-62q0 27 8.5 52t26 43.5t45 30t65.5 11.5q72 0 108 -34.5t36 -85.5q0 -18 -3.5 -33.5t-13.5 -32t-26.5 -35.5t-43.5 -45z" />
    <glyph glyph-name="threesuperior" unicode="&#xb3;" horiz-adv-x="409" 
d="M270 579q42 -7 66.5 -31.5t24.5 -68.5q0 -23 -9.5 -44.5t-29 -38t-50 -26.5t-71.5 -10q-38 0 -66.5 11.5t-48 30.5t-29 44t-9.5 52h65q0 -15 6 -29.5t17.5 -26t28 -18.5t37.5 -7q42 0 66 19t24 51q0 34 -25.5 49.5t-67.5 15.5h-36v49h36q35 0 59 19t24 51q0 29 -22.5 47
t-57.5 18q-38 0 -60.5 -23.5t-22.5 -58.5h-63q0 59 38.5 97.5t107.5 38.5q72 0 108.5 -32t36.5 -77q0 -43 -21 -67t-56 -32v-3z" />
    <glyph glyph-name="acute" unicode="&#xb4;" horiz-adv-x="325" 
d="M56 575l106 209h107l-124 -209h-89z" />
    <glyph glyph-name="paragraph" unicode="&#xb6;" horiz-adv-x="665" 
d="M579 0h-87v625h-109v-625h-87v296q-13 -4 -31.5 -6.5t-33.5 -2.5q-42 0 -77 10t-60 34t-39 63t-14 96q0 61 14.5 101.5t41.5 64.5t64.5 34t83.5 10h334v-700z" />
    <glyph glyph-name="periodcentered" unicode="&#xb7;" horiz-adv-x="309" 
d="M75 317q0 32 23.5 55t57.5 23q32 0 55 -23t23 -55q0 -34 -23 -57t-55 -23q-34 0 -57.5 23t-23.5 57z" />
    <glyph glyph-name="cedilla" unicode="&#xb8;" horiz-adv-x="344" 
d="M65 -280l106 189h108l-124 -189h-90z" />
    <glyph glyph-name="onesuperior" unicode="&#xb9;" horiz-adv-x="270" 
d="M168 782h54v-419h-72v358l-102 -49v57z" />
    <glyph glyph-name="ordmasculine" unicode="&#xba;" horiz-adv-x="440" 
d="M48 577q0 103 48 158t124 55t124 -55t48 -158t-47 -159t-125 -56t-125 56t-47 159zM121 577q0 -78 27 -117t72 -39t72 38.5t27 117.5q0 78 -27 116.5t-72 38.5t-72 -38.5t-27 -116.5z" />
    <glyph glyph-name="guillemotright" unicode="&#xbb;" horiz-adv-x="920" 
d="M868 285l-450 -271v95l348 208v1l-348 209v96l450 -273v-65zM502 285l-450 -271v95l348 208v1l-348 209v96l450 -273v-65z" />
    <glyph glyph-name="onequarter" unicode="&#xbc;" horiz-adv-x="739" 
d="M440 700h74l-253 -700h-75zM21 647l120 53h54v-419h-70v358l-104 -49v57zM391 127l211 292h61v-285h56v-54h-54v-80h-71v80h-203v47zM598 134v192l-134 -192h134z" />
    <glyph glyph-name="onehalf" unicode="&#xbd;" horiz-adv-x="798" 
d="M141 700h54v-419h-70v358l-104 -49v57zM514 700l-253 -700h-75l254 700h74zM752 304q0 -18 -4 -33.5t-13.5 -32t-26 -35.5t-42.5 -44l-103 -103v-2h190v-54h-288v41l150 151q21 21 35 37t22.5 28t11.5 22.5t3 20.5q0 31 -20 50.5t-59 19.5q-43 0 -63 -24.5t-20 -58.5h-63
q0 27 8.5 52t26.5 44t45.5 30t65.5 11q72 0 108 -34t36 -86z" />
    <glyph glyph-name="threequarters" unicode="&#xbe;" horiz-adv-x="841" 
d="M264 497q41 -7 66 -31.5t25 -68.5q0 -23 -9.5 -44.5t-29.5 -38t-50 -26.5t-72 -10q-37 0 -66 11.5t-48 30.5t-29 44t-10 52h65q0 -15 6 -29.5t17.5 -26t28 -18.5t38.5 -7q42 0 65.5 19t23.5 51q0 35 -25.5 50t-67.5 15h-36v49h36q35 0 59 19t24 51q0 29 -22 47t-57 18
q-39 0 -61 -23.5t-22 -58.5h-64q1 60 39 98t108 38q72 0 108 -32t36 -77q0 -43 -20.5 -66.5t-55.5 -32.5v-3zM615 700l-253 -700h-75l254 700h74zM492 127l212 292h60v-285h57v-54h-54v-80h-70v80h-205v47zM699 134v192l-134 -192h134z" />
    <glyph glyph-name="questiondown" unicode="&#xbf;" horiz-adv-x="529" 
d="M257 583q31 0 49.5 -18.5t18.5 -45.5q0 -26 -18.5 -44.5t-49.5 -18.5q-30 0 -48.5 18.5t-18.5 44.5q0 27 18.5 45.5t48.5 18.5zM483 90q-2 -45 -16 -84.5t-40 -68.5t-64.5 -46t-89.5 -17q-117 0 -171 48t-54 130q0 36 11.5 60.5t29.5 44t38 36t38 36t29.5 45.5t11.5 63
v25h106v-25q0 -42 -12.5 -72t-31 -52t-40 -39.5t-40 -34.5t-31 -36t-12.5 -44q0 -50 31 -77.5t94 -27.5q29 0 50.5 10.5t36.5 29t23 43.5t9 53h94z" />
    <glyph glyph-name="Agrave" unicode="&#xc0;" horiz-adv-x="643" 
d="M286 961l106 -189h-88l-125 189h107zM260 700h124l256 -700h-108l-61 172h-299l-61 -172h-107zM448 248l-124 355h-3l-126 -355h253z" />
    <glyph glyph-name="Aacute" unicode="&#xc1;" horiz-adv-x="643" 
d="M338 772h-91l106 189h109zM260 700h124l256 -700h-108l-61 172h-299l-61 -172h-107zM448 248l-124 355h-3l-126 -355h253z" />
    <glyph glyph-name="Acircumflex" unicode="&#xc2;" horiz-adv-x="643" 
d="M496 756h-88l-87 132h-3l-85 -132h-86l137 209h74zM260 700h124l256 -700h-108l-61 172h-299l-61 -172h-107zM448 248l-124 355h-3l-126 -355h253z" />
    <glyph glyph-name="Atilde" unicode="&#xc3;" horiz-adv-x="643" 
d="M237 860q-26 0 -41.5 -21t-17.5 -62h-75q0 75 31 114.5t91 39.5q30 0 54 -14t46 -30.5t43 -30.5t45 -14q27 0 45 23t20 65h73q0 -73 -33.5 -115.5t-92.5 -42.5q-31 0 -55.5 14t-46.5 30.5t-42.5 30t-43.5 13.5zM260 700h124l256 -700h-108l-61 172h-299l-61 -172h-107z
M448 248l-124 355h-3l-126 -355h253z" />
    <glyph glyph-name="Adieresis" unicode="&#xc4;" horiz-adv-x="643" 
d="M370 862q0 25 18.5 42.5t44.5 17.5q24 0 41.5 -17.5t17.5 -42.5t-17.5 -42.5t-41.5 -17.5q-26 0 -44.5 17.5t-18.5 42.5zM149 862q0 25 18.5 42.5t43.5 17.5t42.5 -17.5t17.5 -42.5t-17.5 -42.5t-42.5 -17.5t-43.5 17.5t-18.5 42.5zM260 700h124l256 -700h-108l-61 172
h-299l-61 -172h-107zM448 248l-124 355h-3l-126 -355h253z" />
    <glyph glyph-name="Aring" unicode="&#xc5;" horiz-adv-x="645" 
d="M251 678q-26 14 -42 40.5t-16 60.5q0 27 9.5 49.5t27 39.5t41.5 26.5t52 9.5q27 0 50.5 -9.5t40.5 -26.5t26.5 -39.5t9.5 -49.5q0 -33 -16 -60t-42 -42l250 -677h-110l-59 172h-301l-61 -172h-107zM323 721q26 0 42 17t16 41q0 26 -16 42t-42 16q-27 0 -42.5 -16
t-15.5 -42q0 -24 15.5 -41t42.5 -17zM449 248l-125 355h-3l-126 -355h254z" />
    <glyph glyph-name="AE" unicode="&#xc6;" horiz-adv-x="996" 
d="M584 621v-230h313v-80h-313v-232h365v-79h-468v172h-253l-111 -172h-113l447 700h498v-79h-365zM481 248v327l-209 -327h209z" />
    <glyph glyph-name="Ccedilla" unicode="&#xc7;" horiz-adv-x="678" 
d="M359 77q70 0 118.5 34.5t65.5 97.5h101q-8 -50 -32 -90t-61 -68.5t-86 -43.5t-106 -15q-75 0 -134 25t-100 71.5t-62.5 113.5t-21.5 152q0 83 21.5 148.5t62.5 111.5t100 70t134 24q56 0 104 -16t85.5 -45.5t62 -71t32.5 -91.5h-102q-16 65 -64.5 103t-117.5 38
q-101 0 -158 -71.5t-57 -199.5q0 -131 56 -204t159 -73zM324 -280h-87l105 189h107z" />
    <glyph glyph-name="Egrave" unicode="&#xc8;" horiz-adv-x="569" 
d="M263 961l105 -189h-90l-124 189h109zM156 621v-230h315v-80h-315v-232h364v-79h-465v700h465v-79h-364z" />
    <glyph glyph-name="Eacute" unicode="&#xc9;" horiz-adv-x="569" 
d="M323 772h-90l106 189h109zM156 621v-230h315v-80h-315v-232h364v-79h-465v700h465v-79h-364z" />
    <glyph glyph-name="Ecircumflex" unicode="&#xca;" horiz-adv-x="569" 
d="M464 756h-88l-86 132h-4l-86 -132h-85l136 209h74zM156 621v-230h315v-80h-315v-232h364v-79h-465v700h465v-79h-364z" />
    <glyph glyph-name="Edieresis" unicode="&#xcb;" horiz-adv-x="569" 
d="M340 862q0 25 18 42.5t44 17.5q25 0 42 -17.5t17 -42.5t-17 -42.5t-42 -17.5q-26 0 -44 17.5t-18 42.5zM119 862q0 25 18 42.5t44 17.5q24 0 41.5 -17.5t17.5 -42.5t-17.5 -42.5t-41.5 -17.5q-26 0 -44 17.5t-18 42.5zM156 621v-230h315v-80h-315v-232h364v-79h-465v700
h465v-79h-364z" />
    <glyph glyph-name="Igrave" unicode="&#xcc;" horiz-adv-x="222" 
d="M57 946l106 -190h-90l-125 190h109zM62 700h101v-700h-101v700z" />
    <glyph glyph-name="Iacute" unicode="&#xcd;" horiz-adv-x="222" 
d="M150 772h-88l105 189h108zM62 700h101v-700h-101v700z" />
    <glyph glyph-name="Icircumflex" unicode="&#xce;" horiz-adv-x="222" 
d="M285 756h-88l-86 132h-2l-86 -132h-86l137 209h73zM62 700h101v-700h-101v700z" />
    <glyph glyph-name="Idieresis" unicode="&#xcf;" horiz-adv-x="222" 
d="M-59 862q0 25 17.5 42.5t42.5 17.5t43 -17.5t18 -42.5t-18 -42.5t-43 -17.5t-42.5 17.5t-17.5 42.5zM162 862q0 25 17.5 42.5t43.5 17.5q24 0 42 -17.5t18 -42.5t-18 -42.5t-42 -17.5q-26 0 -43.5 17.5t-17.5 42.5zM62 700h101v-700h-101v700z" />
    <glyph glyph-name="Eth" unicode="&#xd0;" horiz-adv-x="745" 
d="M357 700q80 0 144 -23t109 -67t69.5 -108.5t24.5 -147.5q0 -84 -24.5 -150t-69.5 -111.5t-109.5 -69t-144.5 -23.5h-227v318h-101v67h101v315h228zM344 79q118 0 185.5 71.5t67.5 201.5q0 129 -66.5 199t-184.5 70h-116v-236h192v-67h-192v-239h114z" />
    <glyph glyph-name="Ntilde" unicode="&#xd1;" horiz-adv-x="675" 
d="M195 777h-77q0 75 32 114.5t92 39.5q30 0 54 -14t45.5 -30.5t42.5 -30.5t46 -14q26 0 44 23t20 65h74q0 -73 -35 -115.5t-94 -42.5q-30 0 -54.5 14t-46 30.5t-42.5 30t-45 13.5t-40 -21t-16 -62zM55 700h92l371 -531h3v531h99v-700h-89l-375 538h-2v-538h-99v700z" />
    <glyph glyph-name="Ograve" unicode="&#xd2;" horiz-adv-x="717" 
d="M337 961l105 -189h-90l-124 189h109zM358 -8q-75 0 -135 24.5t-102 71t-64.5 113t-22.5 150.5q0 83 22.5 149.5t64.5 112.5t102 70.5t135 24.5q76 0 136 -24.5t102 -70.5t64 -112.5t22 -149.5q0 -84 -22 -150.5t-64 -113t-102 -71t-136 -24.5zM358 78q103 0 160.5 72.5
t57.5 200.5t-57.5 199.5t-160.5 71.5t-160.5 -71.5t-57.5 -199.5t57.5 -200.5t160.5 -72.5z" />
    <glyph glyph-name="Oacute" unicode="&#xd3;" horiz-adv-x="717" 
d="M380 772h-90l105 189h109zM358 -8q-75 0 -135 24.5t-102 71t-64.5 113t-22.5 150.5q0 83 22.5 149.5t64.5 112.5t102 70.5t135 24.5q76 0 136 -24.5t102 -70.5t64 -112.5t22 -149.5q0 -84 -22 -150.5t-64 -113t-102 -71t-136 -24.5zM358 78q103 0 160.5 72.5t57.5 200.5
t-57.5 199.5t-160.5 71.5t-160.5 -71.5t-57.5 -199.5t57.5 -200.5t160.5 -72.5z" />
    <glyph glyph-name="Ocircumflex" unicode="&#xd4;" horiz-adv-x="717" 
d="M533 756h-88l-85 132h-3l-86 -132h-85l137 209h71zM358 -8q-75 0 -135 24.5t-102 71t-64.5 113t-22.5 150.5q0 83 22.5 149.5t64.5 112.5t102 70.5t135 24.5q76 0 136 -24.5t102 -70.5t64 -112.5t22 -149.5q0 -84 -22 -150.5t-64 -113t-102 -71t-136 -24.5zM358 78
q103 0 160.5 72.5t57.5 200.5t-57.5 199.5t-160.5 71.5t-160.5 -71.5t-57.5 -199.5t57.5 -200.5t160.5 -72.5z" />
    <glyph glyph-name="Otilde" unicode="&#xd5;" horiz-adv-x="717" 
d="M215 777h-73q0 75 30.5 114.5t91.5 39.5q30 0 53.5 -14t45 -30.5t43 -30.5t46.5 -14q26 0 44 23t19 65h75q0 -73 -34 -115.5t-94 -42.5q-30 0 -54.5 14t-46 30.5t-42.5 30t-45 13.5t-40.5 -21t-18.5 -62zM358 -8q-75 0 -135 24.5t-102 71t-64.5 113t-22.5 150.5
q0 83 22.5 149.5t64.5 112.5t102 70.5t135 24.5q76 0 136 -24.5t102 -70.5t64 -112.5t22 -149.5q0 -84 -22 -150.5t-64 -113t-102 -71t-136 -24.5zM358 78q103 0 160.5 72.5t57.5 200.5t-57.5 199.5t-160.5 71.5t-160.5 -71.5t-57.5 -199.5t57.5 -200.5t160.5 -72.5z" />
    <glyph glyph-name="Odieresis" unicode="&#xd6;" horiz-adv-x="717" 
d="M406 862q0 25 18 42.5t44 17.5q23 0 42 -17.5t19 -42.5t-19 -42.5t-42 -17.5q-26 0 -44 17.5t-18 42.5zM185 862q0 25 18 42.5t44 17.5q23 0 42 -17.5t19 -42.5t-19 -42.5t-42 -17.5q-26 0 -44 17.5t-18 42.5zM358 -8q-75 0 -135 24.5t-102 71t-64.5 113t-22.5 150.5
q0 83 22.5 149.5t64.5 112.5t102 70.5t135 24.5q76 0 136 -24.5t102 -70.5t64 -112.5t22 -149.5q0 -84 -22 -150.5t-64 -113t-102 -71t-136 -24.5zM358 78q103 0 160.5 72.5t57.5 200.5t-57.5 199.5t-160.5 71.5t-160.5 -71.5t-57.5 -199.5t57.5 -200.5t160.5 -72.5z" />
    <glyph glyph-name="multiply" unicode="&#xd7;" horiz-adv-x="531" 
d="M49 159l158 159l-158 158l57 58l158 -159l159 159l59 -58l-159 -158l159 -159l-59 -58l-159 158l-156 -158z" />
    <glyph glyph-name="Oslash" unicode="&#xd8;" horiz-adv-x="717" 
d="M682 351q0 -84 -22 -150.5t-64 -113t-102 -71t-136 -24.5q-75 0 -135 24.5t-102 71t-64.5 113t-22.5 150.5q0 83 22.5 149t64.5 112.5t102 71t135 24.5q76 0 136 -24.5t102 -71t64 -112.5t22 -149zM140 351q0 -82 26 -140t74 -87l176 486q-27 12 -62 12
q-101 -2 -157.5 -73t-56.5 -198zM576 351q0 78 -24 134.5t-66 88.5l-177 -490q12 -4 24.5 -5t26.5 -1q103 0 159.5 72.5t56.5 200.5z" />
    <glyph glyph-name="Ugrave" unicode="&#xd9;" horiz-adv-x="665" 
d="M424 772h-88l-125 189h107zM156 257q0 -84 46.5 -130.5t130.5 -46.5q83 0 129.5 46.5t46.5 130.5v443h101v-452q0 -58 -19.5 -105.5t-55.5 -81t-87 -51.5t-115 -18t-115.5 18t-87.5 51.5t-55.5 81t-19.5 105.5v452h101v-443z" />
    <glyph glyph-name="Uacute" unicode="&#xda;" horiz-adv-x="665" 
d="M271 772l105 189h110l-125 -189h-90zM156 257q0 -84 46.5 -130.5t130.5 -46.5q83 0 129.5 46.5t46.5 130.5v443h101v-452q0 -58 -19.5 -105.5t-55.5 -81t-87 -51.5t-115 -18t-115.5 18t-87.5 51.5t-55.5 81t-19.5 105.5v452h101v-443z" />
    <glyph glyph-name="Ucircumflex" unicode="&#xdb;" horiz-adv-x="665" 
d="M370 965l138 -209h-87l-86 132h-2l-86 -132h-86l138 209h71zM156 257q0 -84 46.5 -130.5t130.5 -46.5q83 0 129.5 46.5t46.5 130.5v443h101v-452q0 -58 -19.5 -105.5t-55.5 -81t-87 -51.5t-115 -18t-115.5 18t-87.5 51.5t-55.5 81t-19.5 105.5v452h101v-443z" />
    <glyph glyph-name="Udieresis" unicode="&#xdc;" horiz-adv-x="665" 
d="M161 862q0 25 17.5 42.5t43.5 17.5q24 0 42 -17.5t18 -42.5t-18 -42.5t-42 -17.5q-26 0 -43.5 17.5t-17.5 42.5zM382 862q0 25 17.5 42.5t43.5 17.5q24 0 42 -17.5t18 -42.5t-18 -42.5t-42 -17.5q-26 0 -43.5 17.5t-17.5 42.5zM156 257q0 -84 46.5 -130.5t130.5 -46.5
q83 0 129.5 46.5t46.5 130.5v443h101v-452q0 -58 -19.5 -105.5t-55.5 -81t-87 -51.5t-115 -18t-115.5 18t-87.5 51.5t-55.5 81t-19.5 105.5v452h101v-443z" />
    <glyph glyph-name="Yacute" unicode="&#xdd;" horiz-adv-x="616" 
d="M349 772h-88l105 189h108zM359 316v-316h-102v318l-249 382h118l181 -286h2l181 286h118z" />
    <glyph glyph-name="Thorn" unicode="&#xde;" horiz-adv-x="572" 
d="M156 546h159q103 0 161 -49.5t58 -147.5q0 -97 -58 -147t-162 -50h-158v-152h-101v700h101v-154zM156 466v-235h139q69 0 106 29t37 89q0 62 -36.5 89.5t-106.5 27.5h-139z" />
    <glyph glyph-name="germandbls" unicode="&#xdf;" horiz-adv-x="626" 
d="M53 0v468q0 129 57.5 184.5t178.5 55.5q124 0 185 -51.5t61 -140.5q0 -58 -30.5 -98.5t-82.5 -50.5q32 -6 61 -21t51.5 -37.5t35.5 -52.5t13 -65q0 -57 -20 -95t-52 -61.5t-73.5 -33t-84.5 -9.5q-50 0 -99 11v70q16 -2 32 -3.5t32 -1.5q33 0 63 6.5t52.5 21t35.5 37.5
t13 56q0 36 -15.5 63t-40 45t-54.5 27.5t-59 9.5h-41v68h41q21 0 43.5 6t41 19.5t30 34t11.5 48.5q0 25 -6.5 46.5t-23.5 37t-46 24t-73 8.5t-71.5 -11.5t-42.5 -33t-20.5 -52.5t-5.5 -70v-459h-97z" />
    <glyph glyph-name="agrave" unicode="&#xe0;" horiz-adv-x="533" 
d="M281 784l106 -189h-91l-125 189h110zM275 519q48 0 86.5 -13t66 -36.5t42 -56.5t14.5 -72v-341h-96v96h-1q-10 -24 -29.5 -43.5t-44 -33t-53.5 -20.5t-58 -7q-36 0 -66.5 11t-52.5 31t-34 47.5t-12 61.5q0 71 49.5 109t144.5 44l153 12v28q0 51 -29.5 80.5t-82.5 29.5
q-51 0 -83.5 -24t-40.5 -66h-90q8 74 65 118.5t152 44.5zM384 247l-137 -10q-55 -3 -83.5 -26.5t-28.5 -61.5t27 -62.5t72 -24.5q30 0 57 11.5t47.5 31t33 45t12.5 52.5v45z" />
    <glyph glyph-name="aacute" unicode="&#xe1;" horiz-adv-x="533" 
d="M318 595h-89l106 189h108zM275 519q48 0 86.5 -13t66 -36.5t42 -56.5t14.5 -72v-341h-96v96h-1q-10 -24 -29.5 -43.5t-44 -33t-53.5 -20.5t-58 -7q-36 0 -66.5 11t-52.5 31t-34 47.5t-12 61.5q0 71 49.5 109t144.5 44l153 12v28q0 51 -29.5 80.5t-82.5 29.5
q-51 0 -83.5 -24t-40.5 -66h-90q8 74 65 118.5t152 44.5zM384 247l-137 -10q-55 -3 -83.5 -26.5t-28.5 -61.5t27 -62.5t72 -24.5q30 0 57 11.5t47.5 31t33 45t12.5 52.5v45z" />
    <glyph glyph-name="acircumflex" unicode="&#xe2;" horiz-adv-x="533" 
d="M452 576h-87l-87 133h-3l-86 -133h-86l138 211h73zM275 519q48 0 86.5 -13t66 -36.5t42 -56.5t14.5 -72v-341h-96v96h-1q-10 -24 -29.5 -43.5t-44 -33t-53.5 -20.5t-58 -7q-36 0 -66.5 11t-52.5 31t-34 47.5t-12 61.5q0 71 49.5 109t144.5 44l153 12v28q0 51 -29.5 80.5
t-82.5 29.5q-51 0 -83.5 -24t-40.5 -66h-90q8 74 65 118.5t152 44.5zM384 247l-137 -10q-55 -3 -83.5 -26.5t-28.5 -61.5t27 -62.5t72 -24.5q30 0 57 11.5t47.5 31t33 45t12.5 52.5v45z" />
    <glyph glyph-name="atilde" unicode="&#xe3;" horiz-adv-x="533" 
d="M196 680q-46 0 -46 -80h-75q0 75 26 113t86 38q25 0 46 -12.5t40.5 -27t38.5 -27t40 -12.5q50 0 53 82h74q0 -73 -28.5 -113t-87.5 -40q-26 0 -48 12.5t-41.5 27t-38.5 27t-39 12.5zM275 519q48 0 86.5 -13t66 -36.5t42 -56.5t14.5 -72v-341h-96v96h-1
q-10 -24 -29.5 -43.5t-44 -33t-53.5 -20.5t-58 -7q-36 0 -66.5 11t-52.5 31t-34 47.5t-12 61.5q0 71 49.5 109t144.5 44l153 12v28q0 51 -29.5 80.5t-82.5 29.5q-51 0 -83.5 -24t-40.5 -66h-90q8 74 65 118.5t152 44.5zM384 247l-137 -10q-55 -3 -83.5 -26.5t-28.5 -61.5
t27 -62.5t72 -24.5q30 0 57 11.5t47.5 31t33 45t12.5 52.5v45z" />
    <glyph glyph-name="adieresis" unicode="&#xe4;" horiz-adv-x="533" 
d="M110 670q0 24 18 42.5t44 18.5q23 0 41.5 -18.5t18.5 -42.5q0 -26 -18.5 -43.5t-41.5 -17.5q-26 0 -44 17.5t-18 43.5zM331 670q0 24 18 42.5t44 18.5q23 0 41.5 -18.5t18.5 -42.5q0 -26 -18.5 -43.5t-41.5 -17.5q-26 0 -44 17.5t-18 43.5zM275 519q48 0 86.5 -13
t66 -36.5t42 -56.5t14.5 -72v-341h-96v96h-1q-10 -24 -29.5 -43.5t-44 -33t-53.5 -20.5t-58 -7q-36 0 -66.5 11t-52.5 31t-34 47.5t-12 61.5q0 71 49.5 109t144.5 44l153 12v28q0 51 -29.5 80.5t-82.5 29.5q-51 0 -83.5 -24t-40.5 -66h-90q8 74 65 118.5t152 44.5zM384 247
l-137 -10q-55 -3 -83.5 -26.5t-28.5 -61.5t27 -62.5t72 -24.5q30 0 57 11.5t47.5 31t33 45t12.5 52.5v45z" />
    <glyph glyph-name="aring" unicode="&#xe5;" horiz-adv-x="533" 
d="M281 581q-26 0 -48 9t-38 24.5t-25 37.5t-9 47q0 24 9 45.5t24.5 37t37.5 24.5t49 9q26 0 47.5 -9t37.5 -24.5t25 -37t9 -45.5q0 -25 -9 -47t-25 -37.5t-37.5 -24.5t-47.5 -9zM281 642q26 0 41.5 15.5t15.5 41.5q0 25 -15.5 41.5t-41.5 16.5t-42 -16.5t-16 -41.5
q0 -26 16 -41.5t42 -15.5zM275 519q48 0 86.5 -13t66 -36.5t42 -56.5t14.5 -72v-341h-96v96h-1q-10 -24 -29.5 -43.5t-44 -33t-53.5 -20.5t-58 -7q-36 0 -66.5 11t-52.5 31t-34 47.5t-12 61.5q0 71 49.5 109t144.5 44l153 12v28q0 51 -29.5 80.5t-82.5 29.5q-51 0 -83.5 -24
t-40.5 -66h-90q8 74 65 118.5t152 44.5zM384 247l-137 -10q-55 -3 -83.5 -26.5t-28.5 -61.5t27 -62.5t72 -24.5q30 0 57 11.5t47.5 31t33 45t12.5 52.5v45z" />
    <glyph glyph-name="ae" unicode="&#xe6;" horiz-adv-x="902" 
d="M864 236h-379q3 -81 44 -124t107 -43q52 0 84.5 23.5t46.5 67.5h91q-17 -83 -73 -125.5t-152 -42.5q-72 0 -124 30.5t-80 91.5q-18 -36 -43.5 -59.5t-54 -37.5t-58.5 -19.5t-57 -5.5q-36 0 -68.5 11t-57 31t-39 47.5t-14.5 61.5q0 71 49.5 109t144.5 44l161 12v28
q0 51 -33.5 80.5t-86.5 29.5q-51 0 -83.5 -24t-40.5 -66h-90q8 74 65 118.5t152 44.5q61 0 110 -26t69 -70q26 44 72.5 69.5t105.5 26.5q54 0 97 -18.5t73 -51.5t46 -80t16 -105v-28zM631 443q-61 0 -99.5 -41t-43.5 -107h282q-2 66 -40 107t-99 41zM392 247l-145 -10
q-55 -3 -83.5 -26.5t-28.5 -61.5q0 -19 8.5 -35t23 -27.5t34 -18t41.5 -6.5q30 0 57 11.5t47.5 31t33 45t12.5 52.5v45z" />
    <glyph glyph-name="ccedilla" unicode="&#xe7;" horiz-adv-x="540" 
d="M505 160q-10 -79 -69 -123.5t-153 -44.5q-112 0 -177 68.5t-65 194.5q0 62 17 111t48.5 83t76 52t99.5 18q46 0 85 -12t68 -34.5t47 -54.5t23 -71h-92q-11 43 -45 68.5t-83 25.5q-66 0 -105.5 -49t-39.5 -137q0 -87 39.5 -136.5t105.5 -49.5q48 0 83 24.5t45 66.5h92z
M254 -280h-88l105 189h107z" />
    <glyph glyph-name="egrave" unicode="&#xe8;" horiz-adv-x="553" 
d="M279 784l106 -189h-90l-125 189h109zM514 236h-377q2 -81 42.5 -124t106.5 -43q52 0 84.5 23.5t46.5 67.5h91q-16 -83 -72.5 -125.5t-151.5 -42.5q-113 0 -178 68.5t-65 194.5q0 61 17 110t48.5 83t76 52.5t99.5 18.5q54 0 97 -18.5t73 -51.5t46 -80t16 -105v-28z
M281 443q-61 0 -98.5 -41t-44.5 -107h283q-1 33 -12 60t-29.5 46.5t-43.5 30.5t-55 11z" />
    <glyph glyph-name="eacute" unicode="&#xe9;" horiz-adv-x="553" 
d="M317 595h-88l106 189h107zM514 236h-377q2 -81 42.5 -124t106.5 -43q52 0 84.5 23.5t46.5 67.5h91q-16 -83 -72.5 -125.5t-151.5 -42.5q-113 0 -178 68.5t-65 194.5q0 61 17 110t48.5 83t76 52.5t99.5 18.5q54 0 97 -18.5t73 -51.5t46 -80t16 -105v-28zM281 443
q-61 0 -98.5 -41t-44.5 -107h283q-1 33 -12 60t-29.5 46.5t-43.5 30.5t-55 11z" />
    <glyph glyph-name="ecircumflex" unicode="&#xea;" horiz-adv-x="553" 
d="M458 576h-87l-86 133h-3l-87 -133h-85l137 211h72zM514 236h-377q2 -81 42.5 -124t106.5 -43q52 0 84.5 23.5t46.5 67.5h91q-16 -83 -72.5 -125.5t-151.5 -42.5q-113 0 -178 68.5t-65 194.5q0 61 17 110t48.5 83t76 52.5t99.5 18.5q54 0 97 -18.5t73 -51.5t46 -80
t16 -105v-28zM281 443q-61 0 -98.5 -41t-44.5 -107h283q-1 33 -12 60t-29.5 46.5t-43.5 30.5t-55 11z" />
    <glyph glyph-name="edieresis" unicode="&#xeb;" horiz-adv-x="553" 
d="M333 670q0 24 18 42.5t44 18.5q23 0 42 -18.5t19 -42.5q0 -26 -19 -43.5t-42 -17.5q-26 0 -44 17.5t-18 43.5zM112 670q0 24 18 42.5t44 18.5q23 0 41.5 -18.5t18.5 -42.5q0 -26 -18.5 -43.5t-41.5 -17.5q-26 0 -44 17.5t-18 43.5zM514 236h-377q2 -81 42.5 -124
t106.5 -43q52 0 84.5 23.5t46.5 67.5h91q-16 -83 -72.5 -125.5t-151.5 -42.5q-113 0 -178 68.5t-65 194.5q0 61 17 110t48.5 83t76 52.5t99.5 18.5q54 0 97 -18.5t73 -51.5t46 -80t16 -105v-28zM281 443q-61 0 -98.5 -41t-44.5 -107h283q-1 33 -12 60t-29.5 46.5t-43.5 30.5
t-55 11z" />
    <glyph glyph-name="igrave" unicode="&#xec;" horiz-adv-x="239" 
d="M64 784l105 -189h-90l-125 189h110zM70 511h99v-511h-99v511z" />
    <glyph glyph-name="iacute" unicode="&#xed;" horiz-adv-x="239" 
d="M160 595h-90l106 189h109zM70 511h99v-511h-99v511z" />
    <glyph glyph-name="icircumflex" unicode="&#xee;" horiz-adv-x="239" 
d="M294 576h-87l-86 133h-4l-86 -133h-86l137 211h74zM70 511h99v-511h-99v511z" />
    <glyph glyph-name="idieresis" unicode="&#xef;" horiz-adv-x="239" 
d="M-53 670q0 24 19 42.5t44 18.5t42.5 -18.5t17.5 -42.5q0 -26 -17.5 -43.5t-42.5 -17.5t-44 17.5t-19 43.5zM169 670q0 24 18.5 42.5t44.5 18.5q24 0 41.5 -18.5t17.5 -42.5q0 -26 -17.5 -43.5t-41.5 -17.5q-26 0 -44.5 17.5t-18.5 43.5zM70 511h99v-511h-99v511z" />
    <glyph glyph-name="eth" unicode="&#xf0;" horiz-adv-x="626" 
d="M592 675l-113 -64q48 -48 75 -115t27 -152q0 -95 -22.5 -162t-60.5 -109t-88 -61.5t-105 -19.5t-102.5 17.5t-81.5 49t-53.5 76t-19.5 97.5q0 45 17 85.5t47.5 71t72.5 48.5t92 18q77 0 133.5 -32t79.5 -89h1q1 76 -21.5 135t-62.5 99l-140 -79l-22 39l122 70
q-28 18 -58.5 28.5t-64.5 10.5v71q54 0 104.5 -16.5t93.5 -48.5l126 73zM307 68q34 0 63.5 12.5t51.5 35t34.5 53t12.5 66.5q0 32 -13 59.5t-35 48.5t-52 33t-63 12q-34 0 -63.5 -12t-51 -33t-33.5 -50t-12 -63t12.5 -63.5t34 -51.5t51 -34.5t63.5 -12.5z" />
    <glyph glyph-name="ntilde" unicode="&#xf1;" horiz-adv-x="560" 
d="M207 680q-47 0 -48 -80h-74q0 75 25 113t86 38q26 0 47 -12.5t40 -27t38 -27t41 -12.5q50 0 53 82h74q0 -73 -28.5 -113t-88.5 -40q-27 0 -48.5 12.5t-41 27t-37.5 27t-38 12.5zM322 519q89 0 139 -49.5t50 -158.5v-311h-99v295q0 74 -30.5 109.5t-96.5 35.5
q-31 0 -56 -13t-42.5 -36t-27 -55.5t-9.5 -70.5v-265h-99v511h96v-115h1q19 62 64.5 92.5t109.5 30.5z" />
    <glyph glyph-name="ograve" unicode="&#xf2;" horiz-adv-x="554" 
d="M279 784l106 -189h-90l-125 189h109zM277 -8q-56 0 -101 18t-77 51.5t-49.5 82.5t-17.5 111q0 63 17.5 112t49.5 82.5t77 51.5t101 18t101.5 -18t77.5 -51.5t49.5 -82.5t17.5 -112q0 -62 -17.5 -111t-49.5 -82.5t-77.5 -51.5t-101.5 -18zM277 69q32 0 59.5 12.5t48 36.5
t32 58.5t11.5 78.5q0 45 -11.5 80t-32 58.5t-48 36t-59.5 12.5t-59.5 -12.5t-47.5 -36t-31.5 -58.5t-11.5 -80t11.5 -79.5t31.5 -58t47.5 -36t59.5 -12.5z" />
    <glyph glyph-name="oacute" unicode="&#xf3;" horiz-adv-x="554" 
d="M320 595h-90l105 189h110zM277 -8q-56 0 -101 18t-77 51.5t-49.5 82.5t-17.5 111q0 63 17.5 112t49.5 82.5t77 51.5t101 18t101.5 -18t77.5 -51.5t49.5 -82.5t17.5 -112q0 -62 -17.5 -111t-49.5 -82.5t-77.5 -51.5t-101.5 -18zM277 69q32 0 59.5 12.5t48 36.5t32 58.5
t11.5 78.5q0 45 -11.5 80t-32 58.5t-48 36t-59.5 12.5t-59.5 -12.5t-47.5 -36t-31.5 -58.5t-11.5 -80t11.5 -79.5t31.5 -58t47.5 -36t59.5 -12.5z" />
    <glyph glyph-name="ocircumflex" unicode="&#xf4;" horiz-adv-x="554" 
d="M450 576h-88l-85 133h-3l-86 -133h-85l137 211h71zM277 -8q-56 0 -101 18t-77 51.5t-49.5 82.5t-17.5 111q0 63 17.5 112t49.5 82.5t77 51.5t101 18t101.5 -18t77.5 -51.5t49.5 -82.5t17.5 -112q0 -62 -17.5 -111t-49.5 -82.5t-77.5 -51.5t-101.5 -18zM277 69
q32 0 59.5 12.5t48 36.5t32 58.5t11.5 78.5q0 45 -11.5 80t-32 58.5t-48 36t-59.5 12.5t-59.5 -12.5t-47.5 -36t-31.5 -58.5t-11.5 -80t11.5 -79.5t31.5 -58t47.5 -36t59.5 -12.5z" />
    <glyph glyph-name="otilde" unicode="&#xf5;" horiz-adv-x="554" 
d="M202 680q-47 0 -48 -80h-74q0 75 25 113t85 38q26 0 47.5 -12.5t40.5 -27t38 -27t41 -12.5q50 0 53 82h74q0 -73 -29 -113t-88 -40q-27 0 -48.5 12.5t-41 27t-37.5 27t-38 12.5zM277 -8q-56 0 -101 18t-77 51.5t-49.5 82.5t-17.5 111q0 63 17.5 112t49.5 82.5t77 51.5
t101 18t101.5 -18t77.5 -51.5t49.5 -82.5t17.5 -112q0 -62 -17.5 -111t-49.5 -82.5t-77.5 -51.5t-101.5 -18zM277 69q32 0 59.5 12.5t48 36.5t32 58.5t11.5 78.5q0 45 -11.5 80t-32 58.5t-48 36t-59.5 12.5t-59.5 -12.5t-47.5 -36t-31.5 -58.5t-11.5 -80t11.5 -79.5
t31.5 -58t47.5 -36t59.5 -12.5z" />
    <glyph glyph-name="odieresis" unicode="&#xf6;" horiz-adv-x="554" 
d="M107 670q0 24 18 42.5t43 18.5t42.5 -18.5t17.5 -42.5q0 -26 -17.5 -43.5t-42.5 -17.5t-43 17.5t-18 43.5zM328 670q0 24 18 42.5t44 18.5q24 0 41.5 -18.5t17.5 -42.5q0 -26 -17.5 -43.5t-41.5 -17.5q-26 0 -44 17.5t-18 43.5zM277 -8q-56 0 -101 18t-77 51.5
t-49.5 82.5t-17.5 111q0 63 17.5 112t49.5 82.5t77 51.5t101 18t101.5 -18t77.5 -51.5t49.5 -82.5t17.5 -112q0 -62 -17.5 -111t-49.5 -82.5t-77.5 -51.5t-101.5 -18zM277 69q32 0 59.5 12.5t48 36.5t32 58.5t11.5 78.5q0 45 -11.5 80t-32 58.5t-48 36t-59.5 12.5
t-59.5 -12.5t-47.5 -36t-31.5 -58.5t-11.5 -80t11.5 -79.5t31.5 -58t47.5 -36t59.5 -12.5z" />
    <glyph glyph-name="divide" unicode="&#xf7;" horiz-adv-x="573" 
d="M288 416q-29 0 -47 18.5t-18 43.5t18 43.5t47 18.5q27 0 45 -18.5t18 -43.5t-18 -43.5t-45 -18.5zM524 277h-475v80h475v-80zM288 89q-29 0 -47 18.5t-18 43.5t18 43.5t47 18.5q27 0 45 -18.5t18 -43.5t-18 -43.5t-45 -18.5z" />
    <glyph glyph-name="oslash" unicode="&#xf8;" horiz-adv-x="554" 
d="M277 519q56 0 101.5 -18t77.5 -51.5t49.5 -82.5t17.5 -112q0 -62 -17.5 -111t-49.5 -82.5t-77.5 -51.5t-101.5 -18t-101 18t-77 51.5t-49.5 82.5t-17.5 111q0 63 17.5 112t49.5 82.5t77 51.5t101 18zM127 255q0 -54 17.5 -92.5t47.5 -61.5l118 335q-8 2 -16.5 4t-19.5 2
q-64 -2 -105.5 -50.5t-41.5 -136.5zM428 255q0 53 -17.5 91.5t-46.5 58.5l-120 -331q8 -2 16.5 -3.5t19.5 -1.5q64 2 106 50t42 136z" />
    <glyph glyph-name="ugrave" unicode="&#xf9;" horiz-adv-x="560" 
d="M275 784l106 -189h-90l-124 189h108zM150 511v-296q0 -73 29.5 -108.5t95.5 -35.5q32 0 57 13t42.5 36t27 55t9.5 70v266h100v-511h-96v115h-1q-20 -62 -65.5 -92.5t-109.5 -30.5q-89 0 -138.5 49t-49.5 159v311h99z" />
    <glyph glyph-name="uacute" unicode="&#xfa;" horiz-adv-x="560" 
d="M316 595h-88l105 189h107zM150 511v-296q0 -73 29.5 -108.5t95.5 -35.5q32 0 57 13t42.5 36t27 55t9.5 70v266h100v-511h-96v115h-1q-20 -62 -65.5 -92.5t-109.5 -30.5q-89 0 -138.5 49t-49.5 159v311h99z" />
    <glyph glyph-name="ucircumflex" unicode="&#xfb;" horiz-adv-x="560" 
d="M453 576h-87l-87 133h-3l-85 -133h-86l137 211h74zM150 511v-296q0 -73 29.5 -108.5t95.5 -35.5q32 0 57 13t42.5 36t27 55t9.5 70v266h100v-511h-96v115h-1q-20 -62 -65.5 -92.5t-109.5 -30.5q-89 0 -138.5 49t-49.5 159v311h99z" />
    <glyph glyph-name="udieresis" unicode="&#xfc;" horiz-adv-x="560" 
d="M332 670q0 24 19 42.5t45 18.5q23 0 41 -18.5t18 -42.5q0 -26 -18 -43.5t-41 -17.5q-26 0 -45 17.5t-19 43.5zM111 670q0 24 18.5 42.5t44.5 18.5q23 0 41.5 -18.5t18.5 -42.5q0 -26 -18.5 -43.5t-41.5 -17.5q-26 0 -44.5 17.5t-18.5 43.5zM150 511v-296
q0 -73 29.5 -108.5t95.5 -35.5q32 0 57 13t42.5 36t27 55t9.5 70v266h100v-511h-96v115h-1q-20 -62 -65.5 -92.5t-109.5 -30.5q-89 0 -138.5 49t-49.5 159v311h99z" />
    <glyph glyph-name="yacute" unicode="&#xfd;" horiz-adv-x="504" 
d="M294 595h-89l105 189h109zM494 511q-45 -126 -85 -236q-17 -47 -34 -95t-33 -91.5t-28.5 -79t-20.5 -57.5q-26 -78 -68 -108t-108 -30q-17 0 -35.5 2.5t-36.5 7.5v67q14 -2 25 -3t22 -1q18 0 32 2t25.5 9t20.5 19t17 32l17 47l-194 515h105l138 -425h2l136 425h103z" />
    <glyph glyph-name="thorn" unicode="&#xfe;" horiz-adv-x="575" 
d="M148 682v-272h2q25 54 71.5 81.5t109.5 27.5q44 0 82 -18t66.5 -52t44.5 -83.5t16 -111.5q0 -61 -16 -109.5t-44.5 -82.5t-68.5 -52t-88 -18q-57 0 -103.5 26t-69.5 80h-2v-275h-97v859h97zM148 257q0 -42 10.5 -76.5t30 -59t46.5 -37.5t60 -13t60 13t46.5 37t30 58
t10.5 76t-10.5 76.5t-30 58.5t-46.5 37.5t-60 13.5t-60 -13t-46.5 -37t-30 -58t-10.5 -76z" />
    <glyph glyph-name="ydieresis" unicode="&#xff;" horiz-adv-x="504" 
d="M84 670q0 24 19 42.5t44 18.5q24 0 42 -18.5t18 -42.5q0 -26 -18 -43.5t-42 -17.5q-25 0 -44 17.5t-19 43.5zM305 670q0 24 19 42.5t45 18.5q23 0 41 -18.5t18 -42.5q0 -26 -18 -43.5t-41 -17.5q-26 0 -45 17.5t-19 43.5zM494 511q-45 -126 -85 -236q-17 -47 -34 -95
t-33 -91.5t-28.5 -79t-20.5 -57.5q-26 -78 -68 -108t-108 -30q-17 0 -35.5 2.5t-36.5 7.5v67q14 -2 25 -3t22 -1q18 0 32 2t25.5 9t20.5 19t17 32l17 47l-194 515h105l138 -425h2l136 425h103z" />
    <glyph glyph-name="Dcroat" unicode="&#x110;" horiz-adv-x="745" 
d="M357 700q80 0 144 -23t109 -67t69.5 -108.5t24.5 -147.5q0 -84 -24.5 -150t-69.5 -111.5t-109.5 -69t-144.5 -23.5h-227v318h-101v67h101v315h228zM344 79q118 0 185.5 71.5t67.5 201.5q0 129 -66.5 199t-184.5 70h-116v-236h192v-67h-192v-239h114z" />
    <glyph glyph-name="dcroat" unicode="&#x111;" horiz-adv-x="575" 
d="M250 519q60 0 105.5 -29t68.5 -83h2v172h-282v57h282v76h97v-76h75v-57h-75v-579h-93v103h-3q-21 -51 -69 -81t-109 -30q-46 0 -85.5 18t-68 52t-44.5 83t-16 111q0 61 15.5 109.5t44 82.5t68 52.5t87.5 18.5zM280 71q66 0 106.5 50t40.5 134q0 42 -10.5 76t-30 58
t-46.5 37.5t-60 13.5t-60 -13t-46.5 -37.5t-30 -58.5t-10.5 -76q0 -85 40.5 -134.5t106.5 -49.5z" />
    <glyph glyph-name="dotlessi" unicode="&#x131;" horiz-adv-x="239" 
d="M70 511h99v-511h-99v511z" />
    <glyph glyph-name="Lslash" unicode="&#x141;" horiz-adv-x="589" 
d="M232 700v-315h205v-67h-205v-239h338v-79h-439v318h-103v67h103v315h101z" />
    <glyph glyph-name="lslash" unicode="&#x142;" horiz-adv-x="437" 
d="M270 700v-315h143v-67h-143v-318h-101v318h-145v67h145v315h101z" />
    <glyph glyph-name="OE" unicode="&#x152;" horiz-adv-x="1024" 
d="M575 621q48 -36 74.5 -94t29.5 -136h247v-80h-247q-3 -78 -29.5 -137.5t-73.5 -94.5h402v-79h-539q-20 -4 -39.5 -6t-41.5 -2q-75 0 -135 24.5t-102 71t-64.5 113t-22.5 150.5q0 83 22.5 149t64.5 112.5t102 71t135 24.5q22 0 41.5 -2t39.5 -6h539v-79h-403zM140 351
q0 -128 57.5 -200.5t160.5 -72.5t160.5 72.5t57.5 200.5t-57.5 199.5t-160.5 71.5t-160.5 -71.5t-57.5 -199.5z" />
    <glyph glyph-name="oe" unicode="&#x153;" horiz-adv-x="939" 
d="M899 236h-376v-2q2 -78 42 -121.5t106 -43.5q53 0 85 23.5t46 67.5h92q-17 -83 -72.5 -125.5t-151.5 -42.5q-69 0 -121.5 30.5t-75.5 86.5q-23 -55 -76 -86t-120 -31q-56 0 -101 18t-77 51.5t-49.5 82.5t-17.5 111q0 63 17.5 112t49.5 82.5t77 51.5t101 18
q67 0 119.5 -30.5t78.5 -89.5q24 58 75 88.5t117 31.5q55 0 98 -18.5t73 -51.5t45.5 -80t15.5 -105v-28zM667 443q-61 0 -98.5 -41t-44.5 -107h283q-1 33 -12 60t-29.5 46.5t-43.5 30.5t-55 11zM277 69q32 0 59.5 12.5t48 36.5t32 58.5t11.5 78.5q0 45 -11.5 80t-32 58.5
t-48 36t-59.5 12.5t-59.5 -12.5t-47.5 -36t-31.5 -58.5t-11.5 -80t11.5 -79.5t31.5 -58t47.5 -36t59.5 -12.5z" />
    <glyph glyph-name="Scaron" unicode="&#x160;" horiz-adv-x="607" 
d="M262 756l-137 209h85l87 -133h4l86 133h87l-138 -209h-74zM135 198q7 -56 52.5 -90t118.5 -34t116 31t43 85q0 23 -7.5 40.5t-25 31t-45 24t-67.5 19.5l-72 15q-104 24 -153 67.5t-49 118.5q0 45 19.5 82.5t53 64t79.5 41t99 14.5q63 0 110.5 -16.5t79.5 -45.5t49 -67.5
t19 -82.5h-98q-5 57 -45.5 94.5t-112.5 37.5q-33 0 -60 -8t-47 -23t-31 -36t-11 -47q0 -45 32.5 -70.5t105.5 -40.5l73 -16q109 -22 159.5 -66.5t50.5 -119.5q0 -48 -19 -87t-53.5 -66t-84 -41.5t-110.5 -14.5q-59 0 -107.5 15t-83 42t-54.5 65t-22 84h98z" />
    <glyph glyph-name="scaron" unicode="&#x161;" horiz-adv-x="493" 
d="M209 576l-136 211h84l87 -133h3l86 133h87l-139 -211h-72zM130 149q6 -38 39.5 -61.5t81.5 -23.5t78 20.5t30 55.5q0 26 -21.5 43t-75.5 30l-66 13q-75 17 -113.5 50.5t-38.5 88.5q0 35 16 63t44 47.5t64.5 29.5t76.5 10q37 0 71 -9t61 -28.5t45 -49.5t21 -72h-91
q-5 42 -34 66t-75 24q-21 0 -40 -6t-33 -16t-22 -24t-8 -30q0 -26 21 -43t72 -29l68 -13q80 -18 117.5 -50t37.5 -86q0 -72 -55 -114.5t-151 -42.5q-38 0 -74 9t-65.5 28t-49 49t-24.5 71h93z" />
    <glyph glyph-name="Ydieresis" unicode="&#x178;" horiz-adv-x="616" 
d="M141 862q0 25 18.5 42.5t44.5 17.5q24 0 41.5 -17.5t17.5 -42.5t-17.5 -42.5t-41.5 -17.5q-26 0 -44.5 17.5t-18.5 42.5zM362 862q0 25 19 42.5t44 17.5q24 0 42 -17.5t18 -42.5t-18 -42.5t-42 -17.5q-25 0 -44 17.5t-19 42.5zM359 316v-316h-102v318l-249 382h118
l181 -286h2l181 286h118z" />
    <glyph glyph-name="Zcaron" unicode="&#x17d;" horiz-adv-x="613" 
d="M280 756l-137 209h86l85 -133h3l86 133h87l-138 -209h-72zM566 80v-80h-518v68l389 550v2h-379v80h503v-67l-384 -551v-2h389z" />
    <glyph glyph-name="zcaron" unicode="&#x17e;" horiz-adv-x="498" 
d="M220 576l-136 211h85l86 -133h4l85 133h88l-139 -211h-73zM48 57l285 376v4h-285v74h401v-65l-277 -368v-3h277v-75h-401v57z" />
    <glyph glyph-name="florin" unicode="&#x192;" horiz-adv-x="389" 
d="M341 505v-68h-97v-297q0 -80 -40.5 -114t-109.5 -34q-17 0 -34 1.5t-36 7.5v71q14 -2 25.5 -3t20.5 -1q44 0 59.5 16.5t15.5 57.5v295h-85v68h85v54q0 80 40.5 114t110.5 34q16 0 33 -1.5t36 -6.5v-72q-12 2 -22.5 3t-19.5 1q-45 0 -62 -15.5t-17 -59.5v-51h97z" />
    <glyph glyph-name="circumflex" unicode="&#x2c6;" horiz-adv-x="477" 
d="M412 576h-87l-86 133h-2l-86 -133h-86l137 211h73z" />
    <glyph glyph-name="caron" unicode="&#x2c7;" horiz-adv-x="477" 
d="M202 576l-137 211h86l86 -133h2l86 133h87l-137 -211h-73z" />
    <glyph glyph-name="breve" unicode="&#x2d8;" horiz-adv-x="388" 
d="M133 708q0 -26 16.5 -43t42.5 -17q29 0 45 17t16 43h70q0 -27 -9.5 -50t-27 -40t-41.5 -27t-53 -10q-28 0 -51 10t-40 27t-26.5 40t-9.5 50h68z" />
    <glyph glyph-name="dotaccent" unicode="&#x2d9;" horiz-adv-x="243" 
d="M65 640q0 22 17 38.5t40 16.5t39.5 -16.5t16.5 -38.5q0 -25 -16.5 -42t-39.5 -17t-40 17t-17 42z" />
    <glyph glyph-name="ring" unicode="&#x2da;" horiz-adv-x="368" 
d="M65 699q0 24 9 45.5t24.5 37t37.5 24.5t48 9t48 -9t37.5 -24.5t24.5 -37t9 -45.5q0 -25 -9 -47t-24.5 -37.5t-37.5 -24.5t-48 -9t-48 9t-37.5 24.5t-24.5 37.5t-9 47zM125 699q0 -26 16.5 -41.5t42.5 -15.5t41.5 15.5t15.5 41.5q0 25 -15.5 41.5t-41.5 16.5t-42.5 -16.5
t-16.5 -41.5z" />
    <glyph glyph-name="ogonek" unicode="&#x2db;" horiz-adv-x="280" 
 />
    <glyph glyph-name="tilde" unicode="&#x2dc;" horiz-adv-x="534" 
d="M187 680q-47 0 -47 -80h-75q0 75 26 113t87 38q25 0 46 -12.5t40 -27t38 -27t40 -12.5q27 0 39 20t14 62h74q0 -73 -28 -113t-87 -40q-27 0 -49 12.5t-41.5 27t-38 27t-38.5 12.5z" />
    <glyph glyph-name="hungarumlaut" unicode="&#x2dd;" horiz-adv-x="501" 
d="M65 575l106 209h98l-125 -209h-79zM233 575l105 209h98l-125 -209h-78z" />
    <glyph glyph-name="uni03BC" unicode="&#x3bc;" horiz-adv-x="560" 
d="M150 511v-296q0 -73 29.5 -108.5t95.5 -35.5q32 0 57 13t42.5 36t27 55t9.5 70v266h100v-511h-96v109h-1q-16 -54 -56 -85.5t-95 -31.5q-18 0 -35.5 3.5t-33.5 11.5t-28.5 20.5t-18.5 30.5h-2v-235h-94v688h99z" />
    <glyph glyph-name="uni0E01" unicode="&#xe01;" horiz-adv-x="605" 
d="M45 350q0 112 66 171.5t186 59.5q124 0 188.5 -60t64.5 -167v-354h-101v345q0 73 -37.5 114.5t-114.5 41.5q-72 0 -113 -34t-46 -96l132 -25v-30q-44 -15 -69 -47.5t-25 -82.5v-186h-100v176q0 54 31 92.5t83 49.5l-145 24v8z" />
    <glyph glyph-name="uni0E02" unicode="&#xe02;" horiz-adv-x="562" 
d="M507 577v-376q0 -57 -16 -96.5t-46 -64.5t-73 -36.5t-97 -11.5t-97 11.5t-73 36.5t-46 64.5t-16 96.5v41q0 46 14 80.5t34.5 59.5t44.5 40t44 21q0 25 -15.5 43t-52.5 18h-57v73h73q48 0 75.5 -13t41.5 -32.5t17.5 -42t3.5 -41.5v-19q-37 -15 -61 -35t-38 -45.5
t-19.5 -57t-5.5 -69.5q0 -32 5 -59.5t19 -47t40.5 -30.5t68.5 -11q44 0 70.5 11t40 30.5t17.5 47t4 59.5v355h100z" />
    <glyph glyph-name="uni0E03" unicode="&#xe03;" horiz-adv-x="590" 
d="M535 577v-376q0 -57 -16 -96.5t-46 -64.5t-73 -36.5t-97 -11.5q-109 0 -170 48t-61 161v41q0 46 14.5 81t36.5 60.5t48 42t50 23.5q0 56 -28 65q-25 -59 -83 -59q-34 0 -59.5 20t-25.5 64v38h72v-26q0 -18 9.5 -26t20.5 -8q18 0 28.5 12.5t21.5 47.5h17q31 0 51 -10.5
t32 -28t16.5 -41t4.5 -49.5v-19q-22 -9 -45 -23t-41.5 -35.5t-30 -53.5t-11.5 -77v-18q0 -32 5 -59.5t19 -47t40 -30.5t69 -11q45 0 71 11t40 30.5t18 47t4 59.5v355h99z" />
    <glyph glyph-name="uni0E04" unicode="&#xe04;" horiz-adv-x="620" 
d="M43 345q0 64 18 109t52 73t82.5 41t109.5 13q62 0 110 -12.5t81.5 -40.5t51 -72.5t17.5 -107.5v-348h-99v336q0 38 -8.5 68.5t-28 52t-50 33t-74.5 11.5q-46 0 -77 -12t-49.5 -34.5t-26.5 -54t-8 -70.5q0 -54 5.5 -94t12.5 -82q9 25 24 54t34 54.5t43 42.5t51 17h46v-78
h-34q-28 0 -52 -16.5t-42.5 -39.5t-32 -48.5t-21.5 -43.5v-96h-100v96q-5 30 -11 57.5t-11.5 56.5t-9 62t-3.5 73z" />
    <glyph glyph-name="uni0E05" unicode="&#xe05;" horiz-adv-x="620" 
d="M432 583q71 0 102 -42.5t31 -114.5v-426h-99v423q0 12 -2 25.5t-8.5 25.5t-19 19.5t-32.5 7.5t-34.5 -7.5t-23.5 -19.5t-13.5 -26t-4.5 -27h-49q0 13 -3.5 27t-12 26t-21.5 19.5t-33 7.5q-23 0 -36 -13t-20 -32.5t-8.5 -42t-1.5 -40.5q0 -57 6 -112t14 -106
q9 25 23.5 54.5t34 54.5t43 41.5t50.5 16.5h46v-78h-34q-28 0 -52 -16.5t-42.5 -39.5t-32 -48.5t-21.5 -43.5v-96h-100v96q-10 60 -22.5 129t-12.5 150q0 100 31.5 154t106.5 54q53 0 83.5 -23.5t39.5 -64.5q11 41 42.5 64.5t85.5 23.5z" />
    <glyph glyph-name="uni0E06" unicode="&#xe06;" horiz-adv-x="625" 
d="M72 0v242q0 46 14.5 81t36.5 60.5t48 42t50 23.5q0 56 -28 65q-25 -59 -83 -59q-34 0 -59.5 20t-25.5 64v38h72v-26q0 -18 9.5 -26t20.5 -8q18 0 28.5 12.5t21.5 47.5h17q31 0 51 -10.5t32 -28t16.5 -41t4.5 -49.5v-19q-22 -9 -44.5 -22.5t-41 -35.5t-30.5 -53.5
t-12 -75.5q0 -34 11.5 -64.5t33 -53.5t52 -36.5t67.5 -13.5q30 0 55 8.5t43 28t27.5 51t9.5 76.5v339h101v-365q0 -56 -15 -97.5t-42 -68.5t-63.5 -40.5t-80.5 -13.5q-42 0 -75.5 10.5t-58.5 29.5t-42 45t-25 57v-134h-96z" />
    <glyph glyph-name="uni0E07" unicode="&#xe07;" horiz-adv-x="566" 
d="M360 577q50 0 85 -7t57.5 -23.5t32.5 -44t10 -70.5q0 -34 -14 -80t-37.5 -101t-55 -118.5t-66.5 -132.5h-140l-219 577h102l183 -506h16q59 123 95.5 215.5t36.5 139.5q0 45 -21 62t-69 17h-56v72h60z" />
    <glyph glyph-name="uni0E08" unicode="&#xe08;" horiz-adv-x="564" 
d="M45 239v64h106q18 0 29 -8t18 -22l89 -200h22q21 37 42 75.5t38.5 76.5t28.5 74t11 67q0 57 -37.5 95t-113.5 38q-51 0 -90.5 -23t-57.5 -80h-95q9 45 30.5 80t54 58t74 35t89.5 12q118 0 181 -55.5t63 -148.5q0 -42 -13 -84.5t-35.5 -88t-53 -96t-64.5 -108.5h-129
l-106 228q-5 11 -17 11h-64z" />
    <glyph glyph-name="uni0E09" unicode="&#xe09;" horiz-adv-x="613" 
d="M460 0v134q-16 -62 -66.5 -102t-134.5 -40q-44 0 -80.5 13.5t-63 40.5t-41.5 68.5t-15 97.5v78h100v-52q0 -45 10 -76.5t27.5 -51t42 -28t54.5 -8.5q38 0 68 13t51 35.5t32.5 52t11.5 63.5v110q0 68 -37 109.5t-119 41.5q-57 0 -98 -24.5t-59 -78.5h-96q9 45 31 79.5
t55 58t75.5 35.5t91.5 12q57 0 104.5 -13t81.5 -41.5t53 -72.5t19 -106v-348h-98z" />
    <glyph glyph-name="uni0E0A" unicode="&#xe0a;" horiz-adv-x="562" 
d="M55 577h73q48 0 75.5 -13t41.5 -32.5t17.5 -42t3.5 -41.5v-19q-37 -15 -61 -35t-38 -45.5t-19.5 -57t-5.5 -69.5q0 -32 5 -59.5t19 -47t40.5 -30.5t68.5 -11q44 0 70.5 11t40 30.5t17.5 47t4 59.5v61q0 55 -24 86.5t-75 36.5v46q46 11 78 43.5t35 91.5h99
q0 -33 -10.5 -58.5t-27 -45t-37.5 -32.5t-43 -19q105 -21 105 -158v-73q0 -57 -16 -96.5t-46 -64.5t-73 -36.5t-97 -11.5t-97 11.5t-73 36.5t-46 64.5t-16 96.5v41q0 46 14 80.5t34.5 59.5t44.5 40t44 21q0 25 -15.5 43t-52.5 18h-57v73z" />
    <glyph glyph-name="uni0E0B" unicode="&#xe0b;" horiz-adv-x="590" 
d="M25 577h72v-26q0 -34 27 -34q17 0 28 12.5t22 47.5h16q30 0 50 -10.5t32 -28t16.5 -41t4.5 -49.5v-19q-22 -9 -44 -23t-39.5 -35.5t-28.5 -53.5t-11 -77v-18q0 -32 5 -59.5t19 -47t40 -30.5t69 -11q45 0 71 11t40 30.5t18 47t4 59.5v61q0 55 -24 86.5t-75 36.5v46
q45 11 77.5 43.5t35.5 91.5h99q-1 -33 -11.5 -58.5t-27 -45t-37.5 -32.5t-43 -19q105 -21 105 -158v-73q0 -57 -16 -96.5t-46 -64.5t-73 -36.5t-97 -11.5q-109 0 -170 48t-61 161v41q0 46 14 81t35 60.5t46.5 42t48.5 23.5q0 56 -26 65q-25 -59 -83 -59q-34 0 -58 19.5
t-24 64.5v38z" />
    <glyph glyph-name="uni0E0C" unicode="&#xe0c;" horiz-adv-x="939" 
d="M53 143q0 34 11.5 61.5t31 49.5t44.5 37.5t53 25.5l-148 25v8q0 112 62.5 171.5t179.5 59.5q124 0 183 -60t59 -167v-110q0 -33 8.5 -63.5t26.5 -54.5t45 -38t63 -14q53 0 82 36.5t29 127.5v339h101v-365q0 -112 -46.5 -166t-133.5 -54q-78 0 -121 38.5t-60 100.5v-131
h-94v345q0 73 -32.5 114.5t-109.5 41.5q-69 0 -106.5 -34t-42.5 -96l132 -25v-30q-18 -7 -38 -20t-37.5 -32.5t-29 -44.5t-11.5 -55q0 -48 29.5 -70t74.5 -22h29v-72h-58q-34 0 -65.5 7t-56 24t-39.5 44.5t-15 67.5z" />
    <glyph glyph-name="uni0E0D" unicode="&#xe0d;" horiz-adv-x="939" 
d="M53 143q0 34 11.5 61.5t31 49.5t44.5 37.5t53 25.5l-148 25v8q0 112 62.5 171.5t179.5 59.5q124 0 183 -60t59 -167v-121q0 -45 10 -75.5t27 -49t40 -26.5t50 -8t50 8t40 26.5t27 49t10 75.5v344h101v-361q0 -112 -60.5 -168t-167.5 -56q-106 0 -166.5 56t-60.5 168v129
q0 73 -32.5 114.5t-109.5 41.5q-69 0 -106.5 -34t-42.5 -96l132 -25v-30q-18 -7 -38 -20t-37.5 -32.5t-29 -44.5t-11.5 -55q0 -48 29.5 -70t74.5 -22h29v-72h-58q-34 0 -65.5 7t-56 24t-39.5 44.5t-15 67.5zM866 -132v-63h-285q-49 0 -78.5 10.5t-45 28.5t-20 41.5
t-4.5 50.5v11h87v-11q0 -20 4 -33.5t13.5 -21t26.5 -10.5t43 -3h259z" />
    <glyph glyph-name="uni0E0E" unicode="&#xe0e;" horiz-adv-x="610" 
d="M51 350q0 112 65 171.5t185 59.5q125 0 189.5 -60t64.5 -167v-554h-79q-56 41 -102 62t-94 21q-51 0 -78 -21.5t-32 -61.5h-95q5 44 21.5 73.5t42 47t56.5 24.5t64 7q59 0 106 -20t89 -49v462q0 73 -37.5 114.5t-115.5 41.5q-72 0 -113 -34t-46 -96l138 -26v-30
q-38 -12 -60 -37.5t-22 -70.5v-87q0 -60 -33 -90t-92 -30h-54v72h29q54 0 54 64v69q0 39 24.5 71.5t74.5 40.5l-150 25v8z" />
    <glyph glyph-name="uni0E0F" unicode="&#xe0f;" horiz-adv-x="610" 
d="M142 -53q10 -45 30 -64.5t52 -19.5q35 0 55.5 19.5t32.5 64.5h39l103 -84v482q0 73 -37.5 114.5t-115.5 41.5q-72 0 -113 -34t-46 -96l138 -26v-30q-38 -12 -60 -37.5t-22 -70.5v-87q0 -60 -33 -90t-92 -30h-54v72h29q54 0 54 64v69q0 39 24.5 71.5t74.5 40.5l-150 25v8
q0 112 65 171.5t185 59.5q125 0 189.5 -60t64.5 -167v-554h-112l-106 87q-14 -47 -50 -69.5t-83 -22.5q-61 0 -100.5 37t-50.5 115h89z" />
    <glyph glyph-name="uni0E10" unicode="&#xe10;" horiz-adv-x="566" 
d="M581 620l-105 -118q24 -24 38.5 -55t14.5 -70q0 -42 -13 -84.5t-35.5 -88t-53 -96t-64.5 -108.5h-130l-107 228q-3 11 -17 11h-64v64h107q33 0 46 -30l91 -200h21q20 37 41.5 75.5t39 76.5t28.5 74t11 67q0 57 -37.5 95t-112.5 38q-52 0 -92 -23.5t-57 -79.5h-96
q9 45 31 80t54.5 58t74.5 35t90 12q77 0 131 -32l65 71h100zM505 -71v-147h-97l-104 88q-15 -45 -50.5 -68.5t-83.5 -23.5q-61 0 -99.5 36.5t-49.5 114.5h88q9 -44 29.5 -64t52.5 -20q33 0 53.5 19.5t33.5 64.5h38l105 -84v84h84z" />
    <glyph glyph-name="uni0E11" unicode="&#xe11;" horiz-adv-x="623" 
d="M25 577h72v-26q0 -18 9.5 -26t20.5 -8q18 0 28.5 12.5t21.5 47.5h20q41 0 63.5 -23t26.5 -59q42 37 80.5 63t80.5 26q34 0 57 -10.5t37 -29t20 -44t6 -55.5v-445h-101v419q0 44 -10 61t-42 17q-25 0 -58.5 -26t-70.5 -58q-18 -17 -37 -36t-35 -43.5t-26 -55t-10 -70.5
v-208h-100v210q0 40 11 73t30.5 62.5t45.5 55t56 50.5q0 17 -6 36.5t-22 26.5q-25 -59 -83 -59q-34 0 -59.5 20t-25.5 64v38z" />
    <glyph glyph-name="uni0E12" unicode="&#xe12;" horiz-adv-x="979" 
d="M367 282q0 -58 -21 -106t-53.5 -84t-72 -59.5t-77.5 -32.5h-88v426q0 72 30.5 114.5t101.5 42.5q52 0 83 -22.5t41 -63.5q11 41 42.5 63.5t83.5 22.5q71 0 101.5 -42.5t30.5 -114.5v-182q0 -33 9 -63.5t27 -54.5t45 -38t63 -14q54 0 83 36.5t29 127.5v339h99v-365
q0 -112 -46.5 -166t-133.5 -54q-39 0 -68.5 10t-51 28.5t-36 44t-22.5 56.5v-131h-96v423q0 12 -2 25.5t-8 25.5t-18 19.5t-32 7.5t-34 -7.5t-23 -19.5t-13 -26t-3 -27h-49q0 13 -4 27t-13 26t-23 19.5t-35 7.5q-20 0 -32 -7.5t-18 -19.5t-7.5 -25.5t-1.5 -25.5v-363
q26 14 51 34t45 45.5t32.5 55t12.5 61.5h-67v63h139v-37z" />
    <glyph glyph-name="uni0E13" unicode="&#xe13;" horiz-adv-x="939" 
d="M884 0h-96v131q-16 -61 -58.5 -100t-119.5 -39q-88 0 -134.5 54t-46.5 166v133q0 73 -32.5 114.5t-109.5 41.5q-69 0 -106.5 -34t-42.5 -96l132 -25v-30q-18 -7 -38 -20t-37.5 -32.5t-29 -44.5t-11.5 -55q0 -48 29.5 -70t74.5 -22h29v-72h-58q-34 0 -65.5 7t-56 24
t-39.5 44.5t-15 67.5q0 34 11.5 61.5t31 49.5t44.5 37.5t53 25.5l-148 25v8q0 112 62.5 171.5t179.5 59.5q124 0 183 -60t59 -167v-116q0 -91 29 -127.5t83 -36.5q36 0 62.5 14t44.5 38t26.5 54.5t8.5 63.5v333h101v-577z" />
    <glyph glyph-name="uni0E14" unicode="&#xe14;" horiz-adv-x="621" 
d="M311 501q-44 0 -74 -14t-48.5 -38.5t-26.5 -57t-8 -70.5v-261q26 14 51 34t45 45.5t32 55t12 61.5h-66v63h139v-37q0 -58 -21 -106t-53.5 -84t-72.5 -59.5t-79 -32.5h-86v330q0 129 66.5 190t189.5 61q124 0 189.5 -61t65.5 -190v-330h-98v321q0 38 -8 70.5t-26.5 57
t-48.5 38.5t-74 14z" />
    <glyph glyph-name="uni0E15" unicode="&#xe15;" horiz-adv-x="624" 
d="M367 282q0 -58 -21 -106t-53.5 -84t-72 -59.5t-77.5 -32.5h-88v426q0 72 30.5 114.5t101.5 42.5q52 0 83.5 -22.5t42.5 -63.5q11 41 42 63.5t83 22.5q71 0 101 -42.5t30 -114.5v-426h-99v423q0 12 -1.5 25.5t-7.5 25.5t-18 19.5t-32 7.5t-34 -7.5t-23 -19.5t-13 -26
t-4 -27h-49q0 13 -3.5 27t-12.5 26t-23 19.5t-34 7.5t-32 -7.5t-18.5 -19.5t-8.5 -25.5t-2 -25.5v-363q27 14 52.5 34t45.5 45.5t32.5 55t12.5 61.5h-68v63h138v-37z" />
    <glyph glyph-name="uni0E16" unicode="&#xe16;" horiz-adv-x="605" 
d="M53 143q0 34 11.5 61.5t31 49.5t44.5 37.5t53 25.5l-148 25v8q0 112 66 171.5t186 59.5q124 0 188.5 -60t64.5 -167v-354h-101v345q0 73 -37.5 114.5t-114.5 41.5q-72 0 -113 -34t-46 -96l132 -25v-30q-18 -7 -38 -20t-37.5 -32.5t-29 -44.5t-11.5 -55q0 -48 29.5 -70
t74.5 -22h29v-72h-58q-34 0 -65.5 7t-56 24t-39.5 44.5t-15 67.5z" />
    <glyph glyph-name="uni0E17" unicode="&#xe17;" horiz-adv-x="608" 
d="M55 577h96v-138q17 62 67.5 102t135.5 40q43 0 79.5 -13.5t63 -40.5t41.5 -68.5t15 -97.5v-361h-99v336q0 45 -10 76.5t-28 50.5t-43 27.5t-55 8.5q-37 0 -67.5 -13t-51.5 -35t-32.5 -52t-11.5 -64v-335h-100v577z" />
    <glyph glyph-name="uni0E18" unicode="&#xe18;" horiz-adv-x="571" 
d="M147 398q107 -24 179.5 -44.5t116.5 -43t63 -50t19 -66.5v-28q0 -44 -18 -76.5t-50 -53.5t-76 -31t-95 -10q-48 0 -90 10.5t-73.5 32t-50 55.5t-20.5 81v79h102v-76q0 -29 11.5 -48.5t30 -31.5t42.5 -17t49 -5q28 0 53 4.5t43.5 15.5t29.5 29t11 45v24q0 26 -18 45.5
t-61 37t-114.5 36t-178.5 43.5v24q0 53 20.5 91.5t54.5 63t76.5 36t85.5 11.5q44 0 84.5 -12.5t73 -36t53 -56t23.5 -72.5h-94q-8 47 -48.5 73t-93.5 26q-25 0 -49 -6t-43.5 -19t-32 -33t-15.5 -47z" />
    <glyph glyph-name="uni0E19" unicode="&#xe19;" horiz-adv-x="608" 
d="M553 0h-96v134q-17 -62 -67 -102t-135 -40q-43 0 -79.5 13.5t-63.5 40.5t-42 68.5t-15 97.5v365h100v-339q0 -45 9.5 -76.5t27.5 -51t43 -28t56 -8.5q38 0 68 13t51 35.5t32.5 52t11.5 63.5v339h99v-577z" />
    <glyph glyph-name="uni0E1A" unicode="&#xe1a;" horiz-adv-x="616" 
d="M561 577v-331q0 -128 -64.5 -191t-187.5 -63q-124 0 -189 63t-65 191v331h100v-319q0 -41 7.5 -75t25 -58t47 -37.5t74.5 -13.5q44 0 73.5 13.5t47 37.5t24.5 58t7 75v319h100z" />
    <glyph glyph-name="uni0E1B" unicode="&#xe1b;" horiz-adv-x="616" 
d="M561 750v-504q0 -128 -64.5 -191t-187.5 -63q-124 0 -189 63t-65 191v331h100v-319q0 -41 7.5 -75t25 -58t47 -37.5t74.5 -13.5q44 0 73.5 13.5t47 37.5t24.5 58t7 75v492h100z" />
    <glyph glyph-name="uni0E1C" unicode="&#xe1c;" horiz-adv-x="629" 
d="M55 435q0 69 37.5 106.5t103.5 37.5h58v-73h-36q-32 0 -47.5 -18.5t-15.5 -51.5v-316l139 211h39l140 -211v457h101v-577h-92l-167 252l-170 -252h-90v435z" />
    <glyph glyph-name="uni0E1D" unicode="&#xe1d;" horiz-adv-x="629" 
d="M55 435q0 69 37.5 106.5t103.5 37.5h58v-73h-36q-32 0 -47.5 -18.5t-15.5 -51.5v-316l139 211h39l140 -211v630h101v-750h-92l-167 252l-170 -252h-90v435z" />
    <glyph glyph-name="uni0E1E" unicode="&#xe1e;" horiz-adv-x="765" 
d="M746 577l-130 -577h-88l-146 462l-148 -462h-88l-128 577h103l84 -432l139 419h78l137 -419l85 432h102z" />
    <glyph glyph-name="uni0E1F" unicode="&#xe1f;" horiz-adv-x="764" 
d="M781 751l-164 -751h-88l-147 462l-148 -462h-88l-128 577h103l84 -432l139 419h78l137 -419l121 606h101z" />
    <glyph glyph-name="uni0E20" unicode="&#xe20;" horiz-adv-x="610" 
d="M51 350q0 112 65 171.5t185 59.5q125 0 189.5 -60t64.5 -167v-354h-101v345q0 73 -37.5 114.5t-115.5 41.5q-72 0 -113 -34t-46 -96l138 -26v-30q-38 -12 -60 -37.5t-22 -70.5v-87q0 -60 -33 -90t-92 -30h-54v72h29q54 0 54 64v69q0 39 24.5 71.5t74.5 40.5l-150 25v8z
" />
    <glyph glyph-name="uni0E21" unicode="&#xe21;" horiz-adv-x="608" 
d="M55 0v577h100v-339q0 -34 11.5 -63.5t32.5 -52t51.5 -35.5t67.5 -13q30 0 55 8.5t43 28t28 51t10 76.5v339h99v-365q0 -56 -15 -97.5t-41.5 -68.5t-63 -40.5t-79.5 -13.5q-85 0 -135.5 40t-67.5 102v-134h-96z" />
    <glyph glyph-name="uni0E22" unicode="&#xe22;" horiz-adv-x="599" 
d="M544 577v-345q0 -127 -60.5 -183.5t-187.5 -56.5q-121 0 -184 44.5t-63 132.5q0 60 34.5 92t89.5 44q-54 12 -89.5 46.5t-35.5 89.5q0 71 45.5 103.5t120.5 32.5h72v-72h-53q-45 0 -67 -20.5t-22 -56.5q0 -26 14.5 -44t35.5 -29t45 -16t44 -5h40v-58h-35q-21 0 -45.5 -4
t-44.5 -15t-33.5 -29t-13.5 -47q0 -22 6.5 -41.5t23.5 -34t45.5 -23t72.5 -8.5q45 0 74 11.5t45.5 33.5t22.5 52.5t6 69.5v336h97z" />
    <glyph glyph-name="uni0E23" unicode="&#xe23;" horiz-adv-x="530" 
d="M145 416q0 -35 34.5 -53.5t111.5 -37.5q40 -9 76 -20.5t63.5 -29.5t43.5 -45t16 -68q0 -42 -18.5 -73.5t-49 -52.5t-70.5 -31.5t-83 -10.5q-44 0 -84 11t-70.5 33t-50 55t-22.5 78h88q10 -48 47 -73t90 -25q26 0 49 5.5t40 16.5t27 28t10 40q0 20 -10.5 34.5t-33 26
t-56.5 22t-82 23.5q-37 10 -67 22.5t-51 29.5t-32 40.5t-11 54.5q0 39 16.5 70t45.5 52t68 32t84 11q44 0 83 -10.5t68.5 -32.5t48 -55.5t19.5 -78.5h-89q-5 49 -40 74t-89 25q-52 0 -86 -23t-34 -64z" />
    <glyph glyph-name="uni0E24" unicode="&#xe24;" horiz-adv-x="605" 
d="M53 143q0 34 11.5 61.5t31 49.5t44.5 37.5t53 25.5l-148 25v8q0 112 66 171.5t186 59.5q124 0 188.5 -60t64.5 -167v-554h-101v545q0 73 -37.5 114.5t-114.5 41.5q-72 0 -113 -34t-46 -96l132 -25v-30q-18 -7 -38 -20t-37.5 -32.5t-29 -44.5t-11.5 -55q0 -48 29.5 -70
t74.5 -22h29v-72h-58q-34 0 -65.5 7t-56 24t-39.5 44.5t-15 67.5z" />
    <glyph glyph-name="uni0E25" unicode="&#xe25;" horiz-adv-x="593" 
d="M538 0h-99v264l-149 -9q-32 -2 -58.5 -7.5t-46 -16.5t-30 -29t-10.5 -45q0 -85 101 -85h49v-72h-70q-85 0 -134 38.5t-49 113.5q0 46 18.5 77t51 49.5t75 27.5t90.5 12l162 10v29q0 31 -7.5 57t-24 45t-42.5 29.5t-64 10.5q-54 0 -95 -24.5t-56 -78.5h-96q8 45 29.5 79.5
t54.5 58t74.5 35.5t88.5 12q55 0 99 -13t74.5 -41.5t47 -72.5t16.5 -106v-348z" />
    <glyph glyph-name="uni0E26" unicode="&#xe26;" horiz-adv-x="610" 
d="M51 350q0 112 65 171.5t185 59.5q125 0 189.5 -60t64.5 -167v-554h-101v545q0 73 -37.5 114.5t-115.5 41.5q-72 0 -113 -34t-46 -96l138 -26v-30q-38 -12 -60 -37.5t-22 -70.5v-87q0 -60 -33 -90t-92 -30h-54v72h29q54 0 54 64v69q0 39 24.5 71.5t74.5 40.5l-150 25v8z
" />
    <glyph glyph-name="uni0E27" unicode="&#xe27;" horiz-adv-x="562" 
d="M269 581q118 0 184.5 -75t66.5 -217q0 -143 -65 -218t-186 -75q-44 0 -83 12.5t-69.5 36t-50.5 58t-28 78.5h96q15 -54 51 -78.5t85 -24.5q43 0 71.5 17.5t46 47t25 67.5t7.5 79t-7.5 78.5t-25 67t-46 47t-71.5 17.5q-49 0 -85 -24.5t-51 -78.5h-96q8 45 28 79.5t50.5 58
t69.5 35.5t83 12z" />
    <glyph glyph-name="uni0E28" unicode="&#xe28;" horiz-adv-x="616" 
d="M43 345q0 64 17.5 109t50.5 73t81.5 41t110.5 13q42 0 77.5 -8t60.5 -23l63 70h99l-100 -111q27 -26 41.5 -65t14.5 -96v-348h-100v336q0 38 -8 68.5t-26 52t-48 33t-74 11.5q-47 0 -78 -12t-49 -34.5t-25 -54t-7 -70.5q0 -54 5.5 -94t12.5 -82q9 25 24 54t34 54.5
t43 42.5t51 17h46v-78h-34q-28 0 -52 -16.5t-42.5 -39.5t-32 -48.5t-21.5 -43.5v-96h-100v96q-5 30 -11 57.5t-11.5 56.5t-9 62t-3.5 73z" />
    <glyph glyph-name="uni0E29" unicode="&#xe29;" horiz-adv-x="628" 
d="M561 577v-242h57v-64h-57v-25q0 -128 -64.5 -191t-187.5 -63q-124 0 -189 63t-65 191v331h100v-319q0 -41 7.5 -75t25 -58t47 -37.5t74.5 -13.5q43 0 72 13.5t47 37t25.5 56t7.5 71.5v19h-58q-48 0 -75.5 10t-41.5 27t-18 40t-4 50v10h74v-10q0 -20 2.5 -32.5t10 -19
t21.5 -9t36 -2.5h53v242h100z" />
    <glyph glyph-name="uni0E2A" unicode="&#xe2a;" horiz-adv-x="595" 
d="M538 0h-99v264l-149 -9q-32 -2 -58.5 -7.5t-46 -16.5t-30 -29t-10.5 -45q0 -85 101 -85h49v-72h-70q-85 0 -134 38.5t-49 113.5q0 46 18.5 77t51 49.5t75 27.5t90.5 12l162 10v29q0 31 -7.5 57t-24 45t-42.5 29.5t-64 10.5q-54 0 -95 -24.5t-56 -78.5h-96q8 45 29.5 79.5
t54.5 58t74.5 35.5t88.5 12q77 0 130 -32l65 71h100l-106 -120q23 -26 35.5 -63t12.5 -89v-348z" />
    <glyph glyph-name="uni0E2B" unicode="&#xe2b;" horiz-adv-x="590" 
d="M440 186q0 30 -12.5 50t-32 31.5t-42 15.5t-42.5 1l-156 -17v-267h-100v577h100v-239l118 13q42 5 73.5 14.5t52.5 26t31 41t10 59.5v85h100v-85q0 -70 -38 -110.5t-97 -54.5q27 -4 51 -13t43 -26t30 -43t11 -65v-180h-100v186z" />
    <glyph glyph-name="uni0E2C" unicode="&#xe2c;" horiz-adv-x="754" 
d="M783 708q-11 -69 -47.5 -111.5t-93.5 -53.5q87 -31 58 -162l-83 -381h-87l-148 462l-149 -462h-87l-128 577h103l84 -432l138 419h79l137 -419l51 242q6 30 8 55t-5 43t-25 28t-51 10v54q75 0 109.5 34t42.5 97h94z" />
    <glyph glyph-name="uni0E2D" unicode="&#xe2d;" horiz-adv-x="599" 
d="M292 581q60 0 109.5 -19t84 -56t53.5 -91t19 -125q0 -143 -69 -220.5t-194 -77.5q-62 0 -108.5 16.5t-78 45t-47 66.5t-15.5 81q0 22 4.5 44.5t16.5 41t34.5 30t58.5 11.5h130v-64h-105q-15 0 -24 -7t-14 -17.5t-6.5 -22t-1.5 -19.5q0 -55 42.5 -89.5t113.5 -34.5
q49 0 81.5 18.5t51.5 48.5t26.5 69t7.5 80q0 44 -10.5 82.5t-31.5 66.5t-53 44t-76 16q-23 0 -47 -6t-45 -19t-37.5 -32t-24.5 -46h-95q7 45 30.5 80t58 58t76.5 35t85 12z" />
    <glyph glyph-name="uni0E2E" unicode="&#xe2e;" horiz-adv-x="600" 
d="M292 581q76 0 132 -34l67 73h100l-107 -121q35 -35 54.5 -87.5t19.5 -121.5q0 -143 -69 -220.5t-194 -77.5q-62 0 -108.5 16.5t-78 45t-47 66.5t-15.5 81q0 22 4.5 44.5t16.5 41t34.5 30t58.5 11.5h130v-64h-105q-15 0 -24 -7t-14 -17.5t-6.5 -22t-1.5 -19.5
q0 -55 42.5 -89.5t113.5 -34.5q49 0 81.5 18.5t51.5 48.5t26.5 69t7.5 80q0 44 -10.5 82.5t-31.5 66.5t-53 44t-76 16q-23 0 -47 -6t-45 -19t-37.5 -32t-24.5 -46h-95q7 45 30.5 80t58 58t76.5 35t85 12z" />
    <glyph glyph-name="uni0E2F" unicode="&#xe2f;" horiz-adv-x="582" 
d="M512 577v-577h-100v358q-14 -57 -61 -91.5t-119 -34.5q-42 0 -77.5 11.5t-61.5 34t-40.5 55.5t-14.5 77q0 45 15.5 77.5t41 53t58.5 30t69 9.5h53v-73h-46q-36 0 -62.5 -23.5t-26.5 -71.5q0 -54 32 -78.5t84 -24.5q34 0 62.5 12.5t49.5 34.5t32.5 52t11.5 64v105h100z
" />
    <glyph glyph-name="uni0E30" unicode="&#xe30;" horiz-adv-x="373" 
d="M331 422v-66h-142q-49 0 -78 10.5t-44.5 28.5t-20 42t-4.5 50v13h85v-9q0 -39 17.5 -54t71.5 -15h115zM331 131v-69h-142q-49 0 -78 11t-44.5 29.5t-20 42.5t-4.5 51v11h85v-8q0 -40 17.5 -54.5t71.5 -13.5h115z" />
    <glyph glyph-name="uni0E31" unicode="&#xe31;" 
d="M-6 736v-63h-277q-49 0 -78.5 10.5t-45 28.5t-20 41.5t-4.5 50.5v13h86v-13q0 -20 3.5 -33.5t13.5 -21t27 -10.5t44 -3h251z" />
    <glyph glyph-name="uni0E32" unicode="&#xe32;" horiz-adv-x="474" 
d="M216 581q43 0 80 -11.5t64 -35.5t42 -61t15 -88v-385h-100v379q0 65 -36 93.5t-90 28.5q-38 0 -75 -9t-83 -27v73q88 43 183 43z" />
    <glyph glyph-name="uni0E33" unicode="&#xe33;" horiz-adv-x="474" 
d="M-165 862q23 0 43.5 -8t35.5 -22t24 -33t9 -42t-9 -42t-24 -32.5t-35.5 -21t-43.5 -7.5t-43 7.5t-35 21t-24 32.5t-9 42t9 42t24 33t35 22t43 8zM-165 704q23 0 39 15t16 38q0 24 -16 38.5t-39 14.5q-22 0 -37.5 -14.5t-15.5 -38.5q0 -23 15.5 -38t37.5 -15zM216 581
q43 0 80 -11.5t64 -35.5t42 -61t15 -88v-385h-100v379q0 65 -36 93.5t-90 28.5q-38 0 -75 -9t-83 -27v73q88 43 183 43z" />
    <glyph glyph-name="uni0E34" unicode="&#xe34;" 
d="M-527 673v63h472v-63h-472z" />
    <glyph glyph-name="uni0E35" unicode="&#xe35;" 
d="M-527 736h382v94h90v-157h-472v63z" />
    <glyph glyph-name="uni0E36" unicode="&#xe36;" 
d="M-134 838q41 0 63.5 -21t22.5 -63q0 -39 -22.5 -60t-63.5 -21h-393v63h315q-7 11 -7 24q0 34 21.5 56t63.5 22zM-169 754q0 -15 9.5 -25t25.5 -10q17 0 26 10t9 25q0 36 -35 36q-16 0 -25.5 -9.5t-9.5 -26.5z" />
    <glyph glyph-name="uni0E37" unicode="&#xe37;" 
d="M-527 736h263v82h71v-82h68v82h70v-145h-472v63z" />
    <glyph glyph-name="uni0E38" unicode="&#xe38;" 
d="M-58 -278h-90v128h-96v64h186v-192z" />
    <glyph glyph-name="uni0E39" unicode="&#xe39;" 
d="M-58 -86v-82q0 -35 -13 -57t-33.5 -35t-45 -17.5t-46.5 -4.5q-21 0 -43.5 4.5t-41.5 16t-31.5 31.5t-12.5 50v30h-67v64h144v-72q0 -34 14.5 -49t37.5 -15q25 0 40 15t15 49v72h83z" />
    <glyph glyph-name="uni0E3A" unicode="&#xe3a;" 
d="M-198 -157q0 31 20.5 51t50.5 20t50 -20t20 -51q0 -29 -20 -50t-50 -21t-50.5 21t-20.5 50z" />
    <glyph glyph-name="uni0E3F" unicode="&#xe3f;" horiz-adv-x="620" 
d="M55 700h188v98h90v-98q99 -3 155.5 -48t56.5 -123q0 -31 -9 -59.5t-26 -51.5t-41.5 -39t-55.5 -21v-3q36 -3 66.5 -16.5t53 -35.5t35.5 -52t13 -67q0 -88 -65 -136t-177 -48h-6v-104h-90v104h-188v700zM301 386q66 0 104.5 33.5t38.5 89.5q0 52 -38.5 82t-105.5 30h-144
v-235h145zM314 79q78 0 120 29.5t42 87.5q0 60 -44 90t-124 30h-152v-237h158z" />
    <glyph glyph-name="uni0E40" unicode="&#xe40;" horiz-adv-x="297" 
d="M218 0q-66 0 -107 40t-41 122v415h100v-421q0 -42 20 -63t51 -21h39v-72h-62z" />
    <glyph glyph-name="uni0E41" unicode="&#xe41;" horiz-adv-x="570" 
d="M218 0q-66 0 -107 40t-41 122v415h100v-421q0 -42 20 -63t51 -21h39v-72h-62zM490 0q-65 0 -106.5 40t-41.5 122v415h99v-421q0 -42 20.5 -63t50.5 -21h39v-72h-61z" />
    <glyph glyph-name="uni0E42" unicode="&#xe42;" horiz-adv-x="330" 
d="M251 0q-66 0 -107 40t-41 122v367q0 37 -11 60.5t-27 38t-35 22t-35 12.5v25q0 25 9.5 48t28 41t46 28.5t63.5 10.5h191v-72h-173q-37 0 -58 -18t-21 -38q27 -9 49.5 -21.5t38.5 -30.5t25 -43t9 -58v-378q0 -42 20 -63t51 -21h39v-72h-62z" />
    <glyph glyph-name="uni0E43" unicode="&#xe43;" horiz-adv-x="336" 
d="M256 0q-65 0 -106.5 40t-41.5 122v300q0 39 20.5 67.5t45 53.5t45 48t20.5 51q0 32 -18.5 53.5t-63.5 21.5q-86 0 -86 -91h-81q0 79 45 121.5t123 42.5q81 0 124.5 -37.5t43.5 -107.5q0 -41 -18 -69t-40 -52.5t-40 -49.5t-18 -60v-298q0 -42 20 -63t50 -21h39l-1 -72h-62
z" />
    <glyph glyph-name="uni0E44" unicode="&#xe44;" horiz-adv-x="336" 
d="M256 0q-65 0 -106.5 40t-41.5 122v324q0 46 11 80t29 58.5t41 40t46 22.5q0 28 -12 44.5t-31 21.5q-13 -30 -35.5 -51.5t-62.5 -21.5q-17 0 -34.5 5.5t-31.5 17t-23 30t-9 44.5v38h78v-26q0 -26 12 -36t25 -10q23 0 37 18.5t24 53.5h17q31 0 54 -10.5t38.5 -28t23 -41
t7.5 -49.5v-19q-21 -9 -40 -22t-32.5 -33.5t-21.5 -51.5t-8 -76v-328q0 -42 20 -63t50 -21h39l-1 -72h-62z" />
    <glyph glyph-name="uni0E45" unicode="&#xe45;" horiz-adv-x="474" 
d="M216 581q43 0 79.5 -11.5t63.5 -35.5t42 -61t15 -88v-585h-99v579q0 32 -9.5 55t-26.5 38t-40 22t-50 7q-38 0 -75 -9t-82 -27v73q42 21 87 32t95 11z" />
    <glyph glyph-name="uni0E46" unicode="&#xe46;" horiz-adv-x="576" 
d="M408 -120v482q0 11 -1 24.5t-6.5 25t-16.5 19.5t-31 8q-28 0 -42 -24t-14 -53h-48q0 14 -3.5 28t-10.5 25t-18.5 17.5t-26.5 6.5q-18 0 -29 -8t-16 -19.5t-6.5 -25t-1.5 -24.5v-39q0 -45 23.5 -67.5t62.5 -22.5h52v-68h-53q-39 0 -72.5 9t-58 28.5t-39 50t-14.5 73.5v50
q0 144 125 144q47 0 74 -24t34 -66q8 42 37 66t72 24q69 0 97.5 -36t28.5 -108v-496h-98z" />
    <glyph glyph-name="uni0E47" unicode="&#xe47;" 
d="M-247 786q0 -28 19 -43.5t41 -15.5h61v-63h-46q-30 0 -57 14.5t-39 42.5q-11 -28 -35.5 -42.5t-55.5 -14.5q-47 0 -77 30t-30 84t33 86t101 32h236v-64h-234q-29 0 -45.5 -13t-16.5 -39t15.5 -38.5t32.5 -12.5q21 0 38 14.5t17 42.5h42z" />
    <glyph glyph-name="uni0E48" unicode="&#xe48;" 
d="M-149 880v209h89v-209h-89z" />
    <glyph glyph-name="uni0E49" unicode="&#xe49;" 
d="M2 943v-63h-214q-26 0 -41.5 6.5t-23.5 17t-10 23.5t-2 25q0 18 -5.5 29t-23.5 11h-67v61h97q33 0 50 -13.5t17 -51.5q0 -30 9 -37.5t32 -7.5h182z" />
    <glyph glyph-name="uni0E4A" unicode="&#xe4a;" 
d="M-485 972q0 43 21 72.5t69 29.5q25 0 46.5 -12.5t32.5 -38.5q9 26 28.5 38.5t45.5 12.5q46 0 65 -27t19 -77v-51q40 0 40 44v126h66v-125q0 -91 -99 -91h-72v96q0 22 -8 34t-28 12q-17 0 -28 -12t-11 -35h-39q0 23 -11.5 35t-27.5 12q-38 0 -38 -46q0 -18 10 -32.5
t37 -14.5h30v-49h-45q-49 0 -76 25.5t-27 73.5z" />
    <glyph glyph-name="uni0E4B" unicode="&#xe4b;" 
d="M-20 957h-95v-77h-76v77h-95v52h95v77h76v-77h95v-52z" />
    <glyph glyph-name="uni0E4C" unicode="&#xe4c;" 
d="M-157 896q-27 0 -44 -3t-27 -11t-13.5 -21t-3.5 -33v-13h-86v13q0 26 4.5 50t20 42t45 28.5t78.5 10.5h155v-63h-129z" />
    <glyph glyph-name="uni0E4D" unicode="&#xe4d;" 
d="M-165 862q23 0 43.5 -8t35.5 -22t24 -33t9 -42t-9 -42t-24 -32.5t-35.5 -21t-43.5 -7.5t-43 7.5t-35 21t-24 32.5t-9 42t9 42t24 33t35 22t43 8zM-165 704q23 0 39 15t16 38q0 24 -16 38.5t-39 14.5q-22 0 -37.5 -14.5t-15.5 -38.5q0 -23 15.5 -38t37.5 -15z" />
    <glyph glyph-name="uni0E4E" unicode="&#xe4e;" 
 />
    <glyph glyph-name="uni0E4F" unicode="&#xe4f;" horiz-adv-x="528" 
d="M264 527q43 0 81 -16.5t66.5 -45t45 -67t16.5 -81.5t-16.5 -81.5t-45 -66.5t-66.5 -44.5t-81 -16.5t-81.5 16.5t-66.5 44.5t-44.5 66.5t-16.5 81.5t16.5 81.5t44.5 67t66.5 45t81.5 16.5zM264 147q35 0 65 13.5t52.5 36.5t35.5 54t13 66t-13 65t-35.5 52.5t-52.5 35.5
t-65 13t-66 -13t-54 -35.5t-36.5 -52.5t-13.5 -65t13.5 -66t36.5 -54t54 -36.5t66 -13.5zM264 442q26 0 48.5 -9.5t39 -26.5t26.5 -39.5t10 -49.5q0 -26 -10 -49t-26.5 -40t-39 -27t-48.5 -10t-49 10t-40 27t-27 40t-10 49q0 27 10 49.5t27 39.5t40 26.5t49 9.5zM264 228
q38 0 62 26t24 63q0 38 -24 62t-62 24q-37 0 -63 -24t-26 -62q0 -37 26 -63t63 -26z" />
    <glyph glyph-name="uni0E50" unicode="&#xe50;" horiz-adv-x="610" 
d="M305 519q56 0 105 -18t85 -51.5t57 -82.5t21 -112q0 -62 -21 -111t-57 -82.5t-85 -51.5t-105 -18t-105 18t-85 51.5t-57 82.5t-21 111q0 63 21 112t57 82.5t85 51.5t105 18zM305 71q34 0 65.5 12t55.5 35.5t38 58t14 78.5q0 45 -14 79.5t-38 58t-55.5 35.5t-65.5 12
t-65 -12t-54.5 -35.5t-37.5 -58t-14 -79.5t14 -79t37.5 -57.5t54.5 -35.5t65 -12z" />
    <glyph glyph-name="uni0E51" unicode="&#xe51;" horiz-adv-x="614" 
d="M296 92q-48 -4 -94 4.5t-83 31.5t-59.5 61.5t-22.5 93.5q0 62 21 107t57.5 73.5t85.5 42t104 13.5q56 0 105.5 -18.5t87 -54.5t59 -88.5t21.5 -121.5q0 -59 -20 -117.5t-62.5 -104t-108 -69.5t-156.5 -14v75q23 -3 42 -3q53 0 92.5 20t65.5 52.5t39 74.5t13 86
q0 50 -15 88t-40 64t-57 39t-66 13t-65 -8.5t-54.5 -27.5t-37.5 -49t-14 -72q0 -32 14.5 -55.5t37.5 -38t52 -20t58 -2.5v-75z" />
    <glyph glyph-name="uni0E52" unicode="&#xe52;" horiz-adv-x="742" 
d="M688 229q0 -61 -25 -106t-68 -74t-100.5 -43t-122.5 -14t-122.5 14t-100.5 43t-68 74t-25 106v453h94v-445q0 -49 20.5 -82t52.5 -53.5t71.5 -29t77.5 -8.5q40 0 79.5 9t71 29t51 53t19.5 82v122q0 12 -2 25.5t-8.5 25t-18.5 19t-32 7.5q-27 0 -41 -22t-20 -52h-46
q-7 30 -20 52t-42 22q-19 0 -31 -7.5t-18.5 -19t-8.5 -25t-2 -25.5v-35q0 -45 23 -65.5t61 -20.5q14 0 26.5 1t28.5 3v-59q-21 -5 -38.5 -6t-37.5 -1q-33 0 -60.5 9t-47.5 27t-31 46t-11 66v50q0 73 29.5 109t98.5 36q46 0 71 -23t33 -65q8 42 33.5 65t70.5 23q72 0 104 -36
t32 -109v-145z" />
    <glyph glyph-name="uni0E53" unicode="&#xe53;" horiz-adv-x="658" 
d="M452 519q83 0 117 -36t34 -109v-374h-100v359q0 12 -2 25.5t-9.5 25t-21.5 19t-37 7.5q-32 0 -47 -22t-20 -52h-52q-6 30 -22.5 52t-48.5 22q-30 0 -48 -16t-28.5 -42.5t-14 -59.5t-3.5 -67q0 -37 7.5 -69.5t25.5 -56.5t48.5 -38.5t77.5 -14.5q11 0 24 0.5t22 2.5v-74
q-16 -3 -35 -4t-35 -1q-54 0 -97 14t-73.5 44t-46.5 77t-16 114q0 60 8 110.5t27.5 87t53.5 56.5t85 20q44 0 74.5 -23t39.5 -65q8 42 38.5 65t74.5 23z" />
    <glyph glyph-name="uni0E54" unicode="&#xe54;" horiz-adv-x="651" 
d="M311 436q-32 0 -61 -12t-51.5 -35t-35.5 -57t-13 -79q0 -43 13 -76.5t36 -56.5t55 -35t69 -12q8 0 19 1t23 3t23 5t20 8q-32 30 -32 83q0 66 37.5 104.5t114.5 38.5q13 0 26.5 -1.5t28.5 -3.5v-65q-16 3 -32 3q-43 0 -67 -23t-24 -61q0 -25 12 -43.5t30 -29.5t39.5 -16.5
t40.5 -5.5h39v-70h-36q-40 0 -74.5 10t-61.5 28q-20 -19 -56.5 -30t-78.5 -11q-57 0 -105 17t-83 50t-55 81t-20 110q0 63 20 111t54.5 81t82.5 50t103 17h120q57 0 85.5 22.5t26.5 79.5h78q4 -44 -7.5 -78t-34.5 -56.5t-55 -34t-68 -11.5h-145z" />
    <glyph glyph-name="uni0E55" unicode="&#xe55;" horiz-adv-x="651" 
d="M621 0h-36q-40 0 -74.5 10t-61.5 28q-20 -19 -56.5 -30t-78.5 -11q-57 0 -105 17t-83 50t-55 81t-20 110q0 51 14 92.5t38.5 73t58 51.5t73.5 29q-21 26 -21 62q0 48 31 78t85 30q51 0 82.5 -30t31.5 -77q0 -30 -18 -50h28q45 0 68 26.5t21 75.5h78q4 -44 -7.5 -78
t-34.5 -56.5t-55 -34t-68 -11.5h-145q-32 0 -61 -12t-51.5 -35t-35.5 -57t-13 -79q0 -43 13 -76.5t36 -56.5t55 -35t69 -12q8 0 19 1t23 3t23 5t20 8q-32 30 -32 83q0 66 37.5 104.5t114.5 38.5q13 0 26.5 -1.5t28.5 -3.5v-65q-16 3 -32 3q-43 0 -67 -23t-24 -61
q0 -25 12 -43.5t30 -29.5t39.5 -16.5t40.5 -5.5h39v-70zM329 511q23 0 39 14.5t16 38.5q0 25 -16 39.5t-39 14.5t-38.5 -14.5t-15.5 -39.5q0 -24 15.5 -38.5t38.5 -14.5z" />
    <glyph glyph-name="uni0E56" unicode="&#xe56;" horiz-adv-x="662" 
d="M304 249q-22 3 -42 3q-41 0 -64 -17.5t-23 -63.5q0 -27 13 -46t35 -31t50.5 -17.5t59.5 -5.5q36 0 69 10.5t58 32t40 55.5t15 82q0 93 -51 142.5t-142 49.5q-33 1 -70 -10t-62 -31h-75l-129 226h93l95 -167q20 23 61 40.5t99 17.5q77 0 130 -20.5t86 -56t47.5 -83
t14.5 -102.5q0 -70 -22 -120t-60 -82t-89.5 -47.5t-110.5 -15.5q-52 0 -98 10t-80.5 32t-54 56.5t-19.5 83.5q0 42 12 70t33 44.5t50 23t64 6.5q16 0 33 -1t34 -3v-65z" />
    <glyph glyph-name="uni0E57" unicode="&#xe57;" horiz-adv-x="865" 
d="M810 142q0 -40 -14.5 -68t-38 -45t-52 -25t-56.5 -8q-27 0 -55.5 8t-51.5 25t-38 45t-15 68v217q0 12 -1.5 25.5t-8 25t-19.5 19t-36 7.5q-32 0 -47 -22t-20 -52h-47q-7 30 -23 52t-48 22q-30 0 -47.5 -16t-27 -42.5t-12.5 -59.5t-3 -67q0 -37 7 -69.5t25 -56.5t49 -38.5
t78 -14.5q11 0 24 0.5t22 2.5v-74q-16 -3 -35 -4t-35 -1q-54 0 -97 14t-73.5 44t-46.5 77t-16 114q0 60 7.5 110.5t26.5 87t51.5 56.5t83.5 20q42 0 72.5 -23t39.5 -65q9 42 40 65t72 23t68 -9t42.5 -27t22 -45.5t6.5 -63.5v-238q0 -36 20.5 -50t45.5 -14q26 0 46 14.5
t20 49.5v546h95v-540z" />
    <glyph glyph-name="uni0E58" unicode="&#xe58;" horiz-adv-x="637" 
d="M240 75q32 0 48.5 24t21.5 53h51q5 -31 21 -54t48 -23q26 0 40.5 8t22.5 19.5t10 24.5t2 23v39q0 41 -19.5 62.5t-64.5 23.5q-14 0 -27 -1.5t-31 -4.5v63q32 6 59 6q85 5 130 -34.5t45 -118.5v-38q0 -32 -8.5 -59.5t-26 -48t-45 -32t-66.5 -11.5q-45 0 -76 23t-39 65
q-9 -42 -39 -65t-75 -23q-49 0 -83 20t-55 55.5t-30 83t-9 102.5q0 134 65.5 195.5t182.5 61.5h131q57 0 85.5 22.5t26.5 79.5h80q4 -44 -8 -78t-35 -56.5t-54.5 -34t-67.5 -11.5h-158q-42 0 -71 -14t-46 -38.5t-24.5 -57t-7.5 -69.5q0 -33 4 -65.5t14.5 -58.5t29 -42
t48.5 -16z" />
    <glyph glyph-name="uni0E59" unicode="&#xe59;" horiz-adv-x="723" 
d="M553 368q0 10 -2.5 22t-10 23t-22.5 18.5t-39 7.5q-32 0 -46.5 -21.5t-16.5 -47.5l174 -370h-95l-170 362l-14 28t-16 25t-20.5 17.5t-28.5 6.5q-30 0 -48 -16.5t-28.5 -43.5t-14 -60.5t-3.5 -67.5q0 -36 6 -67.5t22.5 -56t45 -39t72.5 -15.5q11 -1 26.5 -0.5t26.5 2.5
v-74q-11 -3 -27 -4t-30 -1q-55 -1 -99.5 12t-76 43t-48.5 77.5t-17 116.5q0 60 8.5 110.5t29 87t55 56.5t85.5 20q46 0 79.5 -24.5t50.5 -66.5q8 45 40 68t69 23q41 0 71 -19.5t41 -54.5l79 147h83l-120 -224h-71z" />
    <glyph glyph-name="uni0E5A" unicode="&#xe5a;" horiz-adv-x="805" 
d="M517 577v-577h-101v358q-16 -57 -63.5 -91.5t-119.5 -34.5q-42 0 -77.5 11.5t-61.5 34t-41 55.5t-15 77q0 45 15.5 77.5t41 53t58.5 30t69 9.5h53v-73h-46q-36 0 -62.5 -23.5t-26.5 -71.5q0 -54 33 -78.5t83 -24.5q35 0 64.5 12.5t50.5 34.5t33 52t12 64v105h101z
M731 577v-577h-99v577h99z" />
    <glyph glyph-name="uni0E5B" unicode="&#xe5b;" horiz-adv-x="887" 
d="M289 303q0 24 -3 47.5t-12 41.5t-25 29t-42 11q-30 0 -49.5 -14t-30 -35t-14.5 -46.5t-4 -48.5q0 -48 12.5 -82t33.5 -55t47.5 -30.5t54.5 -9.5q38 0 65.5 16.5t47 44t31.5 63.5t19 75.5t9.5 79.5t2.5 75h67l55 -264l42 224h66q0 -24 2 -46.5t10.5 -40t25 -27.5t45.5 -10
h91v-55h-91q-14 0 -31 2t-33 11.5t-30 29t-22 54.5l-45 -235h-58l-54 257q-2 -62 -15 -118t-39 -98t-66 -66.5t-96 -24.5q-44 0 -81.5 16t-65 46t-43 74t-15.5 101q0 36 7 70.5t25 62t48 44t75 16.5q43 0 70 -15t42.5 -40.5t21.5 -59t6 -70.5h-57z" />
    <glyph glyph-name="endash" unicode="&#x2013;" horiz-adv-x="483" 
d="M434 277h-385v80h385v-80z" />
    <glyph glyph-name="emdash" unicode="&#x2014;" horiz-adv-x="690" 
d="M641 277h-592v80h592v-80z" />
    <glyph glyph-name="quoteleft" unicode="&#x2018;" horiz-adv-x="245" 
d="M217 700l-89 -236h-107l108 236h88z" />
    <glyph glyph-name="quoteright" unicode="&#x2019;" horiz-adv-x="245" 
d="M28 464l89 236h109l-109 -236h-89z" />
    <glyph glyph-name="quotesinglbase" unicode="&#x201a;" horiz-adv-x="185" 
d="M1 -123l54 224h102l-73 -224h-83z" />
    <glyph glyph-name="quotedblleft" unicode="&#x201c;" horiz-adv-x="409" 
d="M211 700l-89 -236h-101l108 236h82zM381 700l-89 -236h-100l109 236h80z" />
    <glyph glyph-name="quotedblright" unicode="&#x201d;" horiz-adv-x="409" 
d="M199 464l89 236h102l-109 -236h-82zM28 464l89 236h101l-108 -236h-82z" />
    <glyph glyph-name="quotedblbase" unicode="&#x201e;" horiz-adv-x="351" 
d="M1 -123l54 224h96l-72 -224h-78zM173 -123l55 224h95l-73 -224h-77z" />
    <glyph glyph-name="dagger" unicode="&#x2020;" horiz-adv-x="546" 
d="M224 509v191h100v-191h163v-76h-163v-433h-100v433h-165v76h165z" />
    <glyph glyph-name="daggerdbl" unicode="&#x2021;" horiz-adv-x="546" 
d="M224 509v191h100v-191h163v-76h-163v-166h163v-77h-163v-190h-100v190h-165v77h165v166h-165v76h165z" />
    <glyph glyph-name="bullet" unicode="&#x2022;" horiz-adv-x="398" 
d="M200 194q-25 0 -47.5 9.5t-40 26.5t-27.5 39.5t-10 47.5q0 26 10 48.5t27.5 39t40 26t47.5 9.5t47.5 -9.5t39 -26t26 -39t9.5 -48.5q0 -24 -9.5 -46.5t-26 -39.5t-39 -27t-47.5 -10z" />
    <glyph glyph-name="ellipsis" unicode="&#x2026;" horiz-adv-x="600" 
d="M27 64q0 26 18.5 45.5t50.5 19.5q29 0 47.5 -19.5t18.5 -45.5t-18.5 -45t-47.5 -19q-32 0 -50.5 19t-18.5 45zM233 64q0 26 18.5 45.5t48.5 19.5q31 0 49.5 -19.5t18.5 -45.5t-18.5 -45t-49.5 -19q-30 0 -48.5 19t-18.5 45zM438 64q0 26 18 45.5t49 19.5q30 0 48 -19.5
t18 -45.5t-18 -45t-48 -19q-31 0 -49 19t-18 45z" />
    <glyph glyph-name="perthousand" unicode="&#x2030;" horiz-adv-x="1059" 
d="M37 550q0 36 11 65.5t30.5 50t46 31.5t57.5 11t57.5 -11t46 -31.5t30.5 -50t11 -65.5t-11 -65t-30.5 -49.5t-46 -31.5t-57.5 -11t-57.5 11t-46 31.5t-30.5 49.5t-11 65zM613 700l-414 -700h-90l413 700h91zM104 550q0 -45 21 -70t57 -25q35 0 56 25t21 70t-21 69.5
t-56 24.5q-36 0 -57 -24.5t-21 -69.5zM394 149q0 36 11 65.5t30.5 50t45.5 31.5t57 11q65 0 106 -42.5t41 -115.5q0 -71 -41 -113.5t-106 -42.5q-31 0 -57 11t-45.5 31.5t-30.5 49.5t-11 64zM731 149q0 36 11 65.5t30.5 50t45.5 31.5t57 11q64 0 105 -42.5t41 -115.5
q0 -35 -11 -64t-30.5 -49.5t-46 -31.5t-58.5 -11q-31 0 -57 11t-45.5 31.5t-30.5 49.5t-11 64zM462 149q0 -43 20.5 -68.5t55.5 -25.5q36 0 57.5 25.5t21.5 68.5q0 45 -21.5 70.5t-57.5 25.5q-35 0 -55.5 -25.5t-20.5 -70.5zM798 149q0 -43 21 -68.5t56 -25.5t57 25.5
t22 68.5q0 45 -22 70.5t-57 25.5t-56 -25.5t-21 -70.5z" />
    <glyph glyph-name="guilsinglleft" unicode="&#x2039;" horiz-adv-x="554" 
d="M52 285v65l450 273v-96l-349 -209v-1l349 -208v-95z" />
    <glyph glyph-name="guilsinglright" unicode="&#x203a;" horiz-adv-x="554" 
d="M502 285l-450 -271v95l349 208v1l-349 209v96l450 -273v-65z" />
    <glyph glyph-name="fraction" unicode="&#x2044;" horiz-adv-x="393" 
d="M372 700l-265 -700h-104l267 700h102z" />
    <glyph glyph-name="Euro" unicode="&#x20ac;" horiz-adv-x="743" 
d="M211 406q-5 -53 0 -106h239v-67h-222q20 -75 70 -115.5t125 -40.5q71 0 119 34.5t65 97.5h101q-8 -50 -32.5 -90t-61.5 -68.5t-85.5 -43.5t-105.5 -15q-121 0 -199 63t-104 178h-89v67h77q-8 53 0 106h-77v66h89q28 112 105.5 174t197.5 62q56 0 104 -16t85.5 -45.5
t62 -71t33.5 -91.5h-102q-16 65 -65 103t-118 38q-75 0 -125 -39.5t-70 -113.5h222v-66h-239z" />
    <glyph glyph-name="trademark" unicode="&#x2122;" horiz-adv-x="916" 
d="M376 645h-130v-363h-69v363h-129v55h328v-55zM799 592h-3l-128 -310h-39l-130 310h-2v-310h-70v418h90l130 -323h1l131 323h90v-418h-70v310z" />
    <glyph glyph-name="minus" unicode="&#x2212;" horiz-adv-x="483" 
d="M434 277h-385v80h385v-80z" />
    <glyph glyph-name="uni25CC" unicode="&#x25cc;" horiz-adv-x="553" 
d="M261 503q6 9 19 9q8 0 12 -4q7 -7 8.5 -16.5t-3.5 -16.5q-10 -8 -19 -8q-7 0 -14 5q-8 6 -8.5 15t5.5 16zM383 452q6 9 16 9q8 0 15 -6q8 -6 9.5 -15.5t-5.5 -17.5q-5 -8 -16 -8t-18 7q-14 14 -1 31zM138 452q6 9 17 9q8 0 14 -6q8 -6 9 -15.5t-6 -17.5q-4 -8 -14 -8
q-11 0 -17 7q-15 15 -3 31zM431 330q10 8 19 8q7 0 14 -5t8.5 -15t-5.5 -17q-6 -8 -19 -8q-8 0 -13 4q-7 7 -7.5 16.5t3.5 16.5zM85 330q8 8 19 8q7 0 14 -5q8 -5 8.5 -15t-6.5 -17q-6 -8 -18 -8q-8 0 -13 4q-7 7 -8.5 16.5t4.5 16.5zM383 209q6 9 16 9q8 0 15 -6
q8 -5 9.5 -14.5t-5.5 -16.5q-6 -8 -19 -8q-10 0 -15 4q-7 8 -7 16.5t6 15.5zM138 209q6 9 17 9q8 0 14 -6q8 -5 9 -14.5t-6 -16.5q-5 -8 -17 -8q-9 0 -14 4q-15 17 -3 32zM261 155q6 9 19 9q8 0 12 -4q14 -16 5 -33q-8 -8 -19 -8q-9 0 -14 5q-8 5 -8.5 14.5t5.5 16.5z" />
    <glyph glyph-name="uni0E10.descless" horiz-adv-x="573" 
d="M581 620l-105 -118q24 -24 38.5 -55t14.5 -70q0 -42 -13 -84.5t-35.5 -88t-53 -96t-64.5 -108.5h-130l-107 228q-3 11 -17 11h-64v64h107q33 0 46 -30l91 -200h21q20 37 41.5 75.5t39 76.5t28.5 74t11 67q0 57 -37.5 95t-112.5 38q-52 0 -92 -23.5t-57 -79.5h-96
q9 45 31 80t54.5 58t74.5 35t90 12q77 0 131 -32l65 71h100z" />
    <glyph glyph-name="uni0E0D.descless" horiz-adv-x="939" 
d="M53 143q0 34 11.5 61.5t31 49.5t44.5 37.5t53 25.5l-148 25v8q0 112 62.5 171.5t179.5 59.5q124 0 183 -60t59 -167v-121q0 -45 10 -75.5t27 -49t40 -26.5t50 -8t50 8t40 26.5t27 49t10 75.5v344h101v-361q0 -112 -60.5 -168t-167.5 -56q-106 0 -166.5 56t-60.5 168v129
q0 73 -32.5 114.5t-109.5 41.5q-69 0 -106.5 -34t-42.5 -96l132 -25v-30q-18 -7 -38 -20t-37.5 -32.5t-29 -44.5t-11.5 -55q0 -48 29.5 -70t74.5 -22h29v-72h-58q-34 0 -65.5 7t-56 24t-39.5 44.5t-15 67.5z" />
    <glyph glyph-name="uni0E48.nikhahit" 
d="M-60 908h-87v175h87v-175zM-164 861q48 0 80 -29t32 -77q0 -22 -8.5 -41t-23.5 -33t-35.5 -21.5t-44.5 -7.5q-23 0 -43 7.5t-35 21t-23.5 32.5t-8.5 42q0 48 32.5 77t77.5 29zM-164 705q23 0 37.5 15t14.5 35q0 23 -14.5 37t-37.5 14q-20 0 -35.5 -14t-15.5 -37
q0 -20 15.5 -35t35.5 -15z" />
    <glyph glyph-name="uni0E49.nikhahit" 
d="M-5 966v-58h-185q-26 0 -40.5 6.5t-22 16.5t-9.5 22.5t-2 24.5q0 17 -5.5 27t-22.5 10h-58v55h85q32 0 48 -12.5t16 -49.5q0 -28 8.5 -35t29.5 -7h158zM-164 861q48 0 80 -29t32 -77q0 -22 -8.5 -41t-23.5 -33t-35.5 -21.5t-44.5 -7.5q-23 0 -43 7.5t-35 21t-23.5 32.5
t-8.5 42q0 48 32.5 77t77.5 29zM-164 705q23 0 37.5 15t14.5 35q0 23 -14.5 37t-37.5 14q-20 0 -35.5 -14t-15.5 -37q0 -20 15.5 -35t35.5 -15z" />
    <glyph glyph-name="uni0E4A.nikhahit" 
d="M-367 992q0 40 19.5 66t63.5 26q23 0 45 -11.5t29 -39.5q6 28 27 39.5t44 11.5q42 0 60.5 -24t18.5 -69v-43q19 0 29 9.5t10 32.5v108h61v-106q0 -45 -24 -67t-69 -22h-69v88q0 21 -8.5 29t-25.5 8q-14 0 -25 -9t-11 -32h-36q0 23 -11.5 32t-25.5 9q-35 0 -35 -39
q0 -17 9 -28t35 -11h25v-47h-40q-45 0 -70.5 22.5t-25.5 66.5zM-164 861q48 0 80 -29t32 -77q0 -22 -8.5 -41t-23.5 -33t-35.5 -21.5t-44.5 -7.5q-23 0 -43 7.5t-35 21t-23.5 32.5t-8.5 42q0 48 32.5 77t77.5 29zM-164 705q23 0 37.5 15t14.5 35q0 23 -14.5 37t-37.5 14
q-20 0 -35.5 -14t-15.5 -37q0 -20 15.5 -35t35.5 -15z" />
    <glyph glyph-name="uni0E4B.nikhahit" 
d="M21 977h-86v-69h-78v69h-86v52h86v69h78v-69h86v-52zM-164 861q48 0 80 -29t32 -77q0 -22 -8.5 -41t-23.5 -33t-35.5 -21.5t-44.5 -7.5q-23 0 -43 7.5t-35 21t-23.5 32.5t-8.5 42q0 48 32.5 77t77.5 29zM-164 705q23 0 37.5 15t14.5 35q0 23 -14.5 37t-37.5 14
q-20 0 -35.5 -14t-15.5 -37q0 -20 15.5 -35t35.5 -15z" />
    <glyph glyph-name="uni0E31.upleft" 
d="M-55 736v-63h-213q-49 0 -78.5 10.5t-45 28.5t-20 41.5t-4.5 50.5v13h86v-13q0 -20 3.5 -33.5t13.5 -21t27 -10.5t44 -3h187z" />
    <glyph glyph-name="uni0E34.upleft" 
d="M-55 673h-390v63h390v-63z" />
    <glyph glyph-name="uni0E35.upleft" 
d="M-445 736h300v94h90v-157h-390v63z" />
    <glyph glyph-name="uni0E36.upleft" 
d="M-134 838q41 0 63.5 -21t22.5 -63q0 -39 -22.5 -60t-63.5 -21h-311v63h233q-7 11 -7 24q0 34 21.5 56t63.5 22zM-169 754q0 -15 9.5 -25t25.5 -10q17 0 26 10t9 25q0 36 -35 36q-16 0 -25.5 -9.5t-9.5 -26.5z" />
    <glyph glyph-name="uni0E37.upleft" 
d="M-445 736h190v82h65v-82h70v82h65v-145h-390v63z" />
    <glyph glyph-name="uni0E48.upleft" 
d="M-149 880v209h89v-209h-89z" />
    <glyph glyph-name="uni0E49.upleft" 
d="M-55 943v-63h-179q-27 0 -42 6.5t-23 17t-10 23.5t-2 25q0 18 -6 29t-24 11h-59v61h91q32 0 49 -13.5t17 -51.5q0 -30 8.5 -37.5t31.5 -7.5h148z" />
    <glyph glyph-name="uni0E4A.upleft" 
d="M-433 979q0 44 19.5 73t63.5 29q25 0 44.5 -12.5t30.5 -38.5q9 26 27.5 38.5t44.5 12.5q41 0 57 -24t16 -72v-57q21 0 31.5 9.5t10.5 32.5v128h61v-126q0 -45 -23 -68.5t-71 -23.5h-66v98q0 22 -6.5 33t-25.5 11q-35 0 -35 -48h-39q0 24 -11 36t-27 12q-20 0 -29 -12.5
t-9 -34.5q0 -17 10 -32t37 -15h27v-48h-36q-48 0 -75 27.5t-27 71.5z" />
    <glyph glyph-name="uni0E4B.upleft" 
d="M-11 976h-95v-78h-78v78h-95v53h95v75h78v-75h95v-53z" />
    <glyph glyph-name="uni0E47.upleft" 
d="M-178 786q0 -28 19 -43.5t41 -15.5h48v-63h-33q-30 0 -57 14.5t-39 42.5q-11 -28 -35.5 -42.5t-55.5 -14.5q-47 0 -77 30t-30 84t33 86t101 32h222v-64h-220q-29 0 -45.5 -13t-16.5 -39t15.5 -38.5t32.5 -12.5q21 0 38 14.5t17 42.5h42z" />
    <glyph glyph-name="uni0E48.up2" 
d="M-147 880v176h87v-176h-87z" />
    <glyph glyph-name="uni0E49.up2" 
d="M-22 937v-57h-185q-26 0 -40.5 6.5t-22 16t-9.5 22t-2 24.5q0 18 -5 29t-22 11h-58v55h85q31 0 48 -14t17 -49q0 -29 7.5 -36.5t30.5 -7.5h156z" />
    <glyph glyph-name="uni0E4A.up2" 
d="M-459 962q0 40 19.5 66t63.5 26q25 0 46 -11.5t28 -39.5q8 28 28 39.5t44 11.5q42 0 60 -24t18 -69v-43q20 0 29.5 9.5t9.5 32.5v108h61v-106q0 -45 -24 -67t-69 -22h-69v88q0 21 -8.5 29t-25.5 8q-14 0 -24.5 -9t-10.5 -32h-37q0 23 -11.5 32t-25.5 9q-35 0 -35 -39
q0 -17 9.5 -28t34.5 -11h27v-47h-40q-47 0 -72.5 22.5t-25.5 66.5z" />
    <glyph glyph-name="uni0E4B.up2" 
d="M21 948h-86v-68h-78v68h-86v53h86v68h78v-68h86v-53z" />
    <glyph glyph-name="uni0E4C.upleft" 
d="M-81 919q-27 0 -44 -3t-27 -11.5t-14 -22t-4 -33.5v-11h-84v11q0 27 4.5 51t19.5 42.5t44 29.5t78 11h145v-64h-118z" />
    <glyph glyph-name="uni0E4C.up2" 
d="M-116 893q-26 0 -42.5 -3t-26 -10.5t-13 -20t-3.5 -32.5v-12h-80v12q0 25 4.5 47.5t19 40t42 28t74.5 10.5h138v-60h-113z" />
    </font>
</defs>
</svg>
