<?xml version="1.0" standalone="no"?>
<!DOCTYPE svg PUBLIC "-//W3C//DTD SVG 1.1//EN" "http://www.w3.org/Graphics/SVG/1.1/DTD/svg11.dtd" >
<svg xmlns="http://www.w3.org/2000/svg" xmlns:xlink="http://www.w3.org/1999/xlink" version="1.1">
<metadata>
Created by FontForge 20170731 at Sat Jul 24 06:22:42 2021
 By Aleksey,,,
Copyright (c) 2021 by Fontcraft: Jutipong Poosumas. All rights reserved.
</metadata>
<defs>
<font id="FCSubject-ExtraBold" horiz-adv-x="0" >
  <font-face 
    font-family="FC Subject ExtBd"
    font-weight="800"
    font-stretch="normal"
    units-per-em="1000"
    panose-1="0 0 0 0 0 0 0 0 0 0"
    ascent="800"
    descent="-200"
    x-height="519"
    cap-height="700"
    bbox="-563 -291 1083 1157"
    underline-thickness="50"
    underline-position="-175"
    unicode-range="U+000A-FB02"
  />
<missing-glyph horiz-adv-x="600" 
 />
    <glyph glyph-name="fi" unicode="fi" horiz-adv-x="646" 
d="M410 653q0 38 26 65t74 27q46 0 71.5 -27t25.5 -65t-25.5 -64.5t-71.5 -26.5q-48 0 -74 26.5t-26 64.5zM370 573q-25 3 -43 3t-30 -4.5t-17.5 -14.5t-5.5 -29v-23h82v-117h-82v-388h-180v388h-79v117h79v29q0 47 14 80t39 53.5t58.5 30t73.5 9.5q22 0 44.5 -2.5
t46.5 -7.5v-124zM419 519h180v-519h-180v519z" />
    <glyph glyph-name="fl" unicode="fl" horiz-adv-x="698" 
d="M370 573q-25 3 -43 3t-30 -4.5t-17.5 -14.5t-5.5 -29v-23h82v-117h-82v-388h-180v388h-79v117h79v29q0 47 14 80t39 53.5t58.5 30t73.5 9.5q22 0 44.5 -2.5t46.5 -7.5v-124zM412 700h182v-514q0 -30 15 -43.5t53 -13.5q6 0 11.5 1t12.5 2v-124q-49 -11 -90 -11
q-40 0 -73.5 9.5t-58 30.5t-38.5 54t-14 80v529z" />
    <glyph glyph-name="ru.lakyao" unicode="&#xe24;&#xe32;" horiz-adv-x="938" 
d="M33 141q0 31 12 55.5t33 43t48 30.5t57 18l-156 25v10q0 131 71.5 194.5t200.5 63.5q125 0 199 -51q18 13 42.5 22.5t50 16t50 9.5t42.5 3q43 0 83 -8.5t70.5 -28t48.5 -51.5t18 -78v-615h-182v556q0 16 -4.5 31t-14.5 27t-26 19.5t-39 7.5q-18 0 -33.5 -2t-32.5 -4
q18 -40 18 -91v-544h-182v525q0 51 -26.5 82.5t-81.5 31.5q-45 0 -73.5 -22.5t-33.5 -65.5l108 -23v-42q-32 -16 -56.5 -39.5t-24.5 -58.5q0 -28 17 -46t46 -18h27v-124h-82q-34 0 -69 6.5t-62.5 22t-45 43t-17.5 69.5z" />
    <glyph glyph-name="lu.lakyao" unicode="&#xe26;&#xe32;" horiz-adv-x="942" 
d="M31 323q0 131 71.5 194.5t200.5 63.5q125 0 199 -51q18 13 42.5 22.5t50 16t50 9.5t42.5 3q44 0 83.5 -8.5t70 -28t48.5 -51.5t18 -78v-615h-181v556q0 16 -4.5 31t-14.5 27t-26.5 19.5t-39.5 7.5q-17 0 -33 -2l-32 -4q17 -42 17 -91v-544h-182v525q0 51 -26 82.5
t-82 31.5q-45 0 -73.5 -22.5t-33.5 -65.5l113 -23v-42q-58 -25 -58 -99v-47q0 -72 -39 -106t-119 -34h-77v125h23q41 0 41 49v19q0 38 27 63.5t85 31.5l-161 25v10z" />
    <glyph glyph-name="Fontcraft" unicode="FontcraftLogo" horiz-adv-x="790" 
d="M396 709q69 0 129 -26t105 -71t71 -105.5t26 -129.5t-26 -129.5t-71 -105.5t-105 -71t-129 -26t-129.5 26t-106 71t-71.5 105.5t-26 129.5t26 129.5t71.5 105.5t106 71t129.5 26zM396 104q57 0 106.5 22t86 59t58 87t21.5 105q0 57 -21.5 107t-59 87t-86.5 58t-105 21
q-57 0 -106.5 -21.5t-87 -58.5t-59 -87t-21.5 -106q0 -57 21.5 -106.5t59 -86.5t87 -58.5t106.5 -21.5zM581 500q17 -27 26.5 -57.5t9.5 -65.5q0 -46 -17.5 -87t-48 -71t-70.5 -47.5t-85 -17.5q-47 0 -88 17.5t-71.5 47.5t-48 71t-17.5 87q0 47 17.5 87.5t48 70.5t71.5 47
t88 17q40 0 78 -14t67 -39l-40 -180q-7 -29 -16.5 -40.5t-29.5 -11.5q-17 0 -27 8t-7 28l16 76q1 8 -4 15.5t-20 7.5q-20 0 -25 -20l-16 -73q-3 -15 -14 -30.5t-36 -15.5q-13 0 -20.5 9.5t-2.5 34.5l13 65q3 20 -9.5 26.5t-32.5 6.5q-26 0 -34 -8t-8 -18q0 -11 5.5 -19
t15.5 -8h7l-7 -37q-4 -20 -2.5 -38t10 -32t25 -22t40.5 -8q18 0 36.5 8t29.5 31q3 -11 10 -18.5t17 -12t20.5 -6.5t19.5 -2q22 0 37.5 7.5t26 19t17 26t9.5 29.5zM200 -26l-9 -52q-3 -14 -12 -20.5t-21 -6.5t-18.5 6.5t-4.5 20.5l9 52q7 28 33 28q12 0 18.5 -7.5t4.5 -20.5z
M400 -79l1 7h20l-1 -6q-2 -14 -11 -20.5t-21 -6.5t-18.5 6.5t-4.5 20.5l9 52q7 28 33 28q11 0 17.5 -6.5t4.5 -19.5q0 -2 -2 -8l-20 -1q1 3 1 7q2 10 -4 10q-5 0 -6 -2.5t-2 -7.5l-11 -53q0 -3 1.5 -6t4.5 -3q5 0 6.5 3t2.5 6zM79 0h50l-4 -17h-29l-4 -26h24l-4 -16h-23
l-9 -45h-20zM264 0h21l-18 -104h-21l-6 67l-12 -67h-18l17 104h23l3 -53v-13h1q0 5 1 8.5t2 8.5zM305 0h55l-3 -17h-18l-14 -87h-22l16 87h-17zM504 -29v-3q-4 -16 -16 -21l3 -51h-22v47h-4l-8 -47h-20l18 104h28q12 0 18 -6t3 -23zM545 0h25l3 -104h-23l1 23h-16l-7 -23
h-20zM609 0h50l-3 -17h-30l-4 -26h24l-3 -16h-24l-9 -45h-20zM675 0h55l-3 -17h-16l-16 -87h-22l16 87h-17zM169 -79l11 53q0 10 -6 10q-7 0 -9 -10l-10 -53q0 -3 1.5 -6t4.5 -3q5 0 6.5 3t1.5 6zM472 -16l-4 -26h5q5 0 7 3.5t3 6.5l2 5q0 5 -1 8t-6 3h-6zM542 -62h9l1 30z
" />
    <glyph glyph-name=".notdef" horiz-adv-x="600" 
 />
    <glyph glyph-name=".null" 
 />
    <glyph glyph-name=".null" 
 />
    <glyph glyph-name="uni000D" unicode="&#xd;" horiz-adv-x="250" 
 />
    <glyph glyph-name="uni000A" unicode="&#xa;" horiz-adv-x="300" 
 />
    <glyph glyph-name="space" unicode=" " horiz-adv-x="300" 
 />
    <glyph glyph-name="exclam" unicode="!" horiz-adv-x="304" 
d="M61 457v243h182v-243l-11 -205h-159zM153 195q50 0 77 -28.5t27 -69.5t-27 -69t-77 -28q-51 0 -78 28t-27 69t27 69.5t78 28.5z" />
    <glyph glyph-name="quotedbl" unicode="&#x22;" horiz-adv-x="420" 
d="M34 700h150l-11 -263h-129zM237 700h150l-10 -263h-129z" />
    <glyph glyph-name="numbersign" unicode="#" horiz-adv-x="700" 
d="M110 172h-96v106h118l28 137h-100v106h123l37 179h160l-38 -179h94l37 179h159l-37 -179h91v-106h-114l-28 -137h96v-106h-118l-35 -172h-158l35 172h-94l-35 -172h-161zM385 278l28 137h-94l-28 -137h94z" />
    <glyph glyph-name="dollar" unicode="$" horiz-adv-x="637" 
d="M201 219q5 -38 34.5 -60.5t80.5 -22.5t79 17.5t28 49.5q0 15 -5 25t-18 17.5t-34 14t-53 12.5l-69 14q-106 21 -161 71t-55 131q0 43 15 78.5t42 62.5t64.5 45.5t83.5 26.5v97h157v-97q101 -17 153.5 -76t53.5 -143h-178q-2 37 -29.5 60.5t-75.5 23.5t-73 -17.5
t-25 -46.5q0 -28 24.5 -44.5t81.5 -26.5l71 -14q112 -20 167 -67t55 -130q0 -91 -59.5 -149t-165.5 -73v-102h-157v103q-98 17 -153.5 74t-56.5 146h178z" />
    <glyph glyph-name="percent" unicode="%" horiz-adv-x="766" 
d="M23 548q0 37 13 66.5t34.5 50.5t50.5 32t61 11t61 -11t50.5 -32t34.5 -50.5t13 -66.5t-13 -66.5t-34.5 -50t-50.5 -31.5t-61 -11t-61 11t-50.5 31.5t-34.5 50t-13 66.5zM667 700l-414 -700h-152l413 700h153zM134 548q0 -27 12.5 -42.5t35.5 -15.5q21 0 34 15.5t13 42.5
t-13 42.5t-34 15.5q-23 0 -35.5 -15.5t-12.5 -42.5zM426 151q0 37 12.5 66.5t34.5 50.5t50.5 32t60.5 11t61 -11t51 -32t34.5 -50.5t12.5 -66.5q0 -36 -12.5 -65.5t-34.5 -50.5t-51 -32t-61 -11t-60.5 11t-50.5 32t-34.5 50.5t-12.5 65.5zM536 151q0 -26 12.5 -42t35.5 -16
q21 0 34 16t13 42q0 27 -13 43t-34 16q-23 0 -35.5 -16t-12.5 -43z" />
    <glyph glyph-name="ampersand" unicode="&#x26;" horiz-adv-x="710" 
d="M269 -8q-116 0 -175.5 49t-59.5 140q0 57 28 104t82 75l32 16q-25 25 -40 47t-23.5 42t-11.5 39t-3 38q0 36 13.5 66.5t40 52.5t65.5 34.5t89 12.5q51 0 89 -13.5t63.5 -36.5t38.5 -54.5t13 -67.5q0 -54 -28.5 -99t-97.5 -83l92 -102q8 12 15 35.5t10 42.5h145
q-1 -23 -6 -49.5t-13 -52t-18.5 -48.5t-23.5 -39l138 -141h-187l-54 53q-35 -30 -91 -45.5t-122 -15.5zM246 531q0 -20 10 -39.5t43 -49.5q36 18 51.5 40.5t15.5 48.5q0 29 -15.5 45t-42.5 16q-29 0 -45.5 -16t-16.5 -45zM289 116q32 0 53 10.5t38 26.5l-118 128
q-5 -2 -11.5 -4.5t-10.5 -4.5q-29 -18 -35 -41.5t-6 -43.5q0 -12 5 -24.5t16 -23t28 -17t41 -6.5z" />
    <glyph glyph-name="quotesingle" unicode="'" horiz-adv-x="217" 
d="M34 700h150l-11 -263h-129z" />
    <glyph glyph-name="parenleft" unicode="(" horiz-adv-x="354" 
d="M349 740q-27 -39 -49 -87t-37 -101.5t-23.5 -110t-8.5 -112.5t8.5 -113t23.5 -110.5t37 -101.5t49 -86h-162q-60 82 -93 187t-33 224q0 118 33 222.5t93 188.5h162z" />
    <glyph glyph-name="parenright" unicode=")" horiz-adv-x="354" 
d="M167 740q60 -84 93 -188.5t33 -222.5q0 -119 -33 -224t-93 -187h-162q27 38 49 86t37 101.5t23.5 110.5t8.5 113t-8.5 112.5t-23.5 110t-37 101.5t-49 87h162z" />
    <glyph glyph-name="asterisk" unicode="*" horiz-adv-x="385" 
d="M274 505l63 -80l-88 -64l-57 84l-55 -84l-88 64l62 80l-97 27l33 103l95 -35l-3 101h108l-4 -101l95 35l34 -103z" />
    <glyph glyph-name="plus" unicode="+" horiz-adv-x="592" 
d="M216 247h-179v140h179v154h161v-154h178v-140h-178v-154h-161v154z" />
    <glyph glyph-name="comma" unicode="," horiz-adv-x="233" 
d="M-11 -123l55 242h173l-80 -242h-148z" />
    <glyph glyph-name="hyphen" unicode="-" horiz-adv-x="493" 
d="M456 247h-419v140h419v-140z" />
    <glyph glyph-name="period" unicode="." horiz-adv-x="243" 
d="M122 0q-51 0 -78 29t-27 68q0 40 27 69t78 29q50 0 77 -29t27 -69q0 -39 -27 -68t-77 -29z" />
    <glyph glyph-name="slash" unicode="/" horiz-adv-x="450" 
d="M444 700l-255 -700h-186l257 700h184z" />
    <glyph glyph-name="zero" unicode="0" horiz-adv-x="657" 
d="M329 -6q-70 0 -127.5 23.5t-97.5 69t-62 112t-22 153.5t22 153.5t62.5 111.5t97.5 68t127 23t126.5 -23t97 -68t62.5 -111.5t22 -153.5t-22 -153.5t-62 -112t-97 -69t-127 -23.5zM329 142q27 0 48.5 11.5t36.5 36.5t23 65t8 97q0 58 -8 97.5t-23 64t-36.5 35.5t-48.5 11
t-48.5 -11t-36.5 -35.5t-23 -64t-8 -97.5q0 -57 8 -97t23 -65t36.5 -36.5t48.5 -11.5z" />
    <glyph glyph-name="one" unicode="1" horiz-adv-x="458" 
d="M221 700h138v-700h-185v546l-165 -60v134z" />
    <glyph glyph-name="two" unicode="2" horiz-adv-x="583" 
d="M289 145v-4h264v-141h-526v103q55 53 103 100q21 20 42.5 41t41 40t36 35t27.5 26q32 32 51.5 53.5t30 38t14.5 29t4 24.5q0 37 -21 58.5t-71 21.5q-29 0 -48 -9.5t-30 -25t-15.5 -36t-4.5 -42.5h-166q0 49 13.5 94.5t44.5 80t81.5 55.5t124.5 21q68 0 118 -15.5
t82.5 -43t48.5 -65.5t16 -82q0 -35 -5.5 -60.5t-20.5 -50.5t-41 -53.5t-67 -69.5z" />
    <glyph glyph-name="three" unicode="3" horiz-adv-x="626" 
d="M474 362q55 -14 90 -54.5t35 -112.5q0 -36 -15.5 -72.5t-50 -65.5t-90 -47t-136.5 -18q-70 0 -123 21t-87.5 55.5t-52 80.5t-17.5 95h171q0 -16 7 -35t21 -35.5t34.5 -27t47.5 -10.5q48 0 77.5 20t29.5 69q0 38 -29 53t-73 15h-60v123h58q40 0 67 21.5t27 55.5
q0 42 -26 61t-69 19q-51 0 -77.5 -34t-26.5 -82h-165q0 56 17.5 102t51 79t83.5 51.5t115 18.5q71 0 122.5 -15.5t85 -40.5t50 -57.5t16.5 -67.5q0 -36 -7.5 -62.5t-22 -45.5t-34.5 -32t-44 -22v-3z" />
    <glyph glyph-name="four" unicode="4" horiz-adv-x="614" 
d="M340 125h-331v118l350 457h159v-434h88v-141h-81v-125h-185v125zM350 469l-156 -208h156v208z" />
    <glyph glyph-name="five" unicode="5" horiz-adv-x="621" 
d="M199 244q0 -16 6 -35t19.5 -35.5t34 -27t49.5 -10.5q49 0 81 28.5t32 79.5q0 50 -29 80t-77 30q-40 0 -63.5 -10t-43.5 -30h-169l39 386h473v-140h-330l-18 -146h3q29 35 69 49t97 14q49 0 90 -17t70 -47t45.5 -72t16.5 -92q0 -52 -15.5 -99t-50 -82t-90.5 -55.5
t-137 -20.5q-70 0 -121.5 21t-85.5 55.5t-50.5 80.5t-16.5 95h172z" />
    <glyph glyph-name="six" unicode="6" horiz-adv-x="638" 
d="M389 477q51 0 92.5 -17t71 -47.5t45.5 -72.5t16 -91q0 -56 -21.5 -103t-60 -81.5t-90.5 -53.5t-113 -19q-73 0 -130 25.5t-96 73t-59 116t-20 153.5q0 86 23.5 151t65 109t97.5 66t121 22q57 0 105 -14.5t84.5 -41t59.5 -64t29 -83.5h-180q-11 35 -35 49t-63 14
q-71 0 -104 -50.5t-33 -133.5h2q29 51 74.5 72t118.5 21zM324 136q24 0 44.5 8.5t35.5 23.5t23.5 35t8.5 42q0 24 -8.5 44t-23 34.5t-34.5 22.5t-43 8q-24 0 -44.5 -8.5t-35.5 -23t-23.5 -34t-8.5 -42.5q0 -24 8.5 -44t23.5 -34.5t35 -23t42 -8.5z" />
    <glyph glyph-name="seven" unicode="7" horiz-adv-x="561" 
d="M550 700v-111l-231 -589h-207l233 560h-334v140h539z" />
    <glyph glyph-name="eight" unicode="8" horiz-adv-x="626" 
d="M315 -8q-81 0 -136.5 18t-90 47t-49.5 65.5t-15 73.5q0 71 35 112t90 56v3q-52 19 -77 60.5t-25 100.5q0 32 15.5 64.5t48 58t83.5 41.5t121 16t120.5 -16t83 -41.5t48 -58t15.5 -64.5q0 -58 -25 -99.5t-78 -61.5v-3q54 -15 89 -56t35 -112q0 -37 -14.5 -73.5
t-48.5 -65.5t-89 -47t-136 -18zM315 422q41 0 69.5 23.5t28.5 58.5q0 37 -28 61t-70 24t-70 -24t-28 -61q0 -35 28.5 -58.5t69.5 -23.5zM315 125q23 0 43.5 8t35.5 21.5t23.5 31.5t8.5 38t-8.5 36.5t-23.5 29.5t-35.5 20t-43.5 7q-24 0 -44 -7t-35 -20t-23.5 -29.5
t-8.5 -36.5t8.5 -38t23.5 -31.5t35 -21.5t44 -8z" />
    <glyph glyph-name="nine" unicode="9" horiz-adv-x="637" 
d="M29 195h180q11 -34 35 -48.5t63 -14.5q71 0 104 51t33 134h-2q-28 -50 -73.5 -71.5t-117.5 -21.5q-52 0 -94 17t-71.5 47.5t-45.5 72.5t-16 91q0 56 21.5 103t60 81t90.5 53t113 19q74 0 130.5 -25.5t95.5 -73t59 -115.5t20 -154q0 -85 -23.5 -150.5t-64.5 -109
t-97.5 -66t-121.5 -22.5q-57 0 -105 14.5t-84.5 41t-59.5 64t-29 83.5zM312 346q23 0 43.5 8.5t35.5 23.5t23.5 35t8.5 42q0 48 -31.5 79t-78.5 31q-23 0 -43.5 -8.5t-35.5 -23t-23.5 -34.5t-8.5 -43q0 -48 31.5 -79t78.5 -31z" />
    <glyph glyph-name="colon" unicode=":" horiz-adv-x="311" 
d="M156 326q-51 0 -78 28t-27 69t27 69.5t78 28.5q50 0 77.5 -28.5t27.5 -69.5t-27.5 -69t-77.5 -28zM156 0q-51 0 -78 28t-27 69t27 69.5t78 28.5q50 0 77.5 -28.5t27.5 -69.5t-27.5 -69t-77.5 -28z" />
    <glyph glyph-name="semicolon" unicode=";" horiz-adv-x="311" 
d="M51 423q0 41 27 69.5t78 28.5q50 0 77.5 -28.5t27.5 -69.5t-27.5 -69t-77.5 -28q-51 0 -78 28t-27 69zM30 -123l54 242h173l-80 -242h-147z" />
    <glyph glyph-name="less" unicode="&#x3c;" horiz-adv-x="537" 
d="M44 271v93l450 273v-172l-262 -147v-1l262 -146v-172z" />
    <glyph glyph-name="equal" unicode="=" horiz-adv-x="522" 
d="M37 488h448v-134h-448v134zM37 278h448v-134h-448v134z" />
    <glyph glyph-name="greater" unicode="&#x3e;" horiz-adv-x="537" 
d="M494 271l-450 -272v172l261 146v1l-261 147v172l450 -273v-93z" />
    <glyph glyph-name="question" unicode="?" horiz-adv-x="571" 
d="M34 477q2 47 17.5 88.5t45.5 73.5t76 50.5t109 18.5q68 0 116.5 -13t79.5 -38t45.5 -60.5t14.5 -79.5q0 -36 -11 -63t-28 -47.5t-36 -37t-36 -33t-28 -33.5t-11 -40v-11h-194v16q0 31 12.5 54.5t31.5 43t41.5 35.5t41.5 32t31.5 33.5t12.5 38.5q0 29 -18.5 47t-60.5 18
q-38 0 -59 -27.5t-26 -65.5h-167zM293 0q-51 0 -78 28t-27 69t27 69.5t78 28.5q50 0 77 -28.5t27 -69.5t-27 -69t-77 -28z" />
    <glyph glyph-name="at" unicode="@" horiz-adv-x="850" 
d="M548 -89q-30 -3 -57 -5t-53 -2q-93 0 -169.5 25t-132 73t-86 118.5t-30.5 162.5q0 87 30.5 157.5t85 121t130.5 78t167 27.5q76 0 147.5 -23t127 -67.5t89 -110t33.5 -151.5q0 -66 -13.5 -111.5t-37.5 -74.5t-56.5 -42t-70.5 -13q-35 0 -69 17.5t-50 49.5h-2
q-9 -16 -23 -27t-31 -18t-35.5 -10t-35.5 -3q-38 0 -72 11t-59 34t-39.5 60t-14.5 88q0 42 11 78t34 62.5t58 41.5t82 15q27 0 57.5 -11.5t46.5 -32.5h2v39h102v-242q0 -29 10 -38t18 -9q27 0 42 31.5t15 104.5q0 55 -18.5 98.5t-53.5 74t-84.5 47t-112.5 16.5
q-60 0 -111 -18t-88.5 -52.5t-58.5 -84.5t-21 -113q0 -64 20 -112.5t57.5 -81.5t91 -49.5t120.5 -16.5q23 0 48.5 1.5t59.5 6.5v-120zM421 190q33 0 53 21.5t20 68.5q0 45 -19 66t-54 21t-56 -23t-21 -68q0 -16 4.5 -31.5t14 -27.5t24 -19.5t34.5 -7.5z" />
    <glyph glyph-name="A" unicode="A" horiz-adv-x="697" 
d="M230 700h239l233 -700h-198l-39 137h-233l-39 -137h-198zM429 269l-78 272h-3l-79 -272h160z" />
    <glyph glyph-name="B" unicode="B" horiz-adv-x="661" 
d="M41 700h335q107 0 167 -44t60 -125q0 -31 -8.5 -59.5t-25 -51.5t-40 -38t-54.5 -20v-3q36 -1 65.5 -15t50.5 -36.5t32.5 -53t11.5 -65.5q0 -46 -17.5 -81t-49.5 -59t-77.5 -36.5t-101.5 -12.5h-348v700zM226 412h99q45 0 69 18.5t24 54.5q0 76 -91 76h-101v-149zM334 141
q54 0 81 17t27 59q0 43 -27.5 60t-80.5 17h-108v-153h108z" />
    <glyph glyph-name="C" unicode="C" horiz-adv-x="706" 
d="M27 352q0 86 24 152t68 111.5t107.5 69t142.5 23.5q63 0 117.5 -17.5t96.5 -50.5t68.5 -79.5t33.5 -103.5h-186q-12 51 -45.5 78t-84.5 27q-71 0 -112 -54.5t-41 -155.5q0 -103 40.5 -157t112.5 -54q51 0 84.5 25.5t47.5 76.5h185q-6 -57 -32 -103.5t-68 -79.5t-97 -50.5
t-120 -17.5q-79 0 -142.5 24t-108 70t-68 113t-23.5 153z" />
    <glyph glyph-name="D" unicode="D" horiz-adv-x="692" 
d="M41 700h276q80 0 144.5 -22t109.5 -65.5t69.5 -108t24.5 -148.5t-24.5 -150.5t-69.5 -112t-109.5 -69.5t-144.5 -24h-276v700zM291 141q85 0 130.5 55.5t45.5 159.5q0 96 -46.5 150t-129.5 54h-65v-419h65z" />
    <glyph glyph-name="E" unicode="E" horiz-adv-x="596" 
d="M226 560v-139h279v-140h-279v-140h336v-141h-521v700h521v-140h-336z" />
    <glyph glyph-name="F" unicode="F" horiz-adv-x="589" 
d="M226 560v-139h279v-140h-279v-281h-185v700h521v-140h-336z" />
    <glyph glyph-name="G" unicode="G" horiz-adv-x="718" 
d="M385 385h304v-77q0 -26 -4 -60t-15.5 -69t-33 -68.5t-56.5 -60t-85.5 -42.5t-119.5 -16q-81 0 -145.5 24t-109.5 70t-69 113t-24 153t24 152t67.5 111.5t106 69t138.5 23.5q66 0 123 -17.5t100.5 -50.5t70.5 -79.5t34 -103.5h-185q-12 51 -48 78t-86 27
q-72 0 -114.5 -54.5t-42.5 -156.5t43 -156t118 -54q54 0 88.5 26t34.5 79v7h-114v132z" />
    <glyph glyph-name="H" unicode="H" horiz-adv-x="721" 
d="M680 700v-700h-185v281h-269v-281h-185v700h185v-279h269v279h185z" />
    <glyph glyph-name="I" unicode="I" horiz-adv-x="280" 
d="M48 700h185v-700h-185v700z" />
    <glyph glyph-name="J" unicode="J" horiz-adv-x="581" 
d="M536 700v-460q0 -121 -69.5 -184.5t-194.5 -63.5q-60 0 -109 17.5t-83.5 49.5t-53.5 79t-19 105h182q0 -45 21.5 -70t59.5 -25q39 0 60 23t21 70v459h185z" />
    <glyph glyph-name="K" unicode="K" horiz-adv-x="702" 
d="M510 311q8 -13 20.5 -34t27.5 -45.5t31 -51t31 -52.5q36 -60 76 -128h-204q-27 48 -52 90q-21 37 -42.5 74t-35.5 57q-16 23 -35.5 39.5t-48.5 23.5l-52 -54v-230h-185v700h185v-250l237 250h216l-297 -309q36 -7 70.5 -25.5t57.5 -54.5z" />
    <glyph glyph-name="L" unicode="L" horiz-adv-x="532" 
d="M41 700h185v-559h300v-141h-485v700z" />
    <glyph glyph-name="M" unicode="M" horiz-adv-x="882" 
d="M41 700h232l167 -421h4l165 421h233v-700h-182v434h-3l-172 -434h-87l-173 434h-5v-434h-179v700z" />
    <glyph glyph-name="N" unicode="N" horiz-adv-x="710" 
d="M41 700h162l281 -400h4v400h181v-700h-159l-284 408h-4v-408h-181v700z" />
    <glyph glyph-name="O" unicode="O" horiz-adv-x="735" 
d="M368 -8q-80 0 -144.5 24.5t-109.5 71t-69.5 113t-24.5 150.5t24.5 150.5t69.5 112t109.5 70t144.5 24.5t144.5 -24.5t109.5 -70t69 -112t24 -150.5t-24 -150.5t-69 -113t-109.5 -71t-144.5 -24.5zM368 145q72 0 113 53.5t41 152.5q0 100 -41 152t-113 52t-113 -52
t-41 -152q0 -99 41 -152.5t113 -53.5z" />
    <glyph glyph-name="P" unicode="P" horiz-adv-x="612" 
d="M592 485q0 -99 -60 -156.5t-166 -57.5h-140v-271h-185v700h326q105 0 165 -57.5t60 -157.5zM329 412q43 0 67 19t24 54q0 36 -23.5 55.5t-67.5 19.5h-103v-148h103z" />
    <glyph glyph-name="Q" unicode="Q" horiz-adv-x="735" 
d="M298 -3q-65 10 -116.5 39t-87.5 74t-55 106t-19 135q0 84 24.5 150.5t69.5 112t109.5 70t144.5 24.5t144.5 -24.5t109.5 -70t69 -112t24 -150.5q0 -75 -19.5 -136.5t-56 -107t-89.5 -74t-119 -37.5q26 -50 126 -50h50v-130h-57q-43 0 -85 10.5t-77 33t-59 56.5t-31 81z
M368 145q72 0 113 53.5t41 152.5q0 100 -41 152t-113 52t-113 -52t-41 -152q0 -99 41 -152.5t113 -53.5z" />
    <glyph glyph-name="R" unicode="R" horiz-adv-x="647" 
d="M429 0l-139 271h-64v-271h-185v700h329q106 0 166 -57.5t60 -157.5q0 -72 -34.5 -122.5t-102.5 -68.5l167 -294h-197zM226 412h106q44 0 67 19t23 54q0 36 -23 55.5t-67 19.5h-106v-148z" />
    <glyph glyph-name="S" unicode="S" horiz-adv-x="637" 
d="M201 219q5 -38 34.5 -60.5t80.5 -22.5t79 17.5t28 49.5q0 15 -5 25t-18 17.5t-34 14t-53 12.5l-69 14q-106 21 -161 71t-55 131q0 51 21.5 92t59.5 69.5t89.5 43.5t112.5 15q69 0 122 -16.5t89 -46.5t55 -71.5t20 -91.5h-178q-2 37 -29.5 60.5t-75.5 23.5t-73 -17.5
t-25 -46.5q0 -28 24.5 -44.5t81.5 -26.5l71 -14q112 -20 167 -67t55 -130q0 -53 -20.5 -95.5t-59.5 -72t-95 -45t-127 -15.5q-66 0 -119.5 15.5t-91 45t-58.5 71.5t-21 95h178z" />
    <glyph glyph-name="T" unicode="T" horiz-adv-x="576" 
d="M569 560h-188v-560h-186v560h-188v140h562v-140z" />
    <glyph glyph-name="U" unicode="U" horiz-adv-x="687" 
d="M226 270q0 -62 31 -93t88 -31q56 0 86 31t30 93v431h185v-451q0 -60 -21.5 -107.5t-61 -81t-95 -51.5t-123.5 -18q-69 0 -125 18t-95.5 51.5t-61.5 81t-22 107.5v451h185v-431z" />
    <glyph glyph-name="V" unicode="V" horiz-adv-x="699" 
d="M230 0l-235 700h198l156 -532h3l154 532h198l-235 -700h-239z" />
    <glyph glyph-name="W" unicode="W" horiz-adv-x="955" 
d="M3 700h192l91 -459h4l115 459h144l115 -459h5l91 459h192l-173 -700h-184l-116 442h-4l-115 -442h-184z" />
    <glyph glyph-name="X" unicode="X" horiz-adv-x="674" 
d="M212 351l-207 349h217l114 -235h4l114 235h216l-206 -349l206 -351h-216l-114 237h-4l-115 -237h-216z" />
    <glyph glyph-name="Y" unicode="Y" horiz-adv-x="657" 
d="M422 286v-286h-185v286l-241 414h216l115 -234h4l115 234h215z" />
    <glyph glyph-name="Z" unicode="Z" horiz-adv-x="615" 
d="M582 141v-141h-548v118l317 438v4h-313v140h534v-117l-308 -440v-2h318z" />
    <glyph glyph-name="bracketleft" unicode="[" horiz-adv-x="407" 
d="M253 621v-585h141v-118h-305v822h305v-119h-141z" />
    <glyph glyph-name="backslash" unicode="\" horiz-adv-x="450" 
d="M447 0h-185l-255 700h184z" />
    <glyph glyph-name="bracketright" unicode="]" horiz-adv-x="407" 
d="M14 740h305v-822h-305v118h140v585h-140v119z" />
    <glyph glyph-name="asciicircum" unicode="^" horiz-adv-x="447" 
d="M430 457h-147l-59 101h-4l-58 -101h-145l148 243h116z" />
    <glyph glyph-name="underscore" unicode="_" horiz-adv-x="590" 
d="M573 -147h-556v129h556v-129z" />
    <glyph glyph-name="grave" unicode="`" horiz-adv-x="305" 
d="M288 437h-155l-137 264h184z" />
    <glyph glyph-name="a" unicode="a" horiz-adv-x="582" 
d="M300 526q57 0 102.5 -13t77.5 -37t49 -57.5t17 -74.5v-344h-174v77h-3q-10 -21 -28.5 -36.5t-41.5 -26.5t-48.5 -16.5t-50.5 -5.5q-36 0 -68.5 11t-56.5 31.5t-38 49.5t-14 65q0 77 55.5 118t161.5 47l124 8v13q0 32 -19 49t-54 17q-30 0 -51.5 -11.5t-26.5 -33.5h-163
q10 78 75.5 124t174.5 46zM364 224l-95 -6q-34 -2 -50.5 -17t-16.5 -38q0 -26 19 -38.5t45 -12.5q19 0 37 7.5t31.5 20t21.5 28.5t8 34v22z" />
    <glyph glyph-name="b" unicode="b" horiz-adv-x="610" 
d="M374 526q48 0 88 -17.5t69 -51t45 -82.5t16 -113q0 -67 -17 -117.5t-46.5 -84.5t-68 -51t-82.5 -17q-53 0 -97.5 21.5t-67.5 53.5h-2v-67h-174v700h181v-252h2q56 78 154 78zM314 131q47 0 73.5 32.5t26.5 95.5q0 61 -27.5 94.5t-72.5 33.5q-47 0 -74 -33.5t-27 -95.5
q0 -63 27 -95t74 -32z" />
    <glyph glyph-name="c" unicode="c" horiz-adv-x="567" 
d="M547 182q-10 -94 -75.5 -142t-174.5 -48q-128 0 -199 67.5t-71 199.5q0 131 71.5 199t197.5 68q107 0 174 -49t77 -144h-168q-8 31 -29.5 44.5t-49.5 13.5q-40 0 -66 -34.5t-26 -97.5t26 -97.5t66 -34.5q28 0 50 13t29 42h168z" />
    <glyph glyph-name="d" unicode="d" horiz-adv-x="610" 
d="M236 526q99 0 154 -78h2v252h181v-700h-173v67h-3q-23 -32 -67.5 -53.5t-96.5 -21.5q-44 0 -83 17t-68 51t-46 84.5t-17 117.5q0 64 16 113t44.5 82.5t68.5 51t88 17.5zM296 131q47 0 74 32t27 95q0 62 -27 95.5t-74 33.5q-45 0 -72.5 -33.5t-27.5 -94.5
q0 -63 27.5 -95.5t72.5 -32.5z" />
    <glyph glyph-name="e" unicode="e" horiz-adv-x="578" 
d="M552 222h-351q4 -44 32.5 -69.5t66.5 -25.5q29 0 51.5 13t31.5 42h166q-9 -95 -75 -142.5t-177 -47.5q-128 0 -199 68.5t-71 199.5q0 63 19 112.5t54.5 83t85 51.5t110.5 19q126 -2 191 -72.5t65 -191.5v-40zM296 395q-36 0 -60 -21.5t-32 -56.5h181q-6 34 -30 56t-59 22
z" />
    <glyph glyph-name="f" unicode="f" horiz-adv-x="370" 
d="M370 573q-25 3 -43 3t-30 -4.5t-17.5 -14.5t-5.5 -29v-23h82v-117h-82v-388h-180v388h-79v117h79v29q0 47 14 80t39 53.5t58.5 30t73.5 9.5q22 0 44.5 -2.5t46.5 -7.5v-124z" />
    <glyph glyph-name="g" unicode="g" horiz-adv-x="611" 
d="M575 519v-494q0 -53 -20.5 -92t-57 -64.5t-86.5 -38.5t-108 -13q-52 0 -97 10.5t-79.5 31.5t-58 53.5t-32.5 76.5h162q11 -24 36.5 -35.5t62.5 -11.5q46 0 71.5 21t25.5 71v66h-2q-23 -42 -60.5 -59.5t-84.5 -17.5q-50 0 -92 17.5t-72 49.5t-47 79t-17 105q0 61 18 108
t49 79t72.5 48.5t87.5 16.5q23 0 46 -4t44 -13t37.5 -23t26.5 -33h1v66h174zM298 162q46 0 73 29.5t27 83.5q0 51 -27 82t-73 31t-73.5 -30t-27.5 -84q0 -51 27.5 -81.5t73.5 -30.5z" />
    <glyph glyph-name="h" unicode="h" horiz-adv-x="604" 
d="M382 526q90 0 137.5 -49.5t47.5 -149.5v-327h-178v289q0 47 -21.5 73t-64.5 26q-40 0 -63.5 -30t-23.5 -75v-283h-179v700h174v-278h2q21 59 63.5 81.5t105.5 22.5z" />
    <glyph glyph-name="i" unicode="i" horiz-adv-x="277" 
d="M140 562q-48 0 -74 26.5t-26 64.5t26 65t74 27q47 0 72.5 -27t25.5 -65t-25.5 -64.5t-72.5 -26.5zM48 519h181v-519h-181v519z" />
    <glyph glyph-name="j" unicode="j" horiz-adv-x="277" 
d="M140 562q-48 0 -74 26.5t-26 64.5t26 65t74 27q47 0 72.5 -27t25.5 -65t-25.5 -64.5t-72.5 -26.5zM229 519v-529q0 -47 -14 -80t-39 -53.5t-59 -30t-74 -9.5q-22 0 -44.5 2.5t-46.5 7.5v124q50 -5 73.5 1.5t23.5 41.5v525h180z" />
    <glyph glyph-name="k" unicode="k" horiz-adv-x="603" 
d="M598 0h-198l-92 161q-10 18 -21.5 28.5t-28.5 14.5l-41 -40v-164h-180v700h180v-348l156 167h209l-226 -219q28 -4 53.5 -15.5t41.5 -37.5z" />
    <glyph glyph-name="l" unicode="l" horiz-adv-x="340" 
d="M54 700h181v-514q0 -31 16 -43.5t52 -12.5q5 0 11 0.5t14 1.5v-124q-24 -5 -47 -7.5t-44 -2.5q-39 0 -72.5 9.5t-58 30t-38.5 53.5t-14 80v529z" />
    <glyph glyph-name="m" unicode="m" horiz-adv-x="906" 
d="M695 526q89 0 132 -49t43 -145v-332h-180v293q0 44 -16 70t-57 26q-38 0 -56 -28.5t-18 -70.5v-290h-179v293q0 44 -16.5 70t-56.5 26q-39 0 -57 -28.5t-18 -71.5v-289h-179v519h174v-94h2q20 57 57 79t98 22q63 0 103 -26t57 -76h1q24 57 64 79.5t102 22.5z" />
    <glyph glyph-name="n" unicode="n" horiz-adv-x="605" 
d="M382 526q90 0 138.5 -49.5t48.5 -149.5v-327h-180v289q0 47 -21.5 73t-64.5 26q-40 0 -63.5 -30t-23.5 -75v-283h-179v519h174v-97h1q20 58 63.5 81t106.5 23z" />
    <glyph glyph-name="o" unicode="o" horiz-adv-x="586" 
d="M293 526q63 0 114 -17t87 -51t55.5 -84t19.5 -115t-19.5 -115t-55.5 -83.5t-87 -51t-114 -17.5t-114 17.5t-87 51t-55 83.5t-19 115q0 131 74 199t201 68zM293 127q19 0 37 8t32.5 24.5t23 41t8.5 58.5t-8.5 59t-23 41.5t-32.5 24.5t-37 8t-37 -8t-32 -24.5t-22.5 -41.5
t-8.5 -59t8.5 -59t22.5 -41t32 -24t37 -8z" />
    <glyph glyph-name="p" unicode="p" horiz-adv-x="610" 
d="M211 519v-68h2q23 32 59.5 53.5t93.5 21.5q48 0 89.5 -17t71.5 -51t47.5 -84.5t17.5 -117.5q0 -64 -16 -113.5t-45.5 -83t-70.5 -50.5t-91 -17q-39 0 -79.5 14t-69.5 51h-2v-234h-181v696h174zM213 261q0 -63 27 -96.5t74 -33.5q45 0 72.5 33.5t27.5 94.5q0 62 -27 95.5
t-73 33.5q-47 0 -74 -32.5t-27 -94.5z" />
    <glyph glyph-name="q" unicode="q" horiz-adv-x="610" 
d="M573 -177h-181v234h-2q-29 -37 -69.5 -51t-79.5 -14q-50 0 -91 17t-70 50.5t-45 83t-16 113.5q0 67 17 117.5t47.5 84.5t71.5 51t89 17q57 0 93.5 -21.5t59.5 -53.5h2v68h174v-696zM397 261q0 62 -27 94.5t-74 32.5q-46 0 -73 -33.5t-27 -95.5q0 -61 27.5 -94.5
t72.5 -33.5q47 0 74 33.5t27 96.5z" />
    <glyph glyph-name="r" unicode="r" horiz-adv-x="396" 
d="M213 439q17 49 61.5 72t113.5 15v-137q-41 5 -73 -4t-54 -27.5t-33.5 -43.5t-11.5 -51v-263h-179v519h174v-80h2z" />
    <glyph glyph-name="s" unicode="s" horiz-adv-x="533" 
d="M348 311q82 -17 122 -50.5t40 -90.5q0 -81 -61 -129.5t-179 -48.5q-45 0 -86.5 8.5t-75 28.5t-56 52t-29.5 78h172q14 -45 75 -45q28 0 43.5 10t15.5 27q0 11 -9 20t-48 17l-85 16q-75 15 -116 53t-41 98q0 44 19.5 76t51.5 53t74.5 31t87.5 10q44 0 84 -9t70.5 -29.5
t50.5 -52.5t25 -78h-164q-4 23 -21.5 35.5t-44.5 12.5q-23 0 -40.5 -9.5t-17.5 -29.5q0 -12 9.5 -21.5t48.5 -17.5z" />
    <glyph glyph-name="t" unicode="t" horiz-adv-x="386" 
d="M272 388v-202q0 -49 52 -55q10 -2 21.5 -1.5t24.5 2.5v-124q-27 -6 -58 -9q-46 -3 -86.5 4t-70.5 27.5t-47 55t-17 85.5v217h-76v117h83v145h174v-145h92v-117h-92z" />
    <glyph glyph-name="u" unicode="u" horiz-adv-x="605" 
d="M216 519v-290q0 -48 21 -74t64 -26q42 0 65 30t23 76v284h180v-519h-174v98h-3q-20 -59 -62.5 -82.5t-105.5 -23.5q-90 0 -138.5 50.5t-48.5 150.5v326h179z" />
    <glyph glyph-name="v" unicode="v" horiz-adv-x="565" 
d="M399 0h-232l-171 519h193l93 -377h2l93 377h192z" />
    <glyph glyph-name="w" unicode="w" horiz-adv-x="815" 
d="M693 0h-203l-82 359h-3l-82 -359h-199l-121 519h182l59 -360h3l79 360h166l81 -360h3l58 360h178z" />
    <glyph glyph-name="x" unicode="x" horiz-adv-x="561" 
d="M161 261l-150 258h196l72 -167h3l73 167h196l-151 -258l151 -261h-196l-73 169h-2l-73 -169h-196z" />
    <glyph glyph-name="y" unicode="y" horiz-adv-x="554" 
d="M558 519q-43 -128 -79 -236q-15 -46 -30.5 -92.5t-29 -86t-23.5 -70t-15 -44.5q-28 -94 -83 -138t-131 -44q-23 0 -53 2.5t-53 7.5v116q15 -2 27.5 -3.5t25.5 -1.5q31 0 46 15.5t21 32.5l7 23l-192 519h193l90 -365h3l88 365h188z" />
    <glyph glyph-name="z" unicode="z" horiz-adv-x="517" 
d="M34 93l233 290v4h-233v132h449v-107l-217 -275v-4h217v-133h-449v93z" />
    <glyph glyph-name="braceleft" unicode="{" horiz-adv-x="422" 
d="M289 458q0 -55 -23 -87t-64 -41v-3q42 -10 64.5 -41t22.5 -88v-91q1 -43 19.5 -56.5t59.5 -13.5h41v-119h-75q-104 0 -157 37t-53 118v97q0 47 -23 75t-74 32v104q51 5 74 32.5t23 75.5v97q0 79 53 116.5t157 37.5h75v-119h-41q-42 0 -60.5 -15t-18.5 -63v-85z" />
    <glyph glyph-name="bar" unicode="|" horiz-adv-x="334" 
d="M246 798v-902h-157v902h157z" />
    <glyph glyph-name="braceright" unicode="}" horiz-adv-x="422" 
d="M134 543q0 48 -19 63t-61 15h-40v119h75q103 0 156.5 -37.5t53.5 -116.5v-97q0 -48 22.5 -75.5t73.5 -32.5v-104q-51 -4 -73.5 -32t-22.5 -75v-97q0 -81 -53.5 -118t-156.5 -37h-75v119h40q41 0 60 13.5t20 56.5v91q0 57 22.5 88t64.5 41v3q-42 9 -64.5 41t-22.5 87v85z
" />
    <glyph glyph-name="asciitilde" unicode="~" horiz-adv-x="592" 
d="M213 285q-17 0 -29.5 -15.5t-13.5 -51.5h-133q0 93 35 147.5t117 54.5q30 0 54 -11t45.5 -24t42.5 -24t45 -11q19 0 33 15.5t14 53.5h132q0 -46 -9.5 -83.5t-28.5 -64.5t-48.5 -41.5t-69.5 -14.5q-30 0 -53.5 11t-45.5 24t-42.5 24t-44.5 11z" />
    <glyph glyph-name="uni00A0" unicode="&#xa0;" horiz-adv-x="300" 
 />
    <glyph glyph-name="exclamdown" unicode="&#xa1;" horiz-adv-x="304" 
d="M151 403q-51 0 -77 28.5t-26 68.5q0 41 26 69t77 28t78.5 -28t27.5 -69q0 -40 -27.5 -68.5t-78.5 -28.5zM61 141l12 205h159l11 -205v-245h-182v245z" />
    <glyph glyph-name="cent" unicode="&#xa2;" horiz-adv-x="567" 
d="M376 621v-104q73 -16 118 -62.5t53 -121.5h-168q-8 31 -29.5 44.5t-49.5 13.5q-40 0 -66 -34.5t-26 -97.5t26 -97.5t66 -34.5q28 0 50 13t29 42h168q-8 -75 -52.5 -121t-118.5 -62v-103h-157v103q-93 19 -142.5 84.5t-49.5 175.5q0 109 50.5 174.5t141.5 83.5v104h157z
" />
    <glyph glyph-name="sterling" unicode="&#xa3;" horiz-adv-x="603" 
d="M463 253h-172q-8 -34 -23.5 -59.5t-32.5 -50.5v-2h340v-141h-533v108q18 17 35.5 32t31.5 31.5t24 36.5t14 45h-105v116h77q-9 16 -19.5 32.5t-19.5 35.5t-15 40.5t-6 46.5q0 36 14.5 69.5t45 59t78 40.5t112.5 15q77 0 127.5 -21t81.5 -55.5t43.5 -80t12.5 -94.5h-167
q0 22 -3.5 42.5t-13 36t-28 25t-48.5 9.5q-42 0 -62 -17.5t-20 -43.5q0 -15 6 -31t14 -33.5t17.5 -36t16.5 -39.5h177v-116z" />
    <glyph glyph-name="currency" unicode="&#xa4;" horiz-adv-x="552" 
d="M63 332q0 27 6 53t21 49l-56 54l85 84l55 -55q22 17 48 22.5t53 5.5q26 0 51.5 -6.5t47.5 -21.5l53 55l91 -82l-58 -58q14 -22 20.5 -48t6.5 -52q0 -27 -6 -52t-21 -48l56 -55l-86 -86l-56 55q-22 -16 -47 -20.5t-52 -4.5t-53 5t-48 20l-57 -56l-80 90l53 52
q-17 23 -22 48t-5 52zM182 332q0 -37 25 -64.5t68 -27.5q42 0 66.5 27.5t24.5 64.5q0 38 -24.5 65.5t-66.5 27.5q-43 0 -68 -27.5t-25 -65.5z" />
    <glyph glyph-name="yen" unicode="&#xa5;" horiz-adv-x="657" 
d="M237 110h-133v110h133v54h-133v111h89l-197 315h216l115 -234h4l115 234h215l-196 -315h88v-111h-131v-54h131v-110h-131v-110h-185v110z" />
    <glyph glyph-name="brokenbar" unicode="&#xa6;" horiz-adv-x="334" 
d="M89 798h157v-331h-157v331zM89 229h157v-333h-157v333z" />
    <glyph glyph-name="section" unicode="&#xa7;" horiz-adv-x="527" 
d="M504 336q0 -25 -7 -42.5t-18 -30t-25 -21t-28 -15.5q16 -9 31 -22.5t26 -29t18 -33t7 -35.5q0 -82 -61.5 -130t-180.5 -48q-45 0 -87 8t-75.5 27.5t-56.5 51.5t-29 80h173q6 -23 25.5 -34t49.5 -11q28 0 44 15.5t16 32.5q0 11 -9 21t-48 17l-86 17q-76 15 -118 49.5
t-42 102.5q0 25 6.5 42t17.5 29.5t25 21t28 16.5q-34 17 -57.5 50t-23.5 71q0 81 61.5 129t180.5 48q45 0 87 -8.5t76 -28t56.5 -51.5t29.5 -80h-174q-6 24 -25.5 35t-50.5 11q-27 0 -43.5 -15.5t-16.5 -32.5q0 -11 9.5 -21t48.5 -17l86 -16q76 -15 118 -49.5t42 -103.5z
M275 376q-45 5 -68 -12.5t-23 -43.5q0 -20 16 -34t51 -19q45 -6 68.5 10.5t23.5 42.5q0 21 -16.5 36t-51.5 20z" />
    <glyph glyph-name="dieresis" unicode="&#xa8;" horiz-adv-x="521" 
d="M48 634q0 17 7 33t19.5 28t29 19.5t35.5 7.5q18 0 34 -7.5t28.5 -19.5t19.5 -28t7 -33q0 -19 -7 -36t-19.5 -29.5t-28.5 -20t-34 -7.5q-19 0 -35.5 7.5t-29 20t-19.5 29.5t-7 36zM293 634q0 17 7 33t19.5 28t29 19.5t35.5 7.5q18 0 34 -7.5t28.5 -19.5t19.5 -28t7 -33
q0 -19 -7 -36t-19.5 -29.5t-28.5 -20t-34 -7.5q-19 0 -35.5 7.5t-29 20t-19.5 29.5t-7 36z" />
    <glyph glyph-name="copyright" unicode="&#xa9;" horiz-adv-x="795" 
d="M20 342q0 78 30 147t81 120.5t120 81t147 29.5t147 -29.5t120.5 -81t81 -120.5t29.5 -147t-29.5 -146.5t-81 -120t-120.5 -81t-147 -29.5t-147 29.5t-120 81t-81 120t-30 146.5zM129 342q0 -55 21 -104t57.5 -85t85.5 -57t105 -21t105.5 21t86 57t57.5 85t21 104
q0 56 -21 105.5t-57.5 86.5t-86 58t-105.5 21t-105 -21t-85.5 -58t-57.5 -86.5t-21 -105.5zM404 224q62 0 78 59h112q-4 -35 -19.5 -63.5t-40.5 -48.5t-58 -31t-72 -11q-97 0 -151.5 56t-54.5 160t54.5 159t151.5 55q38 0 71 -11t58 -31t41 -48t20 -63h-114q-14 60 -76 60
q-87 0 -87 -121t87 -121z" />
    <glyph glyph-name="ordfeminine" unicode="&#xaa;" horiz-adv-x="398" 
d="M208 708q72 0 114.5 -31.5t42.5 -82.5v-215h-112v49q-6 -13 -18 -23.5t-26.5 -17t-30.5 -10t-31 -3.5q-47 0 -80 26.5t-33 72.5q0 48 35.5 73t101.5 30l78 4v9q0 40 -46 40q-19 0 -31.5 -6.5t-14.5 -20.5h-105q6 49 46.5 77.5t109.5 28.5zM249 519l-59 -4q-42 -3 -42 -34
q0 -16 12 -23.5t29 -7.5q23 0 41.5 17t18.5 38v14z" />
    <glyph glyph-name="guillemotleft" unicode="&#xab;" horiz-adv-x="927" 
d="M44 271v93l450 273v-172l-262 -147v-1l262 -146v-172zM434 271v93l450 273v-172l-262 -147v-1l262 -146v-172z" />
    <glyph glyph-name="logicalnot" unicode="&#xac;" horiz-adv-x="493" 
d="M37 387h419v-245h-172v105h-247v140z" />
    <glyph glyph-name="registered" unicode="&#xae;" horiz-adv-x="795" 
d="M20 342q0 78 30 147t81 120.5t120 81t147 29.5t147 -29.5t120.5 -81t81 -120.5t29.5 -147t-29.5 -146.5t-81 -120t-120.5 -81t-147 -29.5t-147 29.5t-120 81t-81 120t-30 146.5zM129 342q0 -55 21 -104t57.5 -85t85.5 -57t105 -21t105.5 21t86 57t57.5 85t21 104
q0 56 -21 105.5t-57.5 86.5t-86 58t-105.5 21t-105 -21t-85.5 -58t-57.5 -86.5t-21 -105.5zM457 169l-72 139h-26v-139h-115v361h200q55 0 86 -29.5t31 -81.5q0 -38 -18 -63.5t-53 -35.5l86 -151h-119zM359 381h42q47 0 47 35q0 36 -47 36h-42v-71z" />
    <glyph glyph-name="macron" unicode="&#xaf;" horiz-adv-x="590" 
d="M573 740h-556v128h556v-128z" />
    <glyph glyph-name="degree" unicode="&#xb0;" horiz-adv-x="404" 
d="M203 376q-39 0 -71 12t-54.5 34t-35 52.5t-12.5 67.5q0 36 12 66.5t34.5 52.5t54.5 34.5t72 12.5q39 0 70.5 -12.5t54 -34.5t35 -52.5t12.5 -66.5q0 -37 -12.5 -67.5t-35 -52.5t-54 -34t-70.5 -12zM203 485q29 0 43 16t14 41q0 27 -14 43t-43 16q-30 0 -43.5 -16
t-13.5 -43q0 -25 13.5 -41t43.5 -16z" />
    <glyph glyph-name="plusminus" unicode="&#xb1;" horiz-adv-x="592" 
d="M216 319h-179v128h179v142h161v-142h178v-128h-178v-142h-161v142zM37 129h518v-129h-518v129z" />
    <glyph glyph-name="twosuperior" unicode="&#xb2;" horiz-adv-x="389" 
d="M199 456v-3h154v-87h-315v63l150 147q19 18 30.5 31t18 22t8.5 15.5t2 13.5q0 23 -12.5 34.5t-41.5 11.5q-35 0 -46.5 -20.5t-11.5 -46.5h-101q0 29 8 56.5t26.5 49t49 34.5t75.5 13q83 0 122.5 -35t39.5 -89q0 -20 -3 -35.5t-11.5 -30.5t-24 -32t-41.5 -40z" />
    <glyph glyph-name="threesuperior" unicode="&#xb3;" horiz-adv-x="413" 
d="M304 583q33 -10 54 -34t21 -66q0 -22 -9.5 -44t-30.5 -39.5t-54.5 -28.5t-81.5 -11q-42 0 -74 12.5t-53 34t-31.5 49t-10.5 57.5h107q0 -10 4 -20.5t11.5 -19.5t20 -15t28.5 -6q28 0 44 11.5t16 37.5q0 22 -16 31t-42 9h-36v74h35q23 0 38.5 13t15.5 33t-14.5 31.5
t-39.5 11.5q-31 0 -46 -18.5t-15 -45.5h-103q0 66 42 108t121 42q42 0 73 -9t51.5 -24.5t30 -35t9.5 -40.5q0 -43 -18 -64.5t-47 -32.5v-1z" />
    <glyph glyph-name="acute" unicode="&#xb4;" horiz-adv-x="362" 
d="M36 569l110 225h181l-136 -225h-155z" />
    <glyph glyph-name="paragraph" unicode="&#xb6;" horiz-adv-x="746" 
d="M673 0h-155v571h-81v-571h-155v282q-13 -4 -31.5 -6.5t-33.5 -2.5q-42 0 -77 11.5t-60 36.5t-39 65.5t-14 97.5q0 61 14.5 102.5t41.5 66.5t64.5 36t83.5 11h442v-700z" />
    <glyph glyph-name="periodcentered" unicode="&#xb7;" horiz-adv-x="339" 
d="M61 317q0 22 8.5 41.5t23.5 34t35.5 23t43.5 8.5q22 0 41 -8.5t33.5 -23t23 -34t8.5 -41.5q0 -23 -8.5 -43t-23 -35t-33.5 -23.5t-41 -8.5q-23 0 -43.5 8.5t-35.5 23.5t-23.5 35t-8.5 43z" />
    <glyph glyph-name="cedilla" unicode="&#xb8;" horiz-adv-x="406" 
d="M57 -286l110 205h182l-136 -205h-156z" />
    <glyph glyph-name="onesuperior" unicode="&#xb9;" horiz-adv-x="284" 
d="M162 782h88v-419h-118v320l-98 -35v87z" />
    <glyph glyph-name="ordmasculine" unicode="&#xba;" horiz-adv-x="448" 
d="M34 577q0 52 14 92t39.5 67t60 40.5t76.5 13.5t76.5 -13.5t60 -40.5t39.5 -67t14 -92q0 -104 -52.5 -159.5t-137.5 -55.5t-137.5 55.5t-52.5 159.5zM156 577q0 -65 18 -91.5t50 -26.5t50 26t18 92q0 65 -18 91t-50 26t-50 -26t-18 -91z" />
    <glyph glyph-name="guillemotright" unicode="&#xbb;" horiz-adv-x="927" 
d="M884 271l-450 -272v172l261 146v1l-261 147v172l450 -273v-93zM494 271l-450 -272v172l261 146v1l-261 147v172l450 -273v-93z" />
    <glyph glyph-name="onequarter" unicode="&#xbc;" horiz-adv-x="789" 
d="M440 700h118l-252 -700h-120zM9 654l128 46h88v-419h-118v320l-98 -35v88zM423 147l209 272h99v-260h50v-85h-46v-74h-115v74h-197v73zM624 157v119l-85 -119h85z" />
    <glyph glyph-name="onehalf" unicode="&#xbd;" horiz-adv-x="829" 
d="M137 700h88v-419h-118v320l-98 -35v88zM558 700l-253 -700h-120l254 700h119zM797 300q0 -20 -3 -35.5t-12 -30.5t-24.5 -32t-40.5 -41l-76 -71v-2h154v-88h-315v63l150 147q19 18 30.5 31t18 22t8.5 16t2 14q0 23 -12.5 34t-41.5 11q-35 0 -46.5 -20.5t-11.5 -46.5h-101
q0 30 8 57.5t26.5 48.5t49 34t75.5 13q83 0 122.5 -35t39.5 -89z" />
    <glyph glyph-name="threequarters" unicode="&#xbe;" horiz-adv-x="891" 
d="M298 501q33 -10 54 -34t21 -66q0 -22 -9.5 -44t-30.5 -39.5t-55 -28.5t-82 -11q-42 0 -73.5 12.5t-53 34t-32 49t-10.5 57.5h107q0 -10 4 -20.5t12 -19.5t20 -15t28 -6q29 0 44.5 11.5t15.5 37.5q0 23 -16 31.5t-42 8.5h-36v74h36q23 0 38 13t15 33t-14.5 31.5
t-39.5 11.5q-31 0 -45.5 -18.5t-14.5 -45.5h-104q0 66 42 108t121 42q42 0 73 -9t51.5 -24.5t30 -35t9.5 -40.5q0 -43 -17.5 -64t-46.5 -33v-1zM660 700l-252 -700h-120l254 700h118zM524 147l210 272h99v-260h50v-85h-46v-74h-114v74h-199v73zM727 157v119l-86 -119h86z
" />
    <glyph glyph-name="questiondown" unicode="&#xbf;" horiz-adv-x="571" 
d="M279 597q51 0 78 -28t27 -69q0 -40 -27 -68.5t-78 -28.5q-50 0 -77 28.5t-27 68.5q0 41 27 69t77 28zM538 120q-3 -46 -18 -88.5t-45 -74t-75.5 -50.5t-108.5 -19q-137 0 -197 51.5t-60 140.5q0 37 11 63.5t28 47.5t36.5 37.5t36.5 32.5t28 33.5t11 39.5v12h193v-15
q0 -31 -12.5 -55t-31.5 -43.5t-41.5 -35.5t-41.5 -32.5t-31.5 -33.5t-12.5 -38q0 -29 18.5 -47.5t60.5 -18.5q38 0 59 27.5t26 65.5h167z" />
    <glyph glyph-name="Agrave" unicode="&#xc0;" horiz-adv-x="697" 
d="M340 971l110 -205h-155l-136 205h181zM230 700h239l233 -700h-198l-39 137h-233l-39 -137h-198zM429 269l-78 272h-3l-79 -272h160z" />
    <glyph glyph-name="Aacute" unicode="&#xc1;" horiz-adv-x="697" 
d="M404 766h-156l110 205h182zM230 700h239l233 -700h-198l-39 137h-233l-39 -137h-198zM429 269l-78 272h-3l-79 -272h160z" />
    <glyph glyph-name="Acircumflex" unicode="&#xc2;" horiz-adv-x="697" 
d="M554 752h-148l-59 93h-4l-58 -93h-145l148 227h116zM230 700h239l233 -700h-198l-39 137h-233l-39 -137h-198zM429 269l-78 272h-3l-79 -272h160z" />
    <glyph glyph-name="Atilde" unicode="&#xc3;" horiz-adv-x="697" 
d="M267 834q-17 0 -29 -15t-12 -51h-133q0 94 34 141.5t116 47.5q30 0 53.5 -11t44.5 -23.5t41.5 -23.5t44.5 -11q19 0 32.5 15.5t14.5 52.5h131q0 -91 -37 -140.5t-117 -49.5q-30 0 -53.5 10.5t-45 23.5t-42 23.5t-43.5 10.5zM230 700h239l233 -700h-198l-39 137h-233
l-39 -137h-198zM429 269l-78 272h-3l-79 -272h160z" />
    <glyph glyph-name="Adieresis" unicode="&#xc4;" horiz-adv-x="697" 
d="M380 864q0 18 7.5 34t20 28t29.5 19t36 7q17 0 33 -7t28 -19t19 -28t7 -34q0 -19 -7 -36t-19 -29.5t-28 -19.5t-33 -7q-19 0 -36 7t-29.5 19.5t-20 29.5t-7.5 36zM135 864q0 18 7.5 34t20 28t29 19t35.5 7q18 0 34 -7t28 -19t19 -28t7 -34q0 -19 -7 -36t-19 -29.5
t-28 -19.5t-34 -7q-19 0 -35.5 7t-29 19.5t-20 29.5t-7.5 36zM230 700h239l233 -700h-198l-39 137h-233l-39 -137h-198zM429 269l-78 272h-3l-79 -272h160z" />
    <glyph glyph-name="Aring" unicode="&#xc5;" horiz-adv-x="699" 
d="M225 688q-20 20 -31 48t-11 62q0 35 12 65t33.5 51.5t52.5 33.5t70 12q37 0 67.5 -12t52 -33.5t33.5 -51.5t12 -65q0 -68 -43 -111l231 -687h-198l-39 137h-235l-39 -137h-198zM351 747q26 0 38.5 14.5t12.5 36.5q0 24 -13 38.5t-38 14.5q-27 0 -39.5 -14.5t-12.5 -38.5
q0 -22 12.5 -36.5t39.5 -14.5zM431 269l-80 272h-4l-78 -272h162z" />
    <glyph glyph-name="AE" unicode="&#xc6;" horiz-adv-x="1050" 
d="M680 560v-139h279v-140h-279v-140h337v-141h-522v137h-212l-79 -137h-209l426 700h596v-140h-337zM495 269v239l-139 -239h139z" />
    <glyph glyph-name="Ccedilla" unicode="&#xc7;" horiz-adv-x="706" 
d="M369 141q51 0 84.5 25.5t47.5 76.5h185q-6 -57 -32 -103.5t-68 -79.5t-97 -50.5t-120 -17.5q-79 0 -142.5 24t-108 70t-68 113t-23.5 153t24 152t68 111.5t107.5 69t142.5 23.5q63 0 117.5 -17.5t96.5 -50.5t68.5 -79.5t33.5 -103.5h-186q-12 51 -45.5 78t-84.5 27
q-71 0 -112 -54.5t-41 -155.5q0 -103 40.5 -157t112.5 -54zM358 -286h-155l109 205h182z" />
    <glyph glyph-name="Egrave" unicode="&#xc8;" horiz-adv-x="596" 
d="M314 971l110 -205h-156l-136 205h182zM226 560v-139h279v-140h-279v-140h336v-141h-521v700h521v-140h-336z" />
    <glyph glyph-name="Eacute" unicode="&#xc9;" horiz-adv-x="596" 
d="M371 766h-156l110 205h182zM226 560v-139h279v-140h-279v-140h336v-141h-521v700h521v-140h-336z" />
    <glyph glyph-name="Ecircumflex" unicode="&#xca;" horiz-adv-x="596" 
d="M515 752h-148l-59 93h-4l-58 -93h-145l148 227h116zM226 560v-139h279v-140h-279v-140h336v-141h-521v700h521v-140h-336z" />
    <glyph glyph-name="Edieresis" unicode="&#xcb;" horiz-adv-x="596" 
d="M342 864q0 18 7.5 34t20 28t29 19t35.5 7q18 0 34 -7t28.5 -19t19.5 -28t7 -34q0 -19 -7 -36t-19.5 -29.5t-28.5 -19.5t-34 -7q-19 0 -35.5 7t-29 19.5t-20 29.5t-7.5 36zM97 864q0 18 7.5 34t20 28t29 19t35.5 7q18 0 34 -7t28.5 -19t19.5 -28t7 -34q0 -19 -7 -36
t-19.5 -29.5t-28.5 -19.5t-34 -7q-19 0 -35.5 7t-29 19.5t-20 29.5t-7.5 36zM226 560v-139h279v-140h-279v-140h336v-141h-521v700h521v-140h-336z" />
    <glyph glyph-name="Igrave" unicode="&#xcc;" horiz-adv-x="280" 
d="M123 968l110 -205h-156l-137 205h183zM48 700h185v-700h-185v700z" />
    <glyph glyph-name="Iacute" unicode="&#xcd;" horiz-adv-x="280" 
d="M203 766h-155l109 205h182zM48 700h185v-700h-185v700z" />
    <glyph glyph-name="Icircumflex" unicode="&#xce;" horiz-adv-x="280" 
d="M347 752h-148l-59 93h-3l-59 -93h-145l149 227h115zM48 700h185v-700h-185v700z" />
    <glyph glyph-name="Idieresis" unicode="&#xcf;" horiz-adv-x="280" 
d="M-73 864q0 18 7 34t19.5 28t29.5 19t36 7q18 0 34 -7t28 -19t19.5 -28t7.5 -34q0 -19 -7.5 -36t-19.5 -29.5t-28 -19.5t-34 -7q-19 0 -36 7t-29.5 19.5t-19.5 29.5t-7 36zM173 864q0 18 7 34t19.5 28t29 19t35.5 7q18 0 34 -7t28 -19t19.5 -28t7.5 -34q0 -19 -7.5 -36
t-19.5 -29.5t-28 -19.5t-34 -7q-19 0 -35.5 7t-29 19.5t-19.5 29.5t-7 36zM48 700h185v-700h-185v700z" />
    <glyph glyph-name="Eth" unicode="&#xd0;" horiz-adv-x="751" 
d="M375 700q80 0 144.5 -22t110 -65.5t70 -108t24.5 -148.5t-24.5 -150.5t-70 -112t-110 -69.5t-144.5 -24h-276v298h-85v111h85v291h276zM350 141q85 0 130.5 55.5t45.5 159.5q0 96 -46.5 150t-129.5 54h-66v-151h138v-111h-138v-157h66z" />
    <glyph glyph-name="Ntilde" unicode="&#xd1;" horiz-adv-x="710" 
d="M245 768h-134q0 94 34.5 141.5t116.5 47.5q29 0 52.5 -11t44.5 -23.5t42 -23.5t45 -11q18 0 31.5 15.5t14.5 52.5h132q0 -91 -37.5 -140.5t-117.5 -49.5q-29 0 -53 10.5t-45 23.5t-42 23.5t-44 10.5q-17 0 -28.5 -15t-11.5 -51zM41 700h162l281 -400h4v400h181v-700h-159
l-284 408h-4v-408h-181v700z" />
    <glyph glyph-name="Ograve" unicode="&#xd2;" horiz-adv-x="735" 
d="M373 971l109 -205h-156l-136 205h183zM368 -8q-80 0 -144.5 24.5t-109.5 71t-69.5 113t-24.5 150.5t24.5 150.5t69.5 112t109.5 70t144.5 24.5t144.5 -24.5t109.5 -70t69 -112t24 -150.5t-24 -150.5t-69 -113t-109.5 -71t-144.5 -24.5zM368 145q72 0 113 53.5t41 152.5
q0 100 -41 152t-113 52t-113 -52t-41 -152q0 -99 41 -152.5t113 -53.5z" />
    <glyph glyph-name="Oacute" unicode="&#xd3;" horiz-adv-x="735" 
d="M430 766h-156l110 205h182zM368 -8q-80 0 -144.5 24.5t-109.5 71t-69.5 113t-24.5 150.5t24.5 150.5t69.5 112t109.5 70t144.5 24.5t144.5 -24.5t109.5 -70t69 -112t24 -150.5t-24 -150.5t-69 -113t-109.5 -71t-144.5 -24.5zM368 145q72 0 113 53.5t41 152.5
q0 100 -41 152t-113 52t-113 -52t-41 -152q0 -99 41 -152.5t113 -53.5z" />
    <glyph glyph-name="Ocircumflex" unicode="&#xd4;" horiz-adv-x="735" 
d="M577 752h-147l-58 93h-4l-59 -93h-145l149 227h114zM368 -8q-80 0 -144.5 24.5t-109.5 71t-69.5 113t-24.5 150.5t24.5 150.5t69.5 112t109.5 70t144.5 24.5t144.5 -24.5t109.5 -70t69 -112t24 -150.5t-24 -150.5t-69 -113t-109.5 -71t-144.5 -24.5zM368 145
q72 0 113 53.5t41 152.5q0 100 -41 152t-113 52t-113 -52t-41 -152q0 -99 41 -152.5t113 -53.5z" />
    <glyph glyph-name="Otilde" unicode="&#xd5;" horiz-adv-x="735" 
d="M249 768h-133q0 94 34 141.5t116 47.5q29 0 52.5 -11t44.5 -23.5t42 -23.5t45 -11q19 0 32.5 15.5t13.5 52.5h132q0 -91 -37 -140.5t-117 -49.5q-30 0 -53.5 10.5t-45 23.5t-42 23.5t-43.5 10.5q-17 0 -29 -15t-12 -51zM368 -8q-80 0 -144.5 24.5t-109.5 71t-69.5 113
t-24.5 150.5t24.5 150.5t69.5 112t109.5 70t144.5 24.5t144.5 -24.5t109.5 -70t69 -112t24 -150.5t-24 -150.5t-69 -113t-109.5 -71t-144.5 -24.5zM368 145q72 0 113 53.5t41 152.5q0 100 -41 152t-113 52t-113 -52t-41 -152q0 -99 41 -152.5t113 -53.5z" />
    <glyph glyph-name="Odieresis" unicode="&#xd6;" horiz-adv-x="735" 
d="M398 864q0 18 7.5 34t20 28t29 19t35.5 7q18 0 34 -7t28 -19t19.5 -28t7.5 -34q0 -19 -7.5 -36t-19.5 -29.5t-28 -19.5t-34 -7q-19 0 -35.5 7t-29 19.5t-20 29.5t-7.5 36zM153 864q0 18 7.5 34t20 28t29 19t35.5 7q18 0 34 -7t28 -19t19.5 -28t7.5 -34q0 -19 -7.5 -36
t-19.5 -29.5t-28 -19.5t-34 -7q-19 0 -35.5 7t-29 19.5t-20 29.5t-7.5 36zM368 -8q-80 0 -144.5 24.5t-109.5 71t-69.5 113t-24.5 150.5t24.5 150.5t69.5 112t109.5 70t144.5 24.5t144.5 -24.5t109.5 -70t69 -112t24 -150.5t-24 -150.5t-69 -113t-109.5 -71t-144.5 -24.5z
M368 145q72 0 113 53.5t41 152.5q0 100 -41 152t-113 52t-113 -52t-41 -152q0 -99 41 -152.5t113 -53.5z" />
    <glyph glyph-name="multiply" unicode="&#xd7;" horiz-adv-x="555" 
d="M37 176l142 140l-142 142l99 99l141 -141l142 141l99 -99l-141 -142l141 -140l-100 -99l-141 140l-139 -140z" />
    <glyph glyph-name="Oslash" unicode="&#xd8;" horiz-adv-x="735" 
d="M715 351q0 -84 -24 -150.5t-69 -113t-109.5 -71t-144.5 -24.5t-144.5 24.5t-109.5 71t-69.5 113t-24.5 150.5t24.5 150t69.5 112t109.5 70.5t144.5 24.5t144.5 -24.5t109.5 -70.5t69 -112t24 -150zM214 351q0 -43 9 -76t26 -56l120 332q-2 2 -6 2.5t-7 0.5
q-67 -5 -104.5 -56.5t-37.5 -146.5zM522 351q0 45 -10.5 79.5t-27.5 59.5l-123 -344q3 -1 11 -1q71 0 110.5 54.5t39.5 151.5z" />
    <glyph glyph-name="Ugrave" unicode="&#xd9;" horiz-adv-x="687" 
d="M469 766h-155l-136 205h182zM226 270q0 -62 31 -93t88 -31q56 0 86 31t30 93v431h185v-451q0 -60 -21.5 -107.5t-61 -81t-95 -51.5t-123.5 -18q-69 0 -125 18t-95.5 51.5t-61.5 81t-22 107.5v451h185v-431z" />
    <glyph glyph-name="Uacute" unicode="&#xda;" horiz-adv-x="687" 
d="M249 766l109 205h183l-136 -205h-156zM226 270q0 -62 31 -93t88 -31q56 0 86 31t30 93v431h185v-451q0 -60 -21.5 -107.5t-61 -81t-95 -51.5t-123.5 -18q-69 0 -125 18t-95.5 51.5t-61.5 81t-22 107.5v451h185v-431z" />
    <glyph glyph-name="Ucircumflex" unicode="&#xdb;" horiz-adv-x="687" 
d="M404 979l150 -227h-147l-59 93h-3l-59 -93h-145l149 227h114zM226 270q0 -62 31 -93t88 -31q56 0 86 31t30 93v431h185v-451q0 -60 -21.5 -107.5t-61 -81t-95 -51.5t-123.5 -18q-69 0 -125 18t-95.5 51.5t-61.5 81t-22 107.5v451h185v-431z" />
    <glyph glyph-name="Udieresis" unicode="&#xdc;" horiz-adv-x="687" 
d="M132 864q0 18 7 34t19.5 28t29.5 19t36 7q17 0 33 -7t28 -19t19.5 -28t7.5 -34q0 -19 -7.5 -36t-19.5 -29.5t-28 -19.5t-33 -7q-19 0 -36 7t-29.5 19.5t-19.5 29.5t-7 36zM377 864q0 18 7 34t19.5 28t29.5 19t36 7q17 0 33 -7t28 -19t19.5 -28t7.5 -34q0 -19 -7.5 -36
t-19.5 -29.5t-28 -19.5t-33 -7q-19 0 -36 7t-29.5 19.5t-19.5 29.5t-7 36zM226 270q0 -62 31 -93t88 -31q56 0 86 31t30 93v431h185v-451q0 -60 -21.5 -107.5t-61 -81t-95 -51.5t-123.5 -18q-69 0 -125 18t-95.5 51.5t-61.5 81t-22 107.5v451h185v-431z" />
    <glyph glyph-name="Yacute" unicode="&#xdd;" horiz-adv-x="657" 
d="M402 766h-155l109 205h182zM422 286v-286h-185v286l-241 414h216l115 -234h4l115 234h215z" />
    <glyph glyph-name="Thorn" unicode="&#xde;" horiz-adv-x="612" 
d="M226 565h141q52 0 93.5 -15t71 -43t45 -68t15.5 -90q0 -99 -60 -156t-166 -57h-140v-136h-185v700h185v-135zM226 424v-148h103q43 0 67 19t24 54q0 36 -23.5 55.5t-67.5 19.5h-103z" />
    <glyph glyph-name="germandbls" unicode="&#xdf;" horiz-adv-x="676" 
d="M41 0v471q0 109 67.5 173t206.5 64q72 0 125.5 -17.5t88.5 -46t52.5 -65.5t17.5 -77q0 -26 -7.5 -51t-20.5 -46t-31.5 -35t-41.5 -17q29 -4 56 -17t47 -32.5t32 -44.5t12 -54q0 -63 -20 -104t-53.5 -65.5t-77.5 -34.5t-91 -10q-28 0 -56.5 3t-55.5 8v123q28 -3 57.5 -1.5
t54 9.5t40 24t15.5 42t-11 43.5t-28.5 29t-39 16.5t-41.5 5h-32v118h32q39 0 62 21t23 53q0 36 -27 57t-78 21t-74.5 -26.5t-23.5 -84.5v-452h-179z" />
    <glyph glyph-name="agrave" unicode="&#xe0;" horiz-adv-x="582" 
d="M339 794l110 -205h-156l-136 205h182zM300 526q57 0 102.5 -13t77.5 -37t49 -57.5t17 -74.5v-344h-174v77h-3q-10 -21 -28.5 -36.5t-41.5 -26.5t-48.5 -16.5t-50.5 -5.5q-36 0 -68.5 11t-56.5 31.5t-38 49.5t-14 65q0 77 55.5 118t161.5 47l124 8v13q0 32 -19 49t-54 17
q-30 0 -51.5 -11.5t-26.5 -33.5h-163q10 78 75.5 124t174.5 46zM364 224l-95 -6q-34 -2 -50.5 -17t-16.5 -38q0 -26 19 -38.5t45 -12.5q19 0 37 7.5t31.5 20t21.5 28.5t8 34v22z" />
    <glyph glyph-name="aacute" unicode="&#xe1;" horiz-adv-x="582" 
d="M378 589h-155l110 205h182zM300 526q57 0 102.5 -13t77.5 -37t49 -57.5t17 -74.5v-344h-174v77h-3q-10 -21 -28.5 -36.5t-41.5 -26.5t-48.5 -16.5t-50.5 -5.5q-36 0 -68.5 11t-56.5 31.5t-38 49.5t-14 65q0 77 55.5 118t161.5 47l124 8v13q0 32 -19 49t-54 17
q-30 0 -51.5 -11.5t-26.5 -33.5h-163q10 78 75.5 124t174.5 46zM364 224l-95 -6q-34 -2 -50.5 -17t-16.5 -38q0 -26 19 -38.5t45 -12.5q19 0 37 7.5t31.5 20t21.5 28.5t8 34v22z" />
    <glyph glyph-name="acircumflex" unicode="&#xe2;" horiz-adv-x="582" 
d="M510 570h-147l-59 93h-4l-59 -93h-145l149 228h115zM300 526q57 0 102.5 -13t77.5 -37t49 -57.5t17 -74.5v-344h-174v77h-3q-10 -21 -28.5 -36.5t-41.5 -26.5t-48.5 -16.5t-50.5 -5.5q-36 0 -68.5 11t-56.5 31.5t-38 49.5t-14 65q0 77 55.5 118t161.5 47l124 8v13
q0 32 -19 49t-54 17q-30 0 -51.5 -11.5t-26.5 -33.5h-163q10 78 75.5 124t174.5 46zM364 224l-95 -6q-34 -2 -50.5 -17t-16.5 -38q0 -26 19 -38.5t45 -12.5q19 0 37 7.5t31.5 20t21.5 28.5t8 34v22z" />
    <glyph glyph-name="atilde" unicode="&#xe3;" horiz-adv-x="582" 
d="M229 658q-16 0 -24.5 -14.5t-8.5 -50.5h-133q0 46 7 81.5t23.5 59.5t44 36t68.5 12q26 0 47.5 -10.5t41 -23t39 -23t40.5 -10.5q19 0 29 14.5t10 51.5h132q0 -91 -33 -140t-113 -49q-27 0 -49 10.5t-42 22.5t-39 22.5t-40 10.5zM300 526q57 0 102.5 -13t77.5 -37
t49 -57.5t17 -74.5v-344h-174v77h-3q-10 -21 -28.5 -36.5t-41.5 -26.5t-48.5 -16.5t-50.5 -5.5q-36 0 -68.5 11t-56.5 31.5t-38 49.5t-14 65q0 77 55.5 118t161.5 47l124 8v13q0 32 -19 49t-54 17q-30 0 -51.5 -11.5t-26.5 -33.5h-163q10 78 75.5 124t174.5 46zM364 224
l-95 -6q-34 -2 -50.5 -17t-16.5 -38q0 -26 19 -38.5t45 -12.5q19 0 37 7.5t31.5 20t21.5 28.5t8 34v22z" />
    <glyph glyph-name="adieresis" unicode="&#xe4;" horiz-adv-x="582" 
d="M98 680q0 18 7 34t19.5 28t29.5 19.5t36 7.5q17 0 33 -7.5t28 -19.5t19.5 -28t7.5 -34q0 -19 -7.5 -35.5t-19.5 -29t-28 -19.5t-33 -7q-19 0 -36 7t-29.5 19.5t-19.5 29t-7 35.5zM343 680q0 18 7 34t19.5 28t29.5 19.5t36 7.5q17 0 33 -7.5t28 -19.5t19.5 -28t7.5 -34
q0 -19 -7.5 -35.5t-19.5 -29t-28 -19.5t-33 -7q-19 0 -36 7t-29.5 19.5t-19.5 29t-7 35.5zM300 526q57 0 102.5 -13t77.5 -37t49 -57.5t17 -74.5v-344h-174v77h-3q-10 -21 -28.5 -36.5t-41.5 -26.5t-48.5 -16.5t-50.5 -5.5q-36 0 -68.5 11t-56.5 31.5t-38 49.5t-14 65
q0 77 55.5 118t161.5 47l124 8v13q0 32 -19 49t-54 17q-30 0 -51.5 -11.5t-26.5 -33.5h-163q10 78 75.5 124t174.5 46zM364 224l-95 -6q-34 -2 -50.5 -17t-16.5 -38q0 -26 19 -38.5t45 -12.5q19 0 37 7.5t31.5 20t21.5 28.5t8 34v22z" />
    <glyph glyph-name="aring" unicode="&#xe5;" horiz-adv-x="582" 
d="M312 583q-65 0 -105 38t-40 100q0 61 39.5 100t105.5 39q64 0 103.5 -39t39.5 -100q0 -62 -39.5 -100t-103.5 -38zM312 676q23 0 33.5 12.5t10.5 32.5q0 21 -11 34t-33 13q-23 0 -34.5 -13t-11.5 -34q0 -20 11.5 -32.5t34.5 -12.5zM300 526q57 0 102.5 -13t77.5 -37
t49 -57.5t17 -74.5v-344h-174v77h-3q-10 -21 -28.5 -36.5t-41.5 -26.5t-48.5 -16.5t-50.5 -5.5q-36 0 -68.5 11t-56.5 31.5t-38 49.5t-14 65q0 77 55.5 118t161.5 47l124 8v13q0 32 -19 49t-54 17q-30 0 -51.5 -11.5t-26.5 -33.5h-163q10 78 75.5 124t174.5 46zM364 224
l-95 -6q-34 -2 -50.5 -17t-16.5 -38q0 -26 19 -38.5t45 -12.5q19 0 37 7.5t31.5 20t21.5 28.5t8 34v22z" />
    <glyph glyph-name="ae" unicode="&#xe6;" horiz-adv-x="912" 
d="M886 222h-351q5 -45 33 -70t66 -25q29 0 52 13t31 42h167q-10 -95 -76 -142.5t-177 -47.5q-67 0 -118.5 22t-85.5 73q-21 -33 -49 -52t-57.5 -28.5t-57.5 -12t-49 -2.5q-36 0 -70.5 11t-61.5 31.5t-43 49.5t-16 65q0 77 55.5 118t161.5 47l126 8v13q0 32 -20 49t-55 17
q-30 0 -51.5 -11.5t-26.5 -33.5h-163q10 78 75.5 124t174.5 46q26 0 51.5 -5t47.5 -13.5t40 -21t30 -27.5q26 30 69.5 47.5t91.5 19.5q126 -2 191 -72.5t65 -191.5v-40zM630 395q-36 0 -60 -21.5t-32 -56.5h180q-5 34 -28.5 56t-59.5 22zM366 224l-97 -6q-34 -2 -50.5 -17
t-16.5 -38q0 -26 20 -38.5t46 -12.5q19 0 37 7.5t31.5 20t21.5 28.5t8 34v22z" />
    <glyph glyph-name="ccedilla" unicode="&#xe7;" horiz-adv-x="567" 
d="M547 182q-10 -94 -75.5 -142t-174.5 -48q-128 0 -199 67.5t-71 199.5q0 131 71.5 199t197.5 68q107 0 174 -49t77 -144h-168q-8 31 -29.5 44.5t-49.5 13.5q-40 0 -66 -34.5t-26 -97.5t26 -97.5t66 -34.5q28 0 50 13t29 42h168zM284 -286h-155l109 205h182z" />
    <glyph glyph-name="egrave" unicode="&#xe8;" horiz-adv-x="578" 
d="M317 794l110 -205h-156l-136 205h182zM552 222h-351q4 -45 32.5 -70t66.5 -25q29 0 51.5 13t31.5 42h166q-9 -95 -75 -142.5t-177 -47.5q-128 0 -199 68.5t-71 199.5q0 63 19 112.5t54.5 83t85 51.5t110.5 19q126 -2 191 -72.5t65 -191.5v-40zM296 395q-36 0 -60 -21.5
t-32 -56.5h181q-6 34 -30 56t-59 22z" />
    <glyph glyph-name="eacute" unicode="&#xe9;" horiz-adv-x="578" 
d="M358 589h-155l110 205h182zM552 222h-351q4 -45 32.5 -70t66.5 -25q29 0 51.5 13t31.5 42h166q-9 -95 -75 -142.5t-177 -47.5q-128 0 -199 68.5t-71 199.5q0 63 19 112.5t54.5 83t85 51.5t110.5 19q126 -2 191 -72.5t65 -191.5v-40zM296 395q-36 0 -60 -21.5t-32 -56.5
h181q-6 34 -30 56t-59 22z" />
    <glyph glyph-name="ecircumflex" unicode="&#xea;" horiz-adv-x="578" 
d="M506 570h-147l-59 93h-4l-59 -93h-145l149 228h114zM552 222h-351q4 -45 32.5 -70t66.5 -25q29 0 51.5 13t31.5 42h166q-9 -95 -75 -142.5t-177 -47.5q-128 0 -199 68.5t-71 199.5q0 63 19 112.5t54.5 83t85 51.5t110.5 19q126 -2 191 -72.5t65 -191.5v-40zM296 395
q-36 0 -60 -21.5t-32 -56.5h181q-6 34 -30 56t-59 22z" />
    <glyph glyph-name="edieresis" unicode="&#xeb;" horiz-adv-x="578" 
d="M329 680q0 18 7.5 34t20 28t29 19.5t35.5 7.5q18 0 34 -7.5t28 -19.5t19.5 -28t7.5 -34q0 -19 -7.5 -35.5t-19.5 -29t-28 -19.5t-34 -7q-38 0 -65 26.5t-27 64.5zM84 680q0 18 7 34t19.5 28t29.5 19.5t36 7.5q18 0 34 -7.5t28 -19.5t19.5 -28t7.5 -34q0 -19 -7.5 -35.5
t-19.5 -29t-28 -19.5t-34 -7q-19 0 -36 7t-29.5 19.5t-19.5 29t-7 35.5zM552 222h-351q4 -45 32.5 -70t66.5 -25q29 0 51.5 13t31.5 42h166q-9 -95 -75 -142.5t-177 -47.5q-128 0 -199 68.5t-71 199.5q0 63 19 112.5t54.5 83t85 51.5t110.5 19q126 -2 191 -72.5t65 -191.5
v-40zM296 395q-36 0 -60 -21.5t-32 -56.5h181q-6 34 -30 56t-59 22z" />
    <glyph glyph-name="igrave" unicode="&#xec;" horiz-adv-x="276" 
d="M119 794l110 -205h-156l-137 205h183zM48 519h181v-519h-181v519z" />
    <glyph glyph-name="iacute" unicode="&#xed;" horiz-adv-x="276" 
d="M204 589h-156l110 205h182zM48 519h181v-519h-181v519z" />
    <glyph glyph-name="icircumflex" unicode="&#xee;" horiz-adv-x="276" 
d="M345 570h-147l-59 93h-4l-59 -93h-145l149 228h116zM48 519h181v-519h-181v519z" />
    <glyph glyph-name="idieresis" unicode="&#xef;" horiz-adv-x="276" 
d="M-76 680q0 18 7.5 34t20.5 28t30 19.5t36 7.5q18 0 34 -7.5t28 -19.5t19 -28t7 -34q0 -19 -7 -35.5t-19 -29t-28 -19.5t-34 -7q-19 0 -36 7t-30 19.5t-20.5 29t-7.5 35.5zM171 680q0 18 7.5 34t20 28t29 19.5t35.5 7.5q18 0 34 -7.5t28 -19.5t19 -28t7 -34
q0 -19 -7 -35.5t-19 -29t-28 -19.5t-34 -7q-38 0 -65 26.5t-27 64.5zM48 519h181v-519h-181v519z" />
    <glyph glyph-name="eth" unicode="&#xf0;" horiz-adv-x="650" 
d="M626 655l-93 -54q42 -45 66 -104.5t24 -136.5q0 -85 -20 -153.5t-59 -116t-95.5 -73t-129.5 -25.5q-61 0 -113.5 17.5t-90.5 49.5t-59.5 77.5t-21.5 101.5q0 40 16 78.5t45.5 69t71 49t92.5 18.5q72 0 122 -21.5t82 -59.5h2q0 45 -14 85t-42 71l-106 -61l-29 55l79 45
q-34 19 -81 22v119q56 0 110 -16t100 -48l114 66zM323 124q23 0 43 8.5t35 23.5t23.5 35t8.5 43t-9 42.5t-24 34t-35.5 23t-44.5 8.5q-46 0 -77 -30.5t-31 -78.5q0 -22 8.5 -42t23.5 -35t35.5 -23.5t43.5 -8.5z" />
    <glyph glyph-name="ntilde" unicode="&#xf1;" horiz-adv-x="605" 
d="M234 658q-17 0 -25.5 -14.5t-8.5 -50.5h-132q0 46 7 81.5t23.5 59.5t43.5 36t68 12q27 0 48.5 -10.5t41 -23t38.5 -23t40 -10.5q19 0 29 14.5t11 51.5h131q0 -91 -33.5 -140t-113.5 -49q-27 0 -49 10.5t-41.5 22.5t-38.5 22.5t-39 10.5zM382 526q90 0 138.5 -49.5
t48.5 -149.5v-327h-180v289q0 47 -21.5 73t-64.5 26q-40 0 -63.5 -30t-23.5 -75v-283h-179v519h174v-97h1q20 58 63.5 81t106.5 23z" />
    <glyph glyph-name="ograve" unicode="&#xf2;" horiz-adv-x="586" 
d="M317 794l110 -205h-156l-136 205h182zM293 -8q-63 0 -114 17.5t-87 51t-55 83.5t-19 115q0 131 74 199t201 68q63 0 114 -17t87 -51t55.5 -84t19.5 -115t-19.5 -115t-55.5 -83.5t-87 -51t-114 -17.5zM293 127q19 0 37 8t32.5 24.5t23 41t8.5 58.5t-8.5 59t-23 41.5
t-32.5 24.5t-37 8t-37 -8t-32 -24.5t-22.5 -41.5t-8.5 -59t8.5 -59t22.5 -41t32 -24t37 -8z" />
    <glyph glyph-name="oacute" unicode="&#xf3;" horiz-adv-x="586" 
d="M364 589h-156l109 205h183zM293 -8q-63 0 -114 17.5t-87 51t-55 83.5t-19 115q0 131 74 199t201 68q63 0 114 -17t87 -51t55.5 -84t19.5 -115t-19.5 -115t-55.5 -83.5t-87 -51t-114 -17.5zM293 127q19 0 37 8t32.5 24.5t23 41t8.5 58.5t-8.5 59t-23 41.5t-32.5 24.5
t-37 8t-37 -8t-32 -24.5t-22.5 -41.5t-8.5 -59t8.5 -59t22.5 -41t32 -24t37 -8z" />
    <glyph glyph-name="ocircumflex" unicode="&#xf4;" horiz-adv-x="586" 
d="M498 570h-147l-58 93h-4l-59 -93h-144l148 228h114zM293 -8q-63 0 -114 17.5t-87 51t-55 83.5t-19 115q0 131 74 199t201 68q63 0 114 -17t87 -51t55.5 -84t19.5 -115t-19.5 -115t-55.5 -83.5t-87 -51t-114 -17.5zM293 127q19 0 37 8t32.5 24.5t23 41t8.5 58.5t-8.5 59
t-23 41.5t-32.5 24.5t-37 8t-37 -8t-32 -24.5t-22.5 -41.5t-8.5 -59t8.5 -59t22.5 -41t32 -24t37 -8z" />
    <glyph glyph-name="otilde" unicode="&#xf5;" horiz-adv-x="586" 
d="M217 658q-17 0 -25.5 -14.5t-8.5 -50.5h-133q0 46 7 81.5t23.5 59.5t43.5 36t68 12q27 0 48.5 -10.5t41 -23t38.5 -23t41 -10.5q18 0 28.5 14.5t10.5 51.5h132q0 -91 -33.5 -140t-113.5 -49q-27 0 -49 10.5t-42 22.5t-38.5 22.5t-38.5 10.5zM293 -8q-63 0 -114 17.5
t-87 51t-55 83.5t-19 115q0 131 74 199t201 68q63 0 114 -17t87 -51t55.5 -84t19.5 -115t-19.5 -115t-55.5 -83.5t-87 -51t-114 -17.5zM293 127q19 0 37 8t32.5 24.5t23 41t8.5 58.5t-8.5 59t-23 41.5t-32.5 24.5t-37 8t-37 -8t-32 -24.5t-22.5 -41.5t-8.5 -59t8.5 -59
t22.5 -41t32 -24t37 -8z" />
    <glyph glyph-name="odieresis" unicode="&#xf6;" horiz-adv-x="586" 
d="M81 680q0 18 7.5 34t20 28t29 19.5t34.5 7.5t34 -7.5t28.5 -19.5t19.5 -28t7 -34q0 -19 -7 -35.5t-19.5 -29t-28.5 -19.5t-34 -7t-34.5 7t-29 19.5t-20 29t-7.5 35.5zM326 680q0 18 7.5 34t20 28t29 19.5t35.5 7.5q18 0 34 -7.5t28 -19.5t19 -28t7 -34q0 -19 -7 -35.5
t-19 -29t-28 -19.5t-34 -7q-38 0 -65 26.5t-27 64.5zM293 -8q-63 0 -114 17.5t-87 51t-55 83.5t-19 115q0 131 74 199t201 68q63 0 114 -17t87 -51t55.5 -84t19.5 -115t-19.5 -115t-55.5 -83.5t-87 -51t-114 -17.5zM293 127q19 0 37 8t32.5 24.5t23 41t8.5 58.5t-8.5 59
t-23 41.5t-32.5 24.5t-37 8t-37 -8t-32 -24.5t-22.5 -41.5t-8.5 -59t8.5 -59t22.5 -41t32 -24t37 -8z" />
    <glyph glyph-name="divide" unicode="&#xf7;" horiz-adv-x="592" 
d="M297 408q-39 0 -62.5 25t-23.5 58t23.5 57.5t62.5 24.5t61.5 -24.5t22.5 -57.5t-22.5 -58t-61.5 -25zM32 381h528v-129h-528v129zM297 57q-39 0 -62.5 24.5t-23.5 58.5q0 33 23.5 57.5t62.5 24.5t61.5 -24.5t22.5 -57.5q0 -34 -22.5 -58.5t-61.5 -24.5z" />
    <glyph glyph-name="oslash" unicode="&#xf8;" horiz-adv-x="586" 
d="M293 526q63 0 114 -17.5t87 -51t55.5 -83.5t19.5 -115t-19.5 -115t-55.5 -83.5t-87 -51t-114 -17.5t-114 17.5t-87 51t-55 83.5t-19 115t19.5 115t55 83.5t86.5 51t114 17.5zM193 259q0 -57 25 -88l78 220q-2 0 -4 0.5t-4 0.5q-19 -1 -36 -9.5t-30 -25t-21 -41t-8 -57.5z
M394 259q0 27 -6.5 48.5t-17.5 35.5l-78 -215q2 -1 8 -1q18 2 34.5 10.5t30 25t21.5 40.5t8 56z" />
    <glyph glyph-name="ugrave" unicode="&#xf9;" horiz-adv-x="605" 
d="M327 794l110 -205h-156l-136 205h182zM216 519v-290q0 -48 21 -74t64 -26q42 0 65 30t23 76v284h180v-519h-174v98h-3q-20 -59 -62.5 -82.5t-105.5 -23.5q-90 0 -138.5 50.5t-48.5 150.5v326h179z" />
    <glyph glyph-name="uacute" unicode="&#xfa;" horiz-adv-x="605" 
d="M374 589h-155l109 205h182zM216 519v-290q0 -48 21 -74t64 -26q42 0 65 30t23 76v284h180v-519h-174v98h-3q-20 -59 -62.5 -82.5t-105.5 -23.5q-90 0 -138.5 50.5t-48.5 150.5v326h179z" />
    <glyph glyph-name="ucircumflex" unicode="&#xfb;" horiz-adv-x="605" 
d="M511 570h-147l-59 93h-4l-58 -93h-145l148 228h116zM216 519v-290q0 -48 21 -74t64 -26q42 0 65 30t23 76v284h180v-519h-174v98h-3q-20 -59 -62.5 -82.5t-105.5 -23.5q-90 0 -138.5 50.5t-48.5 150.5v326h179z" />
    <glyph glyph-name="udieresis" unicode="&#xfc;" horiz-adv-x="605" 
d="M337 680q0 18 7.5 34t20 28t29.5 19.5t36 7.5q17 0 33 -7.5t28.5 -19.5t20 -28t7.5 -34q0 -19 -7.5 -35.5t-20 -29t-28.5 -19.5t-33 -7q-19 0 -36 7t-29.5 19.5t-20 29t-7.5 35.5zM92 680q0 18 7.5 34t20 28t29.5 19.5t36 7.5q17 0 33 -7.5t28 -19.5t19.5 -28t7.5 -34
q0 -19 -7.5 -35.5t-19.5 -29t-28 -19.5t-33 -7q-19 0 -36 7t-29.5 19.5t-20 29t-7.5 35.5zM216 519v-290q0 -48 21 -74t64 -26q42 0 65 30t23 76v284h180v-519h-174v98h-3q-20 -59 -62.5 -82.5t-105.5 -23.5q-90 0 -138.5 50.5t-48.5 150.5v326h179z" />
    <glyph glyph-name="yacute" unicode="&#xfd;" horiz-adv-x="554" 
d="M358 589h-155l109 205h183zM558 519q-43 -128 -79 -236q-15 -46 -30.5 -92.5t-29 -86t-23.5 -70t-15 -44.5q-28 -94 -83 -138t-131 -44q-23 0 -53 2.5t-53 7.5v116q15 -2 27.5 -3.5t25.5 -1.5q31 0 46 15.5t21 32.5l7 23l-192 519h193l90 -365h3l88 365h188z" />
    <glyph glyph-name="thorn" unicode="&#xfe;" horiz-adv-x="610" 
d="M218 682v-226h2q57 70 169 70q39 0 76 -17t65 -51t45 -84.5t17 -117.5q0 -64 -16 -113.5t-45.5 -83t-70.5 -50.5t-91 -17q-39 0 -79.5 14t-69.5 51h-2v-234h-181v859h181zM213 261q0 -63 27 -96.5t74 -33.5q45 0 72.5 33.5t27.5 94.5q0 62 -27 95.5t-73 33.5
q-47 0 -74 -32.5t-27 -94.5z" />
    <glyph glyph-name="ydieresis" unicode="&#xff;" horiz-adv-x="554" 
d="M69 680q0 18 7.5 34t20.5 28t29.5 19.5t35.5 7.5q18 0 34 -7.5t28 -19.5t19.5 -28t7.5 -34q0 -19 -7.5 -35.5t-19.5 -29t-28 -19.5t-34 -7q-38 0 -65.5 26.5t-27.5 64.5zM315 680q0 18 7.5 34t20 28t29 19.5t35.5 7.5q18 0 34 -7.5t28 -19.5t19.5 -28t7.5 -34
q0 -19 -7.5 -35.5t-19.5 -29t-28 -19.5t-34 -7q-38 0 -65 26.5t-27 64.5zM558 519q-43 -128 -79 -236q-15 -46 -30.5 -92.5t-29 -86t-23.5 -70t-15 -44.5q-28 -94 -83 -138t-131 -44q-23 0 -53 2.5t-53 7.5v116q15 -2 27.5 -3.5t25.5 -1.5q31 0 46 15.5t21 32.5l7 23
l-192 519h193l90 -365h3l88 365h188z" />
    <glyph glyph-name="Dcroat" unicode="&#x110;" horiz-adv-x="751" 
d="M375 700q80 0 144.5 -22t110 -65.5t70 -108t24.5 -148.5t-24.5 -150.5t-70 -112t-110 -69.5t-144.5 -24h-276v298h-85v111h85v291h276zM350 141q85 0 130.5 55.5t45.5 159.5q0 96 -46.5 150t-129.5 54h-66v-151h138v-111h-138v-157h66z" />
    <glyph glyph-name="dcroat" unicode="&#x111;" horiz-adv-x="610" 
d="M236 526q99 0 154 -78h2v121h-228v87h228v71h181v-71h61v-87h-61v-569h-173v67h-3q-23 -32 -67.5 -53.5t-96.5 -21.5q-44 0 -83 17t-68 51t-46 84.5t-17 117.5q0 64 16 113t44.5 82.5t68.5 51t88 17.5zM296 131q47 0 74 32t27 95q0 62 -27 95.5t-74 33.5
q-45 0 -72.5 -33.5t-27.5 -94.5q0 -63 27.5 -95.5t72.5 -32.5z" />
    <glyph glyph-name="dotlessi" unicode="&#x131;" horiz-adv-x="276" 
d="M48 519h181v-519h-181v519z" />
    <glyph glyph-name="Lslash" unicode="&#x141;" horiz-adv-x="593" 
d="M288 700v-291h171v-111h-171v-157h300v-141h-485v298h-86v111h86v291h185z" />
    <glyph glyph-name="lslash" unicode="&#x142;" horiz-adv-x="471" 
d="M328 700v-291h127v-111h-127v-298h-185v298h-127v111h127v291h185z" />
    <glyph glyph-name="OE" unicode="&#x152;" horiz-adv-x="1041" 
d="M658 560q42 -55 51 -139h242v-140h-242q-5 -42 -18 -77t-33 -63h350v-141h-553q-21 -4 -42.5 -6t-44.5 -2q-80 0 -144.5 24.5t-109.5 71t-69.5 113t-24.5 150.5t24.5 150t69.5 112t109.5 70.5t144.5 24.5q23 0 44.5 -2t42.5 -6h553v-140h-350zM214 351q0 -99 41 -152.5
t113 -53.5t113 53.5t41 152.5t-41 151.5t-113 52.5t-113 -52.5t-41 -151.5z" />
    <glyph glyph-name="oe" unicode="&#x153;" horiz-adv-x="943" 
d="M917 222h-350v-2q5 -44 32.5 -68.5t65.5 -24.5q30 0 52.5 13t30.5 42h167q-10 -95 -76 -142.5t-177 -47.5q-29 0 -57.5 5.5t-53.5 15.5t-44 25t-29 33q-10 -18 -29.5 -33t-44.5 -25t-53.5 -15.5t-57.5 -5.5q-63 0 -114 17.5t-87 51t-55 83.5t-19 115t19.5 115t55 83.5
t86.5 51t114 17.5q58 0 109 -18.5t79 -63.5q13 22 32.5 37t43 25t50 14.5t54.5 5.5q127 -2 191.5 -72.5t64.5 -191.5v-40zM661 395q-36 0 -60 -21.5t-32 -56.5h181q-6 34 -29.5 56t-59.5 22zM293 127q19 0 37 8t32.5 24.5t23 41t8.5 58.5t-8.5 59t-23 41.5t-32.5 24.5t-37 8
t-37 -8t-32 -24.5t-22.5 -41.5t-8.5 -59t8.5 -58.5t22.5 -41t32 -24.5t37 -8z" />
    <glyph glyph-name="Scaron" unicode="&#x160;" horiz-adv-x="637" 
d="M256 752l-149 227h145l59 -93h4l59 93h147l-150 -227h-115zM201 219q5 -38 34.5 -60.5t80.5 -22.5t79 17.5t28 49.5q0 15 -5 25t-18 17.5t-34 14t-53 12.5l-69 14q-106 21 -161 71t-55 131q0 51 21.5 92t59.5 69.5t89.5 43.5t112.5 15q69 0 122 -16.5t89 -46.5t55 -71.5
t20 -91.5h-178q-2 37 -29.5 60.5t-75.5 23.5t-73 -17.5t-25 -46.5q0 -28 24.5 -44.5t81.5 -26.5l71 -14q112 -20 167 -67t55 -130q0 -53 -20.5 -95.5t-59.5 -72t-95 -45t-127 -15.5q-66 0 -119.5 15.5t-91 45t-58.5 71.5t-21 95h178z" />
    <glyph glyph-name="scaron" unicode="&#x161;" horiz-adv-x="533" 
d="M207 570l-148 228h144l59 -94h4l59 94h147l-150 -228h-115zM195 159q14 -45 75 -45q28 0 43.5 10t15.5 27q0 11 -9 20t-48 17l-85 16q-75 15 -116 53t-41 98q0 44 19.5 76t51.5 53t74.5 31t87.5 10q44 0 84 -9t70.5 -29.5t50.5 -52.5t25 -78h-164q-4 23 -21.5 35.5
t-44.5 12.5q-23 0 -40.5 -9.5t-17.5 -29.5q0 -12 9.5 -21.5t48.5 -17.5l85 -15q82 -17 122 -50.5t40 -90.5q0 -81 -61 -129.5t-179 -48.5q-45 0 -86.5 8.5t-75 28.5t-56 52t-29.5 78h172z" />
    <glyph glyph-name="Ydieresis" unicode="&#x178;" horiz-adv-x="657" 
d="M119 864q0 18 7.5 34t20 28t29.5 19t36 7q17 0 33 -7t28 -19t19 -28t7 -34q0 -19 -7 -36t-19 -29.5t-28 -19.5t-33 -7q-19 0 -36 7t-29.5 19.5t-20 29.5t-7.5 36zM364 864q0 18 7.5 34t20 28t29.5 19t36 7q17 0 33 -7t28 -19t19.5 -28t7.5 -34q0 -19 -7.5 -36
t-19.5 -29.5t-28 -19.5t-33 -7q-19 0 -36 7t-29.5 19.5t-20 29.5t-7.5 36zM422 286v-286h-185v286l-241 414h216l115 -234h4l115 234h215z" />
    <glyph glyph-name="Zcaron" unicode="&#x17d;" horiz-adv-x="615" 
d="M260 752l-149 227h145l58 -93h4l59 93h147l-150 -227h-114zM582 141v-141h-548v118l317 438v4h-313v140h534v-117l-308 -440v-2h318z" />
    <glyph glyph-name="zcaron" unicode="&#x17e;" horiz-adv-x="517" 
d="M210 570l-148 228h145l58 -94h5l58 94h148l-151 -228h-115zM34 93l233 290v4h-233v132h449v-107l-217 -275v-4h217v-133h-449v93z" />
    <glyph glyph-name="florin" unicode="&#x192;" horiz-adv-x="405" 
d="M375 505v-117h-83v-222q0 -47 -14 -80t-38.5 -54t-58 -30.5t-73.5 -9.5q-21 0 -44 2.5t-48 8.5v123q27 -3 44 -3q29 0 41 10.5t12 36.5v218h-80v117h80v29q0 47 14 80t38.5 53.5t58.5 30t74 9.5q21 0 44 -2.5t47 -7.5v-124q-8 2 -17 2.5t-17 0.5q-32 0 -47.5 -8.5
t-15.5 -39.5v-23h83z" />
    <glyph glyph-name="circumflex" unicode="&#x2c6;" horiz-adv-x="527" 
d="M470 570h-147l-59 93h-3l-59 -93h-145l149 228h115z" />
    <glyph glyph-name="caron" unicode="&#x2c7;" horiz-adv-x="527" 
d="M206 570l-149 228h145l59 -94h3l59 94h147l-149 -228h-115z" />
    <glyph glyph-name="breve" unicode="&#x2d8;" horiz-adv-x="448" 
d="M171 744q0 -23 13 -38t38 -15q27 0 40 15t13 38h116q0 -35 -12 -64.5t-34 -51t-53 -33.5t-70 -12q-37 0 -67.5 12t-52 33.5t-33.5 51t-12 64.5h114z" />
    <glyph glyph-name="dotaccent" unicode="&#x2d9;" horiz-adv-x="293" 
d="M57 634q0 17 7.5 33t20 28t29 19t34.5 7t34 -7t28 -19t19 -28t7 -33q0 -19 -7 -36t-19 -29.5t-28 -19.5t-34 -7t-34.5 7t-29 19.5t-20 29.5t-7.5 36z" />
    <glyph glyph-name="ring" unicode="&#x2da;" horiz-adv-x="402" 
d="M57 721q0 61 39.5 100t105.5 39q64 0 103.5 -39t39.5 -100q0 -62 -39.5 -100t-103.5 -38q-65 0 -105 38t-40 100zM155 721q0 -20 12 -32.5t35 -12.5t33.5 12.5t10.5 32.5q0 21 -11.5 34t-32.5 13q-23 0 -35 -13t-12 -34z" />
    <glyph glyph-name="ogonek" unicode="&#x2db;" horiz-adv-x="280" 
 />
    <glyph glyph-name="tilde" unicode="&#x2dc;" horiz-adv-x="595" 
d="M223 658q-16 0 -24.5 -14.5t-8.5 -50.5h-133q0 46 7 81.5t23.5 59.5t44 36t68.5 12q26 0 47.5 -10.5t41 -23t39 -23t40.5 -10.5q19 0 28.5 14.5t10.5 51.5h131q0 -91 -33 -140t-113 -49q-27 0 -49 10.5t-41.5 22.5t-38.5 22.5t-40 10.5z" />
    <glyph glyph-name="hungarumlaut" unicode="&#x2dd;" horiz-adv-x="587" 
d="M57 569l110 225h158l-137 -225h-131zM262 569l109 225h159l-137 -225h-131z" />
    <glyph glyph-name="uni03BC" unicode="&#x3bc;" horiz-adv-x="603" 
d="M216 519v-290q0 -48 21 -74t64 -26q42 0 65 30t23 76v284h180v-519h-174v85h-3q-10 -41 -40.5 -67t-74.5 -26q-7 0 -17 1.5t-20 4.5t-18.5 7.5t-11.5 10.5h-1v-193h-172v696h179z" />
    <glyph glyph-name="uni0E01" unicode="&#xe01;" horiz-adv-x="624" 
d="M27 323q0 131 71.5 194.5t200.5 63.5q140 0 215 -63.5t75 -173.5v-344h-182v325q0 51 -26.5 82.5t-81.5 31.5q-45 0 -73.5 -22.5t-33.5 -65.5l108 -23v-42q-36 -17 -50 -45.5t-14 -76.5v-164h-182v151q0 57 34.5 92t93.5 45l-155 25v10z" />
    <glyph glyph-name="uni0E02" unicode="&#xe02;" horiz-adv-x="596" 
d="M561 577v-370q0 -101 -64.5 -158t-202.5 -57q-139 0 -203 57t-64 158v19q0 46 12 79t30.5 55.5t40.5 36t42 19.5q0 23 -19.5 29.5t-42.5 6.5h-47v125h87q63 0 97.5 -16.5t50.5 -40t19 -49.5t3 -45v-24q-53 -27 -72.5 -68t-19.5 -98q0 -51 18 -74.5t68 -23.5t67.5 24
t17.5 74v341h182z" />
    <glyph glyph-name="uni0E03" unicode="&#xe03;" horiz-adv-x="643" 
d="M608 577v-370q0 -101 -64 -158t-203 -57t-203 57t-64 158v19q0 46 14 80.5t35.5 59t49 40.5t54.5 25q0 31 -14 43q-28 -51 -94 -51q-21 0 -41.5 6t-36.5 20t-26 37t-10 57v34h115v-14q0 -19 9 -29.5t23 -10.5q16 0 25.5 11.5t15.5 42.5h32q39 0 64.5 -12.5t40.5 -33.5
t20.5 -48t5.5 -57v-24q-19 -10 -37 -23.5t-32.5 -32.5t-23 -44t-8.5 -58v-8q0 -51 18 -74.5t68 -23.5q51 0 68.5 23.5t17.5 74.5v341h181z" />
    <glyph glyph-name="uni0E04" unicode="&#xe04;" horiz-adv-x="653" 
d="M28 351q0 52 20 94.5t58 72.5t93 46.5t126 16.5q143 0 218 -60.5t75 -164.5v-356h-181v328q0 51 -30.5 81t-81.5 30q-61 0 -88 -34t-27 -89q0 -42 1 -75t3 -65q9 27 22 53.5t30 47.5t39 34t48 13h29v-134h-17q-27 0 -47 -7t-34.5 -19.5t-25 -30t-20.5 -37.5v-96h-182v96
q-5 30 -10 58.5t-9 58.5t-6.5 64t-2.5 74z" />
    <glyph glyph-name="uni0E05" unicode="&#xe05;" horiz-adv-x="653" 
d="M454 582q47 0 78 -14.5t50.5 -40t27.5 -61t8 -76.5v-390h-181v385q0 26 -9.5 40t-29.5 14t-31 -14.5t-10 -33.5h-68q0 19 -10 33.5t-30 14.5q-21 0 -30.5 -22t-9.5 -50q0 -46 1.5 -94.5t4.5 -95.5q8 27 21 53.5t30.5 47.5t39 33.5t47.5 12.5h29v-134h-17q-27 0 -47 -7
t-34.5 -19.5t-25 -30t-20.5 -37.5v-96h-182v96q-10 60 -19 127.5t-9 148.5q0 44 8 82t27 66.5t50.5 45t78.5 16.5q109 0 132 -85q21 85 130 85z" />
    <glyph glyph-name="uni0E06" unicode="&#xe06;" horiz-adv-x="668" 
d="M74 0v226q0 46 14 80.5t35.5 59t49 40.5t54.5 25q0 31 -14 43q-28 -51 -94 -51q-21 0 -41.5 6t-36.5 20t-26 37t-10 57v34h115v-14q0 -19 9 -29.5t23 -10.5q16 0 25.5 11.5t15.5 42.5h32q39 0 64.5 -12.5t40.5 -33.5t20.5 -48t5.5 -57v-24q-19 -10 -37 -23.5t-32 -32
t-23 -42.5t-9 -56q0 -51 26 -80.5t73 -29.5q51 0 74 26.5t23 87.5v325h182v-376q0 -49 -15 -88t-41 -66t-61.5 -41t-76.5 -14q-76 0 -123.5 33.5t-63.5 90.5v-116h-178z" />
    <glyph glyph-name="uni0E07" unicode="&#xe07;" horiz-adv-x="612" 
d="M366 577q57 0 100.5 -6.5t72 -25t43 -52.5t14.5 -88q0 -38 -14 -86.5t-36.5 -101.5t-51.5 -108.5t-60 -108.5h-226l-210 577h181l148 -452h5q47 92 65.5 160t18.5 107q0 61 -58 61h-60v124h68z" />
    <glyph glyph-name="uni0E08" unicode="&#xe08;" horiz-adv-x="582" 
d="M30 209v104h143q25 0 39 -10.5t22 -28.5l64 -149h6q31 57 53.5 114t22.5 101q0 26 -8.5 44.5t-22.5 29.5t-31.5 16t-36.5 5q-29 0 -57 -14t-36 -49h-172q5 49 28 88t59.5 66t83.5 41t99 14q75 0 127 -19.5t84 -51.5t46.5 -72.5t14.5 -82.5q0 -37 -11 -73t-31 -77.5
t-49.5 -91.5t-66.5 -113h-198l-91 192q-4 8 -10 12.5t-17 4.5h-54z" />
    <glyph glyph-name="uni0E09" unicode="&#xe09;" horiz-adv-x="635" 
d="M422 0v116q-16 -57 -64 -90.5t-123 -33.5q-42 0 -77.5 14t-61.5 41t-40.5 66t-14.5 88v89h182v-38q0 -61 23 -87.5t73 -26.5q48 0 73.5 30.5t25.5 83.5v72q0 63 -30 87.5t-82 24.5q-39 0 -66 -16t-38 -48h-173q6 47 29 85.5t60 66t85 42.5t103 15q140 0 217 -61t77 -196
v-324h-178z" />
    <glyph glyph-name="uni0E0A" unicode="&#xe0a;" horiz-adv-x="596" 
d="M43 577h87q63 0 97.5 -16.5t50.5 -40t19 -49.5t3 -45v-24q-53 -27 -72.5 -68t-19.5 -98q0 -51 18 -74.5t68 -23.5t67.5 24t17.5 74v70q0 36 -11 56.5t-40 32.5v68q41 11 54.5 42t15.5 82h182q-2 -62 -26 -100t-73 -55q43 -14 61.5 -48.5t18.5 -97.5v-79
q0 -101 -64.5 -158t-202.5 -57q-139 0 -203 57t-64 158v19q0 46 12 79t30.5 55.5t40.5 36t42 19.5q0 23 -19.5 29.5t-42.5 6.5h-47v125z" />
    <glyph glyph-name="uni0E0B" unicode="&#xe0b;" horiz-adv-x="643" 
d="M5 577h115v-14q0 -19 5 -29.5t19 -10.5q15 0 24.5 11.5t16.5 42.5h31q39 0 64.5 -12.5t40.5 -33.5t20.5 -48t5.5 -57v-24q-38 -19 -65 -55.5t-27 -102.5v-8q0 -51 18 -74.5t68 -23.5q51 0 68.5 23.5t17.5 74.5v70q0 36 -11.5 56.5t-39.5 32.5v68q20 6 33 16.5t20.5 26
t11.5 36t5 45.5h181q-2 -62 -26 -100t-73 -55q43 -14 61.5 -48.5t18.5 -97.5v-79q0 -101 -64 -158t-203 -57t-203 57t-64 158v19q0 46 12.5 80.5t33 59t46 40.5t52.5 25q0 30 -13 43q-30 -51 -94 -51q-21 0 -40.5 6t-34 20t-23 37t-8.5 57v34z" />
    <glyph glyph-name="uni0E0C" unicode="&#xe0c;" horiz-adv-x="958" 
d="M33 141q0 31 12 55.5t33 43t48 30.5t57 18l-156 25v10q0 131 71 194.5t199 63.5q140 0 212 -63.5t72 -173.5v-80q0 -24 4.5 -47t15 -40.5t26.5 -28t39 -10.5q38 0 56.5 26.5t18.5 87.5v325h182v-376q0 -100 -46.5 -154.5t-134.5 -54.5q-66 0 -109 29.5t-60 86.5v-108
h-174v325q0 51 -23.5 82.5t-78.5 31.5q-45 0 -72.5 -22.5t-32.5 -65.5l108 -23v-42q-32 -16 -56.5 -39.5t-24.5 -58.5q0 -28 17 -46t46 -18h27v-124h-82q-34 0 -69 6.5t-62.5 22t-45 43t-17.5 69.5z" />
    <glyph glyph-name="uni0E0D" unicode="&#xe0d;" horiz-adv-x="958" 
d="M33 141q0 31 12 55.5t33 43t48 30.5t57 18l-156 25v10q0 131 71 194.5t199 63.5q140 0 212 -63.5t72 -173.5v-101q0 -61 21 -83t59 -22t59 22t21 83v334h182v-367q0 -99 -64.5 -158.5t-197.5 -59.5q-132 0 -197 59.5t-65 158.5v115q0 51 -23.5 82.5t-78.5 31.5
q-45 0 -72.5 -22.5t-32.5 -65.5l108 -23v-42q-32 -16 -56.5 -39.5t-24.5 -58.5q0 -28 17 -46t46 -18h27v-124h-82q-34 0 -69 6.5t-62.5 22t-45 43t-17.5 69.5zM896 -112v-103h-311q-58 0 -92.5 12t-52.5 33t-23.5 48.5t-5.5 57.5v17h153v-17q0 -33 16 -40.5t56 -7.5h260z
" />
    <glyph glyph-name="uni0E0E" unicode="&#xe0e;" horiz-adv-x="628" 
d="M31 323q0 131 71.5 194.5t200.5 63.5q140 0 215 -63.5t75 -173.5v-544h-141q-49 31 -86.5 44t-67.5 13q-39 0 -58.5 -17t-21.5 -40h-169q4 50 21 83.5t43 53.5t59.5 28.5t70.5 8.5q44 0 87 -11.5t81 -29.5v392q0 51 -26 82.5t-82 31.5q-45 0 -73.5 -22.5t-33.5 -65.5
l113 -23v-42q-58 -25 -58 -99v-47q0 -72 -39 -106t-119 -34h-77v125h23q41 0 41 49v19q0 38 27 63.5t85 31.5l-161 25v10z" />
    <glyph glyph-name="uni0E0F" unicode="&#xe0f;" horiz-adv-x="628" 
d="M184 -35q4 -25 16.5 -40t36.5 -15q26 0 41 14.5t25 40.5h42l66 -60v420q0 51 -26 82.5t-82 31.5q-45 0 -73.5 -22.5t-33.5 -65.5l113 -23v-42q-58 -25 -58 -99v-47q0 -72 -39 -106t-119 -34h-77v125h23q41 0 41 49v19q0 38 27 63.5t85 31.5l-161 25v10q0 131 71.5 194.5
t200.5 63.5q140 0 215 -63.5t75 -173.5v-544h-184l-75 67q-17 -33 -55.5 -52.5t-88.5 -19.5q-149 0 -167 170h161z" />
    <glyph glyph-name="uni0E10" unicode="&#xe10;" horiz-adv-x="584" 
d="M625 620l-115 -141q49 -54 49 -124q0 -37 -11 -73t-31 -77.5t-49.5 -91.5t-66.5 -113h-198l-92 192q-6 17 -26 17h-54v104h143q25 0 38.5 -10.5t21.5 -28.5l65 -149h6q15 29 29 58t24.5 56.5t16.5 53t6 47.5q0 26 -8.5 44.5t-22.5 29.5t-32 16t-36 5q-30 0 -57.5 -14
t-35.5 -49h-172q5 49 28 88t59.5 66t83.5 41t99 14q70 0 119 -24l52 63h167zM539 -55v-165h-149l-74 68q-17 -33 -56 -52.5t-89 -19.5q-75 0 -113.5 41.5t-47.5 127.5h155q4 -24 16.5 -39.5t37.5 -15.5q26 0 40.5 14.5t24.5 40.5h42l67 -60v60h146z" />
    <glyph glyph-name="uni0E11" unicode="&#xe11;" horiz-adv-x="678" 
d="M5 577h115v-14q0 -19 9 -29.5t23 -10.5q16 0 25.5 11.5t15.5 42.5h40q45 0 72 -19.5t32 -53.5q45 39 84 58.5t82 19.5q39 0 66 -13t43.5 -35t23.5 -49t7 -56v-429h-182v377q0 26 -7.5 37t-27.5 11t-43.5 -18t-50.5 -44q-30 -29 -46 -67t-16 -101v-195h-182v195
q0 39 11.5 72t30.5 62t44.5 54.5t52.5 48.5q0 14 -3.5 25t-10.5 17q-28 -51 -94 -51q-21 0 -41.5 6t-36.5 20t-26 37t-10 57v34z" />
    <glyph glyph-name="uni0E12" unicode="&#xe12;" horiz-adv-x="996" 
d="M399 272q0 -122 -55 -188t-151 -84h-158v390q0 41 8 76.5t26.5 61t49 40t76.5 14.5q109 0 130 -85q21 85 130 85q47 0 78.5 -14.5t50.5 -40t27 -61t8 -76.5v-126q0 -24 5 -47t15.5 -40.5t26.5 -28t39 -10.5q38 0 56.5 26.5t18.5 87.5v325h181v-376q0 -100 -46.5 -154.5
t-134.5 -54.5q-66 0 -108.5 29.5t-59.5 86.5v-108h-174v385q0 26 -9.5 40t-29.5 14t-31 -14.5t-9 -33.5h-67q1 19 -10 33.5t-31 14.5t-29 -14t-9 -40v-287q14 6 26 18t21.5 28t15 34.5t5.5 37.5h-36v103h154v-47z" />
    <glyph glyph-name="uni0E13" unicode="&#xe13;" horiz-adv-x="958" 
d="M923 0h-175v108q-17 -57 -59.5 -86.5t-108.5 -29.5q-88 0 -134.5 54.5t-46.5 154.5v124q0 51 -23.5 82.5t-78.5 31.5q-45 0 -72.5 -22.5t-32.5 -65.5l108 -23v-42q-32 -16 -56.5 -39.5t-24.5 -58.5q0 -28 17 -46t46 -18h27v-124h-82q-34 0 -69 6.5t-62.5 22t-45 43
t-17.5 69.5q0 31 12 55.5t33 43t48 30.5t57 18l-156 25v10q0 131 71 194.5t199 63.5q140 0 212 -63.5t72 -173.5v-92q0 -61 18.5 -87.5t56.5 -26.5q23 0 39 10.5t26.5 28t15 40.5t4.5 47v313h182v-577z" />
    <glyph glyph-name="uni0E14" unicode="&#xe14;" horiz-adv-x="646" 
d="M323 439q-50 0 -80 -31.5t-30 -82.5v-227q14 6 26 18t21 28t14 34.5t5 37.5h-35v103h154v-47q0 -121 -56 -187.5t-151 -84.5h-156v348q0 52 18.5 95t54.5 73.5t90 47.5t125 17t125 -17t90 -47.5t54.5 -73.5t18.5 -95v-348h-177v325q0 51 -30 82.5t-81 31.5z" />
    <glyph glyph-name="uni0E15" unicode="&#xe15;" horiz-adv-x="652" 
d="M401 272q0 -121 -55.5 -187.5t-150.5 -84.5h-160v390q0 41 8 76.5t26.5 61t50 40t77.5 14.5q109 0 130 -85q21 85 130 85q47 0 77.5 -14.5t49 -40t26 -61t7.5 -76.5v-390h-178v385q0 26 -9 40t-29 14t-31 -14.5t-9 -33.5h-68q2 19 -9 33.5t-31 14.5t-29.5 -14t-9.5 -40
v-287q14 6 26.5 18t22 28t15 34.5t5.5 37.5h-36v103h154v-47z" />
    <glyph glyph-name="uni0E16" unicode="&#xe16;" horiz-adv-x="624" 
d="M33 141q0 31 12 55.5t33 43t48 30.5t57 18l-156 25v10q0 131 71.5 194.5t200.5 63.5q140 0 215 -63.5t75 -173.5v-344h-182v325q0 51 -26.5 82.5t-81.5 31.5q-45 0 -73.5 -22.5t-33.5 -65.5l108 -23v-42q-32 -16 -56.5 -39.5t-24.5 -58.5q0 -28 17 -46t46 -18h27v-124
h-82q-34 0 -69 6.5t-62.5 22t-45 43t-17.5 69.5z" />
    <glyph glyph-name="uni0E17" unicode="&#xe17;" horiz-adv-x="629" 
d="M35 577h178v-119q16 57 64 90t124 33q41 0 76.5 -14t61.5 -40.5t40.5 -65t14.5 -88.5v-373h-181v322q0 61 -23 87.5t-74 26.5q-48 0 -73.5 -30.5t-25.5 -83.5v-322h-182v577z" />
    <glyph glyph-name="uni0E18" unicode="&#xe18;" horiz-adv-x="589" 
d="M201 394q96 -20 164 -37t111.5 -38t64 -49t20.5 -70v-19q0 -49 -20 -84.5t-56 -58t-85.5 -33t-109.5 -10.5q-56 0 -103.5 11t-82 34.5t-54.5 59.5t-20 86v65h182v-59q0 -16 7 -27.5t18.5 -18.5t26 -10t29.5 -3t30.5 2.5t27.5 8.5t19.5 16.5t7.5 26.5v14q0 23 -19 38
t-61 28.5t-108 27.5t-160 34v16q0 64 23.5 108.5t61.5 73t85.5 41.5t96.5 13q50 0 95.5 -14t81.5 -39t59 -60t29 -78h-170q-9 23 -34 39t-61 16q-35 0 -60 -11t-36 -40z" />
    <glyph glyph-name="uni0E19" unicode="&#xe19;" horiz-adv-x="629" 
d="M594 0h-177v116q-17 -57 -64.5 -90.5t-123.5 -33.5q-41 0 -76.5 14t-61.5 41t-41 66t-15 88v376h182v-325q0 -61 23 -87.5t74 -26.5q48 0 73.5 30.5t25.5 83.5v325h181v-577z" />
    <glyph glyph-name="uni0E1A" unicode="&#xe1a;" horiz-adv-x="636" 
d="M601 577v-344q0 -52 -17.5 -96t-52.5 -76.5t-88 -50.5t-124 -18t-124 18t-88.5 50.5t-53.5 76.5t-18 96v344h182v-315q0 -66 25.5 -95t76.5 -29t75.5 29t24.5 95v315h182z" />
    <glyph glyph-name="uni0E1B" unicode="&#xe1b;" horiz-adv-x="636" 
d="M601 750v-517q0 -52 -17.5 -96t-52.5 -76.5t-88 -50.5t-124 -18t-124 18t-88.5 50.5t-53.5 76.5t-18 96v344h182v-315q0 -66 25.5 -95t76.5 -29t75.5 29t24.5 95v488h182z" />
    <glyph glyph-name="uni0E1C" unicode="&#xe1c;" horiz-adv-x="659" 
d="M35 399q0 94 47 138t136 44h74v-125h-32q-43 0 -43 -50v-201l91 141h43l91 -141v372h182v-577h-160l-134 208l-135 -208h-160v399z" />
    <glyph glyph-name="uni0E1D" unicode="&#xe1d;" horiz-adv-x="659" 
d="M35 399q0 94 47 138t136 44h74v-125h-32q-43 0 -43 -50v-201l91 141h43l91 -141v545h182v-750h-160l-134 208l-135 -208h-160v399z" />
    <glyph glyph-name="uni0E1E" unicode="&#xe1e;" horiz-adv-x="784" 
d="M780 577l-122 -577h-160l-106 379l-106 -379h-160l-122 577h183l51 -329l92 316h126l90 -316l51 329h183z" />
    <glyph glyph-name="uni0E1F" unicode="&#xe1f;" horiz-adv-x="782" 
d="M811 751l-153 -751h-160l-106 379l-106 -379h-160l-122 577h183l51 -329l92 316h126l90 -316l82 503h183z" />
    <glyph glyph-name="uni0E20" unicode="&#xe20;" horiz-adv-x="628" 
d="M31 323q0 131 71.5 194.5t200.5 63.5q140 0 215 -63.5t75 -173.5v-344h-182v325q0 51 -26 82.5t-82 31.5q-45 0 -73.5 -22.5t-33.5 -65.5l113 -23v-42q-58 -25 -58 -99v-47q0 -72 -39 -106t-119 -34h-77v125h23q41 0 41 49v19q0 38 27 63.5t85 31.5l-161 25v10z" />
    <glyph glyph-name="uni0E21" unicode="&#xe21;" horiz-adv-x="629" 
d="M35 0v577h182v-325q0 -53 25.5 -83.5t73.5 -30.5q51 0 74 26.5t23 87.5v325h181v-376q0 -49 -14.5 -88t-40.5 -66t-61.5 -41t-76.5 -14q-76 0 -124 33.5t-64 90.5v-116h-178z" />
    <glyph glyph-name="uni0E22" unicode="&#xe22;" horiz-adv-x="617" 
d="M582 577v-347q0 -55 -16.5 -99t-51 -75t-88.5 -47.5t-129 -16.5q-135 0 -200.5 49.5t-65.5 131.5q0 52 28 88.5t80 49.5q-52 12 -79 46t-27 80q0 76 52 108t139 32h84v-124h-38q-61 0 -61 -47q0 -15 9 -25t22.5 -16t29.5 -8.5t31 -2.5h28v-92h-18q-19 0 -36 -3t-30 -10
t-20.5 -19t-7.5 -29q0 -27 19.5 -45t68.5 -18q54 0 75 26.5t21 84.5v328h181z" />
    <glyph glyph-name="uni0E23" unicode="&#xe23;" horiz-adv-x="552" 
d="M203 401q0 -23 33 -34t84 -22q36 -7 73 -17t67 -28.5t49 -48t19 -75.5q0 -50 -23 -85t-59 -57t-81 -32t-89 -10q-45 0 -90 10.5t-80.5 34t-57.5 60t-23 88.5h157q11 -26 37 -40t58 -14q13 0 27 2.5t25 7.5t18.5 13.5t7.5 20.5q0 14 -13 23.5t-35 16.5t-51.5 13t-62.5 15
q-32 8 -61.5 20t-52 30t-36 44.5t-13.5 63.5q0 48 22 82t57.5 56t80 32t88.5 10q42 0 85.5 -9.5t78.5 -32t58 -59t23 -90.5h-159q-5 28 -30 40.5t-57 12.5q-12 0 -25.5 -2t-24 -7t-17.5 -13t-7 -20z" />
    <glyph glyph-name="uni0E24" unicode="&#xe24;" horiz-adv-x="624" 
d="M33 141q0 31 12 55.5t33 43t48 30.5t57 18l-156 25v10q0 131 71.5 194.5t200.5 63.5q140 0 215 -63.5t75 -173.5v-544h-182v525q0 51 -26.5 82.5t-81.5 31.5q-45 0 -73.5 -22.5t-33.5 -65.5l108 -23v-42q-32 -16 -56.5 -39.5t-24.5 -58.5q0 -28 17 -46t46 -18h27v-124
h-82q-34 0 -69 6.5t-62.5 22t-45 43t-17.5 69.5z" />
    <glyph glyph-name="uni0E25" unicode="&#xe25;" horiz-adv-x="614" 
d="M579 0h-181v236l-106 -9q-37 -2 -58 -14.5t-21 -41.5q0 -21 12 -33.5t38 -12.5h50v-125h-98q-40 0 -74.5 9.5t-60 29.5t-40 50t-14.5 70q0 41 16 71t46.5 50.5t74 32t98.5 15.5l138 10v7q0 51 -25.5 71t-70.5 20q-32 0 -57 -16t-36 -48h-172q5 47 27.5 85.5t57.5 66
t81 42.5t99 15q137 0 206.5 -61t69.5 -196v-324z" />
    <glyph glyph-name="uni0E26" unicode="&#xe26;" horiz-adv-x="628" 
d="M31 323q0 131 71.5 194.5t200.5 63.5q140 0 215 -63.5t75 -173.5v-544h-182v525q0 51 -26 82.5t-82 31.5q-45 0 -73.5 -22.5t-33.5 -65.5l113 -23v-42q-58 -25 -58 -99v-47q0 -72 -39 -106t-119 -34h-77v125h23q41 0 41 49v19q0 38 27 63.5t85 31.5l-161 25v10z" />
    <glyph glyph-name="uni0E27" unicode="&#xe27;" horiz-adv-x="585" 
d="M281 581q134 0 206.5 -76t72.5 -216q0 -139 -69.5 -216t-209.5 -77q-52 0 -97 15t-79.5 43t-56 66.5t-27.5 84.5h173q11 -31 34 -47t54 -16q49 0 74.5 40t25.5 107t-25.5 107t-74.5 40q-31 0 -54 -16t-34 -48h-173q6 47 27.5 85.5t56 66t79.5 42.5t97 15z" />
    <glyph glyph-name="uni0E28" unicode="&#xe28;" horiz-adv-x="654" 
d="M28 351q0 52 19.5 94.5t57.5 72.5t93.5 46.5t126.5 16.5q36 0 67 -5.5t57 -15.5l49 60h167l-104 -127q27 -26 41.5 -59.5t14.5 -77.5v-356h-182v328q0 51 -29.5 81t-80.5 30q-62 0 -88.5 -34t-26.5 -89q0 -42 1 -75t3 -65q9 27 22 53.5t30 47.5t39 34t48 13h29v-134h-17
q-27 0 -47 -7t-34.5 -19.5t-25 -30t-20.5 -37.5v-96h-182v96q-5 30 -10 58.5t-9 58.5t-6.5 64t-2.5 74z" />
    <glyph glyph-name="uni0E29" unicode="&#xe29;" horiz-adv-x="654" 
d="M601 577v-220h43v-104h-43v-20q0 -52 -17.5 -96t-52.5 -76.5t-88 -50.5t-124 -18t-124 18t-88.5 50.5t-53.5 76.5t-18 96v344h182v-315q0 -66 25.5 -95t76.5 -29q48 0 74 26t26 83v6h-14q-54 0 -84.5 12t-45.5 33t-19 48.5t-4 57.5v16h124v-16q0 -33 6 -40t26 -7h11v220
h182z" />
    <glyph glyph-name="uni0E2A" unicode="&#xe2a;" horiz-adv-x="616" 
d="M579 0h-181v236l-106 -9q-37 -2 -58 -14.5t-21 -41.5q0 -21 12 -33.5t38 -12.5h50v-125h-98q-40 0 -74.5 9.5t-60 29.5t-40 50t-14.5 70q0 41 16 71t46.5 50.5t74 32t98.5 15.5l138 10v7q0 51 -25.5 71t-70.5 20q-32 0 -57 -16t-36 -48h-172q5 47 27.5 85.5t57.5 66
t81 42.5t99 15q37 0 68.5 -6.5t57.5 -17.5l53 63h167l-117 -144q22 -27 34.5 -64t12.5 -88v-324z" />
    <glyph glyph-name="uni0E2B" unicode="&#xe2b;" horiz-adv-x="620" 
d="M406 188q0 24 -8 38.5t-22 22t-33 8t-42 -2.5l-84 -11v-243h-182v577h182v-215l76 10q59 8 86 32t27 82v91h182v-91q0 -71 -37 -109t-106 -52q31 -1 57 -8.5t45 -25t30 -46t11 -71.5v-174h-182v188z" />
    <glyph glyph-name="uni0E2C" unicode="&#xe2c;" horiz-adv-x="774" 
d="M815 708q-6 -31 -16.5 -60t-27 -53.5t-40 -42.5t-55.5 -27q42 -18 57 -53t3 -93l-78 -379h-160l-106 379l-107 -379h-159l-122 577h183l51 -329l92 316h126l90 -316l27 147q8 45 -1 71.5t-48 28.5v82q29 0 50.5 10t36.5 28t23.5 42t11.5 51h169z" />
    <glyph glyph-name="uni0E2D" unicode="&#xe2d;" horiz-adv-x="605" 
d="M299 581q63 0 115 -19t89.5 -55.5t58 -90.5t20.5 -124t-18.5 -125.5t-54.5 -94.5t-88.5 -59.5t-121.5 -20.5q-62 0 -111.5 15t-84 42.5t-53 65.5t-18.5 84q0 22 5.5 46.5t20.5 45t42 34t70 13.5h145v-104h-80q-18 0 -24 -13.5t-6 -24.5q0 -31 27.5 -44.5t65.5 -13.5
q32 0 53.5 11.5t34.5 32t18 48.5t5 62q0 43 -10.5 70.5t-27 44t-36 23t-38.5 6.5q-30 0 -59 -15.5t-39 -48.5h-171q6 49 29.5 88t60 66t83.5 41t98 14z" />
    <glyph glyph-name="uni0E2E" unicode="&#xe2e;" horiz-adv-x="607" 
d="M299 581q67 0 118 -24l52 63h167l-116 -143q29 -34 45.5 -80t16.5 -105q0 -70 -18.5 -125.5t-54.5 -94.5t-88.5 -59.5t-121.5 -20.5q-62 0 -111.5 15t-84 42.5t-53 65.5t-18.5 84q0 22 5.5 46.5t20.5 45t42 34t70 13.5h145v-104h-80q-18 0 -24 -13.5t-6 -24.5
q0 -31 27.5 -44.5t65.5 -13.5q32 0 53.5 11.5t34.5 32t18 48.5t5 62q0 43 -10.5 70.5t-27 44t-36 23t-38.5 6.5q-30 0 -59 -15.5t-39 -48.5h-171q6 49 29.5 88t60 66t83.5 41t98 14z" />
    <glyph glyph-name="uni0E2F" unicode="&#xe2f;" horiz-adv-x="616" 
d="M562 577v-577h-181v322q-12 -55 -53 -85.5t-109 -30.5q-42 0 -77.5 12t-61.5 35.5t-41 59t-15 83.5q0 51 17.5 86t47.5 56.5t69 30.5t82 9h52v-125h-34q-23 0 -36.5 -15.5t-13.5 -38.5q0 -28 15.5 -43t50.5 -15q27 0 47 9.5t33.5 26t20 39.5t6.5 49v112h181z" />
    <glyph glyph-name="uni0E30" unicode="&#xe30;" horiz-adv-x="361" 
d="M341 447v-112h-150q-58 0 -92.5 12.5t-52.5 33.5t-23.5 49t-5.5 58v20h152v-11q0 -33 16 -42t57 -8h99zM341 161v-113h-150q-58 0 -92.5 12.5t-52.5 34t-23.5 49.5t-5.5 58v19h152v-10q0 -34 16 -42.5t57 -7.5h99z" />
    <glyph glyph-name="uni0E31" unicode="&#xe31;" 
d="M21 759v-104h-310q-58 0 -92.5 12.5t-52.5 33.5t-23.5 49t-5.5 58v20h152v-20q0 -33 16 -41.5t57 -7.5h259z" />
    <glyph glyph-name="uni0E32" unicode="&#xe32;" horiz-adv-x="469" 
d="M200 581q48 0 90.5 -12t73.5 -39t49 -71.5t18 -109.5v-349h-182v337q0 50 -21 77t-81 27q-24 0 -54.5 -5.5t-72.5 -20.5v123q38 22 85 32.5t95 10.5z" />
    <glyph glyph-name="uni0E33" unicode="&#xe33;" horiz-adv-x="469" 
d="M-158 880q56 0 93.5 -31.5t37.5 -88.5t-37.5 -87.5t-93.5 -30.5t-93.5 30.5t-37.5 87.5q0 59 37.5 89.5t93.5 30.5zM-158 721q17 0 29 11.5t12 27.5q0 19 -12 30t-29 11t-29 -11t-12 -30q0 -16 12 -27.5t29 -11.5zM200 581q48 0 90.5 -12t73.5 -39t49 -71.5t18 -109.5
v-349h-182v337q0 50 -21 77t-81 27q-24 0 -54.5 -5.5t-72.5 -20.5v123q38 22 85 32.5t95 10.5z" />
    <glyph glyph-name="uni0E34" unicode="&#xe34;" 
d="M-563 655v104h528v-104h-528z" />
    <glyph glyph-name="uni0E35" unicode="&#xe35;" 
d="M-563 759h368v79h160v-183h-528v104z" />
    <glyph glyph-name="uni0E36" unicode="&#xe36;" 
d="M-136 849q51 0 78.5 -23t27.5 -74q0 -50 -27.5 -73.5t-78.5 -23.5h-427v104h326q-2 2 -2 6q0 35 23.5 59.5t79.5 24.5zM-167 752q0 -14 8.5 -22.5t22.5 -8.5t22.5 8.5t8.5 22.5q0 31 -31 31t-31 -31z" />
    <glyph glyph-name="uni0E37" unicode="&#xe37;" 
d="M-563 759h245v77h116v-77h51v77h116v-181h-528v104z" />
    <glyph glyph-name="uni0E38" unicode="&#xe38;" 
d="M-40 -288h-160v116h-86v104h246v-220z" />
    <glyph glyph-name="uni0E39" unicode="&#xe39;" 
d="M-40 -68v-92q0 -42 -19 -68t-47 -40t-60.5 -18.5t-59.5 -4.5q-25 0 -55 4t-55.5 16t-43 33.5t-17.5 56.5v9h-66v104h197v-68q0 -23 8 -38t32 -15q23 0 31 15t8 38v68h147z" />
    <glyph glyph-name="uni0E3A" unicode="&#xe3a;" 
d="M-228 -163q0 40 27.5 67.5t67.5 27.5q19 0 36.5 -7.5t30 -20t20 -30t7.5 -37.5q0 -19 -7.5 -36.5t-20 -30.5t-30 -20.5t-36.5 -7.5q-20 0 -37.5 7.5t-30 20.5t-20 30.5t-7.5 36.5z" />
    <glyph glyph-name="uni0E3F" unicode="&#xe3f;" horiz-adv-x="661" 
d="M41 700h188v98h158v-98q102 -2 159 -46t57 -123q0 -31 -8.5 -59.5t-25 -51.5t-40 -38t-54.5 -20v-3q36 -1 65.5 -15t50.5 -36.5t32.5 -53t11.5 -65.5q0 -46 -17.5 -81t-49.5 -59t-77.5 -36.5t-101.5 -12.5h-2v-104h-158v104h-188v700zM325 412q45 0 69 18.5t24 54.5
q0 76 -91 76h-101v-149h99zM334 141q54 0 81 17t27 59q0 43 -27.5 60t-80.5 17h-108v-153h108z" />
    <glyph glyph-name="uni0E40" unicode="&#xe40;" horiz-adv-x="335" 
d="M240 0q-90 0 -137 47.5t-47 150.5v379h182v-398q0 -27 14.5 -40.5t35.5 -13.5h35l-1 -125h-82z" />
    <glyph glyph-name="uni0E41" unicode="&#xe41;" horiz-adv-x="637" 
d="M240 0q-90 0 -137 47.5t-47 150.5v379h182v-398q0 -27 14.5 -40.5t35.5 -13.5h35l-1 -125h-82zM542 0q-90 0 -137 47.5t-47 150.5v379h181v-398q0 -27 15 -40.5t35 -13.5h35l-1 -125h-81z" />
    <glyph glyph-name="uni0E42" unicode="&#xe42;" horiz-adv-x="372" 
d="M277 0q-90 0 -137 47.5t-47 150.5v309q0 32 -9 54t-23 37t-31 23.5t-34 13.5v30q0 34 12.5 61.5t34.5 47t53 30.5t67 11h213v-124h-174q-20 0 -35.5 -6.5t-15.5 -23.5q60 -20 92 -56t32 -97v-329q0 -27 14.5 -40.5t35.5 -13.5h35l-1 -125h-82z" />
    <glyph glyph-name="uni0E43" unicode="&#xe43;" horiz-adv-x="373" 
d="M278 0q-90 0 -137 47.5t-47 150.5v238q0 32 10.5 56.5t25.5 44.5t33.5 35.5t33.5 29.5t25.5 27t10.5 27q0 20 -11.5 34t-39.5 14q-12 0 -23 -2.5t-19.5 -10t-13.5 -20t-5 -33.5h-145q0 52 16.5 88.5t45 59.5t66 33.5t80.5 10.5q92 0 146 -39.5t54 -126.5q0 -43 -17 -71.5
t-37 -52.5t-37 -49t-17 -63v-249q0 -27 15 -40.5t35 -13.5h35l-1 -125h-82z" />
    <glyph glyph-name="uni0E44" unicode="&#xe44;" horiz-adv-x="373" 
d="M278 0q-90 0 -137 47.5t-47 150.5v259q0 46 12 81.5t31.5 61.5t45 43t52.5 26q0 17 -6.5 28.5t-16.5 17.5q-15 -27 -38.5 -42t-60.5 -15q-21 0 -44 6.5t-42 20.5t-31 38t-12 58v34h128v-14q0 -20 10 -31t24 -11q17 0 27 12.5t16 43.5h32q39 0 66.5 -12.5t44.5 -33.5
t24.5 -48t7.5 -57v-24q-38 -20 -63 -59t-25 -105v-297q0 -27 15 -40.5t35 -13.5h35l-1 -125h-82z" />
    <glyph glyph-name="uni0E45" unicode="&#xe45;" horiz-adv-x="469" 
d="M200 581q48 0 90 -12t73 -39t49 -71.5t18 -109.5v-549h-181v537q0 50 -21.5 77t-80.5 27q-24 0 -54.5 -5.5t-72.5 -20.5v123q38 22 84.5 32.5t95.5 10.5z" />
    <glyph glyph-name="uni0E46" unicode="&#xe46;" horiz-adv-x="622" 
d="M387 -120v444q0 25 -4.5 39t-23.5 14q-15 0 -23.5 -10.5t-8.5 -36.5h-62q0 26 -8.5 36.5t-28.5 10.5q-15 0 -21 -14t-6 -39v-19q0 -26 14 -40t37 -14h41v-113h-45q-45 0 -85.5 7.5t-71.5 27.5t-49 54.5t-18 87.5v41q0 82 36 123t105 41q57 0 87.5 -21t40.5 -63
q10 42 43.5 63t85.5 21q81 0 113.5 -41t32.5 -123v-476h-181z" />
    <glyph glyph-name="uni0E47" unicode="&#xe47;" 
d="M-231 796q1 -25 18.5 -40t38.5 -15h73v-104h-43q-36 0 -68.5 15.5t-47.5 44.5q-14 -29 -41.5 -44.5t-63.5 -15.5q-60 0 -96.5 38.5t-36.5 104.5q0 67 41 106.5t127 39.5h253v-104h-247q-16 0 -32 -7.5t-16 -30.5q0 -22 13.5 -29.5t24.5 -7.5q15 0 30 12t15 37h58z" />
    <glyph glyph-name="uni0E48" unicode="&#xe48;" 
d="M-203 880v234h157v-234h-157z" />
    <glyph glyph-name="uni0E49" unicode="&#xe49;" 
d="M17 984v-104h-219q-30 0 -49 6t-29.5 16t-14.5 23t-4 27q0 23 -9.5 31.5t-27.5 8.5h-69v102h142q31 0 51.5 -12t20.5 -53q0 -33 14 -39t37 -6h157z" />
    <glyph glyph-name="uni0E4A" unicode="&#xe4a;" 
d="M-547 980q0 22 5.5 43.5t18.5 38.5t34 27.5t52 10.5q25 0 48 -10t39 -37q16 27 37.5 37t46.5 10q56 0 78 -32.5t22 -85.5v-46q17 0 23.5 10.5t6.5 30.5v134h109v-137q0 -49 -29 -80t-101 -31h-119v112q0 30 -25 30q-10 0 -17 -5.5t-7 -20.5h-51q0 15 -7 20.5t-15 5.5
q-14 0 -20 -9t-6 -24q0 -16 9 -25.5t36 -9.5h26v-74h-62q-26 0 -50 6t-42 19.5t-29 36t-11 55.5z" />
    <glyph glyph-name="uni0E4B" unicode="&#xe4b;" 
d="M27 955h-96v-75h-134v75h-95v84h95v75h134v-75h96v-84z" />
    <glyph glyph-name="uni0E4C" unicode="&#xe4c;" 
d="M-138 884q-41 1 -57 -7.5t-16 -41.5v-20h-152v20q0 30 5.5 58t23.5 49t52.5 33.5t92.5 12.5h171v-104h-120z" />
    <glyph glyph-name="uni0E4D" unicode="&#xe4d;" 
d="M-158 880q56 0 93.5 -31.5t37.5 -88.5t-37.5 -87.5t-93.5 -30.5t-93.5 30.5t-37.5 87.5q0 59 37.5 89.5t93.5 30.5zM-158 721q17 0 29 11.5t12 27.5q0 19 -12 30t-29 11t-29 -11t-12 -30q0 -16 12 -27.5t29 -11.5z" />
    <glyph glyph-name="uni0E4E" unicode="&#xe4e;" 
 />
    <glyph glyph-name="uni0E4F" unicode="&#xe4f;" horiz-adv-x="528" 
d="M264 527q43 0 81 -16.5t66.5 -45t45 -67t16.5 -81.5t-16.5 -81.5t-45 -66.5t-66.5 -44.5t-81 -16.5t-81.5 16.5t-66.5 44.5t-44.5 66.5t-16.5 81.5t16.5 81.5t44.5 67t66.5 45t81.5 16.5zM264 147q35 0 65 13.5t52.5 36.5t35.5 54t13 66t-13 65t-35.5 52.5t-52.5 35.5
t-65 13t-66 -13t-54 -35.5t-36.5 -52.5t-13.5 -65t13.5 -66t36.5 -54t54 -36.5t66 -13.5zM264 442q26 0 48.5 -9.5t39 -26.5t26.5 -39.5t10 -49.5q0 -26 -10 -49t-26.5 -40t-39 -27t-48.5 -10t-49 10t-40 27t-27 40t-10 49q0 27 10 49.5t27 39.5t40 26.5t49 9.5zM264 228
q38 0 62 26t24 63q0 38 -24 62t-62 24q-37 0 -63 -24t-26 -62q0 -37 26 -63t63 -26z" />
    <glyph glyph-name="uni0E50" unicode="&#xe50;" horiz-adv-x="623" 
d="M311 526q63 0 116.5 -17t92.5 -51t61 -84t22 -115t-22 -115t-61 -83.5t-92.5 -51t-116.5 -17.5t-116.5 17.5t-92 51t-60 83.5t-21.5 115t21.5 115t60 84t92 51t116.5 17zM311 131q24 0 45 7.5t37 23t25.5 39.5t9.5 58t-9.5 58.5t-25.5 40t-37 23t-45 7.5t-44.5 -7.5
t-36.5 -23t-25 -40t-9 -58.5t9 -58.5t25 -40t36.5 -22.5t44.5 -7z" />
    <glyph glyph-name="uni0E51" unicode="&#xe51;" horiz-adv-x="624" 
d="M297 90q-49 -5 -98.5 2.5t-89 30t-64 63t-24.5 101.5q0 65 22 110t61 74t92 42t115 13q63 0 117 -19t93 -56t61 -92t22 -128q0 -59 -20 -119t-65.5 -107.5t-119.5 -76t-182 -25.5v129q62 -2 103 16t65 47.5t34 65.5t10 70q0 39 -9.5 68.5t-26 49t-37.5 29.5t-45 10
q-23 0 -44 -5t-36.5 -16.5t-25 -31t-9.5 -48.5q0 -17 8 -31.5t21.5 -24t32 -13.5t39.5 -1v-127z" />
    <glyph glyph-name="uni0E52" unicode="&#xe52;" horiz-adv-x="812" 
d="M771 235q0 -64 -30 -110t-80.5 -75.5t-116 -43.5t-137.5 -14t-138 14t-116.5 43.5t-80.5 75.5t-30 110v447h170v-430q0 -44 21.5 -71t52 -42t64 -20t57.5 -5t57.5 5t63.5 20t51.5 42t21.5 71v77q0 26 -4 39t-23 13q-12 0 -21.5 -9.5t-15.5 -35.5h-66q-7 26 -15.5 35.5
t-22.5 9.5q-18 0 -22.5 -13t-4.5 -39v-10q0 -25 17.5 -36t45.5 -11q8 0 15 0.5t15 1.5v-97q-40 -6 -77 -6t-68 8t-53 25.5t-34.5 46t-12.5 69.5v40q0 41 6 72t21 52t41 31.5t66 10.5q54 0 80 -21.5t36 -63.5q10 42 36.5 63.5t79.5 21.5q44 0 73.5 -10.5t46.5 -31.5t24 -52
t7 -72v-125z" />
    <glyph glyph-name="uni0E53" unicode="&#xe53;" horiz-adv-x="680" 
d="M466 526q54 0 88 -10.5t52.5 -31.5t25.5 -52t7 -72v-360h-182v329q0 53 -35 53q-14 0 -23.5 -10t-14.5 -36h-78q-8 27 -18.5 36.5t-23.5 9.5q-16 0 -25 -10.5t-13.5 -28t-5.5 -40t-1 -47.5q0 -65 25 -96t87 -32q16 0 31 3v-128q-22 -5 -44 -6t-42 -1q-54 0 -98 13.5
t-75.5 42.5t-48.5 75.5t-17 113.5q0 61 6 113t25.5 90.5t55 60t95.5 21.5q50 0 82 -21.5t42 -63.5q10 42 41.5 63.5t81.5 21.5z" />
    <glyph glyph-name="uni0E54" unicode="&#xe54;" horiz-adv-x="648" 
d="M312 390q-38 0 -66.5 -34t-28.5 -101q0 -60 28.5 -95t91.5 -35q3 0 20.5 1t30.5 6q-5 8 -9 20.5t-4 35.5q0 36 10 64.5t35 46.5t67 26t106 4v-109q-28 2 -48.5 -9t-20.5 -40q0 -28 20 -38t44 -10h46v-123h-47q-37 0 -70.5 8.5t-61.5 24.5q-41 -40 -139 -40
q-132 0 -205.5 67.5t-73.5 198.5q0 65 19 115t54.5 83.5t85.5 50.5t113 17h74q57 0 85.5 22t26.5 79h139q6 -59 -9.5 -103.5t-44 -74t-65.5 -44t-73 -14.5h-130z" />
    <glyph glyph-name="uni0E55" unicode="&#xe55;" horiz-adv-x="648" 
d="M634 0h-47q-37 0 -70.5 8.5t-61.5 24.5q-41 -40 -139 -40q-132 0 -205.5 67.5t-73.5 198.5q0 91 37 151.5t103 87.5q-13 23 -13 55q0 54 34.5 86t101.5 32q66 0 100 -31t34 -82q0 -19 -6 -31h8q30 0 45 29.5t14 69.5h139q6 -59 -9.5 -103.5t-44 -74t-65.5 -44t-73 -14.5
h-130q-38 0 -66.5 -34t-28.5 -101q0 -60 28.5 -95t91.5 -35q3 0 20.5 1t30.5 6q-6 8 -9.5 20.5t-3.5 35.5q0 36 10 64.5t35 46.5t67 26t106 4v-109q-28 2 -48.5 -9t-20.5 -40q0 -28 20 -38t44 -10h46v-123zM299 519q17 0 28 9.5t11 27.5q0 17 -11 26.5t-28 9.5t-27.5 -9.5
t-10.5 -26.5q0 -18 10.5 -27.5t27.5 -9.5z" />
    <glyph glyph-name="uni0E56" unicode="&#xe56;" horiz-adv-x="692" 
d="M333 227q-84 12 -84 -42q0 -16 8.5 -27t23 -17.5t32 -9t35.5 -2.5q59 0 95.5 28t36.5 96q0 72 -40 107.5t-104 36.5q-24 1 -55 -4.5t-53 -16.5h-127l-126 252h162l67 -148q23 21 64 33.5t96 12.5q83 0 139 -19.5t90 -54t48.5 -82t14.5 -103.5q0 -75 -22.5 -127.5
t-63.5 -85t-98.5 -47.5t-128.5 -15q-55 0 -104 9.5t-86 32t-58 60.5t-21 95q0 44 12.5 73t34.5 46t51 24t63 7q23 0 47.5 -2.5t50.5 -6.5v-103z" />
    <glyph glyph-name="uni0E57" unicode="&#xe57;" horiz-adv-x="907" 
d="M866 187q0 -52 -19.5 -89t-50.5 -59.5t-68.5 -33t-73.5 -10.5t-73 10.5t-68 33t-50.5 59.5t-19.5 89v142q0 26 -7 39.5t-27 13.5q-14 0 -23.5 -10t-14.5 -36h-66q-8 27 -18 36.5t-24 9.5q-16 0 -24.5 -10.5t-13 -28t-5.5 -40t-1 -47.5q0 -64 24.5 -95.5t86.5 -31.5
q8 0 16 0.5t16 1.5v-128q-22 -5 -44 -6t-42 -1q-54 0 -98 13.5t-75.5 42.5t-48.5 75.5t-17 113.5q0 61 6 113t25 90.5t55 60t95 21.5q45 0 76.5 -21.5t41.5 -63.5q11 42 42.5 63.5t75.5 21.5q54 0 85 -10.5t47.5 -31.5t21 -52t4.5 -72v-188q0 -20 10.5 -33t31.5 -13
q22 0 31.5 13t9.5 33v510h171v-495z" />
    <glyph glyph-name="uni0E58" unicode="&#xe58;" horiz-adv-x="635" 
d="M257 133q14 0 25 13.5t14 39.5h78q5 -28 16.5 -40.5t24.5 -12.5q29 0 37.5 16.5t8.5 33.5v14q0 8 -1.5 15.5t-8 13.5t-19 10t-33.5 5h-17.5t-20.5 -2v104q7 1 19.5 2t18.5 2q120 11 173.5 -29.5t53.5 -130.5v-12q0 -30 -7.5 -61.5t-26.5 -57.5t-51 -43t-80 -17
q-51 0 -83 21t-42 63q-10 -42 -41.5 -63.5t-81.5 -21.5q-55 0 -91 22t-57.5 59t-30.5 84t-9 97q0 133 72 200.5t199 67.5h94q57 0 85.5 22t26.5 79h140q6 -59 -9.5 -103.5t-44 -74t-65.5 -44t-73 -14.5h-151q-43 0 -68 -36t-25 -97q0 -21 2 -43t7 -40t15.5 -29.5t26.5 -11.5
z" />
    <glyph glyph-name="uni0E59" unicode="&#xe59;" horiz-adv-x="767" 
d="M567 347q0 17 -9.5 28.5t-35.5 11.5q-17 0 -28.5 -14.5t-5.5 -34.5l149 -338h-170l-148 336q-12 26 -22.5 38.5t-29.5 12.5q-16 0 -25 -11t-13.5 -29.5t-5.5 -42t-1 -48.5q0 -59 17 -90t66 -35q20 -3 48 0v-128q-14 -3 -28.5 -5t-28.5 -2q-56 -3 -103.5 8t-81.5 40
t-53 77.5t-19 119.5q0 61 7.5 113t28.5 90.5t59 60t99 21.5q109 0 150 -86q6 25 19 41.5t29 26.5t34.5 14t35.5 4q34 0 61.5 -13t41.5 -38l47 120h142l-107 -248h-119z" />
    <glyph glyph-name="uni0E5A" unicode="&#xe5a;" horiz-adv-x="875" 
d="M571 577v-577h-181v322q-16 -56 -57.5 -86t-109.5 -30q-42 0 -78 12t-63 35.5t-42.5 59t-15.5 83.5q0 51 17.5 86t47.5 56.5t69 30.5t82 9h52v-125h-34q-23 0 -36.5 -15.5t-13.5 -38.5q0 -58 70 -58q54 0 83 35.5t29 88.5v112h181zM820 577v-577h-180v577h180z" />
    <glyph glyph-name="uni0E5B" unicode="&#xe5b;" horiz-adv-x="894" 
d="M271 289q0 24 -2 46.5t-8.5 40t-18.5 28t-33 10.5q-26 0 -41.5 -12t-24 -30t-11.5 -39.5t-3 -41.5q0 -42 11.5 -71.5t30 -47.5t42 -26.5t48.5 -8.5q34 0 59 15.5t42.5 42t28.5 61t17.5 72t8.5 76t2 71.5h92l45 -198l34 161h92q0 -24 2 -45.5t8.5 -38t20 -26t36.5 -9.5
h107v-83h-107q-12 0 -26.5 1t-29.5 6t-29 14.5t-26 27.5l-36 -182h-81l-39 174q-8 -44 -24 -84t-42.5 -70.5t-64.5 -48.5t-91 -18q-48 0 -88.5 16t-70 47t-46.5 75.5t-17 102.5q0 38 7.5 74t27 64t52.5 45.5t83 17.5q47 0 77 -17t47 -46t23 -67t6 -79h-90z" />
    <glyph glyph-name="endash" unicode="&#x2013;" horiz-adv-x="493" 
d="M456 247h-419v140h419v-140z" />
    <glyph glyph-name="emdash" unicode="&#x2014;" horiz-adv-x="720" 
d="M683 247h-646v140h646v-140z" />
    <glyph glyph-name="quoteleft" unicode="&#x2018;" horiz-adv-x="315" 
d="M298 701l-117 -264h-183l145 264h155z" />
    <glyph glyph-name="quoteright" unicode="&#x2019;" horiz-adv-x="314" 
d="M17 437l117 264h182l-143 -264h-156z" />
    <glyph glyph-name="quotesinglbase" unicode="&#x201a;" horiz-adv-x="233" 
d="M-11 -123l55 242h173l-80 -242h-148z" />
    <glyph glyph-name="quotedblleft" unicode="&#x201c;" horiz-adv-x="522" 
d="M286 701l-117 -264h-171l145 264h143zM505 701l-117 -264h-169l144 264h142z" />
    <glyph glyph-name="quotedblright" unicode="&#x201d;" horiz-adv-x="522" 
d="M237 437l117 264h170l-144 -264h-143zM17 437l117 264h170l-144 -264h-143z" />
    <glyph glyph-name="quotedblbase" unicode="&#x201e;" horiz-adv-x="434" 
d="M-11 -123l55 242h160l-79 -242h-136zM203 -123l55 242h160l-80 -242h-135z" />
    <glyph glyph-name="dagger" unicode="&#x2020;" horiz-adv-x="544" 
d="M182 537v163h182v-163h135v-130h-135v-407h-182v407h-137v130h137z" />
    <glyph glyph-name="daggerdbl" unicode="&#x2021;" horiz-adv-x="544" 
d="M182 537v163h182v-163h135v-130h-135v-113h135v-130h-135v-164h-182v164h-137v130h137v113h-137v130h137z" />
    <glyph glyph-name="bullet" unicode="&#x2022;" horiz-adv-x="460" 
d="M232 148q-34 0 -65 13.5t-54.5 36.5t-37.5 54t-14 65q0 36 14 66.5t37.5 53.5t54.5 36t65 13q35 0 65 -13t53 -36t36 -53.5t13 -66.5q0 -33 -13 -63.5t-36 -54t-53 -37.5t-65 -14z" />
    <glyph glyph-name="ellipsis" unicode="&#x2026;" horiz-adv-x="746" 
d="M17 97q0 41 27 69.5t78 28.5q50 0 77 -28.5t27 -69.5t-27 -69t-77 -28q-51 0 -78 28t-27 69zM269 97q0 41 27 69.5t78 28.5q50 0 77 -28.5t27 -69.5t-27 -69t-77 -28q-51 0 -78 28t-27 69zM520 97q0 41 27 69.5t78 28.5q50 0 77 -28.5t27 -69.5t-27 -69t-77 -28
q-51 0 -78 28t-27 69z" />
    <glyph glyph-name="perthousand" unicode="&#x2030;" horiz-adv-x="1106" 
d="M23 548q0 37 13 66.5t34.5 50.5t50.5 32t61 11t61 -11t50.5 -32t34.5 -50.5t13 -66.5t-13 -66.5t-34.5 -50t-50.5 -31.5t-61 -11t-61 11t-50.5 31.5t-34.5 50t-13 66.5zM667 700l-414 -700h-152l413 700h153zM134 548q0 -27 12.5 -42.5t35.5 -15.5q21 0 34 15.5t13 42.5
t-13 42.5t-34 15.5q-23 0 -35.5 -15.5t-12.5 -42.5zM426 151q0 37 12.5 66.5t34.5 50.5t50.5 32t60.5 11t61 -11t51 -32t34.5 -50.5t12.5 -66.5q0 -36 -12.5 -65.5t-34.5 -50.5t-51 -32t-61 -11t-60.5 11t-50.5 32t-34.5 50.5t-12.5 65.5zM766 151q0 37 12.5 66.5t34.5 50.5
t50.5 32t60.5 11t61 -11t51 -32t34.5 -50.5t12.5 -66.5q0 -36 -12.5 -65.5t-34.5 -50.5t-51 -32t-61 -11t-60.5 11t-50.5 32t-34.5 50.5t-12.5 65.5zM536 151q0 -26 12.5 -42t35.5 -16q21 0 34 16t13 42q0 27 -13 43t-34 16q-23 0 -35.5 -16t-12.5 -43zM876 151
q0 -26 12.5 -42t35.5 -16q21 0 34.5 16t13.5 42q0 27 -13.5 43t-34.5 16q-23 0 -35.5 -16t-12.5 -43z" />
    <glyph glyph-name="guilsinglleft" unicode="&#x2039;" horiz-adv-x="537" 
d="M44 271v93l450 273v-172l-262 -147v-1l262 -146v-172z" />
    <glyph glyph-name="guilsinglright" unicode="&#x203a;" horiz-adv-x="537" 
d="M494 271l-450 -272v172l261 146v1l-261 147v172l450 -273v-93z" />
    <glyph glyph-name="fraction" unicode="&#x2044;" horiz-adv-x="450" 
d="M444 700l-255 -700h-186l257 700h184z" />
    <glyph glyph-name="Euro" unicode="&#x20ac;" horiz-adv-x="766" 
d="M276 380q-3 -29 0 -58h181v-110h-149q38 -71 121 -71q51 0 84.5 25.5t47.5 76.5h185q-7 -57 -33 -103.5t-67.5 -79.5t-96.5 -50.5t-120 -17.5q-124 0 -207.5 56.5t-115.5 163.5h-84v110h66q-5 29 0 58h-66v110h84q34 106 116.5 162t206.5 56q63 0 117.5 -17.5t96.5 -50.5
t68.5 -79.5t32.5 -103.5h-185q-12 51 -45.5 78t-84.5 27q-83 0 -121 -72h149v-110h-181z" />
    <glyph glyph-name="trademark" unicode="&#x2122;" horiz-adv-x="974" 
d="M386 611h-118v-330h-116v330h-118v89h352v-89zM825 530h-3l-106 -249h-55l-106 249h-4v-249h-115v419h149l102 -261h2l102 261h150v-419h-116v249z" />
    <glyph glyph-name="minus" unicode="&#x2212;" horiz-adv-x="493" 
d="M456 247h-419v140h419v-140z" />
    <glyph glyph-name="uni25CC" unicode="&#x25cc;" horiz-adv-x="582" 
d="M253 504q1 17 13.5 28.5t29.5 10.5q17 -2 28.5 -15t10.5 -29q-2 -17 -15 -28.5t-30 -10.5q-17 2 -28 14.5t-9 29.5zM385 450q1 17 13.5 29t29.5 10t29 -15t10 -30q-1 -17 -14.5 -28t-30.5 -9t-28 14t-9 29zM120 450q1 17 13.5 29t29.5 10t29 -15t10 -30q-1 -17 -14.5 -28
t-30.5 -9t-27.5 14t-9.5 29zM437 318q2 17 14 29t29 10q17 -1 29 -14t10 -30q-1 -17 -14 -28t-30 -10q-17 2 -28 14t-10 29zM63 318q2 17 14.5 29t29.5 10q17 -1 28.5 -14t9.5 -30q-1 -17 -14 -28t-30 -10q-17 2 -28.5 14t-9.5 29zM385 191q1 17 13.5 28.5t29.5 9.5
q17 -1 29 -14t10 -30q-1 -17 -14.5 -28t-30.5 -10q-17 2 -28 14.5t-9 29.5zM120 191q1 17 13.5 28.5t29.5 9.5q17 -1 29 -14t10 -30q-1 -17 -14.5 -28t-30.5 -10q-17 2 -27.5 14.5t-9.5 29.5zM253 131q1 17 13.5 28.5t29.5 10.5q17 -2 28.5 -15t10.5 -30q-2 -17 -15 -28
t-30 -9q-17 1 -28 13.5t-9 29.5z" />
    <glyph glyph-name="uni0E10.descless" horiz-adv-x="585" 
d="M625 620l-115 -141q49 -54 49 -124q0 -37 -11 -73t-31 -77.5t-49.5 -91.5t-66.5 -113h-198l-92 192q-6 17 -26 17h-54v104h143q25 0 38.5 -10.5t21.5 -28.5l65 -149h6q15 29 29 58t24.5 56.5t16.5 53t6 47.5q0 26 -8.5 44.5t-22.5 29.5t-32 16t-36 5q-30 0 -57.5 -14
t-35.5 -49h-172q5 49 28 88t59.5 66t83.5 41t99 14q70 0 119 -24l52 63h167z" />
    <glyph glyph-name="uni0E0D.descless" horiz-adv-x="958" 
d="M33 141q0 31 12 55.5t33 43t48 30.5t57 18l-156 25v10q0 131 71 194.5t199 63.5q140 0 212 -63.5t72 -173.5v-101q0 -61 21 -83t59 -22t59 22t21 83v334h182v-367q0 -99 -64.5 -158.5t-197.5 -59.5q-132 0 -197 59.5t-65 158.5v115q0 51 -23.5 82.5t-78.5 31.5
q-45 0 -72.5 -22.5t-32.5 -65.5l108 -23v-42q-32 -16 -56.5 -39.5t-24.5 -58.5q0 -28 17 -46t46 -18h27v-124h-82q-34 0 -69 6.5t-62.5 22t-45 43t-17.5 69.5z" />
    <glyph glyph-name="uni0E48.nikhahit" 
d="M-46 918h-153v195h153v-195zM-158 881q57 0 94 -32t37 -89q0 -56 -37 -87t-94 -31q-56 0 -93 30t-37 88q0 59 37 90t93 31zM-158 722q17 0 28.5 11.5t11.5 26.5q0 18 -11.5 28.5t-28.5 10.5q-16 0 -27.5 -10.5t-11.5 -28.5q0 -15 11.5 -26.5t27.5 -11.5z" />
    <glyph glyph-name="uni0E49.nikhahit" 
d="M15 1012v-94h-195q-28 0 -45 5.5t-26.5 14.5t-13 21t-3.5 25q0 20 -8.5 28t-25.5 8h-62v92h128q28 0 46.5 -11t18.5 -49q0 -29 12.5 -34.5t33.5 -5.5h140zM-158 881q57 0 94 -32t37 -89q0 -56 -37 -87t-94 -31q-56 0 -93 30t-37 88q0 59 37 90t93 31zM-158 722
q17 0 28.5 11.5t11.5 26.5q0 18 -11.5 28.5t-28.5 10.5q-16 0 -27.5 -10.5t-11.5 -28.5q0 -15 11.5 -26.5t27.5 -11.5z" />
    <glyph glyph-name="uni0E4A.nikhahit" 
d="M-392 1014q0 20 5 39.5t16.5 34.5t30.5 24.5t48 9.5q22 0 43 -9t35 -34q14 25 34 34t42 9q51 0 71.5 -29t20.5 -76v-41q15 0 21 9t6 28v119h99v-122q0 -44 -26.5 -72.5t-91.5 -28.5h-108v101q0 26 -23 26q-9 0 -15.5 -4.5t-6.5 -18.5h-46q0 14 -6 18.5t-14 4.5
q-23 0 -23 -29q0 -14 7.5 -22.5t32.5 -8.5h23v-67h-56q-24 0 -45.5 5t-38 17.5t-26 32.5t-9.5 50zM-158 881q57 0 94 -32t37 -89q0 -56 -37 -87t-94 -31q-56 0 -93 30t-37 88q0 59 37 90t93 31zM-158 722q17 0 28.5 11.5t11.5 26.5q0 18 -11.5 28.5t-28.5 10.5
q-16 0 -27.5 -10.5t-11.5 -28.5q0 -15 11.5 -26.5t27.5 -11.5z" />
    <glyph glyph-name="uni0E4B.nikhahit" 
d="M39 987h-90v-69h-135v69h-89v84h89v69h135v-69h90v-84zM-158 881q57 0 94 -32t37 -89q0 -56 -37 -87t-94 -31q-56 0 -93 30t-37 88q0 59 37 90t93 31zM-158 722q17 0 28.5 11.5t11.5 26.5q0 18 -11.5 28.5t-28.5 10.5q-16 0 -27.5 -10.5t-11.5 -28.5q0 -15 11.5 -26.5
t27.5 -11.5z" />
    <glyph glyph-name="uni0E31.upleft" 
d="M-35 759v-104h-219q-58 0 -92.5 12.5t-52.5 33.5t-23.5 49t-5.5 58v20h152v-20q0 -33 16 -41.5t57 -7.5h168z" />
    <glyph glyph-name="uni0E34.upleft" 
d="M-35 655h-416v104h416v-104z" />
    <glyph glyph-name="uni0E35.upleft" 
d="M-451 759h256v79h160v-183h-416v104z" />
    <glyph glyph-name="uni0E36.upleft" 
d="M-136 849q51 0 78.5 -23t27.5 -74q0 -50 -27.5 -73.5t-78.5 -23.5h-315v104h214q-2 2 -2 6q0 35 23.5 59.5t79.5 24.5zM-167 752q0 -14 8.5 -22.5t22.5 -8.5t22.5 8.5t8.5 22.5q0 31 -31 31t-31 -31z" />
    <glyph glyph-name="uni0E37.upleft" 
d="M-451 759h151v77h106v-77h52v77h107v-181h-416v104z" />
    <glyph glyph-name="uni0E48.upleft" 
d="M-203 880v234h157v-234h-157z" />
    <glyph glyph-name="uni0E49.upleft" 
d="M-35 984v-104h-179q-30 0 -49 6t-29.5 16t-14.5 23t-4 27q0 23 -10 31.5t-28 8.5h-51v102h125q30 0 51 -12t21 -53q0 -33 13.5 -39t36.5 -6h118z" />
    <glyph glyph-name="uni0E4A.upleft" 
d="M-457 997q0 23 5 44.5t16.5 38t29 27t42.5 10.5t47.5 -10t38.5 -37q16 27 37.5 37t45.5 10q44 0 63.5 -26.5t19.5 -73.5v-63q17 0 23.5 10t6.5 30v135h101v-137q0 -24 -5.5 -44.5t-19.5 -35.5t-37.5 -23.5t-59.5 -8.5h-102v113q0 29 -24 29q-10 0 -16.5 -5.5t-6.5 -20.5
h-51q0 15 -7 20.5t-15 5.5q-14 0 -20 -9t-6 -24q0 -16 9 -25.5t36 -9.5h25v-74h-44q-26 0 -50 7t-42 21.5t-29 36.5t-11 52z" />
    <glyph glyph-name="uni0E4B.upleft" 
d="M45 999h-96v-75h-135v75h-95v84h95v74h135v-74h96v-84z" />
    <glyph glyph-name="uni0E47.upleft" 
d="M-150 796q1 -25 18.5 -40t38.5 -15h55v-104h-25q-36 0 -68.5 15.5t-47.5 44.5q-14 -29 -41.5 -44.5t-63.5 -15.5q-60 0 -96.5 38.5t-36.5 104.5q0 67 41 106.5t127 39.5h234v-104h-228q-16 0 -32 -7.5t-16 -30.5q0 -22 13.5 -29.5t24.5 -7.5q15 0 30 12t15 37h58z" />
    <glyph glyph-name="uni0E48.up2" 
d="M-199 880v196h153v-196h-153z" />
    <glyph glyph-name="uni0E49.up2" 
d="M4 974v-94h-195q-28 0 -45.5 5.5t-27 14.5t-13 21t-3.5 25q0 20 -8 28.5t-25 8.5h-62v92h128q14 0 26 -2.5t20.5 -9t13.5 -18t5 -30.5q0 -30 12.5 -35.5t33.5 -5.5h140z" />
    <glyph glyph-name="uni0E4A.up2" 
d="M-499 984q0 20 5 39.5t17 34.5t31 24.5t47 9.5q23 0 44 -9t35 -34q14 25 33.5 34t42.5 9q51 0 71.5 -29t20.5 -76v-41q15 0 21 9t6 28v119h98v-122q0 -44 -27 -72.5t-91 -28.5h-108v101q0 26 -23 26q-8 0 -14.5 -4.5t-6.5 -18.5h-47q0 14 -6 18.5t-14 4.5q-23 0 -23 -29
q0 -14 8 -22.5t32 -8.5h24v-67h-56q-24 0 -46 5t-38.5 17.5t-26 32.5t-9.5 50z" />
    <glyph glyph-name="uni0E4B.up2" 
d="M39 949h-90v-69h-135v69h-89v84h89v69h135v-69h90v-84z" />
    <glyph glyph-name="uni0E4C.upleft" 
d="M-27 937q-40 1 -56.5 -8t-16.5 -42v-19h-152v19q0 30 5.5 58t23.5 49.5t52.5 34t92.5 12.5h170v-104h-119z" />
    <glyph glyph-name="uni0E4C.up2" 
d="M-108 878q-37 1 -52 -6.5t-15 -38.5v-18h-138v18q0 28 5 53t21.5 44.5t47.5 31t84 11.5h154v-95h-107z" />
    </font>
</defs>
</svg>
