<?xml version="1.0" standalone="no"?>
<!DOCTYPE svg PUBLIC "-//W3C//DTD SVG 1.1//EN" "http://www.w3.org/Graphics/SVG/1.1/DTD/svg11.dtd" >
<svg xmlns="http://www.w3.org/2000/svg" xmlns:xlink="http://www.w3.org/1999/xlink" version="1.1">
<metadata>
Created by FontForge 20170731 at Sat Jul 24 06:22:39 2021
 By Aleksey,,,
Copyright (c) 2021 by Fontcraft: Jutipong Poosumas. All rights reserved.
</metadata>
<defs>
<font id="FCSubject-ExtraLight" horiz-adv-x="0" >
  <font-face 
    font-family="FC Subject ExtLt"
    font-weight="200"
    font-stretch="normal"
    units-per-em="1000"
    panose-1="0 0 0 0 0 0 0 0 0 0"
    ascent="800"
    descent="-200"
    x-height="507"
    cap-height="700"
    bbox="-509 -278 991 1082"
    underline-thickness="50"
    underline-position="-175"
    unicode-range="U+000A-FB02"
  />
<missing-glyph horiz-adv-x="600" 
 />
    <glyph glyph-name="fi" unicode="fi" horiz-adv-x="537" 
d="M313 655q-15 2 -28.5 3t-26.5 1q-18 0 -32 -3.5t-24.5 -13.5t-16 -27.5t-5.5 -44.5v-65h102v-44h-102v-461h-59v461h-87v44h87v66q0 74 34.5 105t93.5 31q15 0 31 -2t33 -5v-45zM386 644q0 17 11 28.5t30 11.5q17 0 28.5 -11.5t11.5 -28.5t-11.5 -28.5t-28.5 -11.5
q-19 0 -30 11.5t-11 28.5zM398 507h57v-507h-57v507z" />
    <glyph glyph-name="fl" unicode="fl" horiz-adv-x="576" 
d="M313 655q-15 2 -28.5 3t-26.5 1q-18 0 -32 -3.5t-24.5 -13.5t-16 -27.5t-5.5 -44.5v-65h102v-44h-102v-461h-59v461h-87v44h87v66q0 74 34.5 105t93.5 31q15 0 31 -2t33 -5v-45zM388 700h59v-565q0 -49 14.5 -69.5t58.5 -20.5q10 0 17.5 1t20.5 3v-44q-15 -5 -26.5 -6.5
t-25.5 -1.5q-62 0 -90 31t-28 105v567z" />
    <glyph glyph-name="ru.lakyao" unicode="&#xe24;&#xe32;" horiz-adv-x="887" 
d="M63 144q0 36 11 65t30 52t43.5 40.5t51.5 29.5l-144 25v8q0 103 62.5 160t177.5 57q100 0 158 -44q45 22 90.5 33t93.5 11q40 0 74 -11t58.5 -33t38.5 -53t14 -72v-612h-60v604q0 35 -12 59t-31.5 39t-43.5 22t-48 7q-38 0 -71 -7.5t-69 -21.5q43 -55 43 -143v-559h-60
v555q0 85 -43 131t-132 46q-85 0 -132.5 -40t-51.5 -111l144 -27v-24q-18 -6 -41.5 -20.5t-43.5 -37t-34 -53t-14 -67.5q0 -29 9.5 -49.5t26 -33t39 -18t49.5 -5.5h29v-46h-44q-34 0 -64.5 7.5t-53.5 24.5t-36.5 44.5t-13.5 67.5z" />
    <glyph glyph-name="lu.lakyao" unicode="&#xe26;&#xe32;" horiz-adv-x="892" 
d="M61 364q0 103 62 160t177 57q101 0 159 -44q90 44 183 44q40 0 74 -11t58.5 -33t38.5 -53t14 -72v-612h-59v604q0 35 -12 59t-31.5 39t-44 22t-48.5 7q-38 0 -71 -7.5t-68 -21.5q43 -55 43 -143v-559h-60v555q0 85 -43 131t-133 46q-85 0 -132 -40t-52 -111l150 -28v-24
q-43 -11 -68.5 -37.5t-25.5 -74.5v-107q0 -54 -30.5 -82t-78.5 -28h-42v46h31q62 0 62 71v94q0 40 23 75t68 45l-144 25v8z" />
    <glyph glyph-name="Fontcraft" unicode="FontcraftLogo" horiz-adv-x="790" 
d="M396 709q69 0 129 -26t105 -71t71 -105.5t26 -129.5t-26 -129.5t-71 -105.5t-105 -71t-129 -26t-129.5 26t-106 71t-71.5 105.5t-26 129.5t26 129.5t71.5 105.5t106 71t129.5 26zM396 104q57 0 106.5 22t86 59t58 87t21.5 105q0 57 -21.5 107t-59 87t-86.5 58t-105 21
q-57 0 -106.5 -21.5t-87 -58.5t-59 -87t-21.5 -106q0 -57 21.5 -106.5t59 -86.5t87 -58.5t106.5 -21.5zM581 500q17 -27 26.5 -57.5t9.5 -65.5q0 -46 -17.5 -87t-48 -71t-70.5 -47.5t-85 -17.5q-47 0 -88 17.5t-71.5 47.5t-48 71t-17.5 87q0 47 17.5 87.5t48 70.5t71.5 47
t88 17q40 0 78 -14t67 -39l-40 -180q-7 -29 -16.5 -40.5t-29.5 -11.5q-17 0 -27 8t-7 28l16 76q1 8 -4 15.5t-20 7.5q-20 0 -25 -20l-16 -73q-3 -15 -14 -30.5t-36 -15.5q-13 0 -20.5 9.5t-2.5 34.5l13 65q3 20 -9.5 26.5t-32.5 6.5q-26 0 -34 -8t-8 -18q0 -11 5.5 -19
t15.5 -8h7l-7 -37q-4 -20 -2.5 -38t10 -32t25 -22t40.5 -8q18 0 36.5 8t29.5 31q3 -11 10 -18.5t17 -12t20.5 -6.5t19.5 -2q22 0 37.5 7.5t26 19t17 26t9.5 29.5zM200 -26l-9 -52q-3 -14 -12 -20.5t-21 -6.5t-18.5 6.5t-4.5 20.5l9 52q7 28 33 28q12 0 18.5 -7.5t4.5 -20.5z
M400 -79l1 7h20l-1 -6q-2 -14 -11 -20.5t-21 -6.5t-18.5 6.5t-4.5 20.5l9 52q7 28 33 28q11 0 17.5 -6.5t4.5 -19.5q0 -2 -2 -8l-20 -1q1 3 1 7q2 10 -4 10q-5 0 -6 -2.5t-2 -7.5l-11 -53q0 -3 1.5 -6t4.5 -3q5 0 6.5 3t2.5 6zM79 0h50l-4 -17h-29l-4 -26h24l-4 -16h-23
l-9 -45h-20zM264 0h21l-18 -104h-21l-6 67l-12 -67h-18l17 104h23l3 -53v-13h1q0 5 1 8.5t2 8.5zM305 0h55l-3 -17h-18l-14 -87h-22l16 87h-17zM504 -29v-3q-4 -16 -16 -21l3 -51h-22v47h-4l-8 -47h-20l18 104h28q12 0 18 -6t3 -23zM545 0h25l3 -104h-23l1 23h-16l-7 -23
h-20zM609 0h50l-3 -17h-30l-4 -26h24l-3 -16h-24l-9 -45h-20zM675 0h55l-3 -17h-16l-16 -87h-22l16 87h-17zM169 -79l11 53q0 10 -6 10q-7 0 -9 -10l-10 -53q0 -3 1.5 -6t4.5 -3q5 0 6.5 3t1.5 6zM472 -16l-4 -26h5q5 0 7 3.5t3 6.5l2 5q0 5 -1 8t-6 3h-6zM542 -62h9l1 30z
" />
    <glyph glyph-name=".notdef" horiz-adv-x="600" 
 />
    <glyph glyph-name=".null" 
 />
    <glyph glyph-name=".null" 
 />
    <glyph glyph-name="uni000D" unicode="&#xd;" horiz-adv-x="250" 
 />
    <glyph glyph-name="uni000A" unicode="&#xa;" horiz-adv-x="300" 
 />
    <glyph glyph-name="space" unicode=" " horiz-adv-x="300" 
 />
    <glyph glyph-name="exclam" unicode="!" horiz-adv-x="232" 
d="M86 395v305h60v-305l-4 -188h-52zM117 95q20 0 33.5 -14t13.5 -33q0 -20 -13.5 -34t-33.5 -14q-21 0 -35 14t-14 34q0 19 14 33t35 14z" />
    <glyph glyph-name="quotedbl" unicode="&#x22;" horiz-adv-x="288" 
d="M55 700h57l-7 -222h-45zM175 700h59l-7 -222h-45z" />
    <glyph glyph-name="numbersign" unicode="#" horiz-adv-x="676" 
d="M167 204h-133v44h142l42 204h-133v45h143l43 203h56l-42 -203h164l42 203h57l-43 -203h137v-45h-146l-41 -204h135v-44h-146l-41 -204h-56l41 204h-164l-41 -204h-58zM397 248l43 204h-165l-42 -204h164z" />
    <glyph glyph-name="dollar" unicode="$" horiz-adv-x="592" 
d="M102 188q8 -65 61 -105t138 -40q42 0 76.5 10t58.5 28.5t37.5 44.5t13.5 58q0 54 -37.5 85.5t-125.5 51.5l-74 17q-103 24 -149 65.5t-46 112.5q0 40 16.5 73.5t45 58.5t67 40t83.5 18v92h55v-92q52 -4 90.5 -21.5t65 -45.5t40.5 -63t16 -74h-58q-3 34 -17 62.5t-37 49.5
t-56 32.5t-75 11.5q-37 0 -69 -10t-55.5 -28t-37 -43.5t-13.5 -56.5q0 -52 37 -82.5t119 -48.5l73 -16q108 -23 156 -66.5t48 -115.5q0 -43 -16 -78.5t-45.5 -61t-71.5 -40.5t-94 -18v-97h-55v98q-48 4 -88 19.5t-69 41t-46 59.5t-20 74h58z" />
    <glyph glyph-name="percent" unicode="%" horiz-adv-x="700" 
d="M44 551q0 72 38 114.5t100 42.5t100 -42.5t38 -114.5t-38 -114t-100 -42t-100 42t-38 114zM586 700l-413 -700h-60l413 700h60zM89 551q0 -53 25 -83.5t68 -30.5q42 0 67 30.5t25 83.5q0 54 -25 83.5t-67 29.5q-44 0 -68.5 -29.5t-24.5 -83.5zM378 149q0 72 38 114
t100 42q63 0 101.5 -42t38.5 -114q0 -71 -38.5 -113.5t-101.5 -42.5q-62 0 -100 42.5t-38 113.5zM425 149q0 -52 24.5 -82.5t66.5 -30.5q43 0 68.5 30.5t25.5 82.5q0 53 -25.5 83.5t-68.5 30.5q-42 0 -66.5 -30t-24.5 -84z" />
    <glyph glyph-name="ampersand" unicode="&#x26;" horiz-adv-x="685" 
d="M263 -8q-50 0 -88.5 13.5t-65 38t-40.5 58.5t-14 76q0 50 24.5 96t91.5 83q1 0 8.5 4t16 8.5t15.5 8.5l7 4q-29 30 -48 54t-29.5 44t-14.5 39t-4 38q0 32 12 59.5t34.5 47.5t53.5 32t68 12t67.5 -11.5t52 -32t33 -48t11.5 -59.5q0 -25 -8 -48.5t-27 -46.5t-49.5 -45
t-74.5 -45l196 -208q20 31 33.5 69.5t18.5 76.5h52q-7 -48 -24 -97t-43 -87l127 -126h-68l-93 91q-45 -48 -104.5 -73.5t-126.5 -25.5zM175 554q0 -14 3.5 -28.5t13.5 -32t27 -39.5t45 -50q75 38 106.5 75t31.5 76q0 46 -31 77t-81 31q-25 0 -46 -8.5t-36.5 -23.5t-24 -34.5
t-8.5 -42.5zM268 38q54 0 104.5 24t84.5 63l-206 223q-27 -13 -52.5 -28t-44.5 -34.5t-30.5 -45t-11.5 -60.5q0 -61 39 -101.5t117 -40.5z" />
    <glyph glyph-name="quotesingle" unicode="'" horiz-adv-x="168" 
d="M55 700h59l-7 -222h-47z" />
    <glyph glyph-name="parenleft" unicode="(" horiz-adv-x="296" 
d="M263 740q-27 -39 -49.5 -87t-38.5 -101.5t-25 -110t-9 -112.5t9 -113t25 -110.5t38.5 -101.5t49.5 -86h-58q-61 82 -92 187t-31 224q0 118 31 222.5t92 188.5h58z" />
    <glyph glyph-name="parenright" unicode=")" horiz-adv-x="296" 
d="M91 740q61 -84 92 -188.5t31 -222.5q0 -119 -31 -224t-92 -187h-59q27 38 49.5 86t38.5 101.5t25 110.5t9 113t-9 112.5t-25 110t-38.5 101.5t-49.5 87h59z" />
    <glyph glyph-name="asterisk" unicode="*" horiz-adv-x="348" 
d="M203 550l71 -91l-36 -26l-64 96l-64 -96l-36 26l70 91l-110 31l14 42l109 -39l-5 116h44l-4 -116l108 39l15 -42z" />
    <glyph glyph-name="plus" unicode="+" horiz-adv-x="563" 
d="M254 292h-199v50h199v184h56v-184h198v-50h-198v-184h-56v184z" />
    <glyph glyph-name="comma" unicode="," horiz-adv-x="161" 
d="M7 -123l54 216h66l-69 -216h-51z" />
    <glyph glyph-name="hyphen" unicode="-" horiz-adv-x="478" 
d="M423 292h-368v50h368v-50z" />
    <glyph glyph-name="period" unicode="." horiz-adv-x="163" 
d="M82 0q-22 0 -35.5 14t-13.5 34q0 19 13.5 33t35.5 14q20 0 34 -14t14 -33q0 -20 -14 -34t-34 -14z" />
    <glyph glyph-name="slash" unicode="/" horiz-adv-x="365" 
d="M336 700l-271 -700h-62l272 700h61z" />
    <glyph glyph-name="zero" unicode="0" horiz-adv-x="612" 
d="M306 -8q-60 0 -108.5 25t-83.5 71.5t-54 113t-19 149.5q0 84 19 150t54 112t83.5 70.5t108.5 24.5q59 0 108 -24.5t84 -70.5t54 -112t19 -150q0 -83 -19 -149.5t-54 -113t-83.5 -71.5t-108.5 -25zM306 43q45 0 83 21t65 60.5t42 96.5t15 130q0 72 -15 129t-42 96.5
t-65 60t-83 20.5q-46 0 -83.5 -20.5t-64.5 -60t-41.5 -96.5t-14.5 -129q0 -73 14.5 -130t41.5 -96.5t64.5 -60.5t83.5 -21z" />
    <glyph glyph-name="one" unicode="1" horiz-adv-x="389" 
d="M215 700h51v-700h-59v645l-180 -82v52z" />
    <glyph glyph-name="two" unicode="2" horiz-adv-x="547" 
d="M134 53v-3h365v-50h-450v40q61 62 112 115q22 22 44 44.5t40.5 41.5t33 33.5t20.5 21.5q39 41 65.5 71t42 54.5t22 45.5t6.5 44q0 31 -11 58t-32 46.5t-51.5 31t-68.5 11.5q-41 0 -72.5 -12.5t-52.5 -34t-32.5 -50.5t-11.5 -63h-56q0 44 15 82.5t43.5 67t70.5 44.5t96 16
q52 0 93 -15t69.5 -41.5t43.5 -61.5t15 -76q0 -29 -7.5 -55t-25.5 -54.5t-48 -62.5t-74 -80z" />
    <glyph glyph-name="three" unicode="3" horiz-adv-x="579" 
d="M360 353q78 -7 124.5 -50.5t46.5 -117.5q0 -41 -16 -76t-47 -61t-77 -41t-107 -15q-58 0 -102.5 17.5t-74 46.5t-44.5 67t-15 79h56q0 -30 12.5 -58.5t35.5 -51t56.5 -36.5t75.5 -14q44 0 79 11t59 30t37 46t13 58q0 70 -55 105t-145 35h-60v47h60q37 0 68.5 10.5t55 30
t37 46t13.5 59.5q0 63 -44 101t-118 38q-37 0 -67.5 -12.5t-52.5 -34t-34 -51t-12 -63.5h-56q1 45 16.5 83.5t44 66.5t69.5 44t92 16q52 0 92.5 -13.5t69 -38t43.5 -58t15 -73.5q0 -71 -38.5 -113.5t-105.5 -56.5v-2z" />
    <glyph glyph-name="four" unicode="4" horiz-adv-x="565" 
d="M378 146h-351v42l355 512h54v-504h102v-50h-101v-146h-59v146zM379 607l-287 -412h287v412z" />
    <glyph glyph-name="five" unicode="5" horiz-adv-x="578" 
d="M104 202q1 -30 13 -58.5t35 -51t56.5 -36.5t75.5 -14q45 0 80 13.5t59 38t37 58t13 73.5t-14 74.5t-38.5 59.5t-58.5 39t-73 14q-52 0 -94 -21t-70 -61h-65l40 370h400v-49h-351l-31 -277h1q29 43 77.5 64t105.5 21q50 0 91.5 -17.5t72.5 -48.5t48 -73t17 -92t-16 -93
t-47 -75t-77.5 -50t-107.5 -18q-58 0 -101.5 17.5t-73 46.5t-45 67t-15.5 79h56z" />
    <glyph glyph-name="six" unicode="6" horiz-adv-x="596" 
d="M319 461q50 0 92.5 -17.5t73.5 -48.5t48.5 -73t17.5 -91q0 -52 -18.5 -96t-51 -75.5t-77 -49.5t-96.5 -18q-46 0 -93 16t-84.5 55.5t-61.5 106t-24 166.5q0 87 17 156t50.5 117t83 73.5t114.5 25.5q53 0 93 -15.5t69 -43t47 -64.5t26 -80h-60q-17 71 -58 112t-117 41
q-106 0 -158.5 -87.5t-50.5 -252.5h2q20 66 78.5 104.5t137.5 38.5zM306 42q39 0 73 14.5t59 39.5t39.5 59.5t14.5 74.5q0 39 -14 72.5t-39 58.5t-59 39t-74 14q-38 0 -72 -14t-59.5 -38.5t-40.5 -56.5t-15 -68q0 -42 14.5 -77.5t39.5 -61.5t59.5 -41t73.5 -15z" />
    <glyph glyph-name="seven" unicode="7" horiz-adv-x="519" 
d="M494 700v-37l-305 -663h-68l303 651h-399v49h469z" />
    <glyph glyph-name="eight" unicode="8" horiz-adv-x="594" 
d="M298 -8q-58 0 -105 15t-80 42t-50.5 64t-17.5 80q0 33 11.5 62.5t32.5 52.5t50 39t64 23v2q-61 15 -96.5 56t-35.5 100q0 38 16 71t46 57t72 38t93 14t92.5 -14t71 -38t45.5 -57t16 -71q0 -57 -35 -98.5t-96 -57.5v-2q35 -7 64 -23t50 -39t32.5 -52.5t11.5 -62.5
q0 -43 -17.5 -80t-50 -64t-79 -42t-105.5 -15zM298 394q37 0 67.5 9t53 26t35 40.5t12.5 52.5q0 30 -12 55.5t-34 44t-53 29t-69 10.5t-69 -10.5t-53 -29t-34 -44t-12 -55.5q0 -29 12.5 -52.5t35 -40.5t53 -26t67.5 -9zM298 40q43 0 78.5 12t61 33t39.5 50t14 63
q0 33 -14 60t-39.5 47t-61 31t-78.5 11t-78.5 -11t-61 -31t-39.5 -47t-14 -60q0 -34 14 -63t39.5 -50t61 -33t78.5 -12z" />
    <glyph glyph-name="nine" unicode="9" horiz-adv-x="594" 
d="M51 194h59q18 -71 58.5 -112t116.5 -41q106 0 158 87.5t50 252.5h-1q-10 -33 -30 -59.5t-48.5 -45t-63.5 -28.5t-74 -10q-50 0 -92.5 17.5t-73 48.5t-48 73t-17.5 91q0 52 18.5 96t50.5 76t77 50t97 18q45 0 92 -16t84.5 -55.5t61.5 -106t24 -167.5q0 -87 -17 -156
t-51 -116.5t-83.5 -73t-114.5 -25.5q-52 0 -92 15.5t-69 42.5t-47 64t-25 80zM288 286q39 0 73.5 14t60 38.5t40.5 57t15 68.5q0 41 -14.5 76.5t-40 61.5t-60 41t-74.5 15q-39 0 -73 -14.5t-59 -39.5t-39 -59.5t-14 -74.5q0 -39 14 -73t39 -58.5t59 -38.5t73 -14z" />
    <glyph glyph-name="colon" unicode=":" horiz-adv-x="233" 
d="M117 421q-21 0 -35 13.5t-14 33.5t14 33.5t35 13.5q20 0 34 -13.5t14 -33.5t-14 -33.5t-34 -13.5zM117 0q-21 0 -35 14t-14 34q0 19 14 33t35 14q20 0 34 -14t14 -33q0 -20 -14 -34t-34 -14z" />
    <glyph glyph-name="semicolon" unicode=";" horiz-adv-x="233" 
d="M68 468q0 20 14 33.5t35 13.5q20 0 34 -13.5t14 -33.5t-14 -33.5t-34 -13.5q-21 0 -35 13.5t-14 33.5zM35 -123l54 216h66l-69 -216h-51z" />
    <glyph glyph-name="less" unicode="&#x3c;" horiz-adv-x="562" 
d="M56 292v51l450 273v-59l-393 -239v-1l393 -239v-58z" />
    <glyph glyph-name="equal" unicode="=" horiz-adv-x="522" 
d="M55 432h412v-48h-412v48zM55 251h412v-50h-412v50z" />
    <glyph glyph-name="greater" unicode="&#x3e;" horiz-adv-x="562" 
d="M506 292l-450 -272v58l392 239v1l-392 239v59l450 -273v-51z" />
    <glyph glyph-name="question" unicode="?" horiz-adv-x="509" 
d="M55 501q1 44 14 82t37.5 65.5t59.5 43.5t80 16q108 0 158.5 -45t50.5 -125q0 -35 -12 -58.5t-30 -42t-39 -35t-39 -38t-30 -52t-12 -75.5v-30h-61v31q0 48 12 80.5t30.5 56t39.5 41t39.5 35t30.5 37t12 47.5q0 59 -37.5 91t-111.5 32q-34 0 -59 -12t-42 -33t-26 -50
t-11 -62h-54zM263 0q-21 0 -34.5 14t-13.5 34q0 19 13.5 33t34.5 14q20 0 33.5 -14t13.5 -33q0 -20 -13.5 -34t-33.5 -14z" />
    <glyph glyph-name="at" unicode="@" horiz-adv-x="845" 
d="M540 -82q-25 -3 -52 -4t-57 -1q-91 0 -163 25.5t-122.5 74.5t-77.5 119.5t-27 160.5q0 85 26.5 154.5t76.5 119t121 76.5t161 27q74 0 142.5 -22t121 -65.5t83.5 -107.5t31 -147q0 -123 -40 -185.5t-114 -62.5q-43 0 -72 24t-38 67h-2q-17 -43 -51 -65.5t-79 -22.5
q-38 0 -69.5 14.5t-54.5 40.5t-35.5 64t-12.5 84q0 38 10.5 74.5t32 65.5t54 47t75.5 18q42 0 76 -21.5t50 -58.5h1v70h47v-266q0 -28 6.5 -45.5t16.5 -27.5t22.5 -13.5t24.5 -3.5q50 0 76 51t26 152q0 67 -23.5 121.5t-67 93.5t-104.5 60t-136 21q-74 0 -135 -22.5
t-105 -65t-68 -104t-24 -139.5q0 -158 88 -246t253 -88q29 0 55.5 1t52.5 6v-48zM412 130q56 0 88 42.5t32 117.5q0 72 -31.5 113.5t-88.5 41.5q-55 0 -89 -44t-34 -115q0 -27 7.5 -54.5t22.5 -50t38 -37t55 -14.5z" />
    <glyph glyph-name="A" unicode="A" horiz-adv-x="617" 
d="M275 700h67l267 -700h-63l-72 190h-332l-71 -190h-63zM458 238l-148 396h-3l-148 -396h299z" />
    <glyph glyph-name="B" unicode="B" horiz-adv-x="600" 
d="M61 700h236q50 0 90.5 -12t69 -34.5t44 -54t15.5 -70.5q0 -31 -9.5 -60t-27 -52t-42.5 -39t-56 -22v-3q36 -4 67.5 -17t55 -34.5t36.5 -51.5t13 -68q0 -87 -63.5 -134.5t-175.5 -47.5h-253v700zM121 373h168q38 0 69 11t53 30.5t34 47t12 59.5q0 60 -46 95t-125 35h-165
v-278zM304 49q90 0 139 35.5t49 101.5q0 69 -51.5 105t-144.5 36h-175v-278h183z" />
    <glyph glyph-name="C" unicode="C" horiz-adv-x="664" 
d="M48 355q0 82 21 147.5t60 111t96 70t129 24.5q51 0 96 -15.5t80.5 -43t59.5 -66t33 -85.5h-61q-9 35 -28 64.5t-46 50.5t-61 32.5t-73 11.5q-58 0 -104 -21t-77.5 -60t-48 -95t-16.5 -126q0 -72 16.5 -129.5t48 -97.5t77.5 -61.5t104 -21.5q80 0 135 38.5t74 108.5h60
q-19 -93 -90 -146.5t-179 -53.5q-72 0 -129 25t-96 72t-60 114.5t-21 151.5z" />
    <glyph glyph-name="D" unicode="D" horiz-adv-x="659" 
d="M61 700h205q80 0 144 -23t108.5 -67.5t68.5 -109.5t24 -148q0 -84 -24.5 -149.5t-69.5 -110.5t-109.5 -68.5t-144.5 -23.5h-202v700zM258 49q68 0 122 20t91.5 58.5t58 94.5t20.5 128t-20 128.5t-57.5 94.5t-91 58t-121.5 20h-139v-602h137z" />
    <glyph glyph-name="E" unicode="E" horiz-adv-x="555" 
d="M121 651v-276h332v-49h-332v-277h379v-49h-439v700h439v-49h-379z" />
    <glyph glyph-name="F" unicode="F" horiz-adv-x="548" 
d="M121 651v-276h332v-49h-332v-326h-60v700h439v-49h-379z" />
    <glyph glyph-name="G" unicode="G" horiz-adv-x="691" 
d="M382 351h261v-61q0 -61 -14.5 -115.5t-48 -95t-87.5 -64t-132 -23.5q-72 0 -130 25t-98.5 72t-62.5 114.5t-22 151.5q0 82 22 147.5t62.5 111t98 70t129.5 24.5q52 0 99 -15.5t84.5 -43t63.5 -66t36 -85.5h-61q-9 35 -30 64.5t-50.5 50.5t-65.5 32.5t-75 11.5
q-58 0 -105 -21t-80 -60t-51 -95t-18 -127q0 -72 18 -129.5t51 -97t80 -61t105 -21.5q115 0 167.5 60.5t52.5 175.5v22h-199v48z" />
    <glyph glyph-name="H" unicode="H" horiz-adv-x="661" 
d="M600 700v-700h-60v326h-419v-326h-60v700h60v-325h419v325h60z" />
    <glyph glyph-name="I" unicode="I" horiz-adv-x="194" 
d="M68 700h59v-700h-59v700z" />
    <glyph glyph-name="J" unicode="J" horiz-adv-x="511" 
d="M445 700v-501q0 -50 -15 -88.5t-43 -65t-66.5 -40t-86.5 -13.5q-43 0 -80.5 14t-65.5 40.5t-44.5 63.5t-16.5 82h58q0 -34 12 -61.5t32.5 -46t47.5 -28.5t57 -10q69 0 110 38t41 118v498h60z" />
    <glyph glyph-name="K" unicode="K" horiz-adv-x="591" 
d="M358 336q6 -9 17.5 -28t27 -44t33.5 -54.5t36 -59.5q42 -68 92 -150h-68q-39 66 -75 125q-15 25 -31 51.5t-31 50.5t-28 45t-22 35q-16 25 -40 42.5t-59 21.5l-89 -84v-287h-60v700h60v-341l358 341h77l-309 -294q34 -3 64 -22.5t47 -47.5z" />
    <glyph glyph-name="L" unicode="L" horiz-adv-x="504" 
d="M61 700h60v-651h355v-49h-415v700z" />
    <glyph glyph-name="M" unicode="M" horiz-adv-x="777" 
d="M61 700h71l257 -617h2l253 617h73v-700h-58v594h-1l-246 -594h-44l-248 594h-2v-594h-57v700z" />
    <glyph glyph-name="N" unicode="N" horiz-adv-x="657" 
d="M61 700h58l415 -597h3v597h59v-700h-55l-419 602h-2v-602h-59v700z" />
    <glyph glyph-name="O" unicode="O" horiz-adv-x="707" 
d="M353 -8q-73 0 -130.5 24.5t-98 71t-62 113t-21.5 150.5q0 83 21.5 149t62 112t98 71t130.5 25t131 -25t98.5 -71t62 -112t21.5 -149q0 -84 -21.5 -150.5t-62 -113t-98.5 -71t-131 -24.5zM353 44q59 0 105.5 21.5t78.5 61t49.5 96.5t17.5 128t-17.5 127.5t-49.5 96
t-78.5 60.5t-105.5 21q-58 0 -104.5 -21t-79 -60.5t-49.5 -96t-17 -127.5t17 -128t49.5 -96.5t79 -61t104.5 -21.5z" />
    <glyph glyph-name="P" unicode="P" horiz-adv-x="552" 
d="M505 514q0 -96 -57 -143t-160 -47h-167v-324h-60v700h228q103 0 159.5 -45t56.5 -141zM278 373q81 0 125.5 33t44.5 108t-43.5 106t-126.5 31h-157v-278h157z" />
    <glyph glyph-name="Q" unicode="Q" horiz-adv-x="707" 
d="M325 -6q-67 4 -119.5 31t-89 72.5t-56 110t-19.5 143.5q0 83 21.5 149t62 112t98 71t130.5 25t131 -25t98.5 -71t62 -112t21.5 -149q0 -81 -20 -145.5t-57.5 -110.5t-91.5 -72.5t-123 -29.5q9 -55 51.5 -82t111.5 -27h51v-49h-52q-95 0 -149 45t-62 114zM353 44
q59 0 105.5 21.5t78.5 61t49.5 96.5t17.5 128t-17.5 127.5t-49.5 96t-78.5 60.5t-105.5 21q-58 0 -104.5 -21t-79 -60.5t-49.5 -96t-17 -127.5t17 -128t49.5 -96.5t79 -61t104.5 -21.5z" />
    <glyph glyph-name="R" unicode="R" horiz-adv-x="596" 
d="M480 0l-181 324h-178v-324h-60v700h255q103 0 160.5 -45t57.5 -141q0 -80 -44.5 -128t-132.5 -54l188 -332h-65zM121 373h184q83 0 127 33t44 108t-44 106t-127 31h-184v-278z" />
    <glyph glyph-name="S" unicode="S" horiz-adv-x="592" 
d="M102 188q8 -65 61 -105t138 -40q42 0 76.5 10t58.5 28.5t37.5 44.5t13.5 58q0 54 -37.5 85.5t-125.5 51.5l-74 17q-103 24 -149 65.5t-46 112.5q0 42 18.5 77.5t50 61t75 39.5t92.5 14q59 0 103.5 -16.5t75 -45t46.5 -65.5t18 -79h-58q-3 34 -17 62.5t-37 49.5t-56 32.5
t-75 11.5q-37 0 -69 -10t-55.5 -28t-37 -43.5t-13.5 -56.5q0 -52 37 -82.5t119 -48.5l73 -16q108 -23 156 -66.5t48 -115.5q0 -46 -18 -82.5t-50.5 -62.5t-78.5 -40t-102 -14q-55 0 -101 14.5t-79.5 40t-53 62t-22.5 79.5h58z" />
    <glyph glyph-name="T" unicode="T" horiz-adv-x="553" 
d="M536 651h-230v-651h-60v651h-229v49h519v-49z" />
    <glyph glyph-name="U" unicode="U" horiz-adv-x="653" 
d="M121 251q0 -94 54.5 -149.5t151.5 -55.5q48 0 86 14.5t65 41t41 64.5t14 85v449h59v-453q0 -57 -18.5 -104t-52.5 -80.5t-83 -52t-111 -18.5q-61 0 -110.5 18.5t-84 52t-53 80.5t-18.5 104v453h60v-449z" />
    <glyph glyph-name="V" unicode="V" horiz-adv-x="618" 
d="M275 0l-267 700h63l236 -633h3l236 633h64l-268 -700h-67z" />
    <glyph glyph-name="W" unicode="W" horiz-adv-x="903" 
d="M20 700h63l160 -610h2l181 610h50l180 -610h3l161 610h63l-194 -700h-55l-182 602h-3l-180 -602h-55z" />
    <glyph glyph-name="X" unicode="X" horiz-adv-x="619" 
d="M269 351l-243 349h72l211 -313h2l212 313h72l-243 -349l243 -351h-70l-214 311h-2l-215 -311h-69z" />
    <glyph glyph-name="Y" unicode="Y" horiz-adv-x="596" 
d="M327 332v-332h-60v334l-253 366h70l213 -312h2l213 312h70z" />
    <glyph glyph-name="Z" unicode="Z" horiz-adv-x="612" 
d="M558 50v-50h-503v43l424 605v2h-411v50h487v-42l-422 -606v-2h425z" />
    <glyph glyph-name="bracketleft" unicode="[" horiz-adv-x="340" 
d="M166 692v-728h141v-46h-198v822h198v-48h-141z" />
    <glyph glyph-name="backslash" unicode="\" horiz-adv-x="365" 
d="M362 0h-61l-272 700h62z" />
    <glyph glyph-name="bracketright" unicode="]" horiz-adv-x="340" 
d="M34 740h198v-822h-198v46h141v728h-141v48z" />
    <glyph glyph-name="asciicircum" unicode="^" horiz-adv-x="384" 
d="M349 498h-57l-100 152h-3l-99 -152h-56l131 202h52z" />
    <glyph glyph-name="underscore" unicode="_" horiz-adv-x="583" 
d="M549 -91h-515v49h515v-49z" />
    <glyph glyph-name="grave" unicode="`" horiz-adv-x="223" 
d="M189 478h-56l-114 222h73z" />
    <glyph glyph-name="a" unicode="a" horiz-adv-x="509" 
d="M263 515q44 0 79 -12.5t59.5 -36t38 -56t13.5 -71.5v-339h-57v106h-1q-10 -27 -29.5 -48t-45 -35.5t-55.5 -22.5t-61 -8q-74 0 -117 41t-43 107q0 67 46 104t137 44l167 12v36q0 60 -35 96t-97 36t-99 -29.5t-47 -82.5h-54q8 72 60.5 115.5t140.5 43.5zM394 259l-158 -12
q-66 -4 -100.5 -31.5t-34.5 -73.5q0 -45 31.5 -75t85.5 -30q35 0 67 13.5t56 36.5t38.5 52.5t14.5 62.5v57z" />
    <glyph glyph-name="b" unicode="b" horiz-adv-x="558" 
d="M300 515q48 0 87.5 -18.5t68 -53t44 -83t15.5 -107.5t-16 -107.5t-44.5 -82.5t-67.5 -52.5t-86 -18.5q-66 0 -116 34t-70 95h-2v-121h-56v700h59v-313h1q20 61 68.5 94.5t114.5 33.5zM286 41q39 0 70 15t53.5 43t34.5 67t12 87t-12 87.5t-34.5 67t-53.5 43t-70 15.5
q-37 0 -68.5 -15.5t-53.5 -43.5t-34.5 -67.5t-12.5 -86.5t12 -86t34.5 -67t53.5 -43.5t69 -15.5z" />
    <glyph glyph-name="c" unicode="c" horiz-adv-x="526" 
d="M485 150q-11 -72 -67.5 -115t-141.5 -43q-52 0 -94 18t-72 51.5t-46 82t-16 109.5t16 109.5t46 82.5t72 52t94 18q42 0 78 -12t63 -33.5t44.5 -51.5t23.5 -65h-55q-12 50 -52.5 81.5t-100.5 31.5q-79 0 -125 -56.5t-46 -156.5q0 -99 46 -156t125 -57q59 0 100 30t52 80
h56z" />
    <glyph glyph-name="d" unicode="d" horiz-adv-x="557" 
d="M257 515q66 0 114.5 -33.5t69.5 -94.5h2v313h56v-700h-54v121h-2q-21 -61 -70.5 -95t-115.5 -34q-47 0 -86 18.5t-67.5 52.5t-44.5 82.5t-16 107.5t15.5 107.5t44 83t68 53t86.5 18.5zM272 41q38 0 69 15.5t53 43.5t34.5 67t12.5 86t-12.5 86.5t-34.5 67.5t-53 43.5
t-69 15.5t-69.5 -15.5t-54 -43t-35 -67t-12.5 -87.5t12.5 -87t35 -67t54 -43t69.5 -15z" />
    <glyph glyph-name="e" unicode="e" horiz-adv-x="541" 
d="M495 243h-390q1 -96 48 -149.5t126 -53.5q63 0 100.5 29.5t53.5 80.5h55q-20 -78 -71 -118t-139 -40q-107 0 -168.5 68.5t-61.5 192.5q0 60 16 108t45.5 82.5t71 53t93.5 18.5q51 0 91.5 -18t69.5 -50.5t44.5 -78.5t15.5 -102v-23zM273 467q-73 0 -117.5 -50.5
t-49.5 -132.5h333q0 41 -12.5 74.5t-34 57.5t-52 37.5t-67.5 13.5z" />
    <glyph glyph-name="f" unicode="f" horiz-adv-x="315" 
d="M313 655q-15 2 -28.5 3t-26.5 1q-18 0 -32 -3.5t-24.5 -13.5t-16 -27.5t-5.5 -44.5v-65h102v-44h-102v-461h-59v461h-87v44h87v66q0 74 34.5 105t93.5 31q15 0 31 -2t33 -5v-45z" />
    <glyph glyph-name="g" unicode="g" horiz-adv-x="556" 
d="M500 507v-497q0 -50 -17 -86.5t-46.5 -60t-69.5 -35t-87 -11.5q-39 0 -73 7.5t-62.5 24t-49 43t-32.5 64.5h57q10 -29 26.5 -47t37.5 -28t45.5 -13.5t49.5 -3.5q33 0 63 7.5t52.5 25.5t35.5 47t13 71v109h-2q-19 -62 -68 -93.5t-114 -31.5q-48 0 -87.5 18t-68 51.5
t-44.5 80.5t-16 105q0 59 16 107.5t44.5 82.5t68.5 52.5t87 18.5q65 0 115 -33t70 -96h1v121h55zM272 48q38 0 69 15t53 42t34.5 65.5t12.5 84.5q0 47 -12 85.5t-34 66.5t-53.5 43.5t-69.5 15.5t-69.5 -15t-54 -43t-35 -67t-12.5 -87q0 -46 12.5 -84t35 -65t54 -42t69.5 -15
z" />
    <glyph glyph-name="h" unicode="h" horiz-adv-x="538" 
d="M292 515q89 0 139 -49.5t50 -162.5v-303h-57v298q0 87 -35.5 127.5t-111.5 40.5q-37 0 -66.5 -15.5t-50.5 -43.5t-32.5 -66.5t-11.5 -84.5v-256h-59v700h58v-317h1q19 64 65 98t111 34z" />
    <glyph glyph-name="i" unicode="i" horiz-adv-x="222" 
d="M111 604q-18 0 -29.5 11.5t-11.5 28.5t11.5 28.5t29.5 11.5q17 0 29 -11.5t12 -28.5t-12 -28.5t-29 -11.5zM82 507h57v-507h-57v507z" />
    <glyph glyph-name="j" unicode="j" horiz-adv-x="226" 
d="M116 604q-18 0 -29.5 11.5t-11.5 28.5t11.5 28.5t29.5 11.5q17 0 29 -11.5t12 -28.5t-12 -28.5t-29 -11.5zM144 507v-554q0 -38 -10 -63.5t-27 -41.5t-41 -23t-52 -7q-29 0 -60 6v45q15 -2 28.5 -3t25.5 -1q18 0 32.5 3.5t24.5 13.5t15.5 27.5t5.5 44.5v553h58z" />
    <glyph glyph-name="k" unicode="k" horiz-adv-x="489" 
d="M460 0h-67l-142 218q-24 39 -64 45l-71 -66v-197h-59v700h59v-437l263 244h75l-231 -210q24 -4 44 -17t33 -33z" />
    <glyph glyph-name="l" unicode="l" horiz-adv-x="263" 
d="M75 700h58v-565q0 -54 16.5 -71.5t52.5 -17.5q18 0 43 3v-44q-31 -6 -58 -6q-54 0 -83 30t-29 104v567z" />
    <glyph glyph-name="m" unicode="m" horiz-adv-x="802" 
d="M581 517q75 0 120 -48t45 -129v-340h-59v327q0 65 -32.5 103.5t-92.5 38.5q-30 0 -54.5 -12.5t-41.5 -35t-26.5 -52t-9.5 -64.5v-305h-57v328q0 63 -34.5 102t-89.5 39q-30 0 -54.5 -13t-42 -36t-27 -55t-9.5 -70v-295h-59v507h55v-105h2q14 51 53 83t99 32
q59 0 97 -32.5t55 -84.5h1q15 51 57 84t105 33z" />
    <glyph glyph-name="n" unicode="n" horiz-adv-x="538" 
d="M292 515q89 0 139.5 -49.5t50.5 -162.5v-303h-58v298q0 87 -35.5 127.5t-111.5 40.5q-37 0 -66.5 -15.5t-50.5 -43.5t-32.5 -66.5t-11.5 -84.5v-256h-59v507h58v-124h1q18 64 64.5 98t111.5 34z" />
    <glyph glyph-name="o" unicode="o" horiz-adv-x="538" 
d="M269 515q52 0 94.5 -18t73 -52t47 -82.5t16.5 -109.5q0 -60 -16.5 -108.5t-47 -82.5t-73 -52t-94.5 -18t-94.5 18t-73 52t-47 82.5t-16.5 108.5q0 61 16.5 109.5t47 82.5t73 52t94.5 18zM269 40q39 0 71 14.5t55 42.5t36 67.5t13 88.5q0 50 -13 90t-36 67.5t-55 42
t-71 14.5t-71 -14.5t-55 -42t-35.5 -67.5t-12.5 -90t12.5 -89.5t35.5 -67t55 -42t71 -14.5z" />
    <glyph glyph-name="p" unicode="p" horiz-adv-x="557" 
d="M112 507v-121h2q20 61 69 95t115 34q47 0 87 -18.5t68.5 -53t44.5 -82.5t16 -108q0 -59 -16 -107.5t-44.5 -82.5t-68 -52.5t-86.5 -18.5q-64 0 -113.5 32.5t-69.5 93.5h-2v-295h-57v684h55zM116 255q0 -48 12.5 -87t34.5 -67.5t53.5 -44t68.5 -15.5q38 0 69.5 15.5t54 43
t35 66.5t12.5 87t-12.5 87.5t-35 67.5t-54 43.5t-69.5 15.5q-37 0 -68.5 -15.5t-53.5 -43.5t-34.5 -67t-12.5 -86z" />
    <glyph glyph-name="q" unicode="q" horiz-adv-x="556" 
d="M499 -177h-56v295h-2q-20 -61 -69.5 -93.5t-113.5 -32.5q-48 0 -87.5 18.5t-68 52.5t-44 82.5t-15.5 107.5q0 60 16 108t44.5 82.5t68 53t87.5 18.5q66 0 114.5 -34t69.5 -95h1v121h55v-684zM441 255q0 47 -12.5 86t-34.5 67t-53 43.5t-69 15.5t-69.5 -15.5t-54 -43.5
t-35 -67.5t-12.5 -87.5t12.5 -87t35 -66.5t54 -43t69.5 -15.5t69 15.5t53 44t34.5 67.5t12.5 87z" />
    <glyph glyph-name="r" unicode="r" horiz-adv-x="324" 
d="M115 397q15 53 53 84.5t96 31.5q11 0 21.5 -1.5t22.5 -3.5v-49q-23 5 -39 5q-35 0 -63.5 -15.5t-49 -42.5t-31.5 -63t-11 -77v-266h-57v507h56v-110h2z" />
    <glyph glyph-name="s" unicode="s" horiz-adv-x="473" 
d="M277 272q79 -19 115.5 -50t36.5 -83q0 -33 -13.5 -60.5t-38.5 -46.5t-60 -29.5t-77 -10.5q-34 0 -67.5 9.5t-61 28t-45.5 47.5t-22 68h54q6 -48 46.5 -77.5t96.5 -29.5q59 0 95.5 26t36.5 70q0 34 -27.5 55.5t-88.5 35.5l-57 12q-75 17 -111.5 48.5t-36.5 83.5
q0 32 14.5 58t39.5 44.5t58.5 29t70.5 10.5q33 0 65 -9t57.5 -28t42 -48.5t19.5 -69.5h-55q-5 53 -40.5 81.5t-90.5 28.5q-26 0 -49 -7t-40 -20t-26.5 -30t-9.5 -37q0 -34 26.5 -54t84.5 -34z" />
    <glyph glyph-name="t" unicode="t" horiz-adv-x="320" 
d="M179 461v-326q0 -48 13.5 -68.5t56.5 -21.5q10 0 19.5 1t23.5 3v-44q-14 -4 -24.5 -6t-24.5 -2q-64 -1 -93 30t-29 106v328h-87v44h88v145h57v-145h106v-44h-106z" />
    <glyph glyph-name="u" unicode="u" horiz-adv-x="538" 
d="M116 507v-298q0 -87 34.5 -127.5t111.5 -40.5q37 0 67 15.5t51 43t32 66t11 84.5v257h59v-507h-57v123h-1q-20 -63 -66.5 -97t-110.5 -34q-44 0 -79.5 11.5t-60 37t-37.5 66t-13 97.5v303h59z" />
    <glyph glyph-name="v" unicode="v" horiz-adv-x="474" 
d="M274 0h-72l-188 507h61l162 -455h2l160 455h61z" />
    <glyph glyph-name="w" unicode="w" horiz-adv-x="718" 
d="M557 0h-67l-130 442h-2l-129 -442h-67l-142 507h60l118 -449h1l130 449h61l130 -449h1l117 449h60z" />
    <glyph glyph-name="x" unicode="x" horiz-adv-x="493" 
d="M206 258l-175 249h65l149 -216h1l151 216h66l-179 -249l179 -258h-66l-151 223h-1l-149 -223h-65z" />
    <glyph glyph-name="y" unicode="y" horiz-adv-x="478" 
d="M462 507q-46 -125 -88 -236q-18 -47 -36 -96.5t-34.5 -94.5t-31 -83.5t-23.5 -63.5q-13 -35 -27.5 -57.5t-33.5 -35t-42.5 -17.5t-53.5 -5q-14 0 -26.5 1.5t-28.5 6.5v43q14 -2 23.5 -3t20.5 -1q20 0 35 1t28 8t24 21t22 40l22 59l-196 513h62l161 -455h2l160 455h61z
" />
    <glyph glyph-name="z" unicode="z" horiz-adv-x="488" 
d="M55 39l310 419v3h-310v46h377v-43l-308 -416v-2h309v-46h-378v39z" />
    <glyph glyph-name="braceleft" unicode="{" horiz-adv-x="371" 
d="M207 458q0 -55 -25.5 -87.5t-67.5 -41.5v-2q42 -10 67.5 -41t25.5 -88v-157q0 -47 23.5 -62t65.5 -15h41v-46h-45q-65 0 -104 26.5t-39 95.5v160q0 47 -25 75t-76 32v43q51 5 76 32.5t25 75.5v158q0 35 10.5 58.5t29 38t45 21t58.5 6.5h45v-48h-41q-42 0 -65.5 -15
t-23.5 -63v-156z" />
    <glyph glyph-name="bar" unicode="|" horiz-adv-x="272" 
d="M164 798v-902h-55v902h55z" />
    <glyph glyph-name="braceright" unicode="}" horiz-adv-x="371" 
d="M164 614q0 48 -23.5 63t-65.5 15h-41v48h45q32 0 58.5 -6.5t45 -21t29 -38t10.5 -58.5v-158q0 -48 25 -75.5t76 -32.5v-43q-51 -4 -76 -32t-25 -75v-160q0 -34 -10.5 -57.5t-29 -38t-45 -20.5t-58.5 -6h-45v46h41q41 0 65 15t24 62v157q0 57 26 88t68 41v2
q-42 9 -68 41.5t-26 87.5v156z" />
    <glyph glyph-name="asciitilde" unicode="~" horiz-adv-x="567" 
d="M178 346q-32 0 -52.5 -26.5t-21.5 -74.5h-49q0 72 32.5 111.5t86.5 39.5q33 0 59.5 -17t50.5 -37t48 -37t52 -17q32 0 54.5 29t24.5 77h49q0 -35 -9.5 -63.5t-26.5 -49t-40 -31.5t-49 -11q-34 0 -61.5 16.5t-51.5 37t-47 37t-49 16.5z" />
    <glyph glyph-name="uni00A0" unicode="&#xa0;" horiz-adv-x="300" 
 />
    <glyph glyph-name="exclamdown" unicode="&#xa1;" horiz-adv-x="232" 
d="M115 482q-20 0 -33.5 14t-13.5 33q0 20 13.5 33.5t33.5 13.5q22 0 35.5 -13.5t13.5 -33.5q0 -19 -13.5 -33t-35.5 -14zM86 181l4 189h52l4 -189v-306h-60v306z" />
    <glyph glyph-name="cent" unicode="&#xa2;" horiz-adv-x="526" 
d="M304 611v-98q36 -3 67 -16.5t54.5 -35t38.5 -49t21 -59.5h-55q-12 50 -52.5 81.5t-100.5 31.5q-79 0 -125 -56.5t-46 -156.5q0 -99 46 -156t125 -57q59 0 100 30t52 80h56q-11 -66 -59.5 -107.5t-121.5 -48.5v-98h-55v98q-93 8 -147 76t-54 183q0 57 14 103t40 79.5
t63.5 53.5t83.5 24v98h55z" />
    <glyph glyph-name="sterling" unicode="&#xa3;" horiz-adv-x="582" 
d="M456 289h-234q-1 -43 -7.5 -75t-18.5 -59t-28.5 -51t-36.5 -51v-3h404v-50h-474v40q20 29 39 54t34 52.5t24.5 61t9.5 81.5h-101v47h91q-7 25 -18 50.5t-22 51.5t-19 53t-8 54q0 32 13 61.5t38.5 52t63.5 36t88 13.5q55 0 96.5 -16t69.5 -44.5t42 -67t15 -82.5h-56
q-1 34 -11.5 63t-30.5 50.5t-51 34t-72 12.5q-37 0 -65 -10t-46.5 -26.5t-27.5 -37.5t-9 -43q0 -24 8.5 -49t20 -51t23 -52.5t17.5 -52.5h239v-47z" />
    <glyph glyph-name="currency" unicode="&#xa4;" horiz-adv-x="519" 
d="M69 320q0 32 10.5 60.5t29.5 53.5l-54 54l35 36l54 -55q24 19 53 30t61 11t61 -11t52 -30l55 55l38 -36l-56 -54q19 -25 29.5 -53.5t10.5 -60.5t-10.5 -61.5t-29.5 -52.5l56 -55l-37 -36l-56 54q-48 -39 -113 -39q-64 0 -114 39l-54 -54l-35 37l54 54q-40 48 -40 114z
M118 320q0 -28 11 -54t30 -45t44.5 -30.5t54.5 -11.5t54.5 11.5t45 30.5t30.5 45t11 54q0 29 -11 54.5t-30.5 44.5t-45 30.5t-54.5 11.5t-54.5 -11.5t-44.5 -30.5t-30 -44.5t-11 -54.5z" />
    <glyph glyph-name="yen" unicode="&#xa5;" horiz-adv-x="596" 
d="M267 167h-176v45h176v107h-176v46h158l-235 335h70l213 -312h2l213 312h70l-236 -335h158v-46h-177v-107h177v-45h-177v-167h-60v167z" />
    <glyph glyph-name="brokenbar" unicode="&#xa6;" horiz-adv-x="272" 
d="M109 798h55v-313h-55v313zM109 209h55v-313h-55v313z" />
    <glyph glyph-name="section" unicode="&#xa7;" horiz-adv-x="488" 
d="M450 333q0 -25 -9.5 -47t-26 -40t-38 -31t-45.5 -19q52 -17 85.5 -48.5t33.5 -76.5q0 -33 -16 -59.5t-44 -44.5t-65.5 -28t-79.5 -10q-36 0 -72 8t-65 26t-48.5 47.5t-22.5 73.5h58q7 -57 49 -81.5t102 -24.5q29 0 55.5 6t46 17.5t31 28.5t11.5 39q0 37 -30 59t-94 36
l-62 15q-85 20 -125.5 53.5t-40.5 91.5q0 51 34.5 86.5t82.5 49.5q-53 15 -84 48.5t-31 78.5q0 33 16 59.5t43.5 44.5t64.5 27.5t79 9.5q36 0 72.5 -8t65.5 -26t48.5 -48t22.5 -74h-59q-3 29 -15.5 49.5t-33 33.5t-46.5 19t-56 6q-29 0 -55.5 -6t-46 -18t-31 -29t-11.5 -39
q0 -36 30 -58.5t94 -36.5l63 -13q85 -20 125 -54t40 -93zM266 430q-42 5 -73.5 -1t-53 -20t-32.5 -35t-11 -45q0 -39 30 -65.5t96 -35.5q42 -6 73.5 0.5t53.5 20.5t33 35t11 45q0 39 -30.5 66t-96.5 35z" />
    <glyph glyph-name="dieresis" unicode="&#xa8;" horiz-adv-x="437" 
d="M68 643q0 18 13.5 31.5t33.5 13.5q18 0 31.5 -13.5t13.5 -31.5q0 -20 -13.5 -34t-31.5 -14q-20 0 -33.5 14t-13.5 34zM278 643q0 18 13 31.5t33 13.5q19 0 32 -13.5t13 -31.5q0 -20 -13 -34t-32 -14q-20 0 -33 14t-13 34z" />
    <glyph glyph-name="copyright" unicode="&#xa9;" horiz-adv-x="837" 
d="M41 342q0 78 29.5 147t81 120.5t120.5 81t147 29.5t147 -29.5t120.5 -81t81 -120.5t29.5 -147t-29.5 -146.5t-81 -120t-120.5 -81t-147 -29.5t-147 29.5t-120.5 81t-81 120t-29.5 146.5zM86 342q0 -69 26 -129t71 -105t106 -71t130 -26t129.5 26t106 71t71.5 105t26 129
t-26 130t-71.5 106t-106 71.5t-129.5 26.5t-130 -26.5t-106 -71.5t-71 -106t-26 -130zM425 174q46 0 77 22t42 63h47q-11 -58 -55 -91.5t-111 -33.5q-88 0 -137.5 57.5t-49.5 159.5q0 100 49.5 156.5t137.5 56.5q32 0 60 -9.5t49.5 -26.5t36 -41t20.5 -53h-48q-11 40 -42 65
t-76 25q-66 0 -102.5 -46t-36.5 -127q0 -84 36.5 -130.5t102.5 -46.5z" />
    <glyph glyph-name="ordfeminine" unicode="&#xaa;" horiz-adv-x="366" 
d="M193 708q55 0 87 -29t32 -77v-205h-45v61q-12 -32 -45 -48.5t-69 -16.5q-45 0 -71.5 25t-26.5 64q0 83 113 91l97 7v18q0 35 -19.5 55t-54.5 20t-56 -16t-26 -45h-43q5 44 38.5 70t88.5 26zM265 550l-89 -6q-38 -3 -57 -18.5t-19 -41.5q0 -25 18.5 -41.5t48.5 -16.5
q20 0 37.5 7.5t31 20t21.5 29.5t8 35v32z" />
    <glyph glyph-name="guillemotleft" unicode="&#xab;" horiz-adv-x="916" 
d="M56 292v51l450 273v-59l-393 -239v-1l393 -239v-58zM410 292v51l450 273v-59l-393 -239v-1l393 -239v-58z" />
    <glyph glyph-name="logicalnot" unicode="&#xac;" horiz-adv-x="478" 
d="M55 342h368v-186h-53v136h-315v50z" />
    <glyph glyph-name="registered" unicode="&#xae;" horiz-adv-x="837" 
d="M41 342q0 78 29.5 147t81 120.5t120.5 81t147 29.5t147 -29.5t120.5 -81t81 -120.5t29.5 -147t-29.5 -146.5t-81 -120t-120.5 -81t-147 -29.5t-147 29.5t-120.5 81t-81 120t-29.5 146.5zM86 342q0 -69 26 -129t71 -105t106 -71t130 -26t129.5 26t106 71t71.5 105t26 129
t-26 130t-71.5 106t-106 71.5t-129.5 26.5t-130 -26.5t-106 -71.5t-71 -106t-26 -130zM529 145l-105 185h-94v-185h-48v410h159q62 0 95.5 -27t33.5 -84q0 -48 -25 -76t-76 -33l110 -190h-50zM330 366h101q45 0 69.5 18t24.5 59q0 42 -24.5 58.5t-69.5 16.5h-101v-152z" />
    <glyph glyph-name="macron" unicode="&#xaf;" horiz-adv-x="583" 
d="M549 754h-515v48h515v-48z" />
    <glyph glyph-name="degree" unicode="&#xb0;" horiz-adv-x="401" 
d="M201 419q-69 0 -110 39.5t-41 104.5q0 64 40 104.5t111 40.5q68 0 109 -40.5t41 -104.5q0 -65 -41 -104.5t-109 -39.5zM201 462q54 0 78 28t24 73q0 48 -25.5 76t-76.5 28q-54 0 -78 -28t-24 -76q0 -45 24 -73t78 -28z" />
    <glyph glyph-name="plusminus" unicode="&#xb1;" horiz-adv-x="563" 
d="M254 303h-199v47h199v183h56v-183h198v-47h-198v-183h-56v183zM55 48h453v-48h-453v48z" />
    <glyph glyph-name="twosuperior" unicode="&#xb2;" horiz-adv-x="387" 
d="M124 405v-1h208v-38h-276v29l150 153q23 23 38 40t24 31t13 25.5t4 24.5q0 36 -24 59.5t-68 23.5q-48 0 -71.5 -26.5t-23.5 -64.5h-43q0 26 9 49.5t26 41t43 28t60 10.5q66 0 101 -34t35 -84q0 -17 -4 -32.5t-14.5 -33t-28 -37.5t-44.5 -47z" />
    <glyph glyph-name="threesuperior" unicode="&#xb3;" horiz-adv-x="407" 
d="M254 577q45 -5 71.5 -30t26.5 -70q0 -48 -38 -82.5t-114 -34.5q-36 0 -63 11t-45 29t-27.5 41.5t-9.5 48.5h44q0 -17 7 -33.5t20 -29t31.5 -20.5t42.5 -8q50 0 78 23t28 59q0 39 -30.5 58t-80.5 19h-36v35h36q41 0 69.5 22.5t28.5 59.5q0 35 -25.5 56t-67.5 21
q-43 0 -68 -26.5t-26 -64.5h-43q1 55 37 92t100 37q66 0 101.5 -31t35.5 -78q0 -43 -22.5 -68t-60.5 -33v-3z" />
    <glyph glyph-name="acute" unicode="&#xb4;" horiz-adv-x="307" 
d="M66 578l104 202h71l-119 -202h-56z" />
    <glyph glyph-name="paragraph" unicode="&#xb6;" horiz-adv-x="625" 
d="M531 0h-53v652h-123v-652h-52v303q-14 -5 -32 -7.5t-34 -2.5q-42 0 -77 9.5t-60 33t-38.5 62t-13.5 95.5q0 62 14.5 102t41.5 63t64.5 32.5t82.5 9.5h280v-700z" />
    <glyph glyph-name="periodcentered" unicode="&#xb7;" horiz-adv-x="294" 
d="M82 317q0 26 19 45t47 19q26 0 45 -19t19 -45q0 -28 -19 -47t-45 -19q-28 0 -47 19t-19 47z" />
    <glyph glyph-name="cedilla" unicode="&#xb8;" horiz-adv-x="313" 
d="M69 -277l104 181h71l-118 -181h-57z" />
    <glyph glyph-name="onesuperior" unicode="&#xb9;" horiz-adv-x="263" 
d="M170 782h38v-419h-48v376l-105 -55v41z" />
    <glyph glyph-name="ordmasculine" unicode="&#xba;" horiz-adv-x="436" 
d="M55 577q0 101 45 157t118 56q36 0 66 -14.5t51.5 -42t33.5 -67t12 -89.5q0 -102 -45 -158.5t-118 -56.5q-74 0 -118.5 56.5t-44.5 158.5zM103 577q0 -85 31.5 -130t83.5 -45t83.5 45t31.5 130q0 84 -31.5 129t-83.5 45t-83.5 -45t-31.5 -129z" />
    <glyph glyph-name="guillemotright" unicode="&#xbb;" horiz-adv-x="916" 
d="M860 292l-450 -272v58l392 239v1l-392 239v59l450 -273v-51zM506 292l-450 -272v58l392 239v1l-392 239v59l450 -273v-51z" />
    <glyph glyph-name="onequarter" unicode="&#xbc;" horiz-adv-x="715" 
d="M440 700h52l-253 -700h-53zM27 643l116 57h38v-419h-47v376l-107 -55v41zM375 117l212 302h42v-297h59v-38h-58v-84h-48v84h-207v33zM584 122v228l-158 -228h158z" />
    <glyph glyph-name="onehalf" unicode="&#xbd;" horiz-adv-x="782" 
d="M143 700h38v-419h-47v376l-107 -55v41zM492 700l-253 -700h-53l254 700h52zM730 306q0 -17 -4 -32.5t-14.5 -33t-28 -37.5t-43.5 -46l-116 -118v-1h209v-38h-276v29l150 153q23 23 38 40.5t24 31t13 25.5t4 25q0 35 -24 58.5t-68 23.5q-47 0 -71 -26.5t-24 -64.5h-44
q0 26 9 49.5t26.5 41t43.5 28t60 10.5q66 0 101 -33.5t35 -84.5z" />
    <glyph glyph-name="threequarters" unicode="&#xbe;" horiz-adv-x="816" 
d="M247 495q45 -5 72 -30t27 -70q0 -48 -38 -82.5t-115 -34.5q-36 0 -63 11t-45 29t-27.5 41.5t-9.5 48.5h44q0 -17 7 -33.5t20 -29t32 -20.5t43 -8q50 0 77.5 23t27.5 59q0 40 -30.5 58.5t-80.5 18.5h-36v36h36q42 0 70 22t28 59q0 35 -25.5 56t-66.5 21q-43 0 -68.5 -26.5
t-25.5 -64.5h-44q2 56 37.5 92.5t100.5 36.5q66 0 101 -31t35 -78q0 -43 -22.5 -68t-60.5 -33v-3zM593 700l-253 -700h-53l254 700h52zM476 117l213 302h41v-297h60v-38h-58v-84h-48v84h-208v33zM685 122v228l-158 -228h158z" />
    <glyph glyph-name="questiondown" unicode="&#xbf;" horiz-adv-x="509" 
d="M246 576q21 0 35 -13.5t14 -33.5q0 -19 -14 -33t-35 -14q-20 0 -34 14t-14 33q0 20 14 33.5t34 13.5zM455 75q-1 -44 -14.5 -82t-38 -65.5t-59.5 -43.5t-80 -16q-107 0 -157.5 45.5t-50.5 124.5q0 36 12 59.5t30 41.5t38.5 34.5t38.5 38.5t30 52t12 75v31h62v-31
q0 -47 -12 -80t-30.5 -57t-40 -41.5t-40 -34.5t-30.5 -36.5t-12 -47.5q0 -60 37.5 -92t111.5 -32q34 0 59 12t42 33.5t26 50t10 61.5h56z" />
    <glyph glyph-name="Agrave" unicode="&#xc0;" horiz-adv-x="617" 
d="M260 957l104 -181h-56l-119 181h71zM275 700h67l267 -700h-63l-72 190h-332l-71 -190h-63zM458 238l-148 396h-3l-148 -396h299z" />
    <glyph glyph-name="Aacute" unicode="&#xc1;" horiz-adv-x="617" 
d="M304 776h-57l104 181h72zM275 700h67l267 -700h-63l-72 190h-332l-71 -190h-63zM458 238l-148 396h-3l-148 -396h299z" />
    <glyph glyph-name="Acircumflex" unicode="&#xc2;" horiz-adv-x="617" 
d="M467 758h-58l-100 152h-3l-99 -152h-56l131 200h52zM275 700h67l267 -700h-63l-72 190h-332l-71 -190h-63zM458 238l-148 396h-3l-148 -396h299z" />
    <glyph glyph-name="Atilde" unicode="&#xc3;" horiz-adv-x="617" 
d="M221 873q-29 0 -47 -24t-20 -68h-46q0 66 29.5 101.5t79.5 35.5q30 0 54.5 -15.5t46 -33.5t43 -33.5t46.5 -15.5q30 0 50.5 26.5t22.5 70.5h45q0 -32 -9 -58t-24 -44.5t-36 -28.5t-45 -10q-31 0 -56 15t-46.5 33.5t-42.5 33.5t-45 15zM275 700h67l267 -700h-63l-72 190
h-332l-71 -190h-63zM458 238l-148 396h-3l-148 -396h299z" />
    <glyph glyph-name="Adieresis" unicode="&#xc4;" horiz-adv-x="617" 
d="M365 862q0 19 14 32.5t34 13.5q18 0 31.5 -13.5t13.5 -32.5t-13.5 -32.5t-31.5 -13.5q-20 0 -34 13.5t-14 32.5zM156 862q0 19 14 32.5t33 13.5t32.5 -13.5t13.5 -32.5t-13.5 -32.5t-32.5 -13.5t-33 13.5t-14 32.5zM275 700h67l267 -700h-63l-72 190h-332l-71 -190h-63z
M458 238l-148 396h-3l-148 -396h299z" />
    <glyph glyph-name="Aring" unicode="&#xc5;" horiz-adv-x="618" 
d="M265 673q-29 11 -48 36.5t-19 59.5q0 23 8.5 42.5t23.5 34t35.5 22.5t43.5 8t42.5 -8t34 -22.5t23 -34t8.5 -42.5q0 -33 -18 -59t-47 -37l258 -673h-64l-71 190h-333l-71 -190h-63zM309 708q26 0 44 17.5t18 43.5q0 27 -18 44.5t-44 17.5q-27 0 -44.5 -17.5t-17.5 -44.5
q0 -26 17.5 -43.5t44.5 -17.5zM458 238l-148 396h-3l-148 -396h299z" />
    <glyph glyph-name="AE" unicode="&#xc6;" horiz-adv-x="969" 
d="M536 651v-276h331v-49h-331v-277h379v-49h-440v190h-275l-127 -190h-65l457 700h450v-49h-379zM475 238v371l-245 -371h245z" />
    <glyph glyph-name="Ccedilla" unicode="&#xc7;" horiz-adv-x="664" 
d="M354 45q80 0 135 38.5t74 108.5h60q-19 -93 -90 -146.5t-179 -53.5q-72 0 -129 25t-96 72t-60 114.5t-21 151.5q0 82 21 147.5t60 111t96 70t129 24.5q51 0 96 -15.5t80.5 -43t59.5 -66t33 -85.5h-61q-9 35 -28 64.5t-46 50.5t-61 32.5t-73 11.5q-58 0 -104 -21
t-77.5 -60t-48 -95t-16.5 -126q0 -72 16.5 -129.5t48 -97.5t77.5 -61.5t104 -21.5zM308 -277h-55l103 181h71z" />
    <glyph glyph-name="Egrave" unicode="&#xc8;" horiz-adv-x="555" 
d="M237 957l103 -181h-56l-119 181h72zM121 651v-276h332v-49h-332v-277h379v-49h-439v700h439v-49h-379z" />
    <glyph glyph-name="Eacute" unicode="&#xc9;" horiz-adv-x="555" 
d="M299 776h-57l104 181h72zM121 651v-276h332v-49h-332v-277h379v-49h-439v700h439v-49h-379z" />
    <glyph glyph-name="Ecircumflex" unicode="&#xca;" horiz-adv-x="555" 
d="M438 758h-58l-99 152h-4l-99 -152h-56l131 200h52zM121 651v-276h332v-49h-332v-277h379v-49h-439v700h439v-49h-379z" />
    <glyph glyph-name="Edieresis" unicode="&#xcb;" horiz-adv-x="555" 
d="M339 862q0 19 13.5 32.5t33.5 13.5q19 0 32 -13.5t13 -32.5t-13 -32.5t-32 -13.5q-20 0 -33.5 13.5t-13.5 32.5zM130 862q0 19 13.5 32.5t33.5 13.5q18 0 31.5 -13.5t13.5 -32.5t-13.5 -32.5t-31.5 -13.5q-20 0 -33.5 13.5t-13.5 32.5zM121 651v-276h332v-49h-332v-277
h379v-49h-439v700h439v-49h-379z" />
    <glyph glyph-name="Igrave" unicode="&#xcc;" horiz-adv-x="194" 
d="M24 934l103 -182h-56l-119 182h72zM68 700h59v-700h-59v700z" />
    <glyph glyph-name="Iacute" unicode="&#xcd;" horiz-adv-x="194" 
d="M124 776h-56l104 181h71zM68 700h59v-700h-59v700z" />
    <glyph glyph-name="Icircumflex" unicode="&#xce;" horiz-adv-x="194" 
d="M254 758h-57l-100 152h-2l-100 -152h-56l131 200h52zM68 700h59v-700h-59v700z" />
    <glyph glyph-name="Idieresis" unicode="&#xcf;" horiz-adv-x="194" 
d="M-53 862q0 19 13.5 32.5t32.5 13.5t32.5 -13.5t13.5 -32.5t-13.5 -32.5t-32.5 -13.5t-32.5 13.5t-13.5 32.5zM156 862q0 19 13.5 32.5t33.5 13.5q18 0 31.5 -13.5t13.5 -32.5t-13.5 -32.5t-31.5 -13.5q-20 0 -33.5 13.5t-13.5 32.5zM68 700h59v-700h-59v700z" />
    <glyph glyph-name="Eth" unicode="&#xd0;" horiz-adv-x="742" 
d="M348 700q80 0 144 -23t109 -67.5t69 -109.5t24 -148q0 -84 -24.5 -149.5t-69.5 -110.5t-109.5 -68.5t-144.5 -23.5h-202v328h-110v45h110v327h204zM341 49q68 0 122 20t91.5 58.5t58 94.5t20.5 128t-20 128.5t-57.5 94.5t-91 58t-120.5 20h-140v-278h218v-45h-218v-279
h137z" />
    <glyph glyph-name="Ntilde" unicode="&#xd1;" horiz-adv-x="657" 
d="M169 781h-47q0 66 30 101.5t80 35.5q30 0 54 -15.5t46 -33.5t43.5 -33.5t46.5 -15.5q29 0 49.5 26.5t22.5 70.5h46q0 -32 -9 -58t-24.5 -44.5t-36.5 -28.5t-45 -10q-31 0 -55.5 15t-46.5 33.5t-43 33.5t-45 15q-29 0 -47 -24t-19 -68zM61 700h58l415 -597h3v597h59v-700
h-55l-419 602h-2v-602h-59v700z" />
    <glyph glyph-name="Ograve" unicode="&#xd2;" horiz-adv-x="707" 
d="M319 957l103 -181h-56l-119 181h72zM353 -8q-73 0 -130.5 24.5t-98 71t-62 113t-21.5 150.5q0 83 21.5 149t62 112t98 71t130.5 25t131 -25t98.5 -71t62 -112t21.5 -149q0 -84 -21.5 -150.5t-62 -113t-98.5 -71t-131 -24.5zM353 44q59 0 105.5 21.5t78.5 61t49.5 96.5
t17.5 128t-17.5 127.5t-49.5 96t-78.5 60.5t-105.5 21q-58 0 -104.5 -21t-79 -60.5t-49.5 -96t-17 -127.5t17 -128t49.5 -96.5t79 -61t104.5 -21.5z" />
    <glyph glyph-name="Oacute" unicode="&#xd3;" horiz-adv-x="707" 
d="M354 776h-56l103 181h72zM353 -8q-73 0 -130.5 24.5t-98 71t-62 113t-21.5 150.5q0 83 21.5 149t62 112t98 71t130.5 25t131 -25t98.5 -71t62 -112t21.5 -149q0 -84 -21.5 -150.5t-62 -113t-98.5 -71t-131 -24.5zM353 44q59 0 105.5 21.5t78.5 61t49.5 96.5t17.5 128
t-17.5 127.5t-49.5 96t-78.5 60.5t-105.5 21q-58 0 -104.5 -21t-79 -60.5t-49.5 -96t-17 -127.5t17 -128t49.5 -96.5t79 -61t104.5 -21.5z" />
    <glyph glyph-name="Ocircumflex" unicode="&#xd4;" horiz-adv-x="707" 
d="M511 758h-58l-99 152h-3l-99 -152h-56l131 200h51zM353 -8q-73 0 -130.5 24.5t-98 71t-62 113t-21.5 150.5q0 83 21.5 149t62 112t98 71t130.5 25t131 -25t98.5 -71t62 -112t21.5 -149q0 -84 -21.5 -150.5t-62 -113t-98.5 -71t-131 -24.5zM353 44q59 0 105.5 21.5
t78.5 61t49.5 96.5t17.5 128t-17.5 127.5t-49.5 96t-78.5 60.5t-105.5 21q-58 0 -104.5 -21t-79 -60.5t-49.5 -96t-17 -127.5t17 -128t49.5 -96.5t79 -61t104.5 -21.5z" />
    <glyph glyph-name="Otilde" unicode="&#xd5;" horiz-adv-x="707" 
d="M199 781h-45q0 66 29.5 101.5t79.5 35.5q30 0 54 -15.5t45.5 -33.5t43.5 -33.5t47 -15.5q30 0 50 26.5t22 70.5h46q0 -64 -33 -102.5t-82 -38.5q-31 0 -55.5 15t-46.5 33.5t-43 33.5t-45 15q-29 0 -47 -24t-20 -68zM353 -8q-73 0 -130.5 24.5t-98 71t-62 113t-21.5 150.5
q0 83 21.5 149t62 112t98 71t130.5 25t131 -25t98.5 -71t62 -112t21.5 -149q0 -84 -21.5 -150.5t-62 -113t-98.5 -71t-131 -24.5zM353 44q59 0 105.5 21.5t78.5 61t49.5 96.5t17.5 128t-17.5 127.5t-49.5 96t-78.5 60.5t-105.5 21q-58 0 -104.5 -21t-79 -60.5t-49.5 -96
t-17 -127.5t17 -128t49.5 -96.5t79 -61t104.5 -21.5z" />
    <glyph glyph-name="Odieresis" unicode="&#xd6;" horiz-adv-x="707" 
d="M410 862q0 19 13.5 32.5t33.5 13.5q18 0 32 -13.5t14 -32.5t-14 -32.5t-32 -13.5q-20 0 -33.5 13.5t-13.5 32.5zM201 862q0 19 13.5 32.5t33.5 13.5q18 0 32 -13.5t14 -32.5t-14 -32.5t-32 -13.5q-20 0 -33.5 13.5t-13.5 32.5zM353 -8q-73 0 -130.5 24.5t-98 71t-62 113
t-21.5 150.5q0 83 21.5 149t62 112t98 71t130.5 25t131 -25t98.5 -71t62 -112t21.5 -149q0 -84 -21.5 -150.5t-62 -113t-98.5 -71t-131 -24.5zM353 44q59 0 105.5 21.5t78.5 61t49.5 96.5t17.5 128t-17.5 127.5t-49.5 96t-78.5 60.5t-105.5 21q-58 0 -104.5 -21t-79 -60.5
t-49.5 -96t-17 -127.5t17 -128t49.5 -96.5t79 -61t104.5 -21.5z" />
    <glyph glyph-name="multiply" unicode="&#xd7;" horiz-adv-x="519" 
d="M55 151l166 167l-166 166l37 38l166 -167l167 167l39 -38l-168 -166l168 -167l-39 -38l-167 167l-165 -167z" />
    <glyph glyph-name="Oslash" unicode="&#xd8;" horiz-adv-x="707" 
d="M666 351q0 -84 -21.5 -150.5t-62 -113t-98.5 -71t-131 -24.5t-130.5 24.5t-98 71t-62 113t-21.5 150.5q0 83 21.5 149t62 112t98 71t130.5 25t131 -25t98.5 -71t62 -112t21.5 -149zM103 351q0 -102 34.5 -172t98.5 -103l204 564q-20 8 -42 12t-46 4q-58 0 -104.5 -21.5
t-78.5 -61t-49 -95.5t-17 -127zM604 351q0 94 -31 162t-87 103l-203 -563q17 -5 34.5 -7t36.5 -2q59 0 105 21.5t78.5 61t49.5 96.5t17 128z" />
    <glyph glyph-name="Ugrave" unicode="&#xd9;" horiz-adv-x="653" 
d="M402 776h-56l-119 181h71zM121 251q0 -94 54.5 -149.5t151.5 -55.5q48 0 86 14.5t65 41t41 64.5t14 85v449h59v-453q0 -57 -18.5 -104t-52.5 -80.5t-83 -52t-111 -18.5q-61 0 -110.5 18.5t-84 52t-53 80.5t-18.5 104v453h60v-449z" />
    <glyph glyph-name="Uacute" unicode="&#xda;" horiz-adv-x="653" 
d="M282 776l104 181h72l-119 -181h-57zM121 251q0 -94 54.5 -149.5t151.5 -55.5q48 0 86 14.5t65 41t41 64.5t14 85v449h59v-453q0 -57 -18.5 -104t-52.5 -80.5t-83 -52t-111 -18.5q-61 0 -110.5 18.5t-84 52t-53 80.5t-18.5 104v453h60v-449z" />
    <glyph glyph-name="Ucircumflex" unicode="&#xdb;" horiz-adv-x="653" 
d="M353 958l133 -200h-57l-100 152h-2l-100 -152h-56l132 200h50zM121 251q0 -94 54.5 -149.5t151.5 -55.5q48 0 86 14.5t65 41t41 64.5t14 85v449h59v-453q0 -57 -18.5 -104t-52.5 -80.5t-83 -52t-111 -18.5q-61 0 -110.5 18.5t-84 52t-53 80.5t-18.5 104v453h60v-449z" />
    <glyph glyph-name="Udieresis" unicode="&#xdc;" horiz-adv-x="653" 
d="M175 862q0 19 13 32.5t33 13.5q19 0 32.5 -13.5t13.5 -32.5t-13.5 -32.5t-32.5 -13.5q-20 0 -33 13.5t-13 32.5zM384 862q0 19 13.5 32.5t33.5 13.5q18 0 31.5 -13.5t13.5 -32.5t-13.5 -32.5t-31.5 -13.5q-20 0 -33.5 13.5t-13.5 32.5zM121 251q0 -94 54.5 -149.5
t151.5 -55.5q48 0 86 14.5t65 41t41 64.5t14 85v449h59v-453q0 -57 -18.5 -104t-52.5 -80.5t-83 -52t-111 -18.5q-61 0 -110.5 18.5t-84 52t-53 80.5t-18.5 104v453h60v-449z" />
    <glyph glyph-name="Yacute" unicode="&#xdd;" horiz-adv-x="596" 
d="M323 776h-56l104 181h71zM327 332v-332h-60v334l-253 366h70l213 -312h2l213 312h70z" />
    <glyph glyph-name="Thorn" unicode="&#xde;" horiz-adv-x="552" 
d="M121 536h168q102 0 159 -45.5t57 -141.5q0 -97 -57 -143t-160 -46h-167v-160h-60v700h60v-164zM121 487v-278h157q81 0 125.5 33t44.5 107q0 75 -43.5 106.5t-126.5 31.5h-157z" />
    <glyph glyph-name="germandbls" unicode="&#xdf;" horiz-adv-x="601" 
d="M59 0v466q0 70 12.5 116.5t39 74.5t67.5 39.5t98 11.5q227 0 227 -184q0 -62 -32 -100.5t-87 -49.5q33 -7 63.5 -23t54 -40.5t37 -56t13.5 -70.5q0 -55 -19.5 -91.5t-51.5 -59t-72 -32t-81 -9.5q-48 0 -92 11v44q38 -6 73 -6q38 0 71.5 8t59 25t40 44t14.5 66
q0 41 -18 72.5t-45.5 53t-62 33t-67.5 11.5h-46v44h46q22 0 47.5 6.5t47.5 21t36.5 38.5t14.5 58q0 29 -6.5 54t-25 43t-52 28.5t-87.5 10.5t-85.5 -14t-48 -39.5t-21.5 -61.5t-5 -80v-463h-57z" />
    <glyph glyph-name="agrave" unicode="&#xe0;" horiz-adv-x="509" 
d="M251 780l104 -182h-57l-119 182h72zM263 515q44 0 79 -12.5t59.5 -36t38 -56t13.5 -71.5v-339h-57v106h-1q-10 -27 -29.5 -48t-45 -35.5t-55.5 -22.5t-61 -8q-74 0 -117 41t-43 107q0 67 46 104t137 44l167 12v36q0 60 -35 96t-97 36t-99 -29.5t-47 -82.5h-54
q8 72 60.5 115.5t140.5 43.5zM394 259l-158 -12q-66 -4 -100.5 -31.5t-34.5 -73.5q0 -45 31.5 -75t85.5 -30q35 0 67 13.5t56 36.5t38.5 52.5t14.5 62.5v57z" />
    <glyph glyph-name="aacute" unicode="&#xe1;" horiz-adv-x="509" 
d="M288 598h-56l104 182h71zM263 515q44 0 79 -12.5t59.5 -36t38 -56t13.5 -71.5v-339h-57v106h-1q-10 -27 -29.5 -48t-45 -35.5t-55.5 -22.5t-61 -8q-74 0 -117 41t-43 107q0 67 46 104t137 44l167 12v36q0 60 -35 96t-97 36t-99 -29.5t-47 -82.5h-54q8 72 60.5 115.5
t140.5 43.5zM394 259l-158 -12q-66 -4 -100.5 -31.5t-34.5 -73.5q0 -45 31.5 -75t85.5 -30q35 0 67 13.5t56 36.5t38.5 52.5t14.5 62.5v57z" />
    <glyph glyph-name="acircumflex" unicode="&#xe2;" horiz-adv-x="509" 
d="M423 579h-57l-100 153h-3l-100 -153h-56l132 202h52zM263 515q44 0 79 -12.5t59.5 -36t38 -56t13.5 -71.5v-339h-57v106h-1q-10 -27 -29.5 -48t-45 -35.5t-55.5 -22.5t-61 -8q-74 0 -117 41t-43 107q0 67 46 104t137 44l167 12v36q0 60 -35 96t-97 36t-99 -29.5
t-47 -82.5h-54q8 72 60.5 115.5t140.5 43.5zM394 259l-158 -12q-66 -4 -100.5 -31.5t-34.5 -73.5q0 -45 31.5 -75t85.5 -30q35 0 67 13.5t56 36.5t38.5 52.5t14.5 62.5v57z" />
    <glyph glyph-name="atilde" unicode="&#xe3;" horiz-adv-x="509" 
d="M180 690q-29 0 -41 -21t-12 -65h-46q0 131 96 131q25 0 46 -13.5t40 -29t38 -29t40 -13.5q30 0 44 23t16 67h45q0 -64 -26.5 -99.5t-74.5 -35.5q-26 0 -47.5 13.5t-41 29t-38 29t-38.5 13.5zM263 515q44 0 79 -12.5t59.5 -36t38 -56t13.5 -71.5v-339h-57v106h-1
q-10 -27 -29.5 -48t-45 -35.5t-55.5 -22.5t-61 -8q-74 0 -117 41t-43 107q0 67 46 104t137 44l167 12v36q0 60 -35 96t-97 36t-99 -29.5t-47 -82.5h-54q8 72 60.5 115.5t140.5 43.5zM394 259l-158 -12q-66 -4 -100.5 -31.5t-34.5 -73.5q0 -45 31.5 -75t85.5 -30
q35 0 67 13.5t56 36.5t38.5 52.5t14.5 62.5v57z" />
    <glyph glyph-name="adieresis" unicode="&#xe4;" horiz-adv-x="509" 
d="M116 665q0 19 13.5 32.5t33.5 13.5q18 0 32 -13.5t14 -32.5q0 -20 -14 -33t-32 -13q-20 0 -33.5 13t-13.5 33zM325 665q0 19 13.5 32.5t33.5 13.5q18 0 32 -13.5t14 -32.5q0 -20 -14 -33t-32 -13q-20 0 -33.5 13t-13.5 33zM263 515q44 0 79 -12.5t59.5 -36t38 -56
t13.5 -71.5v-339h-57v106h-1q-10 -27 -29.5 -48t-45 -35.5t-55.5 -22.5t-61 -8q-74 0 -117 41t-43 107q0 67 46 104t137 44l167 12v36q0 60 -35 96t-97 36t-99 -29.5t-47 -82.5h-54q8 72 60.5 115.5t140.5 43.5zM394 259l-158 -12q-66 -4 -100.5 -31.5t-34.5 -73.5
q0 -45 31.5 -75t85.5 -30q35 0 67 13.5t56 36.5t38.5 52.5t14.5 62.5v57z" />
    <glyph glyph-name="aring" unicode="&#xe5;" horiz-adv-x="509" 
d="M265 581q-22 0 -42 8t-34 22.5t-22.5 34t-8.5 41.5t8 41.5t22.5 33.5t34 22.5t42.5 8.5t42.5 -8.5t33.5 -22.5t22.5 -33.5t8.5 -41.5t-8.5 -41.5t-22.5 -34t-33.5 -22.5t-42.5 -8zM265 624q28 0 46 17.5t18 45.5t-18 46t-46 18t-46 -18t-18 -46t18 -45.5t46 -17.5z
M263 515q44 0 79 -12.5t59.5 -36t38 -56t13.5 -71.5v-339h-57v106h-1q-10 -27 -29.5 -48t-45 -35.5t-55.5 -22.5t-61 -8q-74 0 -117 41t-43 107q0 67 46 104t137 44l167 12v36q0 60 -35 96t-97 36t-99 -29.5t-47 -82.5h-54q8 72 60.5 115.5t140.5 43.5zM394 259l-158 -12
q-66 -4 -100.5 -31.5t-34.5 -73.5q0 -45 31.5 -75t85.5 -30q35 0 67 13.5t56 36.5t38.5 52.5t14.5 62.5v57z" />
    <glyph glyph-name="ae" unicode="&#xe6;" horiz-adv-x="898" 
d="M852 243h-392q2 -98 49.5 -150.5t126.5 -52.5q64 0 101.5 29.5t53.5 80.5h54q-20 -78 -71 -118t-139 -40q-75 0 -127 35t-78 101q-16 -37 -40 -63t-52.5 -42t-59.5 -23.5t-60 -7.5q-37 0 -68.5 11t-55 30.5t-37 46.5t-13.5 60q0 67 46 104t137 44l178 12v36
q0 30 -11 54.5t-30 41.5t-45 26.5t-57 9.5q-62 0 -99 -29.5t-47 -82.5h-54q8 72 60.5 115.5t140.5 43.5q32 0 61.5 -8t53.5 -22t41.5 -34.5t26.5 -45.5q27 51 75 80.5t111 29.5q51 0 91.5 -18t69 -50.5t44 -78.5t15.5 -102v-23zM631 467q-36 0 -66.5 -13.5t-52.5 -37.5
t-35 -57.5t-15 -74.5h334q0 41 -12 74.5t-34 57.5t-52 37.5t-67 13.5zM405 259l-169 -12q-66 -4 -100.5 -31.5t-34.5 -73.5q0 -22 10 -41.5t27.5 -33.5t41 -22t50.5 -8q35 0 66.5 13.5t55.5 36.5t38.5 52.5t14.5 62.5v57z" />
    <glyph glyph-name="ccedilla" unicode="&#xe7;" horiz-adv-x="526" 
d="M485 150q-11 -72 -67.5 -115t-141.5 -43q-52 0 -94 18t-72 51.5t-46 82t-16 109.5t16 109.5t46 82.5t72 52t94 18q42 0 78 -12t63 -33.5t44.5 -51.5t23.5 -65h-55q-12 50 -52.5 81.5t-100.5 31.5q-79 0 -125 -56.5t-46 -156.5q0 -99 46 -156t125 -57q59 0 100 30t52 80
h56zM239 -277h-55l103 181h71z" />
    <glyph glyph-name="egrave" unicode="&#xe8;" horiz-adv-x="541" 
d="M260 780l103 -182h-56l-119 182h72zM495 243h-390q1 -99 48 -151t126 -52q63 0 100.5 29.5t53.5 80.5h55q-20 -78 -71 -118t-139 -40q-107 0 -168.5 68.5t-61.5 192.5q0 60 16 108t45.5 82.5t71 53t93.5 18.5q51 0 91.5 -18t69.5 -50.5t44.5 -78.5t15.5 -102v-23z
M273 467q-73 0 -117.5 -50.5t-49.5 -132.5h333q0 41 -12.5 74.5t-34 57.5t-52 37.5t-67.5 13.5z" />
    <glyph glyph-name="eacute" unicode="&#xe9;" horiz-adv-x="541" 
d="M297 598h-56l104 182h71zM495 243h-390q1 -99 48 -151t126 -52q63 0 100.5 29.5t53.5 80.5h55q-20 -78 -71 -118t-139 -40q-107 0 -168.5 68.5t-61.5 192.5q0 60 16 108t45.5 82.5t71 53t93.5 18.5q51 0 91.5 -18t69.5 -50.5t44.5 -78.5t15.5 -102v-23zM273 467
q-73 0 -117.5 -50.5t-49.5 -132.5h333q0 41 -12.5 74.5t-34 57.5t-52 37.5t-67.5 13.5z" />
    <glyph glyph-name="ecircumflex" unicode="&#xea;" horiz-adv-x="541" 
d="M434 579h-57l-100 153h-3l-100 -153h-55l131 202h51zM495 243h-390q1 -99 48 -151t126 -52q63 0 100.5 29.5t53.5 80.5h55q-20 -78 -71 -118t-139 -40q-107 0 -168.5 68.5t-61.5 192.5q0 60 16 108t45.5 82.5t71 53t93.5 18.5q51 0 91.5 -18t69.5 -50.5t44.5 -78.5
t15.5 -102v-23zM273 467q-73 0 -117.5 -50.5t-49.5 -132.5h333q0 41 -12.5 74.5t-34 57.5t-52 37.5t-67.5 13.5z" />
    <glyph glyph-name="edieresis" unicode="&#xeb;" horiz-adv-x="541" 
d="M335 665q0 19 13.5 32.5t33.5 13.5q18 0 32 -13.5t14 -32.5q0 -20 -14 -33t-32 -13q-20 0 -33.5 13t-13.5 33zM126 665q0 19 13.5 32.5t33.5 13.5q18 0 31.5 -13.5t13.5 -32.5q0 -20 -13.5 -33t-31.5 -13q-20 0 -33.5 13t-13.5 33zM495 243h-390q1 -99 48 -151t126 -52
q63 0 100.5 29.5t53.5 80.5h55q-20 -78 -71 -118t-139 -40q-107 0 -168.5 68.5t-61.5 192.5q0 60 16 108t45.5 82.5t71 53t93.5 18.5q51 0 91.5 -18t69.5 -50.5t44.5 -78.5t15.5 -102v-23zM273 467q-73 0 -117.5 -50.5t-49.5 -132.5h333q0 41 -12.5 74.5t-34 57.5t-52 37.5
t-67.5 13.5z" />
    <glyph glyph-name="igrave" unicode="&#xec;" horiz-adv-x="221" 
d="M36 780l103 -182h-56l-119 182h72zM82 507h57v-507h-57v507z" />
    <glyph glyph-name="iacute" unicode="&#xed;" horiz-adv-x="221" 
d="M138 598h-56l103 182h72zM82 507h57v-507h-57v507z" />
    <glyph glyph-name="icircumflex" unicode="&#xee;" horiz-adv-x="221" 
d="M268 579h-57l-99 153h-4l-99 -153h-56l131 202h52zM82 507h57v-507h-57v507z" />
    <glyph glyph-name="idieresis" unicode="&#xef;" horiz-adv-x="221" 
d="M-41 665q0 19 14 32.5t33 13.5t32.5 -13.5t13.5 -32.5q0 -20 -13.5 -33t-32.5 -13t-33 13t-14 33zM168 665q0 19 14 32.5t34 13.5q18 0 31.5 -13.5t13.5 -32.5q0 -20 -13.5 -33t-31.5 -13q-20 0 -34 13t-14 33zM82 507h57v-507h-57v507z" />
    <glyph glyph-name="eth" unicode="&#xf0;" horiz-adv-x="614" 
d="M574 685l-121 -69q50 -48 78.5 -119t28.5 -161q0 -100 -24 -166.5t-61.5 -106t-84 -55.5t-92.5 -16q-52 0 -97 17.5t-77 49t-50.5 75t-18.5 95.5q0 48 17.5 89.5t48.5 72.5t73.5 48.5t91.5 17.5q39 0 74.5 -10t64 -28.5t49 -44.5t30.5 -58h1q1 91 -26 159t-73 113
l-157 -89l-18 33l143 82q-33 23 -69.5 35t-74.5 12v47q53 0 101.5 -16.5t90.5 -48.5l132 76zM299 40q39 0 73.5 15t60 41t40 61.5t14.5 77.5q0 36 -15 68t-40.5 56.5t-60 38.5t-72.5 14q-40 0 -74 -14t-59 -39t-39 -58.5t-14 -72.5q0 -40 14.5 -74t39.5 -59.5t59 -40
t73 -14.5z" />
    <glyph glyph-name="ntilde" unicode="&#xf1;" horiz-adv-x="538" 
d="M193 690q-29 0 -41 -21t-13 -65h-46q0 66 23 98.5t73 32.5q26 0 46.5 -13.5t39.5 -29t38 -29t41 -13.5q30 0 43.5 23t15.5 67h46q0 -64 -26.5 -99.5t-75.5 -35.5q-26 0 -47.5 13.5t-41 29t-37.5 29t-38 13.5zM292 515q89 0 139.5 -49.5t50.5 -162.5v-303h-58v298
q0 87 -35.5 127.5t-111.5 40.5q-37 0 -66.5 -15.5t-50.5 -43.5t-32.5 -66.5t-11.5 -84.5v-256h-59v507h58v-124h1q18 64 64.5 98t111.5 34z" />
    <glyph glyph-name="ograve" unicode="&#xf2;" horiz-adv-x="538" 
d="M260 780l103 -182h-56l-119 182h72zM269 -8q-52 0 -94.5 18t-73 52t-47 82.5t-16.5 108.5q0 61 16.5 109.5t47 82.5t73 52t94.5 18t94.5 -18t73 -52t47 -82.5t16.5 -109.5q0 -60 -16.5 -108.5t-47 -82.5t-73 -52t-94.5 -18zM269 40q39 0 71 14.5t55 42.5t36 67.5t13 88.5
q0 50 -13 90t-36 67.5t-55 42t-71 14.5t-71 -14.5t-55 -42t-35.5 -67.5t-12.5 -90t12.5 -89.5t35.5 -67t55 -42t71 -14.5z" />
    <glyph glyph-name="oacute" unicode="&#xf3;" horiz-adv-x="538" 
d="M298 598h-57l104 182h72zM269 -8q-52 0 -94.5 18t-73 52t-47 82.5t-16.5 108.5q0 61 16.5 109.5t47 82.5t73 52t94.5 18t94.5 -18t73 -52t47 -82.5t16.5 -109.5q0 -60 -16.5 -108.5t-47 -82.5t-73 -52t-94.5 -18zM269 40q39 0 71 14.5t55 42.5t36 67.5t13 88.5
q0 50 -13 90t-36 67.5t-55 42t-71 14.5t-71 -14.5t-55 -42t-35.5 -67.5t-12.5 -90t12.5 -89.5t35.5 -67t55 -42t71 -14.5z" />
    <glyph glyph-name="ocircumflex" unicode="&#xf4;" horiz-adv-x="538" 
d="M426 579h-58l-99 153h-3l-99 -153h-56l131 202h51zM269 -8q-52 0 -94.5 18t-73 52t-47 82.5t-16.5 108.5q0 61 16.5 109.5t47 82.5t73 52t94.5 18t94.5 -18t73 -52t47 -82.5t16.5 -109.5q0 -60 -16.5 -108.5t-47 -82.5t-73 -52t-94.5 -18zM269 40q39 0 71 14.5t55 42.5
t36 67.5t13 88.5q0 50 -13 90t-36 67.5t-55 42t-71 14.5t-71 -14.5t-55 -42t-35.5 -67.5t-12.5 -90t12.5 -89.5t35.5 -67t55 -42t71 -14.5z" />
    <glyph glyph-name="otilde" unicode="&#xf5;" horiz-adv-x="538" 
d="M194 690q-29 0 -41 -21t-13 -65h-46q0 66 23 98.5t73 32.5q26 0 46.5 -13.5t39.5 -29t38 -29t41 -13.5q29 0 43 23t16 67h46q0 -64 -27 -99.5t-75 -35.5q-26 0 -47.5 13.5t-41 29t-37.5 29t-38 13.5zM269 -8q-52 0 -94.5 18t-73 52t-47 82.5t-16.5 108.5q0 61 16.5 109.5
t47 82.5t73 52t94.5 18t94.5 -18t73 -52t47 -82.5t16.5 -109.5q0 -60 -16.5 -108.5t-47 -82.5t-73 -52t-94.5 -18zM269 40q39 0 71 14.5t55 42.5t36 67.5t13 88.5q0 50 -13 90t-36 67.5t-55 42t-71 14.5t-71 -14.5t-55 -42t-35.5 -67.5t-12.5 -90t12.5 -89.5t35.5 -67
t55 -42t71 -14.5z" />
    <glyph glyph-name="odieresis" unicode="&#xf6;" horiz-adv-x="538" 
d="M120 665q0 19 13.5 32.5t32.5 13.5t32.5 -13.5t13.5 -32.5q0 -20 -13.5 -33t-32.5 -13t-32.5 13t-13.5 33zM329 665q0 19 13.5 32.5t33.5 13.5q18 0 31.5 -13.5t13.5 -32.5q0 -20 -13.5 -33t-31.5 -13q-20 0 -33.5 13t-13.5 33zM269 -8q-52 0 -94.5 18t-73 52t-47 82.5
t-16.5 108.5q0 61 16.5 109.5t47 82.5t73 52t94.5 18t94.5 -18t73 -52t47 -82.5t16.5 -109.5q0 -60 -16.5 -108.5t-47 -82.5t-73 -52t-94.5 -18zM269 40q39 0 71 14.5t55 42.5t36 67.5t13 88.5q0 50 -13 90t-36 67.5t-55 42t-71 14.5t-71 -14.5t-55 -42t-35.5 -67.5
t-12.5 -90t12.5 -89.5t35.5 -67t55 -42t71 -14.5z" />
    <glyph glyph-name="divide" unicode="&#xf7;" horiz-adv-x="563" 
d="M282 429q-18 0 -31 12.5t-13 30.5q0 17 13 29.5t31 12.5q17 0 29.5 -12.5t12.5 -29.5q0 -18 -12.5 -30.5t-29.5 -12.5zM55 340h453v-46h-453v46zM282 120q-18 0 -31 13t-13 31q0 17 13 29.5t31 12.5q17 0 29.5 -12.5t12.5 -29.5q0 -18 -12.5 -31t-29.5 -13z" />
    <glyph glyph-name="oslash" unicode="&#xf8;" horiz-adv-x="538" 
d="M269 515q52 0 94.5 -18t73 -52t47 -82.5t16.5 -109.5q0 -60 -16.5 -108.5t-47 -82.5t-73 -52t-94.5 -18t-94.5 18t-73 52t-47 82.5t-16.5 108.5q0 61 16.5 109.5t47 82.5t73 52t94.5 18zM95 253q0 -66 22.5 -113t60.5 -73l140 391q-11 4 -23.5 6.5t-26.5 2.5
q-39 0 -70.5 -15t-54.5 -42.5t-35.5 -67t-12.5 -89.5zM444 253q0 66 -22.5 113t-60.5 71l-141 -390q11 -3 23.5 -5t26.5 -2q39 0 71 15t55 42.5t35.5 67t12.5 88.5z" />
    <glyph glyph-name="ugrave" unicode="&#xf9;" horiz-adv-x="538" 
d="M249 780l104 -182h-57l-118 182h71zM116 507v-298q0 -87 34.5 -127.5t111.5 -40.5q37 0 67 15.5t51 43t32 66t11 84.5v257h59v-507h-57v123h-1q-20 -63 -66.5 -97t-110.5 -34q-44 0 -79.5 11.5t-60 37t-37.5 66t-13 97.5v303h59z" />
    <glyph glyph-name="uacute" unicode="&#xfa;" horiz-adv-x="538" 
d="M287 598h-55l103 182h71zM116 507v-298q0 -87 34.5 -127.5t111.5 -40.5q37 0 67 15.5t51 43t32 66t11 84.5v257h59v-507h-57v123h-1q-20 -63 -66.5 -97t-110.5 -34q-44 0 -79.5 11.5t-60 37t-37.5 66t-13 97.5v303h59z" />
    <glyph glyph-name="ucircumflex" unicode="&#xfb;" horiz-adv-x="538" 
d="M424 579h-57l-100 153h-3l-99 -153h-56l131 202h52zM116 507v-298q0 -87 34.5 -127.5t111.5 -40.5q37 0 67 15.5t51 43t32 66t11 84.5v257h59v-507h-57v123h-1q-20 -63 -66.5 -97t-110.5 -34q-44 0 -79.5 11.5t-60 37t-37.5 66t-13 97.5v303h59z" />
    <glyph glyph-name="udieresis" unicode="&#xfc;" horiz-adv-x="538" 
d="M330 665q0 19 14 32.5t34 13.5q17 0 31 -13.5t14 -32.5q0 -20 -14 -33t-31 -13q-20 0 -34 13t-14 33zM121 665q0 19 14 32.5t33 13.5q18 0 32 -13.5t14 -32.5q0 -20 -14 -33t-32 -13q-19 0 -33 13t-14 33zM116 507v-298q0 -87 34.5 -127.5t111.5 -40.5q37 0 67 15.5
t51 43t32 66t11 84.5v257h59v-507h-57v123h-1q-20 -63 -66.5 -97t-110.5 -34q-44 0 -79.5 11.5t-60 37t-37.5 66t-13 97.5v303h59z" />
    <glyph glyph-name="yacute" unicode="&#xfd;" horiz-adv-x="478" 
d="M262 598h-56l103 182h72zM462 507q-46 -125 -88 -236q-18 -47 -36 -96.5t-34.5 -94.5t-31 -83.5t-23.5 -63.5q-13 -35 -27.5 -57.5t-33.5 -35t-42.5 -17.5t-53.5 -5q-14 0 -26.5 1.5t-28.5 6.5v43q14 -2 23.5 -3t20.5 -1q20 0 35 1t28 8t24 21t22 40l22 59l-196 513h62
l161 -455h2l160 455h61z" />
    <glyph glyph-name="thorn" unicode="&#xfe;" horiz-adv-x="557" 
d="M114 682v-295h2q22 62 71 95t115 33q46 0 84.5 -18.5t67 -53t44.5 -82.5t16 -108q0 -59 -16 -107.5t-44.5 -82.5t-68 -52.5t-86.5 -18.5q-64 0 -113.5 32.5t-69.5 93.5h-2v-295h-57v859h57zM116 255q0 -48 12.5 -87t34.5 -67.5t53.5 -44t68.5 -15.5q38 0 69.5 15.5t54 43
t35 66.5t12.5 87t-12.5 87.5t-35 67.5t-54 43.5t-69.5 15.5q-37 0 -68.5 -15.5t-53.5 -43.5t-34.5 -67t-12.5 -86z" />
    <glyph glyph-name="ydieresis" unicode="&#xff;" horiz-adv-x="478" 
d="M92 665q0 19 14 32.5t33 13.5t32.5 -13.5t13.5 -32.5q0 -20 -13.5 -33t-32.5 -13t-33 13t-14 33zM301 665q0 19 14 32.5t34 13.5q18 0 31.5 -13.5t13.5 -32.5q0 -20 -13.5 -33t-31.5 -13q-20 0 -34 13t-14 33zM462 507q-46 -125 -88 -236q-18 -47 -36 -96.5t-34.5 -94.5
t-31 -83.5t-23.5 -63.5q-13 -35 -27.5 -57.5t-33.5 -35t-42.5 -17.5t-53.5 -5q-14 0 -26.5 1.5t-28.5 6.5v43q14 -2 23.5 -3t20.5 -1q20 0 35 1t28 8t24 21t22 40l22 59l-196 513h62l161 -455h2l160 455h61z" />
    <glyph glyph-name="Dcroat" unicode="&#x110;" horiz-adv-x="742" 
d="M348 700q80 0 144 -23t109 -67.5t69 -109.5t24 -148q0 -84 -24.5 -149.5t-69.5 -110.5t-109.5 -68.5t-144.5 -23.5h-202v328h-110v45h110v327h204zM341 49q68 0 122 20t91.5 58.5t58 94.5t20.5 128t-20 128.5t-57.5 94.5t-91 58t-120.5 20h-140v-278h218v-45h-218v-279
h137z" />
    <glyph glyph-name="dcroat" unicode="&#x111;" horiz-adv-x="557" 
d="M257 515q66 0 114.5 -33.5t69.5 -94.5h2v197h-309v42h309v78h56v-78h81v-42h-81v-584h-54v121h-2q-21 -61 -70.5 -95t-115.5 -34q-47 0 -86 18.5t-67.5 52.5t-44.5 82.5t-16 107.5t15.5 107.5t44 83t68 53t86.5 18.5zM272 41q38 0 69 15.5t53 43.5t34.5 67t12.5 86
t-12.5 86.5t-34.5 67.5t-53 43.5t-69 15.5t-69.5 -15.5t-54 -43t-35 -67t-12.5 -87.5t12.5 -87t35 -67t54 -43t69.5 -15z" />
    <glyph glyph-name="dotlessi" unicode="&#x131;" horiz-adv-x="221" 
d="M82 507h57v-507h-57v507z" />
    <glyph glyph-name="Lslash" unicode="&#x141;" horiz-adv-x="587" 
d="M204 700v-327h223v-45h-223v-279h357v-49h-416v328h-111v45h111v327h59z" />
    <glyph glyph-name="lslash" unicode="&#x142;" horiz-adv-x="420" 
d="M240 700v-327h152v-45h-152v-328h-59v328h-153v45h153v327h59z" />
    <glyph glyph-name="OE" unicode="&#x152;" horiz-adv-x="1016" 
d="M533 651q61 -40 95 -110t37 -166h249v-49h-249q-3 -97 -37 -168t-94 -109h428v-49h-531q-38 -8 -78 -8q-73 0 -130.5 24.5t-98 71t-62 113t-21.5 150.5q0 83 21.5 149t62 112t98 71t130.5 25q40 0 78 -8h531v-49h-429zM103 351q0 -71 17 -128t49.5 -96.5t79 -61
t104.5 -21.5q59 0 105.5 21.5t78.5 61t49.5 96.5t17.5 128t-17.5 127t-49.5 96t-78.5 61t-105.5 21q-58 0 -104.5 -21t-79 -61t-49.5 -96t-17 -127z" />
    <glyph glyph-name="oe" unicode="&#x153;" horiz-adv-x="937" 
d="M890 243h-389v-2q1 -96 47.5 -148.5t125.5 -52.5q64 0 101.5 29.5t53.5 80.5h55q-20 -78 -71 -118t-139 -40q-75 0 -127.5 35t-75.5 101q-24 -64 -77 -100t-125 -36q-52 0 -94.5 18t-73 52t-47 82.5t-16.5 108.5q0 61 16.5 109.5t47 82.5t73 52t94.5 18q72 0 124.5 -36
t78.5 -102q23 65 74.5 101.5t123.5 36.5q51 0 91.5 -18t69 -50.5t44 -78.5t15.5 -102v-23zM269 40q39 0 71 14.5t55 42.5t36 67.5t13 88.5q0 50 -13 90t-36 67.5t-55 42t-71 14.5t-71 -14.5t-55 -42t-35.5 -67.5t-12.5 -90t12.5 -89.5t35.5 -67t55 -42t71 -14.5zM669 467
q-73 0 -117.5 -50.5t-49.5 -132.5h333q0 41 -12.5 74.5t-34 57.5t-52 37.5t-67.5 13.5z" />
    <glyph glyph-name="Scaron" unicode="&#x160;" horiz-adv-x="592" 
d="M266 758l-132 200h56l100 -152h4l99 152h57l-132 -200h-52zM102 188q8 -65 61 -105t138 -40q42 0 76.5 10t58.5 28.5t37.5 44.5t13.5 58q0 54 -37.5 85.5t-125.5 51.5l-74 17q-103 24 -149 65.5t-46 112.5q0 42 18.5 77.5t50 61t75 39.5t92.5 14q59 0 103.5 -16.5t75 -45
t46.5 -65.5t18 -79h-58q-3 34 -17 62.5t-37 49.5t-56 32.5t-75 11.5q-37 0 -69 -10t-55.5 -28t-37 -43.5t-13.5 -56.5q0 -52 37 -82.5t119 -48.5l73 -16q108 -23 156 -66.5t48 -115.5q0 -46 -18 -82.5t-50.5 -62.5t-78.5 -40t-102 -14q-55 0 -101 14.5t-79.5 40t-53 62
t-22.5 79.5h58z" />
    <glyph glyph-name="scaron" unicode="&#x161;" horiz-adv-x="473" 
d="M210 579l-131 202h55l101 -153h2l100 153h57l-133 -202h-51zM98 145q6 -48 46.5 -77.5t96.5 -29.5q59 0 95.5 26t36.5 70q0 34 -27.5 55.5t-88.5 35.5l-57 12q-75 17 -111.5 48.5t-36.5 83.5q0 32 14.5 58t39.5 44.5t58.5 29t70.5 10.5q33 0 65 -9t57.5 -28t42 -48.5
t19.5 -69.5h-55q-5 53 -40.5 81.5t-90.5 28.5q-26 0 -49 -7t-40 -20t-26.5 -30t-9.5 -37q0 -34 26.5 -54t84.5 -34l58 -12q79 -19 115.5 -50t36.5 -83q0 -33 -13.5 -60.5t-38.5 -46.5t-60 -29.5t-77 -10.5q-34 0 -67.5 9.5t-61 28t-45.5 47.5t-22 68h54z" />
    <glyph glyph-name="Ydieresis" unicode="&#x178;" horiz-adv-x="596" 
d="M153 862q0 19 13.5 32.5t33.5 13.5q19 0 32 -13.5t13 -32.5t-13 -32.5t-32 -13.5q-20 0 -33.5 13.5t-13.5 32.5zM362 862q0 19 14 32.5t33 13.5t32.5 -13.5t13.5 -32.5t-13.5 -32.5t-32.5 -13.5t-33 13.5t-14 32.5zM327 332v-332h-60v334l-253 366h70l213 -312h2l213 312
h70z" />
    <glyph glyph-name="Zcaron" unicode="&#x17d;" horiz-adv-x="612" 
d="M290 758l-131 200h56l99 -152h3l99 152h58l-133 -200h-51zM558 50v-50h-503v43l424 605v2h-411v50h487v-42l-422 -606v-2h425z" />
    <glyph glyph-name="zcaron" unicode="&#x17e;" horiz-adv-x="488" 
d="M225 579l-130 202h55l100 -153h3l99 153h58l-133 -202h-52zM55 39l310 419v3h-310v46h377v-43l-308 -416v-2h309v-46h-378v39z" />
    <glyph glyph-name="florin" unicode="&#x192;" horiz-adv-x="381" 
d="M323 505v-44h-103v-334q0 -72 -34.5 -103.5t-99.5 -31.5q-14 0 -28 1t-30 6v45q14 -2 25.5 -3t21.5 -1q51 0 68.5 20t17.5 68v333h-87v44h87v66q0 73 34.5 104.5t99.5 31.5q29 0 58 -7v-45q-14 2 -25 3t-21 1q-51 0 -69 -19.5t-18 -69.5v-65h103z" />
    <glyph glyph-name="circumflex" unicode="&#x2c6;" horiz-adv-x="453" 
d="M384 579h-57l-100 153h-2l-100 -153h-56l131 202h52z" />
    <glyph glyph-name="caron" unicode="&#x2c7;" horiz-adv-x="453" 
d="M200 579l-131 202h56l100 -153h2l100 153h57l-132 -202h-52z" />
    <glyph glyph-name="breve" unicode="&#x2d8;" horiz-adv-x="358" 
d="M114 690q0 -28 18 -46t46 -18q29 0 47 18t18 46h46q0 -23 -8.5 -43t-23.5 -34.5t-35 -23t-44 -8.5q-23 0 -43 8.5t-34.5 23t-23 34.5t-8.5 43h45z" />
    <glyph glyph-name="dotaccent" unicode="&#x2d9;" horiz-adv-x="218" 
d="M69 642q0 16 11.5 27.5t28.5 11.5q16 0 28 -11.5t12 -27.5q0 -17 -12 -29t-28 -12q-17 0 -28.5 12t-11.5 29z" />
    <glyph glyph-name="ring" unicode="&#x2da;" horiz-adv-x="351" 
d="M69 687q0 22 8 41.5t22.5 33.5t34 22.5t41.5 8.5q23 0 42.5 -8.5t34 -22.5t22.5 -33.5t8 -41.5t-8 -41.5t-22.5 -34t-34 -22.5t-42.5 -8q-22 0 -41.5 8t-34 22.5t-22.5 34t-8 41.5zM111 687q0 -28 18 -45.5t46 -17.5t46 17.5t18 45.5t-18 46t-46 18t-46 -18t-18 -46z" />
    <glyph glyph-name="ogonek" unicode="&#x2db;" horiz-adv-x="280" 
 />
    <glyph glyph-name="tilde" unicode="&#x2dc;" horiz-adv-x="504" 
d="M169 690q-29 0 -41 -21t-13 -65h-46q0 131 97 131q25 0 45.5 -13.5t39.5 -29t38 -29t41 -13.5q30 0 43.5 23t15.5 67h46q0 -64 -26.5 -99.5t-74.5 -35.5q-26 0 -48 13.5t-41.5 29t-37.5 29t-38 13.5z" />
    <glyph glyph-name="hungarumlaut" unicode="&#x2dd;" horiz-adv-x="459" 
d="M69 578l104 202h68l-119 -202h-53zM219 578l103 202h68l-119 -202h-52z" />
    <glyph glyph-name="uni03BC" unicode="&#x3bc;" horiz-adv-x="538" 
d="M116 507v-298q0 -87 34.5 -127.5t111.5 -40.5q37 0 67 15.5t51 43t32 66t11 84.5v257h59v-507h-57v121h-1q-18 -61 -63 -95t-106 -34q-46 0 -84.5 19t-55.5 68h-2v-256h-56v684h59z" />
    <glyph glyph-name="uni0E01" unicode="&#xe01;" horiz-adv-x="595" 
d="M55 364q0 103 62.5 160t177.5 57q116 0 175.5 -58t59.5 -164v-359h-60v355q0 85 -43 131t-132 46q-85 0 -132.5 -40t-51.5 -111l144 -27v-24q-48 -14 -78.5 -48t-30.5 -85v-197h-59v188q0 26 7.5 49.5t21.5 42.5t34 32.5t44 19.5l-139 24v8z" />
    <glyph glyph-name="uni0E02" unicode="&#xe02;" horiz-adv-x="545" 
d="M480 577v-378q0 -60 -16.5 -100t-45 -63.5t-68 -33.5t-85.5 -10t-85.5 10t-68 33.5t-44.5 63.5t-16 100v51q0 46 15 81.5t36.5 61.5t46.5 42t45 22q0 12 -3 25t-11 23.5t-22 17.5t-36 7h-61v47h66q41 0 64.5 -11.5t36.5 -28.5t16.5 -38t3.5 -40v-16q-42 -16 -69 -37.5
t-42.5 -49t-21.5 -62.5t-6 -79q0 -36 5 -67.5t21.5 -55t47.5 -37t82 -13.5q54 0 85 13.5t47 37t20 55t4 67.5v362h59z" />
    <glyph glyph-name="uni0E03" unicode="&#xe03;" horiz-adv-x="564" 
d="M499 577v-378q0 -60 -16.5 -100t-45 -63.5t-68 -33.5t-85.5 -10t-85.5 10t-68 33.5t-44.5 63.5t-16 100v51q0 46 15 81.5t37 62t48 42.5t47 23q0 32 -8.5 51.5t-25.5 23.5q-22 -63 -77 -63q-29 0 -50 17t-21 49v40h50v-32q0 -18 9.5 -24.5t20.5 -6.5q18 0 29.5 13.5
t24.5 49.5h9q26 0 43.5 -9.5t28 -25.5t14.5 -37.5t4 -45.5v-16q-23 -9 -48 -23t-45.5 -37.5t-33.5 -58.5t-13 -86v-23q0 -36 5 -67.5t21.5 -55t47 -37t82.5 -13.5q54 0 85 13.5t47 37t20 55t4 67.5v362h59z" />
    <glyph glyph-name="uni0E04" unicode="&#xe04;" horiz-adv-x="604" 
d="M51 343q0 70 17 116t48.5 73t77 38t101.5 11q57 0 102 -11t76.5 -38t48.5 -73t17 -115v-344h-59v340q0 44 -9 79.5t-30 60.5t-56.5 38.5t-89.5 13.5t-90 -13.5t-57 -39t-29.5 -61.5t-8.5 -80q0 -60 8 -105t18 -90q9 24 24.5 54.5t36 57.5t45 46t52.5 19h56v-49h-44
q-28 0 -53.5 -21t-46.5 -49.5t-35.5 -58t-22.5 -46.5v-96h-59v96q-5 30 -11.5 57t-12.5 56t-10 61.5t-4 72.5z" />
    <glyph glyph-name="uni0E05" unicode="&#xe05;" horiz-adv-x="604" 
d="M420 583q60 0 89.5 -35.5t29.5 -103.5v-444h-59v443q0 11 -1.5 26.5t-9 29.5t-21.5 23.5t-40 9.5q-25 0 -43 -9.5t-29 -24t-16.5 -31t-5.5 -31.5h-39q0 15 -4.5 31.5t-14.5 31t-26.5 24t-40.5 9.5q-29 0 -45 -16.5t-23.5 -40.5t-9 -51t-1.5 -48q0 -62 8.5 -120t18.5 -112
q9 24 24.5 54.5t35.5 57.5t44.5 45.5t52.5 18.5h56v-49h-44q-28 0 -53.5 -21t-46.5 -49.5t-35.5 -58t-22.5 -46.5v-96h-59v96q-10 60 -24 130t-14 151q0 105 29.5 155.5t94.5 50.5q51 0 81 -24.5t38 -64.5q11 40 42.5 64.5t83.5 24.5z" />
    <glyph glyph-name="uni0E06" unicode="&#xe06;" horiz-adv-x="603" 
d="M70 0v250q0 46 15 81.5t37 62t48 42.5t47 23q0 32 -8.5 51.5t-25.5 23.5q-22 -63 -77 -63q-29 0 -50 17t-21 49v40h50v-32q0 -18 9.5 -24.5t20.5 -6.5q18 0 29.5 13.5t24.5 49.5h9q26 0 43.5 -9.5t28 -25.5t14.5 -37.5t4 -45.5v-16q-23 -9 -47.5 -23t-45 -37.5t-34 -58
t-13.5 -85.5q0 -39 14 -74.5t39.5 -63t61.5 -43.5t81 -16q44 0 79 17.5t55 59t20 111.5v347h60v-359q0 -59 -15 -101.5t-42 -70.5t-64.5 -41t-82.5 -13q-44 0 -79 11.5t-61 32t-43 48.5t-25 60v-144h-56z" />
    <glyph glyph-name="uni0E07" unicode="&#xe07;" horiz-adv-x="543" 
d="M357 577q46 0 77 -7t50 -22t27 -40t8 -62q0 -33 -14 -77.5t-38.5 -100.5t-57 -123t-69.5 -145h-96l-223 577h62l201 -533h21q32 69 60 130.5t49 113t33.5 91.5t12.5 65q0 50 -24.5 68.5t-80.5 18.5h-54v46h56z" />
    <glyph glyph-name="uni0E08" unicode="&#xe08;" horiz-adv-x="555" 
d="M53 254v44h88q28 0 39 -25l103 -226h29q23 41 48 84.5t46 86.5t34.5 84t13.5 78q0 29 -10 56.5t-31 48.5t-54.5 33.5t-80.5 12.5q-63 0 -108 -28t-68 -95h-57q20 87 83 130t154 43q50 0 92 -12t73 -36.5t48 -60.5t17 -84q0 -45 -14 -90t-37.5 -92.5t-54 -98.5t-63.5 -107
h-95l-114 246q-3 8 -13 8h-68z" />
    <glyph glyph-name="uni0E09" unicode="&#xe09;" horiz-adv-x="601" 
d="M479 0v144q-8 -32 -25 -60t-43 -48.5t-61 -32t-79 -11.5q-45 0 -82 13t-64 41t-42 70.5t-15 101.5v72h59v-60q0 -53 12 -89t32.5 -58t48.5 -31.5t61 -9.5q45 0 81 15.5t61.5 41.5t39 60.5t13.5 72.5v128q0 35 -10 66t-31.5 54.5t-55.5 37t-83 13.5q-66 0 -113 -28.5
t-70 -94.5h-57q10 43 32 75.5t53.5 54t71 32.5t85.5 11q51 0 94.5 -12.5t75.5 -39t50 -68.5t18 -101v-360h-57z" />
    <glyph glyph-name="uni0E0A" unicode="&#xe0a;" horiz-adv-x="545" 
d="M61 577h66q41 0 64.5 -11.5t36.5 -28.5t16.5 -38t3.5 -40v-16q-42 -16 -69 -37.5t-42.5 -49t-21.5 -62.5t-6 -79q0 -36 5 -67.5t21.5 -55t47.5 -37t82 -13.5q54 0 85 13.5t47 37t20 55t4 67.5v56q0 65 -30 102t-93 39v34q24 6 47.5 16.5t42.5 27.5t31.5 41t13.5 56h57
q0 -33 -12.5 -59.5t-31 -46t-41 -31.5t-43.5 -18q118 -18 118 -164v-69q0 -60 -16.5 -100t-45 -63.5t-68 -33.5t-85.5 -10t-85.5 10t-68 33.5t-44.5 63.5t-16 100v51q0 46 15 81.5t36.5 61.5t46.5 42t45 22q0 12 -3 25t-11 23.5t-22 17.5t-36 7h-61v47z" />
    <glyph glyph-name="uni0E0B" unicode="&#xe0b;" horiz-adv-x="564" 
d="M35 577h50v-32q0 -18 9 -24.5t20 -6.5q17 0 29 13.5t25 49.5h9q26 0 43 -9.5t27.5 -25.5t14.5 -37.5t4 -45.5v-16q-23 -9 -47.5 -23t-44.5 -37.5t-33 -58.5t-13 -86v-23q0 -36 5 -67.5t21.5 -55t47 -37t82.5 -13.5q54 0 85 13.5t47 37t20 55t4 67.5v56q0 65 -30 102
t-93 39v34q24 6 47.5 16.5t42.5 27.5t31.5 41t13.5 56h57q-1 -33 -13 -59.5t-31 -46t-41 -31.5t-43 -18q118 -18 118 -164v-69q0 -60 -16.5 -100t-45 -63.5t-68 -33.5t-85.5 -10t-85.5 10t-68 33.5t-44.5 63.5t-16 100v51q0 46 15 81.5t36.5 62t47 42.5t46.5 23
q0 32 -8 51.5t-25 23.5q-22 -63 -77 -63q-29 0 -49.5 17t-20.5 49v40z" />
    <glyph glyph-name="uni0E0C" unicode="&#xe0c;" horiz-adv-x="929" 
d="M63 144q0 36 11 65t30 52t43.5 40.5t51.5 29.5l-144 25v8q0 103 57.5 160t169.5 57q116 0 168.5 -58t52.5 -164v-125q0 -37 10.5 -72t32 -61.5t54 -42.5t75.5 -16q30 0 54 9.5t40.5 31.5t25.5 58t9 89v347h60v-359q0 -118 -46.5 -172t-133.5 -54q-42 0 -73 11.5t-53 32
t-36.5 48t-22.5 59.5v-143h-55v355q0 42 -8.5 75t-28 55.5t-50.5 34.5t-75 12q-81 0 -124 -40t-47 -111l144 -27v-24q-18 -6 -41.5 -20.5t-43.5 -37t-34 -53t-14 -67.5q0 -29 9.5 -49.5t26 -33t39 -18t49.5 -5.5h29v-46h-44q-34 0 -64.5 7.5t-53.5 24.5t-36.5 44.5
t-13.5 67.5z" />
    <glyph glyph-name="uni0E0D" unicode="&#xe0d;" horiz-adv-x="929" 
d="M63 144q0 36 11 65t30 52t43.5 40.5t51.5 29.5l-144 25v8q0 103 57.5 160t169.5 57q116 0 168.5 -58t52.5 -164v-131q0 -53 12 -88.5t33 -57.5t48.5 -31t57.5 -9t57.5 9t48 31t32.5 57.5t12 88.5v349h60v-358q0 -58 -15.5 -101t-43 -71t-66 -41.5t-85.5 -13.5
q-46 0 -85 13.5t-66.5 41.5t-43 71t-15.5 101v136q0 42 -8.5 75t-28 55.5t-50.5 34.5t-75 12q-81 0 -124 -40t-47 -111l144 -27v-24q-18 -6 -41.5 -20.5t-43.5 -37t-34 -53t-14 -67.5q0 -29 9.5 -49.5t26 -33t39 -18t49.5 -5.5h29v-46h-44q-34 0 -64.5 7.5t-53.5 24.5
t-36.5 44.5t-13.5 67.5zM851 -142v-43h-272q-45 0 -71.5 10t-40.5 26.5t-18 38.5t-4 46v8h53v-8q0 -22 3.5 -37t14 -24t29 -13t48.5 -4h258z" />
    <glyph glyph-name="uni0E0E" unicode="&#xe0e;" horiz-adv-x="601" 
d="M61 364q0 103 62 160t177 57q117 0 176.5 -58t59.5 -164v-559h-48q-60 48 -110.5 72t-107.5 24q-112 0 -124 -96h-58q5 41 22 68.5t41.5 44t54.5 23t61 6.5q66 0 115 -25t94 -60v498q0 85 -43 131t-133 46q-85 0 -132 -40t-52 -111l150 -28v-24q-43 -11 -68.5 -37.5
t-25.5 -74.5v-107q0 -54 -30.5 -82t-78.5 -28h-42v46h31q62 0 62 71v94q0 40 23 75t68 45l-144 25v8z" />
    <glyph glyph-name="uni0E0F" unicode="&#xe0f;" horiz-adv-x="601" 
d="M122 -63q12 -54 35.5 -76t60.5 -22q38 0 61.5 22t36.5 76h37l123 -96v514q0 85 -43 131t-133 46q-85 0 -132 -40t-52 -111l150 -28v-24q-43 -11 -68.5 -37.5t-25.5 -74.5v-107q0 -54 -30.5 -82t-78.5 -28h-42v46h31q62 0 62 71v94q0 40 23 75t68 45l-144 25v8
q0 103 62 160t177 57q117 0 176.5 -58t59.5 -164v-559h-76l-121 97q-14 -53 -48 -77.5t-80 -24.5q-54 0 -93 34t-50 108h54z" />
    <glyph glyph-name="uni0E10" unicode="&#xe10;" horiz-adv-x="557" 
d="M559 620l-100 -106q25 -23 39.5 -53.5t14.5 -72.5q0 -45 -14 -90t-37.5 -92.5t-54 -98.5t-63.5 -107h-96l-114 246q-3 8 -13 8h-68v44h88q28 0 39 -25l104 -226h28q23 41 48 84.5t46 86.5t34.5 84t13.5 78q0 29 -10 56.5t-31 48.5t-54 33.5t-80 12.5q-64 0 -109 -28
t-68 -95h-57q20 87 83.5 130t154.5 43q81 0 138 -36l72 75h66zM489 -79v-137h-71l-120 97q-14 -52 -48 -77t-80 -25q-54 0 -92.5 34t-50.5 108h54q12 -54 35.5 -76t60.5 -22t60.5 22t37.5 76h36l124 -96v96h54z" />
    <glyph glyph-name="uni0E11" unicode="&#xe11;" horiz-adv-x="595" 
d="M35 577h50v-32q0 -18 9.5 -24.5t20.5 -6.5q18 0 29.5 13.5t24.5 49.5h10q38 0 59 -25t24 -61q20 18 39.5 34.5t39 30t39 21.5t40.5 8q62 0 86 -35t24 -97v-453h-60v441q0 51 -11.5 71.5t-49.5 20.5q-14 0 -30.5 -8t-35 -21.5t-38.5 -30.5t-41 -35q-20 -18 -43 -38.5
t-43 -47t-33 -60.5t-13 -78v-214h-60v218q0 40 11.5 73.5t31 62.5t46 55.5t57.5 51.5q0 19 -7.5 42.5t-27.5 30.5q-22 -63 -77 -63q-29 0 -50 17t-21 49v40z" />
    <glyph glyph-name="uni0E12" unicode="&#xe12;" horiz-adv-x="971" 
d="M351 288q0 -57 -24 -105.5t-59.5 -86t-76.5 -62.5t-74 -34h-52v444q0 68 29 103.5t89 35.5q51 0 81.5 -23.5t40.5 -62.5q10 39 41 62.5t82 23.5q60 0 88.5 -35.5t28.5 -103.5v-210q0 -37 11 -72t32.5 -61.5t53.5 -42.5t75 -16q30 0 54.5 9.5t41 31.5t25.5 58t9 89v347h59
v-359q0 -118 -46.5 -172t-133.5 -54q-42 0 -72.5 11.5t-52.5 32t-36.5 48t-22.5 59.5v-143h-56v443q0 11 -1.5 26.5t-8 29.5t-20.5 23.5t-40 9.5q-25 0 -42.5 -9.5t-28.5 -24t-15.5 -31t-4.5 -31.5h-39q0 15 -5 31.5t-15.5 31t-28 24t-43.5 9.5q-25 0 -39.5 -9.5t-21 -23.5
t-8 -29.5t-1.5 -26.5v-402q32 17 64 41.5t57.5 54.5t41 65t15.5 74h-82v43h131v-31z" />
    <glyph glyph-name="uni0E13" unicode="&#xe13;" horiz-adv-x="929" 
d="M864 0h-56v143q-8 -32 -22.5 -59.5t-36.5 -48t-52.5 -32t-72.5 -11.5q-87 0 -133.5 54t-46.5 172v137q0 42 -8.5 75t-28 55.5t-50.5 34.5t-75 12q-81 0 -124 -40t-47 -111l144 -27v-24q-18 -6 -41.5 -20.5t-43.5 -37t-34 -53t-14 -67.5q0 -29 9.5 -49.5t26 -33t39 -18
t49.5 -5.5h29v-46h-44q-34 0 -64.5 7.5t-53.5 24.5t-36.5 44.5t-13.5 67.5q0 36 11 65t30 52t43.5 40.5t51.5 29.5l-144 25v8q0 103 57.5 160t169.5 57q116 0 168.5 -58t52.5 -164v-129q0 -53 9 -89t25.5 -58t41 -31.5t54.5 -9.5q43 0 75 16t53.5 42.5t32 61.5t10.5 72v343
h60v-577z" />
    <glyph glyph-name="uni0E14" unicode="&#xe14;" horiz-adv-x="609" 
d="M305 532q-54 0 -89 -17t-55.5 -46t-28.5 -67.5t-8 -82.5v-278q32 17 64 41.5t57.5 54.5t41 65t15.5 74h-82v43h131v-31q0 -57 -24 -105.5t-59.5 -86t-76.5 -62.5t-75 -34h-51v322q0 70 16.5 119t47.5 80t75.5 45.5t100.5 14.5q57 0 101 -14.5t75 -45.5t47 -80t16 -119
v-322h-59v319q0 44 -8 82.5t-28.5 67.5t-55 46t-88.5 17z" />
    <glyph glyph-name="uni0E15" unicode="&#xe15;" horiz-adv-x="610" 
d="M351 288q0 -57 -24 -105.5t-59.5 -86t-76.5 -62.5t-74 -34h-52v444q0 68 29 103.5t89 35.5q51 0 81.5 -23.5t41.5 -62.5q10 39 40.5 62.5t81.5 23.5q60 0 88.5 -35.5t28.5 -103.5v-444h-59v443q0 11 -1.5 26.5t-8 29.5t-20.5 23.5t-40 9.5q-25 0 -42.5 -9.5t-28 -24
t-15.5 -31t-5 -31.5h-39q0 15 -5 31.5t-15.5 31t-28 24t-42.5 9.5t-39.5 -9.5t-21.5 -23.5t-8.5 -29.5t-1.5 -26.5v-402q33 17 65 41.5t57.5 54.5t41 65t15.5 74h-83v43h131v-31z" />
    <glyph glyph-name="uni0E16" unicode="&#xe16;" horiz-adv-x="595" 
d="M63 144q0 36 11 65t30 52t43.5 40.5t51.5 29.5l-144 25v8q0 103 62.5 160t177.5 57q116 0 175.5 -58t59.5 -164v-359h-60v355q0 85 -43 131t-132 46q-85 0 -132.5 -40t-51.5 -111l144 -27v-24q-18 -6 -41.5 -20.5t-43.5 -37t-34 -53t-14 -67.5q0 -29 9.5 -49.5t26 -33
t39 -18t49.5 -5.5h29v-46h-44q-34 0 -64.5 7.5t-53.5 24.5t-36.5 44.5t-13.5 67.5z" />
    <glyph glyph-name="uni0E17" unicode="&#xe17;" horiz-adv-x="598" 
d="M65 577h56v-148q8 32 25.5 60t43.5 48.5t61 32t79 11.5t81.5 -13t64.5 -41t42 -70.5t15 -101.5v-355h-59v343q0 53 -12 89t-32.5 58t-49 31.5t-61.5 9.5q-44 0 -80 -15.5t-61.5 -41.5t-39.5 -60.5t-14 -72.5v-341h-59v577z" />
    <glyph glyph-name="uni0E18" unicode="&#xe18;" horiz-adv-x="562" 
d="M121 400q112 -27 186.5 -48.5t118.5 -44.5t62.5 -50.5t18.5 -65.5v-33q0 -41 -17 -71.5t-47 -51t-71 -30.5t-88 -10q-44 0 -83.5 10t-69.5 31t-47.5 54t-19.5 78v86h60v-85q1 -35 14.5 -58.5t35.5 -38t50.5 -21t59.5 -6.5q35 0 64.5 6t51.5 20t34.5 36t12.5 54v28
q0 28 -17.5 49.5t-61 41t-117.5 40.5t-187 48v28q0 48 19.5 82.5t50.5 57.5t71 34t80 11q41 0 79.5 -12t68.5 -34t49 -53.5t21 -70.5h-56q-3 29 -17.5 51.5t-37 38t-51 23.5t-58.5 8t-58.5 -8t-51 -24.5t-36.5 -41t-16 -58.5z" />
    <glyph glyph-name="uni0E19" unicode="&#xe19;" horiz-adv-x="598" 
d="M533 0h-56v144q-8 -32 -25 -60t-43.5 -48.5t-61.5 -32t-79 -11.5t-81.5 13t-64.5 41t-42 70.5t-15 101.5v359h59v-347q0 -53 12 -89t32.5 -58t49 -31.5t61.5 -9.5q45 0 81 15.5t61.5 41.5t39 60.5t13.5 72.5v345h59v-577z" />
    <glyph glyph-name="uni0E1A" unicode="&#xe1a;" horiz-adv-x="606" 
d="M541 577v-325q0 -69 -16 -118.5t-46.5 -81t-74.5 -46t-100 -14.5q-57 0 -101 14.5t-75 46t-47 81t-16 118.5v325h59v-321q0 -45 8 -84t28 -68t55 -45.5t89 -16.5t88.5 16.5t54.5 45.5t27.5 68t7.5 84v321h59z" />
    <glyph glyph-name="uni0E1B" unicode="&#xe1b;" horiz-adv-x="606" 
d="M541 750v-498q0 -69 -16 -118.5t-46.5 -81t-74.5 -46t-100 -14.5q-57 0 -101 14.5t-75 46t-47 81t-16 118.5v325h59v-321q0 -45 8 -84t28 -68t55 -45.5t89 -16.5t88.5 16.5t54.5 45.5t27.5 68t7.5 84v494h59z" />
    <glyph glyph-name="uni0E1C" unicode="&#xe1c;" horiz-adv-x="614" 
d="M65 453q0 57 32.5 91t88.5 34h50v-47h-40q-37 0 -54.5 -21.5t-17.5 -58.5v-373l164 245h37l164 -245v499h60v-577h-57l-185 274l-186 -274h-56v453z" />
    <glyph glyph-name="uni0E1D" unicode="&#xe1d;" horiz-adv-x="614" 
d="M65 453q0 57 32.5 91t88.5 34h50v-47h-40q-37 0 -54.5 -21.5t-17.5 -58.5v-373l164 245h37l164 -245v672h60v-750h-57l-185 274l-186 -274h-56v453z" />
    <glyph glyph-name="uni0E1E" unicode="&#xe1e;" horiz-adv-x="755" 
d="M729 577l-133 -577h-52l-167 504l-169 -504h-52l-130 577h61l102 -484l161 471h55l160 -471l103 484h61z" />
    <glyph glyph-name="uni0E1F" unicode="&#xe1f;" horiz-adv-x="755" 
d="M766 751l-169 -751h-52l-168 504l-169 -504h-52l-130 577h61l102 -484l161 471h55l160 -471l141 658h60z" />
    <glyph glyph-name="uni0E20" unicode="&#xe20;" horiz-adv-x="601" 
d="M61 364q0 103 62 160t177 57q117 0 176.5 -58t59.5 -164v-359h-60v355q0 85 -43 131t-133 46q-85 0 -132 -40t-52 -111l150 -28v-24q-43 -11 -68.5 -37.5t-25.5 -74.5v-107q0 -54 -30.5 -82t-78.5 -28h-42v46h31q62 0 62 71v94q0 40 23 75t68 45l-144 25v8z" />
    <glyph glyph-name="uni0E21" unicode="&#xe21;" horiz-adv-x="598" 
d="M65 0v577h59v-345q0 -38 14 -72.5t39.5 -60.5t61.5 -41.5t80 -15.5q33 0 61.5 9.5t49 31.5t32.5 58t12 89v347h59v-359q0 -59 -15 -101.5t-42 -70.5t-64.5 -41t-81.5 -13t-79 11.5t-61 32t-43.5 48.5t-25.5 60v-144h-56z" />
    <glyph glyph-name="uni0E22" unicode="&#xe22;" horiz-adv-x="591" 
d="M526 577v-343q0 -68 -14.5 -114t-43 -74.5t-72 -41t-100.5 -12.5q-113 0 -175 42.5t-62 132.5q0 31 10 54t27.5 39t41.5 26.5t52 16.5q-27 5 -51.5 16.5t-42.5 29t-29 41t-11 53.5q0 68 41.5 101t110.5 33h67v-46h-60q-51 0 -77 -25t-26 -67q0 -31 17 -53t41.5 -36
t53 -20t50.5 -6h46v-41h-44q-22 0 -49.5 -4.5t-51.5 -17t-40.5 -34t-16.5 -56.5q0 -26 7.5 -49.5t28 -41t55 -28t88.5 -10.5t88 14t52.5 39.5t25 61.5t6.5 80v340h57z" />
    <glyph glyph-name="uni0E23" unicode="&#xe23;" horiz-adv-x="519" 
d="M117 424q0 -20 8 -35.5t27 -28t49.5 -23t75.5 -22.5q42 -10 77.5 -22t61 -30t40 -43.5t14.5 -64.5t-16 -69t-43.5 -50t-65 -30.5t-80.5 -10.5t-80.5 11t-65.5 32.5t-46 53t-23 72.5h54q10 -59 53 -90t106 -31q32 0 59 7t47 21t31.5 35.5t11.5 50.5q0 23 -9.5 40t-32 31
t-59 26.5t-91.5 27.5q-80 21 -120 53t-40 89q0 35 14 64t39.5 49.5t62.5 32t82 11.5q88 0 144 -43.5t61 -125.5h-54q-5 59 -45.5 90t-104.5 31q-66 0 -104 -30t-38 -79z" />
    <glyph glyph-name="uni0E24" unicode="&#xe24;" horiz-adv-x="595" 
d="M63 144q0 36 11 65t30 52t43.5 40.5t51.5 29.5l-144 25v8q0 103 62.5 160t177.5 57q116 0 175.5 -58t59.5 -164v-559h-60v555q0 85 -43 131t-132 46q-85 0 -132.5 -40t-51.5 -111l144 -27v-24q-18 -6 -41.5 -20.5t-43.5 -37t-34 -53t-14 -67.5q0 -29 9.5 -49.5t26 -33
t39 -18t49.5 -5.5h29v-46h-44q-34 0 -64.5 7.5t-53.5 24.5t-36.5 44.5t-13.5 67.5z" />
    <glyph glyph-name="uni0E25" unicode="&#xe25;" horiz-adv-x="583" 
d="M518 0h-59v278l-170 -9q-39 -2 -71.5 -8.5t-56 -20t-37 -35.5t-13.5 -55q0 -104 127 -104h48v-46h-56q-88 0 -134 38t-46 110q0 49 20 80t53 49.5t75 26t87 9.5l174 9v41q0 34 -7.5 64.5t-26 53.5t-49.5 36.5t-77 13.5q-64 0 -113 -29.5t-66 -93.5h-58q9 44 30.5 76
t53 54t70.5 32.5t83 10.5q49 0 89 -12.5t69 -39t45 -68.5t16 -101v-360z" />
    <glyph glyph-name="uni0E26" unicode="&#xe26;" horiz-adv-x="601" 
d="M61 364q0 103 62 160t177 57q117 0 176.5 -58t59.5 -164v-559h-60v555q0 85 -43 131t-133 46q-85 0 -132 -40t-52 -111l150 -28v-24q-43 -11 -68.5 -37.5t-25.5 -74.5v-107q0 -54 -30.5 -82t-78.5 -28h-42v46h31q62 0 62 71v94q0 40 23 75t68 45l-144 25v8z" />
    <glyph glyph-name="uni0E27" unicode="&#xe27;" horiz-adv-x="550" 
d="M263 581q111 0 174 -74.5t63 -217.5q0 -144 -62.5 -218.5t-174.5 -74.5q-40 0 -76 11t-64.5 32.5t-48 54t-28.5 75.5h58q18 -64 60 -93.5t100 -29.5q52 0 86 21t54 55.5t28 78t8 88.5q0 44 -8 87.5t-28 78t-54 55.5t-86 21q-58 0 -100 -29.5t-60 -93.5h-58q9 44 28.5 76
t48 54t64.5 32.5t76 10.5z" />
    <glyph glyph-name="uni0E28" unicode="&#xe28;" horiz-adv-x="597" 
d="M51 343q0 70 16.5 116t47 73t75 38t101.5 11q45 0 83 -9.5t63 -26.5l70 75h66l-98 -103q26 -26 40.5 -68t14.5 -105v-344h-59v340q0 44 -8 79.5t-28.5 60.5t-55 38.5t-88.5 13.5q-55 0 -90 -13.5t-55 -39t-28 -61.5t-8 -80q0 -60 8 -105t18 -90q9 24 24.5 54.5t36 57.5
t45 46t52.5 19h56v-49h-44q-28 0 -53.5 -21t-46.5 -49.5t-35.5 -58t-22.5 -46.5v-96h-59v96q-5 30 -11.5 57t-12.5 56t-10 61.5t-4 72.5z" />
    <glyph glyph-name="uni0E29" unicode="&#xe29;" horiz-adv-x="615" 
d="M541 577v-253h64v-43h-64v-29q0 -69 -16 -118.5t-46.5 -81t-74.5 -46t-100 -14.5q-57 0 -101 14.5t-75 46t-47 81t-16 118.5v325h59v-321q0 -45 8 -84t28 -68t55 -45.5t89 -16.5q53 0 87.5 16.5t54.5 45.5t28 67.5t8 82.5v27h-81q-44 0 -70 8.5t-39.5 23.5t-17.5 36
t-4 45v8h49v-8q0 -22 3 -35.5t13 -21t27.5 -10.5t45.5 -3h74v253h59z" />
    <glyph glyph-name="uni0E2A" unicode="&#xe2a;" horiz-adv-x="585" 
d="M518 0h-59v278l-170 -9q-39 -2 -71.5 -8.5t-56 -20t-37 -35.5t-13.5 -55q0 -104 127 -104h48v-46h-56q-88 0 -134 38t-46 110q0 49 20 80t53 49.5t75 26t87 9.5l174 9v41q0 34 -7.5 64.5t-26 53.5t-49.5 36.5t-77 13.5q-64 0 -113 -29.5t-66 -93.5h-58q9 44 30.5 76
t53 54t70.5 32.5t83 10.5q39 0 73 -9t60 -27l72 75h66l-101 -108q49 -51 49 -152v-360z" />
    <glyph glyph-name="uni0E2B" unicode="&#xe2b;" horiz-adv-x="575" 
d="M457 184q0 33 -15 56t-36.5 37t-46 19t-43.5 3l-192 -20v-279h-59v577h59v-251l139 15q97 10 145.5 43.5t48.5 109.5v83h59v-83q0 -35 -10.5 -63t-28 -48.5t-41.5 -34.5t-51 -21q24 -4 47.5 -13.5t42 -26.5t30 -42.5t11.5 -62.5v-182h-59v184z" />
    <glyph glyph-name="uni0E2C" unicode="&#xe2c;" horiz-adv-x="744" 
d="M767 708q-11 -71 -50 -109.5t-91 -46.5q89 -29 56 -171l-85 -381h-51l-169 504l-170 -504h-51l-130 577h61l102 -484l160 471h56l160 -471l63 290q7 34 9.5 62t-5 48.5t-28.5 32t-61 11.5v40q83 0 121.5 32.5t46.5 98.5h56z" />
    <glyph glyph-name="uni0E2D" unicode="&#xe2d;" horiz-adv-x="596" 
d="M288 581q59 0 106.5 -19t81.5 -56t52 -92t18 -126q0 -145 -67 -220.5t-186 -75.5q-62 0 -107 17t-74.5 46t-44 67t-14.5 80q0 21 4 42.5t15 39t31 28t52 10.5h123v-43h-118q-18 0 -28.5 -9t-16 -21.5t-7 -26.5t-1.5 -23q0 -33 13 -62t37 -50t58.5 -33t77.5 -12
q58 0 96 21.5t60 56.5t30.5 79t8.5 89t-10 89t-33.5 78t-62 55t-94.5 21q-27 0 -55.5 -7.5t-53.5 -22.5t-44.5 -38t-28.5 -55h-57q8 44 31.5 76t56.5 54t72.5 32.5t78.5 10.5z" />
    <glyph glyph-name="uni0E2E" unicode="&#xe2e;" horiz-adv-x="596" 
d="M288 581q81 0 140 -39l75 78h66l-103 -110q38 -36 59 -91.5t21 -130.5q0 -145 -67 -220.5t-186 -75.5q-62 0 -107 17t-74.5 46t-44 67t-14.5 80q0 21 4 42.5t15 39t31 28t52 10.5h123v-43h-118q-18 0 -28.5 -9t-16 -21.5t-7 -26.5t-1.5 -23q0 -33 13 -62t37 -50t58.5 -33
t77.5 -12q58 0 96 21.5t60 56.5t30.5 79t8.5 89t-10 89t-33.5 78t-62 55t-94.5 21q-27 0 -55.5 -7.5t-53.5 -22.5t-44.5 -38t-28.5 -55h-57q8 44 31.5 76t56.5 54t72.5 32.5t78.5 10.5z" />
    <glyph glyph-name="uni0E2F" unicode="&#xe2f;" horiz-adv-x="564" 
d="M487 577v-577h-59v376q-16 -57 -66 -94t-124 -37q-42 0 -77 11t-60.5 33t-40 54t-14.5 74t14 73t37.5 51t53.5 30t61 10h55v-46h-52q-21 0 -40.5 -7t-35 -21t-24.5 -36.5t-9 -52.5q0 -33 11 -56.5t29.5 -39t44 -22.5t55.5 -7q39 0 72 14.5t57.5 39t38.5 58t14 71.5v101
h59z" />
    <glyph glyph-name="uni0E30" unicode="&#xe30;" horiz-adv-x="379" 
d="M325 410v-44h-137q-45 0 -71.5 10t-40.5 26.5t-18 38.5t-4 46v9h52v-8q0 -21 4 -36t14.5 -24.5t29 -13.5t48.5 -4h123zM325 115v-45h-137q-45 0 -71.5 10t-40.5 26.5t-18 39t-4 46.5v8h52v-7q0 -22 4 -37t14.5 -24t29 -13t48.5 -4h123z" />
    <glyph glyph-name="uni0E31" unicode="&#xe31;" 
d="M-19 724v-43h-262q-45 0 -71.5 10t-40.5 26.5t-18 38.5t-4 46v9h53v-9q0 -22 3.5 -37t14 -24t29 -13t48.5 -4h248z" />
    <glyph glyph-name="uni0E32" unicode="&#xe32;" horiz-adv-x="476" 
d="M224 581q41 0 75 -11.5t58.5 -34t38.5 -56t14 -76.5v-403h-59v401q0 36 -12 60.5t-31.5 40t-44.5 22.5t-50 7q-45 0 -85 -11t-88 -31v49q45 21 89.5 32t94.5 11z" />
    <glyph glyph-name="uni0E33" unicode="&#xe33;" horiz-adv-x="476" 
d="M-167 852q21 0 39.5 -7.5t32.5 -21t22 -31t8 -38.5q0 -20 -8 -37.5t-22 -30.5t-32.5 -20.5t-39.5 -7.5q-20 0 -38.5 7.5t-32 20.5t-21.5 30.5t-8 37.5q0 42 29.5 70t70.5 28zM-167 697q25 0 42.5 17t17.5 40q0 26 -17.5 42t-42.5 16q-23 0 -40.5 -16t-17.5 -42
q0 -23 17.5 -40t40.5 -17zM224 581q41 0 75 -11.5t58.5 -34t38.5 -56t14 -76.5v-403h-59v401q0 36 -12 60.5t-31.5 40t-44.5 22.5t-50 7q-45 0 -85 -11t-88 -31v49q45 21 89.5 32t94.5 11z" />
    <glyph glyph-name="uni0E34" unicode="&#xe34;" 
d="M-509 681v43h444v-43h-444z" />
    <glyph glyph-name="uni0E35" unicode="&#xe35;" 
d="M-509 724h388v102h56v-145h-444v43z" />
    <glyph glyph-name="uni0E36" unicode="&#xe36;" 
d="M-133 832q35 0 56 -20.5t21 -55.5t-21 -55t-56 -20h-376v43h309q-4 7 -6.5 15.5t-2.5 18.5q0 33 20.5 53.5t55.5 20.5zM-170 756q0 -17 10 -27.5t27 -10.5t27.5 10.5t10.5 27.5t-10.5 27.5t-27.5 10.5t-27 -10.5t-10 -27.5z" />
    <glyph glyph-name="uni0E37" unicode="&#xe37;" 
d="M-509 724h273v85h47v-85h77v85h47v-128h-444v43z" />
    <glyph glyph-name="uni0E38" unicode="&#xe38;" 
d="M-67 -273h-55v134h-101v44h156v-178z" />
    <glyph glyph-name="uni0E39" unicode="&#xe39;" 
d="M-67 -95v-77q0 -31 -10 -51.5t-26.5 -32.5t-36.5 -17t-40 -5q-18 0 -37.5 5t-35.5 16t-26 30t-10 47v42h-67v43h117v-75q0 -38 18 -53t41 -15q25 0 43 15t18 54v74h52z" />
    <glyph glyph-name="uni0E3A" unicode="&#xe3a;" 
d="M-183 -154q0 26 17 42.5t42 16.5t41.5 -16.5t16.5 -42.5q0 -24 -16.5 -41.5t-41.5 -17.5t-42 17.5t-17 41.5z" />
    <glyph glyph-name="uni0E3F" unicode="&#xe3f;" horiz-adv-x="600" 
d="M61 700h190v98h56v-98q96 -3 152.5 -49t56.5 -122q0 -31 -9.5 -60t-27 -52t-42.5 -39t-56 -22v-3q36 -4 67.5 -17t55 -34.5t36.5 -51.5t13 -68q0 -87 -63.5 -134.5t-175.5 -47.5h-7v-104h-56v104h-190v700zM289 373q38 0 69 11t53 30.5t34 47t12 59.5q0 60 -46 95
t-125 35h-165v-278h168zM304 49q90 0 139 35.5t49 101.5q0 69 -51.5 105t-144.5 36h-175v-278h183z" />
    <glyph glyph-name="uni0E40" unicode="&#xe40;" horiz-adv-x="278" 
d="M207 0q-27 0 -50.5 9t-41 27t-28 45t-10.5 63v433h59v-433q0 -50 23 -74t58 -24h41v-46h-51z" />
    <glyph glyph-name="uni0E41" unicode="&#xe41;" horiz-adv-x="536" 
d="M207 0q-27 0 -50.5 9t-41 27t-28 45t-10.5 63v433h59v-433q0 -50 23 -74t58 -24h41v-46h-51zM464 0q-26 0 -49.5 9t-41.5 27t-28.5 45t-10.5 63v433h59v-433q0 -50 23 -74t58 -24h41v-46h-51z" />
    <glyph glyph-name="uni0E42" unicode="&#xe42;" horiz-adv-x="309" 
d="M238 0q-27 0 -50.5 9t-41 27t-28 45t-10.5 63v396q0 39 -11.5 63.5t-29 39t-37 21.5t-35.5 12v22q0 21 8 42t24.5 37.5t42.5 27t62 10.5h179v-46h-173q-22 0 -39 -6.5t-29 -17t-18 -22.5t-6 -24q26 -9 48 -20.5t38.5 -29.5t25.5 -43t9 -60v-402q0 -50 23 -74t58 -24h41
v-46h-51z" />
    <glyph glyph-name="uni0E43" unicode="&#xe43;" horiz-adv-x="318" 
d="M246 0q-26 0 -49.5 9t-41.5 27t-28.5 45t-10.5 63v332q0 34 19.5 60.5t43.5 51.5t43.5 50t19.5 56q0 38 -22 63.5t-75 25.5q-52 0 -76 -26.5t-24 -76.5h-49q0 67 37 108.5t112 41.5q76 0 113.5 -36.5t37.5 -98.5q0 -39 -18.5 -67t-41 -52.5t-41.5 -50t-19 -59.5v-322
q0 -50 23 -74t58 -24h41l-1 -46h-51z" />
    <glyph glyph-name="uni0E44" unicode="&#xe44;" horiz-adv-x="318" 
d="M246 0q-26 0 -49.5 9t-41.5 27t-28.5 45t-10.5 63v356q0 46 10.5 80t27.5 57.5t38.5 38t42.5 21.5q0 32 -15 51.5t-38 23.5q-6 -16 -14 -30.5t-20 -25.5t-27.5 -18t-36.5 -7q-15 0 -29.5 5t-26 15t-19 26t-7.5 38v40h52v-32q0 -15 4 -24t10 -14.5t12.5 -7.5t12.5 -2
q27 0 43 22t28 58h9q54 0 83.5 -35t29.5 -83v-16q-23 -9 -43 -21t-35 -33.5t-23.5 -54.5t-8.5 -84v-344q0 -50 23 -74t58 -24h41l-1 -46h-51z" />
    <glyph glyph-name="uni0E45" unicode="&#xe45;" horiz-adv-x="476" 
d="M224 581q41 0 75 -11.5t58.5 -34t38.5 -56t14 -76.5v-603h-59v601q0 36 -12 60.5t-31.5 40t-44.5 22.5t-50 7q-45 0 -85 -11t-87 -31v49q45 21 89 32t94 11z" />
    <glyph glyph-name="uni0E46" unicode="&#xe46;" horiz-adv-x="553" 
d="M418 -120v501q0 11 -1 26t-7.5 29t-20 24t-38.5 10q-18 0 -31 -8.5t-21.5 -22t-12.5 -30t-4 -31.5h-41q0 15 -4 31.5t-13 30t-22 22t-31 8.5q-24 0 -37.5 -10t-19.5 -24t-7.5 -29t-1.5 -26v-50q0 -54 28 -80.5t76 -26.5h58v-45h-59q-35 0 -64.5 9.5t-51.5 28.5t-34 48
t-12 67v54q0 68 27.5 101t88.5 33q42 0 67.5 -26t31.5 -68q7 42 33 68t66 26q63 0 89.5 -33t26.5 -101v-506h-58z" />
    <glyph glyph-name="uni0E47" unicode="&#xe47;" 
d="M-255 782q0 -29 20 -45.5t42 -16.5h55v-42h-48q-27 0 -51 14.5t-35 40.5q-9 -26 -32.5 -40.5t-52.5 -14.5q-39 0 -66 25.5t-27 73.5t29.5 76t87.5 28h227v-44h-227q-36 0 -52.5 -16t-16.5 -43q0 -29 16 -43t37 -14q23 0 41.5 16t18.5 45h34z" />
    <glyph glyph-name="uni0E48" unicode="&#xe48;" 
d="M-122 880v197h55v-197h-55z" />
    <glyph glyph-name="uni0E49" unicode="&#xe49;" 
d="M-6 923v-43h-211q-24 0 -37.5 7t-20 17.5t-8 23t-1.5 24.5q0 17 -3.5 28.5t-21.5 11.5h-66v41h75q34 0 49 -15t15 -50q0 -29 6.5 -37t29.5 -8h194z" />
    <glyph glyph-name="uni0E4A" unicode="&#xe4a;" 
d="M-454 968q0 42 19 67.5t61 25.5q26 0 46 -13.5t28 -39.5q6 26 25 39.5t45 13.5q41 0 58.5 -24.5t17.5 -72.5v-53q23 0 34 10t11 35v123h45v-120q0 -43 -22.5 -62t-60.5 -19h-50v89q0 25 -9 39t-32 14q-20 0 -33 -15t-13 -43h-33q0 28 -14 43t-34 15q-24 0 -33.5 -14
t-9.5 -39q0 -19 10 -36t37 -17h32v-36h-37q-47 0 -67.5 26.5t-20.5 63.5z" />
    <glyph glyph-name="uni0E4B" unicode="&#xe4b;" 
d="M-42 958h-95v-78h-48v78h-95v36h95v78h48v-78h95v-36z" />
    <glyph glyph-name="uni0E4C" unicode="&#xe4c;" 
d="M-167 902q-30 0 -48.5 -4t-29 -13t-14 -24t-3.5 -37v-9h-53v9q0 24 4 46t18 38.5t40.5 26.5t71.5 10h148v-43h-134z" />
    <glyph glyph-name="uni0E4D" unicode="&#xe4d;" 
d="M-167 852q21 0 39.5 -7.5t32.5 -21t22 -31t8 -38.5q0 -20 -8 -37.5t-22 -30.5t-32.5 -20.5t-39.5 -7.5q-20 0 -38.5 7.5t-32 20.5t-21.5 30.5t-8 37.5q0 42 29.5 70t70.5 28zM-167 697q25 0 42.5 17t17.5 40q0 26 -17.5 42t-42.5 16q-23 0 -40.5 -16t-17.5 -42
q0 -23 17.5 -40t40.5 -17z" />
    <glyph glyph-name="uni0E4E" unicode="&#xe4e;" 
 />
    <glyph glyph-name="uni0E4F" unicode="&#xe4f;" horiz-adv-x="528" 
d="M264 527q43 0 81 -16.5t66.5 -45t45 -67t16.5 -81.5t-16.5 -81.5t-45 -66.5t-66.5 -44.5t-81 -16.5t-81.5 16.5t-66.5 44.5t-44.5 66.5t-16.5 81.5t16.5 81.5t44.5 67t66.5 45t81.5 16.5zM264 147q35 0 65 13.5t52.5 36.5t35.5 54t13 66t-13 65t-35.5 52.5t-52.5 35.5
t-65 13t-66 -13t-54 -35.5t-36.5 -52.5t-13.5 -65t13.5 -66t36.5 -54t54 -36.5t66 -13.5zM264 442q26 0 48.5 -9.5t39 -26.5t26.5 -39.5t10 -49.5q0 -26 -10 -49t-26.5 -40t-39 -27t-48.5 -10t-49 10t-40 27t-27 40t-10 49q0 27 10 49.5t27 39.5t40 26.5t49 9.5zM264 228
q38 0 62 26t24 63q0 38 -24 62t-62 24q-37 0 -63 -24t-26 -62q0 -37 26 -63t63 -26z" />
    <glyph glyph-name="uni0E50" unicode="&#xe50;" horiz-adv-x="604" 
d="M302 515q52 0 98.5 -18t82 -52t56 -82.5t20.5 -109.5q0 -60 -20.5 -108.5t-56 -82.5t-82 -52t-98.5 -18t-98.5 18t-82 52t-56 82.5t-20.5 108.5q0 61 20.5 109.5t56 82.5t82 52t98.5 18zM302 41q39 0 75.5 14.5t64.5 42t44.5 67t16.5 88.5q0 50 -16.5 89.5t-44.5 67
t-64.5 42t-75.5 14.5t-75 -14.5t-63.5 -42t-44 -67t-16.5 -89.5t16.5 -89.5t44 -66.5t63.5 -41.5t75 -14.5z" />
    <glyph glyph-name="uni0E51" unicode="&#xe51;" horiz-adv-x="609" 
d="M296 93q-47 -4 -92 5.5t-80.5 32.5t-57 60.5t-21.5 89.5q0 61 21 105.5t56 73t81.5 42t98.5 13.5t99.5 -18.5t84 -53.5t58 -87t21.5 -118q0 -54 -16.5 -107t-50.5 -95.5t-84.5 -69t-118.5 -26.5q-14 0 -28 1.5t-29 3.5v49q29 -6 54 -6q51 0 91.5 20.5t68.5 55t42.5 80
t14.5 94.5q0 55 -17.5 97.5t-46.5 71.5t-66.5 44t-76.5 15t-75 -10.5t-63.5 -33t-44 -57.5t-16.5 -84q0 -40 17.5 -68t45.5 -45t62.5 -23.5t67.5 -2.5v-49z" />
    <glyph glyph-name="uni0E52" unicode="&#xe52;" horiz-adv-x="708" 
d="M646 226q0 -60 -22.5 -104.5t-61.5 -73t-92.5 -42.5t-115.5 -14t-115 14t-92 42.5t-61.5 73t-22.5 104.5v456h56v-453q0 -51 20 -87.5t53 -59t75 -33t87 -10.5q48 0 91 10.5t75 33.5t50.5 59t18.5 87v146q0 11 -3 26.5t-11.5 29.5t-23.5 23.5t-40 9.5q-18 0 -30.5 -8
t-20.5 -20.5t-13 -28t-8 -31.5h-38q-3 16 -8 31.5t-13.5 28t-21 20.5t-30.5 8q-24 0 -39 -9.5t-23.5 -23.5t-11.5 -29.5t-3 -26.5v-49q0 -54 26 -80t69 -26q17 0 32.5 1.5t35.5 4.5v-40q-22 -5 -39 -6.5t-37 -1.5q-61 0 -101 37.5t-40 110.5v54q0 135 125 135q42 0 66 -24
t32 -66q8 42 32 66t66 24q128 0 128 -135v-154z" />
    <glyph glyph-name="uni0E53" unicode="&#xe53;" horiz-adv-x="647" 
d="M445 515q140 0 140 -135v-380h-59v375q0 11 -2.5 26.5t-11 29.5t-26 23.5t-47.5 9.5q-20 0 -34.5 -8t-24.5 -20.5t-15.5 -28t-7.5 -31.5h-39q-3 16 -9 31.5t-16 28t-25 20.5t-35 8q-36 0 -59.5 -19t-36.5 -50t-18 -69t-5 -77q0 -40 8 -76.5t28.5 -65t55.5 -46t90 -17.5
q12 0 28 0.5t26 2.5v-46q-13 -3 -30.5 -4t-31.5 -1q-54 0 -97 14t-72.5 44.5t-45.5 78t-16 114.5q0 60 9 109.5t29 84.5t52.5 54.5t79.5 19.5q42 0 71.5 -24t38.5 -66q8 42 38 66t70 24z" />
    <glyph glyph-name="uni0E54" unicode="&#xe54;" horiz-adv-x="653" 
d="M311 459q-39 0 -74 -13.5t-62 -39.5t-43 -65t-16 -89q0 -49 16 -87t43 -64.5t63.5 -40t76.5 -13.5q24 0 53.5 5t49.5 16q-42 40 -42 97q0 67 38.5 105.5t107.5 38.5q26 0 56 -6v-43q-11 2 -21 3t-19 1q-53 0 -81.5 -28.5t-28.5 -73.5q0 -31 15 -53.5t37.5 -36.5t49 -21
t48.5 -7h37v-44h-31q-42 0 -77 10.5t-61 29.5q-10 -9 -25 -16.5t-33 -13t-37.5 -8.5t-38.5 -3q-52 0 -98.5 17t-81 49.5t-55 80t-20.5 107.5q0 61 20.5 108.5t55 80t80.5 49.5t98 17h144q57 0 85.5 23.5t26.5 80.5h48q6 -75 -36.5 -114t-115.5 -39h-152z" />
    <glyph glyph-name="uni0E55" unicode="&#xe55;" horiz-adv-x="653" 
d="M615 0h-31q-42 0 -77 10.5t-61 29.5q-10 -9 -25 -16.5t-33 -13t-37.5 -8.5t-38.5 -3q-52 0 -98.5 17t-81 49.5t-55 80t-20.5 107.5q0 54 16 97.5t44 75t66 51.5t81 26q-25 25 -25 65q0 44 29.5 73.5t75.5 29.5q23 0 42 -8t33 -22t22 -32.5t8 -40.5q0 -36 -24 -60h38
q53 0 79.5 25t24.5 79h48q6 -75 -36.5 -114t-115.5 -39h-152q-39 0 -74 -13.5t-62 -39.5t-43 -65t-16 -89q0 -49 16 -87t43 -64.5t63.5 -40t76.5 -13.5q24 0 53.5 5t49.5 16q-42 40 -42 97q0 67 38.5 105.5t107.5 38.5q26 0 56 -6v-43q-11 2 -21 3t-19 1q-53 0 -81.5 -28.5
t-28.5 -73.5q0 -31 15 -53.5t37.5 -36.5t49 -21t48.5 -7h37v-44zM344 507q26 0 44.5 17t18.5 44q0 29 -18.5 46t-44.5 17q-27 0 -45 -17t-18 -46q0 -27 18 -44t45 -17z" />
    <glyph glyph-name="uni0E56" unicode="&#xe56;" horiz-adv-x="647" 
d="M290 260q-25 3 -48 3q-48 0 -76 -20.5t-28 -77.5q0 -33 15.5 -56.5t41 -38.5t59.5 -22t71 -7q40 0 77.5 12t66.5 37.5t46.5 65t17.5 93.5q0 103 -56 160.5t-161 57.5q-38 0 -78 -14t-66 -38h-50l-130 213h58l108 -177q19 25 60.5 44.5t101.5 19.5q73 0 124 -21t83.5 -57
t47.5 -84t15 -102q0 -67 -21.5 -115.5t-58 -80.5t-85 -47.5t-101.5 -15.5q-51 0 -95.5 10.5t-77.5 32t-52 54.5t-19 77q0 48 15 77.5t43 45t66.5 19t85.5 -1.5v-46z" />
    <glyph glyph-name="uni0E57" unicode="&#xe57;" horiz-adv-x="844" 
d="M782 120q0 -34 -12.5 -57.5t-32 -38.5t-43.5 -21.5t-47 -6.5t-47 6.5t-43.5 21.5t-32 38.5t-12.5 57.5v255q0 11 -1.5 26.5t-9 29.5t-23.5 23.5t-46 9.5q-20 0 -34.5 -8t-24.5 -20.5t-15.5 -28t-8.5 -31.5h-37q-3 16 -9 31.5t-16 28t-25 20.5t-35 8q-36 0 -58.5 -19
t-34.5 -50t-16 -69t-4 -77q0 -40 8 -76.5t28 -65t55.5 -46t90.5 -17.5q12 0 28 0.5t26 2.5v-46q-13 -3 -30.5 -4t-31.5 -1q-54 0 -97 14t-72.5 44.5t-45.5 78t-16 114.5q0 60 8 109.5t27.5 84.5t51 54.5t77.5 19.5q41 0 70.5 -24t38.5 -66q8 42 38.5 66t70.5 24
q69 0 99.5 -33t30.5 -102v-262q0 -22 7 -36.5t18 -22.5t25 -11.5t28 -3.5t28 3.5t25 12.5t18 23t7 35v564h57v-562z" />
    <glyph glyph-name="uni0E58" unicode="&#xe58;" horiz-adv-x="638" 
d="M232 46q20 0 35 8t25 21t16 28.5t9 31.5h38q3 -16 8.5 -32t15.5 -28.5t24.5 -20.5t34.5 -8q31 0 48.5 10t26.5 23.5t11.5 29t2.5 25.5v51q0 53 -25 79t-70 27q-17 0 -32.5 -1.5t-36.5 -5.5v42q20 5 37 6.5t34 1.5q67 2 108 -37t41 -113v-51q0 -66 -34.5 -101.5
t-103.5 -35.5q-41 0 -71 24t-38 66q-9 -42 -38.5 -66t-71.5 -24q-46 0 -78.5 19t-53 53.5t-30 82.5t-9.5 106q0 67 16 114.5t46.5 78t74.5 44.5t99 14h151q57 0 85 23.5t26 80.5h49q6 -75 -36.5 -114t-114.5 -39h-160q-53 0 -87.5 -17t-54.5 -44.5t-28 -64t-8 -76.5
q0 -38 5 -76t18 -68t36.5 -48.5t59.5 -18.5z" />
    <glyph glyph-name="uni0E59" unicode="&#xe59;" horiz-adv-x="701" 
d="M545 378q0 11 -2.5 25.5t-11.5 28.5t-26.5 23.5t-47.5 9.5q-19 0 -32.5 -7t-22.5 -18t-14 -25.5t-8 -28.5l186 -386h-57l-182 376q-7 15 -15 30.5t-18.5 28.5t-24 21.5t-33.5 8.5q-37 0 -60 -19.5t-36 -50t-18 -69t-5 -77.5t7.5 -76t27 -65.5t54 -45.5t88.5 -18
q13 0 29.5 0.5t27.5 2.5v-46q-11 -3 -27.5 -4t-30.5 -1q-54 0 -97 13.5t-73.5 44t-46.5 78.5t-16 115q0 60 9 109.5t29.5 84.5t53 54.5t79.5 19.5q42 0 72.5 -25.5t45.5 -67.5q6 44 36.5 68.5t68.5 24.5q45 0 75.5 -22.5t40.5 -61.5l96 159h54l-127 -212h-48z" />
    <glyph glyph-name="uni0E5A" unicode="&#xe5a;" horiz-adv-x="770" 
d="M489 577v-577h-60v376q-16 -58 -66.5 -94.5t-124.5 -36.5q-42 0 -77 11t-60.5 33t-40 54t-14.5 74t14 73t37.5 51t53.5 30t61 10h55v-46h-52q-21 0 -40.5 -7t-35 -21t-24.5 -36.5t-9 -52.5q0 -33 11 -56.5t30 -39t44.5 -22.5t54.5 -7q39 0 72.5 14.5t58 39t38.5 58
t14 71.5v101h60zM687 577v-577h-59v577h59z" />
    <glyph glyph-name="uni0E5B" unicode="&#xe5b;" horiz-adv-x="883" 
d="M297 309q0 25 -3.5 49t-13.5 42.5t-27 30t-46 11.5q-33 0 -54 -15t-33 -38t-16.5 -50.5t-4.5 -52.5q0 -51 13.5 -87t35.5 -58.5t50 -32.5t57 -10q40 0 69 17t49 45t33 65t20 77t9.5 80.5t2.5 76.5h55l59 -296l46 256h54q0 -25 2.5 -48t11.5 -40.5t27 -28t50 -10.5h83v-40
h-83q-15 0 -33 2.5t-35 14t-30.5 36t-19.5 67.5l-49 -262h-48l-60 299q0 -71 -11.5 -134.5t-37 -111.5t-66.5 -76t-99 -28q-42 0 -78 15.5t-62.5 45.5t-41.5 73.5t-15 99.5q0 36 7 70t24.5 60.5t46 43t71.5 16.5q40 0 65.5 -14t40.5 -38t20.5 -55.5t5.5 -66.5h-41z" />
    <glyph glyph-name="endash" unicode="&#x2013;" horiz-adv-x="478" 
d="M423 292h-368v50h368v-50z" />
    <glyph glyph-name="emdash" unicode="&#x2014;" horiz-adv-x="675" 
d="M620 292h-565v50h565v-50z" />
    <glyph glyph-name="quoteleft" unicode="&#x2018;" horiz-adv-x="211" 
d="M177 700l-75 -222h-70l90 222h55z" />
    <glyph glyph-name="quoteright" unicode="&#x2019;" horiz-adv-x="211" 
d="M34 478l75 222h71l-91 -222h-55z" />
    <glyph glyph-name="quotesinglbase" unicode="&#x201a;" horiz-adv-x="161" 
d="M7 -123l54 216h66l-69 -216h-51z" />
    <glyph glyph-name="quotedblleft" unicode="&#x201c;" horiz-adv-x="353" 
d="M173 700l-75 -222h-66l90 222h51zM319 700l-75 -222h-66l91 222h50z" />
    <glyph glyph-name="quotedblright" unicode="&#x201d;" horiz-adv-x="353" 
d="M180 478l75 222h67l-91 -222h-51zM34 478l75 222h66l-90 -222h-51z" />
    <glyph glyph-name="quotedblbase" unicode="&#x201e;" horiz-adv-x="309" 
d="M7 -123l54 216h64l-69 -216h-49zM157 -123l55 216h63l-69 -216h-49z" />
    <glyph glyph-name="dagger" unicode="&#x2020;" horiz-adv-x="548" 
d="M245 495v205h59v-205h177v-48h-177v-447h-59v447h-178v48h178z" />
    <glyph glyph-name="daggerdbl" unicode="&#x2021;" horiz-adv-x="548" 
d="M245 495v205h59v-205h177v-48h-177v-194h177v-49h-177v-204h-59v204h-178v49h178v194h-178v48h178z" />
    <glyph glyph-name="bullet" unicode="&#x2022;" horiz-adv-x="366" 
d="M184 216q-21 0 -39.5 8t-32.5 21.5t-22 32t-8 39.5t8 39.5t22 32t32.5 21.5t39.5 8t39 -8t31.5 -21.5t21.5 -32t8 -39.5q0 -20 -8 -38t-21.5 -32t-31.5 -22.5t-39 -8.5z" />
    <glyph glyph-name="ellipsis" unicode="&#x2026;" horiz-adv-x="526" 
d="M33 48q0 19 13.5 33t35.5 14q20 0 34 -14t14 -33q0 -20 -14 -34t-34 -14q-22 0 -35.5 14t-13.5 34zM215 48q0 19 14 33t35 14q20 0 34 -14t14 -33q0 -20 -14 -34t-34 -14q-21 0 -35 14t-14 34zM397 48q0 19 13.5 33t34.5 14q20 0 33.5 -14t13.5 -33q0 -20 -13.5 -34
t-33.5 -14q-21 0 -34.5 14t-13.5 34z" />
    <glyph glyph-name="perthousand" unicode="&#x2030;" horiz-adv-x="1035" 
d="M44 551q0 72 38 114.5t100 42.5t100 -42.5t38 -114.5t-38 -114t-100 -42t-100 42t-38 114zM586 700l-413 -700h-60l413 700h60zM89 551q0 -53 25 -83.5t68 -30.5q42 0 67 30.5t25 83.5q0 54 -25 83.5t-67 29.5q-44 0 -68.5 -29.5t-24.5 -83.5zM378 149q0 72 38 114
t100 42q63 0 101.5 -42t38.5 -114q0 -71 -38.5 -113.5t-101.5 -42.5q-62 0 -100 42.5t-38 113.5zM713 149q0 72 38.5 114t99.5 42q63 0 101.5 -42t38.5 -114q0 -71 -38.5 -113.5t-101.5 -42.5q-61 0 -99.5 42.5t-38.5 113.5zM425 149q0 -52 24.5 -82.5t66.5 -30.5
q43 0 68.5 30.5t25.5 82.5q0 53 -25.5 83.5t-68.5 30.5q-42 0 -66.5 -30t-24.5 -84zM759 149q0 -52 25 -82.5t67 -30.5q43 0 68.5 30.5t25.5 82.5q0 53 -25.5 83.5t-68.5 30.5q-42 0 -67 -30t-25 -84z" />
    <glyph glyph-name="guilsinglleft" unicode="&#x2039;" horiz-adv-x="562" 
d="M56 292v51l450 273v-59l-393 -239v-1l393 -239v-58z" />
    <glyph glyph-name="guilsinglright" unicode="&#x203a;" horiz-adv-x="562" 
d="M506 292l-450 -272v58l393 239v1l-393 239v59l450 -273v-51z" />
    <glyph glyph-name="fraction" unicode="&#x2044;" horiz-adv-x="365" 
d="M336 700l-271 -700h-62l272 700h61z" />
    <glyph glyph-name="Euro" unicode="&#x20ac;" horiz-adv-x="731" 
d="M179 419q-8 -65 0 -131h267v-45h-258q21 -95 81 -146.5t151 -51.5q81 0 136.5 38.5t73.5 108.5h60q-19 -93 -90.5 -146.5t-179.5 -53.5q-119 0 -194.5 66t-99.5 185h-91v45h83q-9 66 0 131h-83v45h91q25 115 100.5 179.5t193.5 64.5q52 0 97 -15.5t80 -43t59 -66
t34 -85.5h-60q-9 35 -28 64.5t-46.5 50.5t-62 32.5t-73.5 11.5q-92 0 -151 -50.5t-81 -142.5h258v-45h-267z" />
    <glyph glyph-name="trademark" unicode="&#x2122;" horiz-adv-x="887" 
d="M371 662h-135v-380h-47v380h-134v38h316v-38zM787 622h-3l-140 -340h-31l-142 340h-2v-340h-46v418h60l144 -354h1l145 354h60v-418h-46v340z" />
    <glyph glyph-name="minus" unicode="&#x2212;" horiz-adv-x="478" 
d="M423 292h-368v50h368v-50z" />
    <glyph glyph-name="uni25CC" unicode="&#x25cc;" horiz-adv-x="539" 
d="M265 503q8 2 15.5 -1.5t9.5 -11.5q2 -9 -1.5 -17t-11.5 -10q-22 -5 -27 15q-3 8 1.5 15.5t13.5 9.5zM382 453q8 3 15 -0.5t10 -13.5q2 -9 -1 -17.5t-12 -10.5q-8 -3 -16.5 2t-11.5 15q-2 9 3 16t13 9zM146 453q8 3 16.5 -0.5t10.5 -13.5q3 -9 -2 -17.5t-14 -10.5
q-6 -3 -14 2t-10 15q-2 9 2 16t11 9zM429 336q9 2 17 -2.5t10 -12.5t-1.5 -16t-13.5 -10q-8 -2 -16 2t-10 12t2.5 16.5t11.5 10.5zM96 336q8 2 17 -2.5t11 -12.5t-2.5 -16t-13.5 -10q-8 -2 -15.5 2t-9.5 12t1.5 16.5t11.5 10.5zM382 219q8 2 15 -2t10 -13q2 -8 -1 -15.5
t-12 -9.5q-8 -2 -16.5 1.5t-11.5 11.5q-2 10 3 17.5t13 9.5zM146 219q8 2 16.5 -2t10.5 -13q3 -8 -2 -15.5t-14 -9.5q-6 -2 -14 1.5t-10 11.5q-2 10 2 17.5t11 9.5zM265 167q8 2 15.5 -1.5t9.5 -11.5q2 -9 -1.5 -16t-11.5 -10q-22 -5 -27 14q-3 8 1.5 15.5t13.5 9.5z" />
    <glyph glyph-name="uni0E10.descless" horiz-adv-x="567" 
d="M559 620l-100 -106q25 -23 39.5 -53.5t14.5 -72.5q0 -45 -14 -90t-37.5 -92.5t-54 -98.5t-63.5 -107h-96l-114 246q-3 8 -13 8h-68v44h88q28 0 39 -25l104 -226h28q23 41 48 84.5t46 86.5t34.5 84t13.5 78q0 29 -10 56.5t-31 48.5t-54 33.5t-80 12.5q-64 0 -109 -28
t-68 -95h-57q20 87 83.5 130t154.5 43q81 0 138 -36l72 75h66z" />
    <glyph glyph-name="uni0E0D.descless" horiz-adv-x="929" 
d="M63 144q0 36 11 65t30 52t43.5 40.5t51.5 29.5l-144 25v8q0 103 57.5 160t169.5 57q116 0 168.5 -58t52.5 -164v-131q0 -53 12 -88.5t33 -57.5t48.5 -31t57.5 -9t57.5 9t48 31t32.5 57.5t12 88.5v349h60v-358q0 -58 -15.5 -101t-43 -71t-66 -41.5t-85.5 -13.5
q-46 0 -85 13.5t-66.5 41.5t-43 71t-15.5 101v136q0 42 -8.5 75t-28 55.5t-50.5 34.5t-75 12q-81 0 -124 -40t-47 -111l144 -27v-24q-18 -6 -41.5 -20.5t-43.5 -37t-34 -53t-14 -67.5q0 -29 9.5 -49.5t26 -33t39 -18t49.5 -5.5h29v-46h-44q-34 0 -64.5 7.5t-53.5 24.5
t-36.5 44.5t-13.5 67.5z" />
    <glyph glyph-name="uni0E48.nikhahit" 
d="M-67 903h-54v165h54v-165zM-166 851q21 0 39.5 -7.5t32.5 -20.5t22 -31t8 -39q0 -20 -8 -37.5t-22 -30.5t-32.5 -20.5t-39.5 -7.5q-41 0 -71 27t-30 69q0 21 8 39t22 31t32.5 20.5t38.5 7.5zM-166 697q24 0 41 16.5t17 39.5q0 26 -17 41.5t-41 15.5q-23 0 -40 -15.5
t-17 -41.5q0 -23 17 -39.5t40 -16.5z" />
    <glyph glyph-name="uni0E49.nikhahit" 
d="M-15 942v-39h-181q-24 0 -37.5 6.5t-20 17t-7.5 23t-1 24.5q0 17 -4 28t-21 11h-56v37h64q33 0 48 -14.5t15 -49.5q0 -28 6 -36t29 -8h166zM-166 851q21 0 39.5 -7.5t32.5 -20.5t22 -31t8 -39q0 -20 -8 -37.5t-22 -30.5t-32.5 -20.5t-39.5 -7.5q-41 0 -71 27t-30 69
q0 21 8 39t22 31t32.5 20.5t38.5 7.5zM-166 697q24 0 41 16.5t17 39.5q0 26 -17 41.5t-41 15.5q-23 0 -40 -15.5t-17 -41.5q0 -23 17 -39.5t40 -16.5z" />
    <glyph glyph-name="uni0E4A.nikhahit" 
d="M-355 981q0 39 18.5 61t56.5 22q25 0 46.5 -12t25.5 -41q3 29 23.5 41t45.5 12q71 0 71 -86v-44q22 0 33.5 10t11.5 34v104h43v-100q0 -43 -22.5 -62t-58.5 -19h-49v80q0 25 -10 34t-30 9q-17 0 -29.5 -10.5t-12.5 -38.5h-32q0 28 -14 38.5t-31 10.5q-41 0 -41 -44
q0 -19 9.5 -31t36.5 -12h27v-36h-32q-45 0 -65.5 22.5t-20.5 57.5zM-166 851q21 0 39.5 -7.5t32.5 -20.5t22 -31t8 -39q0 -20 -8 -37.5t-22 -30.5t-32.5 -20.5t-39.5 -7.5q-41 0 -71 27t-30 69q0 21 8 39t22 31t32.5 20.5t38.5 7.5zM-166 697q24 0 41 16.5t17 39.5
q0 26 -17 41.5t-41 15.5q-23 0 -40 -15.5t-17 -41.5q0 -23 17 -39.5t40 -16.5z" />
    <glyph glyph-name="uni0E4B.nikhahit" 
d="M13 971h-85v-68h-49v68h-85v37h85v68h49v-68h85v-37zM-166 851q21 0 39.5 -7.5t32.5 -20.5t22 -31t8 -39q0 -20 -8 -37.5t-22 -30.5t-32.5 -20.5t-39.5 -7.5q-41 0 -71 27t-30 69q0 21 8 39t22 31t32.5 20.5t38.5 7.5zM-166 697q24 0 41 16.5t17 39.5q0 26 -17 41.5
t-41 15.5q-23 0 -40 -15.5t-17 -41.5q0 -23 17 -39.5t40 -16.5z" />
    <glyph glyph-name="uni0E31.upleft" 
d="M-65 724v-43h-211q-45 0 -71.5 10t-40.5 26.5t-18 38.5t-4 46v9h53v-9q0 -22 3.5 -37t14 -24t29 -13t48.5 -4h197z" />
    <glyph glyph-name="uni0E34.upleft" 
d="M-65 681h-377v43h377v-43z" />
    <glyph glyph-name="uni0E35.upleft" 
d="M-442 724h321v102h56v-145h-377v43z" />
    <glyph glyph-name="uni0E36.upleft" 
d="M-133 832q35 0 56 -20.5t21 -55.5t-21 -55t-56 -20h-309v43h242q-4 7 -6.5 15.5t-2.5 18.5q0 33 20.5 53.5t55.5 20.5zM-170 756q0 -17 10 -27.5t27 -10.5t27.5 10.5t10.5 27.5t-10.5 27.5t-27.5 10.5t-27 -10.5t-10 -27.5z" />
    <glyph glyph-name="uni0E37.upleft" 
d="M-442 724h209v85h45v-85h78v85h45v-128h-377v43z" />
    <glyph glyph-name="uni0E48.upleft" 
d="M-122 880v197h55v-197h-55z" />
    <glyph glyph-name="uni0E49.upleft" 
d="M-65 923v-43h-179q-25 0 -38.5 7t-20 17.5t-7.5 23t-1 24.5q0 17 -4 28.5t-22 11.5h-63v41h73q33 0 48.5 -15t15.5 -50q0 -29 6 -37t29 -8h163z" />
    <glyph glyph-name="uni0E4A.upleft" 
d="M-421 970q0 43 19 68t59 25q26 0 44 -13.5t26 -39.5q6 26 23 39.5t43 13.5q39 0 54 -23t15 -71v-55q23 0 34.5 10t11.5 34v124h43v-120q0 -43 -22 -62.5t-59 -19.5h-48v90q0 25 -7 38.5t-30 13.5q-41 0 -41 -58h-33q0 28 -12.5 43t-32.5 15q-24 0 -33.5 -14t-9.5 -39
q0 -19 10 -36t37 -17h28v-36h-31q-23 0 -39.5 7.5t-27.5 20t-16 28.5t-5 34z" />
    <glyph glyph-name="uni0E4B.upleft" 
d="M-39 964h-95v-78h-49v78h-95v37h95v77h49v-77h95v-37z" />
    <glyph glyph-name="uni0E47.upleft" 
d="M-192 782q0 -29 20 -45.5t42 -16.5h44v-42h-37q-27 0 -51 14.5t-35 40.5q-9 -26 -32.5 -40.5t-52.5 -14.5q-39 0 -66 25.5t-27 73.5t29.5 76t87.5 28h216v-44h-216q-36 0 -52.5 -16t-16.5 -43q0 -29 16 -43t37 -14q23 0 41.5 16t18.5 45h34z" />
    <glyph glyph-name="uni0E48.up2" 
d="M-121 880v166h54v-166h-54z" />
    <glyph glyph-name="uni0E49.up2" 
d="M-34 919v-39h-181q-24 0 -37.5 6.5t-20 17t-7.5 23t-1 24.5q0 17 -3.5 28.5t-21.5 11.5h-56v37h64q33 0 48.5 -14.5t15.5 -49.5q0 -29 6 -37t29 -8h165z" />
    <glyph glyph-name="uni0E4A.up2" 
d="M-439 951q0 39 18.5 61t56.5 22q26 0 47 -12t25 -41q4 29 24 41t45 12q38 0 54.5 -21t16.5 -65v-44q22 0 33.5 10t11.5 34v104h43v-100q0 -43 -22.5 -62t-58.5 -19h-49v80q0 25 -10 34t-30 9q-17 0 -29.5 -10.5t-12.5 -38.5h-32q0 28 -14 38.5t-31 10.5q-41 0 -41 -44
q0 -19 10 -31t36 -12h28v-36h-32q-46 0 -66.5 22.5t-20.5 57.5z" />
    <glyph glyph-name="uni0E4B.up2" 
d="M13 948h-85v-68h-49v68h-85v37h85v68h49v-68h85v-37z" />
    <glyph glyph-name="uni0E4C.upleft" 
d="M-108 910q-30 0 -49 -4t-29.5 -13.5t-14 -24.5t-3.5 -37v-8h-52v8q0 24 4 46.5t18 39t40 26.5t71 10h132v-43h-117z" />
    <glyph glyph-name="uni0E4C.up2" 
d="M-120 901q-30 0 -48 -4t-28.5 -13t-14 -24t-3.5 -36v-9h-51v9q0 24 4 45.5t18 38t39.5 26t69.5 9.5h130v-42h-116z" />
    </font>
</defs>
</svg>
