<?xml version="1.0" standalone="no"?>
<!DOCTYPE svg PUBLIC "-//W3C//DTD SVG 1.1//EN" "http://www.w3.org/Graphics/SVG/1.1/DTD/svg11.dtd" >
<svg xmlns="http://www.w3.org/2000/svg" xmlns:xlink="http://www.w3.org/1999/xlink" version="1.1">
<metadata>
Created by FontForge 20170731 at Sat Jul 24 06:22:38 2021
 By Aleksey,,,
Copyright (c) 2021 by Fontcraft: Jutipong Poosumas. All rights reserved.
</metadata>
<defs>
<font id="FCSubject-Thin" horiz-adv-x="0" >
  <font-face 
    font-family="FC Subject Thin"
    font-weight="100"
    font-stretch="normal"
    units-per-em="1000"
    panose-1="0 0 0 0 0 0 0 0 0 0"
    ascent="800"
    descent="-200"
    x-height="505"
    cap-height="700"
    bbox="-500 -276 976 1074"
    underline-thickness="50"
    underline-position="-175"
    unicode-range="U+000A-FB02"
  />
<missing-glyph horiz-adv-x="600" 
 />
    <glyph glyph-name="fi" unicode="fi" horiz-adv-x="519" 
d="M303 669q-15 2 -29 3t-27 1q-19 0 -34 -4t-26 -14.5t-17 -29t-6 -48.5v-72h106v-32h-106v-473h-38v473h-89v32h89v72q0 70 31 99.5t87 29.5q28 0 59 -6v-31zM382 643q0 13 8.5 22t22.5 9q12 0 21.5 -9t9.5 -22q0 -14 -9.5 -23t-21.5 -9q-14 0 -22.5 9t-8.5 23zM394 505
h37v-505h-37v505z" />
    <glyph glyph-name="fl" unicode="fl" horiz-adv-x="556" 
d="M303 669q-15 2 -29 3t-27 1q-19 0 -34 -4t-26 -14.5t-17 -29t-6 -48.5v-72h106v-32h-106v-473h-38v473h-89v32h89v72q0 70 31 99.5t87 29.5q28 0 59 -6v-31zM496 31q11 0 19 1t22 3v-31q-14 -4 -23.5 -5.5t-22.5 -1.5q-59 0 -83 29.5t-24 100.5v573h38v-573
q0 -53 14.5 -74.5t59.5 -21.5z" />
    <glyph glyph-name="ru.lakyao" unicode="&#xe24;&#xe32;" horiz-adv-x="878" 
d="M60 371q0 97 61 153.5t173 56.5q95 0 152 -43q46 21 89.5 32t93.5 11q39 0 72 -11.5t57 -33.5t37 -53.5t13 -70.5v-612h-39v612q0 38 -13.5 63.5t-34.5 41t-46.5 22.5t-49.5 7q-42 0 -77.5 -8.5t-74.5 -24.5q47 -56 47 -151v-562h-39v560q0 91 -46 139t-141 48
q-91 0 -142 -43t-55 -118l151 -28v-21q-19 -6 -43.5 -21t-46.5 -39.5t-37 -57t-15 -73.5q0 -32 10 -53.5t28 -35t42.5 -19t53.5 -5.5h29v-33h-37q-34 0 -63.5 8t-52 25t-35.5 44.5t-13 67.5q0 37 11 66.5t29.5 53t42.5 42t51 31.5l-142 25v8z" />
    <glyph glyph-name="lu.lakyao" unicode="&#xe26;&#xe32;" horiz-adv-x="884" 
d="M66 371q0 97 61 153.5t173 56.5q95 0 152 -43q46 21 89.5 32t93.5 11q39 0 72 -11.5t57 -33.5t37 -53.5t13 -70.5v-612h-39v612q0 38 -13.5 63.5t-34.5 41t-46.5 22.5t-49.5 7q-42 0 -77.5 -8.5t-74.5 -24.5q47 -56 47 -151v-562h-39v560q0 91 -46 139t-141 48
q-91 0 -142 -43t-55 -118l156 -29v-21q-45 -11 -72.5 -38t-27.5 -76v-117q0 -51 -29 -78t-72 -27h-36v33h32q35 0 50.5 18.5t15.5 56.5v106q0 41 22 77t65 47l-141 25v8z" />
    <glyph glyph-name="Fontcraft" unicode="FontcraftLogo" horiz-adv-x="790" 
d="M396 709q69 0 129 -26t105 -71t71 -105.5t26 -129.5t-26 -129.5t-71 -105.5t-105 -71t-129 -26t-129.5 26t-106 71t-71.5 105.5t-26 129.5t26 129.5t71.5 105.5t106 71t129.5 26zM396 104q57 0 106.5 22t86 59t58 87t21.5 105q0 57 -21.5 107t-59 87t-86.5 58t-105 21
q-57 0 -106.5 -21.5t-87 -58.5t-59 -87t-21.5 -106q0 -57 21.5 -106.5t59 -86.5t87 -58.5t106.5 -21.5zM581 500q17 -27 26.5 -57.5t9.5 -65.5q0 -46 -17.5 -87t-48 -71t-70.5 -47.5t-85 -17.5q-47 0 -88 17.5t-71.5 47.5t-48 71t-17.5 87q0 47 17.5 87.5t48 70.5t71.5 47
t88 17q40 0 78 -14t67 -39l-40 -180q-7 -29 -16.5 -40.5t-29.5 -11.5q-17 0 -27 8t-7 28l16 76q1 8 -4 15.5t-20 7.5q-20 0 -25 -20l-16 -73q-3 -15 -14 -30.5t-36 -15.5q-13 0 -20.5 9.5t-2.5 34.5l13 65q3 20 -9.5 26.5t-32.5 6.5q-26 0 -34 -8t-8 -18q0 -11 5.5 -19
t15.5 -8h7l-7 -37q-4 -20 -2.5 -38t10 -32t25 -22t40.5 -8q18 0 36.5 8t29.5 31q3 -11 10 -18.5t17 -12t20.5 -6.5t19.5 -2q22 0 37.5 7.5t26 19t17 26t9.5 29.5zM200 -26l-9 -52q-3 -14 -12 -20.5t-21 -6.5t-18.5 6.5t-4.5 20.5l9 52q7 28 33 28q12 0 18.5 -7.5t4.5 -20.5z
M400 -79l1 7h20l-1 -6q-2 -14 -11 -20.5t-21 -6.5t-18.5 6.5t-4.5 20.5l9 52q7 28 33 28q11 0 17.5 -6.5t4.5 -19.5q0 -2 -2 -8l-20 -1q1 3 1 7q2 10 -4 10q-5 0 -6 -2.5t-2 -7.5l-11 -53q0 -3 1.5 -6t4.5 -3q5 0 6.5 3t2.5 6zM79 0h50l-4 -17h-29l-4 -26h24l-4 -16h-23
l-9 -45h-20zM264 0h21l-18 -104h-21l-6 67l-12 -67h-18l17 104h23l3 -53v-13h1q0 5 1 8.5t2 8.5zM305 0h55l-3 -17h-18l-14 -87h-22l16 87h-17zM504 -29v-3q-4 -16 -16 -21l3 -51h-22v47h-4l-8 -47h-20l18 104h28q12 0 18 -6t3 -23zM545 0h25l3 -104h-23l1 23h-16l-7 -23
h-20zM609 0h50l-3 -17h-30l-4 -26h24l-3 -16h-24l-9 -45h-20zM675 0h55l-3 -17h-16l-16 -87h-22l16 87h-17zM169 -79l11 53q0 10 -6 10q-7 0 -9 -10l-10 -53q0 -3 1.5 -6t4.5 -3q5 0 6.5 3t1.5 6zM472 -16l-4 -26h5q5 0 7 3.5t3 6.5l2 5q0 5 -1 8t-6 3h-6zM542 -62h9l1 30z
" />
    <glyph glyph-name=".notdef" horiz-adv-x="600" 
 />
    <glyph glyph-name=".null" 
 />
    <glyph glyph-name=".null" 
 />
    <glyph glyph-name="uni000D" unicode="&#xd;" horiz-adv-x="250" 
 />
    <glyph glyph-name="uni000A" unicode="&#xa;" horiz-adv-x="300" 
 />
    <glyph glyph-name="space" unicode=" " horiz-adv-x="300" 
 />
    <glyph glyph-name="exclam" unicode="!" horiz-adv-x="220" 
d="M90 385v315h40v-315l-3 -186h-34zM111 78q15 0 26.5 -11.5t11.5 -26.5q0 -17 -11.5 -28.5t-26.5 -11.5q-17 0 -28.5 11.5t-11.5 28.5q0 15 11.5 26.5t28.5 11.5z" />
    <glyph glyph-name="quotedbl" unicode="&#x22;" horiz-adv-x="266" 
d="M58 700h42l-6 -215h-31zM165 700h43l-6 -215h-31z" />
    <glyph glyph-name="numbersign" unicode="#" horiz-adv-x="672" 
d="M176 209h-139v34h146l45 215h-139v35h146l44 207h39l-43 -207h176l43 207h40l-44 -207h145v-35h-152l-43 -215h142v-34h-151l-42 -209h-39l42 209h-176l-42 -209h-41zM399 243l45 215h-176l-45 -215h176z" />
    <glyph glyph-name="dollar" unicode="$" horiz-adv-x="585" 
d="M337 366q107 -24 154 -66.5t47 -113.5q0 -43 -16 -78t-46 -60t-72 -39.5t-93 -16.5v-96h-38v97q-48 3 -88.5 18.5t-70 40.5t-47 58.5t-20.5 72.5h38q4 -34 21 -63t45 -49.5t65.5 -32t82.5 -11.5t81.5 11t62.5 31.5t40.5 49t14.5 62.5q0 58 -40 92t-132 56l-75 18
q-102 24 -147 64t-45 110q0 39 16.5 72.5t45.5 58t68 39t84 16.5v91h38v-91q52 -3 90.5 -20.5t65 -45t40.5 -63t17 -73.5h-39q-4 36 -18.5 67t-39.5 53.5t-60 35t-80 12.5q-39 0 -73 -11t-59.5 -30.5t-40.5 -47t-15 -61.5q0 -56 39 -88.5t126 -52.5z" />
    <glyph glyph-name="percent" unicode="%" horiz-adv-x="689" 
d="M47 551q0 72 36.5 114.5t98.5 42.5t98.5 -42.5t36.5 -114.5q0 -71 -36.5 -113t-98.5 -42t-98.5 42t-36.5 113zM573 700l-413 -700h-45l413 700h45zM82 551q0 -57 26.5 -90t73.5 -33q46 0 72.5 33t26.5 90q0 58 -26.5 90.5t-72.5 32.5q-48 0 -74 -32t-26 -91zM370 149
q0 71 36.5 113t98.5 42q63 0 100 -42t37 -113t-37 -113.5t-100 -42.5q-62 0 -98.5 42.5t-36.5 113.5zM406 149q0 -57 26.5 -90t72.5 -33q47 0 74 33t27 90t-27 90t-74 33q-46 0 -72.5 -33t-26.5 -90z" />
    <glyph glyph-name="ampersand" unicode="&#x26;" horiz-adv-x="681" 
d="M262 -8q-48 0 -86 13.5t-64.5 38t-40 58.5t-13.5 75q0 49 24.5 95t93.5 84q1 0 8.5 4.5t16.5 9.5t16.5 9l7.5 4q-30 31 -49 55t-30.5 44.5t-15.5 39t-4 37.5q0 31 12 58t33.5 47.5t51 32t64.5 11.5t64 -11.5t50 -31t32.5 -46.5t11.5 -58q0 -50 -36.5 -94.5t-128.5 -91.5
l213 -226q22 34 36.5 75t20.5 83h36q-7 -49 -24 -97t-43 -87l125 -123h-49l-99 97q-47 -51 -107 -78t-127 -27zM163 558q0 -15 3.5 -30t14 -34t29 -42.5t48.5 -53.5q82 41 116 80t34 81q0 24 -9 45.5t-25 37t-38 24.5t-49 9t-49.5 -9.5t-39 -25.5t-26 -37t-9.5 -45zM265 25
q57 0 112.5 26t92.5 69l-221 239l-51 -29q-31 -17 -50.5 -35t-30.5 -37.5t-15.5 -39t-4.5 -39.5q0 -67 42.5 -110.5t125.5 -43.5z" />
    <glyph glyph-name="quotesingle" unicode="'" horiz-adv-x="160" 
d="M58 700h44l-6 -215h-33z" />
    <glyph glyph-name="parenleft" unicode="(" horiz-adv-x="286" 
d="M249 740q-27 -39 -50 -87t-39 -101.5t-25 -110t-9 -112.5t9 -113t25 -110.5t39 -101.5t50 -86h-41q-61 82 -92 187t-31 224q0 118 31 222.5t92 188.5h41z" />
    <glyph glyph-name="parenright" unicode=")" horiz-adv-x="286" 
d="M78 740q61 -84 92 -188.5t31 -222.5q0 -119 -31 -224t-92 -187h-41q27 38 49.5 86t38.5 101.5t25 110.5t9 113t-9 112.5t-25 110t-38.5 101.5t-49.5 87h41z" />
    <glyph glyph-name="asterisk" unicode="*" horiz-adv-x="342" 
d="M191 557l73 -92l-28 -20l-65 98l-66 -98l-27 20l72 93l-113 31l11 32l111 -40l-5 119h33l-4 -119l111 40l11 -32z" />
    <glyph glyph-name="plus" unicode="+" horiz-adv-x="558" 
d="M260 300h-202v34h202v190h39v-190h201v-34h-201v-189h-39v189z" />
    <glyph glyph-name="comma" unicode="," horiz-adv-x="149" 
d="M10 -123l54 212h48l-67 -212h-35z" />
    <glyph glyph-name="hyphen" unicode="-" horiz-adv-x="476" 
d="M418 300h-360v34h360v-34z" />
    <glyph glyph-name="period" unicode="." horiz-adv-x="150" 
d="M75 0q-17 0 -28 11.5t-11 28.5q0 15 11 26.5t28 11.5q16 0 27.5 -11.5t11.5 -26.5q0 -17 -11.5 -28.5t-27.5 -11.5z" />
    <glyph glyph-name="slash" unicode="/" horiz-adv-x="351" 
d="M318 700l-274 -700h-41l274 700h41z" />
    <glyph glyph-name="zero" unicode="0" horiz-adv-x="604" 
d="M302 -8q-58 0 -105.5 25t-81.5 71.5t-52.5 113t-18.5 149.5t18.5 149t52.5 112.5t81.5 71t105.5 24.5t105.5 -24.5t81.5 -71t52.5 -112.5t18.5 -149t-18.5 -149.5t-52.5 -113t-81.5 -71.5t-105.5 -25zM302 26q48 0 88.5 22.5t70 64.5t45.5 102.5t16 135.5t-16 134.5
t-45.5 101t-70 64t-88.5 22.5q-49 0 -89 -22.5t-68.5 -64t-44.5 -101t-16 -134.5t16 -135.5t44.5 -102.5t68.5 -64.5t89 -22.5z" />
    <glyph glyph-name="one" unicode="1" horiz-adv-x="377" 
d="M214 700h37v-700h-38v662l-183 -86v38z" />
    <glyph glyph-name="two" unicode="2" horiz-adv-x="541" 
d="M490 35v-35h-437v29l250 259q41 42 68 73.5t43.5 57.5t23.5 48.5t7 46.5q0 33 -12 62t-35 50.5t-55 34t-73 12.5q-43 0 -76.5 -13t-56.5 -35.5t-35.5 -53t-12.5 -66.5h-38q1 44 16 81t43.5 64t68.5 42.5t91 15.5q49 0 88.5 -15t67 -41t42.5 -61t15 -75q0 -28 -8 -54
t-26.5 -55t-48.5 -64t-75 -82l-217 -223v-3h382z" />
    <glyph glyph-name="three" unicode="3" horiz-adv-x="571" 
d="M341 351q81 -5 130 -49.5t49 -118.5q0 -42 -16 -77t-46.5 -60.5t-75.5 -39.5t-102 -14q-56 0 -99 17t-71.5 45t-43.5 64.5t-15 76.5h37q1 -32 14 -62.5t37.5 -54t60 -38t80.5 -14.5q48 0 85 12t63 32.5t39.5 49t13.5 61.5q0 38 -15.5 66t-44 47.5t-68 29t-88.5 9.5h-60
v34h60q40 0 74 11.5t59.5 32t40 49.5t14.5 64q0 33 -12.5 60.5t-35 47t-54.5 30.5t-71 11q-40 0 -72 -13t-55.5 -35.5t-36 -53t-13.5 -66.5h-37q1 44 16 81t43 64t67 42.5t88 15.5t88 -13.5t66.5 -37.5t42 -57.5t14.5 -74.5q0 -71 -40 -114.5t-110 -57.5v-2z" />
    <glyph glyph-name="four" unicode="4" horiz-adv-x="557" 
d="M384 149h-354v30l356 521h36v-516h105v-35h-105v-149h-38v149zM384 630l-309 -446h309v446z" />
    <glyph glyph-name="five" unicode="5" horiz-adv-x="571" 
d="M88 195q1 -32 14 -62.5t38 -54t60 -38t80 -14.5q48 0 85.5 14.5t63.5 41t39.5 62.5t13.5 78q0 43 -15 79.5t-41.5 63.5t-62.5 42t-78 15q-54 0 -99.5 -23t-74.5 -66h-47l40 367h387v-34h-354l-33 -299h1q28 45 78 67t107 22q50 0 92 -17.5t72.5 -49t48 -73.5t17.5 -92
q0 -49 -16 -91.5t-46.5 -73.5t-75 -49t-102.5 -18q-56 0 -98.5 17t-71 45t-43.5 64.5t-16 76.5h37z" />
    <glyph glyph-name="six" unicode="6" horiz-adv-x="589" 
d="M307 458q50 0 92.5 -17.5t74 -48.5t49.5 -73t18 -91q0 -51 -18 -94.5t-49.5 -75t-74.5 -49t-94 -17.5q-42 0 -87 14.5t-83 52.5t-62.5 104t-24.5 169q0 87 16 157t48.5 118.5t81 74.5t113.5 26q52 0 91 -15.5t66.5 -43t44.5 -64.5t25 -80h-40q-9 38 -24 69t-37.5 53
t-53.5 34t-72 12q-112 0 -168 -94t-53 -272h2q9 34 29 62t49 47.5t65 30.5t76 11zM303 26q42 0 78 15.5t63 42.5t42 63.5t15 79.5q0 42 -15 78t-41.5 62.5t-63 41.5t-78.5 15q-41 0 -77.5 -15t-63.5 -41t-43 -60.5t-16 -72.5q0 -45 15.5 -83t42.5 -66t63.5 -44t78.5 -16z
" />
    <glyph glyph-name="seven" unicode="7" horiz-adv-x="512" 
d="M485 700v-25l-318 -675h-44l314 666h-410v34h458z" />
    <glyph glyph-name="eight" unicode="8" horiz-adv-x="589" 
d="M295 -8q-55 0 -100.5 15t-78 41.5t-50.5 63t-18 80.5q0 33 12 63t33.5 53.5t52 39.5t66.5 23v2q-63 14 -100 55t-37 100q0 39 16.5 72t45.5 57t69.5 37.5t88.5 13.5t88 -13.5t69 -37.5t45 -57t16 -72q0 -57 -36.5 -98.5t-98.5 -56.5v-2q36 -7 66 -23t51.5 -39.5
t33.5 -53.5t12 -63q0 -44 -18 -81t-50.5 -63.5t-77.5 -41t-100 -14.5zM295 389q39 0 72 9.5t57 27.5t37.5 43t13.5 56q0 32 -13 59t-36.5 47t-56.5 31t-74 11t-74 -11t-56.5 -31t-36.5 -47t-13 -59q0 -31 13.5 -56t37.5 -43t57 -27.5t72 -9.5zM295 26q46 0 84 12.5t65.5 35
t42.5 53.5t15 67q0 35 -15 64t-42.5 50t-65.5 32.5t-84 11.5t-84 -11.5t-65.5 -32.5t-42.5 -50t-15 -64q0 -36 15 -67t42 -53.5t65.5 -35t84.5 -12.5z" />
    <glyph glyph-name="nine" unicode="9" horiz-adv-x="587" 
d="M55 194h38q10 -39 25 -70t37.5 -52.5t53.5 -33.5t72 -12q112 0 167.5 94t52.5 272h-1q-9 -34 -29.5 -62.5t-49.5 -48t-65 -30.5t-76 -11q-49 0 -91.5 17.5t-74 48.5t-49 73.5t-17.5 91.5q0 51 18 94.5t49.5 75t74.5 49.5t94 18q41 0 86 -14.5t82.5 -52.5t62 -104
t24.5 -170q0 -87 -16 -156.5t-48.5 -118t-81 -74.5t-113.5 -26q-51 0 -90 15.5t-66.5 42.5t-44.5 64t-24 80zM284 276q42 0 78.5 15t64 41t43.5 60t16 73q0 44 -15.5 82t-43 66t-64.5 44t-79 16t-78 -15t-63 -42t-42 -64t-15 -80q0 -42 15 -78t42 -62t63 -41t78 -15z" />
    <glyph glyph-name="colon" unicode=":" horiz-adv-x="220" 
d="M111 437q-17 0 -28.5 11t-11.5 28q0 16 11.5 27t28.5 11q15 0 26.5 -11t11.5 -27q0 -17 -11.5 -28t-26.5 -11zM111 0q-17 0 -28.5 11.5t-11.5 28.5q0 15 11.5 26.5t28.5 11.5q15 0 26.5 -11.5t11.5 -26.5q0 -17 -11.5 -28.5t-26.5 -11.5z" />
    <glyph glyph-name="semicolon" unicode=";" horiz-adv-x="220" 
d="M71 476q0 16 11.5 27t28.5 11q15 0 26.5 -11t11.5 -27q0 -17 -11.5 -28t-26.5 -11q-17 0 -28.5 11t-11.5 28zM36 -123l54 212h48l-67 -212h-35z" />
    <glyph glyph-name="less" unicode="&#x3c;" horiz-adv-x="566" 
d="M58 295v45l450 273v-41l-415 -254v-1l415 -254v-40z" />
    <glyph glyph-name="equal" unicode="=" horiz-adv-x="522" 
d="M58 423h406v-34h-406v34zM58 246h406v-35h-406v35z" />
    <glyph glyph-name="greater" unicode="&#x3e;" horiz-adv-x="566" 
d="M508 295l-450 -272v40l414 254v1l-414 254v41l450 -273v-45z" />
    <glyph glyph-name="question" unicode="?" horiz-adv-x="499" 
d="M240 708q103 0 152 -44t49 -122q0 -35 -12 -58t-30.5 -41t-39.5 -34.5t-39.5 -39t-30.5 -55t-12 -81.5v-34h-39v34q0 50 12 84.5t30 59t39.5 42t39.5 35t30 37.5t12 49q0 64 -41 98.5t-120 34.5q-36 0 -63 -13t-45 -35.5t-27.5 -53t-10.5 -66.5h-36q1 44 14 81t36.5 64
t56.5 42.5t75 15.5zM258 78q16 0 27 -11.5t11 -26.5q0 -17 -11 -28.5t-27 -11.5q-17 0 -28 11.5t-11 28.5q0 15 11 26.5t28 11.5z" />
    <glyph glyph-name="at" unicode="@" horiz-adv-x="844" 
d="M425 670q74 0 142 -22t119.5 -65t82.5 -106.5t31 -146.5q0 -121 -38.5 -185t-111.5 -64q-45 0 -73 25t-36 70h-2q-17 -45 -50.5 -69t-80.5 -24q-38 0 -69 15t-53.5 42t-34.5 64.5t-12 83.5q0 37 10.5 73.5t31.5 66t52.5 48t74.5 18.5q45 0 79.5 -23t50.5 -63h1v75h38
v-270q0 -30 7 -49t18 -29.5t25 -14.5t27 -4q54 0 81.5 54t27.5 160q0 69 -24.5 125t-69 96.5t-107.5 62.5t-140 22q-76 0 -139 -23t-108 -67t-69.5 -107.5t-24.5 -143.5q0 -81 23 -145.5t67.5 -109.5t109.5 -68.5t150 -23.5q29 0 55.5 1.5t52.5 5.5v-36q-24 -3 -51 -4
t-58 -1q-90 0 -162 26t-121.5 75t-76 119.5t-26.5 160.5q0 85 26 154t75 118t119.5 76t160.5 27zM411 120q59 0 93 46.5t34 125.5q0 77 -33.5 121.5t-93.5 44.5q-29 0 -53 -12.5t-41.5 -35t-27 -53.5t-9.5 -69q0 -29 7.5 -59t23.5 -54t41 -39.5t59 -15.5z" />
    <glyph glyph-name="A" unicode="A" horiz-adv-x="604" 
d="M283 700h38l273 -700h-41l-77 199h-349l-76 -199h-41zM463 233l-160 417h-3l-159 -417h322z" />
    <glyph glyph-name="B" unicode="B" horiz-adv-x="590" 
d="M64 700h220q50 0 90 -12t68.5 -34.5t44 -54t15.5 -70.5q0 -31 -9.5 -60t-27.5 -52t-43.5 -39.5t-56.5 -22.5v-3q37 -4 68.5 -17t55 -34.5t37 -51.5t13.5 -68q0 -86 -63 -133.5t-174 -47.5h-238v700zM103 367h180q41 0 74 12t56.5 33.5t36.5 51t13 63.5q0 63 -49.5 101
t-134.5 38h-176v-299zM299 34q96 0 148.5 38t52.5 109q0 73 -55 112t-155 39h-187v-298h196z" />
    <glyph glyph-name="C" unicode="C" horiz-adv-x="657" 
d="M51 355q0 81 20.5 146.5t59 111.5t94.5 70.5t126 24.5q50 0 93 -15t77.5 -42t58 -64t33.5 -82h-40q-10 37 -30.5 67.5t-49 53t-65 35t-77.5 12.5q-62 0 -110.5 -22t-82 -63.5t-51 -100t-17.5 -132.5q0 -76 17.5 -136.5t51.5 -102.5t82.5 -64.5t109.5 -22.5
q85 0 143.5 40.5t78.5 113.5h40q-20 -89 -89 -140t-173 -51q-70 0 -126 25t-94.5 72.5t-59 114.5t-20.5 151z" />
    <glyph glyph-name="D" unicode="D" horiz-adv-x="653" 
d="M64 700h193q80 0 144 -23.5t108.5 -68t68.5 -109.5t24 -148q0 -84 -24.5 -149.5t-69.5 -110t-109.5 -68t-144.5 -23.5h-190v700zM253 34q72 0 129.5 21t98 61.5t62 99t21.5 133.5q0 77 -21.5 136t-61.5 99t-97 61t-129 21h-151v-632h149z" />
    <glyph glyph-name="E" unicode="E" horiz-adv-x="548" 
d="M104 666v-299h340v-34h-340v-299h386v-34h-426v700h426v-34h-386z" />
    <glyph glyph-name="F" unicode="F" horiz-adv-x="541" 
d="M103 666v-299h341v-34h-341v-333h-39v700h426v-34h-387z" />
    <glyph glyph-name="G" unicode="G" horiz-adv-x="686" 
d="M359 673q-62 0 -112 -22t-85 -63.5t-54 -100t-19 -132.5q0 -76 19 -136.5t54.5 -102.5t85.5 -64.5t111 -22.5q124 0 180 66.5t56 191.5v24h-214v34h254v-58q0 -64 -15.5 -118.5t-48.5 -93.5t-85.5 -61t-126.5 -22q-70 0 -127 25t-97.5 72.5t-62 114.5t-21.5 151
q0 81 21.5 146.5t62 111.5t97.5 70.5t127 24.5q50 0 95 -15t82 -42t63 -64t36 -82h-40q-10 37 -32.5 67.5t-54 53t-69.5 35t-80 12.5z" />
    <glyph glyph-name="H" unicode="H" horiz-adv-x="651" 
d="M587 700v-700h-40v333h-444v-333h-39v700h39v-333h444v333h40z" />
    <glyph glyph-name="I" unicode="I" horiz-adv-x="180" 
d="M71 700h38v-700h-38v700z" />
    <glyph glyph-name="J" unicode="J" horiz-adv-x="499" 
d="M430 700v-508q0 -48 -14.5 -85.5t-41.5 -63t-64 -38.5t-82 -13q-40 0 -76 13.5t-63 38.5t-43 60.5t-16 78.5h38q0 -36 13 -65t35.5 -48.5t51.5 -30t60 -10.5q73 0 118 40.5t45 125.5v505h39z" />
    <glyph glyph-name="K" unicode="K" horiz-adv-x="572" 
d="M542 0h-45q-42 68 -79 130q-16 26 -33 53.5t-32.5 53t-29 47.5t-23.5 37q-16 26 -41 43.5t-60 21.5l-95 -89v-297h-40v700h40v-356l378 356h53l-311 -291q34 -3 63 -23t46 -46z" />
    <glyph glyph-name="L" unicode="L" horiz-adv-x="499" 
d="M64 700h39v-666h365v-34h-404v700z" />
    <glyph glyph-name="M" unicode="M" horiz-adv-x="760" 
d="M64 700h45l271 -650h2l268 650h46v-700h-37v621h-1l-258 -621h-37l-260 621h-2v-621h-37v700z" />
    <glyph glyph-name="N" unicode="N" horiz-adv-x="648" 
d="M64 700h41l437 -630h3v630h39v-700h-38l-441 634h-2v-634h-39v700z" />
    <glyph glyph-name="O" unicode="O" horiz-adv-x="702" 
d="M351 -8q-72 0 -128.5 24.5t-96.5 71t-61 113t-21 150.5q0 82 21 148t61 112.5t96.5 71.5t128.5 25t128.5 -25t96.5 -71.5t61 -112.5t21 -148q0 -84 -21 -150.5t-61 -113t-96.5 -71t-128.5 -24.5zM351 27q62 0 111.5 22.5t84 64.5t53 102t18.5 135q0 74 -18.5 133.5
t-53 101.5t-84 64.5t-111.5 22.5q-63 0 -112.5 -22.5t-84 -64.5t-52.5 -101.5t-18 -133.5q0 -75 18 -135t52.5 -102t84 -64.5t112.5 -22.5z" />
    <glyph glyph-name="P" unicode="P" horiz-adv-x="542" 
d="M276 700q102 0 158.5 -43t56.5 -138q0 -96 -56.5 -141t-159.5 -45h-172v-333h-39v700h212zM269 367q88 0 136 35.5t48 116.5q0 80 -47.5 113.5t-136.5 33.5h-166v-299h166z" />
    <glyph glyph-name="Q" unicode="Q" horiz-adv-x="702" 
d="M329 -7q-67 4 -119.5 30t-89.5 72.5t-56.5 111t-19.5 144.5q0 82 21 148t61 112.5t96.5 71.5t128.5 25t128.5 -25t96.5 -71.5t61 -112.5t21 -148q0 -81 -20 -146.5t-58 -112t-92 -72t-123 -28.5q8 -60 52.5 -89t116.5 -29h51v-36h-51q-48 0 -85 12t-62.5 33t-39.5 49.5
t-18 60.5zM351 27q62 0 111.5 22.5t84 64.5t53 102t18.5 135q0 74 -18.5 133.5t-53 101.5t-84 64.5t-111.5 22.5q-63 0 -112.5 -22.5t-84 -64.5t-52.5 -101.5t-18 -133.5q0 -75 18 -135t52.5 -102t84 -64.5t112.5 -22.5z" />
    <glyph glyph-name="R" unicode="R" horiz-adv-x="587" 
d="M489 0l-189 333h-197v-333h-39v700h243q103 0 160 -43t57 -138q0 -81 -46.5 -128.5t-137.5 -52.5l192 -338h-43zM103 367h197q90 0 137.5 35.5t47.5 116.5q0 80 -48 113.5t-137 33.5h-197v-299z" />
    <glyph glyph-name="S" unicode="S" horiz-adv-x="585" 
d="M85 183q4 -34 21 -63t45 -49.5t65.5 -32t82.5 -11.5t81.5 11t62.5 31.5t40.5 49t14.5 62.5q0 58 -40 92t-132 56l-75 18q-102 24 -147 64t-45 110q0 41 18 75.5t49 59t72.5 38.5t89.5 14q58 0 101 -16.5t72 -44.5t44.5 -64.5t18.5 -77.5h-39q-4 36 -18.5 67t-39.5 53.5
t-60 35t-80 12.5q-39 0 -73 -11t-59.5 -30.5t-40.5 -47t-15 -61.5q0 -56 39 -88.5t126 -52.5l73 -16q107 -24 154 -66.5t47 -113.5q0 -44 -17 -80t-48.5 -61.5t-76 -39t-98.5 -13.5q-53 0 -97.5 14t-77.5 39.5t-53 60.5t-23 77h38z" />
    <glyph glyph-name="T" unicode="T" horiz-adv-x="549" 
d="M530 666h-236v-666h-39v666h-236v34h511v-34z" />
    <glyph glyph-name="U" unicode="U" horiz-adv-x="647" 
d="M103 248q0 -49 15 -89.5t43.5 -69.5t69.5 -44.5t93 -15.5q51 0 92 15.5t69.5 44.5t44 69.5t15.5 89.5v452h38v-453q0 -57 -18 -104t-51.5 -80.5t-81.5 -52t-108 -18.5t-108.5 18.5t-82 52t-51.5 80.5t-18 104v453h39v-452z" />
    <glyph glyph-name="V" unicode="V" horiz-adv-x="604" 
d="M283 0l-273 700h41l249 -650h3l250 650h41l-273 -700h-38z" />
    <glyph glyph-name="W" unicode="W" horiz-adv-x="894" 
d="M23 700h41l172 -635h2l191 635h35l191 -635h2l173 635h41l-197 -700h-34l-192 629h-3l-191 -629h-34z" />
    <glyph glyph-name="X" unicode="X" horiz-adv-x="610" 
d="M279 351l-249 349h47l228 -326h1l229 326h47l-249 -349l249 -351h-45l-231 323h-1l-232 -323h-45z" />
    <glyph glyph-name="Y" unicode="Y" horiz-adv-x="586" 
d="M311 340v-340h-39v342l-255 358h46l229 -325h2l229 325h46z" />
    <glyph glyph-name="Z" unicode="Z" horiz-adv-x="612" 
d="M554 35v-35h-496v30l442 633v2h-427v35h479v-30l-441 -633v-2h443z" />
    <glyph glyph-name="bracketleft" unicode="[" horiz-adv-x="329" 
d="M152 704v-752h140v-34h-180v822h180v-36h-140z" />
    <glyph glyph-name="backslash" unicode="\" horiz-adv-x="351" 
d="M348 0h-41l-274 700h41z" />
    <glyph glyph-name="bracketright" unicode="]" horiz-adv-x="329" 
d="M37 740h180v-822h-180v34h141v752h-141v36z" />
    <glyph glyph-name="asciicircum" unicode="^" horiz-adv-x="373" 
d="M336 505h-42l-107 160h-3l-106 -160h-41l128 195h41z" />
    <glyph glyph-name="underscore" unicode="_" horiz-adv-x="582" 
d="M545 -82h-508v36h508v-36z" />
    <glyph glyph-name="grave" unicode="`" horiz-adv-x="209" 
d="M172 485h-39l-110 215h54z" />
    <glyph glyph-name="a" unicode="a" horiz-adv-x="497" 
d="M257 513q83 0 131.5 -48t48.5 -127v-338h-37v111h-1q-10 -28 -30 -50t-45.5 -37.5t-56 -23.5t-62.5 -8q-74 0 -116 41t-42 105q0 131 178 146l174 12v40q0 66 -38 104.5t-104 38.5q-67 0 -106.5 -32.5t-50.5 -90.5h-36q8 70 58.5 113.5t134.5 43.5zM399 265l-169 -13
q-72 -5 -109 -34t-37 -80q0 -48 34 -80.5t92 -32.5q38 0 72 14.5t60 39t41.5 56.5t15.5 67v63z" />
    <glyph glyph-name="b" unicode="b" horiz-adv-x="549" 
d="M288 513q47 0 86.5 -19t68 -53t44 -82t15.5 -107q0 -58 -15.5 -106t-44 -82t-68 -53t-86.5 -19q-68 0 -119 36t-70 102h-2v-130h-37v700h39v-323h1q18 65 68.5 100.5t119.5 35.5zM281 26q41 0 74.5 16.5t57.5 46t37 71t13 92.5t-13 93t-37 71.5t-57.5 46t-74.5 16.5
q-40 0 -73 -17t-57 -47t-37 -71.5t-13 -91.5t13 -91.5t37 -71.5t57 -46.5t73 -16.5z" />
    <glyph glyph-name="c" unicode="c" horiz-adv-x="519" 
d="M273 26q64 0 108 32.5t56 86.5h38q-6 -34 -23.5 -62t-43.5 -48t-60.5 -31.5t-74.5 -11.5q-51 0 -92 18t-70 51.5t-44.5 82t-15.5 108.5t15.5 108.5t44.5 82t70 52t92 18.5q41 0 75 -12t60.5 -33t43.5 -50t23 -62h-37q-12 54 -56 88.5t-109 34.5q-42 0 -76 -16t-58 -45
t-37 -71t-13 -95q0 -52 13 -94t37 -71t58 -45t76 -16z" />
    <glyph glyph-name="d" unicode="d" horiz-adv-x="548" 
d="M487 700v-700h-35v130h-1q-21 -66 -71.5 -102t-118.5 -36q-47 0 -86.5 19t-68 53t-44 82t-15.5 106q0 59 15.5 107t44 82t68 53t86.5 19q68 0 118 -35.5t70 -100.5h2v323h36zM268 26q40 0 73 16.5t57 46.5t37 71.5t13 91.5t-13 91.5t-37 71.5t-57 47t-73 17
q-41 0 -74.5 -16.5t-57.5 -46t-37.5 -71.5t-13.5 -93t13.5 -92.5t37.5 -71t57.5 -46t74.5 -16.5z" />
    <glyph glyph-name="e" unicode="e" horiz-adv-x="535" 
d="M89 246q0 -104 50 -162.5t136 -58.5q69 0 109 32.5t57 87.5h37q-23 -75 -71 -114t-132 -39q-104 0 -164 68.5t-60 191.5q0 59 15.5 107t44 82.5t69 53t90.5 18.5q49 0 88.5 -17.5t67.5 -50t43.5 -77.5t15.5 -101v-21h-396zM269 479q-39 0 -71 -14.5t-55.5 -41t-37 -63.5
t-15.5 -82h358q0 45 -13 82t-36.5 63.5t-56.5 41t-73 14.5z" />
    <glyph glyph-name="f" unicode="f" horiz-adv-x="306" 
d="M303 669q-15 2 -29 3t-27 1q-19 0 -34 -4t-26 -14.5t-17 -29t-6 -48.5v-72h106v-32h-106v-473h-38v473h-89v32h89v72q0 70 31 99.5t87 29.5q28 0 59 -6v-31z" />
    <glyph glyph-name="g" unicode="g" horiz-adv-x="547" 
d="M487 505v-498q0 -49 -16 -85t-44.5 -59t-67 -34.5t-83.5 -11.5q-36 0 -69 7t-60 22.5t-47 41t-32 62.5h39q11 -32 28.5 -51t40 -30t48.5 -14.5t52 -3.5q35 0 66.5 8t55.5 27t38.5 50t14.5 76v116h-2q-18 -65 -69 -99t-119 -34q-47 0 -86.5 18.5t-68 52t-44 80.5
t-15.5 105q0 59 15.5 107t44 82.5t68 53.5t86.5 19q68 0 119 -36t71 -102h1v130h35zM268 29q40 0 73 16t57 45.5t37 70.5t13 91t-13 91.5t-36.5 71.5t-56.5 47t-74 17q-40 0 -74 -16.5t-58 -46.5t-37.5 -72t-13.5 -93q0 -50 13.5 -91t37.5 -70t58 -45t74 -16z" />
    <glyph glyph-name="h" unicode="h" horiz-adv-x="527" 
d="M277 513q44 0 79.5 -12t60 -37.5t37.5 -66t13 -98.5v-299h-37v299q0 94 -38 137t-119 43q-40 0 -72 -17t-54.5 -47t-35 -71.5t-12.5 -91.5v-252h-39v700h39v-323h1q18 65 65 100.5t112 35.5z" />
    <glyph glyph-name="i" unicode="i" horiz-adv-x="213" 
d="M107 674q12 0 21.5 -9t9.5 -22q0 -14 -9.5 -23t-21.5 -9q-14 0 -23 9t-9 23q0 13 9 22t23 9zM88 505h36v-505h-36v505z" />
    <glyph glyph-name="j" unicode="j" horiz-adv-x="217" 
d="M112 674q13 0 22.5 -9t9.5 -22q0 -14 -9.5 -23t-22.5 -9q-14 0 -22.5 9t-8.5 23q0 13 8.5 22t22.5 9zM92 505h38v-558q0 -36 -9 -60.5t-25 -40t-38 -22t-49 -6.5t-55 6v31q15 -2 29 -3t26 -1q19 0 34 4t26 14.5t17 29t6 48.5v558z" />
    <glyph glyph-name="k" unicode="k" horiz-adv-x="470" 
d="M437 0h-45l-150 228q-26 39 -67 45l-76 -70v-203h-39v700h39v-452l281 257h53l-232 -208q23 -4 42 -17.5t32 -32.5z" />
    <glyph glyph-name="l" unicode="l" horiz-adv-x="250" 
d="M78 700h38v-573q0 -29 4 -47.5t12.5 -29t21.5 -14.5t31 -4q19 0 46 3v-31q-14 -2 -27.5 -3.5t-24.5 -1.5q-50 0 -75.5 28.5t-25.5 99.5v573z" />
    <glyph glyph-name="m" unicode="m" horiz-adv-x="785" 
d="M562 516q36 0 66 -12.5t51.5 -35.5t33.5 -55.5t12 -71.5v-341h-38v333q0 68 -35.5 108.5t-98.5 40.5q-32 0 -58 -13.5t-45 -37t-29 -55.5t-10 -68v-308h-37v334q0 33 -10 60.5t-27.5 47t-41.5 30t-53 10.5q-32 0 -58.5 -14t-45 -38.5t-29 -58.5t-10.5 -75v-296h-39v505
h36v-107h1q14 51 53 84.5t99 33.5q58 0 96 -34t55 -86h1q7 24 21 46t35 38.5t47.5 26t57.5 9.5z" />
    <glyph glyph-name="n" unicode="n" horiz-adv-x="527" 
d="M277 513q44 0 79.5 -12t60 -37.5t37.5 -66t13 -98.5v-299h-37v299q0 94 -38 137t-119 43q-40 0 -72 -17t-54.5 -47t-35 -71.5t-12.5 -91.5v-252h-39v505h39v-128h1q18 65 65 100.5t112 35.5z" />
    <glyph glyph-name="o" unicode="o" horiz-adv-x="530" 
d="M265 513q50 0 91.5 -18t71 -52t45.5 -82.5t16 -108.5t-16 -108t-45.5 -81.5t-71 -52t-91.5 -18.5t-91.5 18.5t-71 52t-45.5 81.5t-16 108t16 108.5t45.5 82.5t71 52t91.5 18zM265 26q42 0 76.5 16t59 45t38 71t13.5 94q0 53 -13.5 95t-38 71.5t-59 45t-76.5 15.5
t-76.5 -15.5t-58.5 -45t-37.5 -71.5t-13.5 -95q0 -106 50.5 -166t135.5 -60z" />
    <glyph glyph-name="p" unicode="p" horiz-adv-x="548" 
d="M96 505v-130h1q20 66 71 102t119 36q47 0 86 -19t67.5 -53t44.5 -82t16 -107q0 -58 -16 -106t-44.5 -82t-67.5 -53t-86 -19q-68 0 -119 35.5t-69 100.5h-2v-305h-37v682h36zM100 254q0 -50 13 -92t37 -72t57 -47t73 -17q41 0 74.5 16.5t57.5 46t37.5 71t13.5 92.5
t-13.5 93t-37.5 72t-57.5 46.5t-74.5 16.5q-40 0 -73 -16.5t-57 -46.5t-37 -71.5t-13 -91.5z" />
    <glyph glyph-name="q" unicode="q" horiz-adv-x="547" 
d="M487 -177h-36v305h-2q-18 -65 -69 -100.5t-119 -35.5q-47 0 -86.5 19t-68 53t-44 82t-15.5 106q0 59 15.5 107t44 82t68 53t86.5 19q68 0 118.5 -36t71.5 -102h1v130h35v-682zM448 254q0 50 -13 91.5t-37 71.5t-57 46.5t-73 16.5q-41 0 -74.5 -16.5t-57.5 -46.5
t-37.5 -72t-13.5 -93t13.5 -92.5t37.5 -71t57.5 -46t74.5 -16.5q40 0 73 17t57 47t37 72t13 92z" />
    <glyph glyph-name="r" unicode="r" horiz-adv-x="312" 
d="M99 390q15 54 53 87t97 33q11 0 22.5 -1.5t23.5 -3.5v-34q-11 3 -21 4t-20 1q-35 0 -64 -16t-49.5 -44t-32 -66.5t-11.5 -82.5v-267h-37v505h37v-115h2z" />
    <glyph glyph-name="s" unicode="s" horiz-adv-x="463" 
d="M265 265q78 -19 114.5 -49.5t36.5 -81.5q0 -32 -13.5 -58.5t-37.5 -45t-57 -28.5t-73 -10q-32 0 -64.5 9.5t-58.5 28t-44 47t-21 66.5h35q3 -26 16.5 -47.5t34 -37.5t47 -24.5t56.5 -8.5q64 0 104 29t40 77q0 38 -30.5 61.5t-94.5 38.5l-53 12q-75 17 -110.5 47t-35.5 81
q0 30 13.5 55t37.5 43.5t55.5 29t67.5 10.5q32 0 62.5 -9t55 -28t40.5 -48t19 -68h-37q-5 58 -43.5 89t-98.5 31q-28 0 -53 -8t-43.5 -22t-29 -32.5t-10.5 -40.5q0 -38 29 -60t91 -36z" />
    <glyph glyph-name="t" unicode="t" horiz-adv-x="309" 
d="M236 31q11 0 20 1t23 3v-31q-14 -4 -24 -5.5t-23 -1.5q-59 0 -82.5 30t-23.5 100v346h-89v32h89v145h38v-145h108v-32h-108v-346q0 -52 13.5 -74t58.5 -22z" />
    <glyph glyph-name="u" unicode="u" horiz-adv-x="527" 
d="M99 505v-299q0 -94 37 -137t119 -43q40 0 72.5 16.5t55 46.5t34.5 71.5t12 91.5v253h38v-505h-37v127h-1q-19 -64 -66.5 -99.5t-111.5 -35.5q-44 0 -79.5 11.5t-60 37t-38 66.5t-13.5 99v299h39z" />
    <glyph glyph-name="v" unicode="v" horiz-adv-x="459" 
d="M253 0h-45l-191 505h39l174 -468h1l172 468h39z" />
    <glyph glyph-name="w" unicode="w" horiz-adv-x="702" 
d="M534 0h-44l-138 456h-2l-137 -456h-45l-145 505h40l127 -464h1l138 464h44l138 -464h1l127 464h40z" />
    <glyph glyph-name="x" unicode="x" horiz-adv-x="482" 
d="M214 257l-180 248h44l161 -224h1l164 224h44l-183 -248l183 -257h-44l-164 232h-1l-161 -232h-44z" />
    <glyph glyph-name="y" unicode="y" horiz-adv-x="465" 
d="M446 505q-47 -124 -89 -236q-18 -48 -37 -97.5t-36 -95.5t-32 -85.5t-25 -66.5q-13 -33 -26.5 -53.5t-31 -31.5t-39.5 -15t-51 -4q-12 0 -22 1t-24 6v31q14 -2 23 -3t19 -1q20 0 36.5 0.5t30 7.5t25.5 22t24 44l25 65l-197 512h41l172 -470h2l172 470h40z" />
    <glyph glyph-name="z" unicode="z" horiz-adv-x="483" 
d="M58 30l323 441v2h-322v32h364v-32l-323 -440v-2h325v-31h-367v30z" />
    <glyph glyph-name="braceleft" unicode="{" horiz-adv-x="362" 
d="M193 458q0 -55 -26 -87.5t-68 -41.5v-2q42 -10 68 -41t26 -88v-168q0 -48 24.5 -63t66.5 -15h41v-34h-40q-29 0 -53 5.5t-41.5 19t-27.5 36t-10 56.5v170q0 47 -25.5 75t-76.5 32v33q51 5 76.5 32.5t25.5 75.5v168q0 34 10 57t27.5 36.5t41.5 19.5t53 6h40v-36h-41
q-42 0 -66.5 -15t-24.5 -63v-168z" />
    <glyph glyph-name="bar" unicode="|" horiz-adv-x="262" 
d="M150 798v-902h-38v902h38z" />
    <glyph glyph-name="braceright" unicode="}" horiz-adv-x="362" 
d="M169 626q0 48 -24.5 63t-66.5 15h-41v36h40q29 0 53 -6t41.5 -19.5t27.5 -36.5t10 -57v-168q0 -48 25.5 -75.5t76.5 -32.5v-33q-51 -4 -76.5 -32t-25.5 -75v-170q0 -34 -10 -56.5t-27.5 -36t-41.5 -19t-53 -5.5h-40v34h41q42 0 66.5 15t24.5 63v168q0 57 26.5 88t68.5 41
v2q-42 9 -68.5 41.5t-26.5 87.5v168z" />
    <glyph glyph-name="asciitilde" unicode="~" horiz-adv-x="563" 
d="M172 356q-35 0 -56.5 -28.5t-22.5 -77.5h-35q0 68 32.5 105t81.5 37q34 0 60.5 -18t51 -39t49 -39t52.5 -18q35 0 59 31.5t26 80.5h35q0 -33 -9.5 -60t-26 -46.5t-38.5 -30t-46 -10.5q-35 0 -62.5 17.5t-52.5 39t-48.5 39t-49.5 17.5z" />
    <glyph glyph-name="uni00A0" unicode="&#xa0;" horiz-adv-x="300" 
 />
    <glyph glyph-name="exclamdown" unicode="&#xa1;" horiz-adv-x="220" 
d="M109 495q-15 0 -26.5 11.5t-11.5 27.5t11.5 27.5t26.5 11.5q17 0 28.5 -11.5t11.5 -27.5t-11.5 -27.5t-28.5 -11.5zM90 188l3 186h34l3 -186v-316h-40v316z" />
    <glyph glyph-name="cent" unicode="&#xa2;" horiz-adv-x="519" 
d="M292 609v-97q36 -3 67 -16t55 -33.5t39.5 -48t21.5 -58.5h-37q-12 54 -56 88.5t-109 34.5q-42 0 -76 -16t-58 -45t-37 -71t-13 -95q0 -52 13 -94t37 -71t58 -45t76 -16q64 0 108 32.5t56 86.5h38q-12 -64 -61 -105.5t-122 -46.5v-97h-38v97q-46 3 -84 22t-64 52.5
t-40.5 80t-14.5 104.5q0 57 14.5 103.5t40.5 80.5t64 53.5t84 22.5v97h38z" />
    <glyph glyph-name="sterling" unicode="&#xa3;" horiz-adv-x="579" 
d="M71 330h94q-6 26 -18 53t-23 54.5t-19.5 55.5t-8.5 55q0 32 12.5 60.5t37.5 51t61.5 35.5t84.5 13q51 0 91 -15.5t67.5 -42.5t42 -64t15.5 -81h-38q-1 36 -12.5 66.5t-33.5 53t-55 35.5t-76 13q-40 0 -70 -11t-49.5 -29t-29.5 -40.5t-10 -46.5q0 -25 9 -51.5t21 -54
t24 -55.5t18 -55h249v-35h-245q0 -47 -7 -82t-19.5 -64t-30 -55t-39.5 -56v-3h414v-35h-464v29q20 31 39.5 57.5t34.5 55.5t24.5 65.5t9.5 87.5h-101v35z" />
    <glyph glyph-name="currency" unicode="&#xa4;" horiz-adv-x="513" 
d="M70 318q0 33 11 62t31 54l-54 54l27 28l54 -55q24 20 54 31.5t62 11.5q33 0 62.5 -11.5t53.5 -31.5l55 55l29 -28l-56 -54q20 -25 31 -54t11 -62t-11 -63t-31 -53l56 -55l-29 -28l-55 54q-24 -20 -53.5 -30.5t-62.5 -10.5q-66 0 -116 41l-54 -54l-27 28l54 55
q-20 23 -31 53t-11 63zM107 318q0 -30 12 -57.5t32 -47.5t47 -32t57 -12t57.5 12t47.5 32t32 47.5t12 57.5t-12 57t-32 47.5t-47.5 32.5t-57.5 12t-57 -12t-47 -32.5t-32 -47.5t-12 -57z" />
    <glyph glyph-name="yen" unicode="&#xa5;" horiz-adv-x="586" 
d="M272 177h-183v34h183v116h-183v35h169l-241 338h46l229 -325h2l229 325h46l-243 -338h170v-35h-185v-116h185v-34h-185v-177h-39v177z" />
    <glyph glyph-name="brokenbar" unicode="&#xa6;" horiz-adv-x="262" 
d="M112 798h38v-310h-38v310zM112 206h38v-310h-38v310z" />
    <glyph glyph-name="section" unicode="&#xa7;" horiz-adv-x="482" 
d="M208 183q-87 20 -127 53.5t-40 90.5q0 25 9.5 47.5t26.5 41t39.5 32t47.5 20.5q-56 14 -88.5 48t-32.5 79q0 32 16 57.5t43 43t63 26.5t75 9q35 0 70 -7.5t63.5 -25.5t47.5 -47.5t21 -73.5h-39q-3 32 -17 54.5t-35.5 36.5t-50 20.5t-61.5 6.5q-32 0 -60.5 -6.5t-50.5 -19
t-34.5 -31t-12.5 -42.5q0 -41 33.5 -65t101.5 -40l59 -13q86 -21 126 -54.5t40 -90.5q0 -25 -10.5 -48.5t-27.5 -42t-40 -32t-48 -19.5q56 -17 90.5 -48.5t34.5 -77.5q0 -32 -16 -57t-43.5 -42.5t-63.5 -27t-75 -9.5q-35 0 -70 7.5t-63.5 25.5t-47 47.5t-21.5 72.5h39
q3 -31 17 -53t36 -36t50 -20.5t61 -6.5q32 0 60.5 6.5t50.5 18.5t34.5 30.5t12.5 42.5q0 42 -33.5 66t-101.5 39zM265 439q-45 6 -79.5 -0.5t-57.5 -22t-35 -38t-12 -48.5q0 -42 32.5 -70t103.5 -39q45 -6 79.5 0.5t57.5 22t35 38t12 48.5q0 42 -32.5 71t-103.5 38z" />
    <glyph glyph-name="dieresis" unicode="&#xa8;" horiz-adv-x="423" 
d="M71 644q0 16 11.5 27t28.5 11q15 0 26.5 -11t11.5 -27q0 -17 -11.5 -28.5t-26.5 -11.5q-17 0 -28.5 11.5t-11.5 28.5zM275 644q0 16 11 27t28 11q16 0 27 -11t11 -27q0 -17 -11 -28.5t-27 -11.5q-17 0 -28 11.5t-11 28.5z" />
    <glyph glyph-name="copyright" unicode="&#xa9;" horiz-adv-x="844" 
d="M44 342q0 78 29.5 147t81 120.5t120.5 81t147 29.5t147 -29.5t120.5 -81t81 -120.5t29.5 -147t-29.5 -146.5t-81 -120t-120.5 -81t-147 -29.5t-147 29.5t-120.5 81t-81 120t-29.5 146.5zM79 342q0 -71 27 -133t73.5 -108.5t109 -73.5t133.5 -27t134 27t109.5 73.5
t73.5 108.5t27 133t-27 134t-73.5 109.5t-109.5 73.5t-134 27t-133.5 -27t-109 -73.5t-73.5 -109.5t-27 -134zM429 166q48 0 81 23.5t44 65.5h37q-12 -56 -54.5 -88t-107.5 -32q-87 0 -135.5 58t-48.5 159q0 99 48.5 156t135.5 57q62 0 106 -35t56 -91h-37
q-11 42 -44.5 68.5t-80.5 26.5q-70 0 -109 -48.5t-39 -133.5q0 -88 39.5 -137t108.5 -49z" />
    <glyph glyph-name="ordfeminine" unicode="&#xaa;" horiz-adv-x="361" 
d="M190 708q53 0 83 -28.5t30 -76.5v-203h-34v63q-12 -32 -44.5 -49.5t-70.5 -17.5q-44 0 -70 24.5t-26 62.5q0 82 110 90l100 7v20q0 38 -20.5 59t-58.5 21t-60 -17.5t-28 -48.5h-33q5 42 37 68t85 26zM268 555l-94 -6q-82 -8 -82 -65q0 -26 19.5 -44t51.5 -18q21 0 40 8
t33.5 21.5t23 31.5t8.5 37v35z" />
    <glyph glyph-name="guillemotleft" unicode="&#xab;" horiz-adv-x="914" 
d="M58 295v45l450 273v-41l-415 -254v-1l415 -254v-40zM406 295v45l450 273v-41l-415 -254v-1l415 -254v-40z" />
    <glyph glyph-name="logicalnot" unicode="&#xac;" horiz-adv-x="476" 
d="M58 334h360v-176h-34v142h-326v34z" />
    <glyph glyph-name="registered" unicode="&#xae;" horiz-adv-x="844" 
d="M44 342q0 78 29.5 147t81 120.5t120.5 81t147 29.5t147 -29.5t120.5 -81t81 -120.5t29.5 -147t-29.5 -146.5t-81 -120t-120.5 -81t-147 -29.5t-147 29.5t-120.5 81t-81 120t-29.5 146.5zM79 342q0 -71 27 -133t73.5 -108.5t109 -73.5t133.5 -27t134 27t109.5 73.5
t73.5 108.5t27 133t-27 134t-73.5 109.5t-109.5 73.5t-134 27t-133.5 -27t-109 -73.5t-73.5 -109.5t-27 -134zM541 141l-110 193h-106v-193h-37v418h153q63 0 97 -26.5t34 -84.5q0 -49 -26 -77t-80 -33l114 -197h-39zM325 363h111q49 0 75.5 20t26.5 65t-26.5 63t-75.5 18
h-111v-166z" />
    <glyph glyph-name="macron" unicode="&#xaf;" horiz-adv-x="582" 
d="M545 756h-508v35h508v-35z" />
    <glyph glyph-name="degree" unicode="&#xb0;" horiz-adv-x="400" 
d="M201 426q-67 0 -107.5 38.5t-40.5 101.5t39.5 102.5t108.5 39.5q33 0 59.5 -10.5t46 -29t30 -44.5t10.5 -58q0 -63 -40 -101.5t-106 -38.5zM201 458q57 0 83 30t26 78q0 52 -27.5 82t-81.5 30q-57 0 -83.5 -30t-26.5 -82q0 -48 26.5 -78t83.5 -30z" />
    <glyph glyph-name="plusminus" unicode="&#xb1;" horiz-adv-x="558" 
d="M260 300h-202v34h202v190h39v-190h201v-34h-201v-189h-39v189zM58 34h442v-34h-442v34z" />
    <glyph glyph-name="twosuperior" unicode="&#xb2;" horiz-adv-x="387" 
d="M329 396v-30h-270v23l150 154q24 24 39.5 42t25 32.5t13.5 27t4 26.5q0 38 -26 63.5t-72 25.5q-50 0 -75.5 -27.5t-25.5 -67.5h-34q1 52 35.5 88.5t99.5 36.5q63 0 97.5 -34t34.5 -83q0 -17 -4.5 -32.5t-15.5 -33t-28.5 -38.5t-44.5 -48l-121 -124v-1h218z" />
    <glyph glyph-name="threesuperior" unicode="&#xb3;" horiz-adv-x="406" 
d="M246 576q46 -5 74 -30t28 -70q0 -49 -38 -82.5t-111 -33.5q-34 0 -60.5 10.5t-44 28t-27 40t-9.5 47.5h34q0 -18 7.5 -35t21.5 -30.5t33.5 -22t44.5 -8.5q54 0 84 25t30 63q0 42 -33 62.5t-87 20.5h-36v28h36q44 0 74.5 24t30.5 64q0 38 -27 60.5t-72 22.5t-71.5 -27.5
t-27.5 -67.5h-33q0 26 9.5 49t26.5 40t41.5 26.5t54.5 9.5q63 0 98 -30.5t35 -78.5q0 -43 -23 -69t-63 -33v-3z" />
    <glyph glyph-name="acute" unicode="&#xb4;" horiz-adv-x="298" 
d="M71 580l103 198h53l-116 -198h-40z" />
    <glyph glyph-name="paragraph" unicode="&#xb6;" horiz-adv-x="605" 
d="M507 0h-36v666h-130v-666h-35v306q-14 -5 -32 -7.5t-34 -2.5q-42 0 -77 9.5t-60 32.5t-38.5 61.5t-13.5 95.5q0 62 14.5 101.5t41.5 62.5t64.5 32t82.5 9h253v-700z" />
    <glyph glyph-name="periodcentered" unicode="&#xb7;" horiz-adv-x="286" 
d="M85 317q0 23 17 40t42 17q23 0 40 -17t17 -40q0 -25 -17 -42t-40 -17q-25 0 -42 17t-17 42z" />
    <glyph glyph-name="cedilla" unicode="&#xb8;" horiz-adv-x="298" 
d="M71 -276l103 178h53l-116 -178h-40z" />
    <glyph glyph-name="onesuperior" unicode="&#xb9;" horiz-adv-x="259" 
d="M171 782h30v-419h-36v385l-107 -58v33z" />
    <glyph glyph-name="ordmasculine" unicode="&#xba;" horiz-adv-x="434" 
d="M58 577q0 100 43.5 156.5t115.5 56.5q71 0 115 -56.5t44 -156.5q0 -101 -44 -158t-115 -57q-72 0 -115.5 57t-43.5 158zM94 577q0 -88 34 -136.5t89 -48.5t89 48.5t34 136.5q0 87 -34 135t-89 48t-89 -48t-34 -135z" />
    <glyph glyph-name="guillemotright" unicode="&#xbb;" horiz-adv-x="914" 
d="M856 295l-450 -272v40l414 254v1l-414 254v41l450 -273v-45zM508 295l-450 -272v40l414 254v1l-414 254v41l450 -273v-45z" />
    <glyph glyph-name="onequarter" unicode="&#xbc;" horiz-adv-x="703" 
d="M440 700h41l-253 -700h-42zM30 641l114 59h30v-419h-36v385l-108 -58v33zM367 112l213 307h32v-303h61v-30h-60v-86h-37v86h-209v26zM577 116v246l-170 -246h170z" />
    <glyph glyph-name="onehalf" unicode="&#xbd;" horiz-adv-x="774" 
d="M481 700l-253 -700h-42l254 700h41zM174 700v-419h-36v385l-108 -58v33l114 59h30zM723 30v-30h-270v23l150 154q24 24 39.5 42t25 33t13.5 27.5t4 26.5q0 38 -26 63t-72 25q-49 0 -75 -27.5t-26 -67.5h-34q1 52 35.5 88.5t99.5 36.5q63 0 97.5 -33.5t34.5 -83.5
q0 -17 -4.5 -32.5t-15 -33t-28 -38t-44.5 -47.5l-122 -125v-1h218z" />
    <glyph glyph-name="threequarters" unicode="&#xbe;" horiz-adv-x="804" 
d="M239 494q46 -5 74 -30t28 -70q0 -49 -37.5 -82.5t-110.5 -33.5q-35 0 -61.5 10.5t-44 28t-27 40t-9.5 47.5h34q0 -18 7.5 -35t21.5 -30.5t34 -22t45 -8.5q54 0 83.5 25t29.5 63q0 42 -33 62.5t-87 20.5h-36v29h36q45 0 75 23.5t30 63.5q0 38 -27 60.5t-71 22.5
q-45 0 -72 -27.5t-28 -67.5h-33q2 54 36.5 89.5t96.5 35.5q63 0 97.5 -30.5t34.5 -78.5q0 -43 -23 -69t-63 -33v-3zM582 700l-253 -700h-42l254 700h41zM468 112l213 307h32v-303h61v-30h-60v-86h-37v86h-209v26zM678 116v246l-170 -246h170z" />
    <glyph glyph-name="questiondown" unicode="&#xbf;" horiz-adv-x="499" 
d="M240 495q-15 0 -26.5 11.5t-11.5 27.5t11.5 27.5t26.5 11.5q17 0 28.5 -11.5t11.5 -27.5t-11.5 -27.5t-28.5 -11.5zM258 -135q-102 0 -151 44t-49 122q0 35 12 58t30 41t39.5 34.5t39.5 39t30 55t12 81.5v34h40v-34q0 -50 -12 -84.5t-30.5 -59t-39.5 -42t-39.5 -35
t-30.5 -37.5t-12 -49q0 -64 41 -98.5t120 -34.5q36 0 63 13t45 35.5t27.5 53t10.5 66.5h37q-1 -43 -14 -80.5t-36.5 -64.5t-57 -42.5t-75.5 -15.5z" />
    <glyph glyph-name="Agrave" unicode="&#xc0;" horiz-adv-x="604" 
d="M247 955l103 -177h-40l-116 177h53zM283 700h38l273 -700h-41l-77 199h-349l-76 -199h-41zM463 233l-160 417h-3l-159 -417h322z" />
    <glyph glyph-name="Aacute" unicode="&#xc1;" horiz-adv-x="604" 
d="M287 778h-40l103 177h53zM283 700h38l273 -700h-41l-77 199h-349l-76 -199h-41zM463 233l-160 417h-3l-159 -417h322z" />
    <glyph glyph-name="Acircumflex" unicode="&#xc2;" horiz-adv-x="604" 
d="M452 759h-42l-107 162h-3l-106 -162h-41l128 196h41zM283 700h38l273 -700h-41l-77 199h-349l-76 -199h-41zM463 233l-160 417h-3l-159 -417h322z" />
    <glyph glyph-name="Atilde" unicode="&#xc3;" horiz-adv-x="604" 
d="M213 879q-31 0 -50 -25.5t-21 -70.5h-31q0 62 28.5 95t73.5 33q30 0 54.5 -16t46 -35t43.5 -35t47 -16q32 0 53.5 28t23.5 73h31q0 -30 -9 -54t-24 -41.5t-34.5 -27t-40.5 -9.5q-31 0 -56 16t-47 34.5t-43 34.5t-45 16zM283 700h38l273 -700h-41l-77 199h-349l-76 -199
h-41zM463 233l-160 417h-3l-159 -417h322z" />
    <glyph glyph-name="Adieresis" unicode="&#xc4;" horiz-adv-x="604" 
d="M160 862q0 16 11.5 27.5t27.5 11.5t27.5 -11.5t11.5 -27.5t-11.5 -27.5t-27.5 -11.5t-27.5 11.5t-11.5 27.5zM363 862q0 16 11.5 27.5t28.5 11.5q15 0 26.5 -11.5t11.5 -27.5t-11.5 -27.5t-26.5 -11.5q-17 0 -28.5 11.5t-11.5 27.5zM283 700h38l273 -700h-41l-77 199
h-349l-76 -199h-41zM463 233l-160 417h-3l-159 -417h322z" />
    <glyph glyph-name="Aring" unicode="&#xc5;" horiz-adv-x="604" 
d="M272 671q-31 10 -51 34.5t-20 58.5q0 21 8 39t22 31t32 20.5t39 7.5q20 0 38 -7.5t31.5 -20.5t21.5 -31t8 -39q0 -33 -20 -58t-49 -35l262 -671h-41l-77 199h-349l-76 -199h-41zM302 701q26 0 45 18.5t19 44.5q0 28 -19 46t-45 18q-27 0 -45.5 -18t-18.5 -46
q0 -26 18.5 -44.5t45.5 -18.5zM463 233l-160 417h-3l-159 -417h322z" />
    <glyph glyph-name="AE" unicode="&#xc6;" horiz-adv-x="956" 
d="M512 666v-299h340v-34h-340v-299h386v-34h-426v199h-286l-135 -199h-41l462 700h426v-34h-386zM472 233v393l-263 -393h263z" />
    <glyph glyph-name="Ccedilla" unicode="&#xc7;" horiz-adv-x="657" 
d="M351 29q85 0 143.5 40.5t78.5 113.5h40q-20 -89 -89 -140t-173 -51q-70 0 -126 25t-94.5 72.5t-59 114.5t-20.5 151q0 81 20.5 146.5t59 111.5t94.5 70.5t126 24.5q50 0 93 -15t77.5 -42t58 -64t33.5 -82h-40q-10 37 -30.5 67.5t-49 53t-65 35t-77.5 12.5
q-62 0 -110.5 -22t-82 -63.5t-51 -100t-17.5 -132.5q0 -76 17.5 -136.5t51.5 -102.5t82.5 -64.5t109.5 -22.5zM300 -276h-39l102 178h53z" />
    <glyph glyph-name="Egrave" unicode="&#xc8;" horiz-adv-x="548" 
d="M224 955l102 -177h-39l-116 177h53zM104 666v-299h340v-34h-340v-299h386v-34h-426v700h426v-34h-386z" />
    <glyph glyph-name="Eacute" unicode="&#xc9;" horiz-adv-x="548" 
d="M287 778h-40l103 177h53zM104 666v-299h340v-34h-340v-299h386v-34h-426v700h426v-34h-386z" />
    <glyph glyph-name="Ecircumflex" unicode="&#xca;" horiz-adv-x="548" 
d="M425 759h-43l-106 162h-3l-106 -162h-41l128 196h41zM104 666v-299h340v-34h-340v-299h386v-34h-426v700h426v-34h-386z" />
    <glyph glyph-name="Edieresis" unicode="&#xcb;" horiz-adv-x="548" 
d="M135 862q0 16 11.5 27.5t28.5 11.5q15 0 26.5 -11.5t11.5 -27.5t-11.5 -27.5t-26.5 -11.5q-17 0 -28.5 11.5t-11.5 27.5zM339 862q0 16 11 27.5t28 11.5q16 0 27 -11.5t11 -27.5t-11 -27.5t-27 -11.5q-17 0 -28 11.5t-11 27.5zM104 666v-299h340v-34h-340v-299h386v-34
h-426v700h426v-34h-386z" />
    <glyph glyph-name="Igrave" unicode="&#xcc;" horiz-adv-x="180" 
d="M7 928l102 -178h-39l-116 178h53zM71 700h38v-700h-38v700z" />
    <glyph glyph-name="Iacute" unicode="&#xcd;" horiz-adv-x="180" 
d="M111 778h-40l103 177h53zM71 700h38v-700h-38v700z" />
    <glyph glyph-name="Icircumflex" unicode="&#xce;" horiz-adv-x="180" 
d="M239 759h-42l-107 162h-2l-107 -162h-41l128 196h41zM71 700h38v-700h-38v700z" />
    <glyph glyph-name="Idieresis" unicode="&#xcf;" horiz-adv-x="180" 
d="M153 862q0 16 11.5 27.5t28.5 11.5q15 0 26.5 -11.5t11.5 -27.5t-11.5 -27.5t-26.5 -11.5q-17 0 -28.5 11.5t-11.5 27.5zM-50 862q0 16 11.5 27.5t27.5 11.5t27.5 -11.5t11.5 -27.5t-11.5 -27.5t-27.5 -11.5t-27.5 11.5t-11.5 27.5zM71 700h38v-700h-38v700z" />
    <glyph glyph-name="Eth" unicode="&#xd0;" horiz-adv-x="740" 
d="M37 367h115v333h192q80 0 144 -23.5t108.5 -68t68.5 -109.5t24 -148q0 -84 -24.5 -149.5t-69.5 -110t-109.5 -68t-144.5 -23.5h-189v333h-115v34zM340 34q72 0 129.5 21t98 61.5t62 99t21.5 133.5q0 77 -21.5 136t-61 99t-96.5 61t-129 21h-152v-299h231v-34h-231v-299
h149z" />
    <glyph glyph-name="Ntilde" unicode="&#xd1;" horiz-adv-x="648" 
d="M156 783h-32q0 62 29 95t74 33q30 0 54 -16t46 -35t44 -35t47 -16q32 0 53 28t23 73h32q0 -30 -9 -54t-24 -41.5t-34.5 -27t-40.5 -9.5q-31 0 -56 16t-47 34.5t-43 34.5t-45 16q-31 0 -50.5 -25.5t-20.5 -70.5zM64 700h41l437 -630h3v630h39v-700h-38l-441 634h-2v-634
h-39v700z" />
    <glyph glyph-name="Ograve" unicode="&#xd2;" horiz-adv-x="702" 
d="M310 955l102 -177h-39l-116 177h53zM351 -8q-72 0 -128.5 24.5t-96.5 71t-61 113t-21 150.5q0 82 21 148t61 112.5t96.5 71.5t128.5 25t128.5 -25t96.5 -71.5t61 -112.5t21 -148q0 -84 -21 -150.5t-61 -113t-96.5 -71t-128.5 -24.5zM351 27q62 0 111.5 22.5t84 64.5
t53 102t18.5 135q0 74 -18.5 133.5t-53 101.5t-84 64.5t-111.5 22.5q-63 0 -112.5 -22.5t-84 -64.5t-52.5 -101.5t-18 -133.5q0 -75 18 -135t52.5 -102t84 -64.5t112.5 -22.5z" />
    <glyph glyph-name="Oacute" unicode="&#xd3;" horiz-adv-x="702" 
d="M341 778h-39l102 177h53zM351 -8q-72 0 -128.5 24.5t-96.5 71t-61 113t-21 150.5q0 82 21 148t61 112.5t96.5 71.5t128.5 25t128.5 -25t96.5 -71.5t61 -112.5t21 -148q0 -84 -21 -150.5t-61 -113t-96.5 -71t-128.5 -24.5zM351 27q62 0 111.5 22.5t84 64.5t53 102
t18.5 135q0 74 -18.5 133.5t-53 101.5t-84 64.5t-111.5 22.5q-63 0 -112.5 -22.5t-84 -64.5t-52.5 -101.5t-18 -133.5q0 -75 18 -135t52.5 -102t84 -64.5t112.5 -22.5z" />
    <glyph glyph-name="Ocircumflex" unicode="&#xd4;" horiz-adv-x="702" 
d="M500 759h-43l-106 162h-3l-106 -162h-41l128 196h41zM351 -8q-72 0 -128.5 24.5t-96.5 71t-61 113t-21 150.5q0 82 21 148t61 112.5t96.5 71.5t128.5 25t128.5 -25t96.5 -71.5t61 -112.5t21 -148q0 -84 -21 -150.5t-61 -113t-96.5 -71t-128.5 -24.5zM351 27
q62 0 111.5 22.5t84 64.5t53 102t18.5 135q0 74 -18.5 133.5t-53 101.5t-84 64.5t-111.5 22.5q-63 0 -112.5 -22.5t-84 -64.5t-52.5 -101.5t-18 -133.5q0 -75 18 -135t52.5 -102t84 -64.5t112.5 -22.5z" />
    <glyph glyph-name="Otilde" unicode="&#xd5;" horiz-adv-x="702" 
d="M191 783h-31q0 62 29 95t73 33q30 0 54.5 -16t46 -35t43.5 -35t47 -16q32 0 53.5 28t23.5 73h31q0 -30 -8.5 -54t-23.5 -41.5t-34.5 -27t-41.5 -9.5q-31 0 -56 16t-47 34.5t-43 34.5t-45 16q-31 0 -50 -25.5t-21 -70.5zM351 -8q-72 0 -128.5 24.5t-96.5 71t-61 113
t-21 150.5q0 82 21 148t61 112.5t96.5 71.5t128.5 25t128.5 -25t96.5 -71.5t61 -112.5t21 -148q0 -84 -21 -150.5t-61 -113t-96.5 -71t-128.5 -24.5zM351 27q62 0 111.5 22.5t84 64.5t53 102t18.5 135q0 74 -18.5 133.5t-53 101.5t-84 64.5t-111.5 22.5q-63 0 -112.5 -22.5
t-84 -64.5t-52.5 -101.5t-18 -133.5q0 -75 18 -135t52.5 -102t84 -64.5t112.5 -22.5z" />
    <glyph glyph-name="Odieresis" unicode="&#xd6;" horiz-adv-x="702" 
d="M209 862q0 16 11.5 27.5t28.5 11.5q15 0 26.5 -11.5t11.5 -27.5t-11.5 -27.5t-26.5 -11.5q-17 0 -28.5 11.5t-11.5 27.5zM412 862q0 16 11.5 27.5t28.5 11.5q15 0 26.5 -11.5t11.5 -27.5t-11.5 -27.5t-26.5 -11.5q-17 0 -28.5 11.5t-11.5 27.5zM351 -8q-72 0 -128.5 24.5
t-96.5 71t-61 113t-21 150.5q0 82 21 148t61 112.5t96.5 71.5t128.5 25t128.5 -25t96.5 -71.5t61 -112.5t21 -148q0 -84 -21 -150.5t-61 -113t-96.5 -71t-128.5 -24.5zM351 27q62 0 111.5 22.5t84 64.5t53 102t18.5 135q0 74 -18.5 133.5t-53 101.5t-84 64.5t-111.5 22.5
q-63 0 -112.5 -22.5t-84 -64.5t-52.5 -101.5t-18 -133.5q0 -75 18 -135t52.5 -102t84 -64.5t112.5 -22.5z" />
    <glyph glyph-name="multiply" unicode="&#xd7;" horiz-adv-x="513" 
d="M58 147l170 171l-170 170l27 28l170 -171l171 171l29 -28l-172 -170l172 -171l-29 -28l-171 172l-170 -172z" />
    <glyph glyph-name="Oslash" unicode="&#xd8;" horiz-adv-x="702" 
d="M351 708q72 0 128.5 -25t96.5 -71.5t61 -112.5t21 -148q0 -84 -21 -150.5t-61 -113t-96.5 -71t-128.5 -24.5t-128.5 24.5t-96.5 71t-61 113t-21 150.5q0 82 21 148t61 112.5t96.5 71.5t128.5 25zM84 351q0 -112 39 -188t111 -111l218 603q-23 8 -48 13t-53 5
q-63 0 -112.5 -22.5t-84 -64.5t-52.5 -101.5t-18 -133.5zM351 27q62 0 111.5 22.5t84 64.5t53 102t18.5 135q0 103 -34.5 176t-97.5 110l-216 -599q19 -6 39 -8.5t42 -2.5z" />
    <glyph glyph-name="Ugrave" unicode="&#xd9;" horiz-adv-x="647" 
d="M391 778h-40l-116 177h53zM103 248q0 -49 15 -89.5t43.5 -69.5t69.5 -44.5t93 -15.5q51 0 92 15.5t69.5 44.5t44 69.5t15.5 89.5v452h38v-453q0 -57 -18 -104t-51.5 -80.5t-81.5 -52t-108 -18.5t-108.5 18.5t-82 52t-51.5 80.5t-18 104v453h39v-452z" />
    <glyph glyph-name="Uacute" unicode="&#xda;" horiz-adv-x="647" 
d="M288 778l103 177h53l-116 -177h-40zM103 248q0 -49 15 -89.5t43.5 -69.5t69.5 -44.5t93 -15.5q51 0 92 15.5t69.5 44.5t44 69.5t15.5 89.5v452h38v-453q0 -57 -18 -104t-51.5 -80.5t-81.5 -52t-108 -18.5t-108.5 18.5t-82 52t-51.5 80.5t-18 104v453h39v-452z" />
    <glyph glyph-name="Ucircumflex" unicode="&#xdb;" horiz-adv-x="647" 
d="M345 955l130 -196h-42l-107 162h-2l-107 -162h-41l129 196h40zM103 248q0 -49 15 -89.5t43.5 -69.5t69.5 -44.5t93 -15.5q51 0 92 15.5t69.5 44.5t44 69.5t15.5 89.5v452h38v-453q0 -57 -18 -104t-51.5 -80.5t-81.5 -52t-108 -18.5t-108.5 18.5t-82 52t-51.5 80.5
t-18 104v453h39v-452z" />
    <glyph glyph-name="Udieresis" unicode="&#xdc;" horiz-adv-x="647" 
d="M385 862q0 16 11.5 27.5t28.5 11.5q15 0 26.5 -11.5t11.5 -27.5t-11.5 -27.5t-26.5 -11.5q-17 0 -28.5 11.5t-11.5 27.5zM182 862q0 16 11 27.5t28 11.5q16 0 27.5 -11.5t11.5 -27.5t-11.5 -27.5t-27.5 -11.5q-17 0 -28 11.5t-11 27.5zM103 248q0 -49 15 -89.5
t43.5 -69.5t69.5 -44.5t93 -15.5q51 0 92 15.5t69.5 44.5t44 69.5t15.5 89.5v452h38v-453q0 -57 -18 -104t-51.5 -80.5t-81.5 -52t-108 -18.5t-108.5 18.5t-82 52t-51.5 80.5t-18 104v453h39v-452z" />
    <glyph glyph-name="Yacute" unicode="&#xdd;" horiz-adv-x="586" 
d="M310 778h-40l103 177h53zM311 340v-340h-39v342l-255 358h46l229 -325h2l229 325h46z" />
    <glyph glyph-name="Thorn" unicode="&#xde;" horiz-adv-x="542" 
d="M103 531h173q101 0 158 -43.5t57 -138.5q0 -96 -56.5 -140.5t-159.5 -44.5h-172v-164h-39v700h39v-169zM103 497v-299h166q88 0 136 35t48 116t-47 114.5t-137 33.5h-166z" />
    <glyph glyph-name="germandbls" unicode="&#xdf;" horiz-adv-x="589" 
d="M62 0v465q0 72 12 119t37 74.5t64.5 38.5t93.5 11q109 0 163.5 -42t54.5 -138q0 -64 -32.5 -101t-89.5 -49q34 -8 65 -24.5t55 -41.5t38 -58t14 -73q0 -54 -19.5 -90t-51 -58t-71.5 -31.5t-80 -9.5q-46 0 -88 11v31q38 -7 78 -7t75.5 8.5t62 27t42 47.5t15.5 71
q0 43 -19 77t-48.5 57.5t-66 36t-71.5 12.5h-49v32h49q23 0 50 6.5t50.5 22t39.5 41t16 62.5q0 31 -6.5 57.5t-26 46t-55 31t-94.5 11.5t-93 -15t-51 -43t-21.5 -66t-4.5 -85v-465h-37z" />
    <glyph glyph-name="agrave" unicode="&#xe0;" horiz-adv-x="497" 
d="M236 778l103 -178h-40l-116 178h53zM257 513q83 0 131.5 -48t48.5 -127v-338h-37v111h-1q-10 -28 -30 -50t-45.5 -37.5t-56 -23.5t-62.5 -8q-74 0 -116 41t-42 105q0 131 178 146l174 12v40q0 66 -38 104.5t-104 38.5q-67 0 -106.5 -32.5t-50.5 -90.5h-36
q8 70 58.5 113.5t134.5 43.5zM399 265l-169 -13q-72 -5 -109 -34t-37 -80q0 -48 34 -80.5t92 -32.5q38 0 72 14.5t60 39t41.5 56.5t15.5 67v63z" />
    <glyph glyph-name="aacute" unicode="&#xe1;" horiz-adv-x="497" 
d="M273 600h-39l102 178h53zM257 513q83 0 131.5 -48t48.5 -127v-338h-37v111h-1q-10 -28 -30 -50t-45.5 -37.5t-56 -23.5t-62.5 -8q-74 0 -116 41t-42 105q0 131 178 146l174 12v40q0 66 -38 104.5t-104 38.5q-67 0 -106.5 -32.5t-50.5 -90.5h-36q8 70 58.5 113.5
t134.5 43.5zM399 265l-169 -13q-72 -5 -109 -34t-37 -80q0 -48 34 -80.5t92 -32.5q38 0 72 14.5t60 39t41.5 56.5t15.5 67v63z" />
    <glyph glyph-name="acircumflex" unicode="&#xe2;" horiz-adv-x="497" 
d="M408 581h-42l-106 163h-3l-107 -163h-41l129 197h41zM257 513q83 0 131.5 -48t48.5 -127v-338h-37v111h-1q-10 -28 -30 -50t-45.5 -37.5t-56 -23.5t-62.5 -8q-74 0 -116 41t-42 105q0 131 178 146l174 12v40q0 66 -38 104.5t-104 38.5q-67 0 -106.5 -32.5t-50.5 -90.5
h-36q8 70 58.5 113.5t134.5 43.5zM399 265l-169 -13q-72 -5 -109 -34t-37 -80q0 -48 34 -80.5t92 -32.5q38 0 72 14.5t60 39t41.5 56.5t15.5 67v63z" />
    <glyph glyph-name="atilde" unicode="&#xe3;" horiz-adv-x="497" 
d="M172 695q-31 0 -43.5 -22t-13.5 -67h-31q0 121 88 121q25 0 46 -13.5t40 -30t38 -30.5t40 -14q32 0 46.5 24.5t16.5 69.5h31q0 -60 -25.5 -93t-68.5 -33q-26 0 -47.5 14t-41 30.5t-37.5 30t-38 13.5zM257 513q83 0 131.5 -48t48.5 -127v-338h-37v111h-1q-10 -28 -30 -50
t-45.5 -37.5t-56 -23.5t-62.5 -8q-74 0 -116 41t-42 105q0 131 178 146l174 12v40q0 66 -38 104.5t-104 38.5q-67 0 -106.5 -32.5t-50.5 -90.5h-36q8 70 58.5 113.5t134.5 43.5zM399 265l-169 -13q-72 -5 -109 -34t-37 -80q0 -48 34 -80.5t92 -32.5q38 0 72 14.5t60 39
t41.5 56.5t15.5 67v63z" />
    <glyph glyph-name="adieresis" unicode="&#xe4;" horiz-adv-x="497" 
d="M119 663q0 16 11.5 27t28.5 11q15 0 26.5 -11t11.5 -27q0 -17 -11.5 -28t-26.5 -11q-17 0 -28.5 11t-11.5 28zM322 663q0 16 11.5 27t28.5 11q15 0 26.5 -11t11.5 -27q0 -17 -11.5 -28t-26.5 -11q-17 0 -28.5 11t-11.5 28zM257 513q83 0 131.5 -48t48.5 -127v-338h-37
v111h-1q-10 -28 -30 -50t-45.5 -37.5t-56 -23.5t-62.5 -8q-74 0 -116 41t-42 105q0 131 178 146l174 12v40q0 66 -38 104.5t-104 38.5q-67 0 -106.5 -32.5t-50.5 -90.5h-36q8 70 58.5 113.5t134.5 43.5zM399 265l-169 -13q-72 -5 -109 -34t-37 -80q0 -48 34 -80.5t92 -32.5
q38 0 72 14.5t60 39t41.5 56.5t15.5 67v63z" />
    <glyph glyph-name="aring" unicode="&#xe5;" horiz-adv-x="497" 
d="M257 581q-21 0 -39 8t-31.5 21.5t-21.5 31.5t-8 39t8 39.5t21.5 32t31.5 21.5t39 8t39.5 -8t32 -21.5t21.5 -32t8 -39.5t-8 -39t-21.5 -31.5t-32 -21.5t-39.5 -8zM257 615q29 0 48 18.5t19 47.5t-19 48t-48 19t-48 -19t-19 -48t19 -47.5t48 -18.5zM257 513
q83 0 131.5 -48t48.5 -127v-338h-37v111h-1q-10 -28 -30 -50t-45.5 -37.5t-56 -23.5t-62.5 -8q-74 0 -116 41t-42 105q0 131 178 146l174 12v40q0 66 -38 104.5t-104 38.5q-67 0 -106.5 -32.5t-50.5 -90.5h-36q8 70 58.5 113.5t134.5 43.5zM399 265l-169 -13
q-72 -5 -109 -34t-37 -80q0 -48 34 -80.5t92 -32.5q38 0 72 14.5t60 39t41.5 56.5t15.5 67v63z" />
    <glyph glyph-name="ae" unicode="&#xe6;" horiz-adv-x="896" 
d="M448 246q2 -106 52 -163.5t136 -57.5q70 0 110 32.5t57 87.5h36q-23 -75 -70.5 -114t-132.5 -39q-76 0 -128.5 37t-77.5 106q-15 -38 -38.5 -65t-52 -44.5t-59.5 -25.5t-61 -8q-37 0 -68.5 11t-54.5 30.5t-36 46t-13 58.5q0 131 178 146l187 12v40q0 33 -12 59t-32.5 45
t-49 29t-61.5 10q-67 0 -106.5 -32.5t-50.5 -90.5h-36q8 70 58.5 113.5t134.5 43.5q33 0 63 -8t54.5 -23.5t42 -37t25.5 -48.5q27 55 75.5 86t114.5 31q49 0 88.5 -17.5t67.5 -50t43 -77.5t15 -101v-21h-398zM631 479q-39 0 -72 -14.5t-56.5 -41t-37.5 -63.5t-16 -82h360
q0 45 -13 82t-36.5 63.5t-56 41t-72.5 14.5zM412 265l-182 -13q-72 -5 -109 -34t-37 -80q0 -24 11 -44.5t30 -36t44.5 -24t54.5 -8.5q38 0 72 14.5t59.5 39t41 56.5t15.5 67v63z" />
    <glyph glyph-name="ccedilla" unicode="&#xe7;" horiz-adv-x="519" 
d="M273 26q64 0 108 32.5t56 86.5h38q-6 -34 -23.5 -62t-43.5 -48t-60.5 -31.5t-74.5 -11.5q-51 0 -92 18t-70 51.5t-44.5 82t-15.5 108.5t15.5 108.5t44.5 82t70 52t92 18.5q41 0 75 -12t60.5 -33t43.5 -50t23 -62h-37q-12 54 -56 88.5t-109 34.5q-42 0 -76 -16t-58 -45
t-37 -71t-13 -95q0 -52 13 -94t37 -71t58 -45t76 -16zM232 -276h-39l102 178h53z" />
    <glyph glyph-name="egrave" unicode="&#xe8;" horiz-adv-x="535" 
d="M250 778l102 -178h-39l-116 178h53zM89 246q0 -108 50 -164.5t136 -56.5q69 0 109 32.5t57 87.5h37q-23 -75 -71 -114t-132 -39q-104 0 -164 68.5t-60 191.5q0 59 15.5 107t44 82.5t69 53t90.5 18.5q49 0 88.5 -17.5t67.5 -50t43.5 -77.5t15.5 -101v-21h-396zM269 479
q-39 0 -71 -14.5t-55.5 -41t-37 -63.5t-15.5 -82h358q0 45 -13 82t-36.5 63.5t-56.5 41t-73 14.5z" />
    <glyph glyph-name="eacute" unicode="&#xe9;" horiz-adv-x="535" 
d="M287 600h-40l103 178h53zM89 246q0 -107 50 -164t136 -57q69 0 109 32.5t57 87.5h37q-23 -75 -71 -114t-132 -39q-104 0 -164 68.5t-60 191.5q0 59 15.5 107t44 82.5t69 53t90.5 18.5q49 0 88.5 -17.5t67.5 -50t43.5 -77.5t15.5 -101v-21h-396zM269 479q-39 0 -71 -14.5
t-55.5 -41t-37 -63.5t-15.5 -82h358q0 45 -13 82t-36.5 63.5t-56.5 41t-73 14.5z" />
    <glyph glyph-name="ecircumflex" unicode="&#xea;" horiz-adv-x="535" 
d="M422 581h-42l-107 163h-3l-106 -163h-41l128 197h41zM89 246q0 -107 50 -164t136 -57q69 0 109 32.5t57 87.5h37q-23 -75 -71 -114t-132 -39q-104 0 -164 68.5t-60 191.5q0 59 15.5 107t44 82.5t69 53t90.5 18.5q49 0 88.5 -17.5t67.5 -50t43.5 -77.5t15.5 -101v-21h-396
zM269 479q-39 0 -71 -14.5t-55.5 -41t-37 -63.5t-15.5 -82h358q0 45 -13 82t-36.5 63.5t-56.5 41t-73 14.5z" />
    <glyph glyph-name="edieresis" unicode="&#xeb;" horiz-adv-x="535" 
d="M133 663q0 16 11 27t28 11q16 0 27 -11t11 -27q0 -17 -11 -28t-27 -11q-17 0 -28 11t-11 28zM336 663q0 16 11.5 27t28.5 11q15 0 26.5 -11t11.5 -27q0 -17 -11.5 -28t-26.5 -11q-17 0 -28.5 11t-11.5 28zM89 246q0 -107 50 -164t136 -57q69 0 109 32.5t57 87.5h37
q-23 -75 -71 -114t-132 -39q-104 0 -164 68.5t-60 191.5q0 59 15.5 107t44 82.5t69 53t90.5 18.5q49 0 88.5 -17.5t67.5 -50t43.5 -77.5t15.5 -101v-21h-396zM269 479q-39 0 -71 -14.5t-55.5 -41t-37 -63.5t-15.5 -82h358q0 45 -13 82t-36.5 63.5t-56.5 41t-73 14.5z" />
    <glyph glyph-name="igrave" unicode="&#xec;" horiz-adv-x="212" 
d="M22 778l102 -178h-39l-116 178h53zM88 505h36v-505h-36v505z" />
    <glyph glyph-name="iacute" unicode="&#xed;" horiz-adv-x="212" 
d="M127 600h-39l102 178h53zM88 505h36v-505h-36v505z" />
    <glyph glyph-name="icircumflex" unicode="&#xee;" horiz-adv-x="212" 
d="M255 581h-42l-106 163h-3l-106 -163h-41l128 197h41zM88 505h36v-505h-36v505z" />
    <glyph glyph-name="idieresis" unicode="&#xef;" horiz-adv-x="212" 
d="M168 663q0 16 11.5 27t28.5 11q15 0 26.5 -11t11.5 -27q0 -17 -11.5 -28t-26.5 -11q-17 0 -28.5 11t-11.5 28zM-35 663q0 16 11.5 27t27.5 11t27.5 -11t11.5 -27q0 -17 -11.5 -28t-27.5 -11t-27.5 11t-11.5 28zM88 505h36v-505h-36v505z" />
    <glyph glyph-name="eth" unicode="&#xf0;" horiz-adv-x="608" 
d="M565 690l-125 -72q51 -48 80.5 -121t29.5 -165q0 -103 -24.5 -169t-62 -104t-83 -52.5t-86.5 -14.5q-51 0 -94 17.5t-74.5 49t-49.5 75t-18 94.5q0 49 18 91t49 73t74 48.5t92 17.5q40 0 76 -11t65 -30.5t49.5 -47.5t29.5 -62h1q1 99 -28.5 171.5t-77.5 119.5l-166 -94
l-16 30l153 88q-35 25 -74 38t-80 13v35q52 0 100 -16.5t89 -48.5l135 77zM295 26q42 0 79 16t64 44t42.5 66t15.5 83q0 38 -16 72.5t-43.5 60.5t-64 41t-77.5 15q-42 0 -78.5 -15t-63 -41.5t-41.5 -62.5t-15 -78q0 -43 15 -79.5t42 -63.5t63 -42.5t78 -15.5z" />
    <glyph glyph-name="ntilde" unicode="&#xf1;" horiz-adv-x="527" 
d="M186 695q-31 0 -43.5 -22t-13.5 -67h-32q0 121 89 121q25 0 45.5 -13.5t39.5 -30t38 -30.5t41 -14q32 0 46 24.5t16 69.5h32q0 -60 -25.5 -93t-68.5 -33q-26 0 -47.5 14t-41 30.5t-37.5 30t-38 13.5zM277 513q44 0 79.5 -12t60 -37.5t37.5 -66t13 -98.5v-299h-37v299
q0 94 -38 137t-119 43q-40 0 -72 -17t-54.5 -47t-35 -71.5t-12.5 -91.5v-252h-39v505h39v-128h1q18 65 65 100.5t112 35.5z" />
    <glyph glyph-name="ograve" unicode="&#xf2;" horiz-adv-x="530" 
d="M250 778l102 -178h-39l-116 178h53zM265 -8q-50 0 -91.5 18.5t-71 52t-45.5 81.5t-16 108t16 108.5t45.5 82.5t71 52t91.5 18t91.5 -18t71 -52t45.5 -82.5t16 -108.5t-16 -108t-45.5 -81.5t-71 -52t-91.5 -18.5zM265 26q42 0 76.5 16t59 45t38 71t13.5 94q0 53 -13.5 95
t-38 71.5t-59 45t-76.5 15.5t-76.5 -15.5t-58.5 -45t-37.5 -71.5t-13.5 -95q0 -106 50.5 -166t135.5 -60z" />
    <glyph glyph-name="oacute" unicode="&#xf3;" horiz-adv-x="530" 
d="M287 600h-40l103 178h53zM265 -8q-50 0 -91.5 18.5t-71 52t-45.5 81.5t-16 108t16 108.5t45.5 82.5t71 52t91.5 18t91.5 -18t71 -52t45.5 -82.5t16 -108.5t-16 -108t-45.5 -81.5t-71 -52t-91.5 -18.5zM265 26q42 0 76.5 16t59 45t38 71t13.5 94q0 53 -13.5 95t-38 71.5
t-59 45t-76.5 15.5t-76.5 -15.5t-58.5 -45t-37.5 -71.5t-13.5 -95q0 -106 50.5 -166t135.5 -60z" />
    <glyph glyph-name="ocircumflex" unicode="&#xf4;" horiz-adv-x="530" 
d="M414 581h-43l-106 163h-3l-106 -163h-41l128 197h41zM265 -8q-50 0 -91.5 18.5t-71 52t-45.5 81.5t-16 108t16 108.5t45.5 82.5t71 52t91.5 18t91.5 -18t71 -52t45.5 -82.5t16 -108.5t-16 -108t-45.5 -81.5t-71 -52t-91.5 -18.5zM265 26q42 0 76.5 16t59 45t38 71
t13.5 94q0 53 -13.5 95t-38 71.5t-59 45t-76.5 15.5t-76.5 -15.5t-58.5 -45t-37.5 -71.5t-13.5 -95q0 -106 50.5 -166t135.5 -60z" />
    <glyph glyph-name="otilde" unicode="&#xf5;" horiz-adv-x="530" 
d="M190 695q-31 0 -43.5 -22t-13.5 -67h-32q0 121 89 121q25 0 45.5 -13.5t39.5 -30t38 -30.5t41 -14q32 0 46 24.5t16 69.5h32q0 -60 -25.5 -93t-68.5 -33q-26 0 -47.5 14t-41 30.5t-37.5 30t-38 13.5zM265 -8q-50 0 -91.5 18.5t-71 52t-45.5 81.5t-16 108t16 108.5
t45.5 82.5t71 52t91.5 18t91.5 -18t71 -52t45.5 -82.5t16 -108.5t-16 -108t-45.5 -81.5t-71 -52t-91.5 -18.5zM265 26q42 0 76.5 16t59 45t38 71t13.5 94q0 53 -13.5 95t-38 71.5t-59 45t-76.5 15.5t-76.5 -15.5t-58.5 -45t-37.5 -71.5t-13.5 -95q0 -106 50.5 -166
t135.5 -60z" />
    <glyph glyph-name="odieresis" unicode="&#xf6;" horiz-adv-x="530" 
d="M126 663q0 16 11.5 27t27.5 11t27.5 -11t11.5 -27q0 -17 -11.5 -28t-27.5 -11t-27.5 11t-11.5 28zM329 663q0 16 11.5 27t28.5 11q15 0 26.5 -11t11.5 -27q0 -17 -11.5 -28t-26.5 -11q-17 0 -28.5 11t-11.5 28zM265 -8q-50 0 -91.5 18.5t-71 52t-45.5 81.5t-16 108
t16 108.5t45.5 82.5t71 52t91.5 18t91.5 -18t71 -52t45.5 -82.5t16 -108.5t-16 -108t-45.5 -81.5t-71 -52t-91.5 -18.5zM265 26q42 0 76.5 16t59 45t38 71t13.5 94q0 53 -13.5 95t-38 71.5t-59 45t-76.5 15.5t-76.5 -15.5t-58.5 -45t-37.5 -71.5t-13.5 -95q0 -106 50.5 -166
t135.5 -60z" />
    <glyph glyph-name="divide" unicode="&#xf7;" horiz-adv-x="558" 
d="M280 433q-17 0 -28.5 11t-11.5 28q0 16 11.5 27t28.5 11q15 0 26.5 -11t11.5 -27q0 -17 -11.5 -28t-26.5 -11zM58 334h442v-34h-442v34zM280 124q-17 0 -28.5 11.5t-11.5 28.5q0 15 11.5 26.5t28.5 11.5q15 0 26.5 -11.5t11.5 -26.5q0 -17 -11.5 -28.5t-26.5 -11.5z" />
    <glyph glyph-name="oslash" unicode="&#xf8;" horiz-adv-x="530" 
d="M265 513q50 0 91.5 -18t71 -52t45.5 -82.5t16 -108.5t-16 -108t-45.5 -81.5t-71 -52t-91.5 -18.5t-91.5 18.5t-71 52t-45.5 81.5t-16 108t16 108.5t45.5 82.5t71 52t91.5 18zM79 252q0 -72 24.5 -123.5t67.5 -78.5l151 419q-28 10 -57 10q-42 0 -76.5 -15.5t-58.5 -45
t-37.5 -71.5t-13.5 -95zM265 26q42 0 76.5 16t59 45t38 71t13.5 94q0 72 -25 123.5t-68 77.5l-151 -419q27 -8 57 -8z" />
    <glyph glyph-name="ugrave" unicode="&#xf9;" horiz-adv-x="527" 
d="M236 778l103 -178h-40l-116 178h53zM99 505v-299q0 -94 37 -137t119 -43q40 0 72.5 16.5t55 46.5t34.5 71.5t12 91.5v253h38v-505h-37v127h-1q-19 -64 -66.5 -99.5t-111.5 -35.5q-44 0 -79.5 11.5t-60 37t-38 66.5t-13.5 99v299h39z" />
    <glyph glyph-name="uacute" unicode="&#xfa;" horiz-adv-x="527" 
d="M273 600h-39l102 178h53zM467 505v-505h-37v127h-1q-19 -64 -66.5 -99.5t-111.5 -35.5q-44 0 -79.5 11.5t-60 37t-38 66.5t-13.5 99v299h39v-299q0 -94 37 -137t119 -43q40 0 72.5 16.5t55 46.5t34.5 71.5t12 91.5v253h38z" />
    <glyph glyph-name="ucircumflex" unicode="&#xfb;" horiz-adv-x="527" 
d="M410 581h-43l-106 163h-3l-106 -163h-41l128 197h41zM467 505v-505h-37v127h-1q-19 -64 -66.5 -99.5t-111.5 -35.5q-44 0 -79.5 11.5t-60 37t-38 66.5t-13.5 99v299h39v-299q0 -94 37 -137t119 -43q40 0 72.5 16.5t55 46.5t34.5 71.5t12 91.5v253h38z" />
    <glyph glyph-name="udieresis" unicode="&#xfc;" horiz-adv-x="527" 
d="M329 663q0 16 11.5 27t28.5 11q15 0 26.5 -11t11.5 -27q0 -17 -11.5 -28t-26.5 -11q-17 0 -28.5 11t-11.5 28zM126 663q0 16 11.5 27t27.5 11t27.5 -11t11.5 -27q0 -17 -11.5 -28t-27.5 -11t-27.5 11t-11.5 28zM467 505v-505h-37v127h-1q-19 -64 -66.5 -99.5
t-111.5 -35.5q-44 0 -79.5 11.5t-60 37t-38 66.5t-13.5 99v299h39v-299q0 -94 37 -137t119 -43q40 0 72.5 16.5t55 46.5t34.5 71.5t12 91.5v253h38z" />
    <glyph glyph-name="yacute" unicode="&#xfd;" horiz-adv-x="465" 
d="M246 600h-40l103 178h53zM446 505q-47 -124 -89 -236q-18 -48 -37 -97.5t-36 -95.5t-32 -85.5t-25 -66.5q-13 -33 -26.5 -53.5t-31 -31.5t-39.5 -15t-51 -4q-12 0 -22 1t-24 6v31q14 -2 23 -3t19 -1q20 0 36.5 0.5t30 7.5t25.5 22t24 44l25 65l-197 512h41l172 -470h2
l172 470h40z" />
    <glyph glyph-name="thorn" unicode="&#xfe;" horiz-adv-x="548" 
d="M97 682v-307h2q20 66 70 102t118 36q47 0 86 -19t67.5 -53t44.5 -82t16 -107q0 -58 -16 -106t-44.5 -82t-67.5 -53t-86 -19q-68 0 -119 35.5t-69 100.5h-2v-305h-37v859h37zM100 254q0 -50 13 -92t37 -72t57 -47t73 -17q41 0 74.5 16.5t57.5 46t37.5 71t13.5 92.5
t-13.5 93t-37.5 72t-57.5 46.5t-74.5 16.5q-40 0 -73 -16.5t-57 -46.5t-37 -71.5t-13 -91.5z" />
    <glyph glyph-name="ydieresis" unicode="&#xff;" horiz-adv-x="465" 
d="M299 663q0 16 11.5 27t28.5 11q15 0 26.5 -11t11.5 -27q0 -17 -11.5 -28t-26.5 -11q-17 0 -28.5 11t-11.5 28zM96 663q0 16 11.5 27t27.5 11t27.5 -11t11.5 -27q0 -17 -11.5 -28t-27.5 -11t-27.5 11t-11.5 28zM446 505q-47 -124 -89 -236q-18 -48 -37 -97.5t-36 -95.5
t-32 -85.5t-25 -66.5q-13 -33 -26.5 -53.5t-31 -31.5t-39.5 -15t-51 -4q-12 0 -22 1t-24 6v31q14 -2 23 -3t19 -1q20 0 36.5 0.5t30 7.5t25.5 22t24 44l25 65l-197 512h41l172 -470h2l172 470h40z" />
    <glyph glyph-name="Dcroat" unicode="&#x110;" horiz-adv-x="740" 
d="M37 367h115v333h192q80 0 144 -23.5t108.5 -68t68.5 -109.5t24 -148q0 -84 -24.5 -149.5t-69.5 -110t-109.5 -68t-144.5 -23.5h-189v333h-115v34zM340 34q72 0 129.5 21t98 61.5t62 99t21.5 133.5q0 77 -21.5 136t-61 99t-96.5 61t-129 21h-152v-299h231v-34h-231v-299
h149z" />
    <glyph glyph-name="dcroat" unicode="&#x111;" horiz-adv-x="548" 
d="M571 587h-84v-587h-35v130h-1q-21 -66 -71.5 -102t-118.5 -36q-47 0 -86.5 19t-68 53t-44 82t-15.5 106q0 59 15.5 107t44 82t68 53t86.5 19q68 0 118 -35.5t70 -100.5h2v210h-322v34h322v79h36v-79h84v-34zM268 26q40 0 73 16.5t57 46.5t37 71.5t13 91.5t-13 91.5
t-37 71.5t-57 47t-73 17q-41 0 -74.5 -16.5t-57.5 -46t-37.5 -71.5t-13.5 -93t13.5 -92.5t37.5 -71t57.5 -46t74.5 -16.5z" />
    <glyph glyph-name="dotlessi" unicode="&#x131;" horiz-adv-x="212" 
d="M88 505h36v-505h-36v505z" />
    <glyph glyph-name="Lslash" unicode="&#x141;" horiz-adv-x="586" 
d="M190 700v-333h232v-34h-232v-299h366v-34h-404v333h-115v34h115v333h38z" />
    <glyph glyph-name="lslash" unicode="&#x142;" horiz-adv-x="412" 
d="M225 700v-333h157v-34h-157v-333h-38v333h-157v34h157v333h38z" />
    <glyph glyph-name="OE" unicode="&#x152;" horiz-adv-x="1012" 
d="M351 708q39 0 76 -8h527v-34h-442q68 -42 105.5 -118t40.5 -181h250v-34h-250q-3 -106 -40.5 -182.5t-104.5 -116.5h441v-34h-527q-37 -8 -76 -8q-72 0 -128.5 24.5t-96.5 71t-61 113t-21 150.5q0 82 21 148t61 112.5t96.5 71.5t128.5 25zM351 27q62 0 111.5 22.5
t84 64.5t53 102t18.5 135q0 74 -18.5 133.5t-53 101.5t-84 64.5t-111.5 22.5q-63 0 -112.5 -22.5t-84 -64.5t-52.5 -101.5t-18 -133.5q0 -75 18 -135t52.5 -102t84 -64.5t112.5 -22.5z" />
    <glyph glyph-name="oe" unicode="&#x153;" horiz-adv-x="936" 
d="M490 246v-2q0 -104 50 -161.5t136 -57.5q69 0 109 32.5t57 87.5h37q-23 -75 -70.5 -114t-132.5 -39q-78 0 -130.5 37.5t-75.5 108.5q-25 -69 -78 -107.5t-127 -38.5q-50 0 -91.5 18.5t-71 52t-45.5 81.5t-16 108t16 108.5t45.5 82.5t71 52t91.5 18q74 0 127 -39t78 -108
q23 69 75 108t127 39q48 0 87.5 -17.5t67.5 -50t43.5 -77.5t15.5 -101v-21h-396zM265 26q42 0 76.5 16t59 45t38 71t13.5 94q0 53 -13.5 95t-38 71.5t-59 45t-76.5 15.5t-76.5 -15.5t-58.5 -45t-37.5 -71.5t-13.5 -95q0 -106 50.5 -166t135.5 -60zM670 479q-39 0 -71 -14.5
t-55.5 -41t-37 -63.5t-15.5 -82h358q0 45 -13 82t-36.5 63.5t-56.5 41t-73 14.5z" />
    <glyph glyph-name="Scaron" unicode="&#x160;" horiz-adv-x="585" 
d="M268 759l-129 196h41l107 -162h3l106 162h42l-129 -196h-41zM85 183q4 -34 21 -63t45 -49.5t65.5 -32t82.5 -11.5t81.5 11t62.5 31.5t40.5 49t14.5 62.5q0 58 -40 92t-132 56l-75 18q-102 24 -147 64t-45 110q0 41 18 75.5t49 59t72.5 38.5t89.5 14q58 0 101 -16.5
t72 -44.5t44.5 -64.5t18.5 -77.5h-39q-4 36 -18.5 67t-39.5 53.5t-60 35t-80 12.5q-39 0 -73 -11t-59.5 -30.5t-40.5 -47t-15 -61.5q0 -56 39 -88.5t126 -52.5l73 -16q107 -24 154 -66.5t47 -113.5q0 -44 -17 -80t-48.5 -61.5t-76 -39t-98.5 -13.5q-53 0 -97.5 14
t-77.5 39.5t-53 60.5t-23 77h38z" />
    <glyph glyph-name="scaron" unicode="&#x161;" horiz-adv-x="463" 
d="M210 581l-128 197h41l107 -163h2l107 163h42l-130 -197h-41zM82 143q3 -26 16.5 -47.5t34 -37.5t47 -24.5t56.5 -8.5q64 0 104 29t40 77q0 38 -30.5 61.5t-94.5 38.5l-53 12q-75 17 -110.5 47t-35.5 81q0 30 13.5 55t37.5 43.5t55.5 29t67.5 10.5q32 0 62.5 -9t55 -28
t40.5 -48t19 -68h-37q-5 58 -43.5 89t-98.5 31q-28 0 -53 -8t-43.5 -22t-29 -32.5t-10.5 -40.5q0 -38 29 -60t91 -36l53 -12q78 -19 114.5 -49.5t36.5 -81.5q0 -32 -13.5 -58.5t-37.5 -45t-57 -28.5t-73 -10q-32 0 -64.5 9.5t-58.5 28t-44 47t-21 66.5h35z" />
    <glyph glyph-name="Ydieresis" unicode="&#x178;" horiz-adv-x="586" 
d="M362 862q0 16 11.5 27.5t27.5 11.5t27.5 -11.5t11.5 -27.5t-11.5 -27.5t-27.5 -11.5t-27.5 11.5t-11.5 27.5zM159 862q0 16 11 27.5t28 11.5q16 0 27 -11.5t11 -27.5t-11 -27.5t-27 -11.5q-17 0 -28 11.5t-11 27.5zM311 340v-340h-39v342l-255 358h46l229 -325h2l229 325
h46z" />
    <glyph glyph-name="Zcaron" unicode="&#x17d;" horiz-adv-x="612" 
d="M295 759l-128 196h41l106 -162h3l106 162h43l-130 -196h-41zM554 35v-35h-496v30l442 633v2h-427v35h479v-30l-441 -633v-2h443z" />
    <glyph glyph-name="zcaron" unicode="&#x17e;" horiz-adv-x="483" 
d="M228 581l-128 197h41l106 -163h3l106 163h43l-130 -197h-41zM58 30l323 441v2h-322v32h364v-32l-323 -440v-2h325v-31h-367v30z" />
    <glyph glyph-name="florin" unicode="&#x192;" horiz-adv-x="377" 
d="M78 26q54 0 72.5 21.5t18.5 73.5v352h-88v32h88v72q0 70 31.5 100t94.5 30q25 0 52 -7v-31q-14 2 -25.5 3t-22.5 1q-27 0 -44.5 -5t-28 -16.5t-14.5 -30t-4 -44.5v-72h106v-32h-106v-352q0 -69 -31.5 -99t-94.5 -30q-12 0 -25 1t-27 6v31q14 -2 25.5 -3t22.5 -1z" />
    <glyph glyph-name="circumflex" unicode="&#x2c6;" horiz-adv-x="441" 
d="M370 581h-42l-107 163h-2l-107 -163h-41l128 197h41z" />
    <glyph glyph-name="caron" unicode="&#x2c7;" horiz-adv-x="441" 
d="M199 581l-128 197h41l107 -163h2l107 163h42l-130 -197h-41z" />
    <glyph glyph-name="breve" unicode="&#x2d8;" horiz-adv-x="343" 
d="M104 681q0 -29 19 -47.5t48 -18.5t48 18.5t19 47.5h34q0 -21 -8 -39t-21.5 -31.5t-32 -21.5t-39.5 -8t-39 8t-31.5 21.5t-21.5 31.5t-8 39h33z" />
    <glyph glyph-name="dotaccent" unicode="&#x2d9;" horiz-adv-x="205" 
d="M71 643q0 13 9 22t23 9q12 0 21.5 -9t9.5 -22q0 -14 -9.5 -23t-21.5 -9q-14 0 -23 9t-9 23z" />
    <glyph glyph-name="ring" unicode="&#x2da;" horiz-adv-x="343" 
d="M71 681q0 21 8 39.5t21.5 32t31.5 21.5t39 8t39.5 -8t32 -21.5t21.5 -32t8 -39.5t-8 -39t-21.5 -31.5t-32 -21.5t-39.5 -8t-39 8t-31.5 21.5t-21.5 31.5t-8 39zM104 681q0 -29 19 -47.5t48 -18.5t48 18.5t19 47.5t-19 48t-48 19t-48 -19t-19 -48z" />
    <glyph glyph-name="ogonek" unicode="&#x2db;" horiz-adv-x="280" 
 />
    <glyph glyph-name="tilde" unicode="&#x2dc;" horiz-adv-x="489" 
d="M160 695q-31 0 -43.5 -22t-13.5 -67h-32q0 121 89 121q25 0 45.5 -13.5t39.5 -30t38 -30.5t41 -14q32 0 46 24.5t16 69.5h32q0 -60 -25.5 -93t-68.5 -33q-26 0 -47.5 14t-41 30.5t-37.5 30t-38 13.5z" />
    <glyph glyph-name="hungarumlaut" unicode="&#x2dd;" horiz-adv-x="438" 
d="M71 580l103 198h53l-116 -198h-40zM212 580l102 198h53l-116 -198h-39z" />
    <glyph glyph-name="uni03BC" unicode="&#x3bc;" horiz-adv-x="527" 
d="M99 505v-299q0 -94 37 -137t119 -43q40 0 72.5 16.5t55 46.5t34.5 71.5t12 91.5v253h38v-505h-37v127h-1q-19 -64 -66.5 -99.5t-111.5 -35.5q-51 0 -92 21t-60 76h-2v-266h-37v682h39z" />
    <glyph glyph-name="uni0E01" unicode="&#xe01;" horiz-adv-x="590" 
d="M60 371q0 97 61 153.5t173 56.5t169 -57.5t57 -161.5v-362h-39v360q0 91 -46 139t-141 48q-91 0 -142 -43t-55 -118l151 -28v-21q-50 -13 -83.5 -48.5t-33.5 -86.5v-202h-39v194q0 26 7.5 49.5t21 43t32.5 33t43 19.5l-136 24v8z" />
    <glyph glyph-name="uni0E02" unicode="&#xe02;" horiz-adv-x="537" 
d="M467 577v-379q0 -62 -16.5 -102t-44.5 -63t-66 -32t-80 -9t-79.5 9t-65.5 32t-44 63t-16 102v56q0 46 15 82t37.5 62.5t48 43t45.5 22.5q0 12 -2.5 26t-10.5 26t-22.5 19.5t-38.5 7.5h-63v34h63q36 0 58 -10.5t34 -26.5t16 -36t4 -39v-15q-45 -17 -73 -39t-44.5 -51
t-22.5 -65.5t-6 -82.5q0 -37 5 -71t22.5 -59.5t50.5 -40.5t89 -15q59 0 92.5 15t50.5 40.5t21 59.5t4 71v365h39z" />
    <glyph glyph-name="uni0E03" unicode="&#xe03;" horiz-adv-x="551" 
d="M40 577h39v-35q0 -18 9.5 -23.5t20.5 -5.5q18 0 30 13.5t26 50.5h5q24 0 40 -9t25.5 -24t13.5 -35.5t4 -43.5v-15q-24 -9 -49.5 -23t-47 -38.5t-35.5 -61t-14 -90.5v-25q0 -37 5 -71t22.5 -59.5t50.5 -40.5t89 -15q59 0 92.5 15t50.5 40.5t21 59.5t4 71v365h39v-379
q0 -62 -16.5 -102t-44.5 -63t-66 -32t-80 -9t-79.5 9t-65.5 32t-44 63t-16 102v56q0 46 15 82t37.5 62.5t48 43t45.5 22.5q0 35 -9 55.5t-28 24.5q-21 -65 -74 -65q-27 0 -45.5 15.5t-18.5 41.5v41z" />
    <glyph glyph-name="uni0E04" unicode="&#xe04;" horiz-adv-x="596" 
d="M94 96q-5 30 -11.5 57t-12.5 55.5t-10.5 61t-4.5 72.5q0 72 16.5 118.5t47 73.5t74 37t97.5 10t97.5 -10t74.5 -37t47.5 -73.5t16.5 -118.5v-342h-39v342q0 47 -9 85t-31 64.5t-60 41t-97 14.5q-58 0 -96.5 -14.5t-60.5 -41t-31 -64.5t-9 -85q0 -64 9.5 -111t20.5 -94
q9 23 25 54.5t36.5 60t46 48t53.5 19.5h61v-34h-49q-28 0 -54.5 -23t-48.5 -54.5t-37.5 -63t-22.5 -48.5v-96h-39v96z" />
    <glyph glyph-name="uni0E05" unicode="&#xe05;" horiz-adv-x="596" 
d="M345 319v-34h-49q-28 0 -54.5 -23t-48.5 -54.5t-37.5 -63t-22.5 -48.5v-96h-39v96q-10 60 -24.5 130.5t-14.5 151.5q0 108 28.5 156.5t88.5 48.5q51 0 80.5 -25t36.5 -65q11 40 42.5 65t82.5 25q112 0 112 -130v-453h-39v453q0 11 -1.5 27t-9 31t-23 25.5t-43.5 10.5
t-47.5 -10.5t-32 -26t-18 -33.5t-5.5 -34h-34q0 16 -5 34t-16 33.5t-29 26t-44 10.5q-32 0 -49.5 -18.5t-25.5 -44.5t-9.5 -55.5t-1.5 -50.5q0 -65 10 -125t21 -114q9 23 25 54t36.5 59t45.5 47.5t53 19.5h61z" />
    <glyph glyph-name="uni0E06" unicode="&#xe06;" horiz-adv-x="592" 
d="M69 0v254q0 46 15 82t37.5 62.5t48 43t45.5 22.5q0 35 -9 55.5t-28 24.5q-21 -65 -74 -65q-27 0 -45.5 15.5t-18.5 41.5v41h39v-35q0 -18 9.5 -23.5t20.5 -5.5q18 0 30 13.5t26 50.5h5q24 0 40 -9t25.5 -24t13.5 -35.5t4 -43.5v-15q-24 -9 -49.5 -23t-47 -38.5t-35.5 -61
t-14 -90.5q0 -41 15 -79t43 -67.5t67 -47t87 -17.5q34 0 64 10t52 33.5t35 61.5t13 95v351h39v-356q0 -60 -15 -103.5t-42.5 -71.5t-65 -41t-82.5 -13t-80.5 12t-62 33.5t-44 50t-25.5 61.5v-149h-36z" />
    <glyph glyph-name="uni0E07" unicode="&#xe07;" horiz-adv-x="531" 
d="M355 577q45 0 74 -7t46 -21.5t24 -38t7 -57.5q0 -32 -14 -76.5t-38.5 -100.5t-58 -125t-71.5 -151h-74l-225 577h42l210 -546h23q33 73 63.5 138t53.5 119t36.5 96t13.5 69q0 53 -26 72t-86 19h-54v33h54z" />
    <glyph glyph-name="uni0E08" unicode="&#xe08;" horiz-adv-x="550" 
d="M57 262v34h79q25 0 35 -23l110 -239h32q25 44 52 89.5t49.5 91t37 89.5t14.5 83q0 30 -10 58.5t-32.5 51t-58.5 36.5t-87 14q-69 0 -117 -30.5t-73 -102.5h-38q22 85 82.5 126t149.5 41q45 0 85.5 -11t71 -34t48.5 -58.5t18 -84.5q0 -46 -15 -92.5t-39 -95t-54.5 -99.5
t-62.5 -106h-78l-118 255q-3 7 -11 7h-70z" />
    <glyph glyph-name="uni0E09" unicode="&#xe09;" horiz-adv-x="595" 
d="M489 0v149q-8 -33 -25.5 -61.5t-44 -50t-62 -33.5t-80.5 -12t-82.5 13t-65 41t-42.5 71.5t-15 103.5v69h39v-64q0 -57 13 -95t35 -61.5t52 -33.5t64 -10q48 0 87 17t66.5 45t42.5 64.5t15 76.5v137q0 36 -10 68.5t-33 57.5t-59.5 40t-89.5 15q-70 0 -120.5 -30.5
t-75.5 -102.5h-38q22 85 85 126t152 41q47 0 88.5 -12t72.5 -38t49 -67t18 -98v-366h-36z" />
    <glyph glyph-name="uni0E0A" unicode="&#xe0a;" horiz-adv-x="537" 
d="M293 443q25 6 50 16.5t46 28t35 42t15 57.5h36q0 -34 -13.5 -60.5t-33 -45.5t-43 -31.5t-43.5 -17.5q125 -17 125 -167v-67q0 -62 -16.5 -102t-44.5 -63t-66 -32t-80 -9t-79.5 9t-65.5 32t-44 63t-16 102v56q0 46 15 82t37.5 62.5t48 43t45.5 22.5q0 12 -2.5 26t-10.5 26
t-22.5 19.5t-38.5 7.5h-63v34h63q36 0 58 -10.5t34 -26.5t16 -36t4 -39v-15q-45 -17 -73 -39t-44.5 -51t-22.5 -65.5t-6 -82.5q0 -37 5 -71t22.5 -59.5t50.5 -40.5t89 -15q59 0 92.5 15t50.5 40.5t21 59.5t4 71v53q0 70 -33 110t-102 40v28z" />
    <glyph glyph-name="uni0E0B" unicode="&#xe0b;" horiz-adv-x="551" 
d="M40 577h39v-35q0 -18 9.5 -23.5t20.5 -5.5q18 0 30 13.5t26 50.5h5q24 0 40 -9t25.5 -24t13.5 -35.5t4 -43.5v-15q-24 -9 -49.5 -23t-47 -38.5t-35.5 -61t-14 -90.5v-25q0 -37 5 -71t22.5 -59.5t50.5 -40.5t89 -15q59 0 92.5 15t50.5 40.5t21 59.5t4 71v53q0 70 -33 110
t-102 40v28q25 6 50 16.5t46 28t35 42t15 57.5h36q0 -34 -13.5 -60.5t-33 -45.5t-43 -31.5t-43.5 -17.5q125 -17 125 -167v-67q0 -62 -16.5 -102t-44.5 -63t-66 -32t-80 -9t-79.5 9t-65.5 32t-44 63t-16 102v56q0 46 15 82t37.5 62.5t48 43t45.5 22.5q0 35 -9 55.5t-28 24.5
q-21 -65 -74 -65q-27 0 -45.5 15.5t-18.5 41.5v41z" />
    <glyph glyph-name="uni0E0C" unicode="&#xe0c;" horiz-adv-x="924" 
d="M60 371q0 97 55 153.5t164 56.5q112 0 161.5 -57.5t49.5 -161.5v-133q0 -40 12 -76.5t35 -64.5t58 -45t81 -17q32 0 58 10t44 33.5t27.5 61.5t9.5 95v351h39v-356q0 -121 -46.5 -175t-133.5 -54q-43 0 -74.5 12t-54 33.5t-36.5 50t-22 61.5v-149h-36v360q0 45 -9 80
t-29.5 58.5t-53.5 36t-80 12.5q-88 0 -133 -43t-49 -118l151 -28v-21q-19 -6 -43.5 -21t-46.5 -39.5t-37 -57t-15 -73.5q0 -32 10 -53.5t28 -35t42.5 -19t53.5 -5.5h29v-33h-37q-34 0 -63.5 8t-52 25t-35.5 44.5t-13 67.5q0 37 11 66.5t29.5 53t42.5 42t51 31.5l-142 25v8z
" />
    <glyph glyph-name="uni0E0D" unicode="&#xe0d;" horiz-adv-x="924" 
d="M60 371q0 97 55 153.5t164 56.5q112 0 161.5 -57.5t49.5 -161.5v-136q0 -57 13.5 -95t36 -61.5t52 -33.5t61.5 -10t61.5 10t52 33.5t35.5 61.5t13 95v351h39v-356q0 -60 -15 -103.5t-42 -71.5t-64 -41t-80 -13t-80 13t-64 41t-42.5 71.5t-15.5 103.5v139q0 45 -9 80
t-29.5 58.5t-53.5 36t-80 12.5q-88 0 -133 -43t-49 -118l151 -28v-21q-19 -6 -43.5 -21t-46.5 -39.5t-37 -57t-15 -73.5q0 -32 10 -53.5t28 -35t42.5 -19t53.5 -5.5h29v-33h-37q-34 0 -63.5 8t-52 25t-35.5 44.5t-13 67.5q0 37 11 66.5t29.5 53t42.5 42t51 31.5l-142 25v8z
M843 -147v-33h-265q-42 0 -67.5 9.5t-38.5 25.5t-17 37t-4 44v7h36v-7q0 -23 3.5 -38.5t14.5 -25.5t30.5 -14.5t50.5 -4.5h257z" />
    <glyph glyph-name="uni0E0E" unicode="&#xe0e;" horiz-adv-x="596" 
d="M95 -200q5 40 22 66t41.5 42t53.5 22.5t59 6.5q35 0 64.5 -7.5t55.5 -20.5t49.5 -29.5t46.5 -35.5v516q0 91 -46 139t-141 48q-91 0 -142 -43t-55 -118l156 -29v-21q-45 -11 -72.5 -38t-27.5 -76v-117q0 -51 -29 -78t-72 -27h-36v33h32q35 0 50.5 18.5t15.5 56.5v106
q0 41 22 77t65 47l-141 25v8q0 97 61 153.5t173 56.5t169 -57.5t57 -161.5v-562h-32q-31 25 -59 44.5t-55.5 32.5t-55.5 19.5t-59 6.5q-58 0 -91 -24.5t-40 -78.5h-39z" />
    <glyph glyph-name="uni0E0F" unicode="&#xe0f;" horiz-adv-x="596" 
d="M112 -68q14 -58 39 -81.5t64 -23.5t64 23.5t39 81.5h36l133 -102v530q0 91 -46 139t-141 48q-91 0 -142 -43t-55 -118l156 -29v-21q-45 -11 -72.5 -38t-27.5 -76v-117q0 -51 -29 -78t-72 -27h-36v33h32q35 0 50.5 18.5t15.5 56.5v106q0 41 22 77t65 47l-141 25v8
q0 97 61 153.5t173 56.5t169 -57.5t57 -161.5v-562h-58l-128 102q-13 -56 -46.5 -81.5t-78.5 -25.5q-51 0 -89.5 32.5t-50.5 104.5h37z" />
    <glyph glyph-name="uni0E10" unicode="&#xe10;" horiz-adv-x="553" 
d="M548 620l-97 -100q25 -23 39.5 -53.5t14.5 -73.5q0 -46 -15 -92.5t-39 -95t-54.5 -99.5t-62.5 -106h-78l-118 255q-3 7 -11 7h-70v34h79q25 0 35 -23l110 -239h32q25 44 52 89.5t49.5 91t37 89.5t14.5 83q0 30 -10 58.5t-32.5 51t-58.5 36.5t-87 14q-69 0 -117 -30.5
t-73 -102.5h-38q22 85 82.5 126t149.5 41q83 0 142 -38l75 77h49zM67 -83q14 -58 39 -81.5t64 -23.5t64 23.5t39 81.5h36l133 -102v102h39v-132h-58l-128 102q-13 -56 -46.5 -81.5t-78.5 -25.5q-51 0 -89.5 32.5t-50.5 104.5h37z" />
    <glyph glyph-name="uni0E11" unicode="&#xe11;" horiz-adv-x="581" 
d="M40 577h39v-35q0 -18 9.5 -23.5t20.5 -5.5q18 0 30 13.5t26 50.5h5q36 0 56.5 -26t22.5 -62q20 17 39 34.5t38.5 31t39 22t40.5 8.5q59 0 82 -33t23 -95v-457h-39v452q0 27 -2.5 46t-10 31t-20.5 17t-33 5q-14 0 -31.5 -8.5t-37.5 -23t-41 -32.5t-43 -37
q-21 -18 -46 -39.5t-46.5 -49t-36.5 -62.5t-15 -82v-217h-40v222q0 40 11.5 73.5t31 62.5t47 55.5t58.5 52.5q0 10 -2 22t-6.5 23.5t-12 20.5t-18.5 12q-21 -65 -74 -65q-27 0 -45.5 15.5t-18.5 41.5v41z" />
    <glyph glyph-name="uni0E12" unicode="&#xe12;" horiz-adv-x="967" 
d="M423 583q110 0 110 -130v-224q0 -40 12 -76.5t35 -64.5t58 -45t81 -17q32 0 58 10t44 33.5t27.5 61.5t9.5 95v351h39v-356q0 -121 -46.5 -175t-133.5 -54q-43 0 -74.5 12t-54 33.5t-36.5 50t-22 61.5v-149h-36v453q0 11 -1 27t-8 31t-22.5 25.5t-43.5 10.5t-47 -10.5
t-31 -26t-17 -33.5t-5 -34h-34q0 16 -5 34t-17 33.5t-31 26t-47 10.5t-43.5 -10.5t-22.5 -25.5t-8.5 -31t-1.5 -27v-422q36 19 71 45.5t63 59t45.5 70.5t17.5 80h-90v33h127v-28q0 -56 -25.5 -105t-62.5 -87.5t-78.5 -64t-72.5 -34.5h-34v453q0 130 111 130q50 0 80.5 -24
t40.5 -62q10 38 40.5 62t80.5 24z" />
    <glyph glyph-name="uni0E13" unicode="&#xe13;" horiz-adv-x="924" 
d="M60 371q0 97 55 153.5t164 56.5q112 0 161.5 -57.5t49.5 -161.5v-136q0 -57 9.5 -95t27.5 -61.5t44 -33.5t58 -10q46 0 81 17t58 45t35 64.5t12 76.5v348h39v-577h-36v149q-8 -33 -22 -61.5t-36.5 -50t-54 -33.5t-74.5 -12q-87 0 -133.5 54t-46.5 175v139q0 45 -9 80
t-29.5 58.5t-53.5 36t-80 12.5q-88 0 -133 -43t-49 -118l151 -28v-21q-19 -6 -43.5 -21t-46.5 -39.5t-37 -57t-15 -73.5q0 -32 10 -53.5t28 -35t42.5 -19t53.5 -5.5h29v-33h-37q-34 0 -63.5 8t-52 25t-35.5 44.5t-13 67.5q0 37 11 66.5t29.5 53t42.5 42t51 31.5l-142 25v8z
" />
    <glyph glyph-name="uni0E14" unicode="&#xe14;" horiz-adv-x="603" 
d="M494 318q0 47 -8 88.5t-29.5 72.5t-58.5 49.5t-96 18.5q-58 0 -95.5 -18.5t-59.5 -49.5t-30 -72.5t-8 -88.5v-287q36 19 71 45.5t63 59t45.5 70.5t17.5 80h-90v33h127v-28q0 -56 -25.5 -105t-62.5 -87.5t-78.5 -64t-72.5 -34.5h-34v318q0 72 16 122.5t46 81.5t73 45
t97 14t97 -14t72.5 -45t45.5 -81.5t16 -122.5v-318h-39v318z" />
    <glyph glyph-name="uni0E15" unicode="&#xe15;" horiz-adv-x="603" 
d="M423 583q110 0 110 -130v-453h-39v453q0 11 -1 27t-8 31t-22.5 25.5t-43.5 10.5t-47 -10.5t-31 -26t-17 -33.5t-5 -34h-34q0 16 -5 34t-17 33.5t-31 26t-47 10.5t-43.5 -10.5t-22.5 -25.5t-8.5 -31t-1.5 -27v-422q36 19 71 45.5t63 59t45.5 70.5t17.5 80h-90v33h127v-28
q0 -56 -25.5 -105t-62.5 -87.5t-78.5 -64t-72.5 -34.5h-34v453q0 130 111 130q50 0 80.5 -24t40.5 -62q10 38 40.5 62t80.5 24z" />
    <glyph glyph-name="uni0E16" unicode="&#xe16;" horiz-adv-x="590" 
d="M60 371q0 97 61 153.5t173 56.5t169 -57.5t57 -161.5v-362h-39v360q0 91 -46 139t-141 48q-91 0 -142 -43t-55 -118l151 -28v-21q-19 -6 -43.5 -21t-46.5 -39.5t-37 -57t-15 -73.5q0 -32 10 -53.5t28 -35t42.5 -19t53.5 -5.5h29v-33h-37q-34 0 -63.5 8t-52 25t-35.5 44.5
t-13 67.5q0 37 11 66.5t29.5 53t42.5 42t51 31.5l-142 25v8z" />
    <glyph glyph-name="uni0E17" unicode="&#xe17;" horiz-adv-x="593" 
d="M70 577h36v-153q8 33 25.5 61.5t44 50t62 33.5t80.5 12t82.5 -13t65 -41t42.5 -71.5t15 -103.5v-352h-39v347q0 57 -13 95t-35 61.5t-52 33.5t-64 10q-48 0 -87 -17t-66.5 -45t-42.5 -64.5t-15 -76.5v-344h-39v577z" />
    <glyph glyph-name="uni0E18" unicode="&#xe18;" horiz-adv-x="558" 
d="M108 401q115 -28 190 -50.5t119.5 -46t62.5 -50.5t18 -65v-35q0 -40 -16.5 -69.5t-46 -49.5t-68.5 -30t-84 -10q-42 0 -80 10t-67 30.5t-46.5 52.5t-19.5 77v89h39v-89q2 -38 16.5 -64t38.5 -41.5t54.5 -22.5t64.5 -7q38 0 70 7t55.5 22t37 39.5t13.5 58.5v30
q0 29 -17.5 51.5t-61.5 43t-119 42.5t-191 50v31q0 45 18.5 78t49 54.5t68.5 32.5t77 11t76.5 -11.5t67 -33.5t47.5 -52.5t19 -69.5h-37q-3 32 -18.5 56.5t-39.5 41.5t-54.5 25.5t-62.5 8.5t-63 -9t-55 -27t-39 -45t-16 -64z" />
    <glyph glyph-name="uni0E19" unicode="&#xe19;" horiz-adv-x="593" 
d="M523 0h-36v149q-8 -33 -25.5 -61.5t-44 -50t-62 -33.5t-80.5 -12t-82.5 13t-65 41t-42.5 71.5t-15 103.5v356h39v-351q0 -57 13 -95t35 -61.5t52 -33.5t64 -10q48 0 87 17t66.5 45t42.5 64.5t15 76.5v348h39v-577z" />
    <glyph glyph-name="uni0E1A" unicode="&#xe1a;" horiz-adv-x="601" 
d="M531 577v-322q0 -72 -15.5 -122.5t-45.5 -81.5t-72.5 -45t-96.5 -14t-97 14t-72.5 45t-45.5 81.5t-16 122.5v322h39v-322q0 -46 8 -88t29.5 -73t59 -49.5t95.5 -18.5q59 0 96 18.5t58 49.5t29 73t8 88v322h39z" />
    <glyph glyph-name="uni0E1B" unicode="&#xe1b;" horiz-adv-x="601" 
d="M531 750v-495q0 -72 -15.5 -122.5t-45.5 -81.5t-72.5 -45t-96.5 -14t-97 14t-72.5 45t-45.5 81.5t-16 122.5v322h39v-322q0 -46 8 -88t29.5 -73t59 -49.5t95.5 -18.5q59 0 96 18.5t58 49.5t29 73t8 88v495h39z" />
    <glyph glyph-name="uni0E1C" unicode="&#xe1c;" horiz-adv-x="606" 
d="M70 462q0 51 30 83t81 32h46v-33h-42q-39 0 -57.5 -23.5t-18.5 -61.5v-402l176 262h36l176 -262v520h39v-577h-39l-194 285l-194 -285h-39v462z" />
    <glyph glyph-name="uni0E1D" unicode="&#xe1d;" horiz-adv-x="606" 
d="M70 462q0 51 30 83t81 32h46v-33h-42q-39 0 -57.5 -23.5t-18.5 -61.5v-402l176 262h36l176 -262v693h39v-750h-39l-194 285l-194 -285h-39v462z" />
    <glyph glyph-name="uni0E1E" unicode="&#xe1e;" horiz-adv-x="750" 
d="M720 577l-134 -577h-34l-177 525l-180 -525h-34l-131 577h40l111 -510l172 497h43l172 -497l112 510h40z" />
    <glyph glyph-name="uni0E1F" unicode="&#xe1f;" horiz-adv-x="750" 
d="M759 751l-172 -751h-34l-178 525l-180 -525h-34l-131 577h40l111 -510l172 497h43l172 -497l151 684h40z" />
    <glyph glyph-name="uni0E20" unicode="&#xe20;" horiz-adv-x="596" 
d="M66 371q0 97 61 153.5t173 56.5t169 -57.5t57 -161.5v-362h-39v360q0 91 -46 139t-141 48q-91 0 -142 -43t-55 -118l156 -29v-21q-45 -11 -72.5 -38t-27.5 -76v-117q0 -51 -29 -78t-72 -27h-36v33h32q35 0 50.5 18.5t15.5 56.5v106q0 41 22 77t65 47l-141 25v8z" />
    <glyph glyph-name="uni0E21" unicode="&#xe21;" horiz-adv-x="593" 
d="M70 0v577h39v-348q0 -40 15 -76.5t42.5 -64.5t66.5 -45t87 -17q34 0 64 10t52 33.5t35 61.5t13 95v351h39v-356q0 -60 -15 -103.5t-42.5 -71.5t-65 -41t-82.5 -13t-80.5 12t-62 33.5t-44 50t-25.5 61.5v-149h-36z" />
    <glyph glyph-name="uni0E22" unicode="&#xe22;" horiz-adv-x="587" 
d="M517 577v-342q0 -70 -14 -117t-42 -75t-69.5 -39.5t-95.5 -11.5q-109 0 -170.5 41.5t-61.5 132.5q0 32 10.5 55t28.5 39t42.5 26t52.5 16q-27 5 -52 16t-44 29t-30.5 42t-11.5 55q0 66 39.5 99.5t105.5 33.5h65v-33h-64q-54 0 -82 -27.5t-28 -72.5q0 -34 18 -58t45 -39
t57 -21.5t54 -6.5h49v-33h-49q-22 0 -51.5 -4.5t-55.5 -18t-44 -36.5t-18 -61q0 -28 8.5 -53.5t30 -45t59.5 -30.5t97 -11t95 15t56 43t26.5 66.5t6.5 84.5v342h37z" />
    <glyph glyph-name="uni0E23" unicode="&#xe23;" horiz-adv-x="514" 
d="M270 310q43 -11 78 -23.5t60 -30t38.5 -42.5t13.5 -62t-14.5 -66.5t-41 -49.5t-62.5 -30.5t-79 -10.5q-87 0 -142.5 43.5t-66.5 121.5h37q10 -64 55.5 -98t114.5 -34q35 0 64.5 7.5t51 23t33.5 39.5t12 56q0 25 -9 43t-31.5 33t-60.5 29t-97 29q-82 22 -120.5 54
t-38.5 86q0 33 12.5 61t36.5 48.5t59.5 32t81.5 11.5q88 0 140.5 -43.5t57.5 -121.5h-37q-5 63 -48 97.5t-112 34.5q-72 0 -112.5 -33.5t-40.5 -86.5q0 -22 8 -38t27 -29.5t51.5 -25.5t80.5 -25z" />
    <glyph glyph-name="uni0E24" unicode="&#xe24;" horiz-adv-x="590" 
d="M60 371q0 97 61 153.5t173 56.5t169 -57.5t57 -161.5v-562h-39v560q0 91 -46 139t-141 48q-91 0 -142 -43t-55 -118l151 -28v-21q-19 -6 -43.5 -21t-46.5 -39.5t-37 -57t-15 -73.5q0 -32 10 -53.5t28 -35t42.5 -19t53.5 -5.5h29v-33h-37q-34 0 -63.5 8t-52 25t-35.5 44.5
t-13 67.5q0 37 11 66.5t29.5 53t42.5 42t51 31.5l-142 25v8z" />
    <glyph glyph-name="uni0E25" unicode="&#xe25;" horiz-adv-x="578" 
d="M508 0h-39v285l-180 -9q-42 -2 -78 -9t-62 -21.5t-40.5 -38.5t-14.5 -61q0 -57 35.5 -85t104.5 -28h47v-33h-48q-89 0 -134 37.5t-45 108.5q0 50 20.5 81.5t54 49.5t75.5 25t85 9l180 8v47q0 36 -8 68.5t-27.5 57.5t-52.5 40t-83 15q-69 0 -121.5 -32t-71.5 -101h-39
q9 43 30.5 74.5t52 52t69 30.5t80.5 10q46 0 84.5 -12t66.5 -38t43.5 -67t15.5 -98v-366z" />
    <glyph glyph-name="uni0E26" unicode="&#xe26;" horiz-adv-x="596" 
d="M66 371q0 97 61 153.5t173 56.5t169 -57.5t57 -161.5v-562h-39v560q0 91 -46 139t-141 48q-91 0 -142 -43t-55 -118l156 -29v-21q-45 -11 -72.5 -38t-27.5 -76v-117q0 -51 -29 -78t-72 -27h-36v33h32q35 0 50.5 18.5t15.5 56.5v106q0 41 22 77t65 47l-141 25v8z" />
    <glyph glyph-name="uni0E27" unicode="&#xe27;" horiz-adv-x="544" 
d="M260 581q107 0 168.5 -74t61.5 -218q0 -145 -61.5 -219t-168.5 -74q-78 0 -134.5 40.5t-75.5 126.5h39q20 -69 64.5 -101t107.5 -32q56 0 92.5 23t58 60t30 83.5t8.5 92.5t-8.5 92t-30 83t-58 60t-92.5 23q-63 0 -107.5 -32t-64.5 -101h-39q19 86 75.5 126.5t134.5 40.5z
" />
    <glyph glyph-name="uni0E28" unicode="&#xe28;" horiz-adv-x="588" 
d="M94 96q-5 30 -11.5 57t-12.5 55.5t-10.5 61t-4.5 72.5q0 72 15.5 118.5t45.5 73.5t72.5 37t96.5 10q46 0 85.5 -10t64.5 -28l74 77h49l-97 -99q26 -26 40.5 -69.5t14.5 -109.5v-342h-39v342q0 47 -8 85t-29.5 64.5t-58.5 41t-96 14.5q-58 0 -95.5 -14.5t-59 -41
t-29.5 -64.5t-8 -85q0 -64 9.5 -111t20.5 -94q9 23 25 54.5t36.5 60t46 48t53.5 19.5h61v-34h-49q-28 0 -54.5 -23t-48.5 -54.5t-37.5 -63t-22.5 -48.5v-96h-39v96z" />
    <glyph glyph-name="uni0E29" unicode="&#xe29;" horiz-adv-x="608" 
d="M492 319v258h39v-258h67v-33h-67v-31q0 -72 -15.5 -122.5t-45.5 -81.5t-72.5 -45t-96.5 -14t-97 14t-72.5 45t-45.5 81.5t-16 122.5v322h39v-322q0 -46 8 -88t29.5 -73t59 -49.5t95.5 -18.5q59 0 96 18.5t58 49.5t29 73t8 88v31h-92q-42 0 -67.5 8t-38.5 22t-17 33.5
t-4 42.5v7h36v-7q0 -22 3.5 -36.5t14.5 -22.5t30.5 -11t50.5 -3h84z" />
    <glyph glyph-name="uni0E2A" unicode="&#xe2a;" horiz-adv-x="580" 
d="M508 0h-39v285l-180 -9q-42 -2 -78 -9t-62 -21.5t-40.5 -38.5t-14.5 -61q0 -57 35.5 -85t104.5 -28h47v-33h-48q-89 0 -134 37.5t-45 108.5q0 50 20.5 81.5t54 49.5t75.5 25t85 9l180 8v47q0 36 -8 68.5t-27.5 57.5t-52.5 40t-83 15q-69 0 -121.5 -32t-71.5 -101h-39
q9 43 30.5 74.5t52 52t69 30.5t80.5 10q40 0 74.5 -9t60.5 -29l75 77h49l-99 -102q50 -48 50 -152v-366z" />
    <glyph glyph-name="uni0E2B" unicode="&#xe2b;" horiz-adv-x="568" 
d="M109 320l149 16q103 10 155 45.5t52 113.5v82h39v-82q0 -35 -10.5 -63t-28 -49t-41 -35t-49.5 -21q23 -5 46 -14.5t41.5 -26t30 -42t11.5 -61.5v-183h-39v183q0 35 -16 59.5t-39 39.5t-48 21t-43 4l-210 -22v-285h-39v577h39v-257z" />
    <glyph glyph-name="uni0E2C" unicode="&#xe2c;" horiz-adv-x="739" 
d="M759 708q-6 -36 -19.5 -63t-32 -46t-41.5 -29.5t-48 -13.5q47 -14 59.5 -57t-4.5 -118l-86 -381h-33l-179 525l-181 -525h-33l-131 577h40l111 -510l171 497h44l172 -497l69 314q8 36 11 65.5t-5 51.5t-30.5 34t-66.5 12v33q87 0 127.5 32t48.5 99h37z" />
    <glyph glyph-name="uni0E2D" unicode="&#xe2d;" horiz-adv-x="594" 
d="M148 286q-19 0 -30.5 -10t-17.5 -23.5t-7.5 -28.5t-1.5 -25q0 -36 13.5 -67.5t39.5 -55t63 -37t85 -13.5q63 0 103.5 23t64 60.5t32.5 84t9 93.5q0 46 -10 92t-35 83.5t-66 61t-104 23.5q-29 0 -59.5 -8t-57.5 -24t-48 -41t-31 -60h-38q9 43 32.5 74.5t56 52t70.5 30.5
t75 10q58 0 105 -19t80 -56.5t51 -92t18 -126.5q0 -146 -66 -220.5t-182 -74.5q-62 0 -106.5 17.5t-73.5 46.5t-42.5 67t-13.5 79q0 21 4 42t14.5 37.5t29.5 27t49 10.5h119v-33h-124z" />
    <glyph glyph-name="uni0E2E" unicode="&#xe2e;" horiz-adv-x="594" 
d="M558 620l-101 -104q39 -37 61 -94t22 -135q0 -146 -66 -220.5t-182 -74.5q-62 0 -106.5 17.5t-73.5 46.5t-42.5 67t-13.5 79q0 21 4 42t14.5 37.5t29.5 27t49 10.5h119v-33h-124q-19 0 -30.5 -10t-17.5 -23.5t-7.5 -28.5t-1.5 -25q0 -36 13.5 -67.5t39.5 -55t63 -37
t85 -13.5q63 0 103.5 23t64 60.5t32.5 84t9 93.5q0 46 -10 92t-35 83.5t-66 61t-104 23.5q-29 0 -59.5 -8t-57.5 -24t-48 -41t-31 -60h-38q9 43 32.5 74.5t56 52t70.5 30.5t75 10q42 0 78.5 -11t65.5 -31l79 81h49z" />
    <glyph glyph-name="uni0E2F" unicode="&#xe2f;" horiz-adv-x="555" 
d="M436 0v385q-17 -58 -68.5 -96t-126.5 -38q-42 0 -77 11t-60.5 32.5t-39.5 53t-14 72.5t13.5 71t35.5 50t50.5 30t57.5 10h56v-32h-55q-22 0 -43.5 -7.5t-38.5 -23t-27 -40t-10 -57.5q0 -36 12 -61.5t32.5 -42t48.5 -24.5t59 -8q41 0 76.5 15.5t62 41.5t41.5 61t15 75v99
h39v-577h-39z" />
    <glyph glyph-name="uni0E30" unicode="&#xe30;" horiz-adv-x="382" 
d="M322 404v-33h-135q-42 0 -67.5 9.5t-38.5 25.5t-17 37t-4 44v7h36v-7q0 -22 3.5 -38t14.5 -26t30.5 -14.5t50.5 -4.5h127zM322 107v-33h-135q-42 0 -67.5 9.5t-38.5 25.5t-17 37t-4 44v7h36v-7q0 -22 3.5 -38t14.5 -26t30.5 -14.5t50.5 -4.5h127z" />
    <glyph glyph-name="uni0E31" unicode="&#xe31;" 
d="M-25 718v-33h-255q-42 0 -67.5 9.5t-38.5 25.5t-17 37t-4 44v7h36v-7q0 -22 3.5 -38t14.5 -26t30 -14.5t51 -4.5h247z" />
    <glyph glyph-name="uni0E32" unicode="&#xe32;" horiz-adv-x="477" 
d="M368 0v412q0 38 -13.5 63.5t-34.5 41t-46.5 22.5t-49.5 7q-48 0 -90 -12t-90 -33v37q46 21 90 32t94 11q39 0 72 -11.5t57 -33.5t37 -53.5t13 -70.5v-412h-39z" />
    <glyph glyph-name="uni0E33" unicode="&#xe33;" horiz-adv-x="477" 
d="M-167 846q19 0 36.5 -7.5t31 -20t21.5 -29.5t8 -37q0 -19 -8 -36t-21.5 -29.5t-31 -19.5t-36.5 -7t-36.5 7t-30.5 19.5t-21 29.5t-8 36q0 20 8 37t21 29.5t30.5 20t36.5 7.5zM-167 693q25 0 43 17.5t18 41.5q0 26 -18 43t-43 17q-24 0 -42 -17t-18 -43q0 -24 18 -41.5
t42 -17.5zM368 0v412q0 38 -13.5 63.5t-34.5 41t-46.5 22.5t-49.5 7q-48 0 -90 -12t-90 -33v37q46 21 90 32t94 11q39 0 72 -11.5t57 -33.5t37 -53.5t13 -70.5v-412h-39z" />
    <glyph glyph-name="uni0E34" unicode="&#xe34;" 
d="M-500 685v33h430v-33h-430z" />
    <glyph glyph-name="uni0E35" unicode="&#xe35;" 
d="M-500 718h391v106h39v-139h-430v33z" />
    <glyph glyph-name="uni0E36" unicode="&#xe36;" 
d="M-500 685v33h306q-10 18 -10 39q0 32 20 52t52 20t52 -20t20 -52t-20 -52t-52 -20h-368zM-171 757q0 -17 11 -28t28 -11t28 11t11 28t-11 28t-28 11t-28 -11t-11 -28z" />
    <glyph glyph-name="uni0E37" unicode="&#xe37;" 
d="M-500 718h278v86h35v-86h82v86h35v-119h-430v33z" />
    <glyph glyph-name="uni0E38" unicode="&#xe38;" 
d="M-72 -270h-37v137h-104v33h141v-170z" />
    <glyph glyph-name="uni0E39" unicode="&#xe39;" 
d="M-72 -100v-74q0 -29 -8.5 -48.5t-23 -31.5t-32.5 -17t-36 -5q-17 0 -35 5t-32 16t-23 29.5t-9 45.5v48h-67v32h103v-76q0 -20 5.5 -33.5t14.5 -21.5t20.5 -11.5t22.5 -3.5q25 0 44.5 15t19.5 57v74h36z" />
    <glyph glyph-name="uni0E3A" unicode="&#xe3a;" 
d="M-175 -152q0 23 15 38t38 15q22 0 37 -15t15 -38q0 -22 -15 -37.5t-37 -15.5q-23 0 -38 15.5t-15 37.5z" />
    <glyph glyph-name="uni0E3F" unicode="&#xe3f;" horiz-adv-x="590" 
d="M294 700q48 -1 86.5 -14t65.5 -35.5t41.5 -53t14.5 -68.5q0 -31 -9.5 -60t-27.5 -52t-43.5 -39.5t-56.5 -22.5v-3q37 -4 68.5 -17t55 -34.5t37 -51.5t13.5 -68q0 -86 -63 -133.5t-174 -47.5h-8v-104h-39v104h-191v700h191v98h39v-98zM103 367h180q41 0 74 12t56.5 33.5
t36.5 51t13 63.5q0 63 -49.5 101t-134.5 38h-176v-299zM299 34q96 0 148.5 38t52.5 109q0 73 -55 112t-155 39h-187v-298h196z" />
    <glyph glyph-name="uni0E40" unicode="&#xe40;" horiz-adv-x="269" 
d="M201 0q-23 0 -45 8.5t-39 26t-27 42.5t-10 58v442h39v-439q0 -54 24 -79.5t62 -25.5h42v-33h-46z" />
    <glyph glyph-name="uni0E41" unicode="&#xe41;" horiz-adv-x="519" 
d="M201 0q-23 0 -45 8.5t-39 26t-27 42.5t-10 58v442h39v-439q0 -54 24 -79.5t62 -25.5h42v-33h-46zM451 0q-23 0 -45 8.5t-39 26t-27 42.5t-10 58v442h39v-439q0 -54 24 -79.5t62 -25.5h42v-33h-46z" />
    <glyph glyph-name="uni0E42" unicode="&#xe42;" horiz-adv-x="299" 
d="M231 0q-23 0 -45 8.5t-39 26t-27 42.5t-10 58v410q0 41 -12 66t-29.5 39t-37.5 21t-36 12v20q0 19 7 39t22.5 36t41 26.5t61.5 10.5h173v-33h-173q-24 0 -42.5 -7.5t-31 -18.5t-19 -25t-6.5 -26q26 -8 48 -19.5t38 -29t25.5 -43t9.5 -61.5v-414q0 -54 24 -79.5t62 -25.5
h42v-33h-46z" />
    <glyph glyph-name="uni0E43" unicode="&#xe43;" horiz-adv-x="309" 
d="M241 0q-23 0 -45 8.5t-39 26t-27 42.5t-10 58v348q0 32 19 57.5t42.5 50.5t42.5 51t19 58q0 41 -24 68.5t-80 27.5q-57 0 -82 -29t-25 -80h-33q0 30 8 56.5t25.5 45.5t44 30t62.5 11q73 0 107.5 -36t34.5 -94q0 -39 -19 -66.5t-42 -52.5t-42 -50t-19 -59v-334
q0 -54 24 -79.5t62 -25.5h42v-33h-46z" />
    <glyph glyph-name="uni0E44" unicode="&#xe44;" horiz-adv-x="309" 
d="M241 0q-23 0 -45 8.5t-39 26t-27 42.5t-10 58v372q0 46 10.5 79.5t27 57t37 38t40.5 20.5q0 35 -16 55.5t-42 24.5q-10 -33 -33 -59t-65 -26q-27 0 -50.5 18t-23.5 59v41h39v-35q0 -15 4.5 -25t10.5 -15t13 -7t12 -2q29 0 45.5 23.5t30.5 60.5h5q50 0 79 -33t29 -79v-15
q-24 -9 -44.5 -21t-36 -33t-24.5 -55.5t-9 -88.5v-352q0 -54 24 -79.5t62 -25.5h42v-33h-46z" />
    <glyph glyph-name="uni0E45" unicode="&#xe45;" horiz-adv-x="477" 
d="M368 -200v612q0 38 -13.5 63.5t-34.5 41t-46.5 22.5t-49.5 7q-48 0 -90 -12t-90 -33v37q46 21 90 32t94 11q39 0 72 -11.5t57 -33.5t37 -53.5t13 -70.5v-612h-39z" />
    <glyph glyph-name="uni0E46" unicode="&#xe46;" horiz-adv-x="541" 
d="M423 -120v511q0 11 -1 27t-8 31t-22 25.5t-42 10.5q-20 0 -34 -9.5t-23 -24.5t-13.5 -32.5t-4.5 -32.5h-38q0 15 -4.5 32.5t-14 32.5t-23.5 24.5t-34 9.5q-27 0 -41.5 -10.5t-21 -25.5t-8 -31t-1.5 -27v-56q0 -59 30 -87.5t83 -28.5h61v-33h-62q-66 0 -108.5 38.5
t-42.5 110.5v56q0 66 25.5 97.5t85.5 31.5q39 0 64 -27t31 -69q6 42 31 69t63 27q59 0 85 -31.5t26 -97.5v-511h-38z" />
    <glyph glyph-name="uni0E47" unicode="&#xe47;" 
d="M-334 840q-40 0 -56.5 -17.5t-16.5 -45.5q0 -29 16.5 -44.5t39.5 -15.5q24 0 43 16.5t19 46.5h30q0 -30 20.5 -46.5t42.5 -16.5h52v-32h-49q-26 0 -48.5 14t-32.5 40q-8 -26 -30.5 -40t-51.5 -14q-35 0 -60.5 23t-25.5 68t27.5 71t80.5 26h223v-33h-223z" />
    <glyph glyph-name="uni0E48" unicode="&#xe48;" 
d="M-108 880v191h37v-191h-37z" />
    <glyph glyph-name="uni0E49" unicode="&#xe49;" 
d="M-10 913v-33h-209q-24 0 -36.5 7t-18 17.5t-6.5 23.5t-1 24q0 16 -3 28t-21 12h-65v31h64q34 0 48.5 -15t14.5 -50q0 -28 5 -36.5t28 -8.5h200z" />
    <glyph glyph-name="uni0E4A" unicode="&#xe4a;" 
d="M-358 880q-23 0 -38 7.5t-25 19.5t-14 27.5t-4 31.5q0 42 19 65t57 23q26 0 45.5 -14t25.5 -40q5 26 23.5 40t44.5 14q38 0 55 -22.5t17 -70.5v-54q23 0 35.5 10t12.5 35v122h34v-117q0 -42 -21.5 -59.5t-53.5 -17.5h-39v86q0 26 -9 41t-35 15q-22 0 -35.5 -16.5
t-13.5 -46.5h-30q0 30 -15.5 46.5t-37.5 16.5q-26 0 -35.5 -15t-9.5 -41q0 -20 10 -38t37 -18h33v-30h-33z" />
    <glyph glyph-name="uni0E4B" unicode="&#xe4b;" 
d="M-53 958h-95v-78h-34v78h-95v29h95v78h34v-78h95v-29z" />
    <glyph glyph-name="uni0E4C" unicode="&#xe4c;" 
d="M-172 905q-32 0 -51 -4.5t-30 -14.5t-14.5 -25.5t-3.5 -38.5v-7h-36v7q0 23 4 44t17 37t38.5 25.5t67.5 9.5h145v-33h-137z" />
    <glyph glyph-name="uni0E4D" unicode="&#xe4d;" 
d="M-167 846q19 0 36.5 -7.5t31 -20t21.5 -29.5t8 -37q0 -19 -8 -36t-21.5 -29.5t-31 -19.5t-36.5 -7t-36.5 7t-30.5 19.5t-21 29.5t-8 36q0 20 8 37t21 29.5t30.5 20t36.5 7.5zM-167 693q25 0 43 17.5t18 41.5q0 26 -18 43t-43 17q-24 0 -42 -17t-18 -43q0 -24 18 -41.5
t42 -17.5z" />
    <glyph glyph-name="uni0E4E" unicode="&#xe4e;" 
 />
    <glyph glyph-name="uni0E4F" unicode="&#xe4f;" horiz-adv-x="528" 
d="M264 527q43 0 81 -16.5t66.5 -45t45 -67t16.5 -81.5t-16.5 -81.5t-45 -66.5t-66.5 -44.5t-81 -16.5t-81.5 16.5t-66.5 44.5t-44.5 66.5t-16.5 81.5t16.5 81.5t44.5 67t66.5 45t81.5 16.5zM264 147q35 0 65 13.5t52.5 36.5t35.5 54t13 66t-13 65t-35.5 52.5t-52.5 35.5
t-65 13t-66 -13t-54 -35.5t-36.5 -52.5t-13.5 -65t13.5 -66t36.5 -54t54 -36.5t66 -13.5zM264 442q26 0 48.5 -9.5t39 -26.5t26.5 -39.5t10 -49.5q0 -26 -10 -49t-26.5 -40t-39 -27t-48.5 -10t-49 10t-40 27t-27 40t-10 49q0 27 10 49.5t27 39.5t40 26.5t49 9.5zM264 228
q38 0 62 26t24 63q0 38 -24 62t-62 24q-37 0 -63 -24t-26 -62q0 -37 26 -63t63 -26z" />
    <glyph glyph-name="uni0E50" unicode="&#xe50;" horiz-adv-x="601" 
d="M300 513q50 0 96 -18t80.5 -52t55 -82.5t20.5 -108.5t-20.5 -108t-55 -81.5t-80.5 -52t-96 -18.5t-95.5 18.5t-80 52t-55 81.5t-20.5 108t20.5 108.5t55 82.5t80 52t95.5 18zM300 26q42 0 81 16t68.5 45t47.5 71t18 94q0 53 -18 95t-47.5 71.5t-68.5 45t-81 15.5
t-80 -15.5t-67.5 -45t-47 -71.5t-17.5 -95q0 -52 17.5 -94t47 -71.5t67.5 -45t80 -15.5z" />
    <glyph glyph-name="uni0E51" unicode="&#xe51;" horiz-adv-x="607" 
d="M296 94q-46 -4 -90.5 5.5t-79.5 33t-56 60t-21 87.5q0 60 20.5 104t55 72.5t80 42.5t95.5 14t96.5 -18.5t82.5 -53.5t57.5 -86t21.5 -116q0 -53 -16.5 -105.5t-48.5 -94t-80 -67.5t-111 -26q-28 0 -60 6v36q16 -4 30.5 -5.5t28.5 -1.5q51 0 92 21t69.5 56t44 82t15.5 99
q0 58 -19 102.5t-50 75t-71 46.5t-82 16t-80 -11.5t-67.5 -35.5t-47 -61.5t-17.5 -90.5q0 -43 19 -73.5t49 -49t67 -25t73 -2.5v-36z" />
    <glyph glyph-name="uni0E52" unicode="&#xe52;" horiz-adv-x="691" 
d="M66 682h38v-457q0 -52 19.5 -90t53 -62t77 -35.5t91.5 -11.5q53 0 97 11.5t76.5 36t50.5 62t18 89.5v158q0 11 -3.5 27t-12.5 31t-26 26t-44 11q-20 0 -33.5 -9t-22.5 -22.5t-14 -30.5t-8 -33h-34q-3 16 -8 33t-14 30.5t-22.5 22.5t-33.5 9q-27 0 -43.5 -11t-26 -26
t-13 -31t-3.5 -27v-56q0 -58 27.5 -87t72.5 -29q19 0 35.5 1.5t39.5 5.5v-31q-23 -5 -39.5 -6.5t-36.5 -1.5q-59 0 -98 38t-39 110v56q0 66 32 98t92 32q39 0 63 -24.5t32 -66.5q8 42 32 66.5t63 24.5q59 0 91.5 -32t32.5 -98v-158q0 -60 -21 -104t-58.5 -72.5t-88.5 -42.5
t-112 -14q-60 0 -111.5 14t-88.5 42.5t-58 72.5t-21 104v457z" />
    <glyph glyph-name="uni0E53" unicode="&#xe53;" horiz-adv-x="642" 
d="M442 513q64 0 99 -32t35 -98v-383h-38v383q0 11 -2.5 27t-12 31t-29 26t-52.5 11q-22 0 -38 -9t-26.5 -22.5t-16.5 -30.5t-9 -33h-32q-3 16 -9 33t-17 30.5t-27 22.5t-39 9q-40 0 -65.5 -20.5t-40 -53.5t-20 -74t-5.5 -82t8 -80t29.5 -69.5t59 -49.5t96.5 -19
q13 0 30.5 0.5t27.5 2.5v-32q-11 -3 -28 -4t-30 -1q-108 0 -169 59.5t-61 192.5q0 60 9.5 108.5t30 83.5t52 54t76.5 19q40 0 69.5 -24.5t38.5 -66.5q8 42 38 66.5t68 24.5z" />
    <glyph glyph-name="uni0E54" unicode="&#xe54;" horiz-adv-x="654" 
d="M311 471q-42 0 -80.5 -14.5t-67.5 -42t-46.5 -68.5t-17.5 -94q0 -52 17.5 -93t46.5 -68.5t67.5 -42t80.5 -14.5q28 0 59.5 5.5t52.5 17.5q-47 45 -47 104q0 68 39 106.5t105 38.5q28 0 56 -7v-32q-12 2 -23 3.5t-22 1.5q-58 0 -88.5 -31.5t-30.5 -79.5q0 -34 16.5 -58.5
t41.5 -40.5t53.5 -23.5t52.5 -7.5h36v-31h-28q-43 0 -78.5 10.5t-61.5 30.5q-19 -17 -57.5 -29t-75.5 -12q-50 0 -95.5 17t-80 49.5t-55 79t-20.5 106.5t20.5 107.5t55 79.5t80 49t95.5 17h156q57 0 85.5 24t26.5 81h33q5 -67 -33.5 -103t-111.5 -36h-156z" />
    <glyph glyph-name="uni0E55" unicode="&#xe55;" horiz-adv-x="654" 
d="M612 0h-28q-43 0 -78.5 10.5t-61.5 30.5q-19 -17 -57.5 -29t-75.5 -12q-50 0 -95.5 17t-80 49.5t-55 79t-20.5 106.5q0 56 17.5 100t47 76t69.5 51.5t85 24.5q-28 25 -28 66q0 21 8 39.5t21.5 32t31.5 21.5t39 8t39.5 -8t32 -21.5t21.5 -32t8 -39.5q0 -20 -7.5 -36.5
t-19.5 -28.5h42q57 0 85.5 24t26.5 81h33q5 -67 -33.5 -103t-111.5 -36h-156q-42 0 -80.5 -14.5t-67.5 -42t-46.5 -68.5t-17.5 -94q0 -52 17.5 -93t46.5 -68.5t67.5 -42t80.5 -14.5q28 0 59.5 5.5t52.5 17.5q-47 45 -47 104q0 68 39 106.5t105 38.5q28 0 56 -7v-32
q-12 2 -23 3.5t-22 1.5q-58 0 -88.5 -31.5t-30.5 -79.5q0 -34 16.5 -58.5t41.5 -40.5t53.5 -23.5t52.5 -7.5h36v-31zM351 505q29 0 48 18t19 47q0 30 -19 48.5t-48 18.5t-48 -18.5t-19 -48.5q0 -29 19 -47t48 -18z" />
    <glyph glyph-name="uni0E56" unicode="&#xe56;" horiz-adv-x="639" 
d="M283 266q-27 3 -51 3q-51 0 -82 -22t-31 -85q0 -35 16.5 -61t44.5 -42.5t64.5 -24.5t76.5 -8q42 0 82 13t70.5 40t49.5 69t19 100q0 109 -58.5 170t-170.5 61q-42 0 -83 -15.5t-67 -41.5h-37l-131 206h41l114 -182q18 26 60 46.5t103 20.5q71 0 121.5 -21t82.5 -57.5
t47 -84.5t15 -102q0 -65 -21.5 -113.5t-57.5 -80t-82.5 -47t-96.5 -15.5t-94 11t-76.5 32t-51 53t-18.5 74q0 46 14 75t40.5 44.5t64 20t83.5 0.5v-36z" />
    <glyph glyph-name="uni0E57" unicode="&#xe57;" horiz-adv-x="834" 
d="M730 682h38v-573q0 -31 -11 -52.5t-29 -35t-39.5 -19.5t-42.5 -6t-42.5 6t-39.5 19.5t-29 35t-11 52.5v274q0 11 -1.5 27t-9.5 31t-26 26t-51 11q-22 0 -38.5 -9t-27 -22.5t-16.5 -30.5t-9 -33h-32q-3 16 -9 33t-17 30.5t-27 22.5t-39 9q-40 0 -64 -20.5t-37.5 -53.5
t-18 -74t-4.5 -82t8 -80t29.5 -69.5t59 -49.5t96.5 -19q13 0 30.5 0.5t27.5 2.5v-32q-11 -3 -28 -4t-30 -1q-108 0 -169 59.5t-61 192.5q0 60 8.5 108.5t27.5 83.5t50 54t75 19q41 0 70 -24.5t38 -66.5q8 42 38 66.5t69 24.5q126 0 126 -130v-274q0 -24 7.5 -39.5
t19.5 -24.5t27 -12t30 -3q14 0 29 4t27 13t20 24t8 38v573z" />
    <glyph glyph-name="uni0E58" unicode="&#xe58;" horiz-adv-x="638" 
d="M290 471q-59 -1 -96.5 -19t-59 -47.5t-29.5 -68t-8 -79.5t5.5 -81.5t20 -72.5t40 -52t65.5 -20q23 0 39 9t27 22.5t17 30.5t9 33h32q3 -16 9 -33t16.5 -30.5t26.5 -22.5t38 -9q33 0 52.5 11t29 26t12 31t2.5 27v57q0 59 -27.5 87.5t-72.5 28.5q-18 0 -35 -1.5t-40 -5.5
v31q23 5 40 7t37 2q58 0 97 -38.5t39 -110.5v-57q0 -66 -35 -98t-99 -32q-38 0 -68 24.5t-38 66.5q-9 -42 -38.5 -66.5t-69.5 -24.5q-45 0 -76.5 18.5t-52 52.5t-30 82t-9.5 108q0 67 15.5 114t45.5 77t72.5 43.5t96.5 13.5h161q57 0 85 24t26 81h33q5 -67 -33.5 -103
t-110.5 -36h-161z" />
    <glyph glyph-name="uni0E59" unicode="&#xe59;" horiz-adv-x="690" 
d="M541 383q0 11 -2.5 27t-12 31t-28.5 26t-52 11q-21 0 -35 -7.5t-24 -19.5t-16 -27t-9 -30l192 -394h-38l-188 383q-7 15 -15 31.5t-19.5 30.5t-26.5 23.5t-36 9.5q-40 0 -65.5 -20.5t-40 -53.5t-20 -74t-5.5 -82t8 -80t29 -69.5t58.5 -49.5t96.5 -19q14 0 31 0.5t28 2.5
v-32q-11 -3 -28 -4t-31 -1q-54 0 -96.5 14.5t-72 45t-45 78t-15.5 114.5q0 60 9.5 108.5t30 83.5t52 54t76.5 19q39 0 68.5 -26t43.5 -68q5 43 35 68.5t68 25.5q46 0 77.5 -23.5t40.5 -65.5l104 165h40l-131 -206h-36z" />
    <glyph glyph-name="uni0E5A" unicode="&#xe5a;" horiz-adv-x="753" 
d="M436 0v385q-17 -58 -68.5 -96t-126.5 -38q-42 0 -77 11t-60.5 32.5t-39.5 53t-14 72.5t13.5 71t35.5 50t50.5 30t57.5 10h56v-32h-55q-22 0 -43.5 -7.5t-38.5 -23t-27 -40t-10 -57.5q0 -36 12 -61.5t32.5 -42t48.5 -24.5t59 -8q41 0 76.5 15.5t62 41.5t41.5 61t15 75v99
h39v-577h-39zM626 0v577h39v-577h-39z" />
    <glyph glyph-name="uni0E5B" unicode="&#xe5b;" horiz-adv-x="881" 
d="M301 312q0 26 -4 50t-14 43t-28 30.5t-48 11.5q-35 0 -57 -15.5t-34.5 -39.5t-17 -52.5t-4.5 -54.5q0 -53 14 -90t36.5 -60t51 -33.5t58.5 -10.5q41 0 70.5 17t50.5 45.5t34 66t20 78t9.5 81.5t2.5 77h49l61 -312l48 272h48q0 -25 2.5 -48.5t12 -41t28.5 -28t52 -10.5h79
v-33h-79q-15 0 -34 2.5t-36 15.5t-30.5 39.5t-18.5 74.5l-51 -276h-43l-63 320q1 -76 -10 -143.5t-36.5 -118t-66.5 -80t-100 -29.5q-41 0 -76.5 15.5t-61.5 45t-40.5 73t-14.5 98.5q0 36 7 70t24 60.5t45 42.5t70 16q39 0 63.5 -14t39 -37t20 -54t5.5 -64h-33z" />
    <glyph glyph-name="endash" unicode="&#x2013;" horiz-adv-x="476" 
d="M418 300h-360v34h360v-34z" />
    <glyph glyph-name="emdash" unicode="&#x2014;" horiz-adv-x="667" 
d="M609 300h-551v34h551v-34z" />
    <glyph glyph-name="quoteleft" unicode="&#x2018;" horiz-adv-x="194" 
d="M157 700l-68 -215h-52l82 215h38z" />
    <glyph glyph-name="quoteright" unicode="&#x2019;" horiz-adv-x="194" 
d="M37 485l68 215h52l-82 -215h-38z" />
    <glyph glyph-name="quotesinglbase" unicode="&#x201a;" horiz-adv-x="149" 
d="M10 -123l54 212h48l-67 -212h-35z" />
    <glyph glyph-name="quotedblleft" unicode="&#x201c;" horiz-adv-x="325" 
d="M154 700l-68 -215h-49l82 215h35zM288 700l-68 -215h-49l82 215h35z" />
    <glyph glyph-name="quotedblright" unicode="&#x201d;" horiz-adv-x="325" 
d="M171 485l68 215h49l-82 -215h-35zM37 485l68 215h49l-82 -215h-35z" />
    <glyph glyph-name="quotedblbase" unicode="&#x201e;" horiz-adv-x="288" 
d="M10 -123l54 212h48l-67 -212h-35zM149 -123l55 212h47l-67 -212h-35z" />
    <glyph glyph-name="dagger" unicode="&#x2020;" horiz-adv-x="549" 
d="M255 488v212h39v-212h184v-34h-184v-454h-39v454h-184v34h184z" />
    <glyph glyph-name="daggerdbl" unicode="&#x2021;" horiz-adv-x="549" 
d="M255 488v212h39v-212h184v-34h-184v-208h184v-35h-184v-211h-39v211h-184v35h184v208h-184v34h184z" />
    <glyph glyph-name="bullet" unicode="&#x2022;" horiz-adv-x="350" 
d="M176 227q-37 0 -64 26t-27 64t27 64t64 26t63 -26t26 -64q0 -18 -7 -34t-19 -28.5t-28.5 -20t-34.5 -7.5z" />
    <glyph glyph-name="ellipsis" unicode="&#x2026;" horiz-adv-x="489" 
d="M36 40q0 15 11 26.5t28 11.5q16 0 27.5 -11.5t11.5 -26.5q0 -17 -11.5 -28.5t-27.5 -11.5q-17 0 -28 11.5t-11 28.5zM206 40q0 15 11.5 26.5t28.5 11.5q15 0 26.5 -11.5t11.5 -26.5q0 -17 -11.5 -28.5t-26.5 -11.5q-17 0 -28.5 11.5t-11.5 28.5zM376 40q0 15 11 26.5
t28 11.5q16 0 27 -11.5t11 -26.5q0 -17 -11 -28.5t-27 -11.5q-17 0 -28 11.5t-11 28.5z" />
    <glyph glyph-name="perthousand" unicode="&#x2030;" horiz-adv-x="1023" 
d="M47 551q0 72 36.5 114.5t98.5 42.5t98.5 -42.5t36.5 -114.5q0 -71 -36.5 -113t-98.5 -42t-98.5 42t-36.5 113zM573 700l-413 -700h-45l413 700h45zM82 551q0 -57 26.5 -90t73.5 -33q46 0 72.5 33t26.5 90q0 58 -26.5 90.5t-72.5 32.5q-48 0 -74 -32t-26 -91zM370 149
q0 71 36.5 113t98.5 42q63 0 100 -42t37 -113t-37 -113.5t-100 -42.5q-62 0 -98.5 42.5t-36.5 113.5zM704 149q0 71 37 113t98 42q63 0 100 -42t37 -113t-37 -113.5t-100 -42.5q-61 0 -98 42.5t-37 113.5zM406 149q0 -57 26.5 -90t72.5 -33q47 0 74 33t27 90t-27 90t-74 33
q-46 0 -72.5 -33t-26.5 -90zM740 149q0 -57 26.5 -90t72.5 -33q47 0 74 33t27 90t-27 90t-74 33q-46 0 -72.5 -33t-26.5 -90z" />
    <glyph glyph-name="guilsinglleft" unicode="&#x2039;" horiz-adv-x="566" 
d="M58 295v45l450 273v-41l-415 -254v-1l415 -254v-40z" />
    <glyph glyph-name="guilsinglright" unicode="&#x203a;" horiz-adv-x="566" 
d="M508 295l-450 -272v40l415 254v1l-415 254v41l450 -273v-45z" />
    <glyph glyph-name="fraction" unicode="&#x2044;" horiz-adv-x="351" 
d="M318 700l-274 -700h-41l274 700h41z" />
    <glyph glyph-name="Euro" unicode="&#x20ac;" horiz-adv-x="725" 
d="M129 460q23 116 98 182t192 66q50 0 93.5 -15t77.5 -42t57.5 -64t33.5 -82h-39q-10 37 -30.5 67.5t-49.5 53t-65 35t-78 12.5q-101 0 -164.5 -56t-86.5 -157h276v-34h-281q-9 -72 0 -144h281v-34h-276q22 -105 86.5 -162t164.5 -57q85 0 144 40.5t79 113.5h39
q-20 -89 -89 -140t-173 -51q-118 0 -192.5 67.5t-97.5 188.5h-92v34h86q-9 72 0 144h-86v34h92z" />
    <glyph glyph-name="trademark" unicode="&#x2122;" horiz-adv-x="873" 
d="M369 670h-138v-388h-36v388h-137v30h311v-30zM815 282h-34v355h-3l-146 -355h-27l-148 355h-2v-355h-34v418h45l151 -369h1l152 369h45v-418z" />
    <glyph glyph-name="minus" unicode="&#x2212;" horiz-adv-x="476" 
d="M418 300h-360v34h360v-34z" />
    <glyph glyph-name="uni25CC" unicode="&#x25cc;" horiz-adv-x="532" 
d="M267 503q9 0 15.5 -6t6.5 -16q0 -11 -6.5 -17.5t-15.5 -6.5q-11 0 -17.5 6.5t-6.5 17.5q0 10 6.5 16t17.5 6zM150 454q10 0 17.5 -6t7.5 -17t-7.5 -18.5t-17.5 -7.5q-8 0 -14.5 7.5t-6.5 18.5t6.5 17t14.5 6zM382 454q8 0 14.5 -6t6.5 -17t-5.5 -18.5t-15.5 -7.5
t-17.5 7.5t-7.5 18.5t7.5 17t17.5 6zM428 339q10 0 17 -7.5t7 -16.5q0 -10 -6.5 -16.5t-17.5 -6.5q-8 0 -15.5 6.5t-7.5 16.5q0 9 7.5 16.5t15.5 7.5zM102 339q9 0 17 -7.5t8 -16.5q0 -10 -7 -16.5t-18 -6.5q-10 0 -16 6.5t-6 16.5q0 9 6 16.5t16 7.5zM150 224
q10 0 17.5 -6.5t7.5 -17.5q0 -9 -7.5 -15.5t-17.5 -6.5q-8 0 -14.5 6.5t-6.5 15.5q0 11 6.5 17.5t14.5 6.5zM382 224q8 0 14.5 -6.5t6.5 -17.5q0 -9 -5.5 -15.5t-15.5 -6.5t-17.5 6.5t-7.5 15.5q0 11 7.5 17.5t17.5 6.5zM267 173q9 0 15.5 -6t6.5 -16t-6.5 -16t-15.5 -6
q-11 0 -17.5 6t-6.5 16t6.5 16t17.5 6z" />
    <glyph glyph-name="uni0E10.descless" horiz-adv-x="564" 
d="M548 620l-97 -100q25 -23 39.5 -53.5t14.5 -73.5q0 -46 -15 -92.5t-39 -95t-54.5 -99.5t-62.5 -106h-78l-118 255q-3 7 -11 7h-70v34h79q25 0 35 -23l110 -239h32q25 44 52 89.5t49.5 91t37 89.5t14.5 83q0 30 -10 58.5t-32.5 51t-58.5 36.5t-87 14q-69 0 -117 -30.5
t-73 -102.5h-38q22 85 82.5 126t149.5 41q83 0 142 -38l75 77h49z" />
    <glyph glyph-name="uni0E0D.descless" horiz-adv-x="924" 
d="M60 371q0 97 55 153.5t164 56.5q112 0 161.5 -57.5t49.5 -161.5v-136q0 -57 13.5 -95t36 -61.5t52 -33.5t61.5 -10t61.5 10t52 33.5t35.5 61.5t13 95v351h39v-356q0 -60 -15 -103.5t-42 -71.5t-64 -41t-80 -13t-80 13t-64 41t-42.5 71.5t-15.5 103.5v139q0 45 -9 80
t-29.5 58.5t-53.5 36t-80 12.5q-88 0 -133 -43t-49 -118l151 -28v-21q-19 -6 -43.5 -21t-46.5 -39.5t-37 -57t-15 -73.5q0 -32 10 -53.5t28 -35t42.5 -19t53.5 -5.5h29v-33h-37q-34 0 -63.5 8t-52 25t-35.5 44.5t-13 67.5q0 37 11 66.5t29.5 53t42.5 42t51 31.5l-142 25v8z
" />
    <glyph glyph-name="uni0E48.nikhahit" 
d="M-71 900h-37v161h37v-161zM-167 846q19 0 36.5 -7.5t31 -20t21.5 -29.5t8 -37q0 -19 -8 -36t-21.5 -29.5t-31 -19.5t-36.5 -7t-36.5 7t-30.5 19.5t-21 29.5t-8 36q0 20 8 37t21 29.5t30.5 20t36.5 7.5zM-167 693q25 0 43 17.5t18 41.5q0 26 -18 43t-43 17q-24 0 -42 -17
t-18 -43q0 -24 18 -41.5t42 -17.5z" />
    <glyph glyph-name="uni0E49.nikhahit" 
d="M-20 930v-30h-179q-24 0 -36.5 7t-18 17.5t-6.5 23.5t-1 24q0 16 -3 28t-21 12h-55v28h54q34 0 48.5 -15t14.5 -50q0 -28 5 -36.5t28 -8.5h170zM-167 846q19 0 36.5 -7.5t31 -20t21.5 -29.5t8 -37q0 -19 -8 -36t-21.5 -29.5t-31 -19.5t-36.5 -7t-36.5 7t-30.5 19.5
t-21 29.5t-8 36q0 20 8 37t21 29.5t30.5 20t36.5 7.5zM-167 693q25 0 43 17.5t18 41.5q0 26 -18 43t-43 17q-24 0 -42 -17t-18 -43q0 -24 18 -41.5t42 -17.5z" />
    <glyph glyph-name="uni0E4A.nikhahit" 
d="M-268 900q-45 0 -63 22t-18 54q0 78 71 78q26 0 47.5 -12.5t23.5 -41.5q2 29 22 41.5t46 12.5q35 0 51 -19.5t16 -63.5v-44q23 0 35.5 10t12.5 35v102h34v-97q0 -42 -21.5 -59.5t-53.5 -17.5h-39v76q0 26 -10.5 36t-32.5 10q-18 0 -31.5 -11.5t-13.5 -41.5h-30
q0 30 -15.5 41.5t-33.5 11.5q-44 0 -44 -46q0 -20 10 -33t37 -13h28v-30h-28zM-167 846q19 0 36.5 -7.5t31 -20t21.5 -29.5t8 -37q0 -19 -8 -36t-21.5 -29.5t-31 -19.5t-36.5 -7t-36.5 7t-30.5 19.5t-21 29.5t-8 36q0 20 8 37t21 29.5t30.5 20t36.5 7.5zM-167 693
q25 0 43 17.5t18 41.5q0 26 -18 43t-43 17q-24 0 -42 -17t-18 -43q0 -24 18 -41.5t42 -17.5z" />
    <glyph glyph-name="uni0E4B.nikhahit" 
d="M9 968h-85v-68h-34v68h-85v29h85v68h34v-68h85v-29zM-167 846q19 0 36.5 -7.5t31 -20t21.5 -29.5t8 -37q0 -19 -8 -36t-21.5 -29.5t-31 -19.5t-36.5 -7t-36.5 7t-30.5 19.5t-21 29.5t-8 36q0 20 8 37t21 29.5t30.5 20t36.5 7.5zM-167 693q25 0 43 17.5t18 41.5
q0 26 -18 43t-43 17q-24 0 -42 -17t-18 -43q0 -24 18 -41.5t42 -17.5z" />
    <glyph glyph-name="uni0E31.upleft" 
d="M-70 718v-33h-210q-42 0 -67.5 9.5t-38.5 25.5t-17 37t-4 44v7h36v-7q0 -22 3.5 -38t14.5 -26t30 -14.5t51 -4.5h202z" />
    <glyph glyph-name="uni0E34.upleft" 
d="M-70 685h-370v33h370v-33z" />
    <glyph glyph-name="uni0E35.upleft" 
d="M-440 718h331v106h39v-139h-370v33z" />
    <glyph glyph-name="uni0E36.upleft" 
d="M-440 685v33h246q-10 18 -10 39q0 32 20 52t52 20t52 -20t20 -52t-20 -52t-52 -20h-308zM-171 757q0 -17 11 -28t28 -11t28 11t11 28t-11 28t-28 11t-28 -11t-11 -28z" />
    <glyph glyph-name="uni0E37.upleft" 
d="M-440 718h218v86h35v-86h82v86h35v-119h-370v33z" />
    <glyph glyph-name="uni0E48.upleft" 
d="M-108 880v191h37v-191h-37z" />
    <glyph glyph-name="uni0E49.upleft" 
d="M-70 913v-33h-179q-24 0 -36.5 7t-18 17.5t-6.5 23.5t-1 24q0 16 -3 28t-21 12h-65v31h64q34 0 48.5 -15t14.5 -50q0 -28 5 -36.5t28 -8.5h170z" />
    <glyph glyph-name="uni0E4A.upleft" 
d="M-334 880q-23 0 -38 7.5t-25 19.5t-14 27.5t-4 31.5q0 42 19 65t57 23q26 0 43.5 -14t23.5 -40q5 26 21 40t42 14q38 0 52.5 -22.5t14.5 -70.5v-54q23 0 35.5 10t12.5 35v122h34v-117q0 -42 -21.5 -59.5t-53.5 -17.5h-39v86q0 26 -6.5 41t-32.5 15q-22 0 -33 -16.5
t-11 -46.5h-30q0 30 -13.5 46.5t-35.5 16.5q-26 0 -35.5 -15t-9.5 -41q0 -20 10 -38t37 -18h29v-30h-29z" />
    <glyph glyph-name="uni0E4B.upleft" 
d="M-53 958h-95v-78h-34v78h-95v29h95v78h34v-78h95v-29z" />
    <glyph glyph-name="uni0E47.upleft" 
d="M-274 840q-40 0 -56.5 -17.5t-16.5 -45.5q0 -29 16.5 -44.5t39.5 -15.5q24 0 43 16.5t19 46.5h30q0 -30 20.5 -46.5t42.5 -16.5h42v-32h-39q-26 0 -48.5 14t-32.5 40q-8 -26 -30.5 -40t-51.5 -14q-35 0 -60.5 23t-25.5 68t27.5 71t80.5 26h213v-33h-213z" />
    <glyph glyph-name="uni0E48.up2" 
d="M-108 880v161h37v-161h-37z" />
    <glyph glyph-name="uni0E49.up2" 
d="M-40 910v-30h-179q-24 0 -36.5 7t-18 17.5t-6.5 23.5t-1 24q0 16 -3 28t-21 12h-55v28h54q34 0 48.5 -15t14.5 -50q0 -28 5 -36.5t28 -8.5h170z" />
    <glyph glyph-name="uni0E4A.up2" 
d="M-348 870q-45 0 -63 22t-18 54q0 78 71 78q26 0 47.5 -12.5t23.5 -41.5q2 29 22 41.5t46 12.5q35 0 51 -19.5t16 -63.5v-44q23 0 35.5 10t12.5 35v102h34v-97q0 -42 -21.5 -59.5t-53.5 -17.5h-39v76q0 26 -10.5 36t-32.5 10q-18 0 -31.5 -11.5t-13.5 -41.5h-30
q0 30 -15.5 41.5t-33.5 11.5q-44 0 -44 -46q0 -20 10 -33t37 -13h28v-30h-28z" />
    <glyph glyph-name="uni0E4B.up2" 
d="M9 948h-85v-68h-34v68h-85v29h85v68h34v-68h85v-29z" />
    <glyph glyph-name="uni0E4C.upleft" 
d="M-122 905q-32 0 -51 -4.5t-30 -14.5t-14.5 -25.5t-3.5 -38.5v-7h-36v7q0 23 4 44t17 37t38.5 25.5t67.5 9.5h125v-33h-117z" />
    <glyph glyph-name="uni0E4C.up2" 
d="M-122 905q-32 0 -51 -4.5t-30 -14.5t-14.5 -25.5t-3.5 -38.5v-7h-36v7q0 23 4 44t17 37t38.5 25.5t67.5 9.5h125v-33h-117z" />
    </font>
</defs>
</svg>
