<?xml version="1.0" standalone="no"?>
<!DOCTYPE svg PUBLIC "-//W3C//DTD SVG 1.1//EN" "http://www.w3.org/Graphics/SVG/1.1/DTD/svg11.dtd" >
<svg xmlns="http://www.w3.org/2000/svg" xmlns:xlink="http://www.w3.org/1999/xlink" version="1.1">
<metadata>
Created by FontForge 20170731 at Sat Jul 24 06:22:42 2021
 By Aleksey,,,
Copyright (c) 2021 by Fontcraft: Jutipong Poosumas. All rights reserved.
</metadata>
<defs>
<font id="FCSubject-Heavy" horiz-adv-x="0" >
  <font-face 
    font-family="FC Subject Heavy"
    font-weight="850"
    font-stretch="normal"
    units-per-em="1000"
    panose-1="0 0 0 0 0 0 0 0 0 0"
    ascent="800"
    descent="-200"
    x-height="520"
    cap-height="700"
    bbox="-568 -292 1091 1164"
    underline-thickness="50"
    underline-position="-175"
    unicode-range="U+000A-FB02"
  />
<missing-glyph horiz-adv-x="600" 
 />
    <glyph glyph-name="fi" unicode="fi" horiz-adv-x="655" 
d="M412 654q0 40 27 68t78 28q48 0 75 -28t27 -68t-27 -68t-75 -28q-51 0 -78 28t-27 68zM375 566q-49 5 -71 -1t-22 -40v-20h80v-123h-80v-382h-190v382h-79v123h79v26q0 48 14.5 81.5t40 54.5t60 30.5t75.5 9.5q23 0 46 -2.5t47 -7.5v-131zM421 520h190v-520h-190v520z
" />
    <glyph glyph-name="fl" unicode="fl" horiz-adv-x="708" 
d="M375 566q-49 5 -71 -1t-22 -40v-20h80v-123h-80v-382h-190v382h-79v123h79v26q0 48 14.5 81.5t40 54.5t60 30.5t75.5 9.5q23 0 46 -2.5t47 -7.5v-131zM414 700h192v-510q0 -29 15.5 -41.5t52.5 -12.5q5 0 10.5 1t12.5 2v-131q-50 -11 -93 -11q-41 0 -75.5 10t-60 31
t-40 54.5t-14.5 81.5v526z" />
    <glyph glyph-name="ru.lakyao" unicode="&#xe24;&#xe32;" horiz-adv-x="942" 
d="M31 141q0 30 12 54.5t33 42.5t48.5 29.5t57.5 16.5l-157 25v11q0 133 72.5 197t201.5 64q128 0 203 -52q18 13 42.5 23t50 16.5t50 9.5t42.5 3q44 0 84 -8.5t71 -28t49.5 -51t18.5 -78.5v-615h-192v552q0 14 -4 28.5t-13 26t-24.5 19t-38.5 7.5q-17 0 -31 -1t-29 -3
q16 -38 16 -86v-543h-192v522q0 48 -25 78.5t-78 30.5q-42 0 -68.5 -21t-31.5 -62l105 -22v-44q-32 -16 -54.5 -37.5t-22.5 -53.5q0 -26 16 -43t42 -17h27v-131h-85q-34 0 -69 6t-63.5 22t-46 43.5t-17.5 69.5z" />
    <glyph glyph-name="lu.lakyao" unicode="&#xe26;&#xe32;" horiz-adv-x="946" 
d="M29 320q0 133 72.5 197t201.5 64q128 0 203 -52q18 13 42.5 23t50 16.5t50 9.5t42.5 3q44 0 84 -8.5t71 -28t49.5 -51t18.5 -78.5v-615h-192v552q0 14 -4 28.5t-13 26t-24.5 19t-38.5 7.5q-16 0 -30.5 -1t-28.5 -3q15 -39 15 -86v-543h-192v522q0 48 -25 78.5t-78 30.5
q-42 0 -68.5 -21t-31.5 -62l110 -22v-44q-29 -13 -42 -36.5t-13 -60.5v-43q0 -73 -40 -107.5t-123 -34.5h-79v132h22q39 0 39 47v12q0 38 27.5 63t86.5 30l-162 25v11z" />
    <glyph glyph-name="Fontcraft" unicode="FontcraftLogo" horiz-adv-x="790" 
d="M396 709q69 0 129 -26t105 -71t71 -105.5t26 -129.5t-26 -129.5t-71 -105.5t-105 -71t-129 -26t-129.5 26t-106 71t-71.5 105.5t-26 129.5t26 129.5t71.5 105.5t106 71t129.5 26zM396 104q57 0 106.5 22t86 59t58 87t21.5 105q0 57 -21.5 107t-59 87t-86.5 58t-105 21
q-57 0 -106.5 -21.5t-87 -58.5t-59 -87t-21.5 -106q0 -57 21.5 -106.5t59 -86.5t87 -58.5t106.5 -21.5zM581 500q17 -27 26.5 -57.5t9.5 -65.5q0 -46 -17.5 -87t-48 -71t-70.5 -47.5t-85 -17.5q-47 0 -88 17.5t-71.5 47.5t-48 71t-17.5 87q0 47 17.5 87.5t48 70.5t71.5 47
t88 17q40 0 78 -14t67 -39l-40 -180q-7 -29 -16.5 -40.5t-29.5 -11.5q-17 0 -27 8t-7 28l16 76q1 8 -4 15.5t-20 7.5q-20 0 -25 -20l-16 -73q-3 -15 -14 -30.5t-36 -15.5q-13 0 -20.5 9.5t-2.5 34.5l13 65q3 20 -9.5 26.5t-32.5 6.5q-26 0 -34 -8t-8 -18q0 -11 5.5 -19
t15.5 -8h7l-7 -37q-4 -20 -2.5 -38t10 -32t25 -22t40.5 -8q18 0 36.5 8t29.5 31q3 -11 10 -18.5t17 -12t20.5 -6.5t19.5 -2q22 0 37.5 7.5t26 19t17 26t9.5 29.5zM200 -26l-9 -52q-3 -14 -12 -20.5t-21 -6.5t-18.5 6.5t-4.5 20.5l9 52q7 28 33 28q12 0 18.5 -7.5t4.5 -20.5z
M400 -79l1 7h20l-1 -6q-2 -14 -11 -20.5t-21 -6.5t-18.5 6.5t-4.5 20.5l9 52q7 28 33 28q11 0 17.5 -6.5t4.5 -19.5q0 -2 -2 -8l-20 -1q1 3 1 7q2 10 -4 10q-5 0 -6 -2.5t-2 -7.5l-11 -53q0 -3 1.5 -6t4.5 -3q5 0 6.5 3t2.5 6zM79 0h50l-4 -17h-29l-4 -26h24l-4 -16h-23
l-9 -45h-20zM264 0h21l-18 -104h-21l-6 67l-12 -67h-18l17 104h23l3 -53v-13h1q0 5 1 8.5t2 8.5zM305 0h55l-3 -17h-18l-14 -87h-22l16 87h-17zM504 -29v-3q-4 -16 -16 -21l3 -51h-22v47h-4l-8 -47h-20l18 104h28q12 0 18 -6t3 -23zM545 0h25l3 -104h-23l1 23h-16l-7 -23
h-20zM609 0h50l-3 -17h-30l-4 -26h24l-3 -16h-24l-9 -45h-20zM675 0h55l-3 -17h-16l-16 -87h-22l16 87h-17zM169 -79l11 53q0 10 -6 10q-7 0 -9 -10l-10 -53q0 -3 1.5 -6t4.5 -3q5 0 6.5 3t1.5 6zM472 -16l-4 -26h5q5 0 7 3.5t3 6.5l2 5q0 5 -1 8t-6 3h-6zM542 -62h9l1 30z
" />
    <glyph glyph-name=".notdef" horiz-adv-x="600" 
 />
    <glyph glyph-name=".null" 
 />
    <glyph glyph-name=".null" 
 />
    <glyph glyph-name="uni000D" unicode="&#xd;" horiz-adv-x="250" 
 />
    <glyph glyph-name="uni000A" unicode="&#xa;" horiz-adv-x="300" 
 />
    <glyph glyph-name="space" unicode=" " horiz-adv-x="300" 
 />
    <glyph glyph-name="exclam" unicode="!" horiz-adv-x="310" 
d="M59 462v238h192v-238l-12 -206h-167zM156 203q52 0 80.5 -29.5t28.5 -72.5q0 -42 -28.5 -71.5t-80.5 -29.5q-53 0 -81.5 29.5t-28.5 71.5q0 43 28.5 72.5t81.5 29.5z" />
    <glyph glyph-name="quotedbl" unicode="&#x22;" horiz-adv-x="431" 
d="M32 700h158l-11 -266h-136zM242 700h158l-11 -266h-136z" />
    <glyph glyph-name="numbersign" unicode="#" horiz-adv-x="702" 
d="M105 169h-93v111h116l27 132h-97v111h121l37 177h168l-37 -177h88l36 177h168l-37 -177h88v-111h-112l-27 -132h93v-111h-115l-35 -169h-167l35 169h-88l-35 -169h-169zM384 280l27 132h-88l-27 -132h88z" />
    <glyph glyph-name="dollar" unicode="$" horiz-adv-x="641" 
d="M209 222q5 -35 32.5 -56.5t75.5 -21.5q49 0 75 16t26 45q0 14 -5 23t-17 16t-32.5 12.5t-51.5 11.5l-69 14q-106 20 -161.5 71.5t-55.5 132.5q0 43 14.5 78.5t41.5 63t64.5 46t83.5 27.5v97h166v-97q100 -18 152.5 -77t53.5 -144h-188q-1 35 -27 56.5t-71 21.5
q-46 0 -69 -16t-23 -42t23.5 -41t78.5 -25l71 -13q113 -20 168 -67t55 -132q0 -91 -59 -149.5t-165 -74.5v-102h-166v103q-98 17 -153 75t-56 148h188z" />
    <glyph glyph-name="percent" unicode="%" horiz-adv-x="771" 
d="M21 548q0 37 13 66.5t35.5 50.5t51.5 32t61 11t61 -11t51.5 -32t35.5 -50.5t13 -66.5t-13 -66.5t-35.5 -50t-51.5 -31.5t-61 -11t-61 11t-51.5 31.5t-35.5 50t-13 66.5zM674 700l-414 -700h-160l413 700h161zM138 548q0 -25 11.5 -39.5t32.5 -14.5q20 0 31.5 14.5
t11.5 39.5t-11.5 39t-31.5 14q-21 0 -32.5 -14t-11.5 -39zM430 151q0 38 13 67.5t35 50.5t51 32t61 11t61 -11t51 -32t35 -50.5t13 -67.5q0 -36 -13 -65.5t-35 -50.5t-51 -32t-61 -11t-61 11t-51 32t-35 50.5t-13 65.5zM545 151q0 -24 12 -38.5t33 -14.5q19 0 31 14.5
t12 38.5q0 25 -12 40t-31 15q-21 0 -33 -15t-12 -40z" />
    <glyph glyph-name="ampersand" unicode="&#x26;" horiz-adv-x="712" 
d="M270 -8q-118 0 -178 49t-60 140q0 58 28 105t82 74l31 16q-24 24 -39.5 45.5t-23.5 41.5t-11 39.5t-3 38.5q0 36 13.5 67t40.5 53t66.5 34.5t90.5 12.5q52 0 91 -13.5t65 -37t39 -55.5t13 -68q0 -54 -28 -98.5t-96 -82.5l84 -94q4 5 7.5 14t6.5 19t5 20.5t3 19.5h153
q-1 -23 -6 -49.5t-12.5 -52.5t-18 -49t-23.5 -39l139 -142h-197l-51 50q-35 -29 -90 -43.5t-121 -14.5zM252 529q0 -19 9 -37.5t41 -46.5q33 17 47 38t14 46q0 27 -14 42t-40 15q-27 0 -42 -15t-15 -42zM291 122q29 0 48.5 9.5t34.5 23.5l-111 120q-5 -2 -10.5 -3.5
t-9.5 -3.5q-27 -17 -32 -39.5t-5 -40.5q0 -10 5 -21.5t15 -21.5t26.5 -16.5t38.5 -6.5z" />
    <glyph glyph-name="quotesingle" unicode="'" horiz-adv-x="221" 
d="M32 700h158l-11 -266h-136z" />
    <glyph glyph-name="parenleft" unicode="(" horiz-adv-x="359" 
d="M356 740q-27 -39 -48.5 -87t-37 -101.5t-23.5 -110t-8 -112.5t8 -113t23.5 -110.5t37 -101.5t48.5 -86h-170q-60 82 -93.5 187t-33.5 224q0 118 33.5 222.5t93.5 188.5h170z" />
    <glyph glyph-name="parenright" unicode=")" horiz-adv-x="359" 
d="M173 740q60 -84 93.5 -188.5t33.5 -222.5q0 -119 -33.5 -224t-93.5 -187h-170q27 38 48.5 86t37 101.5t23.5 110.5t8 113t-8 112.5t-23.5 110t-37 101.5t-48.5 87h170z" />
    <glyph glyph-name="asterisk" unicode="*" horiz-adv-x="388" 
d="M280 501l62 -79l-92 -67l-56 83l-55 -83l-92 67l61 79l-96 27l35 108l94 -35l-3 100h113l-4 -100l94 35l36 -108z" />
    <glyph glyph-name="plus" unicode="+" horiz-adv-x="594" 
d="M213 243h-177v148h177v151h170v-151h176v-148h-176v-151h-170v151z" />
    <glyph glyph-name="comma" unicode="," horiz-adv-x="239" 
d="M-13 -123l56 244h181l-80 -244h-157z" />
    <glyph glyph-name="hyphen" unicode="-" horiz-adv-x="494" 
d="M459 243h-423v148h423v-148z" />
    <glyph glyph-name="period" unicode="." horiz-adv-x="250" 
d="M125 0q-53 0 -81 30t-28 71q0 42 28 72t81 30t81 -30t28 -72q0 -41 -28 -71t-81 -30z" />
    <glyph glyph-name="slash" unicode="/" horiz-adv-x="457" 
d="M453 700l-254 -700h-196l256 700h194z" />
    <glyph glyph-name="zero" unicode="0" horiz-adv-x="661" 
d="M331 -6q-71 0 -129 23.5t-99 68.5t-63 112t-22 154t22.5 153.5t63.5 111.5t98.5 68t128.5 23t128.5 -23t98 -68t63 -111.5t22.5 -153.5t-22 -154t-63 -112t-98.5 -68.5t-128.5 -23.5zM331 150q26 0 46 10.5t33.5 34.5t21 62.5t7.5 94.5q0 57 -7.5 95t-21 61.5t-33.5 33.5
t-46 10t-46 -10t-34 -33.5t-21.5 -61.5t-7.5 -95q0 -56 7.5 -94.5t21.5 -62.5t34 -34.5t46 -10.5z" />
    <glyph glyph-name="one" unicode="1" horiz-adv-x="464" 
d="M222 700h145v-700h-196v538l-164 -58v140z" />
    <glyph glyph-name="two" unicode="2" horiz-adv-x="586" 
d="M302 153v-4h255v-149h-532v108q54 52 103 99q21 20 42 40.5t40.5 39.5t36.5 35t28 27q31 31 50 52t29.5 37t14 27.5t3.5 22.5q0 35 -19 55t-67 20q-28 0 -46 -9.5t-28 -24.5t-14 -34.5t-4 -40.5h-175q0 50 13.5 95.5t44.5 81t82.5 56.5t126.5 21q70 0 120.5 -15.5
t83.5 -43.5t49 -65.5t16 -82.5q0 -35 -5.5 -60.5t-20 -50.5t-40.5 -53t-67 -68z" />
    <glyph glyph-name="three" unicode="3" horiz-adv-x="630" 
d="M484 363q53 -15 87 -55.5t34 -111.5q0 -36 -15.5 -72.5t-50.5 -65.5t-91.5 -47.5t-138.5 -18.5q-72 0 -125 21t-88.5 56.5t-53 82t-17.5 96.5h181q0 -15 6.5 -33.5t19.5 -34t32.5 -26t45.5 -10.5q44 0 72 18.5t28 65.5q0 35 -27 48.5t-67 13.5h-60v129h58q37 0 62.5 20
t25.5 52q0 39 -24.5 57t-65.5 18q-49 0 -74 -33t-25 -79h-174q0 56 17.5 103t52 80.5t85 52t116.5 18.5q72 0 124.5 -15.5t87 -41t51 -58t16.5 -66.5q0 -36 -7.5 -62t-21.5 -45t-33 -32t-43 -22v-3z" />
    <glyph glyph-name="four" unicode="4" horiz-adv-x="618" 
d="M337 123h-330v125l350 452h168v-428h87v-149h-80v-123h-195v123zM348 458l-145 -191h145v191z" />
    <glyph glyph-name="five" unicode="5" horiz-adv-x="625" 
d="M207 248q0 -15 5.5 -33.5t18 -34t32 -26t47.5 -10.5q45 0 76 27t31 75q0 47 -27.5 75t-72.5 28q-38 0 -60.5 -9t-41.5 -27h-178l39 387h479v-148h-328l-17 -135h3q29 34 68.5 47.5t96.5 13.5q49 0 89.5 -17t70 -47t45.5 -71.5t16 -91.5q0 -53 -15 -100t-50 -82.5
t-91.5 -56t-139.5 -20.5q-71 0 -123 21t-86.5 56.5t-51.5 82t-17 96.5h182z" />
    <glyph glyph-name="six" unicode="6" horiz-adv-x="641" 
d="M395 478q51 0 92 -17t70.5 -47.5t45.5 -72t16 -90.5q0 -56 -22 -103.5t-60.5 -82t-91 -54t-114.5 -19.5q-76 0 -133.5 26t-96.5 74.5t-59 117t-20 152.5q0 86 24 150.5t66 108t99 65.5t122 22q57 0 106 -14.5t85.5 -40.5t60 -63.5t29.5 -84.5h-190q-10 32 -32.5 44
t-58.5 12q-68 0 -99.5 -47.5t-31.5 -124.5h2q29 50 73.5 69.5t117.5 19.5zM326 144q22 0 41 8t33.5 22t22.5 32.5t8 39.5q0 45 -29.5 74t-72.5 29q-22 0 -41.5 -8t-34 -21.5t-22.5 -32t-8 -40.5t8 -41t22 -32.5t33 -21.5t40 -8z" />
    <glyph glyph-name="seven" unicode="7" horiz-adv-x="564" 
d="M555 700v-117l-225 -583h-219l227 552h-328v148h545z" />
    <glyph glyph-name="eight" unicode="8" horiz-adv-x="629" 
d="M316 -8q-83 0 -139 18.5t-90.5 47.5t-49.5 65.5t-15 72.5q0 71 34.5 111.5t87.5 56.5v3q-51 19 -75 60.5t-24 100.5q0 32 15.5 64t48 58t84 42t123.5 16t123.5 -16t84 -42t48 -58t15.5 -64q0 -58 -24.5 -99.5t-76.5 -61.5v-3q54 -16 87.5 -56t33.5 -112
q0 -36 -14.5 -72.5t-48 -65.5t-89.5 -47.5t-139 -18.5zM316 424q39 0 66 22.5t27 56.5q0 35 -27 57.5t-66 22.5t-65.5 -22.5t-26.5 -57.5q0 -34 27 -56.5t65 -22.5zM316 132q22 0 41 7.5t33.5 20.5t22.5 30t8 36q0 18 -8 34.5t-22.5 28.5t-33.5 19t-41 7t-41 -7t-33 -19
t-22 -28.5t-8 -34.5q0 -19 8 -36t22 -30t33 -20.5t41 -7.5z" />
    <glyph glyph-name="nine" unicode="9" horiz-adv-x="641" 
d="M27 195h190q10 -31 33 -43t59 -12q34 0 58.5 12.5t40.5 35t24 54.5t8 70h-2q-29 -49 -73.5 -69t-115.5 -20q-52 0 -94 17t-71.5 47.5t-45.5 72.5t-16 91q0 56 22 103.5t60.5 81.5t91.5 53t115 19q76 0 133.5 -26t96.5 -74t58.5 -116.5t19.5 -153.5t-24 -150t-66 -108.5
t-98.5 -65.5t-121.5 -22q-57 0 -106 14.5t-86 41t-60.5 64t-29.5 83.5zM314 351q22 0 41 8t33 22.5t22 33t8 39.5q0 45 -29.5 74t-73.5 29q-22 0 -41 -8t-33 -21.5t-22.5 -32.5t-8.5 -40q0 -22 8 -41.5t22 -33t33 -21.5t41 -8z" />
    <glyph glyph-name="colon" unicode=":" horiz-adv-x="318" 
d="M159 318q-53 0 -81 29.5t-28 71.5q0 43 28 72.5t81 29.5t81.5 -29.5t28.5 -72.5q0 -42 -28.5 -71.5t-81.5 -29.5zM159 0q-53 0 -81 29.5t-28 71.5q0 43 28 72.5t81 29.5t81.5 -29.5t28.5 -72.5q0 -42 -28.5 -71.5t-81.5 -29.5z" />
    <glyph glyph-name="semicolon" unicode=";" horiz-adv-x="317" 
d="M50 419q0 43 28 72.5t81 29.5t81.5 -29.5t28.5 -72.5q0 -42 -28.5 -71.5t-81.5 -29.5t-81 29.5t-28 71.5zM30 -123l54 244h181l-80 -244h-155z" />
    <glyph glyph-name="less" unicode="&#x3c;" horiz-adv-x="535" 
d="M43 269v97l450 273v-182l-251 -139v-1l251 -138v-182z" />
    <glyph glyph-name="equal" unicode="=" horiz-adv-x="522" 
d="M36 493h451v-142h-451v142zM36 280h451v-141h-451v141z" />
    <glyph glyph-name="greater" unicode="&#x3e;" horiz-adv-x="535" 
d="M493 269l-450 -272v182l250 138v1l-250 139v182l450 -273v-97z" />
    <glyph glyph-name="question" unicode="?" horiz-adv-x="576" 
d="M32 475q3 47 18.5 89t46 74t77.5 51t111 19q69 0 118.5 -13.5t81 -38.5t46 -60.5t14.5 -80.5q0 -36 -11 -63t-27.5 -48t-36 -37.5t-36 -32.5t-27.5 -32.5t-11 -36.5v-9h-205v14q0 30 12.5 53t31.5 42t41.5 35t41.5 32t31.5 33t12.5 37q0 26 -16.5 43.5t-56.5 17.5
q-36 0 -55.5 -26t-24.5 -62h-177zM295 0q-53 0 -81 29.5t-28 71.5q0 43 28 72.5t81 29.5t81 -29.5t28 -72.5q0 -42 -28 -71.5t-81 -29.5z" />
    <glyph glyph-name="at" unicode="@" horiz-adv-x="850" 
d="M549 -90q-31 -3 -58 -5t-52 -2q-93 0 -170.5 25t-133 73t-86.5 118.5t-31 162.5q0 87 30.5 158t86 121.5t132 78t167.5 27.5q76 0 148 -23t127.5 -67.5t89 -110.5t33.5 -152q0 -66 -14 -112t-38.5 -74.5t-57 -41.5t-70.5 -13q-35 0 -69 17.5t-51 47.5h-2
q-9 -15 -23 -25.5t-31 -17t-35 -9.5t-35 -3q-38 0 -72 10.5t-59.5 33.5t-40 59.5t-14.5 88.5q0 42 11 78t34 62.5t58 41t83 14.5q26 0 56 -10.5t46 -30.5h2v37h107v-240q0 -26 8.5 -34.5t15.5 -8.5q26 0 39.5 29.5t13.5 100.5q0 108 -69.5 169.5t-193.5 61.5
q-58 0 -108.5 -18t-87.5 -51.5t-58 -82.5t-21 -111q0 -126 76.5 -190t208.5 -64q22 0 47.5 1.5t60.5 6.5v-126zM422 195q31 0 50 19.5t19 64.5q0 43 -18.5 62t-50.5 19q-33 0 -53 -21.5t-20 -63.5q0 -30 17.5 -55t55.5 -25z" />
    <glyph glyph-name="A" unicode="A" horiz-adv-x="704" 
d="M226 700h254l230 -700h-209l-37 133h-224l-37 -133h-209zM427 272l-73 261h-3l-73 -261h149z" />
    <glyph glyph-name="B" unicode="B" horiz-adv-x="666" 
d="M39 700h344q107 0 167 -43.5t60 -125.5q0 -31 -8.5 -59.5t-24.5 -51t-39.5 -38t-54.5 -19.5v-3q36 -1 65 -15t50 -37t32.5 -53t11.5 -65q0 -46 -17.5 -81.5t-49.5 -59.5t-78 -36.5t-102 -12.5h-356v700zM235 415h93q42 0 64.5 16.5t22.5 50.5q0 72 -85 72h-95v-139z
M336 149q52 0 77 15t25 56t-25.5 56t-75.5 15h-102v-142h101z" />
    <glyph glyph-name="C" unicode="C" horiz-adv-x="709" 
d="M25 352q0 86 24 152.5t69 111.5t109 68.5t143 23.5q64 0 119.5 -18t98 -51t69.5 -80t33 -105h-196q-12 48 -43.5 74t-80.5 26q-67 0 -106 -52.5t-39 -149.5q0 -100 38 -151.5t107 -51.5q99 0 126 98h195q-6 -58 -32 -105t-68.5 -80.5t-98.5 -51.5t-122 -18q-80 0 -144 24
t-108.5 69.5t-68.5 112.5t-24 154z" />
    <glyph glyph-name="D" unicode="D" horiz-adv-x="695" 
d="M39 700h282q80 0 144.5 -22t110 -65.5t70 -108t24.5 -148.5t-24.5 -150.5t-70 -112t-110 -69.5t-144.5 -24h-282v700zM294 149q81 0 123.5 53.5t42.5 153.5q0 92 -44 144t-122 52h-59v-403h59z" />
    <glyph glyph-name="E" unicode="E" horiz-adv-x="599" 
d="M235 552v-127h274v-148h-274v-128h332v-149h-528v700h528v-148h-332z" />
    <glyph glyph-name="F" unicode="F" horiz-adv-x="592" 
d="M235 552v-127h274v-148h-274v-277h-196v700h528v-148h-332z" />
    <glyph glyph-name="G" unicode="G" horiz-adv-x="720" 
d="M385 388h308v-79q0 -25 -4 -58.5t-15.5 -68.5t-32.5 -69t-56.5 -61t-86.5 -43.5t-122 -16.5q-82 0 -147 24t-110.5 69.5t-69.5 112.5t-24 154q0 86 24 152.5t68 111.5t106.5 68.5t139.5 23.5q68 0 125.5 -18t101.5 -51t71.5 -80t33.5 -105h-195q-12 48 -45.5 74t-81.5 26
q-69 0 -109 -52.5t-40 -150.5q0 -99 40.5 -150.5t112.5 -51.5q49 0 82 23t33 71v6h-107v139z" />
    <glyph glyph-name="H" unicode="H" horiz-adv-x="726" 
d="M687 700v-700h-196v277h-256v-277h-196v700h196v-275h256v275h196z" />
    <glyph glyph-name="I" unicode="I" horiz-adv-x="287" 
d="M46 700h196v-700h-196v700z" />
    <glyph glyph-name="J" unicode="J" horiz-adv-x="587" 
d="M544 700v-457q0 -122 -71 -186.5t-198 -64.5q-62 0 -112 17.5t-85 50.5t-54 80t-19 107h193q0 -43 19 -66.5t56 -23.5q75 0 75 87v456h196z" />
    <glyph glyph-name="K" unicode="K" horiz-adv-x="711" 
d="M523 309q9 -14 21.5 -34.5t27 -45t30 -51t30.5 -52.5q35 -59 75 -126h-215q-26 46 -50 88q-20 35 -41.5 71t-34.5 55q-16 23 -35 39t-47 24l-49 -52v-225h-196v700h196v-242l227 242h227l-296 -310q36 -8 71.5 -26t58.5 -55z" />
    <glyph glyph-name="L" unicode="L" horiz-adv-x="534" 
d="M39 700h196v-551h295v-149h-491v700z" />
    <glyph glyph-name="M" unicode="M" horiz-adv-x="891" 
d="M39 700h246l159 -405h4l158 405h246v-700h-192v421h-3l-166 -421h-90l-167 421h-5v-421h-190v700z" />
    <glyph glyph-name="N" unicode="N" horiz-adv-x="714" 
d="M39 700h171l270 -384h4v384h191v-700h-168l-272 392h-4v-392h-192v700z" />
    <glyph glyph-name="O" unicode="O" horiz-adv-x="737" 
d="M369 -8q-81 0 -145.5 24.5t-110.5 71t-70.5 113t-24.5 150.5t24.5 150.5t70.5 112t110.5 70t145.5 24.5t146 -24.5t110 -70t69.5 -112t24.5 -150.5t-24.5 -150.5t-69.5 -113t-110 -71t-146 -24.5zM369 153q69 0 107.5 51.5t38.5 146.5q0 96 -38.5 146t-107.5 50
t-107.5 -50t-38.5 -146q0 -95 38.5 -146.5t107.5 -51.5z" />
    <glyph glyph-name="P" unicode="P" horiz-adv-x="617" 
d="M599 483q0 -100 -60 -158t-166 -58h-138v-267h-196v700h334q53 0 94.5 -15.5t71 -43.5t45 -68t15.5 -90zM333 415q40 0 62.5 18t22.5 50t-22 50.5t-63 18.5h-98v-137h98z" />
    <glyph glyph-name="Q" unicode="Q" horiz-adv-x="737" 
d="M296 -3q-65 11 -116.5 40t-87.5 74t-55 105.5t-19 134.5q0 84 24.5 150.5t70.5 112t110.5 70t145.5 24.5t146 -24.5t110 -70t69.5 -112t24.5 -150.5q0 -75 -19.5 -136t-56 -106.5t-89 -74t-118.5 -38.5q26 -45 123 -45h50v-137h-58q-42 0 -85 10.5t-78.5 33t-60 57
t-31.5 82.5zM369 153q69 0 107.5 51.5t38.5 146.5q0 96 -38.5 146t-107.5 50t-107.5 -50t-38.5 -146q0 -95 38.5 -146.5t107.5 -51.5z" />
    <glyph glyph-name="R" unicode="R" horiz-adv-x="651" 
d="M425 0l-136 267h-54v-267h-196v700h335q53 0 95 -15.5t71.5 -43.5t45 -68t15.5 -90q0 -72 -33.5 -122.5t-99.5 -69.5l165 -291h-208zM235 415h99q41 0 62.5 18t21.5 50t-21.5 50.5t-62.5 18.5h-99v-137z" />
    <glyph glyph-name="S" unicode="S" horiz-adv-x="641" 
d="M209 222q5 -35 32.5 -56.5t75.5 -21.5q49 0 75 16t26 45q0 14 -5 23t-17 16t-32.5 12.5t-51.5 11.5l-69 14q-106 20 -161.5 71.5t-55.5 132.5q0 52 21.5 93.5t60 70t91 43.5t114.5 15q69 0 123 -16.5t90.5 -46.5t56 -72t19.5 -93h-188q-1 35 -27 56.5t-71 21.5
q-46 0 -69 -16t-23 -42t23.5 -41t78.5 -25l71 -13q113 -20 168 -67t55 -132q0 -54 -21 -96.5t-60.5 -72t-96 -45.5t-128.5 -16q-67 0 -121 16t-92 45.5t-59 72t-21 96.5h188z" />
    <glyph glyph-name="T" unicode="T" horiz-adv-x="578" 
d="M572 552h-185v-552h-196v552h-185v148h566v-148z" />
    <glyph glyph-name="U" unicode="U" horiz-adv-x="690" 
d="M235 272q0 -60 28.5 -89t82.5 -29q53 0 81 29t28 89v429h196v-451q0 -60 -22 -107.5t-62 -81t-96 -51.5t-125 -18t-125.5 18t-97 51.5t-62.5 81t-22 107.5v451h196v-429z" />
    <glyph glyph-name="V" unicode="V" horiz-adv-x="706" 
d="M226 0l-232 700h209l149 -524h3l148 524h209l-232 -700h-254z" />
    <glyph glyph-name="W" unicode="W" horiz-adv-x="959" 
d="M2 700h202l86 -446h4l109 446h152l110 -446h5l85 446h203l-172 -700h-194l-111 429h-4l-109 -429h-195z" />
    <glyph glyph-name="X" unicode="X" horiz-adv-x="679" 
d="M207 351l-204 349h229l106 -228h4l106 228h228l-203 -349l203 -351h-228l-106 231h-4l-106 -231h-229z" />
    <glyph glyph-name="Y" unicode="Y" horiz-adv-x="662" 
d="M430 282v-282h-196v282l-240 418h229l107 -228h4l106 228h228z" />
    <glyph glyph-name="Z" unicode="Z" horiz-adv-x="615" 
d="M584 149v-149h-552v124l308 424v4h-304v148h537v-123l-298 -426v-2h309z" />
    <glyph glyph-name="bracketleft" unicode="[" horiz-adv-x="413" 
d="M260 615v-573h141v-124h-314v822h314v-125h-141z" />
    <glyph glyph-name="backslash" unicode="\" horiz-adv-x="457" 
d="M454 0h-195l-254 700h194z" />
    <glyph glyph-name="bracketright" unicode="]" horiz-adv-x="413" 
d="M12 740h314v-822h-314v124h140v573h-140v125z" />
    <glyph glyph-name="asciicircum" unicode="^" horiz-adv-x="452" 
d="M437 454h-155l-55 96h-4l-55 -96h-152l149 246h121z" />
    <glyph glyph-name="underscore" unicode="_" horiz-adv-x="591" 
d="M575 -152h-559v136h559v-136z" />
    <glyph glyph-name="grave" unicode="`" horiz-adv-x="312" 
d="M296 434h-163l-139 267h193z" />
    <glyph glyph-name="a" unicode="a" horiz-adv-x="588" 
d="M303 527q58 0 104.5 -13.5t79 -37.5t50 -57.5t17.5 -74.5v-344h-184v75h-3q-10 -20 -28.5 -35.5t-41 -26t-48 -16t-49.5 -5.5q-36 0 -68.5 11t-57 31.5t-39 50t-14.5 65.5q0 78 56.5 119t163.5 47l121 8v11q0 29 -18 44.5t-51 15.5q-27 0 -47 -9.5t-25 -29.5h-172
q10 79 76.5 125t177.5 46zM362 221l-90 -5q-32 -2 -47 -16t-15 -35q0 -24 18.5 -35.5t41.5 -11.5q18 0 34.5 7t29.5 18.5t20.5 27t7.5 31.5v19z" />
    <glyph glyph-name="b" unicode="b" horiz-adv-x="614" 
d="M380 527q48 0 88 -17t69 -50.5t45 -83t16 -113.5q0 -67 -17 -118t-46.5 -85t-68 -51t-82.5 -17q-51 0 -95 20.5t-68 49.5h-2v-62h-184v700h192v-247h2q56 74 151 74zM316 138q45 0 70 30.5t25 90.5q0 59 -26 90t-69 31q-44 0 -69.5 -31t-25.5 -91t25.5 -90t69.5 -30z" />
    <glyph glyph-name="c" unicode="c" horiz-adv-x="570" 
d="M552 185q-10 -97 -76 -145t-177 -48q-130 0 -202 67.5t-72 199.5t72.5 200t200.5 68q109 0 176.5 -49.5t77.5 -146.5h-177q-8 29 -28 41.5t-45 12.5q-37 0 -61.5 -32.5t-24.5 -93.5q0 -60 24.5 -92.5t61.5 -32.5q26 0 46 12t27 39h177z" />
    <glyph glyph-name="d" unicode="d" horiz-adv-x="614" 
d="M234 527q96 0 152 -74h2v247h191v-700h-183v62h-3q-23 -29 -67 -49.5t-95 -20.5q-43 0 -82 17t-68.5 51t-46.5 85t-17 118q0 64 16 113.5t44.5 83t68.5 50.5t88 17zM298 138q45 0 70 30t25 90t-25 91t-70 31q-42 0 -68 -31t-26 -90q0 -60 25.5 -90.5t68.5 -30.5z" />
    <glyph glyph-name="e" unicode="e" horiz-adv-x="581" 
d="M557 220h-348q4 -39 31 -62.5t62 -23.5q26 0 47.5 11.5t29.5 39.5h175q-8 -97 -75.5 -145t-179.5 -48q-130 0 -202 68.5t-72 200.5q0 63 19.5 112.5t55 83t86 51.5t112.5 19q128 -2 193.5 -73t65.5 -192v-42zM298 389q-33 0 -55.5 -19.5t-30.5 -49.5h168q-6 30 -28 49.5
t-54 19.5z" />
    <glyph glyph-name="f" unicode="f" horiz-adv-x="375" 
d="M375 566q-49 5 -71 -1t-22 -40v-20h80v-123h-80v-382h-190v382h-79v123h79v26q0 48 14.5 81.5t40 54.5t60 30.5t75.5 9.5q23 0 46 -2.5t47 -7.5v-131z" />
    <glyph glyph-name="g" unicode="g" horiz-adv-x="616" 
d="M581 520v-494q0 -53 -21 -92t-58 -65t-87.5 -39t-109.5 -13q-53 0 -98.5 10.5t-81 32t-59 54.5t-32.5 78h171q21 -44 93 -44q45 0 68.5 20.5t23.5 67.5v62h-2q-23 -40 -60 -56.5t-82 -16.5q-50 0 -92 17.5t-72.5 49.5t-47.5 79t-17 105q0 61 18 108t49.5 78.5t73 48
t87.5 16.5q45 0 88 -16t63 -52h1v61h184zM300 171q44 0 69 27.5t25 78.5q0 48 -25 76.5t-69 28.5t-69.5 -28t-25.5 -78q0 -48 26 -76.5t69 -28.5z" />
    <glyph glyph-name="h" unicode="h" horiz-adv-x="609" 
d="M389 527q91 0 138 -49.5t47 -148.5v-329h-188v288q0 44 -20 69t-61 25q-37 0 -59 -27.5t-22 -69.5v-285h-189v700h184v-275h2q21 59 63.5 80.5t104.5 21.5z" />
    <glyph glyph-name="i" unicode="i" horiz-adv-x="281" 
d="M142 558q-50 0 -77.5 27.5t-27.5 68.5q0 40 27.5 68t77.5 28q49 0 76 -28t27 -68q0 -41 -27 -68.5t-76 -27.5zM45 520h191v-520h-191v520z" />
    <glyph glyph-name="j" unicode="j" horiz-adv-x="281" 
d="M142 558q-50 0 -77.5 27.5t-27.5 68.5q0 40 27.5 68t77.5 28q49 0 76 -28t27 -68q0 -41 -27 -68.5t-76 -27.5zM236 520v-527q0 -48 -14.5 -81.5t-40 -54.5t-60 -30.5t-75.5 -9.5q-23 0 -46 2.5t-48 7.5v131q50 -5 72 1t22 38v523h190z" />
    <glyph glyph-name="k" unicode="k" horiz-adv-x="613" 
d="M610 0h-209l-88 156q-10 18 -21 28.5t-28 14.5l-39 -38v-161h-190v700h190v-341l147 161h221l-226 -220q28 -4 54 -15.5t43 -37.5z" />
    <glyph glyph-name="l" unicode="l" horiz-adv-x="346" 
d="M52 700h192v-510q0 -29 15.5 -41t51.5 -12q5 0 11 0.5t13 1.5v-131q-25 -5 -48.5 -7.5t-45.5 -2.5q-40 0 -75 9.5t-60 30.5t-39.5 54.5t-14.5 81.5v526z" />
    <glyph glyph-name="m" unicode="m" horiz-adv-x="915" 
d="M705 527q90 0 132.5 -49.5t42.5 -146.5v-331h-190v290q0 42 -15 67t-53 25q-37 0 -53.5 -26.5t-16.5 -66.5v-289h-189v290q0 42 -15 67t-54 25q-37 0 -53.5 -26.5t-16.5 -67.5v-288h-189v520h184v-93h2q21 57 57.5 78.5t98.5 21.5q125 0 160 -101h1q25 58 65 79.5
t102 21.5z" />
    <glyph glyph-name="n" unicode="n" horiz-adv-x="611" 
d="M389 527q91 0 139 -49.5t48 -148.5v-329h-190v288q0 44 -20 69t-61 25q-37 0 -59 -27.5t-22 -69.5v-285h-189v520h184v-95h1q20 58 63.5 80t105.5 22z" />
    <glyph glyph-name="o" unicode="o" horiz-adv-x="590" 
d="M295 527q64 0 116 -17.5t88.5 -51t56 -83.5t19.5 -116t-19.5 -115.5t-56 -83.5t-88.5 -51t-116 -17q-129 0 -204 68t-75 199q0 66 19.5 116t55.5 83.5t88 51t116 17.5zM295 134q17 0 34 7.5t30.5 23t22 39t8.5 55.5q0 33 -8.5 56.5t-22 39.5t-30.5 23.5t-34 7.5
q-18 0 -34.5 -7.5t-30 -23.5t-21.5 -39.5t-8 -56.5t8 -56.5t21.5 -38.5t30 -22.5t34.5 -7.5z" />
    <glyph glyph-name="p" unicode="p" horiz-adv-x="614" 
d="M219 520v-64h2q24 29 59 50t92 21q48 0 89.5 -17t71.5 -51t47.5 -84.5t17.5 -118.5q0 -64 -16 -113.5t-45.5 -83t-70.5 -50.5t-91 -17q-37 0 -76.5 12.5t-69.5 47.5h-2v-229h-192v697h184zM221 261q0 -60 25.5 -91t69.5 -31q43 0 69 31t26 89q0 60 -25.5 91t-69.5 31
t-69.5 -30t-25.5 -90z" />
    <glyph glyph-name="q" unicode="q" horiz-adv-x="614" 
d="M579 -177h-191v229h-2q-30 -35 -69.5 -47.5t-76.5 -12.5q-50 0 -91 17t-70.5 50.5t-45.5 83t-16 113.5q0 68 17.5 118.5t47.5 84.5t71.5 51t89.5 17q57 0 92 -21t58 -50h2v64h184v-697zM393 261q0 60 -25 90t-70 30q-44 0 -69 -31t-25 -91q0 -58 26 -89t68 -31
q45 0 70 31t25 91z" />
    <glyph glyph-name="r" unicode="r" horiz-adv-x="402" 
d="M221 442q17 48 61 70.5t113 14.5v-144q-41 5 -73 -4t-53.5 -26.5t-33 -41.5t-11.5 -48v-263h-189v520h184v-78h2z" />
    <glyph glyph-name="s" unicode="s" horiz-adv-x="538" 
d="M354 314q82 -16 122.5 -50t40.5 -91q0 -83 -62 -132t-183 -49q-46 0 -88 8.5t-76 28t-57 52t-30 79.5h182q14 -40 69 -40q53 0 53 32q0 5 -1 9t-6 8.5t-15.5 8.5t-29.5 7l-87 16q-75 15 -116.5 54t-41.5 99q0 45 20 77.5t53 53.5t75.5 31t88.5 10q45 0 85.5 -9.5
t72 -29.5t51.5 -52.5t25 -78.5h-173q-4 20 -20 31.5t-41 11.5q-20 0 -36 -8.5t-16 -26.5q0 -5 1.5 -9.5t7 -8.5t16 -8t29.5 -8z" />
    <glyph glyph-name="t" unicode="t" horiz-adv-x="392" 
d="M280 382v-192q0 -46 50 -52q10 -2 22 -1.5t25 2.5v-131q-29 -6 -59 -9q-47 -4 -89 3.5t-73 28t-49 56t-18 87.5v208h-76v123h83v145h184v-145h91v-123h-91z" />
    <glyph glyph-name="u" unicode="u" horiz-adv-x="611" 
d="M224 520v-289q0 -45 20 -70t60 -25q39 0 60.5 28t21.5 70v286h190v-520h-184v96h-3q-20 -59 -62 -81.5t-105 -22.5q-90 0 -138.5 50.5t-48.5 149.5v328h189z" />
    <glyph glyph-name="v" unicode="v" horiz-adv-x="573" 
d="M409 0h-245l-170 520h204l88 -371h2l87 371h203z" />
    <glyph glyph-name="w" unicode="w" horiz-adv-x="823" 
d="M704 0h-214l-78 352h-3l-78 -352h-210l-119 520h192l54 -353h3l75 353h175l76 -353h4l53 353h188z" />
    <glyph glyph-name="x" unicode="x" horiz-adv-x="567" 
d="M157 261l-148 259h207l66 -163h3l66 163h207l-148 -259l148 -261h-207l-66 165h-2l-67 -165h-207z" />
    <glyph glyph-name="y" unicode="y" horiz-adv-x="560" 
d="M566 520q-43 -128 -78 -236q-15 -46 -30.5 -91.5t-28.5 -85t-22.5 -69t-14.5 -43.5q-28 -97 -84.5 -142.5t-134.5 -45.5q-23 0 -55 2.5t-55 7.5v122q15 -2 27.5 -3.5t26.5 -1.5q30 0 44.5 16t18.5 30l6 21l-192 519h204l84 -357h3l82 357h199z" />
    <glyph glyph-name="z" unicode="z" horiz-adv-x="519" 
d="M32 97l227 280v4h-227v139h455v-112l-209 -264v-4h209v-140h-455v97z" />
    <glyph glyph-name="braceleft" unicode="{" horiz-adv-x="426" 
d="M296 458q0 -55 -23 -87t-64 -41v-3q42 -10 64.5 -41t22.5 -88v-86q1 -42 19 -55.5t59 -13.5h41v-125h-78q-107 0 -161 38.5t-54 119.5v91q0 48 -23 75.5t-74 32.5v109q51 5 74 32.5t23 75.5v91q0 81 54 119t161 38h78v-125h-41q-42 0 -60 -15t-18 -63v-79z" />
    <glyph glyph-name="bar" unicode="|" horiz-adv-x="339" 
d="M253 798v-902h-166v902h166z" />
    <glyph glyph-name="braceright" unicode="}" horiz-adv-x="426" 
d="M131 537q0 48 -18.5 63t-60.5 15h-40v125h78q106 0 160.5 -38t54.5 -119v-91q0 -48 22.5 -75.5t73.5 -32.5v-109q-51 -5 -73.5 -32.5t-22.5 -75.5v-91q0 -81 -54.5 -119.5t-160.5 -38.5h-78v125h40q41 0 59.5 13.5t19.5 55.5v86q0 57 22.5 88t64.5 41v3q-42 9 -64.5 41
t-22.5 87v79z" />
    <glyph glyph-name="asciitilde" unicode="~" horiz-adv-x="594" 
d="M216 280q-16 0 -28 -14.5t-12 -49.5h-140q0 47 8 85t26.5 65t48 41.5t71.5 14.5q30 0 53.5 -10.5t44.5 -23t42 -23t45 -10.5q18 0 31.5 14.5t13.5 51.5h139q0 -46 -9.5 -84.5t-29 -66t-49.5 -42.5t-71 -15q-29 0 -53 10.5t-45 23t-42 23t-44 10.5z" />
    <glyph glyph-name="uni00A0" unicode="&#xa0;" horiz-adv-x="300" 
 />
    <glyph glyph-name="exclamdown" unicode="&#xa1;" horiz-adv-x="310" 
d="M154 396q-53 0 -80.5 30t-27.5 72t27.5 71.5t80.5 29.5q54 0 82.5 -29.5t28.5 -71.5t-28.5 -72t-82.5 -30zM59 138l13 206h167l12 -206v-240h-192v240z" />
    <glyph glyph-name="cent" unicode="&#xa2;" horiz-adv-x="570" 
d="M382 622v-105q73 -17 117.5 -63.5t52.5 -122.5h-177q-8 29 -28 41.5t-45 12.5q-37 0 -61.5 -32.5t-24.5 -93.5q0 -60 24.5 -92.5t61.5 -32.5q26 0 46 12t27 39h177q-8 -76 -52 -122.5t-118 -63.5v-103h-166v103q-92 20 -141.5 85.5t-49.5 174.5t50 174t141 84v105h166z
" />
    <glyph glyph-name="sterling" unicode="&#xa3;" horiz-adv-x="605" 
d="M464 250h-167q-9 -29 -24 -53t-29 -46v-2h334v-149h-538v114q18 15 35 29.5t31.5 30.5t24.5 34t14 42h-105v122h76q-9 15 -19.5 31t-19.5 34t-15 39t-6 46q0 37 15 70.5t46 59t79 41t114 15.5q78 0 130 -21t83 -56.5t43.5 -81t12.5 -95.5h-176q0 21 -3 40.5t-12 34.5
t-26 24.5t-46 9.5q-39 0 -58 -16t-19 -41q0 -14 5.5 -29.5t13.5 -32t17.5 -34.5t16.5 -38h172v-122z" />
    <glyph glyph-name="currency" unicode="&#xa4;" horiz-adv-x="555" 
d="M62 333q0 26 6 52t20 49l-56 54l89 88l56 -55q21 17 47 22t52 5t51 -6t47 -21l53 55l96 -86l-59 -58q14 -22 20 -47.5t6 -51.5t-5.5 -51t-20.5 -48l56 -55l-90 -90l-56 55q-22 -16 -46.5 -20t-51.5 -4q-26 0 -52 5t-47 19l-58 -56l-84 94l53 52q-16 23 -21 48t-5 51z
M187 333q0 -35 23.5 -61.5t65.5 -26.5q41 0 64 26.5t23 61.5q0 36 -23 62.5t-64 26.5q-42 0 -65.5 -26.5t-23.5 -62.5z" />
    <glyph glyph-name="yen" unicode="&#xa5;" horiz-adv-x="662" 
d="M234 105h-129v116h129v49h-129v117h83l-194 313h229l107 -228h4l106 228h228l-193 -313h82v-117h-127v-49h127v-116h-127v-105h-196v105z" />
    <glyph glyph-name="brokenbar" unicode="&#xa6;" horiz-adv-x="339" 
d="M87 798h166v-333h-166v333zM87 231h166v-335h-166v335z" />
    <glyph glyph-name="section" unicode="&#xa7;" horiz-adv-x="530" 
d="M508 336q0 -25 -6.5 -42t-17 -29t-23.5 -20t-27 -15q31 -19 55 -52t24 -68q0 -84 -62 -132.5t-183 -48.5q-46 0 -88.5 8t-76.5 27.5t-57 52t-30 80.5h183q12 -40 69 -40q25 0 39 15t14 30q0 5 -1 9t-6.5 8.5t-16 8.5t-28.5 7l-88 17q-76 14 -117.5 48.5t-41.5 104.5
q0 24 6.5 41t17 28.5t23.5 20t26 16.5q-32 18 -55 51t-23 70q0 81 62 130.5t183 49.5q46 0 88.5 -8.5t77 -28t57.5 -52t30 -80.5h-184q-12 41 -69 41q-25 0 -39 -15.5t-14 -29.5q0 -4 1 -9t6.5 -9t16 -8t28.5 -7l88 -16q75 -15 117 -49.5t42 -104.5zM276 371
q-42 5 -63.5 -11t-21.5 -41q0 -40 62 -49q42 -5 64 10.5t22 38.5q0 20 -15.5 33.5t-47.5 18.5z" />
    <glyph glyph-name="dieresis" unicode="&#xa8;" horiz-adv-x="528" 
d="M46 633q0 18 7.5 34.5t20.5 29.5t30.5 20.5t36.5 7.5t36 -7.5t29.5 -20.5t20 -29.5t7.5 -34.5q0 -20 -7.5 -37.5t-20 -30.5t-29.5 -20.5t-36 -7.5t-36.5 7.5t-30.5 20.5t-20.5 30.5t-7.5 37.5zM294 633q0 18 7.5 34.5t20.5 29.5t30.5 20.5t36.5 7.5t36 -7.5t29.5 -20.5
t20 -29.5t7.5 -34.5q0 -20 -7.5 -37.5t-20 -30.5t-29.5 -20.5t-36 -7.5t-36.5 7.5t-30.5 20.5t-20.5 30.5t-7.5 37.5z" />
    <glyph glyph-name="copyright" unicode="&#xa9;" horiz-adv-x="792" 
d="M18 342q0 78 30 147t81 120.5t120 81t147 29.5t147 -29.5t120.5 -81t81 -120.5t29.5 -147t-29.5 -146.5t-81 -120t-120.5 -81t-147 -29.5t-147 29.5t-120 81t-81 120t-30 146.5zM133 342q0 -54 20.5 -102t56 -83.5t83.5 -56t103 -20.5t103.5 20.5t84.5 56t56.5 83.5
t20.5 102q0 55 -20.5 103.5t-56.5 84.5t-84.5 57t-103.5 21t-103 -21t-83.5 -57t-56 -84.5t-20.5 -103.5zM402 228q29 0 48 13.5t27 43.5h117q-4 -35 -19.5 -64t-41 -49.5t-59 -31.5t-72.5 -11q-97 0 -152 55.5t-55 160.5q0 104 55 159t152 55q39 0 72 -11t58.5 -31.5
t41.5 -49t20 -63.5h-119q-13 57 -73 57q-82 0 -82 -116q0 -117 82 -117z" />
    <glyph glyph-name="ordfeminine" unicode="&#xaa;" horiz-adv-x="401" 
d="M209 708q74 0 117 -32t43 -83v-216h-117v48q-6 -13 -18 -23t-26.5 -16.5t-30.5 -10t-31 -3.5q-23 0 -44 7t-36.5 20t-24.5 31.5t-9 41.5q0 48 36 73.5t103 30.5l77 4v8q0 37 -44 37q-17 0 -29 -6t-14 -18h-110q6 50 47.5 78.5t110.5 28.5zM248 516l-57 -3q-39 -3 -39 -32
q0 -15 11.5 -22t27.5 -7q22 0 39.5 16t17.5 36v12z" />
    <glyph glyph-name="guillemotleft" unicode="&#xab;" horiz-adv-x="928" 
d="M43 269v97l450 273v-182l-251 -139v-1l251 -138v-182zM436 269v97l450 273v-182l-251 -139v-1l251 -138v-182z" />
    <glyph glyph-name="logicalnot" unicode="&#xac;" horiz-adv-x="494" 
d="M36 391h423v-250h-182v102h-241v148z" />
    <glyph glyph-name="registered" unicode="&#xae;" horiz-adv-x="792" 
d="M18 342q0 78 30 147t81 120.5t120 81t147 29.5t147 -29.5t120.5 -81t81 -120.5t29.5 -147t-29.5 -146.5t-81 -120t-120.5 -81t-147 -29.5t-147 29.5t-120 81t-81 120t-30 146.5zM133 342q0 -54 20.5 -102t56 -83.5t83.5 -56t103 -20.5t103.5 20.5t84.5 56t56.5 83.5
t20.5 102q0 55 -20.5 103.5t-56.5 84.5t-84.5 57t-103.5 21t-103 -21t-83.5 -57t-56 -84.5t-20.5 -103.5zM451 171l-69 135h-21v-135h-120v357h203q54 0 85 -30t31 -81q0 -37 -17 -62.5t-51 -35.5l84 -148h-125zM361 382h38q43 0 43 32q0 33 -43 33h-38v-65z" />
    <glyph glyph-name="macron" unicode="&#xaf;" horiz-adv-x="591" 
d="M575 739h-559v135h559v-135z" />
    <glyph glyph-name="degree" unicode="&#xb0;" horiz-adv-x="404" 
d="M203 372q-39 0 -71.5 12.5t-55.5 34.5t-35.5 53t-12.5 68t12 67.5t35 53t55.5 35t72.5 12.5q39 0 71 -12.5t55 -35t35.5 -53t12.5 -67.5t-12.5 -68t-35.5 -53t-55 -34.5t-71 -12.5zM203 487q28 0 40.5 15t12.5 38q0 26 -13 40.5t-40 14.5q-28 0 -40.5 -14.5t-12.5 -40.5
q0 -23 12.5 -38t40.5 -15z" />
    <glyph glyph-name="plusminus" unicode="&#xb1;" horiz-adv-x="594" 
d="M213 320h-177v135h177v139h170v-139h176v-135h-176v-138h-170v138zM36 136h523v-136h-523v136z" />
    <glyph glyph-name="twosuperior" unicode="&#xb2;" horiz-adv-x="389" 
d="M205 460v-3h150v-91h-319v66l150 146q19 18 30.5 30t17.5 21t8 15.5t2 12.5q0 23 -11.5 33t-39.5 10q-34 0 -44.5 -19.5t-10.5 -45.5h-106q0 30 8 57.5t27 49.5t49.5 35t76.5 13q85 0 124.5 -35t39.5 -89q0 -20 -3 -35.5t-11 -30.5t-23.5 -32t-41.5 -40z" />
    <glyph glyph-name="threesuperior" unicode="&#xb3;" horiz-adv-x="413" 
d="M308 583q32 -10 52.5 -34t20.5 -66q0 -21 -9 -43t-30 -40t-55 -29t-84 -11q-43 0 -75 13t-53.5 34.5t-32 49.5t-10.5 58h112q0 -9 3.5 -19.5t11 -19.5t19 -14.5t27.5 -5.5q26 0 41.5 11t15.5 36q0 20 -15.5 28.5t-38.5 8.5h-36v77h35q22 0 36 12.5t14 30.5
q0 19 -13.5 29.5t-37.5 10.5q-29 0 -43.5 -18t-14.5 -44h-108q0 67 42.5 109.5t122.5 42.5q43 0 74.5 -9.5t52 -24.5t30.5 -34.5t10 -40.5q0 -43 -17.5 -64t-46.5 -33v-1z" />
    <glyph glyph-name="acute" unicode="&#xb4;" horiz-adv-x="367" 
d="M33 568l111 227h190l-137 -227h-164z" />
    <glyph glyph-name="paragraph" unicode="&#xb6;" horiz-adv-x="756" 
d="M685 0h-164v564h-77v-564h-164v280q-13 -4 -31.5 -6.5t-33.5 -2.5q-42 0 -77 11.5t-60 37t-39 66t-14 97.5q0 61 14.5 102.5t41.5 67t64.5 36.5t83.5 11h456v-700z" />
    <glyph glyph-name="periodcentered" unicode="&#xb7;" horiz-adv-x="343" 
d="M59 317q0 23 9 43t24.5 35t36.5 24t45 9q23 0 43 -9t35 -24t23.5 -35t8.5 -43q0 -24 -8.5 -44.5t-23.5 -36t-35 -24.5t-43 -9q-24 0 -45 9t-36.5 24.5t-24.5 36t-9 44.5z" />
    <glyph glyph-name="cedilla" unicode="&#xb8;" horiz-adv-x="414" 
d="M56 -287l110 207h192l-138 -207h-164z" />
    <glyph glyph-name="onesuperior" unicode="&#xb9;" horiz-adv-x="286" 
d="M161 782h93v-419h-124v315l-98 -33v91z" />
    <glyph glyph-name="ordmasculine" unicode="&#xba;" horiz-adv-x="449" 
d="M32 577q0 52 14.5 92t40 67t60.5 40.5t77 13.5t77.5 -13.5t61 -40.5t40 -67t14.5 -92t-14 -92t-39.5 -67.5t-61 -41.5t-78.5 -14t-78 14t-60.5 41.5t-39.5 67.5t-14 92zM160 577q0 -63 17.5 -88t46.5 -25q30 0 47.5 24.5t17.5 88.5t-17.5 88t-47.5 24q-29 0 -46.5 -24.5
t-17.5 -87.5z" />
    <glyph glyph-name="guillemotright" unicode="&#xbb;" horiz-adv-x="928" 
d="M886 269l-450 -272v182l250 138v1l-250 139v182l450 -273v-97zM493 269l-450 -272v182l250 138v1l-250 139v182l450 -273v-97z" />
    <glyph glyph-name="onequarter" unicode="&#xbc;" horiz-adv-x="795" 
d="M440 700h124l-252 -700h-126zM7 655l129 45h93v-419h-124v315l-98 -33v92zM427 149l209 270h104v-257h49v-89h-45v-73h-121v73h-196v76zM627 160v110l-79 -110h79z" />
    <glyph glyph-name="onehalf" unicode="&#xbd;" horiz-adv-x="833" 
d="M136 700h93v-419h-124v315l-98 -33v92zM563 700l-253 -700h-125l254 700h124zM803 300q0 -20 -3 -35.5t-12 -30.5t-24.5 -32t-40.5 -41l-72 -67v-2h149v-92h-318v66l150 146q18 18 29.5 30t17.5 21t8 15.5t2 13.5q0 22 -11 32t-40 10q-33 0 -44 -19.5t-11 -45.5h-105
q0 30 8 58t26.5 49.5t49 34.5t76.5 13q85 0 125 -35t40 -89z" />
    <glyph glyph-name="threequarters" unicode="&#xbe;" horiz-adv-x="897" 
d="M302 501q32 -10 52.5 -34t20.5 -66q0 -21 -9.5 -43t-30.5 -40t-55 -29t-84 -11q-42 0 -74 13t-53.5 34.5t-32.5 49.5t-11 58h113q0 -9 3.5 -19.5t11 -19.5t18.5 -14.5t27 -5.5q27 0 42 11t15 36q0 21 -15 29t-39 8h-36v77h36q22 0 35.5 12.5t13.5 30.5q0 19 -13.5 29.5
t-37.5 10.5q-29 0 -43 -18t-14 -44h-109q0 67 42.5 109.5t122.5 42.5q43 0 74.5 -9t52 -24.5t30.5 -35t10 -40.5q0 -43 -17.5 -63.5t-45.5 -33.5v-1zM666 700l-252 -700h-126l254 700h124zM528 149l210 270h104v-257h49v-89h-45v-73h-120v73h-198v76zM730 160v110l-80 -110
h80z" />
    <glyph glyph-name="questiondown" unicode="&#xbf;" horiz-adv-x="576" 
d="M282 599q53 0 81 -29.5t28 -71.5t-28 -72t-81 -30t-81 30t-28 72t28 71.5t81 29.5zM545 124q-3 -47 -18.5 -89.5t-46 -74.5t-76.5 -51t-111 -19q-70 0 -119.5 13.5t-81 38.5t-46 61t-14.5 81q0 37 11 64t28 47.5t36 37.5t36 32.5t28 31.5t11 37v10h204v-14
q0 -29 -12.5 -52.5t-31.5 -42.5t-41.5 -35t-41.5 -32t-31.5 -33.5t-12.5 -37.5q0 -26 16.5 -43.5t56.5 -17.5q36 0 56 26.5t25 61.5h176z" />
    <glyph glyph-name="Agrave" unicode="&#xc0;" horiz-adv-x="704" 
d="M347 972l110 -207h-163l-138 207h191zM226 700h254l230 -700h-209l-37 133h-224l-37 -133h-209zM427 272l-73 261h-3l-73 -261h149z" />
    <glyph glyph-name="Aacute" unicode="&#xc1;" horiz-adv-x="704" 
d="M412 765h-164l111 207h191zM226 700h254l230 -700h-209l-37 133h-224l-37 -133h-209zM427 272l-73 261h-3l-73 -261h149z" />
    <glyph glyph-name="Acircumflex" unicode="&#xc2;" horiz-adv-x="704" 
d="M561 751h-155l-56 89h-4l-55 -89h-152l150 230h121zM226 700h254l230 -700h-209l-37 133h-224l-37 -133h-209zM427 272l-73 261h-3l-73 -261h149z" />
    <glyph glyph-name="Atilde" unicode="&#xc3;" horiz-adv-x="704" 
d="M271 831q-16 0 -27.5 -14.5t-11.5 -49.5h-140q0 95 34.5 144t118.5 49q30 0 53.5 -10.5t44.5 -22.5t41.5 -22.5t44.5 -10.5q17 0 30.5 14.5t13.5 50.5h139q0 -94 -37.5 -144t-120.5 -50q-29 0 -52.5 10.5t-45 22.5t-42 22.5t-43.5 10.5zM226 700h254l230 -700h-209
l-37 133h-224l-37 -133h-209zM427 272l-73 261h-3l-73 -261h149z" />
    <glyph glyph-name="Adieresis" unicode="&#xc4;" horiz-adv-x="704" 
d="M381 864q0 18 7.5 35t21 29.5t31 20t37.5 7.5q18 0 34.5 -7.5t29 -20t20 -29.5t7.5 -35q0 -20 -7.5 -37.5t-20 -30.5t-29 -20.5t-34.5 -7.5q-20 0 -37.5 7.5t-31 20.5t-21 30.5t-7.5 37.5zM133 864q0 18 7.5 35t21 29.5t31 20t36.5 7.5q18 0 35 -7.5t29.5 -20t20 -29.5
t7.5 -35q0 -20 -7.5 -37.5t-20 -30.5t-29.5 -20.5t-35 -7.5q-19 0 -36.5 7.5t-31 20.5t-21 30.5t-7.5 37.5zM226 700h254l230 -700h-209l-37 133h-224l-37 -133h-209zM427 272l-73 261h-3l-73 -261h149z" />
    <glyph glyph-name="Aring" unicode="&#xc5;" horiz-adv-x="706" 
d="M222 689q-19 21 -29.5 49t-10.5 62q0 36 12 67t34.5 53t54 34.5t71.5 12.5q39 0 70 -12.5t53.5 -34.5t34.5 -53t12 -67q0 -68 -41 -112l229 -688h-209l-37 133h-226l-37 -133h-209zM354 750q26 0 38.5 14.5t12.5 35.5q0 24 -13 38.5t-38 14.5q-26 0 -38.5 -14.5
t-12.5 -38.5q0 -21 12.5 -35.5t38.5 -14.5zM429 272l-75 261h-4l-72 -261h151z" />
    <glyph glyph-name="AE" unicode="&#xc6;" horiz-adv-x="1057" 
d="M692 552v-127h275v-148h-275v-128h333v-149h-528v133h-207l-75 -133h-221l423 700h608v-148h-333zM497 272v228l-130 -228h130z" />
    <glyph glyph-name="Ccedilla" unicode="&#xc7;" horiz-adv-x="709" 
d="M370 149q99 0 126 98h195q-6 -58 -32 -105t-68.5 -80.5t-98.5 -51.5t-122 -18q-80 0 -144 24t-108.5 69.5t-68.5 112.5t-24 154q0 86 24 152.5t69 111.5t109 68.5t143 23.5q64 0 119.5 -18t98 -51t69.5 -80t33 -105h-196q-12 48 -43.5 74t-80.5 26q-67 0 -106 -52.5
t-39 -149.5q0 -100 38 -151.5t107 -51.5zM362 -287h-163l109 207h192z" />
    <glyph glyph-name="Egrave" unicode="&#xc8;" horiz-adv-x="599" 
d="M320 972l111 -207h-164l-138 207h191zM235 552v-127h274v-148h-274v-128h332v-149h-528v700h528v-148h-332z" />
    <glyph glyph-name="Eacute" unicode="&#xc9;" horiz-adv-x="599" 
d="M377 765h-164l110 207h191zM235 552v-127h274v-148h-274v-128h332v-149h-528v700h528v-148h-332z" />
    <glyph glyph-name="Ecircumflex" unicode="&#xca;" horiz-adv-x="599" 
d="M521 751h-155l-56 89h-4l-54 -89h-153l150 230h121zM235 552v-127h274v-148h-274v-128h332v-149h-528v700h528v-148h-332z" />
    <glyph glyph-name="Edieresis" unicode="&#xcb;" horiz-adv-x="599" 
d="M342 864q0 18 7.5 35t21 29.5t31 20t36.5 7.5t36 -7.5t29.5 -20t20 -29.5t7.5 -35q0 -20 -7.5 -37.5t-20 -30.5t-29.5 -20.5t-36 -7.5t-36.5 7.5t-31 20.5t-21 30.5t-7.5 37.5zM94 864q0 18 7.5 35t21 29.5t31 20t36.5 7.5t36 -7.5t29.5 -20t20 -29.5t7.5 -35
q0 -20 -7.5 -37.5t-20 -30.5t-29.5 -20.5t-36 -7.5t-36.5 7.5t-31 20.5t-21 30.5t-7.5 37.5zM235 552v-127h274v-148h-274v-128h332v-149h-528v700h528v-148h-332z" />
    <glyph glyph-name="Igrave" unicode="&#xcc;" horiz-adv-x="287" 
d="M131 971l111 -207h-164l-139 207h192zM46 700h196v-700h-196v700z" />
    <glyph glyph-name="Iacute" unicode="&#xcd;" horiz-adv-x="287" 
d="M210 765h-164l110 207h191zM46 700h196v-700h-196v700z" />
    <glyph glyph-name="Icircumflex" unicode="&#xce;" horiz-adv-x="287" 
d="M355 751h-156l-55 89h-4l-55 -89h-153l151 230h120zM46 700h196v-700h-196v700z" />
    <glyph glyph-name="Idieresis" unicode="&#xcf;" horiz-adv-x="287" 
d="M-75 864q0 18 7.5 35t20.5 29.5t30.5 20t37.5 7.5q18 0 35 -7.5t30 -20t20.5 -29.5t7.5 -35q0 -20 -7.5 -37.5t-20.5 -30.5t-30 -20.5t-35 -7.5q-40 0 -68 28t-28 68zM174 864q0 18 7.5 35t20.5 29.5t30.5 20t36.5 7.5q18 0 35 -7.5t30 -20t20.5 -29.5t7.5 -35
q0 -20 -7.5 -37.5t-20.5 -30.5t-30 -20.5t-35 -7.5q-19 0 -36.5 7.5t-30.5 20.5t-20.5 30.5t-7.5 37.5zM46 700h196v-700h-196v700z" />
    <glyph glyph-name="Eth" unicode="&#xd0;" horiz-adv-x="752" 
d="M377 700q80 0 144.5 -22t110.5 -65.5t70.5 -108t24.5 -148.5t-24.5 -150.5t-70.5 -112t-110.5 -69.5t-144.5 -24h-282v296h-83v116h83v288h282zM351 149q81 0 123.5 53.5t42.5 153.5q0 92 -44 144t-122 52h-60v-140h131v-116h-131v-147h60z" />
    <glyph glyph-name="Ntilde" unicode="&#xd1;" horiz-adv-x="714" 
d="M251 767h-141q0 95 35 144t119 49q29 0 52.5 -10.5t44.5 -22.5t42 -22.5t45 -10.5q17 0 30 14.5t14 50.5h139q0 -94 -38 -144t-120 -50q-29 0 -53 10.5t-45 22.5t-42 22.5t-44 10.5q-15 0 -26.5 -14.5t-11.5 -49.5zM39 700h171l270 -384h4v384h191v-700h-168l-272 392h-4
v-392h-192v700z" />
    <glyph glyph-name="Ograve" unicode="&#xd2;" horiz-adv-x="737" 
d="M377 972l110 -207h-164l-138 207h192zM369 -8q-81 0 -145.5 24.5t-110.5 71t-70.5 113t-24.5 150.5t24.5 150.5t70.5 112t110.5 70t145.5 24.5t146 -24.5t110 -70t69.5 -112t24.5 -150.5t-24.5 -150.5t-69.5 -113t-110 -71t-146 -24.5zM369 153q69 0 107.5 51.5
t38.5 146.5q0 96 -38.5 146t-107.5 50t-107.5 -50t-38.5 -146q0 -95 38.5 -146.5t107.5 -51.5z" />
    <glyph glyph-name="Oacute" unicode="&#xd3;" horiz-adv-x="737" 
d="M436 765h-164l111 207h191zM369 -8q-81 0 -145.5 24.5t-110.5 71t-70.5 113t-24.5 150.5t24.5 150.5t70.5 112t110.5 70t145.5 24.5t146 -24.5t110 -70t69.5 -112t24.5 -150.5t-24.5 -150.5t-69.5 -113t-110 -71t-146 -24.5zM369 153q69 0 107.5 51.5t38.5 146.5
q0 96 -38.5 146t-107.5 50t-107.5 -50t-38.5 -146q0 -95 38.5 -146.5t107.5 -51.5z" />
    <glyph glyph-name="Ocircumflex" unicode="&#xd4;" horiz-adv-x="737" 
d="M583 751h-155l-55 89h-4l-55 -89h-153l151 230h119zM369 -8q-81 0 -145.5 24.5t-110.5 71t-70.5 113t-24.5 150.5t24.5 150.5t70.5 112t110.5 70t145.5 24.5t146 -24.5t110 -70t69.5 -112t24.5 -150.5t-24.5 -150.5t-69.5 -113t-110 -71t-146 -24.5zM369 153
q69 0 107.5 51.5t38.5 146.5q0 96 -38.5 146t-107.5 50t-107.5 -50t-38.5 -146q0 -95 38.5 -146.5t107.5 -51.5z" />
    <glyph glyph-name="Otilde" unicode="&#xd5;" horiz-adv-x="737" 
d="M253 767h-140q0 95 34.5 144t118.5 49q29 0 52.5 -10.5t44.5 -22.5t42 -22.5t45 -10.5q17 0 30.5 14.5t13.5 50.5h139q0 -94 -37.5 -144t-120.5 -50q-29 0 -52.5 10.5t-45 22.5t-42 22.5t-43.5 10.5q-16 0 -27.5 -14.5t-11.5 -49.5zM369 -8q-81 0 -145.5 24.5t-110.5 71
t-70.5 113t-24.5 150.5t24.5 150.5t70.5 112t110.5 70t145.5 24.5t146 -24.5t110 -70t69.5 -112t24.5 -150.5t-24.5 -150.5t-69.5 -113t-110 -71t-146 -24.5zM369 153q69 0 107.5 51.5t38.5 146.5q0 96 -38.5 146t-107.5 50t-107.5 -50t-38.5 -146q0 -95 38.5 -146.5
t107.5 -51.5z" />
    <glyph glyph-name="Odieresis" unicode="&#xd6;" horiz-adv-x="737" 
d="M397 864q0 18 7.5 35t21 29.5t31 20t36.5 7.5q18 0 35 -7.5t29.5 -20t20 -29.5t7.5 -35q0 -20 -7.5 -37.5t-20 -30.5t-29.5 -20.5t-35 -7.5q-19 0 -36.5 7.5t-31 20.5t-21 30.5t-7.5 37.5zM149 864q0 18 7.5 35t21 29.5t31 20t36.5 7.5q18 0 35 -7.5t29.5 -20t20 -29.5
t7.5 -35q0 -20 -7.5 -37.5t-20 -30.5t-29.5 -20.5t-35 -7.5q-19 0 -36.5 7.5t-31 20.5t-21 30.5t-7.5 37.5zM369 -8q-81 0 -145.5 24.5t-110.5 71t-70.5 113t-24.5 150.5t24.5 150.5t70.5 112t110.5 70t145.5 24.5t146 -24.5t110 -70t69.5 -112t24.5 -150.5t-24.5 -150.5
t-69.5 -113t-110 -71t-146 -24.5zM369 153q69 0 107.5 51.5t38.5 146.5q0 96 -38.5 146t-107.5 50t-107.5 -50t-38.5 -146q0 -95 38.5 -146.5t107.5 -51.5z" />
    <glyph glyph-name="multiply" unicode="&#xd7;" horiz-adv-x="558" 
d="M36 178l139 138l-139 140l104 104l139 -139l140 139l104 -104l-139 -140l139 -138l-106 -104l-138 138l-137 -138z" />
    <glyph glyph-name="Oslash" unicode="&#xd8;" horiz-adv-x="737" 
d="M719 351q0 -84 -24.5 -150.5t-69.5 -113t-110 -71t-146 -24.5t-145.5 24.5t-110.5 71t-70.5 113t-24.5 150.5t24.5 150t70.5 112t110.5 70.5t145.5 24.5t146 -24.5t110 -70.5t69.5 -112t24.5 -150zM223 351q0 -38 7 -68t20 -52l113 313q-1 1 -3 1h-4q-63 -5 -98 -54
t-35 -140zM515 351q0 40 -8.5 72.5t-22.5 55.5l-117 -325q2 -1 6 -1q67 0 104.5 52t37.5 146z" />
    <glyph glyph-name="Ugrave" unicode="&#xd9;" horiz-adv-x="690" 
d="M475 765h-164l-137 207h191zM235 272q0 -60 28.5 -89t82.5 -29q53 0 81 29t28 89v429h196v-451q0 -60 -22 -107.5t-62 -81t-96 -51.5t-125 -18t-125.5 18t-97 51.5t-62.5 81t-22 107.5v451h196v-429z" />
    <glyph glyph-name="Uacute" unicode="&#xda;" horiz-adv-x="690" 
d="M246 765l110 207h192l-138 -207h-164zM235 272q0 -60 28.5 -89t82.5 -29q53 0 81 29t28 89v429h196v-451q0 -60 -22 -107.5t-62 -81t-96 -51.5t-125 -18t-125.5 18t-97 51.5t-62.5 81t-22 107.5v451h196v-429z" />
    <glyph glyph-name="Ucircumflex" unicode="&#xdb;" horiz-adv-x="690" 
d="M408 981l152 -230h-155l-55 89h-4l-55 -89h-153l151 230h119zM235 272q0 -60 28.5 -89t82.5 -29q53 0 81 29t28 89v429h196v-451q0 -60 -22 -107.5t-62 -81t-96 -51.5t-125 -18t-125.5 18t-97 51.5t-62.5 81t-22 107.5v451h196v-429z" />
    <glyph glyph-name="Udieresis" unicode="&#xdc;" horiz-adv-x="690" 
d="M128 864q0 18 7.5 35t20.5 29.5t30.5 20t37.5 7.5q18 0 34.5 -7.5t29.5 -20t20.5 -29.5t7.5 -35q0 -20 -7.5 -37.5t-20.5 -30.5t-29.5 -20.5t-34.5 -7.5q-40 0 -68 28t-28 68zM376 864q0 18 7.5 35t20.5 29.5t30.5 20t37.5 7.5q18 0 34.5 -7.5t29.5 -20t20.5 -29.5
t7.5 -35q0 -20 -7.5 -37.5t-20.5 -30.5t-29.5 -20.5t-34.5 -7.5q-40 0 -68 28t-28 68zM235 272q0 -60 28.5 -89t82.5 -29q53 0 81 29t28 89v429h196v-451q0 -60 -22 -107.5t-62 -81t-96 -51.5t-125 -18t-125.5 18t-97 51.5t-62.5 81t-22 107.5v451h196v-429z" />
    <glyph glyph-name="Yacute" unicode="&#xdd;" horiz-adv-x="662" 
d="M409 765h-164l110 207h191zM430 282v-282h-196v282l-240 418h229l107 -228h4l106 228h228z" />
    <glyph glyph-name="Thorn" unicode="&#xde;" horiz-adv-x="617" 
d="M235 567h138q53 0 94.5 -15.5t71 -44t45 -68.5t15.5 -90q0 -99 -60 -157t-166 -58h-138v-134h-196v700h196v-133zM235 419v-137h98q40 0 62.5 17.5t22.5 49.5q0 33 -22 51.5t-63 18.5h-98z" />
    <glyph glyph-name="germandbls" unicode="&#xdf;" horiz-adv-x="682" 
d="M39 0v471q0 53 17 97t52 75t87.5 48t122.5 17q74 0 128 -17.5t90 -47t53.5 -67t17.5 -76.5q0 -25 -7.5 -50.5t-20.5 -46t-31 -35t-40 -17.5q29 -4 55 -16.5t46 -31t32 -43t12 -53.5q0 -63 -20 -104.5t-54 -66.5t-78 -35t-92 -10q-28 0 -56.5 3t-56.5 8v130
q26 -3 54.5 -1.5t51.5 8.5t38 22t15 39t-10.5 41t-27 27.5t-37 15t-39.5 4.5h-31v124h31q38 0 59 20.5t21 49.5q0 34 -27 53.5t-72 19.5q-46 0 -69.5 -24t-23.5 -80v-451h-190z" />
    <glyph glyph-name="agrave" unicode="&#xe0;" horiz-adv-x="588" 
d="M346 795l111 -207h-164l-138 207h191zM303 527q58 0 104.5 -13.5t79 -37.5t50 -57.5t17.5 -74.5v-344h-184v75h-3q-10 -20 -28.5 -35.5t-41 -26t-48 -16t-49.5 -5.5q-36 0 -68.5 11t-57 31.5t-39 50t-14.5 65.5q0 78 56.5 119t163.5 47l121 8v11q0 29 -18 44.5t-51 15.5
q-27 0 -47 -9.5t-25 -29.5h-172q10 79 76.5 125t177.5 46zM362 221l-90 -5q-32 -2 -47 -16t-15 -35q0 -24 18.5 -35.5t41.5 -11.5q18 0 34.5 7t29.5 18.5t20.5 27t7.5 31.5v19z" />
    <glyph glyph-name="aacute" unicode="&#xe1;" horiz-adv-x="588" 
d="M386 588h-164l111 207h191zM303 527q58 0 104.5 -13.5t79 -37.5t50 -57.5t17.5 -74.5v-344h-184v75h-3q-10 -20 -28.5 -35.5t-41 -26t-48 -16t-49.5 -5.5q-36 0 -68.5 11t-57 31.5t-39 50t-14.5 65.5q0 78 56.5 119t163.5 47l121 8v11q0 29 -18 44.5t-51 15.5
q-27 0 -47 -9.5t-25 -29.5h-172q10 79 76.5 125t177.5 46zM362 221l-90 -5q-32 -2 -47 -16t-15 -35q0 -24 18.5 -35.5t41.5 -11.5q18 0 34.5 7t29.5 18.5t20.5 27t7.5 31.5v19z" />
    <glyph glyph-name="acircumflex" unicode="&#xe2;" horiz-adv-x="588" 
d="M517 569h-154l-56 88h-4l-55 -88h-153l151 230h120zM303 527q58 0 104.5 -13.5t79 -37.5t50 -57.5t17.5 -74.5v-344h-184v75h-3q-10 -20 -28.5 -35.5t-41 -26t-48 -16t-49.5 -5.5q-36 0 -68.5 11t-57 31.5t-39 50t-14.5 65.5q0 78 56.5 119t163.5 47l121 8v11
q0 29 -18 44.5t-51 15.5q-27 0 -47 -9.5t-25 -29.5h-172q10 79 76.5 125t177.5 46zM362 221l-90 -5q-32 -2 -47 -16t-15 -35q0 -24 18.5 -35.5t41.5 -11.5q18 0 34.5 7t29.5 18.5t20.5 27t7.5 31.5v19z" />
    <glyph glyph-name="atilde" unicode="&#xe3;" horiz-adv-x="588" 
d="M233 655q-15 0 -23 -14t-8 -49h-140q0 47 7 83.5t24 61t45 37t70 12.5q27 0 48.5 -10.5t41 -22.5t39 -22.5t40.5 -10.5q17 0 27 14t10 50h139q0 -93 -33.5 -143t-116.5 -50q-27 0 -49 10t-42 22t-39 22t-40 10zM303 527q58 0 104.5 -13.5t79 -37.5t50 -57.5t17.5 -74.5
v-344h-184v75h-3q-10 -20 -28.5 -35.5t-41 -26t-48 -16t-49.5 -5.5q-36 0 -68.5 11t-57 31.5t-39 50t-14.5 65.5q0 78 56.5 119t163.5 47l121 8v11q0 29 -18 44.5t-51 15.5q-27 0 -47 -9.5t-25 -29.5h-172q10 79 76.5 125t177.5 46zM362 221l-90 -5q-32 -2 -47 -16t-15 -35
q0 -24 18.5 -35.5t41.5 -11.5q18 0 34.5 7t29.5 18.5t20.5 27t7.5 31.5v19z" />
    <glyph glyph-name="adieresis" unicode="&#xe4;" horiz-adv-x="588" 
d="M96 681q0 18 7.5 35t20.5 30t30.5 20.5t37.5 7.5q18 0 34.5 -7.5t29.5 -20.5t20.5 -30t7.5 -35q0 -19 -7.5 -36.5t-20.5 -30.5t-29.5 -20.5t-34.5 -7.5q-20 0 -37.5 7.5t-30.5 20.5t-20.5 30.5t-7.5 36.5zM344 681q0 18 7.5 35t20.5 30t30.5 20.5t37.5 7.5
q18 0 34.5 -7.5t29.5 -20.5t20.5 -30t7.5 -35q0 -19 -7.5 -36.5t-20.5 -30.5t-29.5 -20.5t-34.5 -7.5q-20 0 -37.5 7.5t-30.5 20.5t-20.5 30.5t-7.5 36.5zM303 527q58 0 104.5 -13.5t79 -37.5t50 -57.5t17.5 -74.5v-344h-184v75h-3q-10 -20 -28.5 -35.5t-41 -26t-48 -16
t-49.5 -5.5q-36 0 -68.5 11t-57 31.5t-39 50t-14.5 65.5q0 78 56.5 119t163.5 47l121 8v11q0 29 -18 44.5t-51 15.5q-27 0 -47 -9.5t-25 -29.5h-172q10 79 76.5 125t177.5 46zM362 221l-90 -5q-32 -2 -47 -16t-15 -35q0 -24 18.5 -35.5t41.5 -11.5q18 0 34.5 7t29.5 18.5
t20.5 27t7.5 31.5v19z" />
    <glyph glyph-name="aring" unicode="&#xe5;" horiz-adv-x="588" 
d="M316 583q-66 0 -107 39t-41 102t40 102.5t108 39.5q66 0 106 -39.5t40 -102.5q0 -31 -10.5 -57t-30 -45t-46 -29t-59.5 -10zM316 680q22 0 32 12t10 32t-10.5 32.5t-31.5 12.5q-23 0 -34 -12.5t-11 -32.5t11 -32t34 -12zM303 527q58 0 104.5 -13.5t79 -37.5t50 -57.5
t17.5 -74.5v-344h-184v75h-3q-10 -20 -28.5 -35.5t-41 -26t-48 -16t-49.5 -5.5q-36 0 -68.5 11t-57 31.5t-39 50t-14.5 65.5q0 78 56.5 119t163.5 47l121 8v11q0 29 -18 44.5t-51 15.5q-27 0 -47 -9.5t-25 -29.5h-172q10 79 76.5 125t177.5 46zM362 221l-90 -5
q-32 -2 -47 -16t-15 -35q0 -24 18.5 -35.5t41.5 -11.5q18 0 34.5 7t29.5 18.5t20.5 27t7.5 31.5v19z" />
    <glyph glyph-name="ae" unicode="&#xe6;" horiz-adv-x="913" 
d="M889 220h-348q5 -40 31.5 -63t61.5 -23q26 0 47.5 11.5t29.5 39.5h176q-9 -97 -76.5 -145t-179.5 -48q-67 0 -118 20.5t-86 71.5q-22 -33 -50 -51.5t-57.5 -27.5t-57 -11t-48.5 -2q-36 0 -71 11t-62 31.5t-43.5 50t-16.5 65.5q0 78 56.5 119t163.5 47l122 8v11
q0 29 -18.5 44.5t-51.5 15.5q-27 0 -47 -9.5t-25 -29.5h-172q10 79 76.5 125t177.5 46q52 0 98 -17.5t70 -45.5q26 28 69 44.5t90 18.5q128 -2 193.5 -73t65.5 -192v-42zM630 389q-33 0 -55.5 -19.5t-30.5 -49.5h168q-6 30 -27.5 49.5t-54.5 19.5zM363 221l-91 -5
q-32 -2 -47 -16t-15 -35q0 -24 19 -35.5t42 -11.5q18 0 34.5 7t29.5 18.5t20.5 27t7.5 31.5v19z" />
    <glyph glyph-name="ccedilla" unicode="&#xe7;" horiz-adv-x="570" 
d="M552 185q-10 -97 -76 -145t-177 -48q-130 0 -202 67.5t-72 199.5t72.5 200t200.5 68q109 0 176.5 -49.5t77.5 -146.5h-177q-8 29 -28 41.5t-45 12.5q-37 0 -61.5 -32.5t-24.5 -93.5q0 -60 24.5 -92.5t61.5 -32.5q26 0 46 12t27 39h177zM288 -287h-164l110 207h191z" />
    <glyph glyph-name="egrave" unicode="&#xe8;" horiz-adv-x="581" 
d="M322 795l110 -207h-164l-137 207h191zM557 220h-348q4 -40 31 -63t62 -23q26 0 47.5 11.5t29.5 39.5h175q-8 -97 -75.5 -145t-179.5 -48q-130 0 -202 68.5t-72 200.5q0 63 19.5 112.5t55 83t86 51.5t112.5 19q128 -2 193.5 -73t65.5 -192v-42zM298 389q-33 0 -55.5 -19.5
t-30.5 -49.5h168q-6 30 -28 49.5t-54 19.5z" />
    <glyph glyph-name="eacute" unicode="&#xe9;" horiz-adv-x="581" 
d="M363 588h-163l110 207h192zM557 220h-348q4 -40 31 -63t62 -23q26 0 47.5 11.5t29.5 39.5h175q-8 -97 -75.5 -145t-179.5 -48q-130 0 -202 68.5t-72 200.5q0 63 19.5 112.5t55 83t86 51.5t112.5 19q128 -2 193.5 -73t65.5 -192v-42zM298 389q-33 0 -55.5 -19.5
t-30.5 -49.5h168q-6 30 -28 49.5t-54 19.5z" />
    <glyph glyph-name="ecircumflex" unicode="&#xea;" horiz-adv-x="581" 
d="M512 569h-155l-55 88h-4l-56 -88h-152l150 230h120zM557 220h-348q4 -40 31 -63t62 -23q26 0 47.5 11.5t29.5 39.5h175q-8 -97 -75.5 -145t-179.5 -48q-130 0 -202 68.5t-72 200.5q0 63 19.5 112.5t55 83t86 51.5t112.5 19q128 -2 193.5 -73t65.5 -192v-42zM298 389
q-33 0 -55.5 -19.5t-30.5 -49.5h168q-6 30 -28 49.5t-54 19.5z" />
    <glyph glyph-name="edieresis" unicode="&#xeb;" horiz-adv-x="581" 
d="M328 681q0 18 7.5 35t21 30t31 20.5t36.5 7.5q18 0 35 -7.5t30 -20.5t20.5 -30t7.5 -35q0 -19 -7.5 -36.5t-20.5 -30.5t-30 -20.5t-35 -7.5q-19 0 -36.5 7.5t-31 20.5t-21 30.5t-7.5 36.5zM80 681q0 18 7.5 35t20.5 30t30.5 20.5t37.5 7.5q18 0 35 -7.5t30 -20.5
t20.5 -30t7.5 -35q0 -19 -7.5 -36.5t-20.5 -30.5t-30 -20.5t-35 -7.5q-20 0 -37.5 7.5t-30.5 20.5t-20.5 30.5t-7.5 36.5zM557 220h-348q4 -40 31 -63t62 -23q26 0 47.5 11.5t29.5 39.5h175q-8 -97 -75.5 -145t-179.5 -48q-130 0 -202 68.5t-72 200.5q0 63 19.5 112.5t55 83
t86 51.5t112.5 19q128 -2 193.5 -73t65.5 -192v-42zM298 389q-33 0 -55.5 -19.5t-30.5 -49.5h168q-6 30 -28 49.5t-54 19.5z" />
    <glyph glyph-name="igrave" unicode="&#xec;" horiz-adv-x="281" 
d="M126 795l110 -207h-164l-138 207h192zM45 520h191v-520h-191v520z" />
    <glyph glyph-name="iacute" unicode="&#xed;" horiz-adv-x="281" 
d="M209 588h-164l111 207h191zM45 520h191v-520h-191v520z" />
    <glyph glyph-name="icircumflex" unicode="&#xee;" horiz-adv-x="281" 
d="M351 569h-154l-56 88h-4l-55 -88h-153l151 230h121zM45 520h191v-520h-191v520z" />
    <glyph glyph-name="idieresis" unicode="&#xef;" horiz-adv-x="281" 
d="M-79 681q0 18 8 35t21.5 30t31 20.5t37.5 7.5q18 0 35 -7.5t29.5 -20.5t20 -30t7.5 -35q0 -19 -7.5 -36.5t-20 -30.5t-29.5 -20.5t-35 -7.5q-20 0 -37.5 7.5t-31 20.5t-21.5 30.5t-8 36.5zM171 681q0 18 7.5 35t21 30t31 20.5t36.5 7.5q18 0 35 -7.5t29.5 -20.5t20 -30
t7.5 -35q0 -19 -7.5 -36.5t-20 -30.5t-29.5 -20.5t-35 -7.5q-19 0 -36.5 7.5t-31 20.5t-21 30.5t-7.5 36.5zM45 520h191v-520h-191v520z" />
    <glyph glyph-name="eth" unicode="&#xf0;" horiz-adv-x="653" 
d="M630 653l-90 -53q41 -45 64.5 -103.5t23.5 -134.5q0 -84 -19.5 -152.5t-58.5 -117t-96.5 -74.5t-132.5 -26q-62 0 -115 17.5t-91.5 49.5t-60.5 77.5t-22 102.5q0 39 16 77.5t45 69t71 49t93 18.5q72 0 121 -20t82 -56h2q0 41 -13.5 79t-39.5 67l-101 -59l-30 57l73 42
q-30 17 -76 20v125q57 0 111.5 -16t100.5 -48l112 65zM325 131q21 0 39.5 8t33 22t22.5 32.5t8 40.5q0 44 -30.5 73t-75.5 29q-43 0 -72.5 -29t-29.5 -74q0 -21 8.5 -39.5t22.5 -32.5t33 -22t41 -8z" />
    <glyph glyph-name="ntilde" unicode="&#xf1;" horiz-adv-x="611" 
d="M237 655q-15 0 -23.5 -14t-8.5 -49h-139q0 47 7 83.5t23.5 61t45 37t70.5 12.5q27 0 48.5 -10.5t41 -22.5t38.5 -22.5t40 -10.5q18 0 28 14t10 50h139q0 -93 -34 -143t-117 -50q-27 0 -49 10t-41.5 22t-38.5 22t-40 10zM389 527q91 0 139 -49.5t48 -148.5v-329h-190v288
q0 44 -20 69t-61 25q-37 0 -59 -27.5t-22 -69.5v-285h-189v520h184v-95h1q20 58 63.5 80t105.5 22z" />
    <glyph glyph-name="ograve" unicode="&#xf2;" horiz-adv-x="590" 
d="M322 795l110 -207h-164l-137 207h191zM295 -8q-129 0 -204 68t-75 199q0 66 19.5 116t55.5 83.5t88 51t116 17.5t116 -17.5t88.5 -51t56 -83.5t19.5 -116t-19.5 -115.5t-56 -83.5t-88.5 -51t-116 -17zM295 134q17 0 34 7.5t30.5 23t22 39t8.5 55.5q0 33 -8.5 56.5
t-22 39.5t-30.5 23.5t-34 7.5q-18 0 -34.5 -7.5t-30 -23.5t-21.5 -39.5t-8 -56.5t8 -56.5t21.5 -38.5t30 -22.5t34.5 -7.5z" />
    <glyph glyph-name="oacute" unicode="&#xf3;" horiz-adv-x="590" 
d="M369 588h-164l110 207h192zM295 -8q-129 0 -204 68t-75 199q0 66 19.5 116t55.5 83.5t88 51t116 17.5t116 -17.5t88.5 -51t56 -83.5t19.5 -116t-19.5 -115.5t-56 -83.5t-88.5 -51t-116 -17zM295 134q17 0 34 7.5t30.5 23t22 39t8.5 55.5q0 33 -8.5 56.5t-22 39.5
t-30.5 23.5t-34 7.5q-18 0 -34.5 -7.5t-30 -23.5t-21.5 -39.5t-8 -56.5t8 -56.5t21.5 -38.5t30 -22.5t34.5 -7.5z" />
    <glyph glyph-name="ocircumflex" unicode="&#xf4;" horiz-adv-x="590" 
d="M504 569h-154l-55 88h-4l-56 -88h-151l149 230h120zM295 -8q-129 0 -204 68t-75 199q0 66 19.5 116t55.5 83.5t88 51t116 17.5t116 -17.5t88.5 -51t56 -83.5t19.5 -116t-19.5 -115.5t-56 -83.5t-88.5 -51t-116 -17zM295 134q17 0 34 7.5t30.5 23t22 39t8.5 55.5
q0 33 -8.5 56.5t-22 39.5t-30.5 23.5t-34 7.5q-18 0 -34.5 -7.5t-30 -23.5t-21.5 -39.5t-8 -56.5t8 -56.5t21.5 -38.5t30 -22.5t34.5 -7.5z" />
    <glyph glyph-name="otilde" unicode="&#xf5;" horiz-adv-x="590" 
d="M219 655q-16 0 -24 -14t-8 -49h-141q0 47 7 83.5t24 61t45 37t70 12.5q27 0 48.5 -10.5t41.5 -22.5t39 -22.5t41 -10.5q17 0 27 14t10 50h139q0 -93 -34 -143t-117 -50q-27 0 -49 10t-42 22t-38.5 22t-38.5 10zM295 -8q-129 0 -204 68t-75 199q0 66 19.5 116t55.5 83.5
t88 51t116 17.5t116 -17.5t88.5 -51t56 -83.5t19.5 -116t-19.5 -115.5t-56 -83.5t-88.5 -51t-116 -17zM295 134q17 0 34 7.5t30.5 23t22 39t8.5 55.5q0 33 -8.5 56.5t-22 39.5t-30.5 23.5t-34 7.5q-18 0 -34.5 -7.5t-30 -23.5t-21.5 -39.5t-8 -56.5t8 -56.5t21.5 -38.5
t30 -22.5t34.5 -7.5z" />
    <glyph glyph-name="odieresis" unicode="&#xf6;" horiz-adv-x="590" 
d="M78 681q0 18 7.5 35t20.5 30t30.5 20.5t36.5 7.5q18 0 35 -7.5t29.5 -20.5t20 -30t7.5 -35q0 -19 -7.5 -36.5t-20 -30.5t-29.5 -20.5t-35 -7.5q-19 0 -36.5 7.5t-30.5 20.5t-20.5 30.5t-7.5 36.5zM326 681q0 18 7.5 35t20.5 30t30.5 20.5t36.5 7.5q18 0 35 -7.5
t29.5 -20.5t20 -30t7.5 -35q0 -19 -7.5 -36.5t-20 -30.5t-29.5 -20.5t-35 -7.5q-19 0 -36.5 7.5t-30.5 20.5t-20.5 30.5t-7.5 36.5zM295 -8q-129 0 -204 68t-75 199q0 66 19.5 116t55.5 83.5t88 51t116 17.5t116 -17.5t88.5 -51t56 -83.5t19.5 -116t-19.5 -115.5t-56 -83.5
t-88.5 -51t-116 -17zM295 134q17 0 34 7.5t30.5 23t22 39t8.5 55.5q0 33 -8.5 56.5t-22 39.5t-30.5 23.5t-34 7.5q-18 0 -34.5 -7.5t-30 -23.5t-21.5 -39.5t-8 -56.5t8 -56.5t21.5 -38.5t30 -22.5t34.5 -7.5z" />
    <glyph glyph-name="divide" unicode="&#xf7;" horiz-adv-x="594" 
d="M298 408q-42 0 -66 26t-24 61t24 60.5t66 25.5t65 -25.5t23 -60.5t-23 -61t-65 -26zM33 381h528v-129h-528v129zM298 49q-42 0 -66 26t-24 61t24 60.5t66 25.5t65 -25.5t23 -60.5t-23 -61t-65 -26z" />
    <glyph glyph-name="oslash" unicode="&#xf8;" horiz-adv-x="590" 
d="M295 527q64 0 115.5 -17.5t88 -51.5t56.5 -84t20 -115q0 -66 -19.5 -115.5t-56 -83.5t-88 -51t-116.5 -17q-64 0 -115.5 17t-88 51t-56 83.5t-19.5 115.5q0 65 19.5 115t56 84t88 51.5t115.5 17.5zM201 259q0 -50 20 -79l73 205h-1l-2 1q-35 -2 -62.5 -33t-27.5 -94z
M390 259q0 24 -5.5 43t-13.5 33l-73 -200q1 -1 4 -1q16 2 32 10t28.5 23.5t20 38t7.5 53.5z" />
    <glyph glyph-name="ugrave" unicode="&#xf9;" horiz-adv-x="611" 
d="M334 795l110 -207h-164l-138 207h192zM224 520v-289q0 -45 20 -70t60 -25q39 0 60.5 28t21.5 70v286h190v-520h-184v96h-3q-20 -59 -62 -81.5t-105 -22.5q-90 0 -138.5 50.5t-48.5 149.5v328h189z" />
    <glyph glyph-name="uacute" unicode="&#xfa;" horiz-adv-x="611" 
d="M381 588h-163l109 207h192zM224 520v-289q0 -45 20 -70t60 -25q39 0 60.5 28t21.5 70v286h190v-520h-184v96h-3q-20 -59 -62 -81.5t-105 -22.5q-90 0 -138.5 50.5t-48.5 149.5v328h189z" />
    <glyph glyph-name="ucircumflex" unicode="&#xfb;" horiz-adv-x="611" 
d="M518 569h-154l-56 88h-4l-55 -88h-152l150 230h121zM224 520v-289q0 -45 20 -70t60 -25q39 0 60.5 28t21.5 70v286h190v-520h-184v96h-3q-20 -59 -62 -81.5t-105 -22.5q-90 0 -138.5 50.5t-48.5 149.5v328h189z" />
    <glyph glyph-name="udieresis" unicode="&#xfc;" horiz-adv-x="611" 
d="M338 681q0 18 7.5 35t20.5 30t30.5 20.5t37.5 7.5q18 0 35 -7.5t29.5 -20.5t20.5 -30t8 -35q0 -19 -8 -36.5t-20.5 -30.5t-29.5 -20.5t-35 -7.5q-20 0 -37.5 7.5t-30.5 20.5t-20.5 30.5t-7.5 36.5zM90 681q0 18 7.5 35t20.5 30t30.5 20.5t37.5 7.5q18 0 34.5 -7.5
t29.5 -20.5t20.5 -30t7.5 -35q0 -19 -7.5 -36.5t-20.5 -30.5t-29.5 -20.5t-34.5 -7.5q-20 0 -37.5 7.5t-30.5 20.5t-20.5 30.5t-7.5 36.5zM224 520v-289q0 -45 20 -70t60 -25q39 0 60.5 28t21.5 70v286h190v-520h-184v96h-3q-20 -59 -62 -81.5t-105 -22.5q-90 0 -138.5 50.5
t-48.5 149.5v328h189z" />
    <glyph glyph-name="yacute" unicode="&#xfd;" horiz-adv-x="560" 
d="M366 588h-163l109 207h192zM566 520q-43 -128 -78 -236q-15 -46 -30.5 -91.5t-28.5 -85t-22.5 -69t-14.5 -43.5q-28 -97 -84.5 -142.5t-134.5 -45.5q-23 0 -55 2.5t-55 7.5v122q15 -2 27.5 -3.5t26.5 -1.5q30 0 44.5 16t18.5 30l6 21l-192 519h204l84 -357h3l82 357h199z
" />
    <glyph glyph-name="thorn" unicode="&#xfe;" horiz-adv-x="614" 
d="M227 682v-220h2q30 34 71.5 49.5t95.5 15.5q39 0 75.5 -17t64.5 -51t45 -84.5t17 -118.5q0 -64 -16 -113.5t-45.5 -83t-70.5 -50.5t-91 -17q-37 0 -76.5 12.5t-69.5 47.5h-2v-229h-192v859h192zM221 261q0 -60 25.5 -91t69.5 -31q43 0 69 31t26 89q0 60 -25.5 91
t-69.5 31t-69.5 -30t-25.5 -90z" />
    <glyph glyph-name="ydieresis" unicode="&#xff;" horiz-adv-x="560" 
d="M67 681q0 18 8 35t21 30t31 20.5t37 7.5q18 0 35 -7.5t29.5 -20.5t20 -30t7.5 -35q0 -19 -7.5 -36.5t-20 -30.5t-29.5 -20.5t-35 -7.5q-19 0 -37 7.5t-31 20.5t-21 30.5t-8 36.5zM316 681q0 18 7.5 35t21 30t31 20.5t36.5 7.5q18 0 35 -7.5t29.5 -20.5t20 -30t7.5 -35
q0 -19 -7.5 -36.5t-20 -30.5t-29.5 -20.5t-35 -7.5q-19 0 -36.5 7.5t-31 20.5t-21 30.5t-7.5 36.5zM566 520q-43 -128 -78 -236q-15 -46 -30.5 -91.5t-28.5 -85t-22.5 -69t-14.5 -43.5q-28 -97 -84.5 -142.5t-134.5 -45.5q-23 0 -55 2.5t-55 7.5v122q15 -2 27.5 -3.5
t26.5 -1.5q30 0 44.5 16t18.5 30l6 21l-192 519h204l84 -357h3l82 357h199z" />
    <glyph glyph-name="Dcroat" unicode="&#x110;" horiz-adv-x="752" 
d="M377 700q80 0 144.5 -22t110.5 -65.5t70.5 -108t24.5 -148.5t-24.5 -150.5t-70.5 -112t-110.5 -69.5t-144.5 -24h-282v296h-83v116h83v288h282zM351 149q81 0 123.5 53.5t42.5 153.5q0 92 -44 144t-122 52h-60v-140h131v-116h-131v-147h60z" />
    <glyph glyph-name="dcroat" unicode="&#x111;" horiz-adv-x="614" 
d="M234 527q96 0 152 -74h2v115h-221v90h221v71h191v-71h60v-90h-60v-568h-183v62h-3q-23 -29 -67 -49.5t-95 -20.5q-43 0 -82 17t-68.5 51t-46.5 85t-17 118q0 64 16 113.5t44.5 83t68.5 50.5t88 17zM298 138q45 0 70 30t25 90t-25 91t-70 31q-42 0 -68 -31t-26 -90
q0 -60 25.5 -90.5t68.5 -30.5z" />
    <glyph glyph-name="dotlessi" unicode="&#x131;" horiz-adv-x="281" 
d="M45 520h191v-520h-191v520z" />
    <glyph glyph-name="Lslash" unicode="&#x141;" horiz-adv-x="594" 
d="M295 700v-288h167v-116h-167v-147h295v-149h-490v296h-84v116h84v288h195z" />
    <glyph glyph-name="lslash" unicode="&#x142;" horiz-adv-x="475" 
d="M335 700v-288h125v-116h-125v-296h-195v296h-125v116h125v288h195z" />
    <glyph glyph-name="OE" unicode="&#x152;" horiz-adv-x="1043" 
d="M668 552q36 -52 45 -127h241v-148h-241q-5 -38 -16.5 -70t-28.5 -58h344v-149h-555q-21 -4 -43 -6t-45 -2q-81 0 -145.5 24.5t-110.5 71t-70.5 113t-24.5 150.5t24.5 150t70.5 112t110.5 70.5t145.5 24.5q23 0 45 -2t43 -6h555v-148h-344zM223 351q0 -95 38.5 -146.5
t107.5 -51.5t107.5 51.5t38.5 146.5t-38.5 145.5t-107.5 50.5t-107.5 -50.5t-38.5 -145.5z" />
    <glyph glyph-name="oe" unicode="&#x153;" horiz-adv-x="944" 
d="M919 220h-347v-2q5 -39 31 -61.5t61 -22.5q27 0 48 11.5t29 39.5h177q-9 -97 -76.5 -145t-180.5 -48q-28 0 -56.5 5t-53 14.5t-43.5 23.5t-29 31q-10 -17 -29.5 -31t-44.5 -23.5t-53.5 -14.5t-56.5 -5q-64 0 -115.5 17t-88 51t-56 83.5t-19.5 115.5q0 65 19.5 115t56 84
t88 51.5t115.5 17.5q57 0 107.5 -17.5t79.5 -59.5q26 41 75 58.5t103 18.5q129 -2 194 -73t65 -192v-42zM660 389q-33 0 -55 -19.5t-30 -49.5h168q-7 30 -28.5 49.5t-54.5 19.5zM295 134q17 0 34 7.5t30.5 23t22 39t8.5 55.5q0 33 -8.5 56.5t-22 39.5t-30.5 23.5t-34 7.5
q-18 0 -34.5 -7.5t-30 -23.5t-21.5 -39.5t-8 -56.5q0 -32 8 -55.5t21.5 -39t30 -23t34.5 -7.5z" />
    <glyph glyph-name="Scaron" unicode="&#x160;" horiz-adv-x="641" 
d="M255 751l-150 230h152l56 -88h4l55 88h155l-152 -230h-120zM209 222q5 -35 32.5 -56.5t75.5 -21.5q49 0 75 16t26 45q0 14 -5 23t-17 16t-32.5 12.5t-51.5 11.5l-69 14q-106 20 -161.5 71.5t-55.5 132.5q0 52 21.5 93.5t60 70t91 43.5t114.5 15q69 0 123 -16.5
t90.5 -46.5t56 -72t19.5 -93h-188q-1 35 -27 56.5t-71 21.5q-46 0 -69 -16t-23 -42t23.5 -41t78.5 -25l71 -13q113 -20 168 -67t55 -132q0 -54 -21 -96.5t-60.5 -72t-96 -45.5t-128.5 -16q-67 0 -121 16t-92 45.5t-59 72t-21 96.5h188z" />
    <glyph glyph-name="scaron" unicode="&#x161;" horiz-adv-x="538" 
d="M207 569l-150 230h152l55 -89h4l56 89h154l-151 -230h-120zM203 160q14 -40 69 -40q53 0 53 32q0 5 -1 9t-6 8.5t-15.5 8.5t-29.5 7l-87 16q-75 15 -116.5 54t-41.5 99q0 45 20 77.5t53 53.5t75.5 31t88.5 10q45 0 85.5 -9.5t72 -29.5t51.5 -52.5t25 -78.5h-173
q-4 20 -20 31.5t-41 11.5q-20 0 -36 -8.5t-16 -26.5q0 -5 1.5 -9.5t7 -8.5t16 -8t29.5 -8l87 -16q82 -16 122.5 -50t40.5 -91q0 -83 -62 -132t-183 -49q-46 0 -88 8.5t-76 28t-57 52t-30 79.5h182z" />
    <glyph glyph-name="Ydieresis" unicode="&#x178;" horiz-adv-x="662" 
d="M116 864q0 18 7.5 35t21 29.5t31 20t37.5 7.5q18 0 34.5 -7.5t29 -20t20 -29.5t7.5 -35q0 -20 -7.5 -37.5t-20 -30.5t-29 -20.5t-34.5 -7.5q-20 0 -37.5 7.5t-31 20.5t-21 30.5t-7.5 37.5zM364 864q0 18 7.5 35t21 29.5t31 20t37.5 7.5q18 0 34.5 -7.5t29 -20t20 -29.5
t7.5 -35q0 -20 -7.5 -37.5t-20 -30.5t-29 -20.5t-34.5 -7.5q-20 0 -37.5 7.5t-31 20.5t-21 30.5t-7.5 37.5zM430 282v-282h-196v282l-240 418h229l107 -228h4l106 228h228z" />
    <glyph glyph-name="Zcaron" unicode="&#x17d;" horiz-adv-x="615" 
d="M257 751l-150 230h152l55 -88h4l56 88h154l-151 -230h-120zM584 149v-149h-552v124l308 424v4h-304v148h537v-123l-298 -426v-2h309z" />
    <glyph glyph-name="zcaron" unicode="&#x17e;" horiz-adv-x="519" 
d="M209 569l-150 230h153l54 -89h5l55 89h155l-152 -230h-120zM32 97l227 280v4h-227v139h455v-112l-209 -264v-4h209v-140h-455v97z" />
    <glyph glyph-name="florin" unicode="&#x192;" horiz-adv-x="407" 
d="M379 505v-123h-81v-213q0 -48 -14 -81.5t-39.5 -55t-59.5 -31t-75 -9.5q-22 0 -45.5 2.5t-49.5 8.5v130q27 -3 44 -3q26 0 38 10t12 34v208h-79v123h79v26q0 48 14 81.5t39.5 54.5t60 30.5t75.5 9.5q22 0 45.5 -2.5t48.5 -7.5v-131q-8 2 -16.5 2.5t-16.5 0.5
q-31 0 -46 -7.5t-15 -36.5v-20h81z" />
    <glyph glyph-name="circumflex" unicode="&#x2c6;" horiz-adv-x="533" 
d="M477 569h-154l-56 88h-3l-56 -88h-152l150 230h121z" />
    <glyph glyph-name="caron" unicode="&#x2c7;" horiz-adv-x="533" 
d="M206 569l-150 230h152l56 -89h3l56 89h154l-150 -230h-121z" />
    <glyph glyph-name="breve" unicode="&#x2d8;" horiz-adv-x="455" 
d="M176 749q0 -23 12.5 -38t37.5 -15q27 0 39.5 15t12.5 38h121q0 -36 -12 -66.5t-34.5 -52.5t-54.5 -34.5t-72 -12.5q-38 0 -69.5 12.5t-54 34.5t-34.5 52.5t-12 66.5h120z" />
    <glyph glyph-name="dotaccent" unicode="&#x2d9;" horiz-adv-x="299" 
d="M56 633q0 18 7.5 34.5t20.5 29t30.5 20t36.5 7.5q18 0 35 -7.5t29.5 -20t20 -29t7.5 -34.5q0 -20 -7.5 -37.5t-20 -30.5t-29.5 -20.5t-35 -7.5q-19 0 -36.5 7.5t-30.5 20.5t-20.5 30.5t-7.5 37.5z" />
    <glyph glyph-name="ring" unicode="&#x2da;" horiz-adv-x="406" 
d="M56 724q0 63 40 102.5t108 39.5q66 0 106 -39.5t40 -102.5q0 -31 -10.5 -57t-30 -45t-46 -29t-59.5 -10q-66 0 -107 39t-41 102zM159 724q0 -20 11 -32t34 -12t33 12t10 32t-11 32.5t-32 12.5q-23 0 -34 -12.5t-11 -32.5z" />
    <glyph glyph-name="ogonek" unicode="&#x2db;" horiz-adv-x="280" 
 />
    <glyph glyph-name="tilde" unicode="&#x2dc;" horiz-adv-x="603" 
d="M228 655q-15 0 -23.5 -14t-8.5 -49h-140q0 47 7 83.5t24 61t45.5 37t70.5 12.5q26 0 47.5 -10.5t41 -22.5t39 -22.5t40.5 -10.5q18 0 27.5 14t9.5 50h139q0 -94 -34 -143.5t-116 -49.5q-27 0 -49 10t-41.5 22t-38.5 22t-40 10z" />
    <glyph glyph-name="hungarumlaut" unicode="&#x2dd;" horiz-adv-x="598" 
d="M56 568l110 227h166l-138 -227h-138zM266 568l109 227h167l-139 -227h-137z" />
    <glyph glyph-name="uni03BC" unicode="&#x3bc;" horiz-adv-x="608" 
d="M224 520v-289q0 -45 20 -70t60 -25q39 0 60.5 28t21.5 70v286h190v-520h-184v82h-3q-9 -39 -38.5 -64.5t-71.5 -25.5q-6 0 -15 1t-18.5 3.5t-17 6t-10.5 8.5h-1v-188h-182v697h189z" />
    <glyph glyph-name="uni0E01" unicode="&#xe01;" horiz-adv-x="626" 
d="M25 320q0 133 72.5 197t201.5 64q143 0 219 -64t76 -174v-343h-192v322q0 48 -25 78.5t-78 30.5q-42 0 -68.5 -21t-31.5 -62l105 -22v-44q-35 -17 -48 -45t-13 -76v-161h-192v148q0 57 35 92t95 44l-156 25v11z" />
    <glyph glyph-name="uni0E02" unicode="&#xe02;" horiz-adv-x="600" 
d="M568 577v-369q0 -50 -16 -90t-49 -68t-84.5 -43t-122.5 -15q-142 0 -206.5 58t-64.5 158v16q0 46 12 78.5t30 55t40 36t42 19.5q0 11 -5.5 17.5t-14.5 10t-20 4.5t-22 1h-46v131h89q65 0 100 -17t51.5 -41t19.5 -50.5t3 -45.5v-24q-50 -27 -69 -66.5t-19 -94.5
q0 -49 17.5 -70.5t62.5 -21.5q46 0 63 21.5t17 70.5v339h192z" />
    <glyph glyph-name="uni0E03" unicode="&#xe03;" horiz-adv-x="650" 
d="M617 577v-369q0 -50 -15.5 -90t-48.5 -68t-84.5 -43t-122.5 -15q-142 0 -207 58t-65 158v16q0 46 14 80t36 59t49.5 41t54.5 25q0 26 -12 40q-15 -25 -38 -37.5t-58 -12.5q-22 0 -43 6.5t-37.5 21t-26.5 38t-10 58.5v34h120v-13q0 -19 9 -29.5t23 -10.5q16 0 25.5 11.5
t14.5 41.5h34q41 0 67 -12.5t41 -34t20.5 -49.5t5.5 -58v-24q-19 -10 -36.5 -23.5t-31 -32.5t-21.5 -43t-8 -55v-7q0 -49 17.5 -70.5t62.5 -21.5q46 0 63 21.5t17 70.5v339h191z" />
    <glyph glyph-name="uni0E04" unicode="&#xe04;" horiz-adv-x="657" 
d="M26 352q0 51 20 93t58.5 72t95 47t128.5 17t127.5 -16t93 -45.5t57 -71t19.5 -91.5v-357h-192v327q0 48 -30 76t-75 28q-57 0 -83.5 -32.5t-26.5 -84.5q0 -40 0.5 -72t2.5 -63q8 27 20.5 53.5t30 46.5t39 32.5t47.5 12.5h27v-141h-15q-27 0 -46.5 -6t-33.5 -17t-24.5 -27
t-20.5 -37v-96h-192v96q-5 30 -10 58.5t-8.5 59t-6 64.5t-2.5 74z" />
    <glyph glyph-name="uni0E05" unicode="&#xe05;" horiz-adv-x="657" 
d="M457 582q48 0 80.5 -15t52 -41.5t27.5 -62t8 -77.5v-386h-192v380q0 51 -36 51q-17 0 -27.5 -13t-8.5 -31h-71q0 18 -9 31t-27 13t-27.5 -19t-9.5 -46q0 -45 1 -92.5t3 -93.5q8 27 21 53t30 46.5t38.5 32.5t47.5 12h27v-141h-15q-27 0 -46.5 -6t-33.5 -17t-24.5 -27
t-20.5 -37v-96h-192v96q-10 60 -18.5 127.5t-8.5 148.5q0 43 8 81.5t27 67t51.5 45t80.5 16.5q110 0 133 -85q21 85 131 85z" />
    <glyph glyph-name="uni0E06" unicode="&#xe06;" horiz-adv-x="673" 
d="M74 0v224q0 46 14 80t36 59t49.5 41t54.5 25q0 26 -12 40q-15 -25 -38 -37.5t-58 -12.5q-22 0 -43 6.5t-37.5 21t-26.5 38t-10 58.5v34h120v-13q0 -19 9 -29.5t23 -10.5q16 0 25.5 11.5t14.5 41.5h34q41 0 67 -12.5t41 -34t20.5 -49.5t5.5 -58v-24q-18 -10 -35.5 -23.5
t-31 -31.5t-22 -41.5t-8.5 -53.5q0 -48 23.5 -75.5t67.5 -27.5q49 0 70.5 25.5t21.5 82.5v323h192v-377q0 -49 -15 -87.5t-41 -65.5t-61 -41t-76 -14q-75 0 -122.5 32.5t-63.5 89.5v-114h-188z" />
    <glyph glyph-name="uni0E07" unicode="&#xe07;" horiz-adv-x="618" 
d="M367 577q58 0 102 -6.5t73.5 -25.5t44.5 -53t15 -90q0 -39 -13.5 -87.5t-36 -101.5t-51.5 -107.5t-59 -105.5h-237l-209 577h191l144 -445h3q45 88 61.5 153t16.5 103q0 58 -54 58h-60v131h69z" />
    <glyph glyph-name="uni0E08" unicode="&#xe08;" horiz-adv-x="584" 
d="M29 205v109h147q26 0 40.5 -10.5t22.5 -29.5l61 -142h4q29 55 49.5 109t20.5 96q0 26 -8.5 43t-21.5 27.5t-29.5 15t-32.5 4.5q-27 0 -53 -13t-33 -45h-182q5 50 28 89t60 66.5t84.5 42t100.5 14.5q77 0 129.5 -20.5t85 -53t46.5 -73.5t14 -82q0 -36 -10.5 -71.5
t-30.5 -76.5t-49 -90.5t-67 -113.5h-206l-90 188q-4 8 -10 12.5t-18 4.5h-52z" />
    <glyph glyph-name="uni0E09" unicode="&#xe09;" horiz-adv-x="638" 
d="M417 0v114q-16 -57 -63 -89.5t-122 -32.5q-41 0 -76.5 14t-61.5 41t-40.5 65.5t-14.5 87.5v90h192v-36q0 -57 21.5 -82.5t69.5 -25.5q45 0 68 28.5t23 79.5v67q0 62 -29 84.5t-77 22.5q-37 0 -62.5 -15t-35.5 -44h-182q5 48 28.5 87t61 66.5t86 43t104.5 15.5
q143 0 220.5 -61.5t77.5 -198.5v-321h-188z" />
    <glyph glyph-name="uni0E0A" unicode="&#xe0a;" horiz-adv-x="600" 
d="M41 577h89q65 0 100 -17t51.5 -41t19.5 -50.5t3 -45.5v-24q-50 -27 -69 -66.5t-19 -94.5q0 -49 17.5 -70.5t62.5 -21.5q46 0 63 21.5t17 70.5v71q0 34 -9.5 52.5t-35.5 32.5v70q20 6 32 16.5t19 25.5t9.5 35.5t3.5 45.5h192q-2 -61 -24 -99t-72 -56q42 -14 59.5 -48.5
t17.5 -96.5v-79q0 -50 -16 -90t-49 -68t-84.5 -43t-122.5 -15q-142 0 -206.5 58t-64.5 158v16q0 46 12 78.5t30 55t40 36t42 19.5q0 11 -5.5 17.5t-14.5 10t-20 4.5t-22 1h-46v131z" />
    <glyph glyph-name="uni0E0B" unicode="&#xe0b;" horiz-adv-x="650" 
d="M3 577h120v-13q0 -19 4.5 -29.5t18.5 -10.5q15 0 24.5 11.5t15.5 41.5h33q41 0 67 -12.5t41 -34t21 -49.5t6 -58v-24q-37 -20 -62.5 -56t-25.5 -98v-7q0 -49 17.5 -70.5t62.5 -21.5q46 0 63 21.5t17 70.5v71q0 34 -10 52.5t-35 32.5v70q20 6 32 16.5t19 25.5t9.5 35.5
t3.5 45.5h192q-2 -61 -24.5 -99t-72.5 -56q42 -14 59.5 -48.5t17.5 -96.5v-79q0 -50 -15.5 -90t-48.5 -68t-84.5 -43t-122.5 -15q-142 0 -207 58t-65 158v16q0 46 12.5 80t32.5 59t46 41t53 25q0 27 -11 40q-30 -50 -96 -50q-22 0 -41.5 6.5t-34.5 21t-23.5 38t-8.5 58.5v34
z" />
    <glyph glyph-name="uni0E0C" unicode="&#xe0c;" horiz-adv-x="960" 
d="M31 141q0 30 12 54.5t33 42.5t48.5 29.5t57.5 16.5l-157 25v11q0 133 72 197t201 64q142 0 215.5 -64t73.5 -174v-76q0 -24 4.5 -45.5t13.5 -38.5t24 -27t36 -10q36 0 53.5 25.5t17.5 82.5v323h192v-377q0 -98 -46.5 -153t-134.5 -55q-65 0 -108 28.5t-60 84.5v-105h-184
v322q0 48 -22 78.5t-75 30.5q-42 0 -68 -21t-31 -62l105 -22v-44q-32 -16 -54.5 -37.5t-22.5 -53.5q0 -26 16 -43t42 -17h27v-131h-85q-34 0 -69 6t-63.5 22t-46 43.5t-17.5 69.5z" />
    <glyph glyph-name="uni0E0D" unicode="&#xe0d;" horiz-adv-x="960" 
d="M31 141q0 30 12 54.5t33 42.5t48.5 29.5t57.5 16.5l-157 25v11q0 133 72 197t201 64q142 0 215.5 -64t73.5 -174v-99q0 -57 19.5 -77.5t55.5 -20.5q35 0 54.5 20.5t19.5 77.5v333h192v-368q0 -49 -16 -89t-49 -68.5t-83 -44t-118 -15.5t-118 15.5t-83 44t-49.5 68.5
t-16.5 89v113q0 48 -22 78.5t-75 30.5q-42 0 -68 -21t-31 -62l105 -22v-44q-32 -16 -54.5 -37.5t-22.5 -53.5q0 -26 16 -43t42 -17h27v-131h-85q-34 0 -69 6t-63.5 22t-46 43.5t-17.5 69.5zM900 -109v-109h-314q-59 0 -94.5 12.5t-54 33.5t-24 49t-5.5 59v18h161v-18
q0 -32 16.5 -39t54.5 -6h260z" />
    <glyph glyph-name="uni0E0E" unicode="&#xe0e;" horiz-adv-x="630" 
d="M29 320q0 133 72.5 197t201.5 64q143 0 219 -64t76 -174v-543h-149q-48 29 -84.5 41.5t-64.5 12.5q-38 0 -56 -17t-20 -37h-178q4 51 20.5 85t42.5 54.5t60 29t72 8.5q42 0 84.5 -10.5t80.5 -27.5v383q0 48 -25 78.5t-78 30.5q-42 0 -68.5 -21t-31.5 -62l110 -22v-44
q-29 -13 -42 -36.5t-13 -60.5v-43q0 -73 -40 -107.5t-123 -34.5h-79v132h22q39 0 39 47v12q0 38 27.5 63t86.5 30l-162 25v11z" />
    <glyph glyph-name="uni0E0F" unicode="&#xe0f;" horiz-adv-x="630" 
d="M189 -33q3 -22 15 -36.5t35 -14.5q25 0 39 14t24 37h42l62 -57v412q0 48 -25 78.5t-78 30.5q-42 0 -68.5 -21t-31.5 -62l110 -22v-44q-29 -13 -42 -36.5t-13 -60.5v-43q0 -73 -40 -107.5t-123 -34.5h-79v132h22q39 0 39 47v12q0 38 27.5 63t86.5 30l-162 25v11
q0 133 72.5 197t201.5 64q143 0 219 -64t76 -174v-543h-193l-71 65q-17 -32 -56 -51t-90 -19q-151 0 -169 172h170z" />
    <glyph glyph-name="uni0E10" unicode="&#xe10;" horiz-adv-x="586" 
d="M631 620l-117 -144q49 -54 49 -124q0 -36 -10.5 -71.5t-30.5 -76.5t-49 -90.5t-67 -113.5h-207l-90 188q-3 8 -9 12.5t-18 4.5h-53v109h148q26 0 40 -10.5t22 -29.5l61 -142h4q29 55 50 109t21 96q0 26 -8.5 43t-22 27.5t-30 15t-32.5 4.5q-27 0 -53 -13t-33 -45h-181
q4 50 27.5 89t60 66.5t84 42t100.5 14.5q35 0 64 -6t54 -17l50 62h176zM543 -53v-167h-155l-71 65q-17 -32 -56 -50.5t-90 -18.5q-77 0 -115.5 42t-46.5 129h163q3 -22 15 -36.5t35 -14.5q25 0 39 14t24 37h42l62 -57v57h154z" />
    <glyph glyph-name="uni0E11" unicode="&#xe11;" horiz-adv-x="685" 
d="M3 577h120v-13q0 -19 9 -29.5t23 -10.5q16 0 25.5 11.5t14.5 41.5h43q45 0 72.5 -19t32.5 -53q46 40 85 58.5t82 18.5q40 0 67.5 -13.5t44 -35.5t23.5 -50t7 -56v-427h-192v372q0 23 -7 33.5t-26 10.5q-20 0 -41.5 -16.5t-47.5 -42.5q-15 -15 -25.5 -30.5t-17.5 -35
t-10.5 -43.5t-3.5 -55v-193h-192v193q0 39 11.5 72t30.5 62t44.5 54.5t52.5 48.5q0 25 -12 39q-15 -25 -38 -37.5t-58 -12.5q-22 0 -43 6.5t-37.5 21t-26.5 38t-10 58.5v34z" />
    <glyph glyph-name="uni0E12" unicode="&#xe12;" horiz-adv-x="998" 
d="M403 271q0 -123 -53 -188t-151 -83h-166v386q0 42 8 77.5t26.5 62t50 41.5t78.5 15q110 0 131 -85q21 85 130 85q48 0 80.5 -15t52 -41.5t27.5 -62t8 -77.5v-119q0 -24 4.5 -45.5t14 -38.5t24.5 -27t36 -10q35 0 52.5 25.5t17.5 82.5v323h192v-377q0 -98 -46.5 -153
t-134.5 -55q-65 0 -107.5 28.5t-59.5 84.5v-105h-184v380q0 26 -9.5 38.5t-26.5 12.5t-27.5 -13t-8.5 -31h-70q2 18 -8.5 31t-27.5 13q-36 0 -36 -51v-277q12 5 22.5 16t19 25.5t13 31.5t4.5 35h-32v108h156v-48z" />
    <glyph glyph-name="uni0E13" unicode="&#xe13;" horiz-adv-x="960" 
d="M928 0h-185v105q-17 -56 -59.5 -84.5t-107.5 -28.5q-88 0 -134.5 55t-46.5 153v122q0 48 -22 78.5t-75 30.5q-42 0 -68 -21t-31 -62l105 -22v-44q-32 -16 -54.5 -37.5t-22.5 -53.5q0 -26 16 -43t42 -17h27v-131h-85q-34 0 -69 6t-63.5 22t-46 43.5t-17.5 69.5
q0 30 12 54.5t33 42.5t48.5 29.5t57.5 16.5l-157 25v11q0 133 72 197t201 64q142 0 215.5 -64t73.5 -174v-89q0 -57 17.5 -82.5t53.5 -25.5q21 0 36 10t24 27t13.5 38.5t4.5 45.5v310h192v-577z" />
    <glyph glyph-name="uni0E14" unicode="&#xe14;" horiz-adv-x="649" 
d="M325 431q-45 0 -75 -29t-30 -77v-222q12 5 22.5 16t18 25.5t12 31.5t4.5 35h-31v108h156v-48q0 -123 -53.5 -188t-151.5 -83h-164v350q0 51 18.5 93t55 73t91.5 48t127 17t127 -17t91.5 -48t55 -73t18.5 -93v-350h-187v325q0 48 -30 77t-75 29z" />
    <glyph glyph-name="uni0E15" unicode="&#xe15;" horiz-adv-x="655" 
d="M405 271q0 -123 -53 -188t-151 -83h-168v386q0 42 8 77.5t26.5 62t50.5 41.5t80 15q110 0 131 -85q21 85 130 85q48 0 79.5 -15t50.5 -41.5t26.5 -62t7.5 -77.5v-386h-188v380q0 51 -35 51q-18 0 -28 -13t-8 -31h-70q2 18 -8.5 31t-27.5 13q-36 0 -36 -51v-277
q12 5 22.5 16t19 25.5t13 31.5t4.5 35h-32v108h156v-48z" />
    <glyph glyph-name="uni0E16" unicode="&#xe16;" horiz-adv-x="626" 
d="M31 141q0 30 12 54.5t33 42.5t48.5 29.5t57.5 16.5l-157 25v11q0 133 72.5 197t201.5 64q143 0 219 -64t76 -174v-343h-192v322q0 48 -25 78.5t-78 30.5q-42 0 -68.5 -21t-31.5 -62l105 -22v-44q-32 -16 -54.5 -37.5t-22.5 -53.5q0 -26 16 -43t42 -17h27v-131h-85
q-34 0 -69 6t-63.5 22t-46 43.5t-17.5 69.5z" />
    <glyph glyph-name="uni0E17" unicode="&#xe17;" horiz-adv-x="632" 
d="M33 577h188v-117q16 57 63.5 89t122.5 32q41 0 76 -14t61 -40.5t40.5 -65t14.5 -87.5v-374h-191v320q0 57 -21.5 82.5t-70.5 25.5q-45 0 -68 -28.5t-23 -79.5v-320h-192v577z" />
    <glyph glyph-name="uni0E18" unicode="&#xe18;" horiz-adv-x="591" 
d="M208 394q94 -19 161.5 -36t111 -37.5t64 -49t20.5 -70.5v-18q0 -50 -20 -85.5t-56.5 -58.5t-87 -33.5t-111.5 -10.5q-57 0 -105 11.5t-83 35t-55 59.5t-20 86v64h192v-57q0 -30 24 -42t51 -12q14 0 27.5 2t25 7.5t18.5 15t7 24.5v13q0 22 -19 37t-60.5 27.5t-107 26
t-158.5 33.5v15q0 65 24 110.5t62 74.5t87 42t98 13q51 0 97 -14t82 -39.5t60 -61t30 -78.5h-180q-9 20 -32 35t-57 15q-32 0 -55.5 -9t-34.5 -35z" />
    <glyph glyph-name="uni0E19" unicode="&#xe19;" horiz-adv-x="632" 
d="M599 0h-187v114q-17 -57 -64 -89.5t-122 -32.5q-41 0 -76.5 14t-61.5 41t-40.5 65.5t-14.5 87.5v377h192v-323q0 -57 21.5 -82.5t70.5 -25.5q45 0 68 28.5t23 79.5v323h191v-577z" />
    <glyph glyph-name="uni0E1A" unicode="&#xe1a;" horiz-adv-x="638" 
d="M606 577v-346q0 -51 -17.5 -94.5t-53.5 -75.5t-89.5 -50.5t-125.5 -18.5t-126 18.5t-89.5 50.5t-53.5 75.5t-18 94.5v346h192v-315q0 -63 24.5 -89.5t70.5 -26.5t70 26.5t24 89.5v315h192z" />
    <glyph glyph-name="uni0E1B" unicode="&#xe1b;" horiz-adv-x="638" 
d="M606 750v-519q0 -51 -17.5 -94.5t-53.5 -75.5t-89.5 -50.5t-125.5 -18.5t-126 18.5t-89.5 50.5t-53.5 75.5t-18 94.5v346h192v-315q0 -63 24.5 -89.5t70.5 -26.5t70 26.5t24 89.5v488h192z" />
    <glyph glyph-name="uni0E1C" unicode="&#xe1c;" horiz-adv-x="663" 
d="M33 394q0 97 48 142t140 45h76v-131h-32q-40 0 -40 -48v-186l85 132h43l85 -132v361h192v-577h-168l-130 202l-131 -202h-168v394z" />
    <glyph glyph-name="uni0E1D" unicode="&#xe1d;" horiz-adv-x="663" 
d="M33 394q0 97 48 142t140 45h76v-131h-32q-40 0 -40 -48v-186l85 132h43l85 -132v534h192v-750h-168l-130 202l-131 -202h-168v394z" />
    <glyph glyph-name="uni0E1E" unicode="&#xe1e;" horiz-adv-x="786" 
d="M784 577l-121 -577h-169l-101 369l-101 -369h-169l-121 577h193l47 -316l86 303h132l84 -303l47 316h193z" />
    <glyph glyph-name="uni0E1F" unicode="&#xe1f;" horiz-adv-x="784" 
d="M815 751l-152 -751h-169l-101 369l-101 -369h-169l-121 577h193l47 -316l86 303h132l84 -303l78 490h193z" />
    <glyph glyph-name="uni0E20" unicode="&#xe20;" horiz-adv-x="630" 
d="M29 320q0 133 72.5 197t201.5 64q143 0 219 -64t76 -174v-343h-192v322q0 48 -25 78.5t-78 30.5q-42 0 -68.5 -21t-31.5 -62l110 -22v-44q-29 -13 -42 -36.5t-13 -60.5v-43q0 -73 -40 -107.5t-123 -34.5h-79v132h22q39 0 39 47v12q0 38 27.5 63t86.5 30l-162 25v11z" />
    <glyph glyph-name="uni0E21" unicode="&#xe21;" horiz-adv-x="632" 
d="M33 0v577h192v-323q0 -51 23 -79.5t68 -28.5q49 0 70.5 25.5t21.5 82.5v323h191v-377q0 -49 -14.5 -87.5t-40.5 -65.5t-61 -41t-76 -14q-75 0 -122.5 32.5t-63.5 89.5v-114h-188z" />
    <glyph glyph-name="uni0E22" unicode="&#xe22;" horiz-adv-x="619" 
d="M587 577v-347q0 -54 -16.5 -98t-51.5 -75t-90 -48t-132 -17q-137 0 -202.5 49.5t-65.5 131.5q0 51 27 88.5t79 50.5q-52 12 -78 46t-26 79q0 38 13.5 64.5t39 43.5t61.5 24.5t80 7.5h86v-131h-36q-30 0 -44 -10t-14 -33q0 -13 8 -22t20.5 -14t28 -7.5t29.5 -2.5h27v-97
h-16q-37 0 -63 -12.5t-26 -44.5q0 -25 18 -41t63 -16q48 0 68.5 24t20.5 80v327h192z" />
    <glyph glyph-name="uni0E23" unicode="&#xe23;" horiz-adv-x="555" 
d="M210 399q0 -11 9 -18.5t24 -13t36 -10t45 -9.5q35 -7 72 -17t67.5 -29t50 -48.5t19.5 -75.5q0 -51 -23.5 -86.5t-60.5 -57.5t-82.5 -32t-89.5 -10q-46 0 -91 10.5t-81 34t-59 60.5t-23 90h166q11 -24 35.5 -36.5t53.5 -12.5q12 0 24.5 2t23 6.5t17.5 12t7 17.5
q0 14 -13 22.5t-35 15t-50.5 12.5t-60.5 14q-31 8 -60.5 19.5t-52 30t-36.5 45t-14 64.5q0 49 23 83.5t59 56.5t81 32t89 10q42 0 85.5 -9.5t79.5 -32t59.5 -59.5t23.5 -92h-168q-5 26 -29 36.5t-53 10.5q-10 0 -22 -1.5t-22.5 -6t-17 -11t-6.5 -17.5z" />
    <glyph glyph-name="uni0E24" unicode="&#xe24;" horiz-adv-x="626" 
d="M31 141q0 30 12 54.5t33 42.5t48.5 29.5t57.5 16.5l-157 25v11q0 133 72.5 197t201.5 64q143 0 219 -64t76 -174v-543h-192v522q0 48 -25 78.5t-78 30.5q-42 0 -68.5 -21t-31.5 -62l105 -22v-44q-32 -16 -54.5 -37.5t-22.5 -53.5q0 -26 16 -43t42 -17h27v-131h-85
q-34 0 -69 6t-63.5 22t-46 43.5t-17.5 69.5z" />
    <glyph glyph-name="uni0E25" unicode="&#xe25;" horiz-adv-x="617" 
d="M584 0h-191v232l-101 -8q-33 -2 -52 -14t-19 -37q0 -19 10.5 -30t33.5 -11h50v-132h-101q-40 0 -75 9.5t-60.5 30t-40 50.5t-14.5 70q0 81 61.5 121t173.5 48l135 10v5q0 48 -25 66t-66 18q-29 0 -52 -15t-33 -44h-182q5 48 27 87t57.5 66.5t82 43t100.5 15.5
q142 0 211.5 -61.5t69.5 -198.5v-321z" />
    <glyph glyph-name="uni0E26" unicode="&#xe26;" horiz-adv-x="630" 
d="M29 320q0 133 72.5 197t201.5 64q143 0 219 -64t76 -174v-543h-192v522q0 48 -25 78.5t-78 30.5q-42 0 -68.5 -21t-31.5 -62l110 -22v-44q-29 -13 -42 -36.5t-13 -60.5v-43q0 -73 -40 -107.5t-123 -34.5h-79v132h22q39 0 39 47v12q0 38 27.5 63t86.5 30l-162 25v11z" />
    <glyph glyph-name="uni0E27" unicode="&#xe27;" horiz-adv-x="588" 
d="M283 581q136 0 209 -76t73 -216t-69.5 -216.5t-212.5 -76.5q-53 0 -99 15.5t-81 43.5t-57 67t-27 86h183q10 -28 31 -43t50 -15q45 0 69.5 37t24.5 102q0 66 -24.5 102.5t-69.5 36.5q-29 0 -50 -15t-31 -44h-183q5 48 27 87t57 66.5t81 43t99 15.5z" />
    <glyph glyph-name="uni0E28" unicode="&#xe28;" horiz-adv-x="659" 
d="M26 352q0 51 20 93t58.5 72t95 47t128.5 17q35 0 65.5 -5.5t56.5 -14.5l47 59h176l-105 -129q27 -26 41.5 -59t14.5 -75v-357h-192v327q0 48 -29.5 76t-74.5 28q-58 0 -84 -32.5t-26 -84.5q0 -40 0.5 -72t2.5 -63q8 27 20.5 53.5t30 46.5t39 32.5t47.5 12.5h27v-141h-15
q-27 0 -46.5 -6t-33.5 -17t-24.5 -27t-20.5 -37v-96h-192v96q-5 30 -10 58.5t-8.5 59t-6 64.5t-2.5 74z" />
    <glyph glyph-name="uni0E29" unicode="&#xe29;" horiz-adv-x="657" 
d="M606 577v-217h41v-109h-41v-20q0 -51 -17.5 -94.5t-53.5 -75.5t-89.5 -50.5t-125.5 -18.5t-126 18.5t-89.5 50.5t-53.5 75.5t-18 94.5v346h192v-315q0 -63 24.5 -89.5t70.5 -26.5q43 0 68.5 23t25.5 77v5h-9q-54 0 -85 12.5t-46.5 33.5t-19 49t-3.5 59v17h130v-17
q0 -32 5 -38.5t22 -6.5h6v217h192z" />
    <glyph glyph-name="uni0E2A" unicode="&#xe2a;" horiz-adv-x="619" 
d="M584 0h-191v232l-101 -8q-33 -2 -52 -14t-19 -37q0 -19 10.5 -30t33.5 -11h50v-132h-101q-40 0 -75 9.5t-60.5 30t-40 50.5t-14.5 70q0 81 61.5 121t173.5 48l135 10v5q0 48 -25 66t-66 18q-29 0 -52 -15t-33 -44h-182q5 48 27 87t57.5 66.5t82 43t100.5 15.5
q37 0 68.5 -6t57.5 -17l51 62h176l-119 -147q22 -27 34.5 -64t12.5 -88v-321z" />
    <glyph glyph-name="uni0E2B" unicode="&#xe2b;" horiz-adv-x="624" 
d="M402 188q0 23 -7 37t-20.5 20.5t-32.5 7t-42 -2.5l-75 -10v-240h-192v577h192v-212l70 10q28 4 48.5 11t33.5 19.5t19 32t6 47.5v92h192v-92q0 -71 -36.5 -108.5t-107.5 -51.5q31 0 57.5 -7.5t45.5 -25t30 -46.5t11 -73v-173h-192v188z" />
    <glyph glyph-name="uni0E2C" unicode="&#xe2c;" horiz-adv-x="777" 
d="M819 708q-6 -30 -16.5 -59.5t-27 -54.5t-40 -43.5t-55.5 -27.5q42 -19 57 -53t3 -91l-77 -379h-169l-101 369l-101 -369h-169l-121 577h193l47 -316l86 303h132l84 -303l24 135q8 44 -1 68.5t-45 27.5v85q29 0 49.5 10.5t35 28t23 41.5t11.5 51h178z" />
    <glyph glyph-name="uni0E2D" unicode="&#xe2d;" horiz-adv-x="606" 
d="M300 581q63 0 115.5 -19t90 -55.5t58.5 -90.5t21 -124q0 -69 -18.5 -124.5t-54.5 -94.5t-89.5 -60t-122.5 -21q-62 0 -112 15t-85 42.5t-54 65.5t-19 84q0 22 5.5 46.5t21 45.5t43 34.5t71.5 13.5h147v-109h-77q-17 0 -22.5 -11.5t-5.5 -22.5q0 -28 25.5 -39t59.5 -11
q30 0 50 10.5t32 30t17 46t5 59.5q0 43 -10.5 69.5t-26 41.5t-34 20t-33.5 5q-29 0 -55.5 -14t-35.5 -45h-181q6 50 29.5 89t60.5 66.5t84.5 42t99.5 14.5z" />
    <glyph glyph-name="uni0E2E" unicode="&#xe2e;" horiz-adv-x="608" 
d="M300 581q64 0 116 -23l50 62h176l-118 -146q29 -34 45 -79t16 -103q0 -69 -18.5 -124.5t-54.5 -94.5t-89.5 -60t-122.5 -21q-62 0 -112 15t-85 42.5t-54 65.5t-19 84q0 22 5.5 46.5t21 45.5t43 34.5t71.5 13.5h147v-109h-77q-17 0 -22.5 -11.5t-5.5 -22.5q0 -28 25.5 -39
t59.5 -11q30 0 50 10.5t32 30t17 46t5 59.5q0 43 -10.5 69.5t-26 41.5t-34 20t-33.5 5q-29 0 -55.5 -14t-35.5 -45h-181q6 50 29.5 89t60.5 66.5t84.5 42t99.5 14.5z" />
    <glyph glyph-name="uni0E2F" unicode="&#xe2f;" horiz-adv-x="620" 
d="M568 577v-577h-191v317q-12 -54 -52 -84t-108 -30q-42 0 -77.5 12t-61.5 35.5t-41 59.5t-15 84q0 52 18 87.5t48 57t70 30.5t84 9h52v-132h-32q-22 0 -33.5 -14.5t-11.5 -34.5q0 -24 13.5 -38t45.5 -14q52 0 76.5 34t24.5 85v113h191z" />
    <glyph glyph-name="uni0E30" unicode="&#xe30;" horiz-adv-x="359" 
d="M342 450v-118h-151q-59 0 -94 13t-53.5 34.5t-24 49.5t-5.5 59v21h160v-11q0 -32 16.5 -40.5t54.5 -7.5h97zM342 165v-119h-151q-59 0 -94 13t-53.5 34.5t-24 50t-5.5 59.5v20h160v-11q0 -32 16.5 -40t54.5 -7h97z" />
    <glyph glyph-name="uni0E31" unicode="&#xe31;" 
d="M24 762v-109h-314q-59 0 -94 12.5t-53.5 34t-24 50t-5.5 59.5v20h160v-20q0 -32 16.5 -40t54.5 -7h260z" />
    <glyph glyph-name="uni0E32" unicode="&#xe32;" horiz-adv-x="468" 
d="M198 581q49 0 92 -12t74.5 -39.5t50 -73t18.5 -111.5v-345h-192v332q0 24 -4 42.5t-15 31.5t-30.5 20t-49.5 7q-23 0 -52 -5t-71 -19v129q37 22 84 32.5t95 10.5z" />
    <glyph glyph-name="uni0E33" unicode="&#xe33;" horiz-adv-x="468" 
d="M-157 882q57 0 94.5 -31.5t37.5 -90.5q0 -28 -10 -50t-28 -37.5t-42 -23.5t-52 -8q-58 0 -95.5 30t-37.5 89q0 61 37.5 91.5t95.5 30.5zM-157 724q16 0 27.5 11t11.5 25q0 19 -11.5 29t-27.5 10q-17 0 -28 -10t-11 -29q0 -14 11 -25t28 -11zM198 581q49 0 92 -12
t74.5 -39.5t50 -73t18.5 -111.5v-345h-192v332q0 24 -4 42.5t-15 31.5t-30.5 20t-49.5 7q-23 0 -52 -5t-71 -19v129q37 22 84 32.5t95 10.5z" />
    <glyph glyph-name="uni0E34" unicode="&#xe34;" 
d="M-568 653v109h535v-109h-535z" />
    <glyph glyph-name="uni0E35" unicode="&#xe35;" 
d="M-568 762h367v77h168v-186h-535v109z" />
    <glyph glyph-name="uni0E36" unicode="&#xe36;" 
d="M-136 850q51 0 79.5 -23.5t28.5 -74.5t-28.5 -75t-79.5 -24h-432v109h328q-1 0 -1 4q0 35 23.5 59.5t81.5 24.5zM-167 752q0 -14 8.5 -22.5t22.5 -8.5t22 8.5t8 22.5t-8 22t-22 8t-22.5 -8t-8.5 -22z" />
    <glyph glyph-name="uni0E37" unicode="&#xe37;" 
d="M-568 762h243v76h122v-76h49v76h121v-185h-535v109z" />
    <glyph glyph-name="uni0E38" unicode="&#xe38;" 
d="M-38 -289h-169v114h-84v109h253v-223z" />
    <glyph glyph-name="uni0E39" unicode="&#xe39;" 
d="M-38 -66v-93q0 -44 -19.5 -70t-48.5 -40t-62.5 -18.5t-61.5 -4.5q-26 0 -56.5 4t-57 16t-44.5 34t-18 57v6h-66v109h204v-67q0 -21 7 -36.5t31 -15.5q23 0 30 15.5t7 36.5v67h155z" />
    <glyph glyph-name="uni0E3A" unicode="&#xe3a;" 
d="M-232 -164q0 42 28.5 70t69.5 28t69 -28t28 -70q0 -20 -7.5 -37.5t-20.5 -31t-31 -21.5t-38 -8t-38 8t-31.5 21.5t-21 31t-7.5 37.5z" />
    <glyph glyph-name="uni0E3F" unicode="&#xe3f;" horiz-adv-x="666" 
d="M39 700h188v98h167v-98q102 -2 159 -45.5t57 -123.5q0 -31 -8.5 -59.5t-24.5 -51t-39.5 -38t-54.5 -19.5v-3q36 -1 65 -15t50 -37t32.5 -53t11.5 -65q0 -46 -17.5 -81.5t-49.5 -59.5t-78 -36.5t-102 -12.5h-1v-104h-167v104h-188v700zM328 415q42 0 64.5 16.5t22.5 50.5
q0 72 -85 72h-95v-139h93zM336 149q52 0 77 15t25 56t-25.5 56t-75.5 15h-102v-142h101z" />
    <glyph glyph-name="uni0E40" unicode="&#xe40;" horiz-adv-x="340" 
d="M243 0q-93 0 -141 48.5t-48 154.5v374h192v-395q0 -26 14 -38t34 -12h34l-1 -132h-84z" />
    <glyph glyph-name="uni0E41" unicode="&#xe41;" horiz-adv-x="645" 
d="M243 0q-93 0 -141 48.5t-48 154.5v374h192v-395q0 -26 14 -38t34 -12h34l-1 -132h-84zM548 0q-93 0 -140.5 48.5t-47.5 154.5v374h191v-395q0 -26 14 -38t34 -12h34l-1 -132h-84z" />
    <glyph glyph-name="uni0E42" unicode="&#xe42;" horiz-adv-x="377" 
d="M280 0q-93 0 -140.5 48.5t-47.5 154.5v301q0 31 -9 53t-22.5 37t-30.5 24t-34 14v30q0 35 13 63t35.5 48t54 31t67.5 11h215v-131h-174q-18 0 -32.5 -5t-14.5 -21q60 -20 92 -56.5t32 -96.5v-323q0 -26 13.5 -38t33.5 -12h35l-1 -132h-85z" />
    <glyph glyph-name="uni0E43" unicode="&#xe43;" horiz-adv-x="378" 
d="M281 0q-93 0 -141 48.5t-48 154.5v230q0 33 10.5 58t26 45t33.5 35.5t33.5 29t26 26t10.5 26.5q0 19 -10.5 31.5t-36.5 12.5q-10 0 -20.5 -2t-19 -9t-13.5 -19t-5 -33h-153q0 54 17 91t46.5 60.5t68 34t81.5 10.5q93 0 148.5 -40t55.5 -129q0 -43 -16.5 -71.5t-37 -52.5
t-37 -49t-16.5 -63v-243q0 -26 14 -38t34 -12h34l-1 -132h-84z" />
    <glyph glyph-name="uni0E44" unicode="&#xe44;" horiz-adv-x="378" 
d="M281 0q-93 0 -141 48.5t-48 154.5v250q0 46 12 81.5t32 62t46 44t53 26.5q0 16 -6 26.5t-15 16.5q-15 -26 -38.5 -40.5t-60.5 -14.5q-22 0 -45.5 6.5t-43 21.5t-32 39t-12.5 59v34h135v-13q0 -20 9.5 -30.5t23.5 -10.5q16 0 26 12t15 42h34q41 0 68.5 -12.5t44.5 -34
t24.5 -49.5t7.5 -58v-24q-38 -20 -62 -59.5t-24 -102.5v-293q0 -26 14 -38t34 -12h34l-1 -132h-84z" />
    <glyph glyph-name="uni0E45" unicode="&#xe45;" horiz-adv-x="468" 
d="M198 581q49 0 91.5 -12t74 -39.5t50 -73t18.5 -111.5v-545h-192v532q0 24 -4 42.5t-15 31.5t-30.5 20t-49.5 7q-22 0 -51.5 -5t-71.5 -19v129q37 22 84 32.5t96 10.5z" />
    <glyph glyph-name="uni0E46" unicode="&#xe46;" horiz-adv-x="628" 
d="M384 -120v439q0 26 -4 38t-20 12q-14 0 -21.5 -8.5t-7.5 -34.5h-64q0 26 -8 34.5t-26 8.5q-24 0 -24 -50v-16q0 -24 12.5 -37t34.5 -13h39v-118h-44q-46 0 -87.5 7.5t-73 27.5t-50 54.5t-18.5 89.5v39q0 84 37 125.5t106 41.5q58 0 89 -20.5t42 -62.5q10 42 44 62.5
t87 20.5q83 0 116 -41.5t33 -125.5v-473h-192z" />
    <glyph glyph-name="uni0E47" unicode="&#xe47;" 
d="M-229 797q1 -24 18.5 -39t38.5 -15h74v-109h-43q-36 0 -69.5 15.5t-48.5 44.5q-14 -29 -42 -44.5t-65 -15.5q-62 0 -99 39.5t-37 106.5q0 69 42 109.5t130 40.5h255v-109h-248q-7 0 -15.5 -1.5t-15.5 -5.5t-11.5 -11t-4.5 -18q0 -22 13.5 -29t23.5 -7q14 0 29 12t15 36
h60z" />
    <glyph glyph-name="uni0E48" unicode="&#xe48;" 
d="M-210 880v237h166v-237h-166z" />
    <glyph glyph-name="uni0E49" unicode="&#xe49;" 
d="M19 989v-109h-220q-30 0 -49.5 6t-30.5 15.5t-15 22.5t-4 28q0 23 -10 31.5t-28 8.5h-70v107h148q15 0 28.5 -2.5t23.5 -9t15.5 -19.5t5.5 -34q0 -16 4 -25.5t10.5 -13.5t16 -5t21.5 -1h154z" />
    <glyph glyph-name="uni0E4A" unicode="&#xe4a;" 
d="M-555 981q0 22 5.5 44t18.5 39t35 28t54 11q25 0 48 -9.5t40 -36.5q17 27 38.5 36.5t46.5 9.5q29 0 48.5 -8.5t31.5 -24.5t17 -38t5 -48v-46q17 0 23 10.5t6 30.5v135h114v-139q0 -24 -7 -45t-22.5 -36t-41.5 -23.5t-63 -8.5h-125v114q0 28 -23 28q-9 0 -15.5 -5
t-6.5 -19h-53q0 14 -6 19t-14 5q-13 0 -18.5 -9t-5.5 -23q0 -15 8.5 -24t35.5 -9h26v-77h-64q-27 0 -51.5 5.5t-43 19.5t-30 37t-11.5 57z" />
    <glyph glyph-name="uni0E4B" unicode="&#xe4b;" 
d="M33 955h-96v-75h-142v75h-95v88h95v74h142v-74h96v-88z" />
    <glyph glyph-name="uni0E4C" unicode="&#xe4c;" 
d="M-136 883q-38 1 -54.5 -7t-16.5 -40v-21h-160v21q0 31 5.5 59t24 49.5t53.5 34.5t94 13h173v-109h-119z" />
    <glyph glyph-name="uni0E4D" unicode="&#xe4d;" 
d="M-157 882q57 0 94.5 -31.5t37.5 -90.5q0 -28 -10 -50t-28 -37.5t-42 -23.5t-52 -8q-58 0 -95.5 30t-37.5 89q0 61 37.5 91.5t95.5 30.5zM-157 724q16 0 27.5 11t11.5 25q0 19 -11.5 29t-27.5 10q-17 0 -28 -10t-11 -29q0 -14 11 -25t28 -11z" />
    <glyph glyph-name="uni0E4E" unicode="&#xe4e;" 
 />
    <glyph glyph-name="uni0E4F" unicode="&#xe4f;" horiz-adv-x="528" 
d="M264 527q43 0 81 -16.5t66.5 -45t45 -67t16.5 -81.5t-16.5 -81.5t-45 -66.5t-66.5 -44.5t-81 -16.5t-81.5 16.5t-66.5 44.5t-44.5 66.5t-16.5 81.5t16.5 81.5t44.5 67t66.5 45t81.5 16.5zM264 147q35 0 65 13.5t52.5 36.5t35.5 54t13 66t-13 65t-35.5 52.5t-52.5 35.5
t-65 13t-66 -13t-54 -35.5t-36.5 -52.5t-13.5 -65t13.5 -66t36.5 -54t54 -36.5t66 -13.5zM264 442q26 0 48.5 -9.5t39 -26.5t26.5 -39.5t10 -49.5q0 -26 -10 -49t-26.5 -40t-39 -27t-48.5 -10t-49 10t-40 27t-27 40t-10 49q0 27 10 49.5t27 39.5t40 26.5t49 9.5zM264 228
q38 0 62 26t24 63q0 38 -24 62t-62 24q-37 0 -63 -24t-26 -62q0 -37 26 -63t63 -26z" />
    <glyph glyph-name="uni0E50" unicode="&#xe50;" horiz-adv-x="625" 
d="M312 527q64 0 118 -17.5t93.5 -51t61.5 -83.5t22 -116t-22 -115.5t-61.5 -83.5t-93.5 -51t-118 -17t-118 17t-93 51t-60.5 83.5t-21.5 115.5t21.5 116t60.5 83.5t93 51t118 17.5zM312 138q22 0 42 7t35 21.5t24 37.5t9 55q0 33 -9 56t-24 38t-35 22t-42 7
q-45 0 -76.5 -29t-31.5 -94t31.5 -93t76.5 -28z" />
    <glyph glyph-name="uni0E51" unicode="&#xe51;" horiz-adv-x="625" 
d="M297 90q-49 -5 -98.5 2t-89.5 30t-65 63.5t-25 101.5q0 65 22 110.5t61 74.5t93 42t117 13q64 0 118 -19t93.5 -56t61.5 -92.5t22 -129.5q0 -59 -20 -119t-66 -108t-121 -77t-185 -27v136q62 -1 102.5 17.5t63.5 47t32 63.5t9 67q0 38 -9 66.5t-24 47.5t-35 28.5t-42 9.5
t-41.5 -4.5t-34.5 -15.5t-23.5 -29.5t-8.5 -45.5q0 -31 26.5 -50.5t66.5 -13.5v-133z" />
    <glyph glyph-name="uni0E52" unicode="&#xe52;" horiz-adv-x="821" 
d="M781 236q0 -64 -30.5 -110t-82 -76t-118.5 -44t-139 -14t-139 14t-118.5 44t-82.5 76t-31 110v446h180v-428q0 -43 21.5 -69.5t52 -41t63 -19t54.5 -4.5t54.5 4.5t63 19t52 41t21.5 69.5v71q0 26 -3 37.5t-20 11.5q-10 0 -19 -8t-15 -33h-68q-7 25 -15.5 33t-19.5 8
q-16 0 -19.5 -11.5t-3.5 -37.5v-7q0 -22 17 -32t43 -10q7 0 13.5 0.5t13.5 1.5v-102q-40 -6 -77 -6t-68.5 8t-54 25.5t-35 46t-12.5 69.5v39q0 42 6 73.5t21 53t41 32t66 10.5q55 0 81.5 -21.5t36.5 -63.5q10 42 36.5 63.5t80.5 21.5q45 0 75 -10.5t47 -32t24 -53t7 -73.5
v-122z" />
    <glyph glyph-name="uni0E53" unicode="&#xe53;" horiz-adv-x="683" 
d="M468 527q56 0 90 -10.5t53 -32t25.5 -53t6.5 -73.5v-358h-192v325q0 50 -30 50q-11 0 -20.5 -8.5t-14.5 -33.5h-81q-8 26 -17.5 34t-20.5 8q-14 0 -22 -9.5t-11.5 -26t-4.5 -37.5t-1 -45q0 -64 24 -92.5t82 -29.5q14 0 29 3v-135q-23 -5 -45 -6t-43 -1q-54 0 -98 13
t-75.5 42.5t-49 76t-17.5 113.5q0 61 6 113.5t25 90.5t55.5 60t96.5 22q51 0 83 -21.5t43 -63.5q10 42 41.5 63.5t82.5 21.5z" />
    <glyph glyph-name="uni0E54" unicode="&#xe54;" horiz-adv-x="648" 
d="M312 384q-35 0 -61 -32.5t-26 -96.5q0 -57 26.5 -90t87.5 -33q2 0 18 0.5t28 4.5q-4 7 -7 19t-3 34q0 36 9.5 64t34.5 46.5t67 26.5t108 4v-114q-24 1 -43 -9t-19 -36q0 -25 17 -33.5t40 -8.5h47v-130h-49q-36 0 -69.5 8.5t-61.5 23.5q-41 -40 -140 -40
q-134 0 -207.5 67.5t-73.5 199.5t73 199.5t201 67.5h68q57 0 85.5 22t26.5 79h147q6 -61 -10 -106.5t-45.5 -76t-67 -45.5t-73.5 -15h-128z" />
    <glyph glyph-name="uni0E55" unicode="&#xe55;" horiz-adv-x="648" 
d="M636 0h-49q-36 0 -69.5 8.5t-61.5 23.5q-41 -40 -140 -40q-134 0 -207.5 67.5t-73.5 199.5q0 91 35 150.5t100 88.5q-7 12 -9.5 25.5t-2.5 28.5q0 55 34.5 87t103.5 32t103 -31.5t34 -82.5q0 -16 -5 -28h6q14 0 24.5 8t17.5 21.5t10 31.5t3 37h147q6 -61 -10 -106.5
t-45.5 -76t-67 -45.5t-73.5 -15h-128q-35 0 -61 -32.5t-26 -96.5q0 -57 26.5 -90t87.5 -33q2 0 18 0.5t28 4.5q-5 7 -7.5 19t-2.5 34q0 36 9.5 64t34.5 46.5t67 26.5t108 4v-114q-24 1 -43 -9t-19 -36q0 -25 17 -33.5t40 -8.5h47v-130zM295 520q17 0 27 9t10 26t-10 25.5
t-27 8.5t-26.5 -8.5t-9.5 -25.5t9.5 -26t26.5 -9z" />
    <glyph glyph-name="uni0E56" unicode="&#xe56;" horiz-adv-x="696" 
d="M337 224q-42 6 -60.5 -4t-18.5 -33q0 -15 8 -25t21.5 -16t30 -8t32.5 -2q56 0 91 26.5t35 90.5q0 70 -39 103.5t-99 34.5q-23 1 -53.5 -3.5t-51.5 -14.5h-134l-125 255h170l64 -146q23 21 64 33t96 12q84 0 140.5 -19t90 -53.5t48 -82t14.5 -104.5q0 -76 -22.5 -128.5
t-63.5 -85.5t-99.5 -47.5t-130.5 -14.5q-56 0 -105.5 9.5t-86.5 32t-58.5 61t-21.5 96.5q0 45 12.5 74t34.5 46t51.5 24t63.5 7q24 0 50 -2.5t52 -7.5v-108z" />
    <glyph glyph-name="uni0E57" unicode="&#xe57;" horiz-adv-x="912" 
d="M873 193q0 -54 -20.5 -92t-52 -61.5t-70 -34t-75.5 -10.5t-75.5 10.5t-70 34t-52 61.5t-20.5 92v132q0 26 -6.5 38t-23.5 12q-11 0 -20 -8.5t-14 -33.5h-69q-8 26 -17.5 34t-20.5 8q-14 0 -21.5 -9.5t-11.5 -26t-4.5 -37.5t-0.5 -45q0 -63 23.5 -92t81.5 -29
q7 0 14.5 0.5t15.5 1.5v-135q-23 -5 -45 -6t-43 -1q-54 0 -98 13t-75.5 42.5t-49 76t-17.5 113.5q0 61 6 113.5t25 90.5t55.5 60t96.5 22q45 0 76.5 -21.5t42.5 -63.5q11 42 42.5 63.5t75.5 21.5q55 0 87 -10.5t48.5 -32t21 -53t4.5 -73.5v-181q0 -18 9 -31t30 -13t29.5 13
t8.5 31v505h180v-489z" />
    <glyph glyph-name="uni0E58" unicode="&#xe58;" horiz-adv-x="635" 
d="M259 140q11 0 21.5 12.5t13.5 37.5h82q5 -27 15.5 -38.5t21.5 -11.5q26 0 34.5 15t8.5 32v11q0 6 -1.5 12.5t-7.5 12t-18 9.5t-33 5h-16t-19 -2v109q2 0 3.5 0.5t3.5 0.5l21 2q2 0 3.5 0.5t3.5 0.5q125 12 179.5 -28.5t54.5 -132.5v-9q0 -29 -7.5 -61t-26.5 -59
t-51.5 -44.5t-82.5 -17.5q-51 0 -83.5 21t-42.5 63q-10 -42 -41.5 -63.5t-82.5 -21.5q-55 0 -91.5 22.5t-58.5 59.5t-30.5 84t-8.5 96q0 66 19 116.5t54 84.5t85.5 51t114.5 17h90q57 0 85.5 22t26.5 79h147q6 -61 -10 -106.5t-45 -76t-66.5 -45.5t-73.5 -15h-150
q-38 0 -62 -33.5t-24 -93.5q0 -20 1.5 -40.5t6 -37.5t13.5 -28t24 -11z" />
    <glyph glyph-name="uni0E59" unicode="&#xe59;" horiz-adv-x="772" 
d="M569 344q0 17 -9.5 26.5t-32.5 9.5q-15 0 -26 -13t-4 -33l146 -334h-179l-146 333q-11 25 -21 36t-27 11q-14 0 -22 -10.5t-11.5 -27.5t-4.5 -39t-1 -46q0 -57 15.5 -85.5t59.5 -33.5q20 -3 47 0v-135q-14 -3 -28.5 -5t-28.5 -2q-56 -4 -103.5 7t-82 40.5t-54 78
t-19.5 119.5q0 61 7.5 113.5t28.5 90.5t59.5 60t100.5 22q111 0 153 -85q7 25 20 41.5t29 26t34.5 13.5t35.5 4q33 0 60 -12.5t42 -35.5l43 116h149l-105 -251h-125z" />
    <glyph glyph-name="uni0E5A" unicode="&#xe5a;" horiz-adv-x="884" 
d="M578 577v-577h-191v317q-16 -55 -57 -84.5t-108 -29.5q-42 0 -78.5 12t-63.5 35.5t-42.5 59.5t-15.5 84q0 52 18 87.5t48 57t70 30.5t84 9h52v-132h-32q-22 0 -33.5 -14.5t-11.5 -34.5q0 -24 16 -38t48 -14q52 0 79 34t27 85v113h191zM831 577v-577h-190v577h190z" />
    <glyph glyph-name="uni0E5B" unicode="&#xe5b;" horiz-adv-x="895" 
d="M269 287q0 24 -2 46.5t-8.5 40t-18 28t-31.5 10.5q-25 0 -40 -11.5t-23.5 -29.5t-11 -39t-2.5 -41q0 -41 11 -69.5t29 -46.5t41.5 -26.5t47.5 -8.5q51 0 82 34t47.5 84.5t21.5 109t5 108.5h96l43 -190l33 154h96q0 -24 1.5 -45.5t8 -38t19.5 -26t35 -9.5h110v-86h-110
q-12 0 -26 1t-29 5t-29 12.5t-26 24.5l-35 -176h-84l-37 164q-9 -42 -25 -80t-43 -67t-65 -46t-90 -17q-48 0 -89 16t-71 47t-47 75.5t-17 102.5q0 38 8 74t27.5 64.5t52.5 46t84 17.5q48 0 78 -17.5t47.5 -46.5t23.5 -67.5t6 -80.5h-94z" />
    <glyph glyph-name="endash" unicode="&#x2013;" horiz-adv-x="494" 
d="M459 243h-423v148h423v-148z" />
    <glyph glyph-name="emdash" unicode="&#x2014;" horiz-adv-x="724" 
d="M688 243h-652v148h652v-148z" />
    <glyph glyph-name="quoteleft" unicode="&#x2018;" horiz-adv-x="324" 
d="M308 701l-120 -267h-193l150 267h163z" />
    <glyph glyph-name="quoteright" unicode="&#x2019;" horiz-adv-x="323" 
d="M16 434l120 267h191l-147 -267h-164z" />
    <glyph glyph-name="quotesinglbase" unicode="&#x201a;" horiz-adv-x="239" 
d="M-13 -123l56 244h181l-80 -244h-157z" />
    <glyph glyph-name="quotedblleft" unicode="&#x201c;" horiz-adv-x="536" 
d="M295 701l-120 -267h-180l150 267h150zM521 701l-121 -267h-178l149 267h150z" />
    <glyph glyph-name="quotedblright" unicode="&#x201d;" horiz-adv-x="536" 
d="M242 434l120 267h179l-149 -267h-150zM16 434l120 267h179l-149 -267h-150z" />
    <glyph glyph-name="quotedblbase" unicode="&#x201e;" horiz-adv-x="444" 
d="M-13 -123l56 244h168l-80 -244h-144zM207 -123l55 244h168l-81 -244h-142z" />
    <glyph glyph-name="dagger" unicode="&#x2020;" horiz-adv-x="544" 
d="M177 540v160h192v-160h132v-136h-132v-404h-192v404h-134v136h134z" />
    <glyph glyph-name="daggerdbl" unicode="&#x2021;" horiz-adv-x="544" 
d="M177 540v160h192v-160h132v-136h-132v-107h132v-136h-132v-161h-192v161h-134v136h134v107h-134v136h134z" />
    <glyph glyph-name="bullet" unicode="&#x2022;" horiz-adv-x="468" 
d="M236 142q-35 0 -67 14t-56.5 38t-39 55.5t-14.5 67.5q0 37 14.5 69t39 55.5t56.5 37t67 13.5q36 0 67.5 -13.5t55 -37t37 -55.5t13.5 -69q0 -34 -13.5 -65.5t-37 -56t-55 -39t-67.5 -14.5z" />
    <glyph glyph-name="ellipsis" unicode="&#x2026;" horiz-adv-x="764" 
d="M16 101q0 43 28 72.5t81 29.5t81 -29.5t28 -72.5q0 -42 -28 -71.5t-81 -29.5t-81 29.5t-28 71.5zM273 101q0 43 28.5 72.5t81.5 29.5q52 0 80.5 -29.5t28.5 -72.5q0 -42 -28.5 -71.5t-80.5 -29.5q-53 0 -81.5 29.5t-28.5 71.5zM530 101q0 43 28.5 72.5t81.5 29.5
q52 0 80.5 -29.5t28.5 -72.5q0 -42 -28.5 -71.5t-80.5 -29.5q-53 0 -81.5 29.5t-28.5 71.5z" />
    <glyph glyph-name="perthousand" unicode="&#x2030;" horiz-adv-x="1112" 
d="M21 548q0 37 13 66.5t35.5 50.5t51.5 32t61 11t61 -11t51.5 -32t35.5 -50.5t13 -66.5t-13 -66.5t-35.5 -50t-51.5 -31.5t-61 -11t-61 11t-51.5 31.5t-35.5 50t-13 66.5zM674 700l-414 -700h-160l413 700h161zM138 548q0 -25 11.5 -39.5t32.5 -14.5q20 0 31.5 14.5
t11.5 39.5t-11.5 39t-31.5 14q-21 0 -32.5 -14t-11.5 -39zM430 151q0 38 13 67.5t35 50.5t51 32t61 11t61 -11t51 -32t35 -50.5t13 -67.5q0 -36 -13 -65.5t-35 -50.5t-51 -32t-61 -11t-61 11t-51 32t-35 50.5t-13 65.5zM770 151q0 38 13 67.5t35 50.5t51 32t61 11t61.5 -11
t51.5 -32t35 -50.5t13 -67.5q0 -36 -13 -65.5t-35 -50.5t-51.5 -32t-61.5 -11t-61 11t-51 32t-35 50.5t-13 65.5zM545 151q0 -24 12 -38.5t33 -14.5q19 0 31 14.5t12 38.5q0 25 -12 40t-31 15q-21 0 -33 -15t-12 -40zM886 151q0 -24 11.5 -38.5t32.5 -14.5q20 0 32 14.5
t12 38.5q0 25 -12 40t-32 15q-21 0 -32.5 -15t-11.5 -40z" />
    <glyph glyph-name="guilsinglleft" unicode="&#x2039;" horiz-adv-x="535" 
d="M43 269v97l450 273v-182l-251 -139v-1l251 -138v-182z" />
    <glyph glyph-name="guilsinglright" unicode="&#x203a;" horiz-adv-x="535" 
d="M493 269l-450 -272v182l250 138v1l-250 139v182l450 -273v-97z" />
    <glyph glyph-name="fraction" unicode="&#x2044;" horiz-adv-x="457" 
d="M453 700l-254 -700h-196l256 700h194z" />
    <glyph glyph-name="Euro" unicode="&#x20ac;" horiz-adv-x="769" 
d="M284 377q-3 -26 0 -52h174v-116h-140q38 -60 112 -60q48 0 80 24.5t45 73.5h196q-7 -58 -33.5 -105t-68.5 -80.5t-98 -51.5t-121 -18q-125 0 -209 55.5t-117 161.5h-83v116h64q-3 26 0 52h-64v115h83q35 106 118 161t208 55q64 0 119.5 -18t97.5 -51t69 -80t33 -105h-196
q-11 48 -43 74t-80 26q-74 0 -112 -62h140v-115h-174z" />
    <glyph glyph-name="trademark" unicode="&#x2122;" horiz-adv-x="981" 
d="M387 607h-116v-326h-122v326h-117v93h355v-93zM828 522h-3l-103 -241h-57l-103 241h-4v-241h-121v419h157l98 -253h2l99 253h157v-419h-122v241z" />
    <glyph glyph-name="minus" unicode="&#x2212;" horiz-adv-x="494" 
d="M459 243h-423v148h423v-148z" />
    <glyph glyph-name="uni25CC" unicode="&#x25cc;" horiz-adv-x="586" 
d="M252 504q0 18 13 31t31 12t31 -14.5t13 -30.5q-1 -19 -14.5 -31.5t-32.5 -11.5q-18 1 -30 14t-11 31zM385 450q1 18 13.5 31t31.5 12q18 -1 31 -14.5t12 -31.5q0 -19 -14 -31t-32 -11q-19 1 -31 13.5t-11 31.5zM118 450q0 18 13 31t31 12q19 -1 32 -14.5t12 -31.5
q-1 -19 -14.5 -31t-32.5 -11q-18 1 -30 13.5t-11 31.5zM438 317q1 18 13.5 31t30.5 12q19 0 32 -14t12 -32t-14.5 -30t-31.5 -12q-19 1 -31 14t-11 31zM60 317q1 18 14.5 31t31.5 12q18 0 30.5 -14t11.5 -32q0 -18 -13.5 -30t-31.5 -12q-18 1 -31 14t-12 31zM385 189
q1 17 13.5 30t31.5 12q18 0 31 -14t12 -31q0 -18 -14 -30.5t-32 -12.5q-19 1 -31 14t-11 32zM118 189q0 17 13 30t31 12q19 0 32 -14t12 -31q-1 -18 -14.5 -30.5t-32.5 -12.5q-18 1 -30 14t-11 32zM252 128q0 18 13 31t31 12t31 -14.5t13 -31.5q-1 -19 -14.5 -31t-32.5 -11
q-18 1 -30 13.5t-11 31.5z" />
    <glyph glyph-name="uni0E10.descless" horiz-adv-x="587" 
d="M631 620l-117 -144q49 -54 49 -124q0 -36 -10.5 -71.5t-30.5 -76.5t-49 -90.5t-67 -113.5h-207l-90 188q-3 8 -9 12.5t-18 4.5h-53v109h148q26 0 40 -10.5t22 -29.5l61 -142h4q29 55 50 109t21 96q0 26 -8.5 43t-22 27.5t-30 15t-32.5 4.5q-27 0 -53 -13t-33 -45h-181
q4 50 27.5 89t60 66.5t84 42t100.5 14.5q35 0 64 -6t54 -17l50 62h176z" />
    <glyph glyph-name="uni0E0D.descless" horiz-adv-x="960" 
d="M31 141q0 30 12 54.5t33 42.5t48.5 29.5t57.5 16.5l-157 25v11q0 133 72 197t201 64q142 0 215.5 -64t73.5 -174v-99q0 -57 19.5 -77.5t55.5 -20.5q35 0 54.5 20.5t19.5 77.5v333h192v-368q0 -49 -16 -89t-49 -68.5t-83 -44t-118 -15.5t-118 15.5t-83 44t-49.5 68.5
t-16.5 89v113q0 48 -22 78.5t-75 30.5q-42 0 -68 -21t-31 -62l105 -22v-44q-32 -16 -54.5 -37.5t-22.5 -53.5q0 -26 16 -43t42 -17h27v-131h-85q-34 0 -69 6t-63.5 22t-46 43.5t-17.5 69.5z" />
    <glyph glyph-name="uni0E48.nikhahit" 
d="M-44 919h-161v198h161v-198zM-157 883q57 0 95 -32t38 -90q0 -57 -38 -88.5t-95 -31.5t-95 30t-38 90t38 91t95 31zM-157 724q16 0 27 11t11 26q0 17 -11 27t-27 10t-27 -10t-11 -27q0 -15 11 -26t27 -11z" />
    <glyph glyph-name="uni0E49.nikhahit" 
d="M18 1018v-99h-197q-28 0 -45.5 5.5t-27.5 14.5t-13.5 21t-3.5 25q0 20 -8.5 28t-25.5 8h-63v96h134q27 0 46 -10.5t19 -48.5q0 -30 13 -35t34 -5h138zM-157 883q57 0 95 -32t38 -90q0 -57 -38 -88.5t-95 -31.5t-95 30t-38 90t38 91t95 31zM-157 724q16 0 27 11t11 26
q0 17 -11 27t-27 10t-27 -10t-11 -27q0 -15 11 -26t27 -11z" />
    <glyph glyph-name="uni0E4A.nikhahit" 
d="M-395 1017q0 20 5 40t17 35.5t31.5 25t48.5 9.5q22 0 43 -9t36 -33q14 24 34 33t42 9q52 0 73 -30t21 -77v-41q14 0 19.5 9.5t5.5 27.5v120h104v-124q0 -44 -27 -73t-94 -29h-113v102q0 25 -22 25q-8 0 -14 -4t-6 -17h-47q0 13 -5.5 17t-12.5 4q-22 0 -22 -28
q0 -14 7.5 -22t32.5 -8h23v-69h-58q-24 0 -46 5t-39 17.5t-27 33t-10 51.5zM-157 883q57 0 95 -32t38 -90q0 -57 -38 -88.5t-95 -31.5t-95 30t-38 90t38 91t95 31zM-157 724q16 0 27 11t11 26q0 17 -11 27t-27 10t-27 -10t-11 -27q0 -15 11 -26t27 -11z" />
    <glyph glyph-name="uni0E4B.nikhahit" 
d="M41 988h-90v-69h-142v69h-90v88h90v69h142v-69h90v-88zM-157 883q57 0 95 -32t38 -90q0 -57 -38 -88.5t-95 -31.5t-95 30t-38 90t38 91t95 31zM-157 724q16 0 27 11t11 26q0 17 -11 27t-27 10t-27 -10t-11 -27q0 -15 11 -26t27 -11z" />
    <glyph glyph-name="uni0E31.upleft" 
d="M-33 762v-109h-219q-59 0 -94.5 12.5t-54 34t-24 50t-5.5 59.5v20h161v-20q0 -32 16 -40t55 -7h165z" />
    <glyph glyph-name="uni0E34.upleft" 
d="M-33 653h-419v109h419v-109z" />
    <glyph glyph-name="uni0E35.upleft" 
d="M-452 762h251v77h168v-186h-419v109z" />
    <glyph glyph-name="uni0E36.upleft" 
d="M-136 850q51 0 79.5 -23.5t28.5 -74.5t-28.5 -75t-79.5 -24h-316v109h212q-1 0 -1 4q0 35 23.5 59.5t81.5 24.5zM-167 752q0 -14 8.5 -22.5t22.5 -8.5t22 8.5t8 22.5t-8 22t-22 8t-22.5 -8t-8.5 -22z" />
    <glyph glyph-name="uni0E37.upleft" 
d="M-452 762h146v76h112v-76h49v76h112v-185h-419v109z" />
    <glyph glyph-name="uni0E48.upleft" 
d="M-210 880v237h166v-237h-166z" />
    <glyph glyph-name="uni0E49.upleft" 
d="M-33 989v-109h-179q-31 0 -50 6t-30 15.5t-15 22.5t-4 28q0 23 -10.5 31.5t-28.5 8.5h-50v107h129q15 0 28.5 -2.5t23 -9t15.5 -19.5t6 -34q0 -33 14 -39t37 -6h114z" />
    <glyph glyph-name="uni0E4A.upleft" 
d="M-460 999q0 23 5.5 45t16.5 39t29 28t43 11t48 -10t40 -37q17 27 38.5 37t45.5 10q45 0 64.5 -27t19.5 -74v-64q17 0 23 10t6 30v136h106v-139q0 -24 -6 -45t-20 -36.5t-38.5 -24t-61.5 -8.5h-106v115q0 27 -23 27q-9 0 -15.5 -4.5t-6.5 -18.5h-52q0 14 -6 18.5t-14 4.5
q-25 0 -25 -31q0 -16 9 -25t36 -9h25v-77h-45q-26 0 -50.5 7t-43.5 21.5t-30.5 37t-11.5 53.5z" />
    <glyph glyph-name="uni0E4B.upleft" 
d="M52 1002h-96v-75h-142v75h-95v88h95v74h142v-74h96v-88z" />
    <glyph glyph-name="uni0E47.upleft" 
d="M-146 797q1 -24 18 -39t38 -15h56v-109h-24q-37 0 -70 15.5t-48 44.5q-14 -29 -42 -44.5t-65 -15.5q-63 0 -99.5 39.5t-36.5 106.5q0 69 42 109.5t130 40.5h235v-109h-229q-7 0 -15 -1.5t-15 -5.5t-11.5 -11t-4.5 -18q0 -22 13.5 -29t23.5 -7q14 0 28.5 12t15.5 36h60z
" />
    <glyph glyph-name="uni0E48.up2" 
d="M-205 880v198h161v-198h-161z" />
    <glyph glyph-name="uni0E49.up2" 
d="M7 979v-99h-196q-28 0 -46 5.5t-28 14.5t-13.5 21t-3.5 25q0 20 -8.5 28t-25.5 8h-62v97h133q28 0 46.5 -11t18.5 -49q0 -30 13 -35t34 -5h138z" />
    <glyph glyph-name="uni0E4A.up2" 
d="M-504 987q0 20 5 40t17 35.5t31.5 25t48.5 9.5q23 0 44 -9t36 -33q14 24 34 33t42 9q52 0 73 -30t21 -77v-41q14 0 19.5 9.5t5.5 27.5v120h103v-124q0 -44 -27 -73t-94 -29h-113v102q0 25 -21 25q-8 0 -14 -4t-6 -17h-48q0 13 -5.5 17t-12.5 4q-21 0 -21 -28
q0 -14 7.5 -22t31.5 -8h24v-69h-58q-24 0 -46 5t-39.5 17.5t-27.5 33t-10 51.5z" />
    <glyph glyph-name="uni0E4B.up2" 
d="M41 949h-90v-69h-142v69h-90v88h90v69h142v-69h90v-88z" />
    <glyph glyph-name="uni0E4C.upleft" 
d="M-20 939q-38 1 -54.5 -7t-16.5 -40v-20h-161v20q0 31 5.5 59t24 49.5t54 34.5t94.5 13h173v-109h-119z" />
    <glyph glyph-name="uni0E4C.up2" 
d="M-107 876q-35 1 -50 -6t-15 -36v-19h-145v19q0 28 5 53.5t21.5 45t48.5 31t85 11.5h156v-99h-106z" />
    </font>
</defs>
</svg>
